<?xml version="1.0" encoding="UTF-8" standalone="no"?><svg xmlns="http://www.w3.org/2000/svg" xmlns:xlink="http://www.w3.org/1999/xlink" contentScriptType="application/ecmascript" contentStyleType="text/css" height="742px" preserveAspectRatio="none" style="width:516px;height:742px;background:#FFFFFF;" version="1.1" viewBox="0 0 516 742" width="516px" zoomAndPan="magnify"><defs><filter height="300%" id="f1pbfgfrjnkcrl" width="300%" x="-1" y="-1"><feGaussianBlur result="blurOut" stdDeviation="2.0"/><feColorMatrix in="blurOut" result="blurOut2" type="matrix" values="0 0 0 0 0 0 0 0 0 0 0 0 0 0 0 0 0 0 .4 0"/><feOffset dx="4.0" dy="4.0" in="blurOut2" result="blurOut3"/><feBlend in="SourceGraphic" in2="blurOut3" mode="normal"/></filter></defs><g><text fill="#000000" font-family="sans-serif" font-size="18" lengthAdjust="spacing" textLength="140" x="181.75" y="18.6855">Connect-4 - Initial</text><rect fill="#FEFECE" filter="url(#f1pbfgfrjnkcrl)" height="35.0938" style="stroke:#A80036;stroke-width:1.5;" width="70" x="246" y="29.6406"/><text fill="#000000" font-family="sans-serif" font-size="12" lengthAdjust="spacing" textLength="56" x="253" y="44.0977">:Connect4</text><line style="stroke:#A80036;stroke-width:1.5;" x1="247" x2="315" y1="48.7344" y2="48.7344"/><rect fill="#FEFECE" filter="url(#f1pbfgfrjnkcrl)" height="52.25" style="stroke:#A80036;stroke-width:1.5;" width="94" x="97" y="124.6406"/><text fill="#000000" font-family="sans-serif" font-size="12" lengthAdjust="spacing" textLength="80" x="104" y="139.0977">player1 :Player</text><line style="stroke:#A80036;stroke-width:1.5;" x1="98" x2="190" y1="143.7344" y2="143.7344"/><text fill="#000000" font-family="sans-serif" font-size="10" lengthAdjust="spacing" textLength="66" x="103" y="158.1152">name = David</text><text fill="#000000" font-family="sans-serif" font-size="10" lengthAdjust="spacing" textLength="79" x="103" y="170.6934">color = YELLOW</text><rect fill="#FEFECE" filter="url(#f1pbfgfrjnkcrl)" height="35.0938" style="stroke:#A80036;stroke-width:1.5;" width="42" x="364" y="693.6406"/><text fill="#000000" font-family="sans-serif" font-size="12" lengthAdjust="spacing" textLength="28" x="371" y="708.0977">:Row</text><line style="stroke:#A80036;stroke-width:1.5;" x1="365" x2="405" y1="712.7344" y2="712.7344"/><rect fill="#FEFECE" filter="url(#f1pbfgfrjnkcrl)" height="35.0938" style="stroke:#A80036;stroke-width:1.5;" width="61" x="441.5" y="693.6406"/><text fill="#000000" font-family="sans-serif" font-size="12" lengthAdjust="spacing" textLength="47" x="448.5" y="708.0977">:Column</text><line style="stroke:#A80036;stroke-width:1.5;" x1="442.5" x2="501.5" y1="712.7344" y2="712.7344"/><rect fill="#FEFECE" filter="url(#f1pbfgfrjnkcrl)" height="52.25" style="stroke:#A80036;stroke-width:1.5;" width="94" x="245" y="236.6406"/><text fill="#000000" font-family="sans-serif" font-size="12" lengthAdjust="spacing" textLength="80" x="252" y="251.0977">player2 :Player</text><line style="stroke:#A80036;stroke-width:1.5;" x1="246" x2="338" y1="255.7344" y2="255.7344"/><text fill="#000000" font-family="sans-serif" font-size="10" lengthAdjust="spacing" textLength="60" x="251" y="270.1152">name = Xavi</text><text fill="#000000" font-family="sans-serif" font-size="10" lengthAdjust="spacing" textLength="57" x="251" y="282.6934">color = RED</text><rect fill="#FEFECE" filter="url(#f1pbfgfrjnkcrl)" height="35.0938" style="stroke:#A80036;stroke-width:1.5;" width="42" x="297" y="133.1406"/><text fill="#000000" font-family="sans-serif" font-size="12" lengthAdjust="spacing" textLength="28" x="304" y="147.5977">:Turn</text><line style="stroke:#A80036;stroke-width:1.5;" x1="298" x2="338" y1="152.2344" y2="152.2344"/><rect fill="#FEFECE" filter="url(#f1pbfgfrjnkcrl)" height="35.0938" style="stroke:#A80036;stroke-width:1.5;" width="50" x="317" y="348.6406"/><text fill="#000000" font-family="sans-serif" font-size="12" lengthAdjust="spacing" textLength="36" x="324" y="363.0977">:Board</text><line style="stroke:#A80036;stroke-width:1.5;" x1="318" x2="366" y1="367.7344" y2="367.7344"/><rect fill="#FEFECE" filter="url(#f1pbfgfrjnkcrl)" height="35.0938" style="stroke:#A80036;stroke-width:1.5;" width="65" x="309.5" y="458.6406"/><text fill="#000000" font-family="sans-serif" font-size="12" lengthAdjust="spacing" textLength="51" x="316.5" y="473.0977">:Insertion</text><line style="stroke:#A80036;stroke-width:1.5;" x1="310.5" x2="373.5" y1="477.7344" y2="477.7344"/><rect fill="#FEFECE" filter="url(#f1pbfgfrjnkcrl)" height="64.8281" style="stroke:#A80036;stroke-width:1.5;" width="67" x="207.5" y="443.6406"/><text fill="#000000" font-family="sans-serif" font-size="12" lengthAdjust="spacing" textLength="43" x="219.5" y="458.0977">:Square</text><line style="stroke:#A80036;stroke-width:1.5;" x1="208.5" x2="273.5" y1="462.7344" y2="462.7344"/><text fill="#000000" font-family="sans-serif" font-size="10" lengthAdjust="spacing" textLength="34" x="213.5" y="477.1152">row = 0</text><text fill="#000000" font-family="sans-serif" font-size="10" lengthAdjust="spacing" textLength="54" x="213.5" y="489.6934">column = 0</text><text fill="#000000" font-family="sans-serif" font-size="10" lengthAdjust="spacing" textLength="55" x="213.5" y="502.2715">token = null</text><rect fill="#FEFECE" filter="url(#f1pbfgfrjnkcrl)" height="39.6719" style="stroke:#A80036;stroke-width:1.5;" width="94" x="259" y="581.1406"/><text fill="#000000" font-family="sans-serif" font-size="12" lengthAdjust="spacing" textLength="80" x="266" y="595.5977">token1 : Token</text><line style="stroke:#A80036;stroke-width:1.5;" x1="260" x2="352" y1="600.2344" y2="600.2344"/><polygon fill="none" points="270,606.2344,274,610.2344,270,614.2344,266,610.2344" style="stroke:#B38D22;stroke-width:1.0;"/><text fill="#000000" font-family="sans-serif" font-size="10" lengthAdjust="spacing" textLength="54" x="279" y="614.6152">color: RED;</text><rect fill="#FEFECE" filter="url(#f1pbfgfrjnkcrl)" height="64.8281" style="stroke:#A80036;stroke-width:1.5;" width="80" x="388" y="568.6406"/><text fill="#000000" font-family="sans-serif" font-size="12" lengthAdjust="spacing" textLength="43" x="406.5" y="583.0977">:Square</text><line style="stroke:#A80036;stroke-width:1.5;" x1="389" x2="467" y1="587.7344" y2="587.7344"/><text fill="#000000" font-family="sans-serif" font-size="10" lengthAdjust="spacing" textLength="34" x="394" y="602.1152">row = 5</text><text fill="#000000" font-family="sans-serif" font-size="10" lengthAdjust="spacing" textLength="54" x="394" y="614.6934">column = 0</text><text fill="#000000" font-family="sans-serif" font-size="10" lengthAdjust="spacing" textLength="68" x="394" y="627.2715">token = token1</text><path d="M6,454.6406 L6,497.3438 A0,0 0 0 0 6,497.3438 L172,497.3438 A0,0 0 0 0 172,497.3438 L172,480.1406 L207.37,476.1406 L172,472.1406 L172,464.6406 L162,454.6406 L6,454.6406 A0,0 0 0 0 6,454.6406 " fill="#FBFB77" filter="url(#f1pbfgfrjnkcrl)" style="stroke:#A80036;stroke-width:1.0;"/><path d="M162,454.6406 L162,464.6406 L172,464.6406 L162,454.6406 " fill="#FBFB77" style="stroke:#A80036;stroke-width:1.0;"/><text fill="#000000" font-family="sans-serif" font-size="13" lengthAdjust="spacing" textLength="145" x="12" y="473.1357">From 0x0 to 5x6 squares</text><text fill="#000000" font-family="sans-serif" font-size="13" lengthAdjust="spacing" textLength="134" x="12" y="489.4873">on board without Token</text><!--MD5=[427d5549f99c316dcc5dbb0250bc1b30]
link connect4 to player1--><path codeLine="33" d="M249.0406,71.8178 C249.0406,71.8178 207.79,102.3806 188.31,116.8106 " fill="none" id="connect4-player1" style="stroke:#A80036;stroke-width:1.0;"/><polygon fill="#A80036" points="177.85,124.5606,187.4619,122.4134,181.8664,121.5826,182.6972,115.9871,177.85,124.5606" style="stroke:#A80036;stroke-width:1.0;"/><line style="stroke:#A80036;stroke-width:1.0;" x1="181.8664" x2="188.29" y1="121.5826" y2="116.8256"/><polygon fill="#A80036" points="258.68,64.6706,251.4779,65.0311,249.0406,71.8178,256.2427,71.4573,258.68,64.6706" style="stroke:#A80036;stroke-width:1.0;"/><!--MD5=[44ad9651b82007500fd720a38db6ab0c]
link connect4 to player2--><path codeLine="34" d="M280.5354,76.8492 C280.5354,76.8492 280.1,109.3606 280,124.6406 C279.85,147.7506 278.38,153.5906 280,176.6406 C281.08,191.9606 283.23,208.7206 285.42,223.2806 " fill="none" id="connect4-player2" style="stroke:#A80036;stroke-width:1.0;"/><polygon fill="#A80036" points="287.5,236.4506,290.0572,226.9395,286.7253,231.511,282.1538,228.1791,287.5,236.4506" style="stroke:#A80036;stroke-width:1.0;"/><line style="stroke:#A80036;stroke-width:1.0;" x1="286.7253" x2="285.475" y1="231.511" y2="223.6056"/><polygon fill="#A80036" points="280.72,64.8506,276.6282,70.7884,280.5354,76.8492,284.6272,70.9114,280.72,64.8506" style="stroke:#A80036;stroke-width:1.0;"/><!--MD5=[aa4b363a3dc296cc23845f8f31d3f812]
link connect4 to turn--><path codeLine="35" d="M291.212,76.1778 C291.212,76.1778 302.4,106.8406 307.32,120.3506 " fill="none" id="connect4-turn" style="stroke:#A80036;stroke-width:1.0;"/><polygon fill="#A80036" points="311.88,132.8506,312.5524,123.0247,310.166,128.1536,305.0372,125.7672,311.88,132.8506" style="stroke:#A80036;stroke-width:1.0;"/><line style="stroke:#A80036;stroke-width:1.0;" x1="310.166" x2="307.425" y1="128.1536" y2="120.6406"/><polygon fill="#A80036" points="287.11,64.9006,285.4019,71.9065,291.212,76.1778,292.92,69.1719,287.11,64.9006" style="stroke:#A80036;stroke-width:1.0;"/><!--MD5=[89b2c64e7b053de699ca5c2a6b3c9787]
link turn to player2--><path codeLine="36" d="M314.05,168.3506 C310.1,185.0806 303.92,211.2006 299.11,231.5506 " fill="none" id="turn-to-player2" style="stroke:#A80036;stroke-width:1.0;"/><polygon fill="#A80036" points="297.92,236.5906,303.8968,228.7626,299.0787,231.7267,296.1146,226.9086,297.92,236.5906" style="stroke:#A80036;stroke-width:1.0;"/><!--MD5=[23c8671b16776e22488d50cbbb1139ef]
link connect4 to board--><path codeLine="37" d="M315.004,72.165 C315.004,72.165 348.59,104.2506 357,124.6406 C386.4,195.9506 365.67,289.2806 351.77,335.9306 " fill="none" id="connect4-board" style="stroke:#A80036;stroke-width:1.0;"/><polygon fill="#A80036" points="347.82,348.5806,354.3282,341.1885,349.3151,343.8094,346.6943,338.7963,347.82,348.5806" style="stroke:#A80036;stroke-width:1.0;"/><line style="stroke:#A80036;stroke-width:1.0;" x1="349.3151" x2="351.7" y1="343.8094" y2="336.1706"/><polygon fill="#A80036" points="305.64,64.6606,307.8205,71.5341,315.004,72.165,312.8235,65.2915,305.64,64.6606" style="stroke:#A80036;stroke-width:1.0;"/><!--MD5=[6b363ff4c5f7c55a48f9a0ffe402ab93]
link board to square0--><path codeLine="38" d="M318.0162,392.7784 C318.0162,392.7784 292.07,420.5306 279.44,434.0306 " fill="none" id="board-square0" style="stroke:#A80036;stroke-width:1.0;"/><polygon fill="#A80036" points="270.48,443.6106,279.5461,439.7628,273.8926,439.9563,273.6991,434.3027,270.48,443.6106" style="stroke:#A80036;stroke-width:1.0;"/><line style="stroke:#A80036;stroke-width:1.0;" x1="273.8926" x2="279.365" y1="439.9563" y2="434.1156"/><polygon fill="#A80036" points="326.22,384.0206,319.1989,385.6649,318.0162,392.7784,325.0374,391.1341,326.22,384.0206" style="stroke:#A80036;stroke-width:1.0;"/><!--MD5=[995c3aff8b155e998b4b4a0110992367]
link board to square--><path codeLine="43" d="M362.4875,393.432 C362.4875,393.432 384.62,426.3006 392,443.6406 C407.38,479.7806 416.74,523.5306 422.04,555.5806 " fill="none" id="board-square" style="stroke:#A80036;stroke-width:1.0;"/><polygon fill="#A80036" points="424.07,568.5406,426.6272,559.0295,423.2953,563.601,418.7238,560.2691,424.07,568.5406" style="stroke:#A80036;stroke-width:1.0;"/><line style="stroke:#A80036;stroke-width:1.0;" x1="423.2953" x2="422.055" y1="563.601" y2="555.6956"/><polygon fill="#A80036" points="355.37,383.7706,355.7083,390.9738,362.4875,393.432,362.1492,386.2288,355.37,383.7706" style="stroke:#A80036;stroke-width:1.0;"/><!--MD5=[414aa9988705526c85526a9777e92682]
link board to insertion--><path codeLine="45" d="M342,384.0206 C342,402.6406 342,432.6906 342,453.1406 " fill="none" id="board-to-insertion" style="stroke:#A80036;stroke-width:1.0;"/><polygon fill="#A80036" points="342,458.3806,346,449.3806,342,453.3806,338,449.3806,342,458.3806" style="stroke:#A80036;stroke-width:1.0;"/><!--MD5=[92158620cbb06fafdec89fb72a19aa11]
link player2 to board--><path codeLine="47" d="M304.36,288.7306 C312.69,305.6506 323.57,327.7306 331.49,343.8006 " fill="none" id="player2-to-board" style="stroke:#A80036;stroke-width:1.0;stroke-dasharray:7.0,7.0;"/><polygon fill="#A80036" points="333.84,348.5806,333.4431,338.7398,331.6268,344.0971,326.2695,342.2809,333.84,348.5806" style="stroke:#A80036;stroke-width:1.0;"/><!--MD5=[d61ca2a90575008958a6691b191aa752]
link insertion to token--><path codeLine="48" d="M337.14,493.7306 C330.95,514.9106 320.17,551.7206 313.06,576.0106 " fill="none" id="insertion-to-token" style="stroke:#A80036;stroke-width:1.0;"/><polygon fill="#A80036" points="311.6,580.9906,317.96,573.4706,313,576.1906,310.28,571.2306,311.6,580.9906" style="stroke:#A80036;stroke-width:1.0;"/><!--MD5=[49596e5c510e8dcbf67508ab79f7a09d]
link insertion to square--><path codeLine="49" d="M353.6,493.7306 C366.12,511.6306 386.44,540.7006 402.68,563.9306 " fill="none" id="insertion-to-square" style="stroke:#A80036;stroke-width:1.0;"/><polygon fill="#A80036" points="405.67,568.2006,403.7903,558.5328,402.8046,564.1031,397.2343,563.1174,405.67,568.2006" style="stroke:#A80036;stroke-width:1.0;"/><!--MD5=[032436f18298bfc7d4765789f9c63a85]
link square to row--><path codeLine="50" d="M415.45,633.6706 C408.39,651.3906 399.77,673.0306 393.51,688.7606 " fill="none" id="square-to-row" style="stroke:#A80036;stroke-width:1.0;"/><polygon fill="#A80036" points="391.65,693.4506,398.7064,686.5799,393.507,688.8082,391.2786,683.6088,391.65,693.4506" style="stroke:#A80036;stroke-width:1.0;"/><!--MD5=[9556c7bb6152b3d14679c6890adecf85]
link square to column--><path codeLine="51" d="M440.84,633.6706 C448.06,651.3906 456.88,673.0306 463.29,688.7606 " fill="none" id="square-to-column" style="stroke:#A80036;stroke-width:1.0;"/><polygon fill="#A80036" points="465.2,693.4506,465.5087,683.6066,463.3135,688.8202,458.1,686.625,465.2,693.4506" style="stroke:#A80036;stroke-width:1.0;"/><!--MD5=[1f1682dff461e9570e64ba496e28a50f]
@startuml
    title "Connect-4 - Initial"

    object ":Connect4" as connect4
    object "player1 :Player" as player1{
name = David
color = YELLOW
}
    object ":Row" as row
    object ":Column" as column

    object "player2 :Player" as player2{
name = Xavi
color = RED
}
    object ":Turn" as turn
    object ":Board" as board
    object ":Insertion" as insertion
    object ":Square" as square0{
        row = 0
        column = 0
        token = null
    }

    object "token1 : Token" as token {
        #color: RED;
    }
    object ":Square" as square{
    row = 5
    column = 0
    token = token1
    }

    connect4 *-down-> player1
    connect4 *-down-> player2
    connect4 *-down-> turn
    turn -down-> player2
    connect4 *-down-> board
    board *- -> square0
    note left
        From 0x0 to 5x6 squares
        on board without Token
    end note
     board *-down-> square

    board -down-> insertion

    player2 ..> board
    insertion -down-> token
    insertion -down-> square
    square -down-> row
    square -down-> column
@enduml

PlantUML version 1.2022.1(Tue Feb 01 19:19:58 CET 2022)
(GPL source distribution)
Java Runtime: OpenJDK Runtime Environment
JVM: OpenJDK 64-Bit Server VM
Default Encoding: Cp1252
Language: es
Country: ES
--></g></svg>