<?xml version="1.0" encoding="UTF-8" standalone="no"?><svg xmlns="http://www.w3.org/2000/svg" xmlns:xlink="http://www.w3.org/1999/xlink" contentStyleType="text/css" height="1661px" preserveAspectRatio="none" style="width:619px;height:1661px;background:#FFFFFF;" version="1.1" viewBox="0 0 619 1661" width="619px" zoomAndPan="magnify"><defs/><g><!--MD5=[9563755d011c5cec7ec66dc53565a59e]
class Board--><g id="elem_Board"><rect codeLine="2" fill="#F1F1F1" height="276.9219" id="Board" rx="2.5" ry="2.5" style="stroke:#181818;stroke-width:0.5;" width="288" x="7" y="772"/><ellipse cx="127.75" cy="788" fill="#ADD1B2" rx="11" ry="11" style="stroke:#181818;stroke-width:1.0;"/><path d="M130.5156,783.875 Q130.6719,783.6563 130.8594,783.5469 Q131.0469,783.4375 131.2656,783.4375 Q131.6406,783.4375 131.875,783.7031 Q132.1094,783.9531 132.1094,784.5625 L132.1094,786.0156 Q132.1094,786.625 131.875,786.8906 Q131.6406,787.1563 131.2656,787.1563 Q130.9219,787.1563 130.7188,786.9531 Q130.5156,786.7656 130.4063,786.25 Q130.3594,785.8906 130.1719,785.7031 Q129.8438,785.3281 129.2344,785.1094 Q128.625,784.8906 128,784.8906 Q127.2344,784.8906 126.5938,785.2188 Q125.9688,785.5469 125.4688,786.2969 Q124.9844,787.0469 124.9844,788.0781 L124.9844,789.1719 Q124.9844,790.4063 125.875,791.2344 Q126.7656,792.0469 128.3594,792.0469 Q129.2969,792.0469 129.9531,791.7969 Q130.3438,791.6406 130.7656,791.2031 Q131.0313,790.9375 131.1719,790.8594 Q131.3281,790.7813 131.5313,790.7813 Q131.8594,790.7813 132.1094,791.0469 Q132.375,791.2969 132.375,791.6406 Q132.375,791.9844 132.0313,792.3906 Q131.5313,792.9688 130.7344,793.2969 Q129.6563,793.75 128.3594,793.75 Q126.8438,793.75 125.6406,793.125 Q124.6563,792.625 123.9688,791.5625 Q123.2813,790.4844 123.2813,789.2031 L123.2813,788.0469 Q123.2813,786.7188 123.8906,785.5781 Q124.5156,784.4219 125.6094,783.8125 Q126.7031,783.1875 127.9375,783.1875 Q128.6719,783.1875 129.3125,783.3594 Q129.9688,783.5156 130.5156,783.875 Z " fill="#000000"/><text fill="#000000" font-family="sans-serif" font-size="14" lengthAdjust="spacing" textLength="38" x="148.25" y="793.7285">Board</text><line style="stroke:#181818;stroke-width:0.5;" x1="8" x2="294" y1="804" y2="804"/><line style="stroke:#181818;stroke-width:0.5;" x1="8" x2="294" y1="812" y2="812"/><ellipse cx="18" cy="826.3047" fill="#84BE84" rx="3" ry="3" style="stroke:#038048;stroke-width:1.0;"/><text fill="#000000" font-family="sans-serif" font-size="14" lengthAdjust="spacing" textLength="48" x="27" y="830.5332">Board()</text><ellipse cx="18" cy="843.9141" fill="#84BE84" rx="3" ry="3" style="stroke:#038048;stroke-width:1.0;"/><text fill="#000000" font-family="sans-serif" font-size="14" lengthAdjust="spacing" textLength="72" x="27" y="848.1426">void reset()</text><ellipse cx="18" cy="861.5234" fill="#84BE84" rx="3" ry="3" style="stroke:#038048;stroke-width:1.0;"/><text fill="#000000" font-family="sans-serif" font-size="14" lengthAdjust="spacing" textLength="169" x="27" y="865.752">boolean isComplete(Color)</text><rect fill="#F24D5C" height="6" style="stroke:#C82930;stroke-width:1.0;" width="6" x="15" y="876.1328"/><text fill="#000000" font-family="sans-serif" font-size="14" lengthAdjust="spacing" textLength="223" x="27" y="883.3613">Coordinate[] getCoordinates(Color)</text><ellipse cx="18" cy="896.7422" fill="#84BE84" rx="3" ry="3" style="stroke:#038048;stroke-width:1.0;"/><text fill="#000000" font-family="sans-serif" font-size="14" lengthAdjust="spacing" textLength="212" x="27" y="900.9707">void putToken(Coordinate, Color)</text><ellipse cx="18" cy="914.3516" fill="#84BE84" rx="3" ry="3" style="stroke:#038048;stroke-width:1.0;"/><text fill="#000000" font-family="sans-serif" font-size="14" lengthAdjust="spacing" textLength="262" x="27" y="918.5801">void moveToken(Coordinate, Coordinate)</text><rect fill="#F24D5C" height="6" style="stroke:#C82930;stroke-width:1.0;" width="6" x="15" y="928.9609"/><text fill="#000000" font-family="sans-serif" font-size="14" lengthAdjust="spacing" textLength="172" x="27" y="936.1895">Color getColor(Coordinate)</text><ellipse cx="18" cy="949.5703" fill="#84BE84" rx="3" ry="3" style="stroke:#038048;stroke-width:1.0;"/><text fill="#000000" font-family="sans-serif" font-size="14" lengthAdjust="spacing" textLength="247" x="27" y="953.7988">boolean isOccupied(Coordinate, Color)</text><ellipse cx="18" cy="967.1797" fill="#84BE84" rx="3" ry="3" style="stroke:#038048;stroke-width:1.0;"/><text fill="#000000" font-family="sans-serif" font-size="14" lengthAdjust="spacing" textLength="184" x="27" y="971.4082">boolean isEmpty(Coordinate)</text><ellipse cx="18" cy="984.7891" fill="#84BE84" rx="3" ry="3" style="stroke:#038048;stroke-width:1.0;"/><text fill="#000000" font-family="sans-serif" font-size="14" lengthAdjust="spacing" textLength="177" x="27" y="989.0176">boolean isTicTacToe(Color)</text><rect fill="#F24D5C" height="6" style="stroke:#C82930;stroke-width:1.0;" width="6" x="15" y="999.3984"/><text fill="#000000" font-family="sans-serif" font-size="14" lengthAdjust="spacing" textLength="195" x="27" y="1006.627">Direction[] getDirections(Color)</text><ellipse cx="18" cy="1020.0078" fill="#84BE84" rx="3" ry="3" style="stroke:#038048;stroke-width:1.0;"/><text fill="#000000" font-family="sans-serif" font-size="14" lengthAdjust="spacing" textLength="69" x="27" y="1024.2363">void write()</text><ellipse cx="18" cy="1037.6172" fill="#84BE84" rx="3" ry="3" style="stroke:#038048;stroke-width:1.0;"/><text fill="#000000" font-family="sans-serif" font-size="14" lengthAdjust="spacing" textLength="169" x="27" y="1041.8457">boolean isComplete(Color)</text></g><!--MD5=[18eee71c88ab61f27581b8cbdd3ef5ee]
class Color--><g id="elem_Color"><rect codeLine="18" fill="#F1F1F1" height="153.6563" id="Color" rx="2.5" ry="2.5" style="stroke:#181818;stroke-width:0.5;" width="124" x="460" y="1198"/><ellipse cx="501.1" cy="1214" fill="#EB937F" rx="11" ry="11" style="stroke:#181818;stroke-width:1.0;"/><path d="M499.9594,1214.7969 L499.9594,1217.2969 L504.2875,1217.2969 L504.2875,1216.375 Q504.2875,1215.7656 504.5219,1215.5 Q504.7719,1215.2344 505.1469,1215.2344 Q505.5219,1215.2344 505.7563,1215.5 Q505.9906,1215.7656 505.9906,1216.375 L505.9906,1219 L497.9906,1219 Q497.3656,1219 497.1,1218.7656 Q496.85,1218.5313 496.85,1218.1406 Q496.85,1217.7656 497.1156,1217.5313 Q497.3813,1217.2969 497.9906,1217.2969 L498.2563,1217.2969 L498.2563,1210.6406 L497.9906,1210.6406 Q497.3656,1210.6406 497.1,1210.4063 Q496.85,1210.1719 496.85,1209.7813 Q496.85,1209.4063 497.1,1209.1719 Q497.3656,1208.9375 497.9906,1208.9375 L505.6156,1208.9375 L505.6156,1211.5313 Q505.6156,1212.1406 505.3813,1212.4063 Q505.1625,1212.6563 504.7719,1212.6563 Q504.3969,1212.6563 504.1625,1212.4063 Q503.9281,1212.1406 503.9281,1211.5313 L503.9281,1210.6406 L499.9594,1210.6406 L499.9594,1213.0938 L501.4438,1213.0938 Q501.4438,1212.4375 501.5688,1212.25 Q501.8344,1211.8438 502.3031,1211.8438 Q502.6781,1211.8438 502.9125,1212.1094 Q503.1469,1212.3594 503.1469,1212.9688 L503.1469,1214.9375 Q503.1469,1215.4844 503.0219,1215.6719 Q502.7563,1216.0625 502.3031,1216.0625 Q501.8344,1216.0625 501.5688,1215.6563 Q501.4438,1215.4688 501.4438,1214.7969 L499.9594,1214.7969 Z " fill="#000000"/><text fill="#000000" font-family="sans-serif" font-size="14" lengthAdjust="spacing" textLength="34" x="520.9" y="1219.7285">Color</text><line style="stroke:#181818;stroke-width:0.5;" x1="461" x2="583" y1="1230" y2="1230"/><text fill="#000000" font-family="sans-serif" font-size="14" lengthAdjust="spacing" textLength="12" x="466" y="1248.5332">X,</text><text fill="#000000" font-family="sans-serif" font-size="14" lengthAdjust="spacing" textLength="15" x="466" y="1266.1426">O,</text><text fill="#000000" font-family="sans-serif" font-size="14" lengthAdjust="spacing" textLength="34" x="466" y="1283.752">NULL</text><line style="stroke:#181818;stroke-width:0.5;" x1="461" x2="583" y1="1290.8281" y2="1290.8281"/><ellipse cx="471" cy="1305.1328" fill="#84BE84" rx="3" ry="3" style="stroke:#038048;stroke-width:1.0;"/><text fill="#000000" font-family="sans-serif" font-size="14" lengthAdjust="spacing" text-decoration="underline" textLength="83" x="480" y="1309.3613">Color get(int)</text><ellipse cx="471" cy="1322.7422" fill="#84BE84" rx="3" ry="3" style="stroke:#038048;stroke-width:1.0;"/><text fill="#000000" font-family="sans-serif" font-size="14" lengthAdjust="spacing" textLength="69" x="480" y="1326.9707">void write()</text><ellipse cx="471" cy="1340.3516" fill="#84BE84" rx="3" ry="3" style="stroke:#038048;stroke-width:1.0;"/><text fill="#000000" font-family="sans-serif" font-size="14" lengthAdjust="spacing" textLength="98" x="480" y="1344.5801">boolean isNull()</text></g><!--MD5=[8c7d7abc12e214c3cc12c9ab70edee11]
class Coordinate--><g id="elem_Coordinate"><rect codeLine="28" fill="#F1F1F1" height="329.75" id="Coordinate" rx="2.5" ry="2.5" style="stroke:#181818;stroke-width:0.5;" width="242" x="117" y="1110"/><ellipse cx="198.75" cy="1126" fill="#ADD1B2" rx="11" ry="11" style="stroke:#181818;stroke-width:1.0;"/><path d="M201.5156,1121.875 Q201.6719,1121.6563 201.8594,1121.5469 Q202.0469,1121.4375 202.2656,1121.4375 Q202.6406,1121.4375 202.875,1121.7031 Q203.1094,1121.9531 203.1094,1122.5625 L203.1094,1124.0156 Q203.1094,1124.625 202.875,1124.8906 Q202.6406,1125.1563 202.2656,1125.1563 Q201.9219,1125.1563 201.7188,1124.9531 Q201.5156,1124.7656 201.4063,1124.25 Q201.3594,1123.8906 201.1719,1123.7031 Q200.8438,1123.3281 200.2344,1123.1094 Q199.625,1122.8906 199,1122.8906 Q198.2344,1122.8906 197.5938,1123.2188 Q196.9688,1123.5469 196.4688,1124.2969 Q195.9844,1125.0469 195.9844,1126.0781 L195.9844,1127.1719 Q195.9844,1128.4063 196.875,1129.2344 Q197.7656,1130.0469 199.3594,1130.0469 Q200.2969,1130.0469 200.9531,1129.7969 Q201.3438,1129.6406 201.7656,1129.2031 Q202.0313,1128.9375 202.1719,1128.8594 Q202.3281,1128.7813 202.5313,1128.7813 Q202.8594,1128.7813 203.1094,1129.0469 Q203.375,1129.2969 203.375,1129.6406 Q203.375,1129.9844 203.0313,1130.3906 Q202.5313,1130.9688 201.7344,1131.2969 Q200.6563,1131.75 199.3594,1131.75 Q197.8438,1131.75 196.6406,1131.125 Q195.6563,1130.625 194.9688,1129.5625 Q194.2813,1128.4844 194.2813,1127.2031 L194.2813,1126.0469 Q194.2813,1124.7188 194.8906,1123.5781 Q195.5156,1122.4219 196.6094,1121.8125 Q197.7031,1121.1875 198.9375,1121.1875 Q199.6719,1121.1875 200.3125,1121.3594 Q200.9688,1121.5156 201.5156,1121.875 Z " fill="#000000"/><text fill="#000000" font-family="sans-serif" font-size="14" lengthAdjust="spacing" textLength="70" x="219.25" y="1131.7285">Coordinate</text><line style="stroke:#181818;stroke-width:0.5;" x1="118" x2="358" y1="1142" y2="1142"/><rect fill="none" height="6" style="stroke:#C82930;stroke-width:1.0;" width="6" x="125" y="1153.3047"/><text fill="#000000" font-family="sans-serif" font-size="14" lengthAdjust="spacing" text-decoration="underline" textLength="117" x="137" y="1160.5332">int DIMENSION = 3</text><rect fill="none" height="6" style="stroke:#C82930;stroke-width:1.0;" width="6" x="125" y="1170.9141"/><text fill="#000000" font-family="sans-serif" font-size="14" lengthAdjust="spacing" textLength="41" x="137" y="1178.1426">int row</text><rect fill="none" height="6" style="stroke:#C82930;stroke-width:1.0;" width="6" x="125" y="1188.5234"/><text fill="#000000" font-family="sans-serif" font-size="14" lengthAdjust="spacing" textLength="64" x="137" y="1195.752">int column</text><line style="stroke:#181818;stroke-width:0.5;" x1="118" x2="358" y1="1202.8281" y2="1202.8281"/><ellipse cx="128" cy="1217.1328" fill="#84BE84" rx="3" ry="3" style="stroke:#038048;stroke-width:1.0;"/><text fill="#000000" font-family="sans-serif" font-size="14" lengthAdjust="spacing" text-decoration="underline" textLength="115" x="137" y="1221.3613">int getDimension()</text><ellipse cx="128" cy="1234.7422" fill="#84BE84" rx="3" ry="3" style="stroke:#038048;stroke-width:1.0;"/><text fill="#000000" font-family="sans-serif" font-size="14" lengthAdjust="spacing" textLength="80" x="137" y="1238.9707">Coordinate()</text><ellipse cx="128" cy="1252.3516" fill="#84BE84" rx="3" ry="3" style="stroke:#038048;stroke-width:1.0;"/><text fill="#000000" font-family="sans-serif" font-size="14" lengthAdjust="spacing" textLength="118" x="137" y="1256.5801">Coordinate(int, int)</text><ellipse cx="128" cy="1269.9609" fill="#84BE84" rx="3" ry="3" style="stroke:#038048;stroke-width:1.0;"/><text fill="#000000" font-family="sans-serif" font-size="14" lengthAdjust="spacing" textLength="216" x="137" y="1274.1895">Direction getDirection(Coordinate)</text><rect fill="#F24D5C" height="6" style="stroke:#C82930;stroke-width:1.0;" width="6" x="125" y="1284.5703"/><text fill="#000000" font-family="sans-serif" font-size="14" lengthAdjust="spacing" textLength="208" x="137" y="1291.7988">boolean inHorizontal(Coordinate)</text><rect fill="#F24D5C" height="6" style="stroke:#C82930;stroke-width:1.0;" width="6" x="125" y="1302.1797"/><text fill="#000000" font-family="sans-serif" font-size="14" lengthAdjust="spacing" textLength="193" x="137" y="1309.4082">boolean inVertical(Coordinate)</text><rect fill="#F24D5C" height="6" style="stroke:#C82930;stroke-width:1.0;" width="6" x="125" y="1319.7891"/><text fill="#000000" font-family="sans-serif" font-size="14" lengthAdjust="spacing" textLength="162" x="137" y="1327.0176">boolean inMainDiagonal()</text><rect fill="#F24D5C" height="6" style="stroke:#C82930;stroke-width:1.0;" width="6" x="125" y="1337.3984"/><text fill="#000000" font-family="sans-serif" font-size="14" lengthAdjust="spacing" textLength="178" x="137" y="1344.627">boolean inInverseDiagonal()</text><ellipse cx="128" cy="1358.0078" fill="#84BE84" rx="3" ry="3" style="stroke:#038048;stroke-width:1.0;"/><text fill="#000000" font-family="sans-serif" font-size="14" lengthAdjust="spacing" textLength="106" x="137" y="1362.2363">void read(String)</text><ellipse cx="128" cy="1375.6172" fill="#84BE84" rx="3" ry="3" style="stroke:#038048;stroke-width:1.0;"/><text fill="#000000" font-family="sans-serif" font-size="14" lengthAdjust="spacing" textLength="160" x="137" y="1379.8457">String getErrorMessage()</text><ellipse cx="128" cy="1393.2266" fill="#84BE84" rx="3" ry="3" style="stroke:#038048;stroke-width:1.0;"/><text fill="#000000" font-family="sans-serif" font-size="14" lengthAdjust="spacing" textLength="76" x="137" y="1397.4551">int getRow()</text><ellipse cx="128" cy="1410.8359" fill="#84BE84" rx="3" ry="3" style="stroke:#038048;stroke-width:1.0;"/><text fill="#000000" font-family="sans-serif" font-size="14" lengthAdjust="spacing" textLength="97" x="137" y="1415.0645">int getColumn()</text><ellipse cx="128" cy="1428.4453" fill="#84BE84" rx="3" ry="3" style="stroke:#038048;stroke-width:1.0;"/><text fill="#000000" font-family="sans-serif" font-size="14" lengthAdjust="spacing" textLength="177" x="137" y="1432.6738">boolean equals(Coordinate)</text></g><!--MD5=[02f7077ed79257124e28b791f351f1d7]
class Direction--><g id="elem_Direction"><rect codeLine="47" fill="#F1F1F1" height="153.6563" id="Direction" rx="2.5" ry="2.5" style="stroke:#181818;stroke-width:0.5;" width="152" x="8" y="1501"/><ellipse cx="51.8" cy="1517" fill="#EB937F" rx="11" ry="11" style="stroke:#181818;stroke-width:1.0;"/><path d="M50.6594,1517.7969 L50.6594,1520.2969 L54.9875,1520.2969 L54.9875,1519.375 Q54.9875,1518.7656 55.2219,1518.5 Q55.4719,1518.2344 55.8469,1518.2344 Q56.2219,1518.2344 56.4563,1518.5 Q56.6906,1518.7656 56.6906,1519.375 L56.6906,1522 L48.6906,1522 Q48.0656,1522 47.8,1521.7656 Q47.55,1521.5313 47.55,1521.1406 Q47.55,1520.7656 47.8156,1520.5313 Q48.0813,1520.2969 48.6906,1520.2969 L48.9563,1520.2969 L48.9563,1513.6406 L48.6906,1513.6406 Q48.0656,1513.6406 47.8,1513.4063 Q47.55,1513.1719 47.55,1512.7813 Q47.55,1512.4063 47.8,1512.1719 Q48.0656,1511.9375 48.6906,1511.9375 L56.3156,1511.9375 L56.3156,1514.5313 Q56.3156,1515.1406 56.0813,1515.4063 Q55.8625,1515.6563 55.4719,1515.6563 Q55.0969,1515.6563 54.8625,1515.4063 Q54.6281,1515.1406 54.6281,1514.5313 L54.6281,1513.6406 L50.6594,1513.6406 L50.6594,1516.0938 L52.1438,1516.0938 Q52.1438,1515.4375 52.2688,1515.25 Q52.5344,1514.8438 53.0031,1514.8438 Q53.3781,1514.8438 53.6125,1515.1094 Q53.8469,1515.3594 53.8469,1515.9688 L53.8469,1517.9375 Q53.8469,1518.4844 53.7219,1518.6719 Q53.4563,1519.0625 53.0031,1519.0625 Q52.5344,1519.0625 52.2688,1518.6563 Q52.1438,1518.4688 52.1438,1517.7969 L50.6594,1517.7969 Z " fill="#000000"/><text fill="#000000" font-family="sans-serif" font-size="14" lengthAdjust="spacing" textLength="56" x="72.2" y="1522.7285">Direction</text><line style="stroke:#181818;stroke-width:0.5;" x1="9" x2="159" y1="1533" y2="1533"/><text fill="#000000" font-family="sans-serif" font-size="14" lengthAdjust="spacing" textLength="71" x="14" y="1551.5332">VERTICAL,</text><text fill="#000000" font-family="sans-serif" font-size="14" lengthAdjust="spacing" textLength="91" x="14" y="1569.1426">HORIZONTAL,</text><text fill="#000000" font-family="sans-serif" font-size="14" lengthAdjust="spacing" textLength="114" x="14" y="1586.752">MAIN_DIAGONAL,</text><text fill="#000000" font-family="sans-serif" font-size="14" lengthAdjust="spacing" textLength="140" x="14" y="1604.3613">INVERSE_DIAGONAL,</text><text fill="#000000" font-family="sans-serif" font-size="14" lengthAdjust="spacing" textLength="34" x="14" y="1621.9707">NULL</text><line style="stroke:#181818;stroke-width:0.5;" x1="9" x2="159" y1="1629.0469" y2="1629.0469"/><ellipse cx="19" cy="1643.3516" fill="#84BE84" rx="3" ry="3" style="stroke:#038048;stroke-width:1.0;"/><text fill="#000000" font-family="sans-serif" font-size="14" lengthAdjust="spacing" textLength="98" x="28" y="1647.5801">boolean isNull()</text></g><!--MD5=[b8cfd8c4119a3b0a7a46bfc5fc780f85]
class Error--><g id="elem_Error"><rect codeLine="56" fill="#F1F1F1" height="224.0938" id="Error" rx="2.5" ry="2.5" style="stroke:#181818;stroke-width:0.5;" width="188" x="330" y="798.5"/><ellipse cx="403.75" cy="814.5" fill="#EB937F" rx="11" ry="11" style="stroke:#181818;stroke-width:1.0;"/><path d="M402.6094,815.2969 L402.6094,817.7969 L406.9375,817.7969 L406.9375,816.875 Q406.9375,816.2656 407.1719,816 Q407.4219,815.7344 407.7969,815.7344 Q408.1719,815.7344 408.4063,816 Q408.6406,816.2656 408.6406,816.875 L408.6406,819.5 L400.6406,819.5 Q400.0156,819.5 399.75,819.2656 Q399.5,819.0313 399.5,818.6406 Q399.5,818.2656 399.7656,818.0313 Q400.0313,817.7969 400.6406,817.7969 L400.9063,817.7969 L400.9063,811.1406 L400.6406,811.1406 Q400.0156,811.1406 399.75,810.9063 Q399.5,810.6719 399.5,810.2813 Q399.5,809.9063 399.75,809.6719 Q400.0156,809.4375 400.6406,809.4375 L408.2656,809.4375 L408.2656,812.0313 Q408.2656,812.6406 408.0313,812.9063 Q407.8125,813.1563 407.4219,813.1563 Q407.0469,813.1563 406.8125,812.9063 Q406.5781,812.6406 406.5781,812.0313 L406.5781,811.1406 L402.6094,811.1406 L402.6094,813.5938 L404.0938,813.5938 Q404.0938,812.9375 404.2188,812.75 Q404.4844,812.3438 404.9531,812.3438 Q405.3281,812.3438 405.5625,812.6094 Q405.7969,812.8594 405.7969,813.4688 L405.7969,815.4375 Q405.7969,815.9844 405.6719,816.1719 Q405.4063,816.5625 404.9531,816.5625 Q404.4844,816.5625 404.2188,816.1563 Q404.0938,815.9688 404.0938,815.2969 L402.6094,815.2969 Z " fill="#000000"/><text fill="#000000" font-family="sans-serif" font-size="14" lengthAdjust="spacing" textLength="32" x="424.25" y="820.2285">Error</text><line style="stroke:#181818;stroke-width:0.5;" x1="331" x2="517" y1="830.5" y2="830.5"/><text fill="#000000" font-family="sans-serif" font-size="14" lengthAdjust="spacing" textLength="84" x="350" y="849.0332">NOT_EMPTY</text><text fill="#000000" font-family="sans-serif" font-size="14" lengthAdjust="spacing" textLength="89" x="350" y="866.6426">NOT_OWNER</text><text fill="#000000" font-family="sans-serif" font-size="14" lengthAdjust="spacing" textLength="146" x="350" y="884.252">SAME_COORDINATES</text><text fill="#000000" font-family="sans-serif" font-size="14" lengthAdjust="spacing" textLength="162" x="350" y="901.8613">WRONG_COORDINATES</text><text fill="#000000" font-family="sans-serif" font-size="14" lengthAdjust="spacing" textLength="34" x="350" y="919.4707">NULL</text><rect fill="none" height="6" style="stroke:#C82930;stroke-width:1.0;" width="6" x="338" y="929.8516"/><text fill="#000000" font-family="sans-serif" font-size="14" lengthAdjust="spacing" textLength="98" x="350" y="937.0801">String message</text><line style="stroke:#181818;stroke-width:0.5;" x1="331" x2="517" y1="944.1563" y2="944.1563"/><rect fill="#F24D5C" height="6" style="stroke:#C82930;stroke-width:1.0;" width="6" x="338" y="955.4609"/><text fill="#000000" font-family="sans-serif" font-size="14" lengthAdjust="spacing" textLength="42" x="350" y="962.6895">Error()</text><rect fill="#F24D5C" height="6" style="stroke:#C82930;stroke-width:1.0;" width="6" x="338" y="973.0703"/><text fill="#000000" font-family="sans-serif" font-size="14" lengthAdjust="spacing" textLength="79" x="350" y="980.2988">Error(String)</text><ellipse cx="341" cy="993.6797" fill="#84BE84" rx="3" ry="3" style="stroke:#038048;stroke-width:1.0;"/><text fill="#000000" font-family="sans-serif" font-size="14" lengthAdjust="spacing" textLength="80" x="350" y="997.9082">void writeln()</text><ellipse cx="341" cy="1011.2891" fill="#84BE84" rx="3" ry="3" style="stroke:#038048;stroke-width:1.0;"/><text fill="#000000" font-family="sans-serif" font-size="14" lengthAdjust="spacing" textLength="98" x="350" y="1015.5176">boolean isNull()</text></g><!--MD5=[2cb47ba637a0d19583e6199456f6ad0b]
class Player--><g id="elem_Player"><rect codeLine="69" fill="#F1F1F1" height="224.0938" id="Player" rx="2.5" ry="2.5" style="stroke:#181818;stroke-width:0.5;" width="388" x="224" y="470"/><ellipse cx="393.75" cy="486" fill="#ADD1B2" rx="11" ry="11" style="stroke:#181818;stroke-width:1.0;"/><path d="M396.5156,481.875 Q396.6719,481.6563 396.8594,481.5469 Q397.0469,481.4375 397.2656,481.4375 Q397.6406,481.4375 397.875,481.7031 Q398.1094,481.9531 398.1094,482.5625 L398.1094,484.0156 Q398.1094,484.625 397.875,484.8906 Q397.6406,485.1563 397.2656,485.1563 Q396.9219,485.1563 396.7188,484.9531 Q396.5156,484.7656 396.4063,484.25 Q396.3594,483.8906 396.1719,483.7031 Q395.8438,483.3281 395.2344,483.1094 Q394.625,482.8906 394,482.8906 Q393.2344,482.8906 392.5938,483.2188 Q391.9688,483.5469 391.4688,484.2969 Q390.9844,485.0469 390.9844,486.0781 L390.9844,487.1719 Q390.9844,488.4063 391.875,489.2344 Q392.7656,490.0469 394.3594,490.0469 Q395.2969,490.0469 395.9531,489.7969 Q396.3438,489.6406 396.7656,489.2031 Q397.0313,488.9375 397.1719,488.8594 Q397.3281,488.7813 397.5313,488.7813 Q397.8594,488.7813 398.1094,489.0469 Q398.375,489.2969 398.375,489.6406 Q398.375,489.9844 398.0313,490.3906 Q397.5313,490.9688 396.7344,491.2969 Q395.6563,491.75 394.3594,491.75 Q392.8438,491.75 391.6406,491.125 Q390.6563,490.625 389.9688,489.5625 Q389.2813,488.4844 389.2813,487.2031 L389.2813,486.0469 Q389.2813,484.7188 389.8906,483.5781 Q390.5156,482.4219 391.6094,481.8125 Q392.7031,481.1875 393.9375,481.1875 Q394.6719,481.1875 395.3125,481.3594 Q395.9688,481.5156 396.5156,481.875 Z " fill="#000000"/><text fill="#000000" font-family="sans-serif" font-size="14" lengthAdjust="spacing" textLength="40" x="414.25" y="491.7285">Player</text><line style="stroke:#181818;stroke-width:0.5;" x1="225" x2="611" y1="502" y2="502"/><line style="stroke:#181818;stroke-width:0.5;" x1="225" x2="611" y1="510" y2="510"/><ellipse cx="235" cy="524.3047" fill="#84BE84" rx="3" ry="3" style="stroke:#038048;stroke-width:1.0;"/><text fill="#000000" font-family="sans-serif" font-size="14" lengthAdjust="spacing" textLength="130" x="244" y="528.5332">Player(Color, Board)</text><ellipse cx="235" cy="541.9141" fill="#84BE84" rx="3" ry="3" style="stroke:#038048;stroke-width:1.0;"/><text fill="#000000" font-family="sans-serif" font-size="14" lengthAdjust="spacing" textLength="66" x="244" y="546.1426">void play()</text><rect fill="#F24D5C" height="6" style="stroke:#C82930;stroke-width:1.0;" width="6" x="232" y="556.5234"/><text fill="#000000" font-family="sans-serif" font-size="14" lengthAdjust="spacing" textLength="100" x="244" y="563.752">void putToken()</text><rect fill="#F24D5C" height="6" style="stroke:#C82930;stroke-width:1.0;" width="6" x="232" y="574.1328"/><text fill="#000000" font-family="sans-serif" font-size="14" lengthAdjust="spacing" textLength="231" x="244" y="581.3613">Coordinate getCoordinate(Message)</text><rect fill="#F24D5C" height="6" style="stroke:#C82930;stroke-width:1.0;" width="6" x="232" y="591.7422"/><text fill="#000000" font-family="sans-serif" font-size="14" lengthAdjust="spacing" textLength="229" x="244" y="598.9707">Error getPutTokenError(Coordinate)</text><rect fill="#F24D5C" height="6" style="stroke:#C82930;stroke-width:1.0;" width="6" x="232" y="609.3516"/><text fill="#000000" font-family="sans-serif" font-size="14" lengthAdjust="spacing" textLength="114" x="244" y="616.5801">void moveToken()</text><rect fill="#F24D5C" height="6" style="stroke:#C82930;stroke-width:1.0;" width="6" x="232" y="626.9609"/><text fill="#000000" font-family="sans-serif" font-size="14" lengthAdjust="spacing" textLength="280" x="244" y="634.1895">Error getOriginMoveTokenError(Coordinate)</text><rect fill="#F24D5C" height="6" style="stroke:#C82930;stroke-width:1.0;" width="6" x="232" y="644.5703"/><text fill="#000000" font-family="sans-serif" font-size="14" lengthAdjust="spacing" textLength="362" x="244" y="651.7988">Error getTargetMoveTokenError(Coordinate, Coordinate)</text><ellipse cx="235" cy="665.1797" fill="#84BE84" rx="3" ry="3" style="stroke:#038048;stroke-width:1.0;"/><text fill="#000000" font-family="sans-serif" font-size="14" lengthAdjust="spacing" textLength="114" x="244" y="669.4082">void writeWinner()</text><ellipse cx="235" cy="682.7891" fill="#84BE84" rx="3" ry="3" style="stroke:#038048;stroke-width:1.0;"/><text fill="#000000" font-family="sans-serif" font-size="14" lengthAdjust="spacing" textLength="102" x="244" y="687.0176">Color getColor()</text></g><!--MD5=[36f719b1cbc3f26b5758ea249b208fb4]
class TicTacToe--><g id="elem_TicTacToe"><rect codeLine="82" fill="#F1F1F1" height="136.0469" id="TicTacToe" rx="2.5" ry="2.5" style="stroke:#181818;stroke-width:0.5;" width="199" x="87.5" y="7"/><ellipse cx="148.75" cy="23" fill="#ADD1B2" rx="11" ry="11" style="stroke:#181818;stroke-width:1.0;"/><path d="M151.5156,18.875 Q151.6719,18.6563 151.8594,18.5469 Q152.0469,18.4375 152.2656,18.4375 Q152.6406,18.4375 152.875,18.7031 Q153.1094,18.9531 153.1094,19.5625 L153.1094,21.0156 Q153.1094,21.625 152.875,21.8906 Q152.6406,22.1563 152.2656,22.1563 Q151.9219,22.1563 151.7188,21.9531 Q151.5156,21.7656 151.4063,21.25 Q151.3594,20.8906 151.1719,20.7031 Q150.8438,20.3281 150.2344,20.1094 Q149.625,19.8906 149,19.8906 Q148.2344,19.8906 147.5938,20.2188 Q146.9688,20.5469 146.4688,21.2969 Q145.9844,22.0469 145.9844,23.0781 L145.9844,24.1719 Q145.9844,25.4063 146.875,26.2344 Q147.7656,27.0469 149.3594,27.0469 Q150.2969,27.0469 150.9531,26.7969 Q151.3438,26.6406 151.7656,26.2031 Q152.0313,25.9375 152.1719,25.8594 Q152.3281,25.7813 152.5313,25.7813 Q152.8594,25.7813 153.1094,26.0469 Q153.375,26.2969 153.375,26.6406 Q153.375,26.9844 153.0313,27.3906 Q152.5313,27.9688 151.7344,28.2969 Q150.6563,28.75 149.3594,28.75 Q147.8438,28.75 146.6406,28.125 Q145.6563,27.625 144.9688,26.5625 Q144.2813,25.4844 144.2813,24.2031 L144.2813,23.0469 Q144.2813,21.7188 144.8906,20.5781 Q145.5156,19.4219 146.6094,18.8125 Q147.7031,18.1875 148.9375,18.1875 Q149.6719,18.1875 150.3125,18.3594 Q150.9688,18.5156 151.5156,18.875 Z " fill="#000000"/><text fill="#000000" font-family="sans-serif" font-size="14" lengthAdjust="spacing" textLength="68" x="169.25" y="28.7285">TicTacToe</text><line style="stroke:#181818;stroke-width:0.5;" x1="88.5" x2="285.5" y1="39" y2="39"/><line style="stroke:#181818;stroke-width:0.5;" x1="88.5" x2="285.5" y1="47" y2="47"/><rect fill="#F24D5C" height="6" style="stroke:#C82930;stroke-width:1.0;" width="6" x="95.5" y="58.3047"/><text fill="#000000" font-family="sans-serif" font-size="14" lengthAdjust="spacing" textLength="78" x="107.5" y="65.5332">TicTacToe()</text><rect fill="#F24D5C" height="6" style="stroke:#C82930;stroke-width:1.0;" width="6" x="95.5" y="75.9141"/><text fill="#000000" font-family="sans-serif" font-size="14" lengthAdjust="spacing" textLength="66" x="107.5" y="83.1426">void play()</text><rect fill="#F24D5C" height="6" style="stroke:#C82930;stroke-width:1.0;" width="6" x="95.5" y="93.5234"/><text fill="#000000" font-family="sans-serif" font-size="14" lengthAdjust="spacing" textLength="104" x="107.5" y="100.752">void playGame()</text><rect fill="#F24D5C" height="6" style="stroke:#C82930;stroke-width:1.0;" width="6" x="95.5" y="111.1328"/><text fill="#000000" font-family="sans-serif" font-size="14" lengthAdjust="spacing" textLength="173" x="107.5" y="118.3613">boolean isResumedGame()</text><ellipse cx="98.5" cy="131.7422" fill="#84BE84" rx="3" ry="3" style="stroke:#038048;stroke-width:1.0;"/><text fill="#000000" font-family="sans-serif" font-size="14" lengthAdjust="spacing" text-decoration="underline" textLength="115" x="107.5" y="135.9707">void main(String[])</text></g><!--MD5=[dd91eae41778c45e12552e5329e240e8]
class Turn--><g id="elem_Turn"><rect codeLine="90" fill="#F1F1F1" height="171.2656" id="Turn" rx="2.5" ry="2.5" style="stroke:#181818;stroke-width:0.5;" width="197" x="258.5" y="221"/><ellipse cx="337.75" cy="237" fill="#ADD1B2" rx="11" ry="11" style="stroke:#181818;stroke-width:1.0;"/><path d="M340.5156,232.875 Q340.6719,232.6563 340.8594,232.5469 Q341.0469,232.4375 341.2656,232.4375 Q341.6406,232.4375 341.875,232.7031 Q342.1094,232.9531 342.1094,233.5625 L342.1094,235.0156 Q342.1094,235.625 341.875,235.8906 Q341.6406,236.1563 341.2656,236.1563 Q340.9219,236.1563 340.7188,235.9531 Q340.5156,235.7656 340.4063,235.25 Q340.3594,234.8906 340.1719,234.7031 Q339.8438,234.3281 339.2344,234.1094 Q338.625,233.8906 338,233.8906 Q337.2344,233.8906 336.5938,234.2188 Q335.9688,234.5469 335.4688,235.2969 Q334.9844,236.0469 334.9844,237.0781 L334.9844,238.1719 Q334.9844,239.4063 335.875,240.2344 Q336.7656,241.0469 338.3594,241.0469 Q339.2969,241.0469 339.9531,240.7969 Q340.3438,240.6406 340.7656,240.2031 Q341.0313,239.9375 341.1719,239.8594 Q341.3281,239.7813 341.5313,239.7813 Q341.8594,239.7813 342.1094,240.0469 Q342.375,240.2969 342.375,240.6406 Q342.375,240.9844 342.0313,241.3906 Q341.5313,241.9688 340.7344,242.2969 Q339.6563,242.75 338.3594,242.75 Q336.8438,242.75 335.6406,242.125 Q334.6563,241.625 333.9688,240.5625 Q333.2813,239.4844 333.2813,238.2031 L333.2813,237.0469 Q333.2813,235.7188 333.8906,234.5781 Q334.5156,233.4219 335.6094,232.8125 Q336.7031,232.1875 337.9375,232.1875 Q338.6719,232.1875 339.3125,232.3594 Q339.9688,232.5156 340.5156,232.875 Z " fill="#000000"/><text fill="#000000" font-family="sans-serif" font-size="14" lengthAdjust="spacing" textLength="30" x="358.25" y="242.7285">Turn</text><line style="stroke:#181818;stroke-width:0.5;" x1="259.5" x2="454.5" y1="253" y2="253"/><rect fill="none" height="6" style="stroke:#C82930;stroke-width:1.0;" width="6" x="266.5" y="264.3047"/><text fill="#000000" font-family="sans-serif" font-size="14" lengthAdjust="spacing" text-decoration="underline" textLength="171" x="278.5" y="271.5332">int NUMBER_PLAYERS = 2</text><rect fill="none" height="6" style="stroke:#C82930;stroke-width:1.0;" width="6" x="266.5" y="281.9141"/><text fill="#000000" font-family="sans-serif" font-size="14" lengthAdjust="spacing" textLength="96" x="278.5" y="289.1426">int activePlayer</text><line style="stroke:#181818;stroke-width:0.5;" x1="259.5" x2="454.5" y1="296.2188" y2="296.2188"/><ellipse cx="269.5" cy="310.5234" fill="#84BE84" rx="3" ry="3" style="stroke:#038048;stroke-width:1.0;"/><text fill="#000000" font-family="sans-serif" font-size="14" lengthAdjust="spacing" textLength="78" x="278.5" y="314.752">Turn(Board)</text><ellipse cx="269.5" cy="328.1328" fill="#84BE84" rx="3" ry="3" style="stroke:#038048;stroke-width:1.0;"/><text fill="#000000" font-family="sans-serif" font-size="14" lengthAdjust="spacing" textLength="72" x="278.5" y="332.3613">void reset()</text><ellipse cx="269.5" cy="345.7422" fill="#84BE84" rx="3" ry="3" style="stroke:#038048;stroke-width:1.0;"/><text fill="#000000" font-family="sans-serif" font-size="14" lengthAdjust="spacing" textLength="66" x="278.5" y="349.9707">void play()</text><ellipse cx="269.5" cy="363.3516" fill="#84BE84" rx="3" ry="3" style="stroke:#038048;stroke-width:1.0;"/><text fill="#000000" font-family="sans-serif" font-size="14" lengthAdjust="spacing" textLength="114" x="278.5" y="367.5801">void writeWinner()</text><ellipse cx="269.5" cy="380.9609" fill="#84BE84" rx="3" ry="3" style="stroke:#038048;stroke-width:1.0;"/><text fill="#000000" font-family="sans-serif" font-size="14" lengthAdjust="spacing" textLength="140" x="278.5" y="385.1895">Color getActiveColor()</text></g><!--MD5=[02ea7f29950e23bda8c82d72bcbd4b5e]
link TicTacToe to Turn--><g id="link_TicTacToe_Turn"><path codeLine="100" d="M244.0071,152.9494 C244.0071,152.9494 272.47,191.38 286.3,210.05 " fill="none" id="TicTacToe-Turn" style="stroke:#181818;stroke-width:1.0;"/><polygon fill="#181818" points="294.14,220.64,291.9928,211.0281,291.162,216.6236,285.5665,215.7928,294.14,220.64" style="stroke:#181818;stroke-width:1.0;"/><line style="stroke:#181818;stroke-width:1.0;" x1="291.162" x2="286.405" y1="216.6236" y2="210.19"/><polygon fill="#181818" points="236.86,143.31,237.2204,150.5121,244.0071,152.9494,243.6467,145.7473,236.86,143.31" style="stroke:#181818;stroke-width:1.0;"/><text fill="#000000" font-family="sans-serif" font-size="13" lengthAdjust="spacing" textLength="22" x="273" y="187.4951">turn</text></g><!--MD5=[a737d2231371e146ba098899a67f3b67]
link TicTacToe to Board--><g id="link_TicTacToe_Board"><path codeLine="101" d="M183.5725,155.1384 C183.5725,155.1384 165.16,581.72 157.52,758.59 " fill="none" id="TicTacToe-Board" style="stroke:#181818;stroke-width:1.0;"/><polygon fill="#181818" points="156.95,771.66,161.3321,762.8397,157.1643,766.6646,153.3395,762.4968,156.95,771.66" style="stroke:#181818;stroke-width:1.0;"/><line style="stroke:#181818;stroke-width:1.0;" x1="157.1643" x2="157.515" y1="766.6646" y2="758.675"/><polygon fill="#181818" points="184.1,143.15,179.8401,148.9684,183.5725,155.1384,187.8324,149.32,184.1,143.15" style="stroke:#181818;stroke-width:1.0;"/><text fill="#000000" font-family="sans-serif" font-size="13" lengthAdjust="spacing" textLength="32" x="172" y="436.4951">board</text></g><!--MD5=[d81713d91ad05be3b975338c4816ee0b]
link Turn to Player--><g id="link_Turn_Player"><path codeLine="102" d="M378.4915,403.8724 C378.4915,403.8724 386.41,439.36 390.28,456.69 " fill="none" id="Turn-Player" style="stroke:#181818;stroke-width:1.0;"/><polygon fill="#181818" points="393.15,469.57,395.0955,459.9152,392.0619,464.6898,387.2872,461.6562,393.15,469.57" style="stroke:#181818;stroke-width:1.0;"/><line style="stroke:#181818;stroke-width:1.0;" x1="392.0619" x2="390.32" y1="464.6898" y2="456.88"/><polygon fill="#181818" points="375.88,392.16,373.2816,398.8867,378.4915,403.8724,381.0899,397.1457,375.88,392.16" style="stroke:#181818;stroke-width:1.0;"/><text fill="#000000" font-family="sans-serif" font-size="13" lengthAdjust="spacing" textLength="42" x="386" y="436.4951">players</text><text fill="#000000" font-family="sans-serif" font-size="13" lengthAdjust="spacing" textLength="7" x="384.2452" y="458.9824">2</text></g><!--MD5=[c1f7e88598f78d9459764ed93737eb14]
link Player to Board--><g id="link_Player_Board"><path codeLine="103" d="M326.86,694.45 C307.5,718.12 286.82,743.42 266.68,768.04 " fill="none" id="Player-to-Board" style="stroke:#181818;stroke-width:1.0;"/><polygon fill="#181818" points="263.46,771.98,272.2576,767.5526,266.6285,768.1121,266.069,762.483,263.46,771.98" style="stroke:#181818;stroke-width:1.0;"/><text fill="#000000" font-family="sans-serif" font-size="13" lengthAdjust="spacing" textLength="32" x="301" y="738.4951">board</text></g><!--MD5=[ebf52a6f230ff8b0d594dd9ce4cd7c5b]
link Player to Color--><g id="link_Player_Color"><path codeLine="104" d="M501.36,694.06 C515.64,718.56 528.33,745.23 536,772 C577.15,915.62 556.94,1091.89 539.08,1192.76 " fill="none" id="Player-to-Color" style="stroke:#181818;stroke-width:1.0;"/><polygon fill="#181818" points="538.17,1197.8,543.6988,1189.6494,539.0544,1192.8788,535.825,1188.2344,538.17,1197.8" style="stroke:#181818;stroke-width:1.0;"/><text fill="#000000" font-family="sans-serif" font-size="13" lengthAdjust="spacing" textLength="28" x="561" y="915.9951">color</text></g><!--MD5=[01a9a67b785efa17a0e591fde2682c2c]
link Player to Error--><g id="link_Player_Error"><path codeLine="105" d="M420.05,694.45 C420.63,726.28 421.27,761.03 421.86,793.15 " fill="none" id="Player-to-Error" style="stroke:#181818;stroke-width:1.0;stroke-dasharray:7.0,7.0;"/><polygon fill="#181818" points="421.96,798.28,425.7792,789.2018,421.86,793.281,417.7808,789.3618,421.96,798.28" style="stroke:#181818;stroke-width:1.0;"/></g><!--MD5=[e8e56f95b2bfb8e03c3cdf9f0e0c50ee]
link Board to Color--><g id="link_Board_Color"><path codeLine="106" d="M304.0739,1041.2715 C304.0739,1041.2715 354.31,1087.38 377,1110 C402.06,1134.98 428.07,1163.48 451.03,1189.64 " fill="none" id="Board-Color" style="stroke:#181818;stroke-width:1.0;"/><polygon fill="#181818" points="459.67,1199.54,456.7635,1190.1298,456.3814,1195.7737,450.7374,1195.3916,459.67,1199.54" style="stroke:#181818;stroke-width:1.0;"/><line style="stroke:#181818;stroke-width:1.0;" x1="456.3814" x2="451.12" y1="1195.7737" y2="1189.745"/><polygon fill="#181818" points="295.14,1033.26,296.9364,1040.2438,304.0739,1041.2715,302.2775,1034.2878,295.14,1033.26" style="stroke:#181818;stroke-width:1.0;"/><text fill="#000000" font-family="sans-serif" font-size="13" lengthAdjust="spacing" textLength="21" x="431.1594" y="1188.4642">3x3</text></g><!--MD5=[a416983a2bb8ca1c26830059e75eb56a]
link Board to Coordinate--><g id="link_Board_Coordinate"><path codeLine="107" d="M184.02,1049.06 C188.36,1067.19 192.86,1085.93 197.32,1104.51 " fill="none" id="Board-to-Coordinate" style="stroke:#181818;stroke-width:1.0;stroke-dasharray:7.0,7.0;"/><polygon fill="#181818" points="198.58,1109.75,200.3854,1100.068,197.4213,1104.8861,192.6032,1101.922,198.58,1109.75" style="stroke:#181818;stroke-width:1.0;"/></g><!--MD5=[a676224b545de2f8b00c905b7798379b]
link Board to Direction--><g id="link_Board_Direction"><path codeLine="108" d="M110.69,1049.24 C106,1069.47 101.88,1090.17 99,1110 C79.53,1244.14 79.08,1402.12 81.13,1495.68 " fill="none" id="Board-to-Direction" style="stroke:#181818;stroke-width:1.0;stroke-dasharray:7.0,7.0;"/><polygon fill="#181818" points="81.24,1500.91,85.0333,1491.8209,81.1257,1495.9113,77.0354,1492.0038,81.24,1500.91" style="stroke:#181818;stroke-width:1.0;"/></g><!--MD5=[2ece631038b7899e5b9aaea57adaf24e]
link Coordinate to Direction--><g id="link_Coordinate_Direction"><path codeLine="109" d="M154.02,1440.15 C144.11,1459.52 134.36,1478.58 125.42,1496.04 " fill="none" id="Coordinate-to-Direction" style="stroke:#181818;stroke-width:1.0;stroke-dasharray:7.0,7.0;"/><polygon fill="#181818" points="122.93,1500.92,130.5804,1494.7174,125.2003,1496.4651,123.4526,1491.085,122.93,1500.92" style="stroke:#181818;stroke-width:1.0;"/></g><!--MD5=[817ae3ef55732543328f81f44c8d4636]
@startuml

class Board {
	+ Board() 
	+ void reset() 
	+ boolean isComplete(Color)
	- Coordinate[] getCoordinates(Color)
	+ void putToken(Coordinate, Color)
	+ void moveToken(Coordinate, Coordinate) 
	- Color getColor(Coordinate) 
	+ boolean isOccupied(Coordinate, Color) 
	+ boolean isEmpty(Coordinate)
	+ boolean isTicTacToe(Color) 
	- Direction[] getDirections(Color)
	+ void write()
	+ boolean isComplete(Color)
}

enum Color {
	X,
	O,
	NULL
	+ {static} Color get(int)
	+ void write() 
	+ boolean isNull()
}


class Coordinate {
	- {static} int DIMENSION = 3
	- int row
	- int column
	+ {static} int getDimension()
	+ Coordinate() 
	+ Coordinate(int, int) 
	+ Direction getDirection(Coordinate)
	- boolean inHorizontal(Coordinate)
	- boolean inVertical(Coordinate)
	- boolean inMainDiagonal() 
	- boolean inInverseDiagonal() 
	+ void read(String)
	+ String getErrorMessage() 
	+ int getRow()
	+ int getColumn()
	+ boolean equals(Coordinate)
}

enum Direction {
	VERTICAL,
	HORIZONTAL,
	MAIN_DIAGONAL,
	INVERSE_DIAGONAL,
	NULL
	+ boolean isNull() 
}

enum Error {
	NOT_EMPTY
	NOT_OWNER
	SAME_COORDINATES
	WRONG_COORDINATES
	NULL
	- String message
	- Error()
	- Error(String)
	+ void writeln()
	+ boolean isNull()
}

class Player {
	+ Player(Color, Board)
	+ void play() 
	- void putToken()
	- Coordinate getCoordinate(Message) 
	- Error getPutTokenError(Coordinate)
	- void moveToken() 
	- Error getOriginMoveTokenError(Coordinate) 
	- Error getTargetMoveTokenError(Coordinate, Coordinate)
	+ void writeWinner() 
	+ Color getColor() 
}

class TicTacToe {
	- TicTacToe() 
	- void play() 
	- void playGame() 
	- boolean isResumedGame() 
	+ {static} void main(String[])
}

class Turn {
	- {static} int NUMBER_PLAYERS = 2
	- int activePlayer
	+ Turn(Board) 
	+ void reset()
	+ void play()
	+ void writeWinner()
	+ Color getActiveColor() 
}

TicTacToe *-down-> Turn : turn
TicTacToe *-down-> Board : board
Turn *-down-> "2" Player : players
Player -down-> Board : board
Player -down-> Color : color
Player ..> Error
Board *-down-> "3x3" Color
Board ..> Coordinate
Board ..> Direction
Coordinate ..> Direction
@enduml

PlantUML version 1.2022.7(Mon Aug 22 19:01:30 CEST 2022)
(GPL source distribution)
Java Runtime: Java(TM) SE Runtime Environment
JVM: Java HotSpot(TM) 64-Bit Server VM
Default Encoding: Cp1252
Language: es
Country: ES
--></g></svg>