<?xml version="1.0" encoding="UTF-8" standalone="no"?><svg xmlns="http://www.w3.org/2000/svg" xmlns:xlink="http://www.w3.org/1999/xlink" contentScriptType="application/ecmascript" contentStyleType="text/css" height="1112px" preserveAspectRatio="none" style="width:779px;height:1112px;background:#FFFFFF;" version="1.1" viewBox="0 0 779 1112" width="779px" zoomAndPan="magnify"><defs><filter height="300%" id="fg1pr81dnpd3p" width="300%" x="-1" y="-1"><feGaussianBlur result="blurOut" stdDeviation="2.0"/><feColorMatrix in="blurOut" result="blurOut2" type="matrix" values="0 0 0 0 0 0 0 0 0 0 0 0 0 0 0 0 0 0 .4 0"/><feOffset dx="4.0" dy="4.0" in="blurOut2" result="blurOut3"/><feBlend in="SourceGraphic" in2="blurOut3" mode="normal"/></filter></defs><g><text fill="#000000" font-family="sans-serif" font-size="18" lengthAdjust="spacing" textLength="69" x="348.75" y="18.6855">Klondike</text><!--MD5=[a4cb0f987c11031dc931233a0e7767af]
class Stock--><rect codeLine="3" fill="#FEFECE" filter="url(#fg1pr81dnpd3p)" height="61.8359" id="Stock" style="stroke:#A80036;stroke-width:1.5;" width="105" x="446.5" y="596.6406"/><ellipse cx="480.85" cy="612.6406" fill="#ADD1B2" rx="11" ry="11" style="stroke:#A80036;stroke-width:1.0;"/><path d="M482.85,609.1406 Q483.0531,608.6406 483.2875,608.3906 Q483.5219,608.1406 483.7875,608.1406 Q484.2563,608.1406 484.5531,608.4219 Q484.85,608.7031 484.85,609.3594 L484.85,610.9219 Q484.85,611.5781 484.5688,611.8594 Q484.2875,612.1406 483.85,612.1406 Q483.4594,612.1406 483.2094,611.9688 Q482.9594,611.7969 482.85,611.3438 Q482.8031,611.0313 482.6313,610.8594 Q482.3188,610.5313 481.7563,610.3438 Q481.1938,610.1406 480.6313,610.1406 Q479.9281,610.1406 479.3344,610.4219 Q478.7563,610.7031 478.3031,611.3281 Q477.85,611.9531 477.85,612.8125 L477.85,613.7344 Q477.85,614.7656 478.6938,615.4531 Q479.5375,616.1406 481.0375,616.1406 Q481.9281,616.1406 482.5531,615.9375 Q482.9125,615.8281 483.3188,615.4688 Q483.5844,615.2656 483.725,615.2031 Q483.8656,615.1406 484.0375,615.1406 Q484.3656,615.1406 484.6,615.4063 Q484.85,615.6563 484.85,616.0156 Q484.85,616.3594 484.5063,616.7656 Q484.0063,617.3594 483.2094,617.6875 Q482.1625,618.1406 480.8813,618.1406 Q479.3813,618.1406 478.1781,617.5469 Q477.2094,617.0781 476.5219,616.0625 Q475.85,615.0469 475.85,613.8438 L475.85,612.75 Q475.85,611.5 476.4438,610.4063 Q477.0531,609.3125 478.1,608.7344 Q479.1625,608.1406 480.35,608.1406 Q481.0688,608.1406 481.6938,608.3906 Q482.3188,608.6406 482.85,609.1406 Z " fill="#000000"/><text fill="#000000" font-family="sans-serif" font-size="12" lengthAdjust="spacing" textLength="30" x="499.15" y="617.5508">Stock</text><line style="stroke:#A80036;stroke-width:1.5;" x1="447.5" x2="550.5" y1="628.6406" y2="628.6406"/><text fill="#000000" font-family="sans-serif" font-size="11" lengthAdjust="spacing" text-decoration="underline" textLength="93" x="452.5" y="644.0596">maxCards = 52 : int</text><line style="stroke:#A80036;stroke-width:1.5;" x1="447.5" x2="550.5" y1="650.4766" y2="650.4766"/><!--MD5=[d01ad859d436f6e28b36a553834670aa]
class Foundation--><rect codeLine="6" fill="#FEFECE" filter="url(#fg1pr81dnpd3p)" height="48" id="Foundation" style="stroke:#A80036;stroke-width:1.5;" width="94" x="154" y="603.6406"/><ellipse cx="169" cy="619.6406" fill="#ADD1B2" rx="11" ry="11" style="stroke:#A80036;stroke-width:1.0;"/><path d="M171,616.1406 Q171.2031,615.6406 171.4375,615.3906 Q171.6719,615.1406 171.9375,615.1406 Q172.4063,615.1406 172.7031,615.4219 Q173,615.7031 173,616.3594 L173,617.9219 Q173,618.5781 172.7188,618.8594 Q172.4375,619.1406 172,619.1406 Q171.6094,619.1406 171.3594,618.9688 Q171.1094,618.7969 171,618.3438 Q170.9531,618.0313 170.7813,617.8594 Q170.4688,617.5313 169.9063,617.3438 Q169.3438,617.1406 168.7813,617.1406 Q168.0781,617.1406 167.4844,617.4219 Q166.9063,617.7031 166.4531,618.3281 Q166,618.9531 166,619.8125 L166,620.7344 Q166,621.7656 166.8438,622.4531 Q167.6875,623.1406 169.1875,623.1406 Q170.0781,623.1406 170.7031,622.9375 Q171.0625,622.8281 171.4688,622.4688 Q171.7344,622.2656 171.875,622.2031 Q172.0156,622.1406 172.1875,622.1406 Q172.5156,622.1406 172.75,622.4063 Q173,622.6563 173,623.0156 Q173,623.3594 172.6563,623.7656 Q172.1563,624.3594 171.3594,624.6875 Q170.3125,625.1406 169.0313,625.1406 Q167.5313,625.1406 166.3281,624.5469 Q165.3594,624.0781 164.6719,623.0625 Q164,622.0469 164,620.8438 L164,619.75 Q164,618.5 164.5938,617.4063 Q165.2031,616.3125 166.25,615.7344 Q167.3125,615.1406 168.5,615.1406 Q169.2188,615.1406 169.8438,615.3906 Q170.4688,615.6406 171,616.1406 Z " fill="#000000"/><text fill="#000000" font-family="sans-serif" font-size="12" lengthAdjust="spacing" textLength="62" x="183" y="624.5508">Foundation</text><line style="stroke:#A80036;stroke-width:1.5;" x1="155" x2="247" y1="635.6406" y2="635.6406"/><line style="stroke:#A80036;stroke-width:1.5;" x1="155" x2="247" y1="643.6406" y2="643.6406"/><!--MD5=[c033d16283544a66478df33ee92fe5a6]
class Tableau--><rect codeLine="9" fill="#FEFECE" filter="url(#fg1pr81dnpd3p)" height="48" id="Tableau" style="stroke:#A80036;stroke-width:1.5;" width="77" x="688.5" y="603.6406"/><ellipse cx="703.5" cy="619.6406" fill="#ADD1B2" rx="11" ry="11" style="stroke:#A80036;stroke-width:1.0;"/><path d="M705.5,616.1406 Q705.7031,615.6406 705.9375,615.3906 Q706.1719,615.1406 706.4375,615.1406 Q706.9063,615.1406 707.2031,615.4219 Q707.5,615.7031 707.5,616.3594 L707.5,617.9219 Q707.5,618.5781 707.2188,618.8594 Q706.9375,619.1406 706.5,619.1406 Q706.1094,619.1406 705.8594,618.9688 Q705.6094,618.7969 705.5,618.3438 Q705.4531,618.0313 705.2813,617.8594 Q704.9688,617.5313 704.4063,617.3438 Q703.8438,617.1406 703.2813,617.1406 Q702.5781,617.1406 701.9844,617.4219 Q701.4063,617.7031 700.9531,618.3281 Q700.5,618.9531 700.5,619.8125 L700.5,620.7344 Q700.5,621.7656 701.3438,622.4531 Q702.1875,623.1406 703.6875,623.1406 Q704.5781,623.1406 705.2031,622.9375 Q705.5625,622.8281 705.9688,622.4688 Q706.2344,622.2656 706.375,622.2031 Q706.5156,622.1406 706.6875,622.1406 Q707.0156,622.1406 707.25,622.4063 Q707.5,622.6563 707.5,623.0156 Q707.5,623.3594 707.1563,623.7656 Q706.6563,624.3594 705.8594,624.6875 Q704.8125,625.1406 703.5313,625.1406 Q702.0313,625.1406 700.8281,624.5469 Q699.8594,624.0781 699.1719,623.0625 Q698.5,622.0469 698.5,620.8438 L698.5,619.75 Q698.5,618.5 699.0938,617.4063 Q699.7031,616.3125 700.75,615.7344 Q701.8125,615.1406 703,615.1406 Q703.7188,615.1406 704.3438,615.3906 Q704.9688,615.6406 705.5,616.1406 Z " fill="#000000"/><text fill="#000000" font-family="sans-serif" font-size="12" lengthAdjust="spacing" textLength="45" x="717.5" y="624.5508">Tableau</text><line style="stroke:#A80036;stroke-width:1.5;" x1="689.5" x2="764.5" y1="635.6406" y2="635.6406"/><line style="stroke:#A80036;stroke-width:1.5;" x1="689.5" x2="764.5" y1="643.6406" y2="643.6406"/><!--MD5=[c3c256aac7e3870d53c0042288b21bdc]
class Waste--><rect codeLine="12" fill="#FEFECE" filter="url(#fg1pr81dnpd3p)" height="48" id="Waste" style="stroke:#A80036;stroke-width:1.5;" width="67" x="586.5" y="603.6406"/><ellipse cx="601.5" cy="619.6406" fill="#ADD1B2" rx="11" ry="11" style="stroke:#A80036;stroke-width:1.0;"/><path d="M603.5,616.1406 Q603.7031,615.6406 603.9375,615.3906 Q604.1719,615.1406 604.4375,615.1406 Q604.9063,615.1406 605.2031,615.4219 Q605.5,615.7031 605.5,616.3594 L605.5,617.9219 Q605.5,618.5781 605.2188,618.8594 Q604.9375,619.1406 604.5,619.1406 Q604.1094,619.1406 603.8594,618.9688 Q603.6094,618.7969 603.5,618.3438 Q603.4531,618.0313 603.2813,617.8594 Q602.9688,617.5313 602.4063,617.3438 Q601.8438,617.1406 601.2813,617.1406 Q600.5781,617.1406 599.9844,617.4219 Q599.4063,617.7031 598.9531,618.3281 Q598.5,618.9531 598.5,619.8125 L598.5,620.7344 Q598.5,621.7656 599.3438,622.4531 Q600.1875,623.1406 601.6875,623.1406 Q602.5781,623.1406 603.2031,622.9375 Q603.5625,622.8281 603.9688,622.4688 Q604.2344,622.2656 604.375,622.2031 Q604.5156,622.1406 604.6875,622.1406 Q605.0156,622.1406 605.25,622.4063 Q605.5,622.6563 605.5,623.0156 Q605.5,623.3594 605.1563,623.7656 Q604.6563,624.3594 603.8594,624.6875 Q602.8125,625.1406 601.5313,625.1406 Q600.0313,625.1406 598.8281,624.5469 Q597.8594,624.0781 597.1719,623.0625 Q596.5,622.0469 596.5,620.8438 L596.5,619.75 Q596.5,618.5 597.0938,617.4063 Q597.7031,616.3125 598.75,615.7344 Q599.8125,615.1406 601,615.1406 Q601.7188,615.1406 602.3438,615.3906 Q602.9688,615.6406 603.5,616.1406 Z " fill="#000000"/><text fill="#000000" font-family="sans-serif" font-size="12" lengthAdjust="spacing" textLength="35" x="615.5" y="624.5508">Waste</text><line style="stroke:#A80036;stroke-width:1.5;" x1="587.5" x2="652.5" y1="635.6406" y2="635.6406"/><line style="stroke:#A80036;stroke-width:1.5;" x1="587.5" x2="652.5" y1="643.6406" y2="643.6406"/><!--MD5=[5e305716458bbdabbd2d7f572ed2bae2]
class Card--><rect codeLine="15" fill="#FEFECE" filter="url(#fg1pr81dnpd3p)" height="89.5078" id="Card" style="stroke:#A80036;stroke-width:1.5;" width="128" x="283" y="582.6406"/><ellipse cx="329.25" cy="598.6406" fill="#ADD1B2" rx="11" ry="11" style="stroke:#A80036;stroke-width:1.0;"/><path d="M331.25,595.1406 Q331.4531,594.6406 331.6875,594.3906 Q331.9219,594.1406 332.1875,594.1406 Q332.6563,594.1406 332.9531,594.4219 Q333.25,594.7031 333.25,595.3594 L333.25,596.9219 Q333.25,597.5781 332.9688,597.8594 Q332.6875,598.1406 332.25,598.1406 Q331.8594,598.1406 331.6094,597.9688 Q331.3594,597.7969 331.25,597.3438 Q331.2031,597.0313 331.0313,596.8594 Q330.7188,596.5313 330.1563,596.3438 Q329.5938,596.1406 329.0313,596.1406 Q328.3281,596.1406 327.7344,596.4219 Q327.1563,596.7031 326.7031,597.3281 Q326.25,597.9531 326.25,598.8125 L326.25,599.7344 Q326.25,600.7656 327.0938,601.4531 Q327.9375,602.1406 329.4375,602.1406 Q330.3281,602.1406 330.9531,601.9375 Q331.3125,601.8281 331.7188,601.4688 Q331.9844,601.2656 332.125,601.2031 Q332.2656,601.1406 332.4375,601.1406 Q332.7656,601.1406 333,601.4063 Q333.25,601.6563 333.25,602.0156 Q333.25,602.3594 332.9063,602.7656 Q332.4063,603.3594 331.6094,603.6875 Q330.5625,604.1406 329.2813,604.1406 Q327.7813,604.1406 326.5781,603.5469 Q325.6094,603.0781 324.9219,602.0625 Q324.25,601.0469 324.25,599.8438 L324.25,598.75 Q324.25,597.5 324.8438,596.4063 Q325.4531,595.3125 326.5,594.7344 Q327.5625,594.1406 328.75,594.1406 Q329.4688,594.1406 330.0938,594.3906 Q330.7188,594.6406 331.25,595.1406 Z " fill="#000000"/><text fill="#000000" font-family="sans-serif" font-size="12" lengthAdjust="spacing" textLength="27" x="349.75" y="603.5508">Card</text><line style="stroke:#A80036;stroke-width:1.5;" x1="284" x2="410" y1="614.6406" y2="614.6406"/><rect fill="none" height="6" style="stroke:#C82930;stroke-width:1.0;" width="6" x="291" y="622.6406"/><text fill="#000000" font-family="sans-serif" font-size="11" lengthAdjust="spacing" textLength="54" x="303" y="630.0596">rank : Rank</text><rect fill="none" height="6" style="stroke:#C82930;stroke-width:1.0;" width="6" x="291" y="636.4766"/><text fill="#000000" font-family="sans-serif" font-size="11" lengthAdjust="spacing" textLength="44" x="303" y="643.8955">suit : Suit</text><rect fill="none" height="6" style="stroke:#C82930;stroke-width:1.0;" width="6" x="291" y="650.3125"/><text fill="#000000" font-family="sans-serif" font-size="11" lengthAdjust="spacing" textLength="102" x="303" y="657.7314">IsTurnedUp : boolean</text><line style="stroke:#A80036;stroke-width:1.5;" x1="284" x2="410" y1="664.1484" y2="664.1484"/><!--MD5=[9d65f55e1ae89a5b4cf38812aa4a03f3]
class Pile--><rect codeLine="20" fill="#FEFECE" filter="url(#fg1pr81dnpd3p)" height="75.6719" id="Pile" style="stroke:#A80036;stroke-width:1.5;" width="129" x="396.5" y="445.6406"/><ellipse cx="446.25" cy="461.6406" fill="#A9DCDF" rx="11" ry="11" style="stroke:#A80036;stroke-width:1.0;"/><path d="M448,463.1406 L444.7031,463.1406 L444.2656,464.1406 L444.2656,464.1406 L444.7344,464.1406 L445.25,464.7656 L445.25,465.1406 L445.25,465.5156 L444.7344,466.1406 L444.2656,466.1406 L442.375,466.1406 L441.7656,466.1406 L441.25,465.5156 L441.25,465.1406 L441.25,464.7656 L441.7656,464.1406 L442.375,464.1406 L444.6875,458.1406 L443.8125,458.1406 L442.7656,458.1406 L442.25,457.5156 L442.25,457.1406 L442.25,456.7656 L442.7656,456.1406 L443.8125,456.1406 L447.4844,456.1406 L450.1719,464.1406 L450.7344,464.1406 L450.7344,464.1406 L451.25,464.7656 L451.25,465.1406 L451.25,465.5156 L450.7344,466.1406 L450.1719,466.1406 L448.2813,466.1406 L447.7656,466.1406 L447.25,465.5156 L447.25,465.1406 L447.25,464.7656 L447.7656,464.1406 L448.2813,464.1406 L448.2813,464.1406 L448,463.1406 Z M447.4531,461.1406 L446.25,457.5625 L445.2188,461.1406 L447.4531,461.1406 Z " fill="#000000"/><text fill="#000000" font-family="sans-serif" font-size="12" font-style="italic" lengthAdjust="spacing" textLength="21" x="466.75" y="466.5508">Pile</text><line style="stroke:#A80036;stroke-width:1.5;" x1="397.5" x2="524.5" y1="477.6406" y2="477.6406"/><rect fill="none" height="6" style="stroke:#C82930;stroke-width:1.0;" width="6" x="404.5" y="485.6406"/><text fill="#000000" font-family="sans-serif" font-size="11" lengthAdjust="spacing" textLength="65" x="416.5" y="493.0596">cardList : List</text><line style="stroke:#A80036;stroke-width:1.5;" x1="397.5" x2="524.5" y1="499.4766" y2="499.4766"/><polygon fill="#FFFF44" points="407.5,505.4766,411.5,509.4766,407.5,513.4766,403.5,509.4766" style="stroke:#B38D22;stroke-width:1.0;"/><text fill="#000000" font-family="sans-serif" font-size="11" lengthAdjust="spacing" textLength="103" x="416.5" y="514.8955">validMove() : boolean</text><!--MD5=[8afaa0cc9be9ac1cdc24999fa1642fa3]
class Suit--><rect codeLine="24" fill="#FEFECE" filter="url(#fg1pr81dnpd3p)" height="61.8359" id="Suit" style="stroke:#A80036;stroke-width:1.5;" width="81" x="190.5" y="816.6406"/><ellipse cx="218.1" cy="832.6406" fill="#A9DCDF" rx="11" ry="11" style="stroke:#A80036;stroke-width:1.0;"/><path d="M219.85,834.1406 L216.5531,834.1406 L216.1156,835.1406 L216.1156,835.1406 L216.5844,835.1406 L217.1,835.7656 L217.1,836.1406 L217.1,836.5156 L216.5844,837.1406 L216.1156,837.1406 L214.225,837.1406 L213.6156,837.1406 L213.1,836.5156 L213.1,836.1406 L213.1,835.7656 L213.6156,835.1406 L214.225,835.1406 L216.5375,829.1406 L215.6625,829.1406 L214.6156,829.1406 L214.1,828.5156 L214.1,828.1406 L214.1,827.7656 L214.6156,827.1406 L215.6625,827.1406 L219.3344,827.1406 L222.0219,835.1406 L222.5844,835.1406 L222.5844,835.1406 L223.1,835.7656 L223.1,836.1406 L223.1,836.5156 L222.5844,837.1406 L222.0219,837.1406 L220.1313,837.1406 L219.6156,837.1406 L219.1,836.5156 L219.1,836.1406 L219.1,835.7656 L219.6156,835.1406 L220.1313,835.1406 L220.1313,835.1406 L219.85,834.1406 Z M219.3031,832.1406 L218.1,828.5625 L217.0688,832.1406 L219.3031,832.1406 Z " fill="#000000"/><text fill="#000000" font-family="sans-serif" font-size="12" font-style="italic" lengthAdjust="spacing" textLength="21" x="234.9" y="837.5508">Suit</text><line style="stroke:#A80036;stroke-width:1.5;" x1="191.5" x2="270.5" y1="848.6406" y2="848.6406"/><rect fill="none" height="6" style="stroke:#C82930;stroke-width:1.0;" width="6" x="198.5" y="856.6406"/><text fill="#000000" font-family="sans-serif" font-size="11" lengthAdjust="spacing" textLength="55" x="210.5" y="864.0596">color :Color</text><line style="stroke:#A80036;stroke-width:1.5;" x1="191.5" x2="270.5" y1="870.4766" y2="870.4766"/><!--MD5=[1981719fa3982d92ef7fd3f06d73b3e7]
class Move--><rect codeLine="27" fill="#FEFECE" filter="url(#fg1pr81dnpd3p)" height="89.5078" id="Move" style="stroke:#A80036;stroke-width:1.5;" width="103" x="331.5" y="247.6406"/><ellipse cx="365.85" cy="263.6406" fill="#ADD1B2" rx="11" ry="11" style="stroke:#A80036;stroke-width:1.0;"/><path d="M367.85,260.1406 Q368.0531,259.6406 368.2875,259.3906 Q368.5219,259.1406 368.7875,259.1406 Q369.2563,259.1406 369.5531,259.4219 Q369.85,259.7031 369.85,260.3594 L369.85,261.9219 Q369.85,262.5781 369.5688,262.8594 Q369.2875,263.1406 368.85,263.1406 Q368.4594,263.1406 368.2094,262.9688 Q367.9594,262.7969 367.85,262.3438 Q367.8031,262.0313 367.6313,261.8594 Q367.3188,261.5313 366.7563,261.3438 Q366.1938,261.1406 365.6313,261.1406 Q364.9281,261.1406 364.3344,261.4219 Q363.7563,261.7031 363.3031,262.3281 Q362.85,262.9531 362.85,263.8125 L362.85,264.7344 Q362.85,265.7656 363.6938,266.4531 Q364.5375,267.1406 366.0375,267.1406 Q366.9281,267.1406 367.5531,266.9375 Q367.9125,266.8281 368.3188,266.4688 Q368.5844,266.2656 368.725,266.2031 Q368.8656,266.1406 369.0375,266.1406 Q369.3656,266.1406 369.6,266.4063 Q369.85,266.6563 369.85,267.0156 Q369.85,267.3594 369.5063,267.7656 Q369.0063,268.3594 368.2094,268.6875 Q367.1625,269.1406 365.8813,269.1406 Q364.3813,269.1406 363.1781,268.5469 Q362.2094,268.0781 361.5219,267.0625 Q360.85,266.0469 360.85,264.8438 L360.85,263.75 Q360.85,262.5 361.4438,261.4063 Q362.0531,260.3125 363.1,259.7344 Q364.1625,259.1406 365.35,259.1406 Q366.0688,259.1406 366.6938,259.3906 Q367.3188,259.6406 367.85,260.1406 Z " fill="#000000"/><text fill="#000000" font-family="sans-serif" font-size="12" lengthAdjust="spacing" textLength="28" x="384.15" y="268.5508">Move</text><line style="stroke:#A80036;stroke-width:1.5;" x1="332.5" x2="433.5" y1="279.6406" y2="279.6406"/><rect fill="none" height="6" style="stroke:#C82930;stroke-width:1.0;" width="6" x="339.5" y="287.6406"/><text fill="#000000" font-family="sans-serif" font-size="11" lengthAdjust="spacing" textLength="51" x="351.5" y="295.0596">origin : Pile</text><rect fill="none" height="6" style="stroke:#C82930;stroke-width:1.0;" width="6" x="339.5" y="301.4766"/><text fill="#000000" font-family="sans-serif" font-size="11" lengthAdjust="spacing" textLength="71" x="351.5" y="308.8955">cardList : Card</text><rect fill="none" height="6" style="stroke:#C82930;stroke-width:1.0;" width="6" x="339.5" y="315.3125"/><text fill="#000000" font-family="sans-serif" font-size="11" lengthAdjust="spacing" textLength="77" x="351.5" y="322.7314">destination : Pile</text><line style="stroke:#A80036;stroke-width:1.5;" x1="332.5" x2="433.5" y1="329.1484" y2="329.1484"/><!--MD5=[18eee71c88ab61f27581b8cbdd3ef5ee]
class Color--><rect codeLine="32" fill="#FEFECE" filter="url(#fg1pr81dnpd3p)" height="75.6719" id="Color" style="stroke:#A80036;stroke-width:1.5;" width="62" x="7" y="1022.6406"/><ellipse cx="22" cy="1038.6406" fill="#EB937F" rx="11" ry="11" style="stroke:#A80036;stroke-width:1.0;"/><path d="M20.5,1039.6406 L20.5,1041.6406 L24.5,1041.6406 L24.5,1040.6406 L24.5,1040.1563 L25.125,1039.6406 L25.5,1039.6406 L25.875,1039.6406 L26.5,1040.1563 L26.5,1040.6406 L26.5,1043.6406 L18.5,1043.6406 L18.0156,1043.6406 L17.5,1043.0156 L17.5,1042.6406 L17.5,1042.2656 L18.0156,1041.6406 L18.5,1041.6406 L18.5,1041.6406 L18.5,1035.6406 L18.5,1035.6406 L18.0156,1035.6406 L17.5,1035.0156 L17.5,1034.6406 L17.5,1034.2656 L18.0156,1033.6406 L18.5,1033.6406 L26.5,1033.6406 L26.5,1036.6406 L26.5,1037.125 L25.875,1037.6406 L25.5,1037.6406 L25.125,1037.6406 L24.5,1037.125 L24.5,1036.6406 L24.5,1035.6406 L20.5,1035.6406 L20.5,1037.6406 L21.5,1037.6406 L21.5,1037.1563 L21.5,1037.1563 L22.125,1036.6406 L22.5,1036.6406 L22.875,1036.6406 L23.5,1037.1563 L23.5,1037.6406 L23.5,1039.6406 L23.5,1040.125 L22.875,1040.6406 L22.875,1040.6406 L22.5,1040.6406 L22.125,1040.6406 L21.5,1040.125 L21.5,1040.125 L21.5,1039.6406 L20.5,1039.6406 Z " fill="#000000"/><text fill="#000000" font-family="sans-serif" font-size="12" lengthAdjust="spacing" textLength="30" x="36" y="1043.5508">Color</text><line style="stroke:#A80036;stroke-width:1.5;" x1="8" x2="68" y1="1054.6406" y2="1054.6406"/><text fill="#000000" font-family="sans-serif" font-size="11" lengthAdjust="spacing" textLength="20" x="13" y="1070.0596">RED</text><text fill="#000000" font-family="sans-serif" font-size="11" lengthAdjust="spacing" textLength="35" x="13" y="1083.8955">BLACK</text><line style="stroke:#A80036;stroke-width:1.5;" x1="8" x2="68" y1="1090.3125" y2="1090.3125"/><!--MD5=[0f690a215a17a0cf4b9f948ca5dd1b3e]
class Rank--><rect codeLine="36" fill="#FEFECE" filter="url(#fg1pr81dnpd3p)" height="227.8672" id="Rank" style="stroke:#A80036;stroke-width:1.5;" width="61" x="316.5" y="733.6406"/><ellipse cx="331.5" cy="749.6406" fill="#EB937F" rx="11" ry="11" style="stroke:#A80036;stroke-width:1.0;"/><path d="M330,750.6406 L330,752.6406 L334,752.6406 L334,751.6406 L334,751.1563 L334.625,750.6406 L335,750.6406 L335.375,750.6406 L336,751.1563 L336,751.6406 L336,754.6406 L328,754.6406 L327.5156,754.6406 L327,754.0156 L327,753.6406 L327,753.2656 L327.5156,752.6406 L328,752.6406 L328,752.6406 L328,746.6406 L328,746.6406 L327.5156,746.6406 L327,746.0156 L327,745.6406 L327,745.2656 L327.5156,744.6406 L328,744.6406 L336,744.6406 L336,747.6406 L336,748.125 L335.375,748.6406 L335,748.6406 L334.625,748.6406 L334,748.125 L334,747.6406 L334,746.6406 L330,746.6406 L330,748.6406 L331,748.6406 L331,748.1563 L331,748.1563 L331.625,747.6406 L332,747.6406 L332.375,747.6406 L333,748.1563 L333,748.6406 L333,750.6406 L333,751.125 L332.375,751.6406 L332.375,751.6406 L332,751.6406 L331.625,751.6406 L331,751.125 L331,751.125 L331,750.6406 L330,750.6406 Z " fill="#000000"/><text fill="#000000" font-family="sans-serif" font-size="12" lengthAdjust="spacing" textLength="29" x="345.5" y="754.5508">Rank</text><line style="stroke:#A80036;stroke-width:1.5;" x1="317.5" x2="376.5" y1="765.6406" y2="765.6406"/><text fill="#000000" font-family="sans-serif" font-size="11" lengthAdjust="spacing" textLength="8" x="322.5" y="781.0596">A</text><text fill="#000000" font-family="sans-serif" font-size="11" lengthAdjust="spacing" textLength="6" x="322.5" y="794.8955">2</text><text fill="#000000" font-family="sans-serif" font-size="11" lengthAdjust="spacing" textLength="6" x="322.5" y="808.7314">3</text><text fill="#000000" font-family="sans-serif" font-size="11" lengthAdjust="spacing" textLength="6" x="322.5" y="822.5674">4</text><text fill="#000000" font-family="sans-serif" font-size="11" lengthAdjust="spacing" textLength="6" x="322.5" y="836.4033">5</text><text fill="#000000" font-family="sans-serif" font-size="11" lengthAdjust="spacing" textLength="6" x="322.5" y="850.2393">6</text><text fill="#000000" font-family="sans-serif" font-size="11" lengthAdjust="spacing" textLength="6" x="322.5" y="864.0752">7</text><text fill="#000000" font-family="sans-serif" font-size="11" lengthAdjust="spacing" textLength="6" x="322.5" y="877.9111">8</text><text fill="#000000" font-family="sans-serif" font-size="11" lengthAdjust="spacing" textLength="6" x="322.5" y="891.7471">9</text><text fill="#000000" font-family="sans-serif" font-size="11" lengthAdjust="spacing" textLength="6" x="322.5" y="905.583">1</text><text fill="#000000" font-family="sans-serif" font-size="11" lengthAdjust="spacing" textLength="5" x="322.5" y="919.4189">J</text><text fill="#000000" font-family="sans-serif" font-size="11" lengthAdjust="spacing" textLength="8" x="322.5" y="933.2549">Q</text><text fill="#000000" font-family="sans-serif" font-size="11" lengthAdjust="spacing" textLength="7" x="322.5" y="947.0908">K</text><line style="stroke:#A80036;stroke-width:1.5;" x1="317.5" x2="376.5" y1="953.5078" y2="953.5078"/><!--MD5=[ce135f397e71694d574a1221b16fe9d6]
class Klondike--><rect fill="#FEFECE" filter="url(#fg1pr81dnpd3p)" height="48" id="Klondike" style="stroke:#A80036;stroke-width:1.5;" width="80" x="539" y="29.6406"/><ellipse cx="554" cy="45.6406" fill="#ADD1B2" rx="11" ry="11" style="stroke:#A80036;stroke-width:1.0;"/><path d="M556,42.1406 Q556.2031,41.6406 556.4375,41.3906 Q556.6719,41.1406 556.9375,41.1406 Q557.4063,41.1406 557.7031,41.4219 Q558,41.7031 558,42.3594 L558,43.9219 Q558,44.5781 557.7188,44.8594 Q557.4375,45.1406 557,45.1406 Q556.6094,45.1406 556.3594,44.9688 Q556.1094,44.7969 556,44.3438 Q555.9531,44.0313 555.7813,43.8594 Q555.4688,43.5313 554.9063,43.3438 Q554.3438,43.1406 553.7813,43.1406 Q553.0781,43.1406 552.4844,43.4219 Q551.9063,43.7031 551.4531,44.3281 Q551,44.9531 551,45.8125 L551,46.7344 Q551,47.7656 551.8438,48.4531 Q552.6875,49.1406 554.1875,49.1406 Q555.0781,49.1406 555.7031,48.9375 Q556.0625,48.8281 556.4688,48.4688 Q556.7344,48.2656 556.875,48.2031 Q557.0156,48.1406 557.1875,48.1406 Q557.5156,48.1406 557.75,48.4063 Q558,48.6563 558,49.0156 Q558,49.3594 557.6563,49.7656 Q557.1563,50.3594 556.3594,50.6875 Q555.3125,51.1406 554.0313,51.1406 Q552.5313,51.1406 551.3281,50.5469 Q550.3594,50.0781 549.6719,49.0625 Q549,48.0469 549,46.8438 L549,45.75 Q549,44.5 549.5938,43.4063 Q550.2031,42.3125 551.25,41.7344 Q552.3125,41.1406 553.5,41.1406 Q554.2188,41.1406 554.8438,41.3906 Q555.4688,41.6406 556,42.1406 Z " fill="#000000"/><text fill="#000000" font-family="sans-serif" font-size="12" lengthAdjust="spacing" textLength="48" x="568" y="50.5508">Klondike</text><line style="stroke:#A80036;stroke-width:1.5;" x1="540" x2="618" y1="61.6406" y2="61.6406"/><line style="stroke:#A80036;stroke-width:1.5;" x1="540" x2="618" y1="69.6406" y2="69.6406"/><!--MD5=[2cb47ba637a0d19583e6199456f6ad0b]
class Player--><rect fill="#FEFECE" filter="url(#fg1pr81dnpd3p)" height="48" id="Player" style="stroke:#A80036;stroke-width:1.5;" width="66" x="350" y="138.6406"/><ellipse cx="365" cy="154.6406" fill="#ADD1B2" rx="11" ry="11" style="stroke:#A80036;stroke-width:1.0;"/><path d="M367,151.1406 Q367.2031,150.6406 367.4375,150.3906 Q367.6719,150.1406 367.9375,150.1406 Q368.4063,150.1406 368.7031,150.4219 Q369,150.7031 369,151.3594 L369,152.9219 Q369,153.5781 368.7188,153.8594 Q368.4375,154.1406 368,154.1406 Q367.6094,154.1406 367.3594,153.9688 Q367.1094,153.7969 367,153.3438 Q366.9531,153.0313 366.7813,152.8594 Q366.4688,152.5313 365.9063,152.3438 Q365.3438,152.1406 364.7813,152.1406 Q364.0781,152.1406 363.4844,152.4219 Q362.9063,152.7031 362.4531,153.3281 Q362,153.9531 362,154.8125 L362,155.7344 Q362,156.7656 362.8438,157.4531 Q363.6875,158.1406 365.1875,158.1406 Q366.0781,158.1406 366.7031,157.9375 Q367.0625,157.8281 367.4688,157.4688 Q367.7344,157.2656 367.875,157.2031 Q368.0156,157.1406 368.1875,157.1406 Q368.5156,157.1406 368.75,157.4063 Q369,157.6563 369,158.0156 Q369,158.3594 368.6563,158.7656 Q368.1563,159.3594 367.3594,159.6875 Q366.3125,160.1406 365.0313,160.1406 Q363.5313,160.1406 362.3281,159.5469 Q361.3594,159.0781 360.6719,158.0625 Q360,157.0469 360,155.8438 L360,154.75 Q360,153.5 360.5938,152.4063 Q361.2031,151.3125 362.25,150.7344 Q363.3125,150.1406 364.5,150.1406 Q365.2188,150.1406 365.8438,150.3906 Q366.4688,150.6406 367,151.1406 Z " fill="#000000"/><text fill="#000000" font-family="sans-serif" font-size="12" lengthAdjust="spacing" textLength="34" x="379" y="159.5508">Player</text><line style="stroke:#A80036;stroke-width:1.5;" x1="351" x2="415" y1="170.6406" y2="170.6406"/><line style="stroke:#A80036;stroke-width:1.5;" x1="351" x2="415" y1="178.6406" y2="178.6406"/><!--MD5=[0992d3fdc9d3d7c02b735131bb70871d]
class Goal--><rect fill="#FEFECE" filter="url(#fg1pr81dnpd3p)" height="48" id="Goal" style="stroke:#A80036;stroke-width:1.5;" width="58" x="221" y="367.6406"/><ellipse cx="236" cy="383.6406" fill="#ADD1B2" rx="11" ry="11" style="stroke:#A80036;stroke-width:1.0;"/><path d="M238,380.1406 Q238.2031,379.6406 238.4375,379.3906 Q238.6719,379.1406 238.9375,379.1406 Q239.4063,379.1406 239.7031,379.4219 Q240,379.7031 240,380.3594 L240,381.9219 Q240,382.5781 239.7188,382.8594 Q239.4375,383.1406 239,383.1406 Q238.6094,383.1406 238.3594,382.9688 Q238.1094,382.7969 238,382.3438 Q237.9531,382.0313 237.7813,381.8594 Q237.4688,381.5313 236.9063,381.3438 Q236.3438,381.1406 235.7813,381.1406 Q235.0781,381.1406 234.4844,381.4219 Q233.9063,381.7031 233.4531,382.3281 Q233,382.9531 233,383.8125 L233,384.7344 Q233,385.7656 233.8438,386.4531 Q234.6875,387.1406 236.1875,387.1406 Q237.0781,387.1406 237.7031,386.9375 Q238.0625,386.8281 238.4688,386.4688 Q238.7344,386.2656 238.875,386.2031 Q239.0156,386.1406 239.1875,386.1406 Q239.5156,386.1406 239.75,386.4063 Q240,386.6563 240,387.0156 Q240,387.3594 239.6563,387.7656 Q239.1563,388.3594 238.3594,388.6875 Q237.3125,389.1406 236.0313,389.1406 Q234.5313,389.1406 233.3281,388.5469 Q232.3594,388.0781 231.6719,387.0625 Q231,386.0469 231,384.8438 L231,383.75 Q231,382.5 231.5938,381.4063 Q232.2031,380.3125 233.25,379.7344 Q234.3125,379.1406 235.5,379.1406 Q236.2188,379.1406 236.8438,379.3906 Q237.4688,379.6406 238,380.1406 Z " fill="#000000"/><text fill="#000000" font-family="sans-serif" font-size="12" lengthAdjust="spacing" textLength="26" x="250" y="388.5508">Goal</text><line style="stroke:#A80036;stroke-width:1.5;" x1="222" x2="278" y1="399.6406" y2="399.6406"/><line style="stroke:#A80036;stroke-width:1.5;" x1="222" x2="278" y1="407.6406" y2="407.6406"/><!--MD5=[a7ca736ec2eaa3f5c977a8fac7fd0779]
class Club--><rect fill="#FEFECE" filter="url(#fg1pr81dnpd3p)" height="48" id="Club" style="stroke:#A80036;stroke-width:1.5;" width="58" x="104" y="1036.6406"/><ellipse cx="119" cy="1052.6406" fill="#ADD1B2" rx="11" ry="11" style="stroke:#A80036;stroke-width:1.0;"/><path d="M121,1049.1406 Q121.2031,1048.6406 121.4375,1048.3906 Q121.6719,1048.1406 121.9375,1048.1406 Q122.4063,1048.1406 122.7031,1048.4219 Q123,1048.7031 123,1049.3594 L123,1050.9219 Q123,1051.5781 122.7188,1051.8594 Q122.4375,1052.1406 122,1052.1406 Q121.6094,1052.1406 121.3594,1051.9688 Q121.1094,1051.7969 121,1051.3438 Q120.9531,1051.0313 120.7813,1050.8594 Q120.4688,1050.5313 119.9063,1050.3438 Q119.3438,1050.1406 118.7813,1050.1406 Q118.0781,1050.1406 117.4844,1050.4219 Q116.9063,1050.7031 116.4531,1051.3281 Q116,1051.9531 116,1052.8125 L116,1053.7344 Q116,1054.7656 116.8438,1055.4531 Q117.6875,1056.1406 119.1875,1056.1406 Q120.0781,1056.1406 120.7031,1055.9375 Q121.0625,1055.8281 121.4688,1055.4688 Q121.7344,1055.2656 121.875,1055.2031 Q122.0156,1055.1406 122.1875,1055.1406 Q122.5156,1055.1406 122.75,1055.4063 Q123,1055.6563 123,1056.0156 Q123,1056.3594 122.6563,1056.7656 Q122.1563,1057.3594 121.3594,1057.6875 Q120.3125,1058.1406 119.0313,1058.1406 Q117.5313,1058.1406 116.3281,1057.5469 Q115.3594,1057.0781 114.6719,1056.0625 Q114,1055.0469 114,1053.8438 L114,1052.75 Q114,1051.5 114.5938,1050.4063 Q115.2031,1049.3125 116.25,1048.7344 Q117.3125,1048.1406 118.5,1048.1406 Q119.2188,1048.1406 119.8438,1048.3906 Q120.4688,1048.6406 121,1049.1406 Z " fill="#000000"/><text fill="#000000" font-family="sans-serif" font-size="12" lengthAdjust="spacing" textLength="26" x="133" y="1057.5508">Club</text><line style="stroke:#A80036;stroke-width:1.5;" x1="105" x2="161" y1="1068.6406" y2="1068.6406"/><line style="stroke:#A80036;stroke-width:1.5;" x1="105" x2="161" y1="1076.6406" y2="1076.6406"/><!--MD5=[e07683d003131b9e2f36793e1d14f746]
class Spade--><rect fill="#FEFECE" filter="url(#fg1pr81dnpd3p)" height="48" id="Spade" style="stroke:#A80036;stroke-width:1.5;" width="68" x="197" y="1036.6406"/><ellipse cx="212" cy="1052.6406" fill="#ADD1B2" rx="11" ry="11" style="stroke:#A80036;stroke-width:1.0;"/><path d="M214,1049.1406 Q214.2031,1048.6406 214.4375,1048.3906 Q214.6719,1048.1406 214.9375,1048.1406 Q215.4063,1048.1406 215.7031,1048.4219 Q216,1048.7031 216,1049.3594 L216,1050.9219 Q216,1051.5781 215.7188,1051.8594 Q215.4375,1052.1406 215,1052.1406 Q214.6094,1052.1406 214.3594,1051.9688 Q214.1094,1051.7969 214,1051.3438 Q213.9531,1051.0313 213.7813,1050.8594 Q213.4688,1050.5313 212.9063,1050.3438 Q212.3438,1050.1406 211.7813,1050.1406 Q211.0781,1050.1406 210.4844,1050.4219 Q209.9063,1050.7031 209.4531,1051.3281 Q209,1051.9531 209,1052.8125 L209,1053.7344 Q209,1054.7656 209.8438,1055.4531 Q210.6875,1056.1406 212.1875,1056.1406 Q213.0781,1056.1406 213.7031,1055.9375 Q214.0625,1055.8281 214.4688,1055.4688 Q214.7344,1055.2656 214.875,1055.2031 Q215.0156,1055.1406 215.1875,1055.1406 Q215.5156,1055.1406 215.75,1055.4063 Q216,1055.6563 216,1056.0156 Q216,1056.3594 215.6563,1056.7656 Q215.1563,1057.3594 214.3594,1057.6875 Q213.3125,1058.1406 212.0313,1058.1406 Q210.5313,1058.1406 209.3281,1057.5469 Q208.3594,1057.0781 207.6719,1056.0625 Q207,1055.0469 207,1053.8438 L207,1052.75 Q207,1051.5 207.5938,1050.4063 Q208.2031,1049.3125 209.25,1048.7344 Q210.3125,1048.1406 211.5,1048.1406 Q212.2188,1048.1406 212.8438,1048.3906 Q213.4688,1048.6406 214,1049.1406 Z " fill="#000000"/><text fill="#000000" font-family="sans-serif" font-size="12" lengthAdjust="spacing" textLength="36" x="226" y="1057.5508">Spade</text><line style="stroke:#A80036;stroke-width:1.5;" x1="198" x2="264" y1="1068.6406" y2="1068.6406"/><line style="stroke:#A80036;stroke-width:1.5;" x1="198" x2="264" y1="1076.6406" y2="1076.6406"/><!--MD5=[c0ff7312a1fc0055a007a9765d4a1220]
class Diamond--><rect fill="#FEFECE" filter="url(#fg1pr81dnpd3p)" height="48" id="Diamond" style="stroke:#A80036;stroke-width:1.5;" width="83" x="300.5" y="1036.6406"/><ellipse cx="315.5" cy="1052.6406" fill="#ADD1B2" rx="11" ry="11" style="stroke:#A80036;stroke-width:1.0;"/><path d="M317.5,1049.1406 Q317.7031,1048.6406 317.9375,1048.3906 Q318.1719,1048.1406 318.4375,1048.1406 Q318.9063,1048.1406 319.2031,1048.4219 Q319.5,1048.7031 319.5,1049.3594 L319.5,1050.9219 Q319.5,1051.5781 319.2188,1051.8594 Q318.9375,1052.1406 318.5,1052.1406 Q318.1094,1052.1406 317.8594,1051.9688 Q317.6094,1051.7969 317.5,1051.3438 Q317.4531,1051.0313 317.2813,1050.8594 Q316.9688,1050.5313 316.4063,1050.3438 Q315.8438,1050.1406 315.2813,1050.1406 Q314.5781,1050.1406 313.9844,1050.4219 Q313.4063,1050.7031 312.9531,1051.3281 Q312.5,1051.9531 312.5,1052.8125 L312.5,1053.7344 Q312.5,1054.7656 313.3438,1055.4531 Q314.1875,1056.1406 315.6875,1056.1406 Q316.5781,1056.1406 317.2031,1055.9375 Q317.5625,1055.8281 317.9688,1055.4688 Q318.2344,1055.2656 318.375,1055.2031 Q318.5156,1055.1406 318.6875,1055.1406 Q319.0156,1055.1406 319.25,1055.4063 Q319.5,1055.6563 319.5,1056.0156 Q319.5,1056.3594 319.1563,1056.7656 Q318.6563,1057.3594 317.8594,1057.6875 Q316.8125,1058.1406 315.5313,1058.1406 Q314.0313,1058.1406 312.8281,1057.5469 Q311.8594,1057.0781 311.1719,1056.0625 Q310.5,1055.0469 310.5,1053.8438 L310.5,1052.75 Q310.5,1051.5 311.0938,1050.4063 Q311.7031,1049.3125 312.75,1048.7344 Q313.8125,1048.1406 315,1048.1406 Q315.7188,1048.1406 316.3438,1048.3906 Q316.9688,1048.6406 317.5,1049.1406 Z " fill="#000000"/><text fill="#000000" font-family="sans-serif" font-size="12" lengthAdjust="spacing" textLength="51" x="329.5" y="1057.5508">Diamond</text><line style="stroke:#A80036;stroke-width:1.5;" x1="301.5" x2="382.5" y1="1068.6406" y2="1068.6406"/><line style="stroke:#A80036;stroke-width:1.5;" x1="301.5" x2="382.5" y1="1076.6406" y2="1076.6406"/><!--MD5=[9bb5813e59df3e2529d11a5afaed7800]
class Heart--><rect fill="#FEFECE" filter="url(#fg1pr81dnpd3p)" height="48" id="Heart" style="stroke:#A80036;stroke-width:1.5;" width="62" x="419" y="1036.6406"/><ellipse cx="434" cy="1052.6406" fill="#ADD1B2" rx="11" ry="11" style="stroke:#A80036;stroke-width:1.0;"/><path d="M436,1049.1406 Q436.2031,1048.6406 436.4375,1048.3906 Q436.6719,1048.1406 436.9375,1048.1406 Q437.4063,1048.1406 437.7031,1048.4219 Q438,1048.7031 438,1049.3594 L438,1050.9219 Q438,1051.5781 437.7188,1051.8594 Q437.4375,1052.1406 437,1052.1406 Q436.6094,1052.1406 436.3594,1051.9688 Q436.1094,1051.7969 436,1051.3438 Q435.9531,1051.0313 435.7813,1050.8594 Q435.4688,1050.5313 434.9063,1050.3438 Q434.3438,1050.1406 433.7813,1050.1406 Q433.0781,1050.1406 432.4844,1050.4219 Q431.9063,1050.7031 431.4531,1051.3281 Q431,1051.9531 431,1052.8125 L431,1053.7344 Q431,1054.7656 431.8438,1055.4531 Q432.6875,1056.1406 434.1875,1056.1406 Q435.0781,1056.1406 435.7031,1055.9375 Q436.0625,1055.8281 436.4688,1055.4688 Q436.7344,1055.2656 436.875,1055.2031 Q437.0156,1055.1406 437.1875,1055.1406 Q437.5156,1055.1406 437.75,1055.4063 Q438,1055.6563 438,1056.0156 Q438,1056.3594 437.6563,1056.7656 Q437.1563,1057.3594 436.3594,1057.6875 Q435.3125,1058.1406 434.0313,1058.1406 Q432.5313,1058.1406 431.3281,1057.5469 Q430.3594,1057.0781 429.6719,1056.0625 Q429,1055.0469 429,1053.8438 L429,1052.75 Q429,1051.5 429.5938,1050.4063 Q430.2031,1049.3125 431.25,1048.7344 Q432.3125,1048.1406 433.5,1048.1406 Q434.2188,1048.1406 434.8438,1048.3906 Q435.4688,1048.6406 436,1049.1406 Z " fill="#000000"/><text fill="#000000" font-family="sans-serif" font-size="12" lengthAdjust="spacing" textLength="30" x="448" y="1057.5508">Heart</text><line style="stroke:#A80036;stroke-width:1.5;" x1="420" x2="480" y1="1068.6406" y2="1068.6406"/><line style="stroke:#A80036;stroke-width:1.5;" x1="420" x2="480" y1="1076.6406" y2="1076.6406"/><!--MD5=[d0e37a71a001f6053d69fd29d330fd4f]
link Klondike to Player--><path codeLine="52" d="M528.3293,82.3042 C528.3293,82.3042 457.56,120.9406 427.92,137.1206 " fill="none" id="Klondike-Player" style="stroke:#A80036;stroke-width:1.0;"/><polygon fill="#A80036" points="416.25,143.4906,426.0659,142.6856,420.6378,141.0933,422.2302,135.6652,416.25,143.4906" style="stroke:#A80036;stroke-width:1.0;"/><line style="stroke:#A80036;stroke-width:1.0;" x1="420.6378" x2="427.66" y1="141.0933" y2="137.2606"/><polygon fill="#A80036" points="538.86,76.5506,531.6768,75.9172,528.3293,82.3042,535.5125,82.9377,538.86,76.5506" style="stroke:#A80036;stroke-width:1.0;"/><!--MD5=[7e30d075c7e28ae86a5e6e748d3cd0b6]
link Player to Move--><path codeLine="53" d="M383,186.8206 C383,202.2306 383,223.0606 383,242.0906 " fill="none" id="Player-to-Move" style="stroke:#A80036;stroke-width:1.0;stroke-dasharray:7.0,7.0;"/><polygon fill="#A80036" points="383,247.4006,387,238.4006,383,242.4006,379,238.4006,383,247.4006" style="stroke:#A80036;stroke-width:1.0;"/><text fill="#000000" font-family="sans-serif" font-size="13" lengthAdjust="spacing" textLength="7" x="375.4641" y="236.808">n</text><!--MD5=[9c96613f90e0ef613e532dfde2be76fd]
link Move to Pile--><path codeLine="54" d="M405.867,349.0435 C405.867,349.0435 430.12,407.8206 440.62,433.2506 " fill="none" id="Move-Pile" style="stroke:#A80036;stroke-width:1.0;"/><polygon fill="#A80036" points="445.71,445.6006,445.9749,435.7553,443.8029,440.9786,438.5797,438.8066,445.71,445.6006" style="stroke:#A80036;stroke-width:1.0;"/><line style="stroke:#A80036;stroke-width:1.0;" x1="443.8029" x2="440.755" y1="440.9786" y2="433.5856"/><polygon fill="none" points="401.29,337.9506,399.8809,345.0227,405.867,349.0435,407.2761,341.9714,401.29,337.9506" style="stroke:#A80036;stroke-width:1.0;"/><text fill="#000000" font-family="sans-serif" font-size="13" lengthAdjust="spacing" textLength="7" x="435.2456" y="434.6698">2</text><!--MD5=[610353d3a72395b77e7f561f5987d448]
link Move to Card--><path codeLine="55" d="M376.9411,349.7923 C376.9411,349.7923 359.81,508.1206 353.2,569.2606 " fill="none" id="Move-Card" style="stroke:#A80036;stroke-width:1.0;"/><polygon fill="#A80036" points="351.77,582.5006,356.7167,573.9842,352.3089,577.5297,348.7633,573.1219,351.77,582.5006" style="stroke:#A80036;stroke-width:1.0;"/><line style="stroke:#A80036;stroke-width:1.0;" x1="352.3089" x2="353.17" y1="577.5297" y2="569.5806"/><polygon fill="none" points="378.22,337.8606,373.6033,343.4002,376.9411,349.7923,381.5578,344.2527,378.22,337.8606" style="stroke:#A80036;stroke-width:1.0;"/><text fill="#000000" font-family="sans-serif" font-size="13" lengthAdjust="spacing" textLength="29" x="321.2801" y="571.9233">1..13</text><!--MD5=[1571e4e0b7cdbae74b04c97a95677c54]
link Player to Goal--><path codeLine="57" d="M360.95,186.9706 C346.41,203.1406 327.61,225.6606 314,247.6406 C290.72,285.2406 271.2,332.7706 260.05,362.4406 " fill="none" id="Player-to-Goal" style="stroke:#A80036;stroke-width:1.0;stroke-dasharray:7.0,7.0;"/><polygon fill="#A80036" points="258.2,367.4006,265.0866,360.3597,259.9431,362.7143,257.5885,357.5708,258.2,367.4006" style="stroke:#A80036;stroke-width:1.0;"/><!--MD5=[cd0c3954e43c16945db51e1325833371]
link Goal to Foundation--><path codeLine="58" d="M242.6552,427.6748 C242.6552,427.6748 217.75,546.6606 208.55,590.5706 " fill="none" id="Goal-Foundation" style="stroke:#A80036;stroke-width:1.0;"/><polygon fill="#A80036" points="205.86,603.4406,211.6147,595.4479,206.8817,598.5461,203.7835,593.8131,205.86,603.4406" style="stroke:#A80036;stroke-width:1.0;"/><line style="stroke:#A80036;stroke-width:1.0;" x1="206.8817" x2="208.525" y1="598.5461" y2="590.7206"/><polygon fill="#A80036" points="245.12,415.9306,239.9729,420.9811,242.6552,427.6748,247.8023,422.6243,245.12,415.9306" style="stroke:#A80036;stroke-width:1.0;"/><text fill="#000000" font-family="sans-serif" font-size="13" lengthAdjust="spacing" textLength="60" x="240" y="489.1357">[52 Cards]</text><text fill="#000000" font-family="sans-serif" font-size="13" lengthAdjust="spacing" textLength="7" x="199.2085" y="592.7295">4</text><!--MD5=[92e69002428655c2f89f44ff64d31fb0]
link Foundation to Suit--><path codeLine="60" d="M204.21,651.9706 C209.48,690.2606 219.99,766.6406 226.16,811.5006 " fill="none" id="Foundation-to-Suit" style="stroke:#A80036;stroke-width:1.0;"/><polygon fill="#A80036" points="226.86,816.5406,229.5891,807.0774,226.1749,811.5878,221.6645,808.1736,226.86,816.5406" style="stroke:#A80036;stroke-width:1.0;"/><!--MD5=[b1c209f4aa9271d424a51362b3ae8562]
link Klondike to Tableau--><path codeLine="62" d="M630.4196,68.7089 C630.4196,68.7089 727,113.1206 727,161.6406 C727,161.6406 727,161.6406 727,484.6406 C727,520.6606 727,561.8106 727,590.5106 " fill="none" id="Klondike-Tableau" style="stroke:#A80036;stroke-width:1.0;"/><polygon fill="#A80036" points="727,603.5206,731,594.5206,727,598.5206,723,594.5206,727,603.5206" style="stroke:#A80036;stroke-width:1.0;"/><line style="stroke:#A80036;stroke-width:1.0;" x1="727" x2="727" y1="598.5206" y2="590.5206"/><polygon fill="#A80036" points="619.05,64.8706,623.4554,70.5796,630.4196,68.7089,626.0142,62.9999,619.05,64.8706" style="stroke:#A80036;stroke-width:1.0;"/><text fill="#000000" font-family="sans-serif" font-size="13" lengthAdjust="spacing" textLength="7" x="719.1031" y="592.83">7</text><!--MD5=[d3883b6e5521bc1a4fbc628d87a10151]
link Klondike to Stock--><path codeLine="63" d="M579,90.0206 C579,90.0206 579,138.1306 579,161.6406 C579,161.6406 579,161.6406 579,392.6406 C579,462.9906 546.23,539.1506 522.63,584.8606 " fill="none" id="Klondike-Stock" style="stroke:#A80036;stroke-width:1.0;"/><polygon fill="#A80036" points="516.56,596.3606,524.3023,590.2732,518.8967,591.9402,517.2297,586.5346,516.56,596.3606" style="stroke:#A80036;stroke-width:1.0;"/><line style="stroke:#A80036;stroke-width:1.0;" x1="518.8967" x2="522.63" y1="591.9402" y2="584.8656"/><polygon fill="#A80036" points="579,78.0206,575,84.0206,579,90.0206,583,84.0206,579,78.0206" style="stroke:#A80036;stroke-width:1.0;"/><!--MD5=[fc362caf7996dc1cff37dff6c24ba86b]
link Klondike to Waste--><path codeLine="64" d="M617.6255,86.3529 C617.6255,86.3529 656,132.8606 656,161.6406 C656,161.6406 656,161.6406 656,484.6406 C656,521.7406 644.31,562.6806 634.25,591.0206 " fill="none" id="Klondike-Waste" style="stroke:#A80036;stroke-width:1.0;"/><polygon fill="#A80036" points="629.65,603.4806,636.5201,596.4236,631.3821,598.7902,629.0154,593.6522,629.65,603.4806" style="stroke:#A80036;stroke-width:1.0;"/><line style="stroke:#A80036;stroke-width:1.0;" x1="631.3821" x2="634.155" y1="598.7902" y2="591.2856"/><polygon fill="#A80036" points="608.99,78.0206,610.5303,85.0653,617.6255,86.3529,616.0852,79.3083,608.99,78.0206" style="stroke:#A80036;stroke-width:1.0;"/><!--MD5=[6a4057357f913d5657fa9fe87f0edd29]
link Klondike to Foundation--><path codeLine="65" d="M526.8916,56.4182 C526.8916,56.4182 140,83.0706 140,161.6406 C140,161.6406 140,161.6406 140,484.6406 C140,523.8506 159.87,564.5606 176.93,592.2906 " fill="none" id="Klondike-Foundation" style="stroke:#A80036;stroke-width:1.0;"/><polygon fill="#A80036" points="184.01,603.3306,182.5208,593.595,181.3118,599.1212,175.7856,597.9122,184.01,603.3306" style="stroke:#A80036;stroke-width:1.0;"/><line style="stroke:#A80036;stroke-width:1.0;" x1="181.3118" x2="177" y1="599.1212" y2="592.3856"/><polygon fill="#A80036" points="538.88,55.8906,532.71,52.1583,526.8916,56.4182,533.0616,60.1505,538.88,55.8906" style="stroke:#A80036;stroke-width:1.0;"/><text fill="#000000" font-family="sans-serif" font-size="13" lengthAdjust="spacing" textLength="7" x="171.7594" y="592.5913">4</text><!--MD5=[a3b0419bdb877a6921c502f7ab916277]
reverse link Pile to Stock--><path codeLine="68" d="M476.21,541.4706 C481.22,560.2006 486.6,580.3006 490.87,596.2706 " fill="none" id="Pile-backto-Stock" style="stroke:#A80036;stroke-width:1.0;"/><polygon fill="none" points="469.39,543.0806,470.98,521.9506,482.92,539.4606,469.39,543.0806" style="stroke:#A80036;stroke-width:1.0;"/><!--MD5=[0cc7312144b7b0e8e85651666602557e]
reverse link Pile to Waste--><path codeLine="69" d="M517.96,535.5106 C543.92,558.6906 573.36,584.9906 593.93,603.3606 " fill="none" id="Pile-backto-Waste" style="stroke:#A80036;stroke-width:1.0;"/><polygon fill="none" points="513.03,540.4906,502.78,521.9506,522.36,530.0506,513.03,540.4906" style="stroke:#A80036;stroke-width:1.0;"/><!--MD5=[6d28caff8698f66462643c822ec8500b]
reverse link Pile to Foundation--><path codeLine="70" d="M377.82,523.0706 C342.45,540.2206 301.11,561.3406 265,582.6406 C254.2,589.0106 242.8,596.5606 232.66,603.5906 " fill="none" id="Pile-backto-Foundation" style="stroke:#A80036;stroke-width:1.0;"/><polygon fill="none" points="375.19,516.5706,396.25,514.2306,381.25,529.1906,375.19,516.5706" style="stroke:#A80036;stroke-width:1.0;"/><!--MD5=[b0173922ba304e58e67aa3279a656791]
reverse link Pile to Tableau--><path codeLine="71" d="M544.33,518.2606 C583.83,535.5106 631,558.0406 671,582.6406 C681.01,588.7906 691.3,596.4406 700.28,603.6206 " fill="none" id="Pile-backto-Tableau" style="stroke:#A80036;stroke-width:1.0;"/><polygon fill="none" points="541.53,524.6806,525.91,510.3606,547.05,511.8106,541.53,524.6806" style="stroke:#A80036;stroke-width:1.0;"/><!--MD5=[1686cafc001cbb054836a454f368ddc9]
link Pile to Card--><path codeLine="72" d="M431.3068,531.7104 C431.3068,531.7104 420.88,546.4406 416,552.6406 C410.86,559.1606 405.27,565.7906 399.57,572.2706 " fill="none" id="Pile-Card" style="stroke:#A80036;stroke-width:1.0;"/><polygon fill="#A80036" points="390.56,582.3006,399.5496,578.2773,393.9009,578.5806,393.5976,572.9319,390.56,582.3006" style="stroke:#A80036;stroke-width:1.0;"/><line style="stroke:#A80036;stroke-width:1.0;" x1="393.9009" x2="399.245" y1="578.5806" y2="572.6306"/><polygon fill="#A80036" points="438.03,521.7706,431.3552,524.4994,431.3068,531.7104,437.9817,528.9816,438.03,521.7706" style="stroke:#A80036;stroke-width:1.0;"/><text fill="#000000" font-family="sans-serif" font-size="13" lengthAdjust="spacing" textLength="29" x="366.0098" y="571.6927">0..52</text><!--MD5=[988cd1dee8ea1cf2960e884b4b0ffb8b]
reverse link Suit to Club--><path codeLine="73" d="M208.45,897.2006 C188.13,940.9306 159.16,1003.3106 143.7,1036.6106 " fill="none" id="Suit-backto-Club" style="stroke:#A80036;stroke-width:1.0;"/><polygon fill="none" points="202.19,894.0606,216.96,878.8706,214.88,899.9606,202.19,894.0606" style="stroke:#A80036;stroke-width:1.0;"/><!--MD5=[87a89b153beae7d393e9829af90018d5]
reverse link Suit to Spade--><path codeLine="74" d="M231,898.9706 C231,942.6106 231,1003.7606 231,1036.6106 " fill="none" id="Suit-backto-Spade" style="stroke:#A80036;stroke-width:1.0;"/><polygon fill="none" points="224,898.8706,231,878.8706,238,898.8706,224,898.8706" style="stroke:#A80036;stroke-width:1.0;"/><!--MD5=[1f6eb2bb0d8a343fbbac7006c87fddfb]
reverse link Suit to Diamond--><path codeLine="75" d="M256.23,896.6106 C279.26,940.3706 312.29,1003.1606 329.88,1036.6106 " fill="none" id="Suit-backto-Diamond" style="stroke:#A80036;stroke-width:1.0;"/><polygon fill="none" points="250.02,899.8306,246.9,878.8706,262.41,893.3106,250.02,899.8306" style="stroke:#A80036;stroke-width:1.0;"/><!--MD5=[4dce8a7c926835c26b617333aef55021]
reverse link Suit to Heart--><path codeLine="76" d="M253.12,896.6606 C264.67,918.2506 280.32,943.0106 299,961.6406 C336.4,998.9406 357.19,993.1306 401,1022.6406 C407.45,1026.9906 414.21,1031.8606 420.57,1036.6206 " fill="none" id="Suit-backto-Heart" style="stroke:#A80036;stroke-width:1.0;"/><polygon fill="none" points="246.83,899.7406,244.05,878.7306,259.33,893.4206,246.83,899.7406" style="stroke:#A80036;stroke-width:1.0;"/><!--MD5=[01ae9f68263e6bc4031c0aece6e20929]
link Card to Suit--><path codeLine="77" d="M317.8911,683.3532 C317.8911,683.3532 271.51,770.5206 253.32,804.6906 " fill="none" id="Card-Suit" style="stroke:#A80036;stroke-width:1.0;"/><polygon fill="#A80036" points="246.99,816.5906,254.75,810.5258,249.3395,812.177,247.6883,806.7666,246.99,816.5906" style="stroke:#A80036;stroke-width:1.0;"/><line style="stroke:#A80036;stroke-width:1.0;" x1="249.3395" x2="253.1" y1="812.177" y2="805.1106"/><polygon fill="#A80036" points="323.53,672.7606,317.1797,676.1773,317.8911,683.3532,324.2414,679.9365,323.53,672.7606" style="stroke:#A80036;stroke-width:1.0;"/><!--MD5=[dab4fdc688f775bd2cd14c67a04f3f7b]
link Card to Rank--><path codeLine="78" d="M347,684.7606 C347,684.7606 347,708.4206 347,720.4506 " fill="none" id="Card-Rank" style="stroke:#A80036;stroke-width:1.0;"/><polygon fill="#A80036" points="347,733.5906,351,724.5906,347,728.5906,343,724.5906,347,733.5906" style="stroke:#A80036;stroke-width:1.0;"/><line style="stroke:#A80036;stroke-width:1.0;" x1="347" x2="347" y1="728.5906" y2="720.5906"/><polygon fill="#A80036" points="347,672.7606,343,678.7606,347,684.7606,351,678.7606,347,672.7606" style="stroke:#A80036;stroke-width:1.0;"/><!--MD5=[177767f5f369ddd7a2766db2fec86924]
link Suit to Color--><path codeLine="79" d="M195.2491,887.7236 C195.2491,887.7236 112.25,978.4606 77.94,1015.9706 " fill="none" id="Suit-Color" style="stroke:#A80036;stroke-width:1.0;"/><polygon fill="#A80036" points="69.12,1025.6206,78.1438,1021.6745,72.4926,1021.9294,72.2378,1016.2783,69.12,1025.6206" style="stroke:#A80036;stroke-width:1.0;"/><line style="stroke:#A80036;stroke-width:1.0;" x1="72.4926" x2="77.89" y1="1021.9294" y2="1016.0306"/><polygon fill="#A80036" points="203.35,878.8706,196.3485,880.5968,195.2491,887.7236,202.2505,885.9974,203.35,878.8706" style="stroke:#A80036;stroke-width:1.0;"/><!--MD5=[46b5cf36e7f2a84dc7b54e0bf49e7a07]
@startuml
title Klondike

class Stock{
{static} maxCards = 52 : int
}
class Foundation{
'{static} maxCards = 13 : int
}
class Tableau{
'{static} maxCards = 28 : int
}
class Waste{
'{static} maxCards = 24 : int
}
class Card{
-rank : Rank
-suit : Suit
-IsTurnedUp : boolean
}
abstract Pile{
- cardList : List
# validMove() : boolean
}
abstract Suit{
- color :Color
}
class Move{
-origin : Pile
-cardList : Card
-destination : Pile
}
enum Color{
RED
BLACK
}
enum Rank{
A
2
3
4
5
6
7
8
9
1
J
Q
K
}

Klondike *- -> Player
Player ..> "n" Move
Move o- -> "2" Pile
Move o- -> "1..13" Card

Player ..> Goal
Goal *- -> "4" Foundation : [52 Cards]

Foundation - -> Suit

Klondike *- -> "7" Tableau
Klondike *- -> Stock
Klondike *- -> Waste
Klondike *- -> "4" Foundation


Pile <|- - Stock
Pile <|- -Waste
Pile <|- -Foundation
Pile <|- -Tableau
Pile *- -> "0..52" Card
Suit <|- - Club
Suit <|- - Spade
Suit <|- - Diamond
Suit <|- -Heart
Card *- -> Suit
Card *- -> Rank
Suit *- -> Color

@enduml

@startuml
title Klondike

class Stock{
{static} maxCards = 52 : int
}
class Foundation{
}
class Tableau{
}
class Waste{
}
class Card{
-rank : Rank
-suit : Suit
-IsTurnedUp : boolean
}
abstract Pile{
- cardList : List
# validMove() : boolean
}
abstract Suit{
- color :Color
}
class Move{
-origin : Pile
-cardList : Card
-destination : Pile
}
enum Color{
RED
BLACK
}
enum Rank{
A
2
3
4
5
6
7
8
9
1
J
Q
K
}

Klondike *- -> Player
Player ..> "n" Move
Move o- -> "2" Pile
Move o- -> "1..13" Card

Player ..> Goal
Goal *- -> "4" Foundation : [52 Cards]

Foundation - -> Suit

Klondike *- -> "7" Tableau
Klondike *- -> Stock
Klondike *- -> Waste
Klondike *- -> "4" Foundation


Pile <|- - Stock
Pile <|- -Waste
Pile <|- -Foundation
Pile <|- -Tableau
Pile *- -> "0..52" Card
Suit <|- - Club
Suit <|- - Spade
Suit <|- - Diamond
Suit <|- -Heart
Card *- -> Suit
Card *- -> Rank
Suit *- -> Color

@enduml

PlantUML version 1.2022.1(Tue Feb 01 19:19:58 CET 2022)
(GPL source distribution)
Java Runtime: OpenJDK Runtime Environment
JVM: OpenJDK 64-Bit Server VM
Default Encoding: Cp1252
Language: es
Country: ES
--></g></svg>