<?xml version="1.0" encoding="UTF-8" standalone="no"?><svg xmlns="http://www.w3.org/2000/svg" xmlns:xlink="http://www.w3.org/1999/xlink" contentScriptType="application/ecmascript" contentStyleType="text/css" height="767px" preserveAspectRatio="none" style="width:687px;height:767px;background:#FFFFFF;" version="1.1" viewBox="0 0 687 767" width="687px" zoomAndPan="magnify"><defs><filter height="300%" id="f5wly7qe3hot4" width="300%" x="-1" y="-1"><feGaussianBlur result="blurOut" stdDeviation="2.0"/><feColorMatrix in="blurOut" result="blurOut2" type="matrix" values="0 0 0 0 0 0 0 0 0 0 0 0 0 0 0 0 0 0 .4 0"/><feOffset dx="4.0" dy="4.0" in="blurOut2" result="blurOut3"/><feBlend in="SourceGraphic" in2="blurOut3" mode="normal"/></filter></defs><g><text fill="#000000" font-family="sans-serif" font-size="18" lengthAdjust="spacing" textLength="77" x="298.675" y="18.6855">Connect4</text><!--MD5=[18eee71c88ab61f27581b8cbdd3ef5ee]
class Color--><rect codeLine="3" fill="#FEFECE" filter="url(#f5wly7qe3hot4)" height="75.6719" id="Color" style="stroke:#A80036;stroke-width:1.5;" width="62" x="403.35" y="677.6406"/><ellipse cx="418.35" cy="693.6406" fill="#EB937F" rx="11" ry="11" style="stroke:#A80036;stroke-width:1.0;"/><path d="M416.85,694.6406 L416.85,696.6406 L420.85,696.6406 L420.85,695.6406 L420.85,695.1563 L421.475,694.6406 L421.85,694.6406 L422.225,694.6406 L422.85,695.1563 L422.85,695.6406 L422.85,698.6406 L414.85,698.6406 L414.3656,698.6406 L413.85,698.0156 L413.85,697.6406 L413.85,697.2656 L414.3656,696.6406 L414.85,696.6406 L414.85,696.6406 L414.85,690.6406 L414.85,690.6406 L414.3656,690.6406 L413.85,690.0156 L413.85,689.6406 L413.85,689.2656 L414.3656,688.6406 L414.85,688.6406 L422.85,688.6406 L422.85,691.6406 L422.85,692.125 L422.225,692.6406 L421.85,692.6406 L421.475,692.6406 L420.85,692.125 L420.85,691.6406 L420.85,690.6406 L416.85,690.6406 L416.85,692.6406 L417.85,692.6406 L417.85,692.1563 L417.85,692.1563 L418.475,691.6406 L418.85,691.6406 L419.225,691.6406 L419.85,692.1563 L419.85,692.6406 L419.85,694.6406 L419.85,695.125 L419.225,695.6406 L419.225,695.6406 L418.85,695.6406 L418.475,695.6406 L417.85,695.125 L417.85,695.125 L417.85,694.6406 L416.85,694.6406 Z " fill="#000000"/><text fill="#000000" font-family="sans-serif" font-size="12" lengthAdjust="spacing" textLength="30" x="432.35" y="698.5508">Color</text><line style="stroke:#A80036;stroke-width:1.5;" x1="404.35" x2="464.35" y1="709.6406" y2="709.6406"/><text fill="#000000" font-family="sans-serif" font-size="11" lengthAdjust="spacing" textLength="20" x="409.35" y="725.0596">RED</text><text fill="#000000" font-family="sans-serif" font-size="11" lengthAdjust="spacing" textLength="44" x="409.35" y="738.8955">YELLOW</text><line style="stroke:#A80036;stroke-width:1.5;" x1="404.35" x2="464.35" y1="745.3125" y2="745.3125"/><!--MD5=[10b1f240992e2c34b6908209bf85bfd2]
class Connect4--><rect fill="#FEFECE" filter="url(#f5wly7qe3hot4)" height="48" id="Connect4" style="stroke:#A80036;stroke-width:1.5;" width="85" x="378.85" y="29.6406"/><ellipse cx="393.85" cy="45.6406" fill="#ADD1B2" rx="11" ry="11" style="stroke:#A80036;stroke-width:1.0;"/><path d="M395.85,42.1406 Q396.0531,41.6406 396.2875,41.3906 Q396.5219,41.1406 396.7875,41.1406 Q397.2562,41.1406 397.5531,41.4219 Q397.85,41.7031 397.85,42.3594 L397.85,43.9219 Q397.85,44.5781 397.5687,44.8594 Q397.2875,45.1406 396.85,45.1406 Q396.4594,45.1406 396.2094,44.9688 Q395.9594,44.7969 395.85,44.3438 Q395.8031,44.0313 395.6312,43.8594 Q395.3187,43.5313 394.7562,43.3438 Q394.1937,43.1406 393.6312,43.1406 Q392.9281,43.1406 392.3344,43.4219 Q391.7562,43.7031 391.3031,44.3281 Q390.85,44.9531 390.85,45.8125 L390.85,46.7344 Q390.85,47.7656 391.6937,48.4531 Q392.5375,49.1406 394.0375,49.1406 Q394.9281,49.1406 395.5531,48.9375 Q395.9125,48.8281 396.3187,48.4688 Q396.5844,48.2656 396.725,48.2031 Q396.8656,48.1406 397.0375,48.1406 Q397.3656,48.1406 397.6,48.4063 Q397.85,48.6563 397.85,49.0156 Q397.85,49.3594 397.5062,49.7656 Q397.0062,50.3594 396.2094,50.6875 Q395.1625,51.1406 393.8812,51.1406 Q392.3812,51.1406 391.1781,50.5469 Q390.2094,50.0781 389.5219,49.0625 Q388.85,48.0469 388.85,46.8438 L388.85,45.75 Q388.85,44.5 389.4437,43.4063 Q390.0531,42.3125 391.1,41.7344 Q392.1625,41.1406 393.35,41.1406 Q394.0687,41.1406 394.6937,41.3906 Q395.3187,41.6406 395.85,42.1406 Z " fill="#000000"/><text fill="#000000" font-family="sans-serif" font-size="12" lengthAdjust="spacing" textLength="53" x="407.85" y="50.5508">Connect4</text><line style="stroke:#A80036;stroke-width:1.5;" x1="379.85" x2="462.85" y1="61.6406" y2="61.6406"/><line style="stroke:#A80036;stroke-width:1.5;" x1="379.85" x2="462.85" y1="69.6406" y2="69.6406"/><!--MD5=[dd91eae41778c45e12552e5329e240e8]
class Turn--><rect fill="#FEFECE" filter="url(#f5wly7qe3hot4)" height="48" id="Turn" style="stroke:#A80036;stroke-width:1.5;" width="57" x="310.85" y="137.6406"/><ellipse cx="325.85" cy="153.6406" fill="#ADD1B2" rx="11" ry="11" style="stroke:#A80036;stroke-width:1.0;"/><path d="M327.85,150.1406 Q328.0531,149.6406 328.2875,149.3906 Q328.5219,149.1406 328.7875,149.1406 Q329.2563,149.1406 329.5531,149.4219 Q329.85,149.7031 329.85,150.3594 L329.85,151.9219 Q329.85,152.5781 329.5688,152.8594 Q329.2875,153.1406 328.85,153.1406 Q328.4594,153.1406 328.2094,152.9688 Q327.9594,152.7969 327.85,152.3438 Q327.8031,152.0313 327.6313,151.8594 Q327.3188,151.5313 326.7563,151.3438 Q326.1938,151.1406 325.6313,151.1406 Q324.9281,151.1406 324.3344,151.4219 Q323.7563,151.7031 323.3031,152.3281 Q322.85,152.9531 322.85,153.8125 L322.85,154.7344 Q322.85,155.7656 323.6938,156.4531 Q324.5375,157.1406 326.0375,157.1406 Q326.9281,157.1406 327.5531,156.9375 Q327.9125,156.8281 328.3188,156.4688 Q328.5844,156.2656 328.725,156.2031 Q328.8656,156.1406 329.0375,156.1406 Q329.3656,156.1406 329.6,156.4063 Q329.85,156.6563 329.85,157.0156 Q329.85,157.3594 329.5063,157.7656 Q329.0063,158.3594 328.2094,158.6875 Q327.1625,159.1406 325.8813,159.1406 Q324.3813,159.1406 323.1781,158.5469 Q322.2094,158.0781 321.5219,157.0625 Q320.85,156.0469 320.85,154.8438 L320.85,153.75 Q320.85,152.5 321.4438,151.4063 Q322.0531,150.3125 323.1,149.7344 Q324.1625,149.1406 325.35,149.1406 Q326.0688,149.1406 326.6938,149.3906 Q327.3188,149.6406 327.85,150.1406 Z " fill="#000000"/><text fill="#000000" font-family="sans-serif" font-size="12" lengthAdjust="spacing" textLength="25" x="339.85" y="158.5508">Turn</text><line style="stroke:#A80036;stroke-width:1.5;" x1="311.85" x2="366.85" y1="169.6406" y2="169.6406"/><line style="stroke:#A80036;stroke-width:1.5;" x1="311.85" x2="366.85" y1="177.6406" y2="177.6406"/><!--MD5=[9563755d011c5cec7ec66dc53565a59e]
class Board--><rect fill="#FEFECE" filter="url(#f5wly7qe3hot4)" height="48" id="Board" style="stroke:#A80036;stroke-width:1.5;" width="65" x="459.85" y="353.6406"/><ellipse cx="474.85" cy="369.6406" fill="#ADD1B2" rx="11" ry="11" style="stroke:#A80036;stroke-width:1.0;"/><path d="M476.85,366.1406 Q477.0531,365.6406 477.2875,365.3906 Q477.5219,365.1406 477.7875,365.1406 Q478.2562,365.1406 478.5531,365.4219 Q478.85,365.7031 478.85,366.3594 L478.85,367.9219 Q478.85,368.5781 478.5687,368.8594 Q478.2875,369.1406 477.85,369.1406 Q477.4594,369.1406 477.2094,368.9688 Q476.9594,368.7969 476.85,368.3438 Q476.8031,368.0313 476.6312,367.8594 Q476.3187,367.5313 475.7562,367.3438 Q475.1937,367.1406 474.6312,367.1406 Q473.9281,367.1406 473.3344,367.4219 Q472.7562,367.7031 472.3031,368.3281 Q471.85,368.9531 471.85,369.8125 L471.85,370.7344 Q471.85,371.7656 472.6937,372.4531 Q473.5375,373.1406 475.0375,373.1406 Q475.9281,373.1406 476.5531,372.9375 Q476.9125,372.8281 477.3187,372.4688 Q477.5844,372.2656 477.725,372.2031 Q477.8656,372.1406 478.0375,372.1406 Q478.3656,372.1406 478.6,372.4063 Q478.85,372.6563 478.85,373.0156 Q478.85,373.3594 478.5062,373.7656 Q478.0062,374.3594 477.2094,374.6875 Q476.1625,375.1406 474.8812,375.1406 Q473.3812,375.1406 472.1781,374.5469 Q471.2094,374.0781 470.5219,373.0625 Q469.85,372.0469 469.85,370.8438 L469.85,369.75 Q469.85,368.5 470.4437,367.4063 Q471.0531,366.3125 472.1,365.7344 Q473.1625,365.1406 474.35,365.1406 Q475.0687,365.1406 475.6937,365.3906 Q476.3187,365.6406 476.85,366.1406 Z " fill="#000000"/><text fill="#000000" font-family="sans-serif" font-size="12" lengthAdjust="spacing" textLength="33" x="488.85" y="374.5508">Board</text><line style="stroke:#A80036;stroke-width:1.5;" x1="460.85" x2="523.85" y1="385.6406" y2="385.6406"/><line style="stroke:#A80036;stroke-width:1.5;" x1="460.85" x2="523.85" y1="393.6406" y2="393.6406"/><!--MD5=[2cb47ba637a0d19583e6199456f6ad0b]
class Player--><rect fill="#FEFECE" filter="url(#f5wly7qe3hot4)" height="48" id="Player" style="stroke:#A80036;stroke-width:1.5;" width="66" x="327.35" y="245.6406"/><ellipse cx="342.35" cy="261.6406" fill="#ADD1B2" rx="11" ry="11" style="stroke:#A80036;stroke-width:1.0;"/><path d="M344.35,258.1406 Q344.5531,257.6406 344.7875,257.3906 Q345.0219,257.1406 345.2875,257.1406 Q345.7562,257.1406 346.0531,257.4219 Q346.35,257.7031 346.35,258.3594 L346.35,259.9219 Q346.35,260.5781 346.0687,260.8594 Q345.7875,261.1406 345.35,261.1406 Q344.9594,261.1406 344.7094,260.9688 Q344.4594,260.7969 344.35,260.3438 Q344.3031,260.0313 344.1312,259.8594 Q343.8187,259.5313 343.2562,259.3438 Q342.6937,259.1406 342.1312,259.1406 Q341.4281,259.1406 340.8344,259.4219 Q340.2562,259.7031 339.8031,260.3281 Q339.35,260.9531 339.35,261.8125 L339.35,262.7344 Q339.35,263.7656 340.1937,264.4531 Q341.0375,265.1406 342.5375,265.1406 Q343.4281,265.1406 344.0531,264.9375 Q344.4125,264.8281 344.8187,264.4688 Q345.0844,264.2656 345.225,264.2031 Q345.3656,264.1406 345.5375,264.1406 Q345.8656,264.1406 346.1,264.4063 Q346.35,264.6563 346.35,265.0156 Q346.35,265.3594 346.0062,265.7656 Q345.5062,266.3594 344.7094,266.6875 Q343.6625,267.1406 342.3812,267.1406 Q340.8812,267.1406 339.6781,266.5469 Q338.7094,266.0781 338.0219,265.0625 Q337.35,264.0469 337.35,262.8438 L337.35,261.75 Q337.35,260.5 337.9437,259.4063 Q338.5531,258.3125 339.6,257.7344 Q340.6625,257.1406 341.85,257.1406 Q342.5687,257.1406 343.1937,257.3906 Q343.8187,257.6406 344.35,258.1406 Z " fill="#000000"/><text fill="#000000" font-family="sans-serif" font-size="12" lengthAdjust="spacing" textLength="34" x="356.35" y="266.5508">Player</text><line style="stroke:#A80036;stroke-width:1.5;" x1="328.35" x2="392.35" y1="277.6406" y2="277.6406"/><line style="stroke:#A80036;stroke-width:1.5;" x1="328.35" x2="392.35" y1="285.6406" y2="285.6406"/><!--MD5=[f04eddc513368489aea0358c3d51bf6a]
class Insertion--><rect fill="#FEFECE" filter="url(#f5wly7qe3hot4)" height="48" id="Insertion" style="stroke:#A80036;stroke-width:1.5;" width="80" x="452.35" y="461.6406"/><ellipse cx="467.35" cy="477.6406" fill="#ADD1B2" rx="11" ry="11" style="stroke:#A80036;stroke-width:1.0;"/><path d="M469.35,474.1406 Q469.5531,473.6406 469.7875,473.3906 Q470.0219,473.1406 470.2875,473.1406 Q470.7562,473.1406 471.0531,473.4219 Q471.35,473.7031 471.35,474.3594 L471.35,475.9219 Q471.35,476.5781 471.0687,476.8594 Q470.7875,477.1406 470.35,477.1406 Q469.9594,477.1406 469.7094,476.9688 Q469.4594,476.7969 469.35,476.3438 Q469.3031,476.0313 469.1312,475.8594 Q468.8187,475.5313 468.2562,475.3438 Q467.6937,475.1406 467.1312,475.1406 Q466.4281,475.1406 465.8344,475.4219 Q465.2562,475.7031 464.8031,476.3281 Q464.35,476.9531 464.35,477.8125 L464.35,478.7344 Q464.35,479.7656 465.1937,480.4531 Q466.0375,481.1406 467.5375,481.1406 Q468.4281,481.1406 469.0531,480.9375 Q469.4125,480.8281 469.8187,480.4688 Q470.0844,480.2656 470.225,480.2031 Q470.3656,480.1406 470.5375,480.1406 Q470.8656,480.1406 471.1,480.4063 Q471.35,480.6563 471.35,481.0156 Q471.35,481.3594 471.0062,481.7656 Q470.5062,482.3594 469.7094,482.6875 Q468.6625,483.1406 467.3812,483.1406 Q465.8812,483.1406 464.6781,482.5469 Q463.7094,482.0781 463.0219,481.0625 Q462.35,480.0469 462.35,478.8438 L462.35,477.75 Q462.35,476.5 462.9437,475.4063 Q463.5531,474.3125 464.6,473.7344 Q465.6625,473.1406 466.85,473.1406 Q467.5687,473.1406 468.1937,473.3906 Q468.8187,473.6406 469.35,474.1406 Z " fill="#000000"/><text fill="#000000" font-family="sans-serif" font-size="12" lengthAdjust="spacing" textLength="48" x="481.35" y="482.5508">Insertion</text><line style="stroke:#A80036;stroke-width:1.5;" x1="453.35" x2="531.35" y1="493.6406" y2="493.6406"/><line style="stroke:#A80036;stroke-width:1.5;" x1="453.35" x2="531.35" y1="501.6406" y2="501.6406"/><!--MD5=[0992d3fdc9d3d7c02b735131bb70871d]
class Goal--><rect fill="#FEFECE" filter="url(#f5wly7qe3hot4)" height="48" id="Goal" style="stroke:#A80036;stroke-width:1.5;" width="58" x="331.35" y="353.6406"/><ellipse cx="346.35" cy="369.6406" fill="#ADD1B2" rx="11" ry="11" style="stroke:#A80036;stroke-width:1.0;"/><path d="M348.35,366.1406 Q348.5531,365.6406 348.7875,365.3906 Q349.0219,365.1406 349.2875,365.1406 Q349.7562,365.1406 350.0531,365.4219 Q350.35,365.7031 350.35,366.3594 L350.35,367.9219 Q350.35,368.5781 350.0687,368.8594 Q349.7875,369.1406 349.35,369.1406 Q348.9594,369.1406 348.7094,368.9688 Q348.4594,368.7969 348.35,368.3438 Q348.3031,368.0313 348.1312,367.8594 Q347.8187,367.5313 347.2562,367.3438 Q346.6937,367.1406 346.1312,367.1406 Q345.4281,367.1406 344.8344,367.4219 Q344.2562,367.7031 343.8031,368.3281 Q343.35,368.9531 343.35,369.8125 L343.35,370.7344 Q343.35,371.7656 344.1937,372.4531 Q345.0375,373.1406 346.5375,373.1406 Q347.4281,373.1406 348.0531,372.9375 Q348.4125,372.8281 348.8187,372.4688 Q349.0844,372.2656 349.225,372.2031 Q349.3656,372.1406 349.5375,372.1406 Q349.8656,372.1406 350.1,372.4063 Q350.35,372.6563 350.35,373.0156 Q350.35,373.3594 350.0062,373.7656 Q349.5062,374.3594 348.7094,374.6875 Q347.6625,375.1406 346.3812,375.1406 Q344.8812,375.1406 343.6781,374.5469 Q342.7094,374.0781 342.0219,373.0625 Q341.35,372.0469 341.35,370.8438 L341.35,369.75 Q341.35,368.5 341.9437,367.4063 Q342.5531,366.3125 343.6,365.7344 Q344.6625,365.1406 345.85,365.1406 Q346.5687,365.1406 347.1937,365.3906 Q347.8187,365.6406 348.35,366.1406 Z " fill="#000000"/><text fill="#000000" font-family="sans-serif" font-size="12" lengthAdjust="spacing" textLength="26" x="360.35" y="374.5508">Goal</text><line style="stroke:#A80036;stroke-width:1.5;" x1="332.35" x2="388.35" y1="385.6406" y2="385.6406"/><line style="stroke:#A80036;stroke-width:1.5;" x1="332.35" x2="388.35" y1="393.6406" y2="393.6406"/><!--MD5=[d8c8cfd5ca149094f5b67f9f607a5ec7]
class Token--><rect fill="#FEFECE" filter="url(#f5wly7qe3hot4)" height="48" id="Token" style="stroke:#A80036;stroke-width:1.5;" width="66" x="401.35" y="569.6406"/><ellipse cx="416.35" cy="585.6406" fill="#ADD1B2" rx="11" ry="11" style="stroke:#A80036;stroke-width:1.0;"/><path d="M418.35,582.1406 Q418.5531,581.6406 418.7875,581.3906 Q419.0219,581.1406 419.2875,581.1406 Q419.7562,581.1406 420.0531,581.4219 Q420.35,581.7031 420.35,582.3594 L420.35,583.9219 Q420.35,584.5781 420.0687,584.8594 Q419.7875,585.1406 419.35,585.1406 Q418.9594,585.1406 418.7094,584.9688 Q418.4594,584.7969 418.35,584.3438 Q418.3031,584.0313 418.1312,583.8594 Q417.8187,583.5313 417.2562,583.3438 Q416.6937,583.1406 416.1312,583.1406 Q415.4281,583.1406 414.8344,583.4219 Q414.2562,583.7031 413.8031,584.3281 Q413.35,584.9531 413.35,585.8125 L413.35,586.7344 Q413.35,587.7656 414.1937,588.4531 Q415.0375,589.1406 416.5375,589.1406 Q417.4281,589.1406 418.0531,588.9375 Q418.4125,588.8281 418.8187,588.4688 Q419.0844,588.2656 419.225,588.2031 Q419.3656,588.1406 419.5375,588.1406 Q419.8656,588.1406 420.1,588.4063 Q420.35,588.6563 420.35,589.0156 Q420.35,589.3594 420.0062,589.7656 Q419.5062,590.3594 418.7094,590.6875 Q417.6625,591.1406 416.3812,591.1406 Q414.8812,591.1406 413.6781,590.5469 Q412.7094,590.0781 412.0219,589.0625 Q411.35,588.0469 411.35,586.8438 L411.35,585.75 Q411.35,584.5 411.9437,583.4063 Q412.5531,582.3125 413.6,581.7344 Q414.6625,581.1406 415.85,581.1406 Q416.5687,581.1406 417.1937,581.3906 Q417.8187,581.6406 418.35,582.1406 Z " fill="#000000"/><text fill="#000000" font-family="sans-serif" font-size="12" lengthAdjust="spacing" textLength="34" x="430.35" y="590.5508">Token</text><line style="stroke:#A80036;stroke-width:1.5;" x1="402.35" x2="466.35" y1="601.6406" y2="601.6406"/><line style="stroke:#A80036;stroke-width:1.5;" x1="402.35" x2="466.35" y1="609.6406" y2="609.6406"/><!--MD5=[9ddfc9bd1e3a4b04466623ab197feef8]
class Vertical--><rect fill="#FEFECE" filter="url(#f5wly7qe3hot4)" height="48" id="Vertical" style="stroke:#A80036;stroke-width:1.5;" width="72" x="345.35" y="461.6406"/><ellipse cx="360.35" cy="477.6406" fill="#ADD1B2" rx="11" ry="11" style="stroke:#A80036;stroke-width:1.0;"/><path d="M362.35,474.1406 Q362.5531,473.6406 362.7875,473.3906 Q363.0219,473.1406 363.2875,473.1406 Q363.7562,473.1406 364.0531,473.4219 Q364.35,473.7031 364.35,474.3594 L364.35,475.9219 Q364.35,476.5781 364.0687,476.8594 Q363.7875,477.1406 363.35,477.1406 Q362.9594,477.1406 362.7094,476.9688 Q362.4594,476.7969 362.35,476.3438 Q362.3031,476.0313 362.1312,475.8594 Q361.8187,475.5313 361.2562,475.3438 Q360.6937,475.1406 360.1312,475.1406 Q359.4281,475.1406 358.8344,475.4219 Q358.2562,475.7031 357.8031,476.3281 Q357.35,476.9531 357.35,477.8125 L357.35,478.7344 Q357.35,479.7656 358.1937,480.4531 Q359.0375,481.1406 360.5375,481.1406 Q361.4281,481.1406 362.0531,480.9375 Q362.4125,480.8281 362.8187,480.4688 Q363.0844,480.2656 363.225,480.2031 Q363.3656,480.1406 363.5375,480.1406 Q363.8656,480.1406 364.1,480.4063 Q364.35,480.6563 364.35,481.0156 Q364.35,481.3594 364.0062,481.7656 Q363.5062,482.3594 362.7094,482.6875 Q361.6625,483.1406 360.3812,483.1406 Q358.8812,483.1406 357.6781,482.5469 Q356.7094,482.0781 356.0219,481.0625 Q355.35,480.0469 355.35,478.8438 L355.35,477.75 Q355.35,476.5 355.9437,475.4063 Q356.5531,474.3125 357.6,473.7344 Q358.6625,473.1406 359.85,473.1406 Q360.5687,473.1406 361.1937,473.3906 Q361.8187,473.6406 362.35,474.1406 Z " fill="#000000"/><text fill="#000000" font-family="sans-serif" font-size="12" lengthAdjust="spacing" textLength="40" x="374.35" y="482.5508">Vertical</text><line style="stroke:#A80036;stroke-width:1.5;" x1="346.35" x2="416.35" y1="493.6406" y2="493.6406"/><line style="stroke:#A80036;stroke-width:1.5;" x1="346.35" x2="416.35" y1="501.6406" y2="501.6406"/><!--MD5=[a135607b44036ad87f368405615013d9]
class Diagonal--><rect fill="#FEFECE" filter="url(#f5wly7qe3hot4)" height="48" id="Diagonal" style="stroke:#A80036;stroke-width:1.5;" width="82" x="105.35" y="461.6406"/><ellipse cx="120.35" cy="477.6406" fill="#ADD1B2" rx="11" ry="11" style="stroke:#A80036;stroke-width:1.0;"/><path d="M122.35,474.1406 Q122.5531,473.6406 122.7875,473.3906 Q123.0219,473.1406 123.2875,473.1406 Q123.7563,473.1406 124.0531,473.4219 Q124.35,473.7031 124.35,474.3594 L124.35,475.9219 Q124.35,476.5781 124.0688,476.8594 Q123.7875,477.1406 123.35,477.1406 Q122.9594,477.1406 122.7094,476.9688 Q122.4594,476.7969 122.35,476.3438 Q122.3031,476.0313 122.1313,475.8594 Q121.8188,475.5313 121.2563,475.3438 Q120.6938,475.1406 120.1313,475.1406 Q119.4281,475.1406 118.8344,475.4219 Q118.2563,475.7031 117.8031,476.3281 Q117.35,476.9531 117.35,477.8125 L117.35,478.7344 Q117.35,479.7656 118.1938,480.4531 Q119.0375,481.1406 120.5375,481.1406 Q121.4281,481.1406 122.0531,480.9375 Q122.4125,480.8281 122.8188,480.4688 Q123.0844,480.2656 123.225,480.2031 Q123.3656,480.1406 123.5375,480.1406 Q123.8656,480.1406 124.1,480.4063 Q124.35,480.6563 124.35,481.0156 Q124.35,481.3594 124.0063,481.7656 Q123.5063,482.3594 122.7094,482.6875 Q121.6625,483.1406 120.3813,483.1406 Q118.8813,483.1406 117.6781,482.5469 Q116.7094,482.0781 116.0219,481.0625 Q115.35,480.0469 115.35,478.8438 L115.35,477.75 Q115.35,476.5 115.9438,475.4063 Q116.5531,474.3125 117.6,473.7344 Q118.6625,473.1406 119.85,473.1406 Q120.5688,473.1406 121.1938,473.3906 Q121.8188,473.6406 122.35,474.1406 Z " fill="#000000"/><text fill="#000000" font-family="sans-serif" font-size="12" lengthAdjust="spacing" textLength="50" x="134.35" y="482.5508">Diagonal</text><line style="stroke:#A80036;stroke-width:1.5;" x1="106.35" x2="186.35" y1="493.6406" y2="493.6406"/><line style="stroke:#A80036;stroke-width:1.5;" x1="106.35" x2="186.35" y1="501.6406" y2="501.6406"/><!--MD5=[2808de09be71fab9caf2df132bae0681]
class Horizontal--><rect fill="#FEFECE" filter="url(#f5wly7qe3hot4)" height="48" id="Horizontal" style="stroke:#A80036;stroke-width:1.5;" width="87" x="222.85" y="461.6406"/><ellipse cx="237.85" cy="477.6406" fill="#ADD1B2" rx="11" ry="11" style="stroke:#A80036;stroke-width:1.0;"/><path d="M239.85,474.1406 Q240.0531,473.6406 240.2875,473.3906 Q240.5219,473.1406 240.7875,473.1406 Q241.2563,473.1406 241.5531,473.4219 Q241.85,473.7031 241.85,474.3594 L241.85,475.9219 Q241.85,476.5781 241.5688,476.8594 Q241.2875,477.1406 240.85,477.1406 Q240.4594,477.1406 240.2094,476.9688 Q239.9594,476.7969 239.85,476.3438 Q239.8031,476.0313 239.6313,475.8594 Q239.3188,475.5313 238.7563,475.3438 Q238.1938,475.1406 237.6313,475.1406 Q236.9281,475.1406 236.3344,475.4219 Q235.7563,475.7031 235.3031,476.3281 Q234.85,476.9531 234.85,477.8125 L234.85,478.7344 Q234.85,479.7656 235.6938,480.4531 Q236.5375,481.1406 238.0375,481.1406 Q238.9281,481.1406 239.5531,480.9375 Q239.9125,480.8281 240.3188,480.4688 Q240.5844,480.2656 240.725,480.2031 Q240.8656,480.1406 241.0375,480.1406 Q241.3656,480.1406 241.6,480.4063 Q241.85,480.6563 241.85,481.0156 Q241.85,481.3594 241.5063,481.7656 Q241.0063,482.3594 240.2094,482.6875 Q239.1625,483.1406 237.8813,483.1406 Q236.3813,483.1406 235.1781,482.5469 Q234.2094,482.0781 233.5219,481.0625 Q232.85,480.0469 232.85,478.8438 L232.85,477.75 Q232.85,476.5 233.4438,475.4063 Q234.0531,474.3125 235.1,473.7344 Q236.1625,473.1406 237.35,473.1406 Q238.0688,473.1406 238.6938,473.3906 Q239.3188,473.6406 239.85,474.1406 Z " fill="#000000"/><text fill="#000000" font-family="sans-serif" font-size="12" lengthAdjust="spacing" textLength="55" x="251.85" y="482.5508">Horizontal</text><line style="stroke:#A80036;stroke-width:1.5;" x1="223.85" x2="308.85" y1="493.6406" y2="493.6406"/><line style="stroke:#A80036;stroke-width:1.5;" x1="223.85" x2="308.85" y1="501.6406" y2="501.6406"/><!--MD5=[5655ee3e2a0d028d03fe20f829576392]
class Square--><rect fill="#FEFECE" filter="url(#f5wly7qe3hot4)" height="48" id="Square" style="stroke:#A80036;stroke-width:1.5;" width="72" x="502.35" y="569.6406"/><ellipse cx="517.35" cy="585.6406" fill="#ADD1B2" rx="11" ry="11" style="stroke:#A80036;stroke-width:1.0;"/><path d="M519.35,582.1406 Q519.5531,581.6406 519.7875,581.3906 Q520.0219,581.1406 520.2875,581.1406 Q520.7562,581.1406 521.0531,581.4219 Q521.35,581.7031 521.35,582.3594 L521.35,583.9219 Q521.35,584.5781 521.0687,584.8594 Q520.7875,585.1406 520.35,585.1406 Q519.9594,585.1406 519.7094,584.9688 Q519.4594,584.7969 519.35,584.3438 Q519.3031,584.0313 519.1312,583.8594 Q518.8187,583.5313 518.2562,583.3438 Q517.6937,583.1406 517.1312,583.1406 Q516.4281,583.1406 515.8344,583.4219 Q515.2562,583.7031 514.8031,584.3281 Q514.35,584.9531 514.35,585.8125 L514.35,586.7344 Q514.35,587.7656 515.1937,588.4531 Q516.0375,589.1406 517.5375,589.1406 Q518.4281,589.1406 519.0531,588.9375 Q519.4125,588.8281 519.8187,588.4688 Q520.0844,588.2656 520.225,588.2031 Q520.3656,588.1406 520.5375,588.1406 Q520.8656,588.1406 521.1,588.4063 Q521.35,588.6563 521.35,589.0156 Q521.35,589.3594 521.0062,589.7656 Q520.5062,590.3594 519.7094,590.6875 Q518.6625,591.1406 517.3812,591.1406 Q515.8812,591.1406 514.6781,590.5469 Q513.7094,590.0781 513.0219,589.0625 Q512.35,588.0469 512.35,586.8438 L512.35,585.75 Q512.35,584.5 512.9437,583.4063 Q513.5531,582.3125 514.6,581.7344 Q515.6625,581.1406 516.85,581.1406 Q517.5687,581.1406 518.1937,581.3906 Q518.8187,581.6406 519.35,582.1406 Z " fill="#000000"/><text fill="#000000" font-family="sans-serif" font-size="12" lengthAdjust="spacing" textLength="40" x="531.35" y="590.5508">Square</text><line style="stroke:#A80036;stroke-width:1.5;" x1="503.35" x2="573.35" y1="601.6406" y2="601.6406"/><line style="stroke:#A80036;stroke-width:1.5;" x1="503.35" x2="573.35" y1="609.6406" y2="609.6406"/><!--MD5=[e06ef809dd6be8ce79b58fe0a1161eb8]
class Column--><rect fill="#FEFECE" filter="url(#f5wly7qe3hot4)" height="48" id="Column" style="stroke:#A80036;stroke-width:1.5;" width="76" x="597.35" y="691.6406"/><ellipse cx="612.35" cy="707.6406" fill="#ADD1B2" rx="11" ry="11" style="stroke:#A80036;stroke-width:1.0;"/><path d="M614.35,704.1406 Q614.5531,703.6406 614.7875,703.3906 Q615.0219,703.1406 615.2875,703.1406 Q615.7563,703.1406 616.0531,703.4219 Q616.35,703.7031 616.35,704.3594 L616.35,705.9219 Q616.35,706.5781 616.0688,706.8594 Q615.7875,707.1406 615.35,707.1406 Q614.9594,707.1406 614.7094,706.9688 Q614.4594,706.7969 614.35,706.3438 Q614.3031,706.0313 614.1313,705.8594 Q613.8188,705.5313 613.2563,705.3438 Q612.6938,705.1406 612.1313,705.1406 Q611.4281,705.1406 610.8344,705.4219 Q610.2563,705.7031 609.8031,706.3281 Q609.35,706.9531 609.35,707.8125 L609.35,708.7344 Q609.35,709.7656 610.1938,710.4531 Q611.0375,711.1406 612.5375,711.1406 Q613.4281,711.1406 614.0531,710.9375 Q614.4125,710.8281 614.8188,710.4688 Q615.0844,710.2656 615.225,710.2031 Q615.3656,710.1406 615.5375,710.1406 Q615.8656,710.1406 616.1,710.4063 Q616.35,710.6563 616.35,711.0156 Q616.35,711.3594 616.0063,711.7656 Q615.5063,712.3594 614.7094,712.6875 Q613.6625,713.1406 612.3813,713.1406 Q610.8813,713.1406 609.6781,712.5469 Q608.7094,712.0781 608.0219,711.0625 Q607.35,710.0469 607.35,708.8438 L607.35,707.75 Q607.35,706.5 607.9438,705.4063 Q608.5531,704.3125 609.6,703.7344 Q610.6625,703.1406 611.85,703.1406 Q612.5688,703.1406 613.1938,703.3906 Q613.8188,703.6406 614.35,704.1406 Z " fill="#000000"/><text fill="#000000" font-family="sans-serif" font-size="12" lengthAdjust="spacing" textLength="44" x="626.35" y="712.5508">Column</text><line style="stroke:#A80036;stroke-width:1.5;" x1="598.35" x2="672.35" y1="723.6406" y2="723.6406"/><line style="stroke:#A80036;stroke-width:1.5;" x1="598.35" x2="672.35" y1="731.6406" y2="731.6406"/><!--MD5=[05aedcff764caeeb5d443618a4d90de7]
class Row--><rect fill="#FEFECE" filter="url(#f5wly7qe3hot4)" height="48" id="Row" style="stroke:#A80036;stroke-width:1.5;" width="57" x="504.85" y="691.6406"/><ellipse cx="519.85" cy="707.6406" fill="#ADD1B2" rx="11" ry="11" style="stroke:#A80036;stroke-width:1.0;"/><path d="M521.85,704.1406 Q522.0531,703.6406 522.2875,703.3906 Q522.5219,703.1406 522.7875,703.1406 Q523.2562,703.1406 523.5531,703.4219 Q523.85,703.7031 523.85,704.3594 L523.85,705.9219 Q523.85,706.5781 523.5687,706.8594 Q523.2875,707.1406 522.85,707.1406 Q522.4594,707.1406 522.2094,706.9688 Q521.9594,706.7969 521.85,706.3438 Q521.8031,706.0313 521.6312,705.8594 Q521.3187,705.5313 520.7562,705.3438 Q520.1937,705.1406 519.6312,705.1406 Q518.9281,705.1406 518.3344,705.4219 Q517.7562,705.7031 517.3031,706.3281 Q516.85,706.9531 516.85,707.8125 L516.85,708.7344 Q516.85,709.7656 517.6937,710.4531 Q518.5375,711.1406 520.0375,711.1406 Q520.9281,711.1406 521.5531,710.9375 Q521.9125,710.8281 522.3187,710.4688 Q522.5844,710.2656 522.725,710.2031 Q522.8656,710.1406 523.0375,710.1406 Q523.3656,710.1406 523.6,710.4063 Q523.85,710.6563 523.85,711.0156 Q523.85,711.3594 523.5062,711.7656 Q523.0062,712.3594 522.2094,712.6875 Q521.1625,713.1406 519.8812,713.1406 Q518.3812,713.1406 517.1781,712.5469 Q516.2094,712.0781 515.5219,711.0625 Q514.85,710.0469 514.85,708.8438 L514.85,707.75 Q514.85,706.5 515.4437,705.4063 Q516.0531,704.3125 517.1,703.7344 Q518.1625,703.1406 519.35,703.1406 Q520.0687,703.1406 520.6937,703.3906 Q521.3187,703.6406 521.85,704.1406 Z " fill="#000000"/><text fill="#000000" font-family="sans-serif" font-size="12" lengthAdjust="spacing" textLength="25" x="533.85" y="712.5508">Row</text><line style="stroke:#A80036;stroke-width:1.5;" x1="505.85" x2="560.85" y1="723.6406" y2="723.6406"/><line style="stroke:#A80036;stroke-width:1.5;" x1="505.85" x2="560.85" y1="731.6406" y2="731.6406"/><!--MD5=[6824fd9902778444ee49992acd2ffe7e]
link Connect4 to Turn--><path codeLine="8" d="M396.2174,87.132 C396.2174,87.132 375,114.5606 365.42,126.9406 " fill="none" id="Connect4-Turn" style="stroke:#A80036;stroke-width:1.0;"/><polygon fill="#A80036" points="357.39,137.3206,366.0639,132.6555,360.4521,133.368,359.7396,127.7561,357.39,137.3206" style="stroke:#A80036;stroke-width:1.0;"/><line style="stroke:#A80036;stroke-width:1.0;" x1="360.4521" x2="365.345" y1="133.368" y2="127.0356"/><polygon fill="#A80036" points="403.56,77.6406,396.7249,79.9388,396.2174,87.132,403.0525,84.8338,403.56,77.6406" style="stroke:#A80036;stroke-width:1.0;"/><text fill="#000000" font-family="sans-serif" font-size="13" lengthAdjust="spacing" textLength="29" x="329.2529" y="126.9806">7..42</text><!--MD5=[5426a1d26e36fcd61d30da6b8a6545ec]
link Connect4 to Board--><path codeLine="9" d="M429.0436,89.5192 C429.0436,89.5192 470.68,278.3406 484.35,340.3406 " fill="none" id="Connect4-Board" style="stroke:#A80036;stroke-width:1.0;"/><polygon fill="#A80036" points="487.2,353.2606,489.1685,343.6105,486.1235,348.3779,481.3561,345.3329,487.2,353.2606" style="stroke:#A80036;stroke-width:1.0;"/><line style="stroke:#A80036;stroke-width:1.0;" x1="486.1235" x2="484.395" y1="348.3779" y2="340.5606"/><polygon fill="#A80036" points="426.46,77.8006,423.8456,84.5211,429.0436,89.5192,431.658,82.7987,426.46,77.8006" style="stroke:#A80036;stroke-width:1.0;"/><!--MD5=[46750473935a00282743b47f522de7be]
link Connect4 to Player--><path codeLine="10" d="M412.0384,89.4702 C412.0384,89.4702 394.58,153.6006 385.35,185.6406 C380.89,201.1406 375.78,218.2106 371.35,232.8206 " fill="none" id="Connect4-Player" style="stroke:#A80036;stroke-width:1.0;"/><polygon fill="#A80036" points="367.51,245.4306,373.9565,237.9846,368.9654,240.6471,366.3029,235.656,367.51,245.4306" style="stroke:#A80036;stroke-width:1.0;"/><line style="stroke:#A80036;stroke-width:1.0;" x1="368.9654" x2="371.295" y1="240.6471" y2="232.9956"/><polygon fill="#A80036" points="415.15,77.8806,409.731,82.6382,412.0384,89.4702,417.4574,84.7126,415.15,77.8806" style="stroke:#A80036;stroke-width:1.0;"/><text fill="#000000" font-family="sans-serif" font-size="13" lengthAdjust="spacing" textLength="7" x="361.4479" y="234.717">2</text><!--MD5=[d81713d91ad05be3b975338c4816ee0b]
link Turn to Player--><path codeLine="11" d="M343.91,185.6406 C347.08,201.6406 351.33,223.0906 354.71,240.1706 " fill="none" id="Turn-to-Player" style="stroke:#A80036;stroke-width:1.0;"/><polygon fill="#A80036" points="355.73,245.3206,357.9088,235.7158,354.7604,240.4155,350.0606,237.2672,355.73,245.3206" style="stroke:#A80036;stroke-width:1.0;"/><!--MD5=[d9a3abe5fcc93a7ea7e1f4e2ed37734f]
link Board to Insertion--><path codeLine="12" d="M492.35,401.6406 C492.35,417.6406 492.35,439.0906 492.35,456.1706 " fill="none" id="Board-to-Insertion" style="stroke:#A80036;stroke-width:1.0;"/><polygon fill="#A80036" points="492.35,461.3206,496.35,452.3206,492.35,456.3206,488.35,452.3206,492.35,461.3206" style="stroke:#A80036;stroke-width:1.0;"/><text fill="#000000" font-family="sans-serif" font-size="13" lengthAdjust="spacing" textLength="29" x="459.8156" y="450.9806">7..42</text><!--MD5=[2a92216d381d9bf6f84ed4cf13521a84]
link Goal to Insertion--><path codeLine="13" d="M388.99,401.6406 C409.69,418.2606 437.7,440.7606 459.35,458.1406 " fill="none" id="Goal-to-Insertion" style="stroke:#A80036;stroke-width:1.0;"/><polygon fill="#A80036" points="463.31,461.3206,458.8122,452.5588,459.4168,458.1833,453.7924,458.7879,463.31,461.3206" style="stroke:#A80036;stroke-width:1.0;"/><text fill="#000000" font-family="sans-serif" font-size="13" lengthAdjust="spacing" textLength="7" x="448.3784" y="450.9806">4</text><!--MD5=[525e20984b3f0335f86e1ed389de5b3d]
link Player to Token--><path codeLine="14" d="M327.24,281.6206 C238.25,312.8406 6,406.5306 87.35,509.6406 C125.5,558.0006 313.81,581.3106 395.94,589.3106 " fill="none" id="Player-to-Token" style="stroke:#A80036;stroke-width:1.0;"/><polygon fill="#A80036" points="401.19,589.8106,392.6203,584.9568,396.2136,589.3258,391.8446,592.9191,401.19,589.8106" style="stroke:#A80036;stroke-width:1.0;"/><text fill="#000000" font-family="sans-serif" font-size="13" lengthAdjust="spacing" textLength="14" x="379.2835" y="585.0113">21</text><!--MD5=[1571e4e0b7cdbae74b04c97a95677c54]
link Player to Goal--><path codeLine="15" d="M360.35,293.6406 C360.35,309.6406 360.35,331.0906 360.35,348.1706 " fill="none" id="Player-to-Goal" style="stroke:#A80036;stroke-width:1.0;"/><polygon fill="#A80036" points="360.35,353.3206,364.35,344.3206,360.35,348.3206,356.35,344.3206,360.35,353.3206" style="stroke:#A80036;stroke-width:1.0;"/><!--MD5=[c1f7e88598f78d9459764ed93737eb14]
link Player to Board--><path codeLine="16" d="M388.99,293.6406 C409.69,310.2606 437.7,332.7606 459.35,350.1406 " fill="none" id="Player-to-Board" style="stroke:#A80036;stroke-width:1.0;stroke-dasharray:7.0,7.0;"/><polygon fill="#A80036" points="463.31,353.3206,458.8122,344.5588,459.4168,350.1833,453.7924,350.7879,463.31,353.3206" style="stroke:#A80036;stroke-width:1.0;"/><!--MD5=[3e26d6834a71a9527f7b0beabb13c375]
reverse link Goal to Vertical--><path codeLine="17" d="M368.87,421.6606 C371.56,435.2206 374.42,449.6806 376.73,461.3206 " fill="none" id="Goal-backto-Vertical" style="stroke:#A80036;stroke-width:1.0;"/><polygon fill="none" points="361.93,422.6206,364.91,401.6406,375.66,419.9006,361.93,422.6206" style="stroke:#A80036;stroke-width:1.0;"/><!--MD5=[5a16bdf27515cf253385e973d6fbc781]
reverse link Goal to Diagonal--><path codeLine="18" d="M313.1,402.0406 C275.45,420.6906 223.29,446.5306 187.38,464.3206 " fill="none" id="Goal-backto-Diagonal" style="stroke:#A80036;stroke-width:1.0;"/><polygon fill="none" points="310.01,395.7606,331.04,393.1606,316.23,408.3106,310.01,395.7606" style="stroke:#A80036;stroke-width:1.0;"/><!--MD5=[9c078bc154f9dba995e32f4ec3d43872]
reverse link Goal to Horizontal--><path codeLine="19" d="M326.45,416.8706 C313.26,431.7406 298.58,448.2906 287.03,461.3206 " fill="none" id="Goal-backto-Horizontal" style="stroke:#A80036;stroke-width:1.0;"/><polygon fill="none" points="321.45,411.9606,339.95,401.6406,331.92,421.2506,321.45,411.9606" style="stroke:#A80036;stroke-width:1.0;"/><!--MD5=[4ad96441c8a01d959d4bf4f2a5e1a798]
link Board to Square--><path codeLine="20" d="M522.0377,411.2397 C522.0377,411.2397 544.71,443.7306 550.35,461.6406 C560.15,492.7606 555.27,529.9506 549.05,556.7306 " fill="none" id="Board-Square" style="stroke:#A80036;stroke-width:1.0;"/><polygon fill="#A80036" points="545.85,569.3406,551.9423,561.6022,547.0808,564.4945,544.1885,559.6329,545.85,569.3406" style="stroke:#A80036;stroke-width:1.0;"/><line style="stroke:#A80036;stroke-width:1.0;" x1="547.0808" x2="549.05" y1="564.4945" y2="556.7406"/><polygon fill="#A80036" points="514.49,401.9106,515.1542,409.0911,522.0377,411.2397,521.3736,404.0593,514.49,401.9106" style="stroke:#A80036;stroke-width:1.0;"/><text fill="#000000" font-family="sans-serif" font-size="13" lengthAdjust="spacing" textLength="21" x="554.975" y="558.6039">6x7</text><!--MD5=[304335c530676c0c2555e056aeeb939b]
link Token to Color--><path codeLine="21" d="M434.35,617.7806 C434.35,633.2206 434.35,653.9706 434.35,672.3106 " fill="none" id="Token-to-Color" style="stroke:#A80036;stroke-width:1.0;"/><polygon fill="#A80036" points="434.35,677.4106,438.35,668.4106,434.35,672.4106,430.35,668.4106,434.35,677.4106" style="stroke:#A80036;stroke-width:1.0;"/><!--MD5=[cc6ad3ef1f9fa149e91a2830a7d28e41]
link Insertion to Token--><path codeLine="22" d="M479.77,509.6406 C470.93,525.7806 459.07,547.4606 449.69,564.6106 " fill="none" id="Insertion-to-Token" style="stroke:#A80036;stroke-width:1.0;"/><polygon fill="#A80036" points="447.11,569.3206,454.9394,563.3457,449.5103,564.9344,447.9215,559.5053,447.11,569.3206" style="stroke:#A80036;stroke-width:1.0;"/><!--MD5=[7fb48484a6529a4579ebfc4fca9fe8e9]
link Insertion to Square--><path codeLine="23" d="M502.33,509.6406 C509.34,525.7806 518.74,547.4606 526.19,564.6106 " fill="none" id="Insertion-to-Square" style="stroke:#A80036;stroke-width:1.0;"/><polygon fill="#A80036" points="528.23,569.3206,528.3243,559.4722,526.2432,564.7323,520.9831,562.6512,528.23,569.3206" style="stroke:#A80036;stroke-width:1.0;"/><text fill="#000000" font-family="sans-serif" font-size="13" lengthAdjust="spacing" textLength="0" x="525.2758" y="558.9806"/><!--MD5=[672a3da9421bc45597ac3a174d283bca]
reverse link Token to Square--><path codeLine="24" d="M472.79,593.6406 C482.58,593.6406 492.38,593.6406 502.18,593.6406 " fill="none" id="Token-backto-Square" style="stroke:#A80036;stroke-width:1.0;"/><polygon fill="#A80036" points="467.66,593.6406,476.66,597.6406,472.66,593.6406,476.66,589.6406,467.66,593.6406" style="stroke:#A80036;stroke-width:1.0;"/><text fill="#000000" font-family="sans-serif" font-size="13" lengthAdjust="spacing" textLength="22" x="472.428" y="589.2895">0..1</text><!--MD5=[0f2f9f456f6fde234ed10f53385b10db]
link Square to Column--><path codeLine="25" d="M557.05,617.7806 C573.16,637.7006 596.41,666.4706 613.4,687.4806 " fill="none" id="Square-to-Column" style="stroke:#A80036;stroke-width:1.0;"/><polygon fill="#A80036" points="616.71,691.5706,614.1602,682.0575,613.5657,687.6831,607.9401,687.0885,616.71,691.5706" style="stroke:#A80036;stroke-width:1.0;"/><!--MD5=[fa993a6ce30a241d5d8fc98f4a6a1b48]
link Square to Row--><path codeLine="26" d="M537.39,617.7806 C536.57,637.3706 535.4,665.5106 534.53,686.4206 " fill="none" id="Square-to-Row" style="stroke:#A80036;stroke-width:1.0;"/><polygon fill="#A80036" points="534.31,691.5706,538.6665,682.7377,534.5098,686.5746,530.6729,682.4179,534.31,691.5706" style="stroke:#A80036;stroke-width:1.0;"/><!--MD5=[c11a9efda1c97464affa882737e58445]
@startuml
title Connect4

enum Color{
RED
YELLOW
}

Connect4 *- -> "7..42" Turn
Connect4 *- -> Board
Connect4 *- -> "2" Player
Turn - -> Player
Board - -> "7..42" Insertion
Goal - -> "4" Insertion
Player - -> "21" Token
Player - -> Goal
Player ..> Board
Goal <|- - Vertical
Goal <|- - Diagonal
Goal <|- - Horizontal
Board *- -> " 6x7" Square
Token - -> Color
Insertion - -> Token
Insertion - -> " " Square
Square -left-> "0..1" Token
Square - -> Column
Square - -> Row


@enduml

PlantUML version 1.2022.1(Tue Feb 01 19:19:58 CET 2022)
(GPL source distribution)
Java Runtime: OpenJDK Runtime Environment
JVM: OpenJDK 64-Bit Server VM
Default Encoding: Cp1252
Language: es
Country: ES
--></g></svg>