<?xml version="1.0" encoding="UTF-8" standalone="no"?>
<svg xmlns="http://www.w3.org/2000/svg" xmlns:xlink="http://www.w3.org/1999/xlink" contentScriptType="application/ecmascript" contentStyleType="text/css" height="538px" preserveAspectRatio="none" style="width:318px;height:538px;background:#FFFFFF;" version="1.1" viewBox="0 0 318 538" width="318px" zoomAndPan="magnify"><defs><filter height="300%" id="fel6stmuprtwz" width="300%" x="-1" y="-1"><feGaussianBlur result="blurOut" stdDeviation="2.0"/><feColorMatrix in="blurOut" result="blurOut2" type="matrix" values="0 0 0 0 0 0 0 0 0 0 0 0 0 0 0 0 0 0 .4 0"/><feOffset dx="4.0" dy="4.0" in="blurOut2" result="blurOut3"/><feBlend in="SourceGraphic" in2="blurOut3" mode="normal"/></filter></defs><g><ellipse cx="151.5" cy="20" fill="#000000" filter="url(#fel6stmuprtwz)" rx="10" ry="10" style="stroke:none;stroke-width:1.0;"/><rect fill="#FEFECE" filter="url(#fel6stmuprtwz)" height="33.9688" rx="12.5" ry="12.5" style="stroke:#A80036;stroke-width:1.5;" width="49" x="127" y="214.9175"/><text fill="#000000" font-family="sans-serif" font-size="12" lengthAdjust="spacing" textLength="29" x="137" y="236.0562">Grab</text><polygon fill="#FEFECE" filter="url(#fel6stmuprtwz)" points="127,166.5151,176,166.5151,188,178.5151,176,190.5151,127,190.5151,115,178.5151,127,166.5151" style="stroke:#A80036;stroke-width:1.5;"/><text fill="#000000" font-family="sans-serif" font-size="11" lengthAdjust="spacing" textLength="21" x="155.5" y="200.7256">yes</text><text fill="#000000" font-family="sans-serif" font-size="11" lengthAdjust="spacing" textLength="49" x="127" y="182.3232">CanGrab</text><polygon fill="#FEFECE" filter="url(#fel6stmuprtwz)" points="151.5,268.8862,163.5,280.8862,151.5,292.8862,139.5,280.8862,151.5,268.8862" style="stroke:#A80036;stroke-width:1.5;"/><polygon fill="#FEFECE" filter="url(#fel6stmuprtwz)" points="111.5,312.8862,191.5,312.8862,203.5,324.8862,191.5,336.8862,111.5,336.8862,99.5,324.8862,111.5,312.8862" style="stroke:#A80036;stroke-width:1.5;"/><text fill="#000000" font-family="sans-serif" font-size="11" lengthAdjust="spacing" textLength="21" x="155.5" y="347.0967">yes</text><text fill="#000000" font-family="sans-serif" font-size="11" lengthAdjust="spacing" textLength="80" x="111.5" y="328.6943">NewDeckCard</text><text fill="#000000" font-family="sans-serif" font-size="11" lengthAdjust="spacing" textLength="30" x="203.5" y="322.292">Block</text><ellipse cx="255.5" cy="324.8862" fill="#FFFFFF" filter="url(#fel6stmuprtwz)" rx="11" ry="11" style="stroke:#000000;stroke-width:1.0;"/><ellipse cx="255.5" cy="324.8862" fill="#000000" rx="6" ry="6" style="stroke:#7F7F7F;stroke-width:1.0;"/><polygon fill="#FEFECE" filter="url(#fel6stmuprtwz)" points="94.5,110.8047,208.5,110.8047,220.5,122.8047,208.5,134.8047,94.5,134.8047,82.5,122.8047,94.5,110.8047" style="stroke:#A80036;stroke-width:1.5;"/><text fill="#000000" font-family="sans-serif" font-size="11" lengthAdjust="spacing" textLength="14" x="155.5" y="145.0151">no</text><text fill="#000000" font-family="sans-serif" font-size="11" lengthAdjust="spacing" textLength="114" x="94.5" y="126.6128">CanMove or CanPile</text><text fill="#000000" font-family="sans-serif" font-size="11" lengthAdjust="spacing" textLength="21" x="61.5" y="120.2104">yes</text><polygon fill="#FEFECE" filter="url(#fel6stmuprtwz)" points="57,394.4839,110,394.4839,122,406.4839,110,418.4839,57,418.4839,45,406.4839,57,394.4839" style="stroke:#A80036;stroke-width:1.5;"/><text fill="#000000" font-family="sans-serif" font-size="11" lengthAdjust="spacing" textLength="21" x="87.5" y="428.6943">yes</text><text fill="#000000" font-family="sans-serif" font-size="11" lengthAdjust="spacing" textLength="53" x="57" y="410.292">CanMove</text><rect fill="#FEFECE" filter="url(#fel6stmuprtwz)" height="33.9688" rx="12.5" ry="12.5" style="stroke:#A80036;stroke-width:1.5;" width="53" x="57" y="450.1943"/><text fill="#000000" font-family="sans-serif" font-size="12" lengthAdjust="spacing" textLength="33" x="67" y="471.333">Move</text><polygon fill="#FEFECE" filter="url(#fel6stmuprtwz)" points="154,394.4839,196,394.4839,208,406.4839,196,418.4839,154,418.4839,142,406.4839,154,394.4839" style="stroke:#A80036;stroke-width:1.5;"/><text fill="#000000" font-family="sans-serif" font-size="11" lengthAdjust="spacing" textLength="21" x="179" y="428.6943">yes</text><text fill="#000000" font-family="sans-serif" font-size="11" lengthAdjust="spacing" textLength="42" x="154" y="410.292">CanPile</text><rect fill="#FEFECE" filter="url(#fel6stmuprtwz)" height="33.9688" rx="12.5" ry="12.5" style="stroke:#A80036;stroke-width:1.5;" width="40" x="155" y="450.1943"/><text fill="#000000" font-family="sans-serif" font-size="12" lengthAdjust="spacing" textLength="20" x="165" y="471.333">Pile</text><polygon fill="#FEFECE" filter="url(#fel6stmuprtwz)" points="105,50,198,50,210,62,198,74,105,74,93,62,105,50" style="stroke:#A80036;stroke-width:1.5;"/><text fill="#000000" font-family="sans-serif" font-size="11" lengthAdjust="spacing" textLength="14" x="155.5" y="84.2104">no</text><text fill="#000000" font-family="sans-serif" font-size="11" lengthAdjust="spacing" textLength="93" x="105" y="65.8081">AllCardsArePiled</text><text fill="#000000" font-family="sans-serif" font-size="11" lengthAdjust="spacing" textLength="21" x="72" y="59.4058">Win</text><ellipse cx="24" cy="109" fill="#FFFFFF" filter="url(#fel6stmuprtwz)" rx="11" ry="11" style="stroke:#000000;stroke-width:1.0;"/><ellipse cx="24" cy="109" fill="#000000" rx="6" ry="6" style="stroke:#7F7F7F;stroke-width:1.0;"/><line style="stroke:#A80036;stroke-width:1.5;" x1="151.5" x2="151.5" y1="190.5151" y2="214.9175"/><polygon fill="#A80036" points="147.5,204.9175,151.5,214.9175,155.5,204.9175,151.5,208.9175" style="stroke:#A80036;stroke-width:1.0;"/><line style="stroke:#A80036;stroke-width:1.5;" x1="188" x2="200" y1="178.5151" y2="178.5151"/><polygon fill="#A80036" points="196,221.9019,200,231.9019,204,221.9019,200,225.9019" style="stroke:#A80036;stroke-width:1.5;"/><line style="stroke:#A80036;stroke-width:1.5;" x1="200" x2="200" y1="178.5151" y2="280.8862"/><line style="stroke:#A80036;stroke-width:1.5;" x1="200" x2="163.5" y1="280.8862" y2="280.8862"/><polygon fill="#A80036" points="173.5,276.8862,163.5,280.8862,173.5,284.8862,169.5,280.8862" style="stroke:#A80036;stroke-width:1.0;"/><line style="stroke:#A80036;stroke-width:1.5;" x1="151.5" x2="151.5" y1="248.8862" y2="268.8862"/><polygon fill="#A80036" points="147.5,258.8862,151.5,268.8862,155.5,258.8862,151.5,262.8862" style="stroke:#A80036;stroke-width:1.0;"/><line style="stroke:#A80036;stroke-width:1.5;" x1="151.5" x2="151.5" y1="336.8862" y2="362.4839"/><line style="stroke:#A80036;stroke-width:1.5;" x1="151.5" x2="280.5" y1="362.4839" y2="362.4839"/><polygon fill="#A80036" points="276.5,272.9995,280.5,262.9995,284.5,272.9995,280.5,268.9995" style="stroke:#A80036;stroke-width:1.5;"/><line style="stroke:#A80036;stroke-width:1.5;" x1="280.5" x2="280.5" y1="122.8047" y2="362.4839"/><line style="stroke:#A80036;stroke-width:1.5;" x1="280.5" x2="220.5" y1="122.8047" y2="122.8047"/><polygon fill="#A80036" points="230.5,118.8047,220.5,122.8047,230.5,126.8047,226.5,122.8047" style="stroke:#A80036;stroke-width:1.0;"/><line style="stroke:#A80036;stroke-width:1.5;" x1="203.5" x2="244.5" y1="324.8862" y2="324.8862"/><polygon fill="#A80036" points="234.5,320.8862,244.5,324.8862,234.5,328.8862,238.5,324.8862" style="stroke:#A80036;stroke-width:1.0;"/><line style="stroke:#A80036;stroke-width:1.5;" x1="151.5" x2="151.5" y1="292.8862" y2="312.8862"/><polygon fill="#A80036" points="147.5,302.8862,151.5,312.8862,155.5,302.8862,151.5,306.8862" style="stroke:#A80036;stroke-width:1.0;"/><line style="stroke:#A80036;stroke-width:1.5;" x1="151.5" x2="151.5" y1="134.8047" y2="166.5151"/><polygon fill="#A80036" points="147.5,156.5151,151.5,166.5151,155.5,156.5151,151.5,160.5151" style="stroke:#A80036;stroke-width:1.0;"/><line style="stroke:#A80036;stroke-width:1.5;" x1="82.5" x2="70.5" y1="122.8047" y2="122.8047"/><polygon fill="#A80036" points="66.5,258.9995,70.5,268.9995,74.5,258.9995,70.5,262.9995" style="stroke:#A80036;stroke-width:1.5;"/><line style="stroke:#A80036;stroke-width:1.5;" x1="70.5" x2="70.5" y1="122.8047" y2="374.4839"/><line style="stroke:#A80036;stroke-width:1.5;" x1="70.5" x2="151.5" y1="374.4839" y2="374.4839"/><line style="stroke:#A80036;stroke-width:1.5;" x1="151.5" x2="151.5" y1="374.4839" y2="379.4839"/><line style="stroke:#A80036;stroke-width:1.5;" x1="83.5" x2="83.5" y1="418.4839" y2="450.1943"/><polygon fill="#A80036" points="79.5,440.1943,83.5,450.1943,87.5,440.1943,83.5,444.1943" style="stroke:#A80036;stroke-width:1.0;"/><line style="stroke:#A80036;stroke-width:1.5;" x1="83.5" x2="83.5" y1="484.1631" y2="504.1631"/><polygon fill="#A80036" points="79.5,494.1631,83.5,504.1631,87.5,494.1631,83.5,498.1631" style="stroke:#A80036;stroke-width:1.0;"/><line style="stroke:#A80036;stroke-width:1.5;" x1="175" x2="175" y1="418.4839" y2="450.1943"/><polygon fill="#A80036" points="171,440.1943,175,450.1943,179,440.1943,175,444.1943" style="stroke:#A80036;stroke-width:1.0;"/><line style="stroke:#A80036;stroke-width:1.5;" x1="175" x2="175" y1="484.1631" y2="504.1631"/><polygon fill="#A80036" points="171,494.1631,175,504.1631,179,494.1631,175,498.1631" style="stroke:#A80036;stroke-width:1.0;"/><line style="stroke:#A80036;stroke-width:1.5;" x1="122" x2="142" y1="406.4839" y2="406.4839"/><polygon fill="#A80036" points="132,402.4839,142,406.4839,132,410.4839,136,406.4839" style="stroke:#A80036;stroke-width:1.0;"/><line style="stroke:#A80036;stroke-width:1.5;" x1="151.5" x2="83.5" y1="379.4839" y2="379.4839"/><line style="stroke:#A80036;stroke-width:1.5;" x1="83.5" x2="83.5" y1="379.4839" y2="394.4839"/><polygon fill="#A80036" points="79.5,384.4839,83.5,394.4839,87.5,384.4839,83.5,388.4839" style="stroke:#A80036;stroke-width:1.0;"/><line style="stroke:#A80036;stroke-width:1.5;" x1="208" x2="243" y1="406.4839" y2="406.4839"/><line style="stroke:#A80036;stroke-width:1.5;" x1="243" x2="243" y1="406.4839" y2="504.1631"/><polygon fill="#A80036" points="239,494.1631,243,504.1631,247,494.1631,243,498.1631" style="stroke:#A80036;stroke-width:1.0;"/><line style="stroke:#A80036;stroke-width:1.5;" x1="83.5" x2="243" y1="504.1631" y2="504.1631"/><line style="stroke:#A80036;stroke-width:1.5;" x1="151.5" x2="151.5" y1="74" y2="110.8047"/><polygon fill="#A80036" points="147.5,100.8047,151.5,110.8047,155.5,100.8047,151.5,104.8047" style="stroke:#A80036;stroke-width:1.0;"/><line style="stroke:#A80036;stroke-width:1.5;" x1="151.5" x2="151.5" y1="504.1631" y2="514.1631"/><line style="stroke:#A80036;stroke-width:1.5;" x1="151.5" x2="292.5" y1="514.1631" y2="514.1631"/><polygon fill="#A80036" points="288.5,352.4839,292.5,342.4839,296.5,352.4839,292.5,348.4839" style="stroke:#A80036;stroke-width:1.5;"/><line style="stroke:#A80036;stroke-width:1.5;" x1="292.5" x2="292.5" y1="62" y2="514.1631"/><line style="stroke:#A80036;stroke-width:1.5;" x1="292.5" x2="210" y1="62" y2="62"/><polygon fill="#A80036" points="220,58,210,62,220,66,216,62" style="stroke:#A80036;stroke-width:1.0;"/><line style="stroke:#A80036;stroke-width:1.5;" x1="93" x2="24" y1="62" y2="62"/><line style="stroke:#A80036;stroke-width:1.5;" x1="24" x2="24" y1="62" y2="98"/><polygon fill="#A80036" points="20,88,24,98,28,88,24,92" style="stroke:#A80036;stroke-width:1.0;"/><line style="stroke:#A80036;stroke-width:1.5;" x1="151.5" x2="151.5" y1="30" y2="50"/><polygon fill="#A80036" points="147.5,40,151.5,50,155.5,40,151.5,44" style="stroke:#A80036;stroke-width:1.0;"/><!--MD5=[595cfad45f1e0548eb7fbb569fac87f4]
@startuml
start
while (AllCardsArePiled) is (no)
  while (CanMove or CanPile) is (no)
    if (CanGrab) then (yes)
      :Grab;
    endif
    if (NewDeckCard) then (Block)
      stop
    else (yes)
    endif
  endwhile (yes)
  if (CanMove) then (yes)
    :Move;
  elseif (CanPile) then (yes)
    :Pile;
  endif
endwhile (Win)
stop
@enduml

PlantUML version 1.2022.2beta1(Unknown compile time)
(GPL source distribution)
Java Runtime: Java(TM) SE Runtime Environment
JVM: Java HotSpot(TM) 64-Bit Server VM
Default Encoding: UTF-8
Language: en
Country: US
--></g></svg>