<?xml version="1.0" encoding="UTF-8" standalone="no"?>
<svg xmlns="http://www.w3.org/2000/svg" xmlns:xlink="http://www.w3.org/1999/xlink" contentScriptType="application/ecmascript" contentStyleType="text/css" height="373px" preserveAspectRatio="none" style="width:477px;height:373px;background:#FFFFFF;" version="1.1" viewBox="0 0 477 373" width="477px" zoomAndPan="magnify"><defs><filter height="300%" id="ft49x40r2qwp6" width="300%" x="-1" y="-1"><feGaussianBlur result="blurOut" stdDeviation="2.0"/><feColorMatrix in="blurOut" result="blurOut2" type="matrix" values="0 0 0 0 0 0 0 0 0 0 0 0 0 0 0 0 0 0 .4 0"/><feOffset dx="4.0" dy="4.0" in="blurOut2" result="blurOut3"/><feBlend in="SourceGraphic" in2="blurOut3" mode="normal"/></filter></defs><g><g id="FreshDeck"><rect fill="#FEFECE" filter="url(#ft49x40r2qwp6)" height="50" rx="12.5" ry="12.5" style="stroke:#A80036;stroke-width:1.5;" width="50" x="203.5313" y="87"/><line style="stroke:#A80036;stroke-width:1.5;" x1="203.5313" x2="253.5313" y1="113.2969" y2="113.2969"/><text fill="#000000" font-family="sans-serif" font-size="14" lengthAdjust="spacing" textLength="0" x="230.5313" y="104.9951"/></g><g id="Grab"><rect fill="#FEFECE" filter="url(#ft49x40r2qwp6)" height="50" rx="12.5" ry="12.5" style="stroke:#A80036;stroke-width:1.5;" width="50" x="188.5313" y="214"/><line style="stroke:#A80036;stroke-width:1.5;" x1="188.5313" x2="238.5313" y1="240.2969" y2="240.2969"/><text fill="#000000" font-family="sans-serif" font-size="14" lengthAdjust="spacing" textLength="0" x="215.5313" y="231.9951"/></g><ellipse cx="228.5313" cy="16" fill="#000000" filter="url(#ft49x40r2qwp6)" rx="10" ry="10" style="stroke:none;stroke-width:1.0;"/><ellipse cx="299.5313" cy="351" fill="none" filter="url(#ft49x40r2qwp6)" rx="10" ry="10" style="stroke:#000000;stroke-width:1.0;"/><ellipse cx="300.0313" cy="351.5" fill="#000000" rx="6" ry="6" style="stroke:none;stroke-width:1.0;"/><!--MD5=[5493d5c64b40eb6b05d79d9e89cd49e9]
link *start to FreshDeck--><path d="M228.5313,26.013 C228.5313,38.698 228.5313,62.409 228.5313,81.57 " fill="none" id="*start-to-FreshDeck" style="stroke:#A80036;stroke-width:1.0;"/><polygon fill="#A80036" points="228.5313,86.84,232.5313,77.84,228.5313,81.84,224.5313,77.84,228.5313,86.84" style="stroke:#A80036;stroke-width:1.0;"/><!--MD5=[70da3419cf429a75f2e6dc3fd9177f7b]
link FreshDeck to FreshDeck--><path d="M253.8093,102.864 C271.3043,100.095 288.5313,103.141 288.5313,112 C288.5313,119.96 274.6263,123.226 259.1133,121.8 " fill="none" id="FreshDeck-to-FreshDeck" style="stroke:#A80036;stroke-width:1.0;"/><polygon fill="#A80036" points="253.8093,121.136,262.2437,126.2214,258.7707,121.7562,263.2359,118.2832,253.8093,121.136" style="stroke:#A80036;stroke-width:1.0;"/><text fill="#000000" font-family="sans-serif" font-size="13" lengthAdjust="spacing" textLength="77" x="294.5313" y="116.5669">Move or Pile</text><!--MD5=[9d775d6aa54e1e32341210672eab1fe1]
link FreshDeck to Grab--><path d="M203.2383,116.619 C157.2283,123.776 62.8006,141.302 43.5312,167 C6,217.052 125.0614,232.068 183.3363,236.367 " fill="none" id="FreshDeck-to-Grab" style="stroke:#A80036;stroke-width:1.0;"/><polygon fill="#A80036" points="188.4403,236.727,179.7451,232.1018,183.4528,236.3741,179.1804,240.0818,188.4403,236.727" style="stroke:#A80036;stroke-width:1.0;"/><text fill="#000000" font-family="sans-serif" font-size="13" lengthAdjust="spacing" textLength="140" x="44.5312" y="180.0669">[Not can Move or Pile]</text><!--MD5=[27c239ee790a047e891580659f21afd1]
link Grab to FreshDeck--><path d="M216.4143,213.973 C218.8713,193.503 222.4083,164.021 225.0283,142.194 " fill="none" id="Grab-to-FreshDeck" style="stroke:#A80036;stroke-width:1.0;"/><polygon fill="#A80036" points="225.6393,137.101,220.5958,145.5605,225.0437,142.0654,228.5388,146.5134,225.6393,137.101" style="stroke:#A80036;stroke-width:1.0;"/><text fill="#000000" font-family="sans-serif" font-size="13" lengthAdjust="spacing" textLength="116" x="223.5313" y="180.0669">[Can Move or Pile]</text><!--MD5=[3ca7ecee95810513ba4df0f40c8be624]
link Grab to Grab--><path d="M238.8093,228.51 C256.3043,225.332 273.5313,228.828 273.5313,239 C273.5313,248.139 259.6263,251.889 244.1133,250.252 " fill="none" id="Grab-to-Grab" style="stroke:#A80036;stroke-width:1.0;"/><polygon fill="#A80036" points="238.8093,249.49,247.1487,254.7297,243.7584,250.2013,248.2868,246.811,238.8093,249.49" style="stroke:#A80036;stroke-width:1.0;"/><text fill="#000000" font-family="sans-serif" font-size="13" lengthAdjust="spacing" textLength="31" x="279.5313" y="243.5669">Grab</text><!--MD5=[b19cbeba39de789c508b647b1aac3205]
link Grab to *end--><path d="M219.5803,264.2115 C224.1243,278.876 231.4903,297.3254 242.5313,311 C254.3683,325.6597 273.1503,337.017 285.8913,343.6025 " fill="none" id="Grab-to-*end" style="stroke:#A80036;stroke-width:1.0;"/><polygon fill="#A80036" points="290.6153,345.9694,284.3609,338.3613,286.1451,343.7294,280.777,345.5136,290.6153,345.9694" style="stroke:#A80036;stroke-width:1.0;"/><text fill="#000000" font-family="sans-serif" font-size="13" lengthAdjust="spacing" textLength="99" x="243.5313" y="307.0669">[No new Cards]</text><!--MD5=[37d9a319611cb2363b0d3cce1957a5ab]
link FreshDeck to *end--><path d="M253.7303,116.398 C282.0893,121.717 326.8863,134.961 347.5313,167 C382.1973,220.799 375.0363,253.212 347.5313,311 C340.4253,325.9304 324.4983,337.0109 312.9353,343.4704 " fill="none" id="FreshDeck-to-*end" style="stroke:#A80036;stroke-width:1.0;"/><polygon fill="#A80036" points="308.2843,345.9536,318.1076,345.2443,312.6952,343.5991,314.3404,338.1868,308.2843,345.9536" style="stroke:#A80036;stroke-width:1.0;"/><text fill="#000000" font-family="sans-serif" font-size="13" lengthAdjust="spacing" textLength="98" x="371.5313" y="243.5669">[All cards piled]</text><!--MD5=[7d0d5684e8f500882d02b43bd5746c40]
@startuml
state FreshDeck as " "
state Grab as " "

[*] - -> FreshDeck
FreshDeck - -> FreshDeck : Move or Pile
FreshDeck - -> Grab : [Not can Move or Pile]
Grab - -> Grab : Grab
Grab - -> FreshDeck : [Can Move or Pile]
Grab - -> [*] : [No new Cards]
FreshDeck - -> [*] : [All cards piled]
@enduml

PlantUML version 1.2022.2beta1(Unknown compile time)
(GPL source distribution)
Java Runtime: Java(TM) SE Runtime Environment
JVM: Java HotSpot(TM) 64-Bit Server VM
Default Encoding: UTF-8
Language: en
Country: US
--></g></svg>