<?xml version="1.0" encoding="UTF-8" standalone="no"?>
<svg xmlns="http://www.w3.org/2000/svg" xmlns:xlink="http://www.w3.org/1999/xlink" contentScriptType="application/ecmascript" contentStyleType="text/css" height="1013px" preserveAspectRatio="none" style="width:541px;height:1013px;background:#FFFFFF;" version="1.1" viewBox="0 0 541 1013" width="541px" zoomAndPan="magnify"><defs><filter height="300%" id="f18b6prbv6rmnk" width="300%" x="-1" y="-1"><feGaussianBlur result="blurOut" stdDeviation="2.0"/><feColorMatrix in="blurOut" result="blurOut2" type="matrix" values="0 0 0 0 0 0 0 0 0 0 0 0 0 0 0 0 0 0 .4 0"/><feOffset dx="4.0" dy="4.0" in="blurOut2" result="blurOut3"/><feBlend in="SourceGraphic" in2="blurOut3" mode="normal"/></filter></defs><g><!--MD5=[ce135f397e71694d574a1221b16fe9d6]
class Klondike--><rect fill="#FEFECE" filter="url(#f18b6prbv6rmnk)" height="48" id="Klondike" style="stroke:#A80036;stroke-width:1.5;" width="84" x="170.4678" y="7"/><ellipse cx="185.4678" cy="23" fill="#ADD1B2" rx="11" ry="11" style="stroke:#A80036;stroke-width:1.0;"/><path d="M187.8115,18.6719 C186.874,18.2344 186.2803,18.0938 185.4053,18.0938 C182.7803,18.0938 180.7803,20.1719 180.7803,22.8906 L180.7803,24.0156 C180.7803,26.5938 182.8896,28.4844 185.7803,28.4844 C186.999,28.4844 188.1553,28.1875 188.9053,27.6406 C189.4834,27.2344 189.8115,26.7813 189.8115,26.3906 C189.8115,25.9375 189.4209,25.5469 188.9521,25.5469 C188.7334,25.5469 188.5303,25.625 188.3428,25.8125 C187.8896,26.2969 187.8896,26.2969 187.7021,26.3906 C187.2803,26.6563 186.5928,26.7813 185.8271,26.7813 C183.7803,26.7813 182.4834,25.6875 182.4834,23.9844 L182.4834,22.8906 C182.4834,21.1094 183.7334,19.7969 185.4678,19.7969 C186.0459,19.7969 186.6553,19.9531 187.124,20.2031 C187.6084,20.4844 187.7803,20.7031 187.874,21.1094 C187.9365,21.5156 187.9678,21.6406 188.1084,21.7656 C188.249,21.9063 188.4834,22.0156 188.7021,22.0156 C188.9678,22.0156 189.2334,21.875 189.4053,21.6563 C189.5146,21.5 189.5459,21.3125 189.5459,20.8906 L189.5459,19.4688 C189.5459,19.0313 189.5303,18.9063 189.4365,18.75 C189.2803,18.4844 188.999,18.3438 188.7021,18.3438 C188.4053,18.3438 188.2021,18.4375 187.9834,18.75 L187.8115,18.6719 Z " fill="#000000"/><text fill="#000000" font-family="sans-serif" font-size="12" lengthAdjust="spacing" textLength="52" x="199.4678" y="27.1543">Klondike</text><line style="stroke:#A80036;stroke-width:1.5;" x1="171.4678" x2="253.4678" y1="39" y2="39"/><line style="stroke:#A80036;stroke-width:1.5;" x1="171.4678" x2="253.4678" y1="47" y2="47"/><!--MD5=[5e305716458bbdabbd2d7f572ed2bae2]
class Card--><rect fill="#FEFECE" filter="url(#f18b6prbv6rmnk)" height="48" id="Card" style="stroke:#A80036;stroke-width:1.5;" width="60" x="230.4678" y="587"/><ellipse cx="245.4678" cy="603" fill="#ADD1B2" rx="11" ry="11" style="stroke:#A80036;stroke-width:1.0;"/><path d="M247.8115,598.6719 C246.874,598.2344 246.2803,598.0938 245.4053,598.0938 C242.7803,598.0938 240.7803,600.1719 240.7803,602.8906 L240.7803,604.0156 C240.7803,606.5938 242.8896,608.4844 245.7803,608.4844 C246.999,608.4844 248.1553,608.1875 248.9053,607.6406 C249.4834,607.2344 249.8115,606.7813 249.8115,606.3906 C249.8115,605.9375 249.4209,605.5469 248.9521,605.5469 C248.7334,605.5469 248.5303,605.625 248.3428,605.8125 C247.8896,606.2969 247.8896,606.2969 247.7021,606.3906 C247.2803,606.6563 246.5928,606.7813 245.8271,606.7813 C243.7803,606.7813 242.4834,605.6875 242.4834,603.9844 L242.4834,602.8906 C242.4834,601.1094 243.7334,599.7969 245.4678,599.7969 C246.0459,599.7969 246.6553,599.9531 247.124,600.2031 C247.6084,600.4844 247.7803,600.7031 247.874,601.1094 C247.9365,601.5156 247.9678,601.6406 248.1084,601.7656 C248.249,601.9063 248.4834,602.0156 248.7021,602.0156 C248.9678,602.0156 249.2334,601.875 249.4053,601.6563 C249.5146,601.5 249.5459,601.3125 249.5459,600.8906 L249.5459,599.4688 C249.5459,599.0313 249.5303,598.9063 249.4365,598.75 C249.2803,598.4844 248.999,598.3438 248.7021,598.3438 C248.4053,598.3438 248.2021,598.4375 247.9834,598.75 L247.8115,598.6719 Z " fill="#000000"/><text fill="#000000" font-family="sans-serif" font-size="12" lengthAdjust="spacing" textLength="28" x="259.4678" y="607.1543">Card</text><line style="stroke:#A80036;stroke-width:1.5;" x1="231.4678" x2="289.4678" y1="619" y2="619"/><line style="stroke:#A80036;stroke-width:1.5;" x1="231.4678" x2="289.4678" y1="627" y2="627"/><!--MD5=[0992d3fdc9d3d7c02b735131bb70871d]
class Goal--><rect fill="#FEFECE" filter="url(#f18b6prbv6rmnk)" height="48" id="Goal" style="stroke:#A80036;stroke-width:1.5;" width="59" x="290.9678" y="115"/><ellipse cx="305.9678" cy="131" fill="#ADD1B2" rx="11" ry="11" style="stroke:#A80036;stroke-width:1.0;"/><path d="M308.3115,126.6719 C307.374,126.2344 306.7803,126.0938 305.9053,126.0938 C303.2803,126.0938 301.2803,128.1719 301.2803,130.8906 L301.2803,132.0156 C301.2803,134.5938 303.3896,136.4844 306.2803,136.4844 C307.499,136.4844 308.6553,136.1875 309.4053,135.6406 C309.9834,135.2344 310.3115,134.7813 310.3115,134.3906 C310.3115,133.9375 309.9209,133.5469 309.4521,133.5469 C309.2334,133.5469 309.0303,133.625 308.8428,133.8125 C308.3896,134.2969 308.3896,134.2969 308.2021,134.3906 C307.7803,134.6563 307.0928,134.7813 306.3271,134.7813 C304.2803,134.7813 302.9834,133.6875 302.9834,131.9844 L302.9834,130.8906 C302.9834,129.1094 304.2334,127.7969 305.9678,127.7969 C306.5459,127.7969 307.1553,127.9531 307.624,128.2031 C308.1084,128.4844 308.2803,128.7031 308.374,129.1094 C308.4365,129.5156 308.4678,129.6406 308.6084,129.7656 C308.749,129.9063 308.9834,130.0156 309.2021,130.0156 C309.4678,130.0156 309.7334,129.875 309.9053,129.6563 C310.0146,129.5 310.0459,129.3125 310.0459,128.8906 L310.0459,127.4688 C310.0459,127.0313 310.0303,126.9063 309.9365,126.75 C309.7803,126.4844 309.499,126.3438 309.2021,126.3438 C308.9053,126.3438 308.7021,126.4375 308.4834,126.75 L308.3115,126.6719 Z " fill="#000000"/><text fill="#000000" font-family="sans-serif" font-size="12" lengthAdjust="spacing" textLength="27" x="319.9678" y="135.1543">Goal</text><line style="stroke:#A80036;stroke-width:1.5;" x1="291.9678" x2="348.9678" y1="147" y2="147"/><line style="stroke:#A80036;stroke-width:1.5;" x1="291.9678" x2="348.9678" y1="155" y2="155"/><!--MD5=[9563755d011c5cec7ec66dc53565a59e]
class Board--><rect fill="#FEFECE" filter="url(#f18b6prbv6rmnk)" height="48" id="Board" style="stroke:#A80036;stroke-width:1.5;" width="68" x="182.4678" y="371"/><ellipse cx="197.4678" cy="387" fill="#ADD1B2" rx="11" ry="11" style="stroke:#A80036;stroke-width:1.0;"/><path d="M199.8115,382.6719 C198.874,382.2344 198.2803,382.0938 197.4053,382.0938 C194.7803,382.0938 192.7803,384.1719 192.7803,386.8906 L192.7803,388.0156 C192.7803,390.5938 194.8896,392.4844 197.7803,392.4844 C198.999,392.4844 200.1553,392.1875 200.9053,391.6406 C201.4834,391.2344 201.8115,390.7813 201.8115,390.3906 C201.8115,389.9375 201.4209,389.5469 200.9521,389.5469 C200.7334,389.5469 200.5303,389.625 200.3428,389.8125 C199.8896,390.2969 199.8896,390.2969 199.7021,390.3906 C199.2803,390.6563 198.5928,390.7813 197.8271,390.7813 C195.7803,390.7813 194.4834,389.6875 194.4834,387.9844 L194.4834,386.8906 C194.4834,385.1094 195.7334,383.7969 197.4678,383.7969 C198.0459,383.7969 198.6553,383.9531 199.124,384.2031 C199.6084,384.4844 199.7803,384.7031 199.874,385.1094 C199.9365,385.5156 199.9678,385.6406 200.1084,385.7656 C200.249,385.9063 200.4834,386.0156 200.7021,386.0156 C200.9678,386.0156 201.2334,385.875 201.4053,385.6563 C201.5146,385.5 201.5459,385.3125 201.5459,384.8906 L201.5459,383.4688 C201.5459,383.0313 201.5303,382.9063 201.4365,382.75 C201.2803,382.4844 200.999,382.3438 200.7021,382.3438 C200.4053,382.3438 200.2021,382.4375 199.9834,382.75 L199.8115,382.6719 Z " fill="#000000"/><text fill="#000000" font-family="sans-serif" font-size="12" lengthAdjust="spacing" textLength="36" x="211.4678" y="391.1543">Board</text><line style="stroke:#A80036;stroke-width:1.5;" x1="183.4678" x2="249.4678" y1="403" y2="403"/><line style="stroke:#A80036;stroke-width:1.5;" x1="183.4678" x2="249.4678" y1="411" y2="411"/><!--MD5=[3c38f93b7758508cbdb506a313595fcb]
class SuitPile--><rect fill="#FEFECE" filter="url(#f18b6prbv6rmnk)" height="48" id="SuitPile" style="stroke:#A80036;stroke-width:1.5;" width="74" x="453.4678" y="479"/><ellipse cx="468.4678" cy="495" fill="#ADD1B2" rx="11" ry="11" style="stroke:#A80036;stroke-width:1.0;"/><path d="M470.8115,490.6719 C469.874,490.2344 469.2803,490.0938 468.4053,490.0938 C465.7803,490.0938 463.7803,492.1719 463.7803,494.8906 L463.7803,496.0156 C463.7803,498.5938 465.8896,500.4844 468.7803,500.4844 C469.999,500.4844 471.1553,500.1875 471.9053,499.6406 C472.4834,499.2344 472.8115,498.7813 472.8115,498.3906 C472.8115,497.9375 472.4209,497.5469 471.9521,497.5469 C471.7334,497.5469 471.5303,497.625 471.3428,497.8125 C470.8896,498.2969 470.8896,498.2969 470.7021,498.3906 C470.2803,498.6563 469.5928,498.7813 468.8271,498.7813 C466.7803,498.7813 465.4834,497.6875 465.4834,495.9844 L465.4834,494.8906 C465.4834,493.1094 466.7334,491.7969 468.4678,491.7969 C469.0459,491.7969 469.6553,491.9531 470.124,492.2031 C470.6084,492.4844 470.7803,492.7031 470.874,493.1094 C470.9365,493.5156 470.9678,493.6406 471.1084,493.7656 C471.249,493.9063 471.4834,494.0156 471.7021,494.0156 C471.9678,494.0156 472.2334,493.875 472.4053,493.6563 C472.5146,493.5 472.5459,493.3125 472.5459,492.8906 L472.5459,491.4688 C472.5459,491.0313 472.5303,490.9063 472.4365,490.75 C472.2803,490.4844 471.999,490.3438 471.7021,490.3438 C471.4053,490.3438 471.2021,490.4375 470.9834,490.75 L470.8115,490.6719 Z " fill="#000000"/><text fill="#000000" font-family="sans-serif" font-size="12" lengthAdjust="spacing" textLength="42" x="482.4678" y="499.1543">SuitPile</text><line style="stroke:#A80036;stroke-width:1.5;" x1="454.4678" x2="526.4678" y1="511" y2="511"/><line style="stroke:#A80036;stroke-width:1.5;" x1="454.4678" x2="526.4678" y1="519" y2="519"/><!--MD5=[2ced64839d23cc87c58de11aae4f5563]
class StackPile--><rect fill="#FEFECE" filter="url(#f18b6prbv6rmnk)" height="48" id="StackPile" style="stroke:#A80036;stroke-width:1.5;" width="85" x="163.9678" y="479"/><ellipse cx="178.9678" cy="495" fill="#ADD1B2" rx="11" ry="11" style="stroke:#A80036;stroke-width:1.0;"/><path d="M181.3115,490.6719 C180.374,490.2344 179.7803,490.0938 178.9053,490.0938 C176.2803,490.0938 174.2803,492.1719 174.2803,494.8906 L174.2803,496.0156 C174.2803,498.5938 176.3896,500.4844 179.2803,500.4844 C180.499,500.4844 181.6553,500.1875 182.4053,499.6406 C182.9834,499.2344 183.3115,498.7813 183.3115,498.3906 C183.3115,497.9375 182.9209,497.5469 182.4521,497.5469 C182.2334,497.5469 182.0303,497.625 181.8428,497.8125 C181.3896,498.2969 181.3896,498.2969 181.2021,498.3906 C180.7803,498.6563 180.0928,498.7813 179.3271,498.7813 C177.2803,498.7813 175.9834,497.6875 175.9834,495.9844 L175.9834,494.8906 C175.9834,493.1094 177.2334,491.7969 178.9678,491.7969 C179.5459,491.7969 180.1553,491.9531 180.624,492.2031 C181.1084,492.4844 181.2803,492.7031 181.374,493.1094 C181.4365,493.5156 181.4678,493.6406 181.6084,493.7656 C181.749,493.9063 181.9834,494.0156 182.2021,494.0156 C182.4678,494.0156 182.7334,493.875 182.9053,493.6563 C183.0146,493.5 183.0459,493.3125 183.0459,492.8906 L183.0459,491.4688 C183.0459,491.0313 183.0303,490.9063 182.9365,490.75 C182.7803,490.4844 182.499,490.3438 182.2021,490.3438 C181.9053,490.3438 181.7021,490.4375 181.4834,490.75 L181.3115,490.6719 Z " fill="#000000"/><text fill="#000000" font-family="sans-serif" font-size="12" lengthAdjust="spacing" textLength="53" x="192.9678" y="499.1543">StackPile</text><line style="stroke:#A80036;stroke-width:1.5;" x1="164.9678" x2="247.9678" y1="511" y2="511"/><line style="stroke:#A80036;stroke-width:1.5;" x1="164.9678" x2="247.9678" y1="519" y2="519"/><!--MD5=[30299a58ba6b78debaaed5ddbb42f29a]
class Deck--><rect fill="#FEFECE" filter="url(#f18b6prbv6rmnk)" height="48" id="Deck" style="stroke:#A80036;stroke-width:1.5;" width="63" x="283.9678" y="479"/><ellipse cx="298.9678" cy="495" fill="#ADD1B2" rx="11" ry="11" style="stroke:#A80036;stroke-width:1.0;"/><path d="M301.3115,490.6719 C300.374,490.2344 299.7803,490.0938 298.9053,490.0938 C296.2803,490.0938 294.2803,492.1719 294.2803,494.8906 L294.2803,496.0156 C294.2803,498.5938 296.3896,500.4844 299.2803,500.4844 C300.499,500.4844 301.6553,500.1875 302.4053,499.6406 C302.9834,499.2344 303.3115,498.7813 303.3115,498.3906 C303.3115,497.9375 302.9209,497.5469 302.4521,497.5469 C302.2334,497.5469 302.0303,497.625 301.8428,497.8125 C301.3896,498.2969 301.3896,498.2969 301.2021,498.3906 C300.7803,498.6563 300.0928,498.7813 299.3271,498.7813 C297.2803,498.7813 295.9834,497.6875 295.9834,495.9844 L295.9834,494.8906 C295.9834,493.1094 297.2334,491.7969 298.9678,491.7969 C299.5459,491.7969 300.1553,491.9531 300.624,492.2031 C301.1084,492.4844 301.2803,492.7031 301.374,493.1094 C301.4365,493.5156 301.4678,493.6406 301.6084,493.7656 C301.749,493.9063 301.9834,494.0156 302.2021,494.0156 C302.4678,494.0156 302.7334,493.875 302.9053,493.6563 C303.0146,493.5 303.0459,493.3125 303.0459,492.8906 L303.0459,491.4688 C303.0459,491.0313 303.0303,490.9063 302.9365,490.75 C302.7803,490.4844 302.499,490.3438 302.2021,490.3438 C301.9053,490.3438 301.7021,490.4375 301.4834,490.75 L301.3115,490.6719 Z " fill="#000000"/><text fill="#000000" font-family="sans-serif" font-size="12" lengthAdjust="spacing" textLength="31" x="312.9678" y="499.1543">Deck</text><line style="stroke:#A80036;stroke-width:1.5;" x1="284.9678" x2="345.9678" y1="511" y2="511"/><line style="stroke:#A80036;stroke-width:1.5;" x1="284.9678" x2="345.9678" y1="519" y2="519"/><!--MD5=[f8e7078f77c005d15b486c0c98deb1e6]
class Action--><rect fill="#FEFECE" filter="url(#f18b6prbv6rmnk)" height="48" id="Action" style="stroke:#A80036;stroke-width:1.5;" width="69" x="285.9678" y="243"/><ellipse cx="300.9678" cy="259" fill="#ADD1B2" rx="11" ry="11" style="stroke:#A80036;stroke-width:1.0;"/><path d="M303.3115,254.6719 C302.374,254.2344 301.7803,254.0938 300.9053,254.0938 C298.2803,254.0938 296.2803,256.1719 296.2803,258.8906 L296.2803,260.0156 C296.2803,262.5938 298.3896,264.4844 301.2803,264.4844 C302.499,264.4844 303.6553,264.1875 304.4053,263.6406 C304.9834,263.2344 305.3115,262.7813 305.3115,262.3906 C305.3115,261.9375 304.9209,261.5469 304.4521,261.5469 C304.2334,261.5469 304.0303,261.625 303.8428,261.8125 C303.3896,262.2969 303.3896,262.2969 303.2021,262.3906 C302.7803,262.6563 302.0928,262.7813 301.3271,262.7813 C299.2803,262.7813 297.9834,261.6875 297.9834,259.9844 L297.9834,258.8906 C297.9834,257.1094 299.2334,255.7969 300.9678,255.7969 C301.5459,255.7969 302.1553,255.9531 302.624,256.2031 C303.1084,256.4844 303.2803,256.7031 303.374,257.1094 C303.4365,257.5156 303.4678,257.6406 303.6084,257.7656 C303.749,257.9063 303.9834,258.0156 304.2021,258.0156 C304.4678,258.0156 304.7334,257.875 304.9053,257.6563 C305.0146,257.5 305.0459,257.3125 305.0459,256.8906 L305.0459,255.4688 C305.0459,255.0313 305.0303,254.9063 304.9365,254.75 C304.7803,254.4844 304.499,254.3438 304.2021,254.3438 C303.9053,254.3438 303.7021,254.4375 303.4834,254.75 L303.3115,254.6719 Z " fill="#000000"/><text fill="#000000" font-family="sans-serif" font-size="12" lengthAdjust="spacing" textLength="37" x="314.9678" y="263.1543">Action</text><line style="stroke:#A80036;stroke-width:1.5;" x1="286.9678" x2="353.9678" y1="275" y2="275"/><line style="stroke:#A80036;stroke-width:1.5;" x1="286.9678" x2="353.9678" y1="283" y2="283"/><polygon fill="none" points="317.2678,291,321.5631,311.7497,307.6859,309.8994" style="stroke:#A80036;stroke-width:1.0;"/><line style="stroke:#A80036;stroke-width:1.0;" x1="314.6245" x2="314.4678" y1="310.8246" y2="312"/><line style="stroke:#A80036;stroke-width:1.0;" x1="320.4678" x2="320.4678" y1="243" y2="217.67"/><!--MD5=[0f690a215a17a0cf4b9f948ca5dd1b3e]
class Rank--><rect fill="#FEFECE" filter="url(#f18b6prbv6rmnk)" height="48" id="Rank" style="stroke:#A80036;stroke-width:1.5;" width="60" x="184.4678" y="695"/><ellipse cx="199.4678" cy="711" fill="#ADD1B2" rx="11" ry="11" style="stroke:#A80036;stroke-width:1.0;"/><path d="M201.8115,706.6719 C200.874,706.2344 200.2803,706.0938 199.4053,706.0938 C196.7803,706.0938 194.7803,708.1719 194.7803,710.8906 L194.7803,712.0156 C194.7803,714.5938 196.8896,716.4844 199.7803,716.4844 C200.999,716.4844 202.1553,716.1875 202.9053,715.6406 C203.4834,715.2344 203.8115,714.7813 203.8115,714.3906 C203.8115,713.9375 203.4209,713.5469 202.9521,713.5469 C202.7334,713.5469 202.5303,713.625 202.3428,713.8125 C201.8896,714.2969 201.8896,714.2969 201.7021,714.3906 C201.2803,714.6563 200.5928,714.7813 199.8271,714.7813 C197.7803,714.7813 196.4834,713.6875 196.4834,711.9844 L196.4834,710.8906 C196.4834,709.1094 197.7334,707.7969 199.4678,707.7969 C200.0459,707.7969 200.6553,707.9531 201.124,708.2031 C201.6084,708.4844 201.7803,708.7031 201.874,709.1094 C201.9365,709.5156 201.9678,709.6406 202.1084,709.7656 C202.249,709.9063 202.4834,710.0156 202.7021,710.0156 C202.9678,710.0156 203.2334,709.875 203.4053,709.6563 C203.5146,709.5 203.5459,709.3125 203.5459,708.8906 L203.5459,707.4688 C203.5459,707.0313 203.5303,706.9063 203.4365,706.75 C203.2803,706.4844 202.999,706.3438 202.7021,706.3438 C202.4053,706.3438 202.2021,706.4375 201.9834,706.75 L201.8115,706.6719 Z " fill="#000000"/><text fill="#000000" font-family="sans-serif" font-size="12" lengthAdjust="spacing" textLength="28" x="213.4678" y="715.1543">Rank</text><line style="stroke:#A80036;stroke-width:1.5;" x1="185.4678" x2="243.4678" y1="727" y2="727"/><line style="stroke:#A80036;stroke-width:1.5;" x1="185.4678" x2="243.4678" y1="735" y2="735"/><!--MD5=[8afaa0cc9be9ac1cdc24999fa1642fa3]
class Suit--><rect fill="#FEFECE" filter="url(#f18b6prbv6rmnk)" height="48" id="Suit" style="stroke:#A80036;stroke-width:1.5;" width="54" x="279.4678" y="695"/><ellipse cx="294.4678" cy="711" fill="#ADD1B2" rx="11" ry="11" style="stroke:#A80036;stroke-width:1.0;"/><path d="M296.8115,706.6719 C295.874,706.2344 295.2803,706.0938 294.4053,706.0938 C291.7803,706.0938 289.7803,708.1719 289.7803,710.8906 L289.7803,712.0156 C289.7803,714.5938 291.8896,716.4844 294.7803,716.4844 C295.999,716.4844 297.1553,716.1875 297.9053,715.6406 C298.4834,715.2344 298.8115,714.7813 298.8115,714.3906 C298.8115,713.9375 298.4209,713.5469 297.9521,713.5469 C297.7334,713.5469 297.5303,713.625 297.3428,713.8125 C296.8896,714.2969 296.8896,714.2969 296.7021,714.3906 C296.2803,714.6563 295.5928,714.7813 294.8271,714.7813 C292.7803,714.7813 291.4834,713.6875 291.4834,711.9844 L291.4834,710.8906 C291.4834,709.1094 292.7334,707.7969 294.4678,707.7969 C295.0459,707.7969 295.6553,707.9531 296.124,708.2031 C296.6084,708.4844 296.7803,708.7031 296.874,709.1094 C296.9365,709.5156 296.9678,709.6406 297.1084,709.7656 C297.249,709.9063 297.4834,710.0156 297.7021,710.0156 C297.9678,710.0156 298.2334,709.875 298.4053,709.6563 C298.5146,709.5 298.5459,709.3125 298.5459,708.8906 L298.5459,707.4688 C298.5459,707.0313 298.5303,706.9063 298.4365,706.75 C298.2803,706.4844 297.999,706.3438 297.7021,706.3438 C297.4053,706.3438 297.2021,706.4375 296.9834,706.75 L296.8115,706.6719 Z " fill="#000000"/><text fill="#000000" font-family="sans-serif" font-size="12" lengthAdjust="spacing" textLength="22" x="308.4678" y="715.1543">Suit</text><line style="stroke:#A80036;stroke-width:1.5;" x1="280.4678" x2="332.4678" y1="727" y2="727"/><line style="stroke:#A80036;stroke-width:1.5;" x1="280.4678" x2="332.4678" y1="735" y2="735"/><!--MD5=[18eee71c88ab61f27581b8cbdd3ef5ee]
class Color--><rect fill="#FEFECE" filter="url(#f18b6prbv6rmnk)" height="48" id="Color" style="stroke:#A80036;stroke-width:1.5;" width="64" x="274.4678" y="823"/><ellipse cx="289.4678" cy="839" fill="#ADD1B2" rx="11" ry="11" style="stroke:#A80036;stroke-width:1.0;"/><path d="M291.8115,834.6719 C290.874,834.2344 290.2803,834.0938 289.4053,834.0938 C286.7803,834.0938 284.7803,836.1719 284.7803,838.8906 L284.7803,840.0156 C284.7803,842.5938 286.8896,844.4844 289.7803,844.4844 C290.999,844.4844 292.1553,844.1875 292.9053,843.6406 C293.4834,843.2344 293.8115,842.7813 293.8115,842.3906 C293.8115,841.9375 293.4209,841.5469 292.9521,841.5469 C292.7334,841.5469 292.5303,841.625 292.3428,841.8125 C291.8896,842.2969 291.8896,842.2969 291.7021,842.3906 C291.2803,842.6563 290.5928,842.7813 289.8271,842.7813 C287.7803,842.7813 286.4834,841.6875 286.4834,839.9844 L286.4834,838.8906 C286.4834,837.1094 287.7334,835.7969 289.4678,835.7969 C290.0459,835.7969 290.6553,835.9531 291.124,836.2031 C291.6084,836.4844 291.7803,836.7031 291.874,837.1094 C291.9365,837.5156 291.9678,837.6406 292.1084,837.7656 C292.249,837.9063 292.4834,838.0156 292.7021,838.0156 C292.9678,838.0156 293.2334,837.875 293.4053,837.6563 C293.5146,837.5 293.5459,837.3125 293.5459,836.8906 L293.5459,835.4688 C293.5459,835.0313 293.5303,834.9063 293.4365,834.75 C293.2803,834.4844 292.999,834.3438 292.7021,834.3438 C292.4053,834.3438 292.2021,834.4375 291.9834,834.75 L291.8115,834.6719 Z " fill="#000000"/><text fill="#000000" font-family="sans-serif" font-size="12" lengthAdjust="spacing" textLength="32" x="303.4678" y="843.1543">Color</text><line style="stroke:#A80036;stroke-width:1.5;" x1="275.4678" x2="337.4678" y1="855" y2="855"/><line style="stroke:#A80036;stroke-width:1.5;" x1="275.4678" x2="337.4678" y1="863" y2="863"/><polygon fill="none" points="306.4678,871,313.4678,891,299.4678,891" style="stroke:#A80036;stroke-width:1.0;"/><line style="stroke:#A80036;stroke-width:1.0;" x1="306.4678" x2="306.4678" y1="891" y2="892"/><line style="stroke:#A80036;stroke-width:1.0;" x1="306.4678" x2="306.4678" y1="823" y2="789.763"/><!--MD5=[365150d8163e865a226452c70cc7ad9f]
class Black--><rect fill="#FEFECE" filter="url(#f18b6prbv6rmnk)" height="48" id="Black" style="stroke:#A80036;stroke-width:1.5;" width="64" x="227.4678" y="951"/><ellipse cx="242.4678" cy="967" fill="#ADD1B2" rx="11" ry="11" style="stroke:#A80036;stroke-width:1.0;"/><path d="M244.8115,962.6719 C243.874,962.2344 243.2803,962.0938 242.4053,962.0938 C239.7803,962.0938 237.7803,964.1719 237.7803,966.8906 L237.7803,968.0156 C237.7803,970.5938 239.8896,972.4844 242.7803,972.4844 C243.999,972.4844 245.1553,972.1875 245.9053,971.6406 C246.4834,971.2344 246.8115,970.7813 246.8115,970.3906 C246.8115,969.9375 246.4209,969.5469 245.9521,969.5469 C245.7334,969.5469 245.5303,969.625 245.3428,969.8125 C244.8896,970.2969 244.8896,970.2969 244.7021,970.3906 C244.2803,970.6563 243.5928,970.7813 242.8271,970.7813 C240.7803,970.7813 239.4834,969.6875 239.4834,967.9844 L239.4834,966.8906 C239.4834,965.1094 240.7334,963.7969 242.4678,963.7969 C243.0459,963.7969 243.6553,963.9531 244.124,964.2031 C244.6084,964.4844 244.7803,964.7031 244.874,965.1094 C244.9365,965.5156 244.9678,965.6406 245.1084,965.7656 C245.249,965.9063 245.4834,966.0156 245.7021,966.0156 C245.9678,966.0156 246.2334,965.875 246.4053,965.6563 C246.5146,965.5 246.5459,965.3125 246.5459,964.8906 L246.5459,963.4688 C246.5459,963.0313 246.5303,962.9063 246.4365,962.75 C246.2803,962.4844 245.999,962.3438 245.7021,962.3438 C245.4053,962.3438 245.2021,962.4375 244.9834,962.75 L244.8115,962.6719 Z " fill="#000000"/><text fill="#000000" font-family="sans-serif" font-size="12" lengthAdjust="spacing" textLength="32" x="256.4678" y="971.1543">Black</text><line style="stroke:#A80036;stroke-width:1.5;" x1="228.4678" x2="290.4678" y1="983" y2="983"/><line style="stroke:#A80036;stroke-width:1.5;" x1="228.4678" x2="290.4678" y1="991" y2="991"/><!--MD5=[08be530975453a47bdc5b5370100f2fc]
class Red--><rect fill="#FEFECE" filter="url(#f18b6prbv6rmnk)" height="48" id="Red" style="stroke:#A80036;stroke-width:1.5;" width="55" x="326.9678" y="951"/><ellipse cx="341.9678" cy="967" fill="#ADD1B2" rx="11" ry="11" style="stroke:#A80036;stroke-width:1.0;"/><path d="M344.3115,962.6719 C343.374,962.2344 342.7803,962.0938 341.9053,962.0938 C339.2803,962.0938 337.2803,964.1719 337.2803,966.8906 L337.2803,968.0156 C337.2803,970.5938 339.3896,972.4844 342.2803,972.4844 C343.499,972.4844 344.6553,972.1875 345.4053,971.6406 C345.9834,971.2344 346.3115,970.7813 346.3115,970.3906 C346.3115,969.9375 345.9209,969.5469 345.4521,969.5469 C345.2334,969.5469 345.0303,969.625 344.8428,969.8125 C344.3896,970.2969 344.3896,970.2969 344.2021,970.3906 C343.7803,970.6563 343.0928,970.7813 342.3271,970.7813 C340.2803,970.7813 338.9834,969.6875 338.9834,967.9844 L338.9834,966.8906 C338.9834,965.1094 340.2334,963.7969 341.9678,963.7969 C342.5459,963.7969 343.1553,963.9531 343.624,964.2031 C344.1084,964.4844 344.2803,964.7031 344.374,965.1094 C344.4365,965.5156 344.4678,965.6406 344.6084,965.7656 C344.749,965.9063 344.9834,966.0156 345.2021,966.0156 C345.4678,966.0156 345.7334,965.875 345.9053,965.6563 C346.0146,965.5 346.0459,965.3125 346.0459,964.8906 L346.0459,963.4688 C346.0459,963.0313 346.0303,962.9063 345.9365,962.75 C345.7803,962.4844 345.499,962.3438 345.2021,962.3438 C344.9053,962.3438 344.7021,962.4375 344.4834,962.75 L344.3115,962.6719 Z " fill="#000000"/><text fill="#000000" font-family="sans-serif" font-size="12" lengthAdjust="spacing" textLength="23" x="355.9678" y="971.1543">Red</text><line style="stroke:#A80036;stroke-width:1.5;" x1="327.9678" x2="380.9678" y1="983" y2="983"/><line style="stroke:#A80036;stroke-width:1.5;" x1="327.9678" x2="380.9678" y1="991" y2="991"/><!--MD5=[3b6333e53553eb74a79779897e822cf9]
class Grab--><rect fill="#FEFECE" filter="url(#f18b6prbv6rmnk)" height="48" id="Grab" style="stroke:#A80036;stroke-width:1.5;" width="61" x="285.9678" y="371"/><ellipse cx="300.9678" cy="387" fill="#ADD1B2" rx="11" ry="11" style="stroke:#A80036;stroke-width:1.0;"/><path d="M303.3115,382.6719 C302.374,382.2344 301.7803,382.0938 300.9053,382.0938 C298.2803,382.0938 296.2803,384.1719 296.2803,386.8906 L296.2803,388.0156 C296.2803,390.5938 298.3896,392.4844 301.2803,392.4844 C302.499,392.4844 303.6553,392.1875 304.4053,391.6406 C304.9834,391.2344 305.3115,390.7813 305.3115,390.3906 C305.3115,389.9375 304.9209,389.5469 304.4521,389.5469 C304.2334,389.5469 304.0303,389.625 303.8428,389.8125 C303.3896,390.2969 303.3896,390.2969 303.2021,390.3906 C302.7803,390.6563 302.0928,390.7813 301.3271,390.7813 C299.2803,390.7813 297.9834,389.6875 297.9834,387.9844 L297.9834,386.8906 C297.9834,385.1094 299.2334,383.7969 300.9678,383.7969 C301.5459,383.7969 302.1553,383.9531 302.624,384.2031 C303.1084,384.4844 303.2803,384.7031 303.374,385.1094 C303.4365,385.5156 303.4678,385.6406 303.6084,385.7656 C303.749,385.9063 303.9834,386.0156 304.2021,386.0156 C304.4678,386.0156 304.7334,385.875 304.9053,385.6563 C305.0146,385.5 305.0459,385.3125 305.0459,384.8906 L305.0459,383.4688 C305.0459,383.0313 305.0303,382.9063 304.9365,382.75 C304.7803,382.4844 304.499,382.3438 304.2021,382.3438 C303.9053,382.3438 303.7021,382.4375 303.4834,382.75 L303.3115,382.6719 Z " fill="#000000"/><text fill="#000000" font-family="sans-serif" font-size="12" lengthAdjust="spacing" textLength="29" x="314.9678" y="391.1543">Grab</text><line style="stroke:#A80036;stroke-width:1.5;" x1="286.9678" x2="345.9678" y1="403" y2="403"/><line style="stroke:#A80036;stroke-width:1.5;" x1="286.9678" x2="345.9678" y1="411" y2="411"/><!--MD5=[9d65f55e1ae89a5b4cf38812aa4a03f3]
class Pile--><rect fill="#FEFECE" filter="url(#f18b6prbv6rmnk)" height="48" id="Pile" style="stroke:#A80036;stroke-width:1.5;" width="52" x="382.4678" y="371"/><ellipse cx="397.4678" cy="387" fill="#ADD1B2" rx="11" ry="11" style="stroke:#A80036;stroke-width:1.0;"/><path d="M399.8115,382.6719 C398.874,382.2344 398.2803,382.0938 397.4053,382.0938 C394.7803,382.0938 392.7803,384.1719 392.7803,386.8906 L392.7803,388.0156 C392.7803,390.5938 394.8896,392.4844 397.7803,392.4844 C398.999,392.4844 400.1553,392.1875 400.9053,391.6406 C401.4834,391.2344 401.8115,390.7813 401.8115,390.3906 C401.8115,389.9375 401.4209,389.5469 400.9521,389.5469 C400.7334,389.5469 400.5303,389.625 400.3428,389.8125 C399.8896,390.2969 399.8896,390.2969 399.7021,390.3906 C399.2803,390.6563 398.5928,390.7813 397.8271,390.7813 C395.7803,390.7813 394.4834,389.6875 394.4834,387.9844 L394.4834,386.8906 C394.4834,385.1094 395.7334,383.7969 397.4678,383.7969 C398.0459,383.7969 398.6553,383.9531 399.124,384.2031 C399.6084,384.4844 399.7803,384.7031 399.874,385.1094 C399.9365,385.5156 399.9678,385.6406 400.1084,385.7656 C400.249,385.9063 400.4834,386.0156 400.7021,386.0156 C400.9678,386.0156 401.2334,385.875 401.4053,385.6563 C401.5146,385.5 401.5459,385.3125 401.5459,384.8906 L401.5459,383.4688 C401.5459,383.0313 401.5303,382.9063 401.4365,382.75 C401.2803,382.4844 400.999,382.3438 400.7021,382.3438 C400.4053,382.3438 400.2021,382.4375 399.9834,382.75 L399.8115,382.6719 Z " fill="#000000"/><text fill="#000000" font-family="sans-serif" font-size="12" lengthAdjust="spacing" textLength="20" x="411.4678" y="391.1543">Pile</text><line style="stroke:#A80036;stroke-width:1.5;" x1="383.4678" x2="433.4678" y1="403" y2="403"/><line style="stroke:#A80036;stroke-width:1.5;" x1="383.4678" x2="433.4678" y1="411" y2="411"/><!--MD5=[1981719fa3982d92ef7fd3f06d73b3e7]
class Move--><rect fill="#FEFECE" filter="url(#f18b6prbv6rmnk)" height="48" id="Move" style="stroke:#A80036;stroke-width:1.5;" width="65" x="81.9681" y="371"/><ellipse cx="96.9681" cy="387" fill="#ADD1B2" rx="11" ry="11" style="stroke:#A80036;stroke-width:1.0;"/><path d="M99.3118,382.6719 C98.3743,382.2344 97.7806,382.0938 96.9056,382.0938 C94.2806,382.0938 92.2806,384.1719 92.2806,386.8906 L92.2806,388.0156 C92.2806,390.5938 94.3899,392.4844 97.2806,392.4844 C98.4993,392.4844 99.6556,392.1875 100.4056,391.6406 C100.9837,391.2344 101.3118,390.7813 101.3118,390.3906 C101.3118,389.9375 100.9212,389.5469 100.4524,389.5469 C100.2337,389.5469 100.0306,389.625 99.8431,389.8125 C99.3899,390.2969 99.3899,390.2969 99.2024,390.3906 C98.7806,390.6563 98.0931,390.7813 97.3274,390.7813 C95.2806,390.7813 93.9837,389.6875 93.9837,387.9844 L93.9837,386.8906 C93.9837,385.1094 95.2337,383.7969 96.9681,383.7969 C97.5462,383.7969 98.1556,383.9531 98.6243,384.2031 C99.1087,384.4844 99.2806,384.7031 99.3743,385.1094 C99.4368,385.5156 99.4681,385.6406 99.6087,385.7656 C99.7493,385.9063 99.9837,386.0156 100.2024,386.0156 C100.4681,386.0156 100.7337,385.875 100.9056,385.6563 C101.0149,385.5 101.0462,385.3125 101.0462,384.8906 L101.0462,383.4688 C101.0462,383.0313 101.0306,382.9063 100.9368,382.75 C100.7806,382.4844 100.4993,382.3438 100.2024,382.3438 C99.9056,382.3438 99.7024,382.4375 99.4837,382.75 L99.3118,382.6719 Z " fill="#000000"/><text fill="#000000" font-family="sans-serif" font-size="12" lengthAdjust="spacing" textLength="33" x="110.9681" y="391.1543">Move</text><line style="stroke:#A80036;stroke-width:1.5;" x1="82.9681" x2="145.9681" y1="403" y2="403"/><line style="stroke:#A80036;stroke-width:1.5;" x1="82.9681" x2="145.9681" y1="411" y2="411"/><!--MD5=[1a47157467d69c83c0a10e9152875283]
class Stack--><rect fill="#FEFECE" filter="url(#f18b6prbv6rmnk)" height="48" id="Stack" style="stroke:#A80036;stroke-width:1.5;" width="65" x="63.9681" y="479"/><ellipse cx="78.9681" cy="495" fill="#ADD1B2" rx="11" ry="11" style="stroke:#A80036;stroke-width:1.0;"/><path d="M81.3118,490.6719 C80.3743,490.2344 79.7806,490.0938 78.9056,490.0938 C76.2806,490.0938 74.2806,492.1719 74.2806,494.8906 L74.2806,496.0156 C74.2806,498.5938 76.3899,500.4844 79.2806,500.4844 C80.4993,500.4844 81.6556,500.1875 82.4056,499.6406 C82.9837,499.2344 83.3118,498.7813 83.3118,498.3906 C83.3118,497.9375 82.9212,497.5469 82.4524,497.5469 C82.2337,497.5469 82.0306,497.625 81.8431,497.8125 C81.3899,498.2969 81.3899,498.2969 81.2024,498.3906 C80.7806,498.6563 80.0931,498.7813 79.3274,498.7813 C77.2806,498.7813 75.9837,497.6875 75.9837,495.9844 L75.9837,494.8906 C75.9837,493.1094 77.2337,491.7969 78.9681,491.7969 C79.5462,491.7969 80.1556,491.9531 80.6243,492.2031 C81.1087,492.4844 81.2806,492.7031 81.3743,493.1094 C81.4368,493.5156 81.4681,493.6406 81.6087,493.7656 C81.7493,493.9063 81.9837,494.0156 82.2024,494.0156 C82.4681,494.0156 82.7337,493.875 82.9056,493.6563 C83.0149,493.5 83.0462,493.3125 83.0462,492.8906 L83.0462,491.4688 C83.0462,491.0313 83.0306,490.9063 82.9368,490.75 C82.7806,490.4844 82.4993,490.3438 82.2024,490.3438 C81.9056,490.3438 81.7024,490.4375 81.4837,490.75 L81.3118,490.6719 Z " fill="#000000"/><text fill="#000000" font-family="sans-serif" font-size="12" lengthAdjust="spacing" textLength="33" x="92.9681" y="499.1543">Stack</text><line style="stroke:#A80036;stroke-width:1.5;" x1="64.9681" x2="127.9681" y1="511" y2="511"/><line style="stroke:#A80036;stroke-width:1.5;" x1="64.9681" x2="127.9681" y1="519" y2="519"/><!--MD5=[66e773952485c2ebd2097a6df943c858]
link Klondike to Card--><path codeLine="2" d="M160.9643,61.5896 C160.9643,61.5896 10.468,174.49 10.468,266 C10.468,266 10.468,266 10.468,396 C10.468,456.381 6,482.187 46.4681,527 C91.0473,576.365 168.4708,596.642 216.9558,604.776 " fill="none" id="Klondike-Card" style="stroke:#A80036;stroke-width:1.0;"/><polygon fill="#A80036" points="230.1108,606.805,221.8257,601.4799,225.1692,606.0429,220.6062,609.3864,230.1108,606.805" style="stroke:#A80036;stroke-width:1.0;"/><line style="stroke:#A80036;stroke-width:1.0;" x1="225.1692" x2="217.2633" y1="606.0429" y2="604.8235"/><polygon fill="#A80036" points="171.1028,55.17,163.8937,55.0003,160.9643,61.5896,168.1734,61.7593,171.1028,55.17" style="stroke:#A80036;stroke-width:1.0;"/><text fill="#000000" font-family="sans-serif" font-size="13" lengthAdjust="spacing" textLength="16" x="206.5592" y="601.5825">52</text><!--MD5=[dab1da9339276fc887094323b3198398]
link Klondike to Goal--><path codeLine="3" d="M244.4668,63.4058 C244.4668,63.4058 273.9988,92.391 287.3798,105.524 " fill="none" id="Klondike-Goal" style="stroke:#A80036;stroke-width:1.0;"/><polygon fill="#A80036" points="296.7068,114.678,293.085,105.5193,293.1382,111.1759,287.4815,111.229,296.7068,114.678" style="stroke:#A80036;stroke-width:1.0;"/><line style="stroke:#A80036;stroke-width:1.0;" x1="293.1382" x2="287.4288" y1="111.1759" y2="105.5725"/><polygon fill="#A80036" points="235.9028,55,237.3828,62.0576,244.4668,63.4058,242.9867,56.3482,235.9028,55" style="stroke:#A80036;stroke-width:1.0;"/><text fill="#000000" font-family="sans-serif" font-size="13" lengthAdjust="spacing" textLength="8" x="281.94" y="104.0045">1</text><!--MD5=[fb24d2263bbe8bbe5e595afa25ff4aec]
link Klondike to Board--><path codeLine="4" d="M212.858,67.1943 C212.858,67.1943 215.3038,288.625 216.0688,357.896 " fill="none" id="Klondike-Board" style="stroke:#A80036;stroke-width:1.0;"/><polygon fill="#A80036" points="216.2138,370.998,220.1136,361.9542,216.1583,365.9983,212.1141,362.043,216.2138,370.998" style="stroke:#A80036;stroke-width:1.0;"/><line style="stroke:#A80036;stroke-width:1.0;" x1="216.1583" x2="216.0703" y1="365.9983" y2="357.9985"/><polygon fill="#A80036" points="212.7248,55.195,208.7916,61.239,212.858,67.1943,216.7911,61.1502,212.7248,55.195" style="stroke:#A80036;stroke-width:1.0;"/><text fill="#000000" font-family="sans-serif" font-size="13" lengthAdjust="spacing" textLength="8" x="207.1237" y="360.0095">1</text><!--MD5=[db49cb27e23f440166ed6bf82d53fab8]
link Board to SuitPile--><path codeLine="5" d="M261.5026,416.1041 C261.5026,416.1041 266.5488,418.217 268.4678,419 C327.2018,442.945 395.6938,468.146 440.8978,484.41 " fill="none" id="Board-SuitPile" style="stroke:#A80036;stroke-width:1.0;"/><polygon fill="#A80036" points="453.2868,488.853,446.1656,482.0494,448.5803,487.1649,443.4648,489.5797,453.2868,488.853" style="stroke:#A80036;stroke-width:1.0;"/><line style="stroke:#A80036;stroke-width:1.0;" x1="448.5803" x2="441.0508" y1="487.1649" y2="484.4645"/><polygon fill="#A80036" points="250.4708,411.382,254.4127,417.4203,261.5026,416.1041,257.5607,410.0658,250.4708,411.382" style="stroke:#A80036;stroke-width:1.0;"/><text fill="#000000" font-family="sans-serif" font-size="13" lengthAdjust="spacing" textLength="8" x="437.4366" y="481.8061">4</text><!--MD5=[b06ddc870dc99cad83f50095c34f5ffc]
link Board to StackPile--><path codeLine="6" d="M213.1716,430.947 C213.1716,430.947 210.9078,454.94 209.8908,465.724 " fill="none" id="Board-StackPile" style="stroke:#A80036;stroke-width:1.0;"/><polygon fill="#A80036" points="208.6678,478.678,213.4948,470.0931,209.137,473.7001,205.5301,469.3423,208.6678,478.678" style="stroke:#A80036;stroke-width:1.0;"/><line style="stroke:#A80036;stroke-width:1.0;" x1="209.137" x2="209.8893" y1="473.7001" y2="465.736"/><polygon fill="#A80036" points="214.2978,419,209.7524,424.5981,213.1716,430.947,217.7171,425.3489,214.2978,419" style="stroke:#A80036;stroke-width:1.0;"/><text fill="#000000" font-family="sans-serif" font-size="13" lengthAdjust="spacing" textLength="8" x="200.229" y="468.0045">7</text><!--MD5=[2f107ca59039f23e25b0978f5f7f00af]
link Board to Deck--><path codeLine="7" d="M246.1406,427.7698 C246.1406,427.7698 272.5358,456.032 284.5108,468.854 " fill="none" id="Board-Deck" style="stroke:#A80036;stroke-width:1.0;"/><polygon fill="#A80036" points="293.6868,478.678,290.4676,469.3701,290.2742,475.0237,284.6206,474.8303,293.6868,478.678" style="stroke:#A80036;stroke-width:1.0;"/><line style="stroke:#A80036;stroke-width:1.0;" x1="290.2742" x2="284.8133" y1="475.0237" y2="469.1775"/><polygon fill="#A80036" points="237.9498,419,239.1219,426.1152,246.1406,427.7698,244.9685,420.6546,237.9498,419" style="stroke:#A80036;stroke-width:1.0;"/><text fill="#000000" font-family="sans-serif" font-size="13" lengthAdjust="spacing" textLength="8" x="279.4027" y="468.0045">1</text><!--MD5=[9ea24298febf24697f9a75989c4b4d86]
link SuitPile to Card--><path codeLine="8" d="M442.3607,526.1721 C442.3607,526.1721 341.7658,572.532 302.6358,590.566 " fill="none" id="SuitPile-Card" style="stroke:#A80036;stroke-width:1.0;"/><polygon fill="#A80036" points="290.6488,596.09,300.4967,595.9554,295.1896,593.997,297.148,588.69,290.6488,596.09" style="stroke:#A80036;stroke-width:1.0;"/><line style="stroke:#A80036;stroke-width:1.0;" x1="295.1896" x2="302.4553" y1="593.997" y2="590.649"/><polygon fill="none" points="453.2588,521.149,446.1354,520.0278,442.3607,526.1721,449.4841,527.2932,453.2588,521.149" style="stroke:#A80036;stroke-width:1.0;"/><!--MD5=[d334cc2dfacd1137c36590d4c46d952a]
link Goal to Action--><path codeLine="9" d="M320.4678,163.11 C320.4678,178.371 320.4678,198.937 320.4678,217.67 " fill="none" id="Goal-to-Action" style="stroke:#A80036;stroke-width:1.0;stroke-dasharray:7.0,7.0;"/><polygon fill="#A80036" points="320.4678,222.9,324.4678,213.9,320.4678,217.9,316.4678,213.9,320.4678,222.9" style="stroke:#A80036;stroke-width:1.0;"/><!--MD5=[37ec50c5955c4025287187c583adc383]
link Goal to SuitPile--><path codeLine="10" d="M344.2038,163.008 C359.4988,178.802 378.9758,200.841 392.4678,223 C443.5788,306.939 473.0488,421.346 484.6638,473.722 " fill="none" id="Goal-to-SuitPile" style="stroke:#A80036;stroke-width:1.0;"/><polygon fill="#A80036" points="485.7968,478.895,487.7776,469.2474,484.7265,474.0109,479.963,470.9598,485.7968,478.895" style="stroke:#A80036;stroke-width:1.0;"/><!--MD5=[c905f1b8e8f3426bca82a4905da2e16e]
link Deck to Card--><path codeLine="11" d="M298.0069,537.6515 C298.0069,537.6515 284.7248,563.251 278.7408,574.784 " fill="none" id="Deck-Card" style="stroke:#A80036;stroke-width:1.0;"/><polygon fill="#A80036" points="272.5688,586.678,280.2644,580.5317,274.8716,582.2399,273.1634,576.8471,272.5688,586.678" style="stroke:#A80036;stroke-width:1.0;"/><line style="stroke:#A80036;stroke-width:1.0;" x1="274.8716" x2="278.5563" y1="582.2399" y2="575.1395"/><polygon fill="#A80036" points="303.5338,527,297.2199,530.4835,298.0069,537.6515,304.3208,534.168,303.5338,527" style="stroke:#A80036;stroke-width:1.0;"/><!--MD5=[dab4fdc688f775bd2cd14c67a04f3f7b]
link Card to Rank--><path codeLine="12" d="M245.7104,646.0085 C245.7104,646.0085 234.8738,670.979 229.9108,682.415 " fill="none" id="Card-Rank" style="stroke:#A80036;stroke-width:1.0;"/><polygon fill="#A80036" points="224.5888,694.678,231.8405,688.0137,226.5789,690.0911,224.5015,684.8295,224.5888,694.678" style="stroke:#A80036;stroke-width:1.0;"/><line style="stroke:#A80036;stroke-width:1.0;" x1="226.5789" x2="229.7638" y1="690.0911" y2="682.753"/><polygon fill="#A80036" points="250.4868,635,244.4291,638.9121,245.7104,646.0085,251.7681,642.0963,250.4868,635" style="stroke:#A80036;stroke-width:1.0;"/><text fill="#000000" font-family="sans-serif" font-size="13" lengthAdjust="spacing" textLength="8" x="218.0808" y="684.0045">1</text><!--MD5=[01ae9f68263e6bc4031c0aece6e20929]
link Card to Suit--><path codeLine="13" d="M275.2261,646.0085 C275.2261,646.0085 286.0628,670.979 291.0258,682.415 " fill="none" id="Card-Suit" style="stroke:#A80036;stroke-width:1.0;"/><polygon fill="#A80036" points="296.3478,694.678,296.435,684.8295,294.3576,690.0911,289.096,688.0137,296.3478,694.678" style="stroke:#A80036;stroke-width:1.0;"/><line style="stroke:#A80036;stroke-width:1.0;" x1="294.3576" x2="291.1718" y1="690.0911" y2="682.753"/><polygon fill="#A80036" points="270.4498,635,269.1684,642.0963,275.2261,646.0085,276.5074,638.9121,270.4498,635" style="stroke:#A80036;stroke-width:1.0;"/><text fill="#000000" font-family="sans-serif" font-size="13" lengthAdjust="spacing" textLength="8" x="284.906" y="684.0045">1</text><!--MD5=[177767f5f369ddd7a2766db2fec86924]
link Suit to Color--><path codeLine="14" d="M306.4678,755.11 C306.4678,755.11 306.4678,778.378 306.4678,789.763 " fill="none" id="Suit-Color" style="stroke:#A80036;stroke-width:1.0;"/><polygon fill="#A80036" points="306.4678,802.9,310.4678,793.9,306.4678,797.9,302.4678,793.9,306.4678,802.9" style="stroke:#A80036;stroke-width:1.0;"/><line style="stroke:#A80036;stroke-width:1.0;" x1="306.4678" x2="306.4678" y1="797.9" y2="789.9"/><polygon fill="#A80036" points="306.4678,743.11,302.4678,749.11,306.4678,755.11,310.4678,749.11,306.4678,743.11" style="stroke:#A80036;stroke-width:1.0;"/><text fill="#000000" font-family="sans-serif" font-size="13" lengthAdjust="spacing" textLength="8" x="297.8553" y="792.0758">1</text><!--MD5=[af66b58f2992f2e4db4f382db65f0624]
reverse link Color to Black--><path codeLine="15" d="M306.4678,892 C306.4678,892 286.7058,926.4786 272.8108,950.7214 " fill="none" id="Color-backto-Black" style="stroke:#A80036;stroke-width:1.0;"/><!--MD5=[fab54b5999e935266d298ad54749f91a]
reverse link Color to Red--><path codeLine="16" d="M306.4678,892 C306.4678,892 326.6508,926.4786 340.8418,950.7214 " fill="none" id="Color-backto-Red" style="stroke:#A80036;stroke-width:1.0;"/><!--MD5=[9c4551d8728367f4aa41552ecbf8b304]
reverse link Action to Grab--><path codeLine="17" d="M314.4678,312 C314.4678,312 315.3088,346.479 315.8998,370.721 " fill="none" id="Action-backto-Grab" style="stroke:#A80036;stroke-width:1.0;"/><!--MD5=[b496b658d6e73da48288f8c423a47410]
reverse link Action to Pile--><path codeLine="18" d="M314.4678,312 C314.4678,312 354.4698,346.895 382.2838,371.158 " fill="none" id="Action-backto-Pile" style="stroke:#A80036;stroke-width:1.0;"/><!--MD5=[41de15b107b23d1b7c92311761b50ccb]
reverse link Action to Move--><path codeLine="19" d="M314.4678,312 C314.4678,312 230.3688,342.909 164.4678,371 C158.8428,373.398 152.9048,376.034 147.1628,378.64 " fill="none" id="Action-backto-Move" style="stroke:#A80036;stroke-width:1.0;"/><!--MD5=[21306de2a9755abebb01718afd6dca9b]
link Stack to Card--><path codeLine="20" d="M139.3399,531.7099 C139.3399,531.7099 195.0328,567.706 219.0018,583.199 " fill="none" id="Stack-Card" style="stroke:#A80036;stroke-width:1.0;"/><polygon fill="#A80036" points="230.2198,590.449,224.8325,582.2042,226.0205,587.7349,220.4899,588.9229,230.2198,590.449" style="stroke:#A80036;stroke-width:1.0;"/><line style="stroke:#A80036;stroke-width:1.0;" x1="226.0205" x2="219.3018" y1="587.7349" y2="583.3925"/><polygon fill="#A80036" points="129.2618,525.196,132.1295,531.8123,139.3399,531.7099,136.4721,525.0936,129.2618,525.196" style="stroke:#A80036;stroke-width:1.0;"/><!--MD5=[aa7e4d7ed0bfb911076b092074061a54]
link Grab to Deck--><path codeLine="21" d="M316.2508,419 C316.0998,435.003 315.8978,456.446 315.7368,473.528 " fill="none" id="Grab-to-Deck" style="stroke:#A80036;stroke-width:1.0;stroke-dasharray:7.0,7.0;"/><polygon fill="#A80036" points="315.6878,478.678,319.7725,469.7161,315.7349,473.6782,311.7728,469.6407,315.6878,478.678" style="stroke:#A80036;stroke-width:1.0;"/><!--MD5=[2e101bc79960a390b7c3399f0fda9d17]
link Pile to SuitPile--><path codeLine="22" d="M426.2608,419 C438.8538,435.279 455.8018,457.187 469.1228,474.408 " fill="none" id="Pile-to-SuitPile" style="stroke:#A80036;stroke-width:1.0;stroke-dasharray:7.0,7.0;"/><polygon fill="#A80036" points="472.4268,478.678,470.086,469.1113,469.3684,474.7225,463.7572,474.0048,472.4268,478.678" style="stroke:#A80036;stroke-width:1.0;"/><!--MD5=[1686cafc001cbb054836a454f368ddc9]
link Pile to Card--><path codeLine="23" d="M404.8248,419.106 C399.5838,446.781 387.8538,493.585 364.4678,527 C346.3378,552.905 317.8648,574.836 295.2908,589.637 " fill="none" id="Pile-to-Card" style="stroke:#A80036;stroke-width:1.0;stroke-dasharray:7.0,7.0;"/><polygon fill="#A80036" points="290.8598,592.501,300.5898,590.9755,295.0592,589.7871,296.2475,584.2565,290.8598,592.501" style="stroke:#A80036;stroke-width:1.0;"/><!--MD5=[6c77ec128121178e20fed2ad6a7e830d]
link Move to Stack--><path codeLine="24" d="M110.5628,419 C107.8449,435.003 104.2036,456.446 101.3029,473.528 " fill="none" id="Move-to-Stack" style="stroke:#A80036;stroke-width:1.0;stroke-dasharray:7.0,7.0;"/><polygon fill="#A80036" points="100.4283,478.678,105.8787,470.4748,101.2654,473.7486,97.9916,469.1353,100.4283,478.678" style="stroke:#A80036;stroke-width:1.0;"/><!--MD5=[1b68cfbb2cf92a2d2acb940f5266b841]
link Move to StackPile--><path codeLine="25" d="M134.4308,419 C148.6788,435.417 167.8968,457.559 182.8988,474.844 " fill="none" id="Move-to-StackPile" style="stroke:#A80036;stroke-width:1.0;stroke-dasharray:7.0,7.0;"/><polygon fill="#A80036" points="186.2268,478.678,183.3482,469.2592,182.9493,474.902,177.3066,474.5031,186.2268,478.678" style="stroke:#A80036;stroke-width:1.0;"/><!--MD5=[edc2170c18d4ef06a903fa0b1dc41c7e]
link StackPile to Card--><path codeLine="26" d="M223.6308,537.693 C223.6308,537.693 236.6528,563.251 242.5278,574.784 " fill="none" id="StackPile-Card" style="stroke:#A80036;stroke-width:1.0;"/><polygon fill="#A80036" points="248.5868,586.678,248.0666,576.8429,246.3176,582.2226,240.9379,580.4736,248.5868,586.678" style="stroke:#A80036;stroke-width:1.0;"/><line style="stroke:#A80036;stroke-width:1.0;" x1="246.3176" x2="242.6863" y1="582.2226" y2="575.095"/><polygon fill="none" points="218.1848,527,217.3435,534.1619,223.6308,537.693,224.4721,530.5311,218.1848,527" style="stroke:#A80036;stroke-width:1.0;"/><!--MD5=[b6c431bd655e75f9972865c64d14e720]
@startuml
skinparam groupInheritance 2
Klondike *- -> "52" Card
Klondike *- -> "1" Goal
Klondike *- -> "1" Board
Board *- -> "4" SuitPile
Board *- -> "7" StackPile
Board *- -> "1" Deck
SuitPile o- -> Card
Goal ..> Action
Goal - -> SuitPile
Deck *- -> Card
Card *- -> "1" Rank
Card *- -> "1" Suit
Suit *- -> "1" Color
Color <|- - Black
Color <|- - Red
Action <|- - Grab
Action <|- - Pile
Action <|- - Move
Stack *- -> Card
Grab ..> Deck
Pile ..> SuitPile
Pile ..> Card
Move ..> Stack
Move ..> StackPile
StackPile o- -> Card
@enduml

PlantUML version 1.2022.1(Tue Feb 01 18:19:58 UTC 2022)
(GPL source distribution)
Java Runtime: Java(TM) SE Runtime Environment
JVM: Java HotSpot(TM) 64-Bit Server VM
Default Encoding: UTF-8
Language: en
Country: US
--></g></svg>