<?xml version="1.0" encoding="UTF-8" standalone="no"?>
<svg xmlns="http://www.w3.org/2000/svg" xmlns:xlink="http://www.w3.org/1999/xlink" contentScriptType="application/ecmascript" contentStyleType="text/css" height="1121px" preserveAspectRatio="none" style="width:557px;height:1121px;background:#FFFFFF;" version="1.1" viewBox="0 0 557 1121" width="557px" zoomAndPan="magnify"><defs><filter height="300%" id="f1r4noqfo9vdd4" width="300%" x="-1" y="-1"><feGaussianBlur result="blurOut" stdDeviation="2.0"/><feColorMatrix in="blurOut" result="blurOut2" type="matrix" values="0 0 0 0 0 0 0 0 0 0 0 0 0 0 0 0 0 0 .4 0"/><feOffset dx="4.0" dy="4.0" in="blurOut2" result="blurOut3"/><feBlend in="SourceGraphic" in2="blurOut3" mode="normal"/></filter></defs><g><!--MD5=[ce135f397e71694d574a1221b16fe9d6]
class Klondike--><rect fill="#FEFECE" filter="url(#f1r4noqfo9vdd4)" height="48" id="Klondike" style="stroke:#A80036;stroke-width:1.5;" width="84" x="187" y="7"/><ellipse cx="202" cy="23" fill="#ADD1B2" rx="11" ry="11" style="stroke:#A80036;stroke-width:1.0;"/><path d="M204.3438,18.6719 C203.4063,18.2344 202.8125,18.0938 201.9375,18.0938 C199.3125,18.0938 197.3125,20.1719 197.3125,22.8906 L197.3125,24.0156 C197.3125,26.5938 199.4219,28.4844 202.3125,28.4844 C203.5313,28.4844 204.6875,28.1875 205.4375,27.6406 C206.0156,27.2344 206.3438,26.7813 206.3438,26.3906 C206.3438,25.9375 205.9531,25.5469 205.4844,25.5469 C205.2656,25.5469 205.0625,25.625 204.875,25.8125 C204.4219,26.2969 204.4219,26.2969 204.2344,26.3906 C203.8125,26.6563 203.125,26.7813 202.3594,26.7813 C200.3125,26.7813 199.0156,25.6875 199.0156,23.9844 L199.0156,22.8906 C199.0156,21.1094 200.2656,19.7969 202,19.7969 C202.5781,19.7969 203.1875,19.9531 203.6563,20.2031 C204.1406,20.4844 204.3125,20.7031 204.4063,21.1094 C204.4688,21.5156 204.5,21.6406 204.6406,21.7656 C204.7813,21.9063 205.0156,22.0156 205.2344,22.0156 C205.5,22.0156 205.7656,21.875 205.9375,21.6563 C206.0469,21.5 206.0781,21.3125 206.0781,20.8906 L206.0781,19.4688 C206.0781,19.0313 206.0625,18.9063 205.9688,18.75 C205.8125,18.4844 205.5313,18.3438 205.2344,18.3438 C204.9375,18.3438 204.7344,18.4375 204.5156,18.75 L204.3438,18.6719 Z " fill="#000000"/><text fill="#000000" font-family="sans-serif" font-size="12" lengthAdjust="spacing" textLength="52" x="216" y="27.1543">Klondike</text><line style="stroke:#A80036;stroke-width:1.5;" x1="188" x2="270" y1="39" y2="39"/><line style="stroke:#A80036;stroke-width:1.5;" x1="188" x2="270" y1="47" y2="47"/><!--MD5=[5e305716458bbdabbd2d7f572ed2bae2]
class Card--><rect fill="#FEFECE" filter="url(#f1r4noqfo9vdd4)" height="48" id="Card" style="stroke:#A80036;stroke-width:1.5;" width="60" x="194" y="695"/><ellipse cx="209" cy="711" fill="#ADD1B2" rx="11" ry="11" style="stroke:#A80036;stroke-width:1.0;"/><path d="M211.3438,706.6719 C210.4063,706.2344 209.8125,706.0938 208.9375,706.0938 C206.3125,706.0938 204.3125,708.1719 204.3125,710.8906 L204.3125,712.0156 C204.3125,714.5938 206.4219,716.4844 209.3125,716.4844 C210.5313,716.4844 211.6875,716.1875 212.4375,715.6406 C213.0156,715.2344 213.3438,714.7813 213.3438,714.3906 C213.3438,713.9375 212.9531,713.5469 212.4844,713.5469 C212.2656,713.5469 212.0625,713.625 211.875,713.8125 C211.4219,714.2969 211.4219,714.2969 211.2344,714.3906 C210.8125,714.6563 210.125,714.7813 209.3594,714.7813 C207.3125,714.7813 206.0156,713.6875 206.0156,711.9844 L206.0156,710.8906 C206.0156,709.1094 207.2656,707.7969 209,707.7969 C209.5781,707.7969 210.1875,707.9531 210.6563,708.2031 C211.1406,708.4844 211.3125,708.7031 211.4063,709.1094 C211.4688,709.5156 211.5,709.6406 211.6406,709.7656 C211.7813,709.9063 212.0156,710.0156 212.2344,710.0156 C212.5,710.0156 212.7656,709.875 212.9375,709.6563 C213.0469,709.5 213.0781,709.3125 213.0781,708.8906 L213.0781,707.4688 C213.0781,707.0313 213.0625,706.9063 212.9688,706.75 C212.8125,706.4844 212.5313,706.3438 212.2344,706.3438 C211.9375,706.3438 211.7344,706.4375 211.5156,706.75 L211.3438,706.6719 Z " fill="#000000"/><text fill="#000000" font-family="sans-serif" font-size="12" lengthAdjust="spacing" textLength="28" x="223" y="715.1543">Card</text><line style="stroke:#A80036;stroke-width:1.5;" x1="195" x2="253" y1="727" y2="727"/><line style="stroke:#A80036;stroke-width:1.5;" x1="195" x2="253" y1="735" y2="735"/><!--MD5=[3c38f93b7758508cbdb506a313595fcb]
class SuitPile--><rect fill="#FEFECE" filter="url(#f1r4noqfo9vdd4)" height="48" id="SuitPile" style="stroke:#A80036;stroke-width:1.5;" width="74" x="123" y="479"/><ellipse cx="138" cy="495" fill="#ADD1B2" rx="11" ry="11" style="stroke:#A80036;stroke-width:1.0;"/><path d="M140.3438,490.6719 C139.4063,490.2344 138.8125,490.0938 137.9375,490.0938 C135.3125,490.0938 133.3125,492.1719 133.3125,494.8906 L133.3125,496.0156 C133.3125,498.5938 135.4219,500.4844 138.3125,500.4844 C139.5313,500.4844 140.6875,500.1875 141.4375,499.6406 C142.0156,499.2344 142.3438,498.7813 142.3438,498.3906 C142.3438,497.9375 141.9531,497.5469 141.4844,497.5469 C141.2656,497.5469 141.0625,497.625 140.875,497.8125 C140.4219,498.2969 140.4219,498.2969 140.2344,498.3906 C139.8125,498.6563 139.125,498.7813 138.3594,498.7813 C136.3125,498.7813 135.0156,497.6875 135.0156,495.9844 L135.0156,494.8906 C135.0156,493.1094 136.2656,491.7969 138,491.7969 C138.5781,491.7969 139.1875,491.9531 139.6563,492.2031 C140.1406,492.4844 140.3125,492.7031 140.4063,493.1094 C140.4688,493.5156 140.5,493.6406 140.6406,493.7656 C140.7813,493.9063 141.0156,494.0156 141.2344,494.0156 C141.5,494.0156 141.7656,493.875 141.9375,493.6563 C142.0469,493.5 142.0781,493.3125 142.0781,492.8906 L142.0781,491.4688 C142.0781,491.0313 142.0625,490.9063 141.9688,490.75 C141.8125,490.4844 141.5313,490.3438 141.2344,490.3438 C140.9375,490.3438 140.7344,490.4375 140.5156,490.75 L140.3438,490.6719 Z " fill="#000000"/><text fill="#000000" font-family="sans-serif" font-size="12" lengthAdjust="spacing" textLength="42" x="152" y="499.1543">SuitPile</text><line style="stroke:#A80036;stroke-width:1.5;" x1="124" x2="196" y1="511" y2="511"/><line style="stroke:#A80036;stroke-width:1.5;" x1="124" x2="196" y1="519" y2="519"/><!--MD5=[2ced64839d23cc87c58de11aae4f5563]
class StackPile--><rect fill="#FEFECE" filter="url(#f1r4noqfo9vdd4)" height="48" id="StackPile" style="stroke:#A80036;stroke-width:1.5;" width="85" x="327.5" y="479"/><ellipse cx="342.5" cy="495" fill="#ADD1B2" rx="11" ry="11" style="stroke:#A80036;stroke-width:1.0;"/><path d="M344.8438,490.6719 C343.9063,490.2344 343.3125,490.0938 342.4375,490.0938 C339.8125,490.0938 337.8125,492.1719 337.8125,494.8906 L337.8125,496.0156 C337.8125,498.5938 339.9219,500.4844 342.8125,500.4844 C344.0313,500.4844 345.1875,500.1875 345.9375,499.6406 C346.5156,499.2344 346.8438,498.7813 346.8438,498.3906 C346.8438,497.9375 346.4531,497.5469 345.9844,497.5469 C345.7656,497.5469 345.5625,497.625 345.375,497.8125 C344.9219,498.2969 344.9219,498.2969 344.7344,498.3906 C344.3125,498.6563 343.625,498.7813 342.8594,498.7813 C340.8125,498.7813 339.5156,497.6875 339.5156,495.9844 L339.5156,494.8906 C339.5156,493.1094 340.7656,491.7969 342.5,491.7969 C343.0781,491.7969 343.6875,491.9531 344.1563,492.2031 C344.6406,492.4844 344.8125,492.7031 344.9063,493.1094 C344.9688,493.5156 345,493.6406 345.1406,493.7656 C345.2813,493.9063 345.5156,494.0156 345.7344,494.0156 C346,494.0156 346.2656,493.875 346.4375,493.6563 C346.5469,493.5 346.5781,493.3125 346.5781,492.8906 L346.5781,491.4688 C346.5781,491.0313 346.5625,490.9063 346.4688,490.75 C346.3125,490.4844 346.0313,490.3438 345.7344,490.3438 C345.4375,490.3438 345.2344,490.4375 345.0156,490.75 L344.8438,490.6719 Z " fill="#000000"/><text fill="#000000" font-family="sans-serif" font-size="12" lengthAdjust="spacing" textLength="53" x="356.5" y="499.1543">StackPile</text><line style="stroke:#A80036;stroke-width:1.5;" x1="328.5" x2="411.5" y1="511" y2="511"/><line style="stroke:#A80036;stroke-width:1.5;" x1="328.5" x2="411.5" y1="519" y2="519"/><!--MD5=[30299a58ba6b78debaaed5ddbb42f29a]
class Deck--><rect fill="#FEFECE" filter="url(#f1r4noqfo9vdd4)" height="48" id="Deck" style="stroke:#A80036;stroke-width:1.5;" width="63" x="459.5" y="479"/><ellipse cx="474.5" cy="495" fill="#ADD1B2" rx="11" ry="11" style="stroke:#A80036;stroke-width:1.0;"/><path d="M476.8438,490.6719 C475.9063,490.2344 475.3125,490.0938 474.4375,490.0938 C471.8125,490.0938 469.8125,492.1719 469.8125,494.8906 L469.8125,496.0156 C469.8125,498.5938 471.9219,500.4844 474.8125,500.4844 C476.0313,500.4844 477.1875,500.1875 477.9375,499.6406 C478.5156,499.2344 478.8438,498.7813 478.8438,498.3906 C478.8438,497.9375 478.4531,497.5469 477.9844,497.5469 C477.7656,497.5469 477.5625,497.625 477.375,497.8125 C476.9219,498.2969 476.9219,498.2969 476.7344,498.3906 C476.3125,498.6563 475.625,498.7813 474.8594,498.7813 C472.8125,498.7813 471.5156,497.6875 471.5156,495.9844 L471.5156,494.8906 C471.5156,493.1094 472.7656,491.7969 474.5,491.7969 C475.0781,491.7969 475.6875,491.9531 476.1563,492.2031 C476.6406,492.4844 476.8125,492.7031 476.9063,493.1094 C476.9688,493.5156 477,493.6406 477.1406,493.7656 C477.2813,493.9063 477.5156,494.0156 477.7344,494.0156 C478,494.0156 478.2656,493.875 478.4375,493.6563 C478.5469,493.5 478.5781,493.3125 478.5781,492.8906 L478.5781,491.4688 C478.5781,491.0313 478.5625,490.9063 478.4688,490.75 C478.3125,490.4844 478.0313,490.3438 477.7344,490.3438 C477.4375,490.3438 477.2344,490.4375 477.0156,490.75 L476.8438,490.6719 Z " fill="#000000"/><text fill="#000000" font-family="sans-serif" font-size="12" lengthAdjust="spacing" textLength="31" x="488.5" y="499.1543">Deck</text><line style="stroke:#A80036;stroke-width:1.5;" x1="460.5" x2="521.5" y1="511" y2="511"/><line style="stroke:#A80036;stroke-width:1.5;" x1="460.5" x2="521.5" y1="519" y2="519"/><!--MD5=[0992d3fdc9d3d7c02b735131bb70871d]
class Goal--><rect fill="#FEFECE" filter="url(#f1r4noqfo9vdd4)" height="48" id="Goal" style="stroke:#A80036;stroke-width:1.5;" width="59" x="199.5" y="115"/><ellipse cx="214.5" cy="131" fill="#ADD1B2" rx="11" ry="11" style="stroke:#A80036;stroke-width:1.0;"/><path d="M216.8438,126.6719 C215.9063,126.2344 215.3125,126.0938 214.4375,126.0938 C211.8125,126.0938 209.8125,128.1719 209.8125,130.8906 L209.8125,132.0156 C209.8125,134.5938 211.9219,136.4844 214.8125,136.4844 C216.0313,136.4844 217.1875,136.1875 217.9375,135.6406 C218.5156,135.2344 218.8438,134.7813 218.8438,134.3906 C218.8438,133.9375 218.4531,133.5469 217.9844,133.5469 C217.7656,133.5469 217.5625,133.625 217.375,133.8125 C216.9219,134.2969 216.9219,134.2969 216.7344,134.3906 C216.3125,134.6563 215.625,134.7813 214.8594,134.7813 C212.8125,134.7813 211.5156,133.6875 211.5156,131.9844 L211.5156,130.8906 C211.5156,129.1094 212.7656,127.7969 214.5,127.7969 C215.0781,127.7969 215.6875,127.9531 216.1563,128.2031 C216.6406,128.4844 216.8125,128.7031 216.9063,129.1094 C216.9688,129.5156 217,129.6406 217.1406,129.7656 C217.2813,129.9063 217.5156,130.0156 217.7344,130.0156 C218,130.0156 218.2656,129.875 218.4375,129.6563 C218.5469,129.5 218.5781,129.3125 218.5781,128.8906 L218.5781,127.4688 C218.5781,127.0313 218.5625,126.9063 218.4688,126.75 C218.3125,126.4844 218.0313,126.3438 217.7344,126.3438 C217.4375,126.3438 217.2344,126.4375 217.0156,126.75 L216.8438,126.6719 Z " fill="#000000"/><text fill="#000000" font-family="sans-serif" font-size="12" lengthAdjust="spacing" textLength="27" x="228.5" y="135.1543">Goal</text><line style="stroke:#A80036;stroke-width:1.5;" x1="200.5" x2="257.5" y1="147" y2="147"/><line style="stroke:#A80036;stroke-width:1.5;" x1="200.5" x2="257.5" y1="155" y2="155"/><!--MD5=[f8e7078f77c005d15b486c0c98deb1e6]
class Action--><rect fill="#FEFECE" filter="url(#f1r4noqfo9vdd4)" height="48" id="Action" style="stroke:#A80036;stroke-width:1.5;" width="69" x="243.5" y="243"/><ellipse cx="258.5" cy="259" fill="#ADD1B2" rx="11" ry="11" style="stroke:#A80036;stroke-width:1.0;"/><path d="M260.8438,254.6719 C259.9063,254.2344 259.3125,254.0938 258.4375,254.0938 C255.8125,254.0938 253.8125,256.1719 253.8125,258.8906 L253.8125,260.0156 C253.8125,262.5938 255.9219,264.4844 258.8125,264.4844 C260.0313,264.4844 261.1875,264.1875 261.9375,263.6406 C262.5156,263.2344 262.8438,262.7813 262.8438,262.3906 C262.8438,261.9375 262.4531,261.5469 261.9844,261.5469 C261.7656,261.5469 261.5625,261.625 261.375,261.8125 C260.9219,262.2969 260.9219,262.2969 260.7344,262.3906 C260.3125,262.6563 259.625,262.7813 258.8594,262.7813 C256.8125,262.7813 255.5156,261.6875 255.5156,259.9844 L255.5156,258.8906 C255.5156,257.1094 256.7656,255.7969 258.5,255.7969 C259.0781,255.7969 259.6875,255.9531 260.1563,256.2031 C260.6406,256.4844 260.8125,256.7031 260.9063,257.1094 C260.9688,257.5156 261,257.6406 261.1406,257.7656 C261.2813,257.9063 261.5156,258.0156 261.7344,258.0156 C262,258.0156 262.2656,257.875 262.4375,257.6563 C262.5469,257.5 262.5781,257.3125 262.5781,256.8906 L262.5781,255.4688 C262.5781,255.0313 262.5625,254.9063 262.4688,254.75 C262.3125,254.4844 262.0313,254.3438 261.7344,254.3438 C261.4375,254.3438 261.2344,254.4375 261.0156,254.75 L260.8438,254.6719 Z " fill="#000000"/><text fill="#000000" font-family="sans-serif" font-size="12" lengthAdjust="spacing" textLength="37" x="272.5" y="263.1543">Action</text><line style="stroke:#A80036;stroke-width:1.5;" x1="244.5" x2="311.5" y1="275" y2="275"/><line style="stroke:#A80036;stroke-width:1.5;" x1="244.5" x2="311.5" y1="283" y2="283"/><polygon fill="none" points="286,291,298.9653,307.7601,285.6838,312.1873" style="stroke:#A80036;stroke-width:1.0;"/><line style="stroke:#A80036;stroke-width:1.0;" x1="292.3246" x2="293" y1="309.9737" y2="312"/><line style="stroke:#A80036;stroke-width:1.0;" x1="268.8579" x2="259.392" y1="243" y2="218.15"/><!--MD5=[0f690a215a17a0cf4b9f948ca5dd1b3e]
class Rank--><rect fill="#FEFECE" filter="url(#f1r4noqfo9vdd4)" height="48" id="Rank" style="stroke:#A80036;stroke-width:1.5;" width="60" x="148" y="803"/><ellipse cx="163" cy="819" fill="#ADD1B2" rx="11" ry="11" style="stroke:#A80036;stroke-width:1.0;"/><path d="M165.3438,814.6719 C164.4063,814.2344 163.8125,814.0938 162.9375,814.0938 C160.3125,814.0938 158.3125,816.1719 158.3125,818.8906 L158.3125,820.0156 C158.3125,822.5938 160.4219,824.4844 163.3125,824.4844 C164.5313,824.4844 165.6875,824.1875 166.4375,823.6406 C167.0156,823.2344 167.3438,822.7813 167.3438,822.3906 C167.3438,821.9375 166.9531,821.5469 166.4844,821.5469 C166.2656,821.5469 166.0625,821.625 165.875,821.8125 C165.4219,822.2969 165.4219,822.2969 165.2344,822.3906 C164.8125,822.6563 164.125,822.7813 163.3594,822.7813 C161.3125,822.7813 160.0156,821.6875 160.0156,819.9844 L160.0156,818.8906 C160.0156,817.1094 161.2656,815.7969 163,815.7969 C163.5781,815.7969 164.1875,815.9531 164.6563,816.2031 C165.1406,816.4844 165.3125,816.7031 165.4063,817.1094 C165.4688,817.5156 165.5,817.6406 165.6406,817.7656 C165.7813,817.9063 166.0156,818.0156 166.2344,818.0156 C166.5,818.0156 166.7656,817.875 166.9375,817.6563 C167.0469,817.5 167.0781,817.3125 167.0781,816.8906 L167.0781,815.4688 C167.0781,815.0313 167.0625,814.9063 166.9688,814.75 C166.8125,814.4844 166.5313,814.3438 166.2344,814.3438 C165.9375,814.3438 165.7344,814.4375 165.5156,814.75 L165.3438,814.6719 Z " fill="#000000"/><text fill="#000000" font-family="sans-serif" font-size="12" lengthAdjust="spacing" textLength="28" x="177" y="823.1543">Rank</text><line style="stroke:#A80036;stroke-width:1.5;" x1="149" x2="207" y1="835" y2="835"/><line style="stroke:#A80036;stroke-width:1.5;" x1="149" x2="207" y1="843" y2="843"/><!--MD5=[8afaa0cc9be9ac1cdc24999fa1642fa3]
class Suit--><rect fill="#FEFECE" filter="url(#f1r4noqfo9vdd4)" height="48" id="Suit" style="stroke:#A80036;stroke-width:1.5;" width="54" x="243" y="803"/><ellipse cx="258" cy="819" fill="#ADD1B2" rx="11" ry="11" style="stroke:#A80036;stroke-width:1.0;"/><path d="M260.3438,814.6719 C259.4063,814.2344 258.8125,814.0938 257.9375,814.0938 C255.3125,814.0938 253.3125,816.1719 253.3125,818.8906 L253.3125,820.0156 C253.3125,822.5938 255.4219,824.4844 258.3125,824.4844 C259.5313,824.4844 260.6875,824.1875 261.4375,823.6406 C262.0156,823.2344 262.3438,822.7813 262.3438,822.3906 C262.3438,821.9375 261.9531,821.5469 261.4844,821.5469 C261.2656,821.5469 261.0625,821.625 260.875,821.8125 C260.4219,822.2969 260.4219,822.2969 260.2344,822.3906 C259.8125,822.6563 259.125,822.7813 258.3594,822.7813 C256.3125,822.7813 255.0156,821.6875 255.0156,819.9844 L255.0156,818.8906 C255.0156,817.1094 256.2656,815.7969 258,815.7969 C258.5781,815.7969 259.1875,815.9531 259.6563,816.2031 C260.1406,816.4844 260.3125,816.7031 260.4063,817.1094 C260.4688,817.5156 260.5,817.6406 260.6406,817.7656 C260.7813,817.9063 261.0156,818.0156 261.2344,818.0156 C261.5,818.0156 261.7656,817.875 261.9375,817.6563 C262.0469,817.5 262.0781,817.3125 262.0781,816.8906 L262.0781,815.4688 C262.0781,815.0313 262.0625,814.9063 261.9688,814.75 C261.8125,814.4844 261.5313,814.3438 261.2344,814.3438 C260.9375,814.3438 260.7344,814.4375 260.5156,814.75 L260.3438,814.6719 Z " fill="#000000"/><text fill="#000000" font-family="sans-serif" font-size="12" lengthAdjust="spacing" textLength="22" x="272" y="823.1543">Suit</text><line style="stroke:#A80036;stroke-width:1.5;" x1="244" x2="296" y1="835" y2="835"/><line style="stroke:#A80036;stroke-width:1.5;" x1="244" x2="296" y1="843" y2="843"/><!--MD5=[18eee71c88ab61f27581b8cbdd3ef5ee]
class Color--><rect fill="#FEFECE" filter="url(#f1r4noqfo9vdd4)" height="48" id="Color" style="stroke:#A80036;stroke-width:1.5;" width="64" x="238" y="931"/><ellipse cx="253" cy="947" fill="#ADD1B2" rx="11" ry="11" style="stroke:#A80036;stroke-width:1.0;"/><path d="M255.3438,942.6719 C254.4063,942.2344 253.8125,942.0938 252.9375,942.0938 C250.3125,942.0938 248.3125,944.1719 248.3125,946.8906 L248.3125,948.0156 C248.3125,950.5938 250.4219,952.4844 253.3125,952.4844 C254.5313,952.4844 255.6875,952.1875 256.4375,951.6406 C257.0156,951.2344 257.3438,950.7813 257.3438,950.3906 C257.3438,949.9375 256.9531,949.5469 256.4844,949.5469 C256.2656,949.5469 256.0625,949.625 255.875,949.8125 C255.4219,950.2969 255.4219,950.2969 255.2344,950.3906 C254.8125,950.6563 254.125,950.7813 253.3594,950.7813 C251.3125,950.7813 250.0156,949.6875 250.0156,947.9844 L250.0156,946.8906 C250.0156,945.1094 251.2656,943.7969 253,943.7969 C253.5781,943.7969 254.1875,943.9531 254.6563,944.2031 C255.1406,944.4844 255.3125,944.7031 255.4063,945.1094 C255.4688,945.5156 255.5,945.6406 255.6406,945.7656 C255.7813,945.9063 256.0156,946.0156 256.2344,946.0156 C256.5,946.0156 256.7656,945.875 256.9375,945.6563 C257.0469,945.5 257.0781,945.3125 257.0781,944.8906 L257.0781,943.4688 C257.0781,943.0313 257.0625,942.9063 256.9688,942.75 C256.8125,942.4844 256.5313,942.3438 256.2344,942.3438 C255.9375,942.3438 255.7344,942.4375 255.5156,942.75 L255.3438,942.6719 Z " fill="#000000"/><text fill="#000000" font-family="sans-serif" font-size="12" lengthAdjust="spacing" textLength="32" x="267" y="951.1543">Color</text><line style="stroke:#A80036;stroke-width:1.5;" x1="239" x2="301" y1="963" y2="963"/><line style="stroke:#A80036;stroke-width:1.5;" x1="239" x2="301" y1="971" y2="971"/><polygon fill="none" points="270,979,277,999,263,999" style="stroke:#A80036;stroke-width:1.0;"/><line style="stroke:#A80036;stroke-width:1.0;" x1="270" x2="270" y1="999" y2="1000"/><line style="stroke:#A80036;stroke-width:1.0;" x1="270" x2="270" y1="931" y2="897.763"/><!--MD5=[365150d8163e865a226452c70cc7ad9f]
class Black--><rect fill="#FEFECE" filter="url(#f1r4noqfo9vdd4)" height="48" id="Black" style="stroke:#A80036;stroke-width:1.5;" width="64" x="191" y="1059"/><ellipse cx="206" cy="1075" fill="#ADD1B2" rx="11" ry="11" style="stroke:#A80036;stroke-width:1.0;"/><path d="M208.3438,1070.6719 C207.4063,1070.2344 206.8125,1070.0938 205.9375,1070.0938 C203.3125,1070.0938 201.3125,1072.1719 201.3125,1074.8906 L201.3125,1076.0156 C201.3125,1078.5938 203.4219,1080.4844 206.3125,1080.4844 C207.5313,1080.4844 208.6875,1080.1875 209.4375,1079.6406 C210.0156,1079.2344 210.3438,1078.7813 210.3438,1078.3906 C210.3438,1077.9375 209.9531,1077.5469 209.4844,1077.5469 C209.2656,1077.5469 209.0625,1077.625 208.875,1077.8125 C208.4219,1078.2969 208.4219,1078.2969 208.2344,1078.3906 C207.8125,1078.6563 207.125,1078.7813 206.3594,1078.7813 C204.3125,1078.7813 203.0156,1077.6875 203.0156,1075.9844 L203.0156,1074.8906 C203.0156,1073.1094 204.2656,1071.7969 206,1071.7969 C206.5781,1071.7969 207.1875,1071.9531 207.6563,1072.2031 C208.1406,1072.4844 208.3125,1072.7031 208.4063,1073.1094 C208.4688,1073.5156 208.5,1073.6406 208.6406,1073.7656 C208.7813,1073.9063 209.0156,1074.0156 209.2344,1074.0156 C209.5,1074.0156 209.7656,1073.875 209.9375,1073.6563 C210.0469,1073.5 210.0781,1073.3125 210.0781,1072.8906 L210.0781,1071.4688 C210.0781,1071.0313 210.0625,1070.9063 209.9688,1070.75 C209.8125,1070.4844 209.5313,1070.3438 209.2344,1070.3438 C208.9375,1070.3438 208.7344,1070.4375 208.5156,1070.75 L208.3438,1070.6719 Z " fill="#000000"/><text fill="#000000" font-family="sans-serif" font-size="12" lengthAdjust="spacing" textLength="32" x="220" y="1079.1543">Black</text><line style="stroke:#A80036;stroke-width:1.5;" x1="192" x2="254" y1="1091" y2="1091"/><line style="stroke:#A80036;stroke-width:1.5;" x1="192" x2="254" y1="1099" y2="1099"/><!--MD5=[08be530975453a47bdc5b5370100f2fc]
class Red--><rect fill="#FEFECE" filter="url(#f1r4noqfo9vdd4)" height="48" id="Red" style="stroke:#A80036;stroke-width:1.5;" width="55" x="290.5" y="1059"/><ellipse cx="305.5" cy="1075" fill="#ADD1B2" rx="11" ry="11" style="stroke:#A80036;stroke-width:1.0;"/><path d="M307.8438,1070.6719 C306.9063,1070.2344 306.3125,1070.0938 305.4375,1070.0938 C302.8125,1070.0938 300.8125,1072.1719 300.8125,1074.8906 L300.8125,1076.0156 C300.8125,1078.5938 302.9219,1080.4844 305.8125,1080.4844 C307.0313,1080.4844 308.1875,1080.1875 308.9375,1079.6406 C309.5156,1079.2344 309.8438,1078.7813 309.8438,1078.3906 C309.8438,1077.9375 309.4531,1077.5469 308.9844,1077.5469 C308.7656,1077.5469 308.5625,1077.625 308.375,1077.8125 C307.9219,1078.2969 307.9219,1078.2969 307.7344,1078.3906 C307.3125,1078.6563 306.625,1078.7813 305.8594,1078.7813 C303.8125,1078.7813 302.5156,1077.6875 302.5156,1075.9844 L302.5156,1074.8906 C302.5156,1073.1094 303.7656,1071.7969 305.5,1071.7969 C306.0781,1071.7969 306.6875,1071.9531 307.1563,1072.2031 C307.6406,1072.4844 307.8125,1072.7031 307.9063,1073.1094 C307.9688,1073.5156 308,1073.6406 308.1406,1073.7656 C308.2813,1073.9063 308.5156,1074.0156 308.7344,1074.0156 C309,1074.0156 309.2656,1073.875 309.4375,1073.6563 C309.5469,1073.5 309.5781,1073.3125 309.5781,1072.8906 L309.5781,1071.4688 C309.5781,1071.0313 309.5625,1070.9063 309.4688,1070.75 C309.3125,1070.4844 309.0313,1070.3438 308.7344,1070.3438 C308.4375,1070.3438 308.2344,1070.4375 308.0156,1070.75 L307.8438,1070.6719 Z " fill="#000000"/><text fill="#000000" font-family="sans-serif" font-size="12" lengthAdjust="spacing" textLength="23" x="319.5" y="1079.1543">Red</text><line style="stroke:#A80036;stroke-width:1.5;" x1="291.5" x2="344.5" y1="1091" y2="1091"/><line style="stroke:#A80036;stroke-width:1.5;" x1="291.5" x2="344.5" y1="1099" y2="1099"/><!--MD5=[3b6333e53553eb74a79779897e822cf9]
class Grab--><rect fill="#FEFECE" filter="url(#f1r4noqfo9vdd4)" height="48" id="Grab" style="stroke:#A80036;stroke-width:1.5;" width="61" x="460.5" y="371"/><ellipse cx="475.5" cy="387" fill="#ADD1B2" rx="11" ry="11" style="stroke:#A80036;stroke-width:1.0;"/><path d="M477.8438,382.6719 C476.9063,382.2344 476.3125,382.0938 475.4375,382.0938 C472.8125,382.0938 470.8125,384.1719 470.8125,386.8906 L470.8125,388.0156 C470.8125,390.5938 472.9219,392.4844 475.8125,392.4844 C477.0313,392.4844 478.1875,392.1875 478.9375,391.6406 C479.5156,391.2344 479.8438,390.7813 479.8438,390.3906 C479.8438,389.9375 479.4531,389.5469 478.9844,389.5469 C478.7656,389.5469 478.5625,389.625 478.375,389.8125 C477.9219,390.2969 477.9219,390.2969 477.7344,390.3906 C477.3125,390.6563 476.625,390.7813 475.8594,390.7813 C473.8125,390.7813 472.5156,389.6875 472.5156,387.9844 L472.5156,386.8906 C472.5156,385.1094 473.7656,383.7969 475.5,383.7969 C476.0781,383.7969 476.6875,383.9531 477.1563,384.2031 C477.6406,384.4844 477.8125,384.7031 477.9063,385.1094 C477.9688,385.5156 478,385.6406 478.1406,385.7656 C478.2813,385.9063 478.5156,386.0156 478.7344,386.0156 C479,386.0156 479.2656,385.875 479.4375,385.6563 C479.5469,385.5 479.5781,385.3125 479.5781,384.8906 L479.5781,383.4688 C479.5781,383.0313 479.5625,382.9063 479.4688,382.75 C479.3125,382.4844 479.0313,382.3438 478.7344,382.3438 C478.4375,382.3438 478.2344,382.4375 478.0156,382.75 L477.8438,382.6719 Z " fill="#000000"/><text fill="#000000" font-family="sans-serif" font-size="12" lengthAdjust="spacing" textLength="29" x="489.5" y="391.1543">Grab</text><line style="stroke:#A80036;stroke-width:1.5;" x1="461.5" x2="520.5" y1="403" y2="403"/><line style="stroke:#A80036;stroke-width:1.5;" x1="461.5" x2="520.5" y1="411" y2="411"/><!--MD5=[9d65f55e1ae89a5b4cf38812aa4a03f3]
class Pile--><rect fill="#FEFECE" filter="url(#f1r4noqfo9vdd4)" height="48" id="Pile" style="stroke:#A80036;stroke-width:1.5;" width="52" x="201" y="371"/><ellipse cx="216" cy="387" fill="#ADD1B2" rx="11" ry="11" style="stroke:#A80036;stroke-width:1.0;"/><path d="M218.3438,382.6719 C217.4063,382.2344 216.8125,382.0938 215.9375,382.0938 C213.3125,382.0938 211.3125,384.1719 211.3125,386.8906 L211.3125,388.0156 C211.3125,390.5938 213.4219,392.4844 216.3125,392.4844 C217.5313,392.4844 218.6875,392.1875 219.4375,391.6406 C220.0156,391.2344 220.3438,390.7813 220.3438,390.3906 C220.3438,389.9375 219.9531,389.5469 219.4844,389.5469 C219.2656,389.5469 219.0625,389.625 218.875,389.8125 C218.4219,390.2969 218.4219,390.2969 218.2344,390.3906 C217.8125,390.6563 217.125,390.7813 216.3594,390.7813 C214.3125,390.7813 213.0156,389.6875 213.0156,387.9844 L213.0156,386.8906 C213.0156,385.1094 214.2656,383.7969 216,383.7969 C216.5781,383.7969 217.1875,383.9531 217.6563,384.2031 C218.1406,384.4844 218.3125,384.7031 218.4063,385.1094 C218.4688,385.5156 218.5,385.6406 218.6406,385.7656 C218.7813,385.9063 219.0156,386.0156 219.2344,386.0156 C219.5,386.0156 219.7656,385.875 219.9375,385.6563 C220.0469,385.5 220.0781,385.3125 220.0781,384.8906 L220.0781,383.4688 C220.0781,383.0313 220.0625,382.9063 219.9688,382.75 C219.8125,382.4844 219.5313,382.3438 219.2344,382.3438 C218.9375,382.3438 218.7344,382.4375 218.5156,382.75 L218.3438,382.6719 Z " fill="#000000"/><text fill="#000000" font-family="sans-serif" font-size="12" lengthAdjust="spacing" textLength="20" x="230" y="391.1543">Pile</text><line style="stroke:#A80036;stroke-width:1.5;" x1="202" x2="252" y1="403" y2="403"/><line style="stroke:#A80036;stroke-width:1.5;" x1="202" x2="252" y1="411" y2="411"/><!--MD5=[1981719fa3982d92ef7fd3f06d73b3e7]
class Move--><rect fill="#FEFECE" filter="url(#f1r4noqfo9vdd4)" height="48" id="Move" style="stroke:#A80036;stroke-width:1.5;" width="65" x="288.5" y="371"/><ellipse cx="303.5" cy="387" fill="#ADD1B2" rx="11" ry="11" style="stroke:#A80036;stroke-width:1.0;"/><path d="M305.8438,382.6719 C304.9063,382.2344 304.3125,382.0938 303.4375,382.0938 C300.8125,382.0938 298.8125,384.1719 298.8125,386.8906 L298.8125,388.0156 C298.8125,390.5938 300.9219,392.4844 303.8125,392.4844 C305.0313,392.4844 306.1875,392.1875 306.9375,391.6406 C307.5156,391.2344 307.8438,390.7813 307.8438,390.3906 C307.8438,389.9375 307.4531,389.5469 306.9844,389.5469 C306.7656,389.5469 306.5625,389.625 306.375,389.8125 C305.9219,390.2969 305.9219,390.2969 305.7344,390.3906 C305.3125,390.6563 304.625,390.7813 303.8594,390.7813 C301.8125,390.7813 300.5156,389.6875 300.5156,387.9844 L300.5156,386.8906 C300.5156,385.1094 301.7656,383.7969 303.5,383.7969 C304.0781,383.7969 304.6875,383.9531 305.1563,384.2031 C305.6406,384.4844 305.8125,384.7031 305.9063,385.1094 C305.9688,385.5156 306,385.6406 306.1406,385.7656 C306.2813,385.9063 306.5156,386.0156 306.7344,386.0156 C307,386.0156 307.2656,385.875 307.4375,385.6563 C307.5469,385.5 307.5781,385.3125 307.5781,384.8906 L307.5781,383.4688 C307.5781,383.0313 307.5625,382.9063 307.4688,382.75 C307.3125,382.4844 307.0313,382.3438 306.7344,382.3438 C306.4375,382.3438 306.2344,382.4375 306.0156,382.75 L305.8438,382.6719 Z " fill="#000000"/><text fill="#000000" font-family="sans-serif" font-size="12" lengthAdjust="spacing" textLength="33" x="317.5" y="391.1543">Move</text><line style="stroke:#A80036;stroke-width:1.5;" x1="289.5" x2="352.5" y1="403" y2="403"/><line style="stroke:#A80036;stroke-width:1.5;" x1="289.5" x2="352.5" y1="411" y2="411"/><!--MD5=[1a47157467d69c83c0a10e9152875283]
class Stack--><rect fill="#FEFECE" filter="url(#f1r4noqfo9vdd4)" height="48" id="Stack" style="stroke:#A80036;stroke-width:1.5;" width="65" x="241.5" y="587"/><ellipse cx="256.5" cy="603" fill="#ADD1B2" rx="11" ry="11" style="stroke:#A80036;stroke-width:1.0;"/><path d="M258.8438,598.6719 C257.9063,598.2344 257.3125,598.0938 256.4375,598.0938 C253.8125,598.0938 251.8125,600.1719 251.8125,602.8906 L251.8125,604.0156 C251.8125,606.5938 253.9219,608.4844 256.8125,608.4844 C258.0313,608.4844 259.1875,608.1875 259.9375,607.6406 C260.5156,607.2344 260.8438,606.7813 260.8438,606.3906 C260.8438,605.9375 260.4531,605.5469 259.9844,605.5469 C259.7656,605.5469 259.5625,605.625 259.375,605.8125 C258.9219,606.2969 258.9219,606.2969 258.7344,606.3906 C258.3125,606.6563 257.625,606.7813 256.8594,606.7813 C254.8125,606.7813 253.5156,605.6875 253.5156,603.9844 L253.5156,602.8906 C253.5156,601.1094 254.7656,599.7969 256.5,599.7969 C257.0781,599.7969 257.6875,599.9531 258.1563,600.2031 C258.6406,600.4844 258.8125,600.7031 258.9063,601.1094 C258.9688,601.5156 259,601.6406 259.1406,601.7656 C259.2813,601.9063 259.5156,602.0156 259.7344,602.0156 C260,602.0156 260.2656,601.875 260.4375,601.6563 C260.5469,601.5 260.5781,601.3125 260.5781,600.8906 L260.5781,599.4688 C260.5781,599.0313 260.5625,598.9063 260.4688,598.75 C260.3125,598.4844 260.0313,598.3438 259.7344,598.3438 C259.4375,598.3438 259.2344,598.4375 259.0156,598.75 L258.8438,598.6719 Z " fill="#000000"/><text fill="#000000" font-family="sans-serif" font-size="12" lengthAdjust="spacing" textLength="33" x="270.5" y="607.1543">Stack</text><line style="stroke:#A80036;stroke-width:1.5;" x1="242.5" x2="305.5" y1="619" y2="619"/><line style="stroke:#A80036;stroke-width:1.5;" x1="242.5" x2="305.5" y1="627" y2="627"/><!--MD5=[66e773952485c2ebd2097a6df943c858]
link Klondike to Card--><path codeLine="2" d="M176.2482,57.9277 C176.2482,57.9277 6,168.194 6,266 C6,266 6,266 6,504 C6,601.452 118.313,669.26 181.709,699.772 " fill="none" id="Klondike-Card" style="stroke:#A80036;stroke-width:1.0;"/><polygon fill="#A80036" points="193.688,705.375,187.23,697.939,189.1588,703.2568,183.841,705.1857,193.688,705.375" style="stroke:#A80036;stroke-width:1.0;"/><line style="stroke:#A80036;stroke-width:1.0;" x1="189.1588" x2="181.9125" y1="703.2568" y2="699.8665"/><polygon fill="#A80036" points="186.793,52.2,179.6113,51.5489,176.2482,57.9277,183.4298,58.5788,186.793,52.2" style="stroke:#A80036;stroke-width:1.0;"/><text fill="#000000" font-family="sans-serif" font-size="13" lengthAdjust="spacing" textLength="16" x="169.7862" y="698.0986">52</text><!--MD5=[0205162adad14559531155d61b7c2cfd]
link Klondike to SuitPile--><path codeLine="3" d="M205.7446,65.1542 C205.7446,65.1542 187.114,98.03 182,115 C144.576,239.178 151.031,395.717 156.508,465.516 " fill="none" id="Klondike-SuitPile" style="stroke:#A80036;stroke-width:1.0;"/><polygon fill="#A80036" points="157.612,478.668,160.8453,469.365,157.1939,473.6855,152.8734,470.034,157.612,478.668" style="stroke:#A80036;stroke-width:1.0;"/><line style="stroke:#A80036;stroke-width:1.0;" x1="157.1939" x2="156.525" y1="473.6855" y2="465.7135"/><polygon fill="#A80036" points="212.218,55.05,205.6132,57.9443,205.7446,65.1542,212.3494,62.2599,212.218,55.05" style="stroke:#A80036;stroke-width:1.0;"/><text fill="#000000" font-family="sans-serif" font-size="13" lengthAdjust="spacing" textLength="8" x="148.0549" y="467.992">4</text><!--MD5=[1a45a271f9b3826b5e1f7e3fdf9735bd]
link Klondike to StackPile--><path codeLine="4" d="M255.872,64.6776 C255.872,64.6776 327.935,163.079 350,223 C380.41,305.585 377.788,411.061 373.661,465.633 " fill="none" id="Klondike-StackPile" style="stroke:#A80036;stroke-width:1.0;"/><polygon fill="#A80036" points="372.57,478.678,377.3067,470.043,372.987,473.6954,369.3346,469.3757,372.57,478.678" style="stroke:#A80036;stroke-width:1.0;"/><line style="stroke:#A80036;stroke-width:1.0;" x1="372.987" x2="373.654" y1="473.6954" y2="465.7235"/><polygon fill="#A80036" points="248.435,55.26,249.0143,62.4478,255.872,64.6776,255.2927,57.4898,248.435,55.26" style="stroke:#A80036;stroke-width:1.0;"/><text fill="#000000" font-family="sans-serif" font-size="13" lengthAdjust="spacing" textLength="8" x="364.2214" y="468.0045">7</text><!--MD5=[7d7afaf8cc2ad62f66d9fb1ba9e5e8a9]
link Klondike to Deck--><path codeLine="5" d="M273.6081,61.9566 C273.6081,61.9566 489.649,230.95 539,371 C550.641,404.034 533.816,441.546 516.97,467.937 " fill="none" id="Klondike-Deck" style="stroke:#A80036;stroke-width:1.0;"/><polygon fill="#A80036" points="509.581,478.872,517.9343,473.6544,512.3804,474.7292,511.3057,469.1753,509.581,478.872" style="stroke:#A80036;stroke-width:1.0;"/><line style="stroke:#A80036;stroke-width:1.0;" x1="512.3804" x2="516.859" y1="474.7292" y2="468.1005"/><polygon fill="#A80036" points="263.809,55.03,266.3997,61.7597,273.6081,61.9566,271.0174,55.2269,263.809,55.03" style="stroke:#A80036;stroke-width:1.0;"/><text fill="#000000" font-family="sans-serif" font-size="13" lengthAdjust="spacing" textLength="8" x="505.3174" y="467.8512">1</text><!--MD5=[dab1da9339276fc887094323b3198398]
link Klondike to Goal--><path codeLine="6" d="M229,67 C229,67 229,90.68 229,101.36 " fill="none" id="Klondike-Goal" style="stroke:#A80036;stroke-width:1.0;"/><polygon fill="#A80036" points="229,114.678,233,105.678,229,109.678,225,105.678,229,114.678" style="stroke:#A80036;stroke-width:1.0;"/><line style="stroke:#A80036;stroke-width:1.0;" x1="229" x2="229" y1="109.678" y2="101.68"/><polygon fill="#A80036" points="229,55,225,61,229,67,233,61,229,55" style="stroke:#A80036;stroke-width:1.0;"/><text fill="#000000" font-family="sans-serif" font-size="13" lengthAdjust="spacing" textLength="8" x="220.025" y="104.007">1</text><!--MD5=[9ea24298febf24697f9a75989c4b4d86]
link SuitPile to Card--><path codeLine="7" d="M170.4102,538.8056 C170.4102,538.8056 201.436,642.553 213.249,682.052 " fill="none" id="SuitPile-Card" style="stroke:#A80036;stroke-width:1.0;"/><polygon fill="#A80036" points="217.038,694.72,218.2921,684.9513,215.6056,689.9296,210.6274,687.2431,217.038,694.72" style="stroke:#A80036;stroke-width:1.0;"/><line style="stroke:#A80036;stroke-width:1.0;" x1="215.6056" x2="213.3125" y1="689.9296" y2="682.2645"/><polygon fill="none" points="166.971,527.309,164.8584,534.2037,170.4102,538.8056,172.5228,531.9109,166.971,527.309" style="stroke:#A80036;stroke-width:1.0;"/><!--MD5=[d334cc2dfacd1137c36590d4c46d952a]
link Goal to Action--><path codeLine="8" d="M237.987,163.11 C243.973,178.502 252.057,199.289 259.392,218.15 " fill="none" id="Goal-to-Action" style="stroke:#A80036;stroke-width:1.0;stroke-dasharray:7.0,7.0;"/><polygon fill="#A80036" points="261.239,222.9,261.7038,213.0621,259.4262,218.2402,254.2481,215.9626,261.239,222.9" style="stroke:#A80036;stroke-width:1.0;"/><!--MD5=[37ec50c5955c4025287187c583adc383]
link Goal to SuitPile--><path codeLine="9" d="M221.887,163.089 C216.961,179.65 210.504,202.556 206,223 C185.984,313.846 170.396,423.067 163.648,473.686 " fill="none" id="Goal-to-SuitPile" style="stroke:#A80036;stroke-width:1.0;"/><polygon fill="#A80036" points="162.984,478.691,168.132,470.2947,163.6411,473.7344,160.2014,469.2434,162.984,478.691" style="stroke:#A80036;stroke-width:1.0;"/><!--MD5=[c905f1b8e8f3426bca82a4905da2e16e]
link Deck to Card--><path codeLine="10" d="M452.8091,534.6095 C452.8091,534.6095 313.468,646.291 262.905,686.818 " fill="none" id="Deck-Card" style="stroke:#A80036;stroke-width:1.0;"/><polygon fill="#A80036" points="252.707,694.992,262.2314,692.4849,256.6086,691.8651,257.2284,686.2423,252.707,694.992" style="stroke:#A80036;stroke-width:1.0;"/><line style="stroke:#A80036;stroke-width:1.0;" x1="256.6086" x2="262.8505" y1="691.8651" y2="686.8615"/><polygon fill="#A80036" points="462.173,527.105,454.9896,527.736,452.8091,534.6095,459.9926,533.9786,462.173,527.105" style="stroke:#A80036;stroke-width:1.0;"/><!--MD5=[dab4fdc688f775bd2cd14c67a04f3f7b]
link Card to Rank--><path codeLine="11" d="M209.2427,754.0085 C209.2427,754.0085 198.405,778.979 193.442,790.415 " fill="none" id="Card-Rank" style="stroke:#A80036;stroke-width:1.0;"/><polygon fill="#A80036" points="188.121,802.678,195.3727,796.0137,190.1111,798.0911,188.0337,792.8295,188.121,802.678" style="stroke:#A80036;stroke-width:1.0;"/><line style="stroke:#A80036;stroke-width:1.0;" x1="190.1111" x2="193.296" y1="798.0911" y2="790.753"/><polygon fill="#A80036" points="214.019,743,207.9613,746.9121,209.2427,754.0085,215.3003,750.0963,214.019,743" style="stroke:#A80036;stroke-width:1.0;"/><text fill="#000000" font-family="sans-serif" font-size="13" lengthAdjust="spacing" textLength="8" x="181.613" y="792.0045">1</text><!--MD5=[01ae9f68263e6bc4031c0aece6e20929]
link Card to Suit--><path codeLine="12" d="M238.7573,754.0085 C238.7573,754.0085 249.595,778.979 254.558,790.415 " fill="none" id="Card-Suit" style="stroke:#A80036;stroke-width:1.0;"/><polygon fill="#A80036" points="259.879,802.678,259.9663,792.8295,257.8889,798.0911,252.6273,796.0137,259.879,802.678" style="stroke:#A80036;stroke-width:1.0;"/><line style="stroke:#A80036;stroke-width:1.0;" x1="257.8889" x2="254.704" y1="798.0911" y2="790.753"/><polygon fill="#A80036" points="233.981,743,232.6997,750.0963,238.7573,754.0085,240.0387,746.9121,233.981,743" style="stroke:#A80036;stroke-width:1.0;"/><text fill="#000000" font-family="sans-serif" font-size="13" lengthAdjust="spacing" textLength="8" x="248.437" y="792.0045">1</text><!--MD5=[177767f5f369ddd7a2766db2fec86924]
link Suit to Color--><path codeLine="13" d="M270,863.11 C270,863.11 270,886.378 270,897.763 " fill="none" id="Suit-Color" style="stroke:#A80036;stroke-width:1.0;"/><polygon fill="#A80036" points="270,910.9,274,901.9,270,905.9,266,901.9,270,910.9" style="stroke:#A80036;stroke-width:1.0;"/><line style="stroke:#A80036;stroke-width:1.0;" x1="270" x2="270" y1="905.9" y2="897.9"/><polygon fill="#A80036" points="270,851.11,266,857.11,270,863.11,274,857.11,270,851.11" style="stroke:#A80036;stroke-width:1.0;"/><text fill="#000000" font-family="sans-serif" font-size="13" lengthAdjust="spacing" textLength="8" x="261.3875" y="900.0758">1</text><!--MD5=[af66b58f2992f2e4db4f382db65f0624]
reverse link Color to Black--><path codeLine="14" d="M270,1000 C270,1000 250.238,1034.4786 236.343,1058.7214 " fill="none" id="Color-backto-Black" style="stroke:#A80036;stroke-width:1.0;"/><!--MD5=[fab54b5999e935266d298ad54749f91a]
reverse link Color to Red--><path codeLine="15" d="M270,1000 C270,1000 290.183,1034.4786 304.374,1058.7214 " fill="none" id="Color-backto-Red" style="stroke:#A80036;stroke-width:1.0;"/><!--MD5=[9c4551d8728367f4aa41552ecbf8b304]
reverse link Action to Grab--><path codeLine="16" d="M293,312 C293,312 404.956,358.366 460.496,381.367 " fill="none" id="Action-backto-Grab" style="stroke:#A80036;stroke-width:1.0;"/><!--MD5=[b496b658d6e73da48288f8c423a47410]
reverse link Action to Pile--><path codeLine="17" d="M293,312 C293,312 265.249,346.479 245.736,370.721 " fill="none" id="Action-backto-Pile" style="stroke:#A80036;stroke-width:1.0;"/><!--MD5=[41de15b107b23d1b7c92311761b50ccb]
reverse link Action to Move--><path codeLine="18" d="M293,312 C293,312 304.773,346.479 313.051,370.721 " fill="none" id="Action-backto-Move" style="stroke:#A80036;stroke-width:1.0;"/><!--MD5=[21306de2a9755abebb01718afd6dca9b]
link Stack to Card--><path codeLine="19" d="M258.0322,645.8535 C258.0322,645.8535 246.051,671.251 240.611,682.784 " fill="none" id="Stack-Card" style="stroke:#A80036;stroke-width:1.0;"/><polygon fill="#A80036" points="235.001,694.678,242.4582,688.2445,237.1341,690.1558,235.2228,684.8316,235.001,694.678" style="stroke:#A80036;stroke-width:1.0;"/><line style="stroke:#A80036;stroke-width:1.0;" x1="237.1341" x2="240.547" y1="690.1558" y2="682.921"/><polygon fill="#A80036" points="263.151,635,256.9738,638.7205,258.0322,645.8535,264.2094,642.133,263.151,635" style="stroke:#A80036;stroke-width:1.0;"/><!--MD5=[aa7e4d7ed0bfb911076b092074061a54]
link Grab to Deck--><path codeLine="20" d="M491,419 C491,435.003 491,456.446 491,473.528 " fill="none" id="Grab-to-Deck" style="stroke:#A80036;stroke-width:1.0;stroke-dasharray:7.0,7.0;"/><polygon fill="#A80036" points="491,478.678,495,469.678,491,473.678,487,469.678,491,478.678" style="stroke:#A80036;stroke-width:1.0;"/><!--MD5=[2e101bc79960a390b7c3399f0fda9d17]
link Pile to SuitPile--><path codeLine="21" d="M212.462,419 C202.173,435.279 188.325,457.187 177.44,474.408 " fill="none" id="Pile-to-SuitPile" style="stroke:#A80036;stroke-width:1.0;stroke-dasharray:7.0,7.0;"/><polygon fill="#A80036" points="174.741,478.678,182.9304,473.2069,177.4121,474.4513,176.1677,468.933,174.741,478.678" style="stroke:#A80036;stroke-width:1.0;"/><!--MD5=[6c77ec128121178e20fed2ad6a7e830d]
link Move to Stack--><path codeLine="22" d="M315.881,419.309 C307.193,458.866 289.595,538.994 280.215,581.702 " fill="none" id="Move-to-Stack" style="stroke:#A80036;stroke-width:1.0;stroke-dasharray:7.0,7.0;"/><polygon fill="#A80036" points="279.113,586.72,284.9485,578.7861,280.1843,581.8361,277.1343,577.072,279.113,586.72" style="stroke:#A80036;stroke-width:1.0;"/><!--MD5=[1b68cfbb2cf92a2d2acb940f5266b841]
link Move to StackPile--><path codeLine="23" d="M331.632,419 C339.093,435.141 349.113,456.816 357.042,473.969 " fill="none" id="Move-to-StackPile" style="stroke:#A80036;stroke-width:1.0;stroke-dasharray:7.0,7.0;"/><polygon fill="#A80036" points="359.219,478.678,359.075,468.8302,357.1217,474.1391,351.8128,472.1858,359.219,478.678" style="stroke:#A80036;stroke-width:1.0;"/><!--MD5=[5153ace46ce9cba98bb240811bc8d735]
link StackPile to Stack--><path codeLine="24" d="M341.1141,535.8949 C341.1141,535.8949 315.426,564.259 303.931,576.951 " fill="none" id="StackPile-Stack" style="stroke:#A80036;stroke-width:1.0;"/><polygon fill="#A80036" points="295.121,586.678,304.1274,582.6925,298.4775,582.9721,298.1979,577.3221,295.121,586.678" style="stroke:#A80036;stroke-width:1.0;"/><line style="stroke:#A80036;stroke-width:1.0;" x1="298.4775" x2="303.8485" y1="582.9721" y2="577.0425"/><polygon fill="#A80036" points="349.169,527,342.1766,528.7625,341.1141,535.8949,348.1065,534.1324,349.169,527" style="stroke:#A80036;stroke-width:1.0;"/><!--MD5=[d200f9d0ae75485afd17c457d31ca6d7]
@startuml
skinparam groupInheritance 2
Klondike *- -> "52" Card
Klondike *- -> "4" SuitPile
Klondike *- -> "7" StackPile
Klondike *- -> "1" Deck
Klondike *- -> "1" Goal
SuitPile o- -> Card
Goal ..> Action
Goal - -> SuitPile
Deck *- -> Card
Card *- -> "1" Rank
Card *- -> "1" Suit
Suit *- -> "1" Color
Color <|- - Black
Color <|- - Red
Action <|- - Grab
Action <|- - Pile
Action <|- - Move
Stack *- -> Card
Grab ..> Deck
Pile ..> SuitPile
Move ..> Stack
Move ..> StackPile
StackPile *- -> Stack
@enduml

PlantUML version 1.2022.1(Tue Feb 01 18:19:58 UTC 2022)
(GPL source distribution)
Java Runtime: Java(TM) SE Runtime Environment
JVM: Java HotSpot(TM) 64-Bit Server VM
Default Encoding: UTF-8
Language: en
Country: US
--></g></svg>