<?xml version="1.0" encoding="UTF-8" standalone="no"?>
<svg xmlns="http://www.w3.org/2000/svg" xmlns:xlink="http://www.w3.org/1999/xlink" contentScriptType="application/ecmascript" contentStyleType="text/css" height="1037px" preserveAspectRatio="none" style="width:585px;height:1037px;background:#FFFFFF;" version="1.1" viewBox="0 0 585 1037" width="585px" zoomAndPan="magnify"><defs><filter height="300%" id="fuowkh7rbrgpy" width="300%" x="-1" y="-1"><feGaussianBlur result="blurOut" stdDeviation="2.0"/><feColorMatrix in="blurOut" result="blurOut2" type="matrix" values="0 0 0 0 0 0 0 0 0 0 0 0 0 0 0 0 0 0 .4 0"/><feOffset dx="4.0" dy="4.0" in="blurOut2" result="blurOut3"/><feBlend in="SourceGraphic" in2="blurOut3" mode="normal"/></filter></defs><g><!--MD5=[ce135f397e71694d574a1221b16fe9d6]
class Klondike--><rect fill="#FEFECE" filter="url(#fuowkh7rbrgpy)" height="48" id="Klondike" style="stroke:#A80036;stroke-width:1.5;" width="84" x="156" y="7"/><ellipse cx="171" cy="23" fill="#ADD1B2" rx="11" ry="11" style="stroke:#A80036;stroke-width:1.0;"/><path d="M173.3438,18.6719 C172.4063,18.2344 171.8125,18.0938 170.9375,18.0938 C168.3125,18.0938 166.3125,20.1719 166.3125,22.8906 L166.3125,24.0156 C166.3125,26.5938 168.4219,28.4844 171.3125,28.4844 C172.5313,28.4844 173.6875,28.1875 174.4375,27.6406 C175.0156,27.2344 175.3438,26.7813 175.3438,26.3906 C175.3438,25.9375 174.9531,25.5469 174.4844,25.5469 C174.2656,25.5469 174.0625,25.625 173.875,25.8125 C173.4219,26.2969 173.4219,26.2969 173.2344,26.3906 C172.8125,26.6563 172.125,26.7813 171.3594,26.7813 C169.3125,26.7813 168.0156,25.6875 168.0156,23.9844 L168.0156,22.8906 C168.0156,21.1094 169.2656,19.7969 171,19.7969 C171.5781,19.7969 172.1875,19.9531 172.6563,20.2031 C173.1406,20.4844 173.3125,20.7031 173.4063,21.1094 C173.4688,21.5156 173.5,21.6406 173.6406,21.7656 C173.7813,21.9063 174.0156,22.0156 174.2344,22.0156 C174.5,22.0156 174.7656,21.875 174.9375,21.6563 C175.0469,21.5 175.0781,21.3125 175.0781,20.8906 L175.0781,19.4688 C175.0781,19.0313 175.0625,18.9063 174.9688,18.75 C174.8125,18.4844 174.5313,18.3438 174.2344,18.3438 C173.9375,18.3438 173.7344,18.4375 173.5156,18.75 L173.3438,18.6719 Z " fill="#000000"/><text fill="#000000" font-family="sans-serif" font-size="12" lengthAdjust="spacing" textLength="52" x="185" y="27.1543">Klondike</text><line style="stroke:#A80036;stroke-width:1.5;" x1="157" x2="239" y1="39" y2="39"/><line style="stroke:#A80036;stroke-width:1.5;" x1="157" x2="239" y1="47" y2="47"/><!--MD5=[5e305716458bbdabbd2d7f572ed2bae2]
class Card--><rect fill="#FEFECE" filter="url(#fuowkh7rbrgpy)" height="48" id="Card" style="stroke:#A80036;stroke-width:1.5;" width="60" x="280" y="608"/><ellipse cx="295" cy="624" fill="#ADD1B2" rx="11" ry="11" style="stroke:#A80036;stroke-width:1.0;"/><path d="M297.3438,619.6719 C296.4063,619.2344 295.8125,619.0938 294.9375,619.0938 C292.3125,619.0938 290.3125,621.1719 290.3125,623.8906 L290.3125,625.0156 C290.3125,627.5938 292.4219,629.4844 295.3125,629.4844 C296.5313,629.4844 297.6875,629.1875 298.4375,628.6406 C299.0156,628.2344 299.3438,627.7813 299.3438,627.3906 C299.3438,626.9375 298.9531,626.5469 298.4844,626.5469 C298.2656,626.5469 298.0625,626.625 297.875,626.8125 C297.4219,627.2969 297.4219,627.2969 297.2344,627.3906 C296.8125,627.6563 296.125,627.7813 295.3594,627.7813 C293.3125,627.7813 292.0156,626.6875 292.0156,624.9844 L292.0156,623.8906 C292.0156,622.1094 293.2656,620.7969 295,620.7969 C295.5781,620.7969 296.1875,620.9531 296.6563,621.2031 C297.1406,621.4844 297.3125,621.7031 297.4063,622.1094 C297.4688,622.5156 297.5,622.6406 297.6406,622.7656 C297.7813,622.9063 298.0156,623.0156 298.2344,623.0156 C298.5,623.0156 298.7656,622.875 298.9375,622.6563 C299.0469,622.5 299.0781,622.3125 299.0781,621.8906 L299.0781,620.4688 C299.0781,620.0313 299.0625,619.9063 298.9688,619.75 C298.8125,619.4844 298.5313,619.3438 298.2344,619.3438 C297.9375,619.3438 297.7344,619.4375 297.5156,619.75 L297.3438,619.6719 Z " fill="#000000"/><text fill="#000000" font-family="sans-serif" font-size="12" lengthAdjust="spacing" textLength="28" x="309" y="628.1543">Card</text><line style="stroke:#A80036;stroke-width:1.5;" x1="281" x2="339" y1="640" y2="640"/><line style="stroke:#A80036;stroke-width:1.5;" x1="281" x2="339" y1="648" y2="648"/><!--MD5=[0992d3fdc9d3d7c02b735131bb70871d]
class Goal--><rect fill="#FEFECE" filter="url(#fuowkh7rbrgpy)" height="48" id="Goal" style="stroke:#A80036;stroke-width:1.5;" width="59" x="290.5" y="116"/><ellipse cx="305.5" cy="132" fill="#ADD1B2" rx="11" ry="11" style="stroke:#A80036;stroke-width:1.0;"/><path d="M307.8438,127.6719 C306.9063,127.2344 306.3125,127.0938 305.4375,127.0938 C302.8125,127.0938 300.8125,129.1719 300.8125,131.8906 L300.8125,133.0156 C300.8125,135.5938 302.9219,137.4844 305.8125,137.4844 C307.0313,137.4844 308.1875,137.1875 308.9375,136.6406 C309.5156,136.2344 309.8438,135.7813 309.8438,135.3906 C309.8438,134.9375 309.4531,134.5469 308.9844,134.5469 C308.7656,134.5469 308.5625,134.625 308.375,134.8125 C307.9219,135.2969 307.9219,135.2969 307.7344,135.3906 C307.3125,135.6563 306.625,135.7813 305.8594,135.7813 C303.8125,135.7813 302.5156,134.6875 302.5156,132.9844 L302.5156,131.8906 C302.5156,130.1094 303.7656,128.7969 305.5,128.7969 C306.0781,128.7969 306.6875,128.9531 307.1563,129.2031 C307.6406,129.4844 307.8125,129.7031 307.9063,130.1094 C307.9688,130.5156 308,130.6406 308.1406,130.7656 C308.2813,130.9063 308.5156,131.0156 308.7344,131.0156 C309,131.0156 309.2656,130.875 309.4375,130.6563 C309.5469,130.5 309.5781,130.3125 309.5781,129.8906 L309.5781,128.4688 C309.5781,128.0313 309.5625,127.9063 309.4688,127.75 C309.3125,127.4844 309.0313,127.3438 308.7344,127.3438 C308.4375,127.3438 308.2344,127.4375 308.0156,127.75 L307.8438,127.6719 Z " fill="#000000"/><text fill="#000000" font-family="sans-serif" font-size="12" lengthAdjust="spacing" textLength="27" x="319.5" y="136.1543">Goal</text><line style="stroke:#A80036;stroke-width:1.5;" x1="291.5" x2="348.5" y1="148" y2="148"/><line style="stroke:#A80036;stroke-width:1.5;" x1="291.5" x2="348.5" y1="156" y2="156"/><!--MD5=[9563755d011c5cec7ec66dc53565a59e]
class Board--><rect fill="#FEFECE" filter="url(#fuowkh7rbrgpy)" height="48" id="Board" style="stroke:#A80036;stroke-width:1.5;" width="68" x="164" y="374"/><ellipse cx="179" cy="390" fill="#ADD1B2" rx="11" ry="11" style="stroke:#A80036;stroke-width:1.0;"/><path d="M181.3438,385.6719 C180.4063,385.2344 179.8125,385.0938 178.9375,385.0938 C176.3125,385.0938 174.3125,387.1719 174.3125,389.8906 L174.3125,391.0156 C174.3125,393.5938 176.4219,395.4844 179.3125,395.4844 C180.5313,395.4844 181.6875,395.1875 182.4375,394.6406 C183.0156,394.2344 183.3438,393.7813 183.3438,393.3906 C183.3438,392.9375 182.9531,392.5469 182.4844,392.5469 C182.2656,392.5469 182.0625,392.625 181.875,392.8125 C181.4219,393.2969 181.4219,393.2969 181.2344,393.3906 C180.8125,393.6563 180.125,393.7813 179.3594,393.7813 C177.3125,393.7813 176.0156,392.6875 176.0156,390.9844 L176.0156,389.8906 C176.0156,388.1094 177.2656,386.7969 179,386.7969 C179.5781,386.7969 180.1875,386.9531 180.6563,387.2031 C181.1406,387.4844 181.3125,387.7031 181.4063,388.1094 C181.4688,388.5156 181.5,388.6406 181.6406,388.7656 C181.7813,388.9063 182.0156,389.0156 182.2344,389.0156 C182.5,389.0156 182.7656,388.875 182.9375,388.6563 C183.0469,388.5 183.0781,388.3125 183.0781,387.8906 L183.0781,386.4688 C183.0781,386.0313 183.0625,385.9063 182.9688,385.75 C182.8125,385.4844 182.5313,385.3438 182.2344,385.3438 C181.9375,385.3438 181.7344,385.4375 181.5156,385.75 L181.3438,385.6719 Z " fill="#000000"/><text fill="#000000" font-family="sans-serif" font-size="12" lengthAdjust="spacing" textLength="36" x="193" y="394.1543">Board</text><line style="stroke:#A80036;stroke-width:1.5;" x1="165" x2="231" y1="406" y2="406"/><line style="stroke:#A80036;stroke-width:1.5;" x1="165" x2="231" y1="414" y2="414"/><!--MD5=[3c38f93b7758508cbdb506a313595fcb]
class SuitPile--><rect fill="#FEFECE" filter="url(#fuowkh7rbrgpy)" height="48" id="SuitPile" style="stroke:#A80036;stroke-width:1.5;" width="74" x="449" y="499"/><ellipse cx="464" cy="515" fill="#ADD1B2" rx="11" ry="11" style="stroke:#A80036;stroke-width:1.0;"/><path d="M466.3438,510.6719 C465.4063,510.2344 464.8125,510.0938 463.9375,510.0938 C461.3125,510.0938 459.3125,512.1719 459.3125,514.8906 L459.3125,516.0156 C459.3125,518.5938 461.4219,520.4844 464.3125,520.4844 C465.5313,520.4844 466.6875,520.1875 467.4375,519.6406 C468.0156,519.2344 468.3438,518.7813 468.3438,518.3906 C468.3438,517.9375 467.9531,517.5469 467.4844,517.5469 C467.2656,517.5469 467.0625,517.625 466.875,517.8125 C466.4219,518.2969 466.4219,518.2969 466.2344,518.3906 C465.8125,518.6563 465.125,518.7813 464.3594,518.7813 C462.3125,518.7813 461.0156,517.6875 461.0156,515.9844 L461.0156,514.8906 C461.0156,513.1094 462.2656,511.7969 464,511.7969 C464.5781,511.7969 465.1875,511.9531 465.6563,512.2031 C466.1406,512.4844 466.3125,512.7031 466.4063,513.1094 C466.4688,513.5156 466.5,513.6406 466.6406,513.7656 C466.7813,513.9063 467.0156,514.0156 467.2344,514.0156 C467.5,514.0156 467.7656,513.875 467.9375,513.6563 C468.0469,513.5 468.0781,513.3125 468.0781,512.8906 L468.0781,511.4688 C468.0781,511.0313 468.0625,510.9063 467.9688,510.75 C467.8125,510.4844 467.5313,510.3438 467.2344,510.3438 C466.9375,510.3438 466.7344,510.4375 466.5156,510.75 L466.3438,510.6719 Z " fill="#000000"/><text fill="#000000" font-family="sans-serif" font-size="12" lengthAdjust="spacing" textLength="42" x="478" y="519.1543">SuitPile</text><line style="stroke:#A80036;stroke-width:1.5;" x1="450" x2="522" y1="531" y2="531"/><line style="stroke:#A80036;stroke-width:1.5;" x1="450" x2="522" y1="539" y2="539"/><!--MD5=[2ced64839d23cc87c58de11aae4f5563]
class StackPile--><rect fill="#FEFECE" filter="url(#fuowkh7rbrgpy)" height="48" id="StackPile" style="stroke:#A80036;stroke-width:1.5;" width="85" x="157.5" y="499"/><ellipse cx="172.5" cy="515" fill="#ADD1B2" rx="11" ry="11" style="stroke:#A80036;stroke-width:1.0;"/><path d="M174.8438,510.6719 C173.9063,510.2344 173.3125,510.0938 172.4375,510.0938 C169.8125,510.0938 167.8125,512.1719 167.8125,514.8906 L167.8125,516.0156 C167.8125,518.5938 169.9219,520.4844 172.8125,520.4844 C174.0313,520.4844 175.1875,520.1875 175.9375,519.6406 C176.5156,519.2344 176.8438,518.7813 176.8438,518.3906 C176.8438,517.9375 176.4531,517.5469 175.9844,517.5469 C175.7656,517.5469 175.5625,517.625 175.375,517.8125 C174.9219,518.2969 174.9219,518.2969 174.7344,518.3906 C174.3125,518.6563 173.625,518.7813 172.8594,518.7813 C170.8125,518.7813 169.5156,517.6875 169.5156,515.9844 L169.5156,514.8906 C169.5156,513.1094 170.7656,511.7969 172.5,511.7969 C173.0781,511.7969 173.6875,511.9531 174.1563,512.2031 C174.6406,512.4844 174.8125,512.7031 174.9063,513.1094 C174.9688,513.5156 175,513.6406 175.1406,513.7656 C175.2813,513.9063 175.5156,514.0156 175.7344,514.0156 C176,514.0156 176.2656,513.875 176.4375,513.6563 C176.5469,513.5 176.5781,513.3125 176.5781,512.8906 L176.5781,511.4688 C176.5781,511.0313 176.5625,510.9063 176.4688,510.75 C176.3125,510.4844 176.0313,510.3438 175.7344,510.3438 C175.4375,510.3438 175.2344,510.4375 175.0156,510.75 L174.8438,510.6719 Z " fill="#000000"/><text fill="#000000" font-family="sans-serif" font-size="12" lengthAdjust="spacing" textLength="53" x="186.5" y="519.1543">StackPile</text><line style="stroke:#A80036;stroke-width:1.5;" x1="158.5" x2="241.5" y1="531" y2="531"/><line style="stroke:#A80036;stroke-width:1.5;" x1="158.5" x2="241.5" y1="539" y2="539"/><!--MD5=[30299a58ba6b78debaaed5ddbb42f29a]
class Deck--><rect fill="#FEFECE" filter="url(#fuowkh7rbrgpy)" height="48" id="Deck" style="stroke:#A80036;stroke-width:1.5;" width="63" x="59.5" y="499"/><ellipse cx="74.5" cy="515" fill="#ADD1B2" rx="11" ry="11" style="stroke:#A80036;stroke-width:1.0;"/><path d="M76.8438,510.6719 C75.9063,510.2344 75.3125,510.0938 74.4375,510.0938 C71.8125,510.0938 69.8125,512.1719 69.8125,514.8906 L69.8125,516.0156 C69.8125,518.5938 71.9219,520.4844 74.8125,520.4844 C76.0313,520.4844 77.1875,520.1875 77.9375,519.6406 C78.5156,519.2344 78.8438,518.7813 78.8438,518.3906 C78.8438,517.9375 78.4531,517.5469 77.9844,517.5469 C77.7656,517.5469 77.5625,517.625 77.375,517.8125 C76.9219,518.2969 76.9219,518.2969 76.7344,518.3906 C76.3125,518.6563 75.625,518.7813 74.8594,518.7813 C72.8125,518.7813 71.5156,517.6875 71.5156,515.9844 L71.5156,514.8906 C71.5156,513.1094 72.7656,511.7969 74.5,511.7969 C75.0781,511.7969 75.6875,511.9531 76.1563,512.2031 C76.6406,512.4844 76.8125,512.7031 76.9063,513.1094 C76.9688,513.5156 77,513.6406 77.1406,513.7656 C77.2813,513.9063 77.5156,514.0156 77.7344,514.0156 C78,514.0156 78.2656,513.875 78.4375,513.6563 C78.5469,513.5 78.5781,513.3125 78.5781,512.8906 L78.5781,511.4688 C78.5781,511.0313 78.5625,510.9063 78.4688,510.75 C78.3125,510.4844 78.0313,510.3438 77.7344,510.3438 C77.4375,510.3438 77.2344,510.4375 77.0156,510.75 L76.8438,510.6719 Z " fill="#000000"/><text fill="#000000" font-family="sans-serif" font-size="12" lengthAdjust="spacing" textLength="31" x="88.5" y="519.1543">Deck</text><line style="stroke:#A80036;stroke-width:1.5;" x1="60.5" x2="121.5" y1="531" y2="531"/><line style="stroke:#A80036;stroke-width:1.5;" x1="60.5" x2="121.5" y1="539" y2="539"/><!--MD5=[f8e7078f77c005d15b486c0c98deb1e6]
class Action--><rect fill="#FEFECE" filter="url(#fuowkh7rbrgpy)" height="48" id="Action" style="stroke:#A80036;stroke-width:1.5;" width="69" x="285.5" y="245"/><ellipse cx="300.5" cy="261" fill="#ADD1B2" rx="11" ry="11" style="stroke:#A80036;stroke-width:1.0;"/><path d="M302.8438,256.6719 C301.9063,256.2344 301.3125,256.0938 300.4375,256.0938 C297.8125,256.0938 295.8125,258.1719 295.8125,260.8906 L295.8125,262.0156 C295.8125,264.5938 297.9219,266.4844 300.8125,266.4844 C302.0313,266.4844 303.1875,266.1875 303.9375,265.6406 C304.5156,265.2344 304.8438,264.7813 304.8438,264.3906 C304.8438,263.9375 304.4531,263.5469 303.9844,263.5469 C303.7656,263.5469 303.5625,263.625 303.375,263.8125 C302.9219,264.2969 302.9219,264.2969 302.7344,264.3906 C302.3125,264.6563 301.625,264.7813 300.8594,264.7813 C298.8125,264.7813 297.5156,263.6875 297.5156,261.9844 L297.5156,260.8906 C297.5156,259.1094 298.7656,257.7969 300.5,257.7969 C301.0781,257.7969 301.6875,257.9531 302.1563,258.2031 C302.6406,258.4844 302.8125,258.7031 302.9063,259.1094 C302.9688,259.5156 303,259.6406 303.1406,259.7656 C303.2813,259.9063 303.5156,260.0156 303.7344,260.0156 C304,260.0156 304.2656,259.875 304.4375,259.6563 C304.5469,259.5 304.5781,259.3125 304.5781,258.8906 L304.5781,257.4688 C304.5781,257.0313 304.5625,256.9063 304.4688,256.75 C304.3125,256.4844 304.0313,256.3438 303.7344,256.3438 C303.4375,256.3438 303.2344,256.4375 303.0156,256.75 L302.8438,256.6719 Z " fill="#000000"/><text fill="#000000" font-family="sans-serif" font-size="12" lengthAdjust="spacing" textLength="37" x="314.5" y="265.1543">Action</text><line style="stroke:#A80036;stroke-width:1.5;" x1="286.5" x2="353.5" y1="277" y2="277"/><line style="stroke:#A80036;stroke-width:1.5;" x1="286.5" x2="353.5" y1="285" y2="285"/><polygon fill="none" points="320,293,327,313,313,313" style="stroke:#A80036;stroke-width:1.0;"/><line style="stroke:#A80036;stroke-width:1.0;" x1="320" x2="320" y1="313" y2="314"/><line style="stroke:#A80036;stroke-width:1.0;" x1="320" x2="320" y1="245" y2="219.528"/><!--MD5=[0f690a215a17a0cf4b9f948ca5dd1b3e]
class Rank--><rect fill="#FEFECE" filter="url(#fuowkh7rbrgpy)" height="48" id="Rank" style="stroke:#A80036;stroke-width:1.5;" width="60" x="260" y="717"/><ellipse cx="275" cy="733" fill="#ADD1B2" rx="11" ry="11" style="stroke:#A80036;stroke-width:1.0;"/><path d="M277.3438,728.6719 C276.4063,728.2344 275.8125,728.0938 274.9375,728.0938 C272.3125,728.0938 270.3125,730.1719 270.3125,732.8906 L270.3125,734.0156 C270.3125,736.5938 272.4219,738.4844 275.3125,738.4844 C276.5313,738.4844 277.6875,738.1875 278.4375,737.6406 C279.0156,737.2344 279.3438,736.7813 279.3438,736.3906 C279.3438,735.9375 278.9531,735.5469 278.4844,735.5469 C278.2656,735.5469 278.0625,735.625 277.875,735.8125 C277.4219,736.2969 277.4219,736.2969 277.2344,736.3906 C276.8125,736.6563 276.125,736.7813 275.3594,736.7813 C273.3125,736.7813 272.0156,735.6875 272.0156,733.9844 L272.0156,732.8906 C272.0156,731.1094 273.2656,729.7969 275,729.7969 C275.5781,729.7969 276.1875,729.9531 276.6563,730.2031 C277.1406,730.4844 277.3125,730.7031 277.4063,731.1094 C277.4688,731.5156 277.5,731.6406 277.6406,731.7656 C277.7813,731.9063 278.0156,732.0156 278.2344,732.0156 C278.5,732.0156 278.7656,731.875 278.9375,731.6563 C279.0469,731.5 279.0781,731.3125 279.0781,730.8906 L279.0781,729.4688 C279.0781,729.0313 279.0625,728.9063 278.9688,728.75 C278.8125,728.4844 278.5313,728.3438 278.2344,728.3438 C277.9375,728.3438 277.7344,728.4375 277.5156,728.75 L277.3438,728.6719 Z " fill="#000000"/><text fill="#000000" font-family="sans-serif" font-size="12" lengthAdjust="spacing" textLength="28" x="289" y="737.1543">Rank</text><line style="stroke:#A80036;stroke-width:1.5;" x1="261" x2="319" y1="749" y2="749"/><line style="stroke:#A80036;stroke-width:1.5;" x1="261" x2="319" y1="757" y2="757"/><!--MD5=[8afaa0cc9be9ac1cdc24999fa1642fa3]
class Suit--><rect fill="#FEFECE" filter="url(#fuowkh7rbrgpy)" height="48" id="Suit" style="stroke:#A80036;stroke-width:1.5;" width="54" x="355" y="717"/><ellipse cx="370" cy="733" fill="#ADD1B2" rx="11" ry="11" style="stroke:#A80036;stroke-width:1.0;"/><path d="M372.3438,728.6719 C371.4063,728.2344 370.8125,728.0938 369.9375,728.0938 C367.3125,728.0938 365.3125,730.1719 365.3125,732.8906 L365.3125,734.0156 C365.3125,736.5938 367.4219,738.4844 370.3125,738.4844 C371.5313,738.4844 372.6875,738.1875 373.4375,737.6406 C374.0156,737.2344 374.3438,736.7813 374.3438,736.3906 C374.3438,735.9375 373.9531,735.5469 373.4844,735.5469 C373.2656,735.5469 373.0625,735.625 372.875,735.8125 C372.4219,736.2969 372.4219,736.2969 372.2344,736.3906 C371.8125,736.6563 371.125,736.7813 370.3594,736.7813 C368.3125,736.7813 367.0156,735.6875 367.0156,733.9844 L367.0156,732.8906 C367.0156,731.1094 368.2656,729.7969 370,729.7969 C370.5781,729.7969 371.1875,729.9531 371.6563,730.2031 C372.1406,730.4844 372.3125,730.7031 372.4063,731.1094 C372.4688,731.5156 372.5,731.6406 372.6406,731.7656 C372.7813,731.9063 373.0156,732.0156 373.2344,732.0156 C373.5,732.0156 373.7656,731.875 373.9375,731.6563 C374.0469,731.5 374.0781,731.3125 374.0781,730.8906 L374.0781,729.4688 C374.0781,729.0313 374.0625,728.9063 373.9688,728.75 C373.8125,728.4844 373.5313,728.3438 373.2344,728.3438 C372.9375,728.3438 372.7344,728.4375 372.5156,728.75 L372.3438,728.6719 Z " fill="#000000"/><text fill="#000000" font-family="sans-serif" font-size="12" lengthAdjust="spacing" textLength="22" x="384" y="737.1543">Suit</text><line style="stroke:#A80036;stroke-width:1.5;" x1="356" x2="408" y1="749" y2="749"/><line style="stroke:#A80036;stroke-width:1.5;" x1="356" x2="408" y1="757" y2="757"/><!--MD5=[18eee71c88ab61f27581b8cbdd3ef5ee]
class Color--><rect fill="#FEFECE" filter="url(#fuowkh7rbrgpy)" height="48" id="Color" style="stroke:#A80036;stroke-width:1.5;" width="64" x="350" y="846"/><ellipse cx="365" cy="862" fill="#ADD1B2" rx="11" ry="11" style="stroke:#A80036;stroke-width:1.0;"/><path d="M367.3438,857.6719 C366.4063,857.2344 365.8125,857.0938 364.9375,857.0938 C362.3125,857.0938 360.3125,859.1719 360.3125,861.8906 L360.3125,863.0156 C360.3125,865.5938 362.4219,867.4844 365.3125,867.4844 C366.5313,867.4844 367.6875,867.1875 368.4375,866.6406 C369.0156,866.2344 369.3438,865.7813 369.3438,865.3906 C369.3438,864.9375 368.9531,864.5469 368.4844,864.5469 C368.2656,864.5469 368.0625,864.625 367.875,864.8125 C367.4219,865.2969 367.4219,865.2969 367.2344,865.3906 C366.8125,865.6563 366.125,865.7813 365.3594,865.7813 C363.3125,865.7813 362.0156,864.6875 362.0156,862.9844 L362.0156,861.8906 C362.0156,860.1094 363.2656,858.7969 365,858.7969 C365.5781,858.7969 366.1875,858.9531 366.6563,859.2031 C367.1406,859.4844 367.3125,859.7031 367.4063,860.1094 C367.4688,860.5156 367.5,860.6406 367.6406,860.7656 C367.7813,860.9063 368.0156,861.0156 368.2344,861.0156 C368.5,861.0156 368.7656,860.875 368.9375,860.6563 C369.0469,860.5 369.0781,860.3125 369.0781,859.8906 L369.0781,858.4688 C369.0781,858.0313 369.0625,857.9063 368.9688,857.75 C368.8125,857.4844 368.5313,857.3438 368.2344,857.3438 C367.9375,857.3438 367.7344,857.4375 367.5156,857.75 L367.3438,857.6719 Z " fill="#000000"/><text fill="#000000" font-family="sans-serif" font-size="12" lengthAdjust="spacing" textLength="32" x="379" y="866.1543">Color</text><line style="stroke:#A80036;stroke-width:1.5;" x1="351" x2="413" y1="878" y2="878"/><line style="stroke:#A80036;stroke-width:1.5;" x1="351" x2="413" y1="886" y2="886"/><polygon fill="none" points="382,894,389,914,375,914" style="stroke:#A80036;stroke-width:1.0;"/><line style="stroke:#A80036;stroke-width:1.0;" x1="382" x2="382" y1="914" y2="915"/><line style="stroke:#A80036;stroke-width:1.0;" x1="382" x2="382" y1="846" y2="812.528"/><!--MD5=[365150d8163e865a226452c70cc7ad9f]
class Black--><rect fill="#FEFECE" filter="url(#fuowkh7rbrgpy)" height="48" id="Black" style="stroke:#A80036;stroke-width:1.5;" width="64" x="303" y="975"/><ellipse cx="318" cy="991" fill="#ADD1B2" rx="11" ry="11" style="stroke:#A80036;stroke-width:1.0;"/><path d="M320.3438,986.6719 C319.4063,986.2344 318.8125,986.0938 317.9375,986.0938 C315.3125,986.0938 313.3125,988.1719 313.3125,990.8906 L313.3125,992.0156 C313.3125,994.5938 315.4219,996.4844 318.3125,996.4844 C319.5313,996.4844 320.6875,996.1875 321.4375,995.6406 C322.0156,995.2344 322.3438,994.7813 322.3438,994.3906 C322.3438,993.9375 321.9531,993.5469 321.4844,993.5469 C321.2656,993.5469 321.0625,993.625 320.875,993.8125 C320.4219,994.2969 320.4219,994.2969 320.2344,994.3906 C319.8125,994.6563 319.125,994.7813 318.3594,994.7813 C316.3125,994.7813 315.0156,993.6875 315.0156,991.9844 L315.0156,990.8906 C315.0156,989.1094 316.2656,987.7969 318,987.7969 C318.5781,987.7969 319.1875,987.9531 319.6563,988.2031 C320.1406,988.4844 320.3125,988.7031 320.4063,989.1094 C320.4688,989.5156 320.5,989.6406 320.6406,989.7656 C320.7813,989.9063 321.0156,990.0156 321.2344,990.0156 C321.5,990.0156 321.7656,989.875 321.9375,989.6563 C322.0469,989.5 322.0781,989.3125 322.0781,988.8906 L322.0781,987.4688 C322.0781,987.0313 322.0625,986.9063 321.9688,986.75 C321.8125,986.4844 321.5313,986.3438 321.2344,986.3438 C320.9375,986.3438 320.7344,986.4375 320.5156,986.75 L320.3438,986.6719 Z " fill="#000000"/><text fill="#000000" font-family="sans-serif" font-size="12" lengthAdjust="spacing" textLength="32" x="332" y="995.1543">Black</text><line style="stroke:#A80036;stroke-width:1.5;" x1="304" x2="366" y1="1007" y2="1007"/><line style="stroke:#A80036;stroke-width:1.5;" x1="304" x2="366" y1="1015" y2="1015"/><!--MD5=[08be530975453a47bdc5b5370100f2fc]
class Red--><rect fill="#FEFECE" filter="url(#fuowkh7rbrgpy)" height="48" id="Red" style="stroke:#A80036;stroke-width:1.5;" width="55" x="402.5" y="975"/><ellipse cx="417.5" cy="991" fill="#ADD1B2" rx="11" ry="11" style="stroke:#A80036;stroke-width:1.0;"/><path d="M419.8438,986.6719 C418.9063,986.2344 418.3125,986.0938 417.4375,986.0938 C414.8125,986.0938 412.8125,988.1719 412.8125,990.8906 L412.8125,992.0156 C412.8125,994.5938 414.9219,996.4844 417.8125,996.4844 C419.0313,996.4844 420.1875,996.1875 420.9375,995.6406 C421.5156,995.2344 421.8438,994.7813 421.8438,994.3906 C421.8438,993.9375 421.4531,993.5469 420.9844,993.5469 C420.7656,993.5469 420.5625,993.625 420.375,993.8125 C419.9219,994.2969 419.9219,994.2969 419.7344,994.3906 C419.3125,994.6563 418.625,994.7813 417.8594,994.7813 C415.8125,994.7813 414.5156,993.6875 414.5156,991.9844 L414.5156,990.8906 C414.5156,989.1094 415.7656,987.7969 417.5,987.7969 C418.0781,987.7969 418.6875,987.9531 419.1563,988.2031 C419.6406,988.4844 419.8125,988.7031 419.9063,989.1094 C419.9688,989.5156 420,989.6406 420.1406,989.7656 C420.2813,989.9063 420.5156,990.0156 420.7344,990.0156 C421,990.0156 421.2656,989.875 421.4375,989.6563 C421.5469,989.5 421.5781,989.3125 421.5781,988.8906 L421.5781,987.4688 C421.5781,987.0313 421.5625,986.9063 421.4688,986.75 C421.3125,986.4844 421.0313,986.3438 420.7344,986.3438 C420.4375,986.3438 420.2344,986.4375 420.0156,986.75 L419.8438,986.6719 Z " fill="#000000"/><text fill="#000000" font-family="sans-serif" font-size="12" lengthAdjust="spacing" textLength="23" x="431.5" y="995.1543">Red</text><line style="stroke:#A80036;stroke-width:1.5;" x1="403.5" x2="456.5" y1="1007" y2="1007"/><line style="stroke:#A80036;stroke-width:1.5;" x1="403.5" x2="456.5" y1="1015" y2="1015"/><!--MD5=[3b6333e53553eb74a79779897e822cf9]
class Grab--><rect fill="#FEFECE" filter="url(#fuowkh7rbrgpy)" height="48" id="Grab" style="stroke:#A80036;stroke-width:1.5;" width="61" x="63.5" y="374"/><ellipse cx="78.5" cy="390" fill="#ADD1B2" rx="11" ry="11" style="stroke:#A80036;stroke-width:1.0;"/><path d="M80.8438,385.6719 C79.9063,385.2344 79.3125,385.0938 78.4375,385.0938 C75.8125,385.0938 73.8125,387.1719 73.8125,389.8906 L73.8125,391.0156 C73.8125,393.5938 75.9219,395.4844 78.8125,395.4844 C80.0313,395.4844 81.1875,395.1875 81.9375,394.6406 C82.5156,394.2344 82.8438,393.7813 82.8438,393.3906 C82.8438,392.9375 82.4531,392.5469 81.9844,392.5469 C81.7656,392.5469 81.5625,392.625 81.375,392.8125 C80.9219,393.2969 80.9219,393.2969 80.7344,393.3906 C80.3125,393.6563 79.625,393.7813 78.8594,393.7813 C76.8125,393.7813 75.5156,392.6875 75.5156,390.9844 L75.5156,389.8906 C75.5156,388.1094 76.7656,386.7969 78.5,386.7969 C79.0781,386.7969 79.6875,386.9531 80.1563,387.2031 C80.6406,387.4844 80.8125,387.7031 80.9063,388.1094 C80.9688,388.5156 81,388.6406 81.1406,388.7656 C81.2813,388.9063 81.5156,389.0156 81.7344,389.0156 C82,389.0156 82.2656,388.875 82.4375,388.6563 C82.5469,388.5 82.5781,388.3125 82.5781,387.8906 L82.5781,386.4688 C82.5781,386.0313 82.5625,385.9063 82.4688,385.75 C82.3125,385.4844 82.0313,385.3438 81.7344,385.3438 C81.4375,385.3438 81.2344,385.4375 81.0156,385.75 L80.8438,385.6719 Z " fill="#000000"/><text fill="#000000" font-family="sans-serif" font-size="12" lengthAdjust="spacing" textLength="29" x="92.5" y="394.1543">Grab</text><line style="stroke:#A80036;stroke-width:1.5;" x1="64.5" x2="123.5" y1="406" y2="406"/><line style="stroke:#A80036;stroke-width:1.5;" x1="64.5" x2="123.5" y1="414" y2="414"/><!--MD5=[9d65f55e1ae89a5b4cf38812aa4a03f3]
class Pile--><rect fill="#FEFECE" filter="url(#fuowkh7rbrgpy)" height="48" id="Pile" style="stroke:#A80036;stroke-width:1.5;" width="52" x="519" y="374"/><ellipse cx="534" cy="390" fill="#ADD1B2" rx="11" ry="11" style="stroke:#A80036;stroke-width:1.0;"/><path d="M536.3438,385.6719 C535.4063,385.2344 534.8125,385.0938 533.9375,385.0938 C531.3125,385.0938 529.3125,387.1719 529.3125,389.8906 L529.3125,391.0156 C529.3125,393.5938 531.4219,395.4844 534.3125,395.4844 C535.5313,395.4844 536.6875,395.1875 537.4375,394.6406 C538.0156,394.2344 538.3438,393.7813 538.3438,393.3906 C538.3438,392.9375 537.9531,392.5469 537.4844,392.5469 C537.2656,392.5469 537.0625,392.625 536.875,392.8125 C536.4219,393.2969 536.4219,393.2969 536.2344,393.3906 C535.8125,393.6563 535.125,393.7813 534.3594,393.7813 C532.3125,393.7813 531.0156,392.6875 531.0156,390.9844 L531.0156,389.8906 C531.0156,388.1094 532.2656,386.7969 534,386.7969 C534.5781,386.7969 535.1875,386.9531 535.6563,387.2031 C536.1406,387.4844 536.3125,387.7031 536.4063,388.1094 C536.4688,388.5156 536.5,388.6406 536.6406,388.7656 C536.7813,388.9063 537.0156,389.0156 537.2344,389.0156 C537.5,389.0156 537.7656,388.875 537.9375,388.6563 C538.0469,388.5 538.0781,388.3125 538.0781,387.8906 L538.0781,386.4688 C538.0781,386.0313 538.0625,385.9063 537.9688,385.75 C537.8125,385.4844 537.5313,385.3438 537.2344,385.3438 C536.9375,385.3438 536.7344,385.4375 536.5156,385.75 L536.3438,385.6719 Z " fill="#000000"/><text fill="#000000" font-family="sans-serif" font-size="12" lengthAdjust="spacing" textLength="20" x="548" y="394.1543">Pile</text><line style="stroke:#A80036;stroke-width:1.5;" x1="520" x2="570" y1="406" y2="406"/><line style="stroke:#A80036;stroke-width:1.5;" x1="520" x2="570" y1="414" y2="414"/><!--MD5=[1981719fa3982d92ef7fd3f06d73b3e7]
class Move--><rect fill="#FEFECE" filter="url(#fuowkh7rbrgpy)" height="48" id="Move" style="stroke:#A80036;stroke-width:1.5;" width="65" x="287.5" y="374"/><ellipse cx="302.5" cy="390" fill="#ADD1B2" rx="11" ry="11" style="stroke:#A80036;stroke-width:1.0;"/><path d="M304.8438,385.6719 C303.9063,385.2344 303.3125,385.0938 302.4375,385.0938 C299.8125,385.0938 297.8125,387.1719 297.8125,389.8906 L297.8125,391.0156 C297.8125,393.5938 299.9219,395.4844 302.8125,395.4844 C304.0313,395.4844 305.1875,395.1875 305.9375,394.6406 C306.5156,394.2344 306.8438,393.7813 306.8438,393.3906 C306.8438,392.9375 306.4531,392.5469 305.9844,392.5469 C305.7656,392.5469 305.5625,392.625 305.375,392.8125 C304.9219,393.2969 304.9219,393.2969 304.7344,393.3906 C304.3125,393.6563 303.625,393.7813 302.8594,393.7813 C300.8125,393.7813 299.5156,392.6875 299.5156,390.9844 L299.5156,389.8906 C299.5156,388.1094 300.7656,386.7969 302.5,386.7969 C303.0781,386.7969 303.6875,386.9531 304.1563,387.2031 C304.6406,387.4844 304.8125,387.7031 304.9063,388.1094 C304.9688,388.5156 305,388.6406 305.1406,388.7656 C305.2813,388.9063 305.5156,389.0156 305.7344,389.0156 C306,389.0156 306.2656,388.875 306.4375,388.6563 C306.5469,388.5 306.5781,388.3125 306.5781,387.8906 L306.5781,386.4688 C306.5781,386.0313 306.5625,385.9063 306.4688,385.75 C306.3125,385.4844 306.0313,385.3438 305.7344,385.3438 C305.4375,385.3438 305.2344,385.4375 305.0156,385.75 L304.8438,385.6719 Z " fill="#000000"/><text fill="#000000" font-family="sans-serif" font-size="12" lengthAdjust="spacing" textLength="33" x="316.5" y="394.1543">Move</text><line style="stroke:#A80036;stroke-width:1.5;" x1="288.5" x2="351.5" y1="406" y2="406"/><line style="stroke:#A80036;stroke-width:1.5;" x1="288.5" x2="351.5" y1="414" y2="414"/><!--MD5=[1a47157467d69c83c0a10e9152875283]
class Stack--><rect fill="#FEFECE" filter="url(#fuowkh7rbrgpy)" height="48" id="Stack" style="stroke:#A80036;stroke-width:1.5;" width="65" x="277.5" y="499"/><ellipse cx="292.5" cy="515" fill="#ADD1B2" rx="11" ry="11" style="stroke:#A80036;stroke-width:1.0;"/><path d="M294.8438,510.6719 C293.9063,510.2344 293.3125,510.0938 292.4375,510.0938 C289.8125,510.0938 287.8125,512.1719 287.8125,514.8906 L287.8125,516.0156 C287.8125,518.5938 289.9219,520.4844 292.8125,520.4844 C294.0313,520.4844 295.1875,520.1875 295.9375,519.6406 C296.5156,519.2344 296.8438,518.7813 296.8438,518.3906 C296.8438,517.9375 296.4531,517.5469 295.9844,517.5469 C295.7656,517.5469 295.5625,517.625 295.375,517.8125 C294.9219,518.2969 294.9219,518.2969 294.7344,518.3906 C294.3125,518.6563 293.625,518.7813 292.8594,518.7813 C290.8125,518.7813 289.5156,517.6875 289.5156,515.9844 L289.5156,514.8906 C289.5156,513.1094 290.7656,511.7969 292.5,511.7969 C293.0781,511.7969 293.6875,511.9531 294.1563,512.2031 C294.6406,512.4844 294.8125,512.7031 294.9063,513.1094 C294.9688,513.5156 295,513.6406 295.1406,513.7656 C295.2813,513.9063 295.5156,514.0156 295.7344,514.0156 C296,514.0156 296.2656,513.875 296.4375,513.6563 C296.5469,513.5 296.5781,513.3125 296.5781,512.8906 L296.5781,511.4688 C296.5781,511.0313 296.5625,510.9063 296.4688,510.75 C296.3125,510.4844 296.0313,510.3438 295.7344,510.3438 C295.4375,510.3438 295.2344,510.4375 295.0156,510.75 L294.8438,510.6719 Z " fill="#000000"/><text fill="#000000" font-family="sans-serif" font-size="12" lengthAdjust="spacing" textLength="33" x="306.5" y="519.1543">Stack</text><line style="stroke:#A80036;stroke-width:1.5;" x1="278.5" x2="341.5" y1="531" y2="531"/><line style="stroke:#A80036;stroke-width:1.5;" x1="278.5" x2="341.5" y1="539" y2="539"/><!--MD5=[66e773952485c2ebd2097a6df943c858]
link Klondike to Card--><path codeLine="2" d="M144.0412,38.8031 C144.0412,38.8031 6,75.94 6,139 C6,139 6,139 6,524 C6,578.647 182.997,612.197 266.88,625.028 " fill="none" id="Klondike-Card" style="stroke:#A80036;stroke-width:1.0;"/><polygon fill="#A80036" points="279.74,626.944,271.4277,621.6615,274.7946,626.2072,270.2488,629.5741,279.74,626.944" style="stroke:#A80036;stroke-width:1.0;"/><line style="stroke:#A80036;stroke-width:1.0;" x1="274.7946" x2="266.8815" y1="626.2072" y2="625.0285"/><polygon fill="#A80036" points="155.865,36.754,149.2701,33.8373,144.0412,38.8031,150.6361,41.7198,155.865,36.754" style="stroke:#A80036;stroke-width:1.0;"/><text fill="#000000" font-family="sans-serif" font-size="13" lengthAdjust="spacing" textLength="16" x="255.8489" y="621.4349">52</text><!--MD5=[dab1da9339276fc887094323b3198398]
link Klondike to Goal--><path codeLine="3" d="M233.4937,63.1296 C233.4937,63.1296 268.14,93.516 283.751,107.208 " fill="none" id="Klondike-Goal" style="stroke:#A80036;stroke-width:1.0;"/><polygon fill="#A80036" points="293.579,115.828,289.4496,106.8866,289.8197,112.5314,284.175,112.9015,293.579,115.828" style="stroke:#A80036;stroke-width:1.0;"/><line style="stroke:#A80036;stroke-width:1.0;" x1="289.8197" x2="283.806" y1="112.5314" y2="107.256"/><polygon fill="#A80036" points="224.472,55.217,226.3453,62.1805,233.4937,63.1296,231.6204,56.1661,224.472,55.217" style="stroke:#A80036;stroke-width:1.0;"/><text fill="#000000" font-family="sans-serif" font-size="13" lengthAdjust="spacing" textLength="8" x="277.7836" y="104.796">1</text><!--MD5=[fb24d2263bbe8bbe5e595afa25ff4aec]
link Klondike to Board--><path codeLine="4" d="M198,67.109 C198,67.109 198,290.532 198,360.519 " fill="none" id="Klondike-Board" style="stroke:#A80036;stroke-width:1.0;"/><polygon fill="#A80036" points="198,373.757,202,364.757,198,368.757,194,364.757,198,373.757" style="stroke:#A80036;stroke-width:1.0;"/><line style="stroke:#A80036;stroke-width:1.0;" x1="198" x2="198" y1="368.757" y2="360.757"/><polygon fill="#A80036" points="198,55.109,194,61.109,198,67.109,202,61.109,198,55.109" style="stroke:#A80036;stroke-width:1.0;"/><text fill="#000000" font-family="sans-serif" font-size="13" lengthAdjust="spacing" textLength="8" x="189.025" y="363.1027">1</text><!--MD5=[db49cb27e23f440166ed6bf82d53fab8]
link Board to SuitPile--><path codeLine="5" d="M243.2038,418.3059 C243.2038,418.3059 382.802,477.926 436.706,500.947 " fill="none" id="Board-SuitPile" style="stroke:#A80036;stroke-width:1.0;"/><polygon fill="#A80036" points="448.693,506.067,441.9871,498.8538,444.0947,504.1033,438.8452,506.211,448.693,506.067" style="stroke:#A80036;stroke-width:1.0;"/><line style="stroke:#A80036;stroke-width:1.0;" x1="444.0947" x2="436.737" y1="504.1033" y2="500.9605"/><polygon fill="#A80036" points="232.168,413.593,236.1149,419.628,243.2038,418.3059,239.2569,412.2708,232.168,413.593" style="stroke:#A80036;stroke-width:1.0;"/><text fill="#000000" font-family="sans-serif" font-size="13" lengthAdjust="spacing" textLength="8" x="433.077" y="498.6413">4</text><!--MD5=[b06ddc870dc99cad83f50095c34f5ffc]
link Board to StackPile--><path codeLine="6" d="M198.5712,434.1334 C198.5712,434.1334 199.152,469.856 199.411,485.801 " fill="none" id="Board-StackPile" style="stroke:#A80036;stroke-width:1.0;"/><polygon fill="#A80036" points="199.626,498.968,203.4791,489.9041,199.5447,493.9687,195.4801,490.0343,199.626,498.968" style="stroke:#A80036;stroke-width:1.0;"/><line style="stroke:#A80036;stroke-width:1.0;" x1="199.5447" x2="199.414" y1="493.9687" y2="485.97"/><polygon fill="#A80036" points="198.376,422.135,194.4741,428.1993,198.5712,434.1334,202.4731,428.0692,198.376,422.135" style="stroke:#A80036;stroke-width:1.0;"/><text fill="#000000" font-family="sans-serif" font-size="13" lengthAdjust="spacing" textLength="8" x="190.5052" y="487.9718">7</text><!--MD5=[2f107ca59039f23e25b0978f5f7f00af]
link Board to Deck--><path codeLine="7" d="M169.9979,431.1886 C169.9979,431.1886 135.004,471.415 119.628,489.091 " fill="none" id="Board-Deck" style="stroke:#A80036;stroke-width:1.0;"/><polygon fill="#A80036" points="111.036,498.968,119.9609,494.8032,114.3177,495.1957,113.9252,489.5524,111.036,498.968" style="stroke:#A80036;stroke-width:1.0;"/><line style="stroke:#A80036;stroke-width:1.0;" x1="114.3177" x2="119.568" y1="495.1957" y2="489.1605"/><polygon fill="#A80036" points="177.874,422.135,170.9181,424.0364,169.9979,431.1886,176.9538,429.2872,177.874,422.135" style="stroke:#A80036;stroke-width:1.0;"/><text fill="#000000" font-family="sans-serif" font-size="13" lengthAdjust="spacing" textLength="8" x="107.1447" y="487.9718">1</text><!--MD5=[9ea24298febf24697f9a75989c4b4d86]
link SuitPile to Card--><path codeLine="8" d="M452.5605,554.9875 C452.5605,554.9875 432.128,571.488 422,578 C400.068,592.102 373.796,604.732 352.211,614.122 " fill="none" id="SuitPile-Card" style="stroke:#A80036;stroke-width:1.0;"/><polygon fill="#A80036" points="340.112,619.263,349.9595,619.4244,344.7137,617.3075,346.8307,612.0617,340.112,619.263" style="stroke:#A80036;stroke-width:1.0;"/><line style="stroke:#A80036;stroke-width:1.0;" x1="344.7137" x2="352.0765" y1="617.3075" y2="614.1785"/><polygon fill="none" points="461.638,547.139,454.4831,548.0374,452.5605,554.9875,459.7154,554.0891,461.638,547.139" style="stroke:#A80036;stroke-width:1.0;"/><!--MD5=[d334cc2dfacd1137c36590d4c46d952a]
link Goal to Action--><path codeLine="9" d="M320,164.294 C320,179.741 320,200.581 320,219.528 " fill="none" id="Goal-to-Action" style="stroke:#A80036;stroke-width:1.0;stroke-dasharray:7.0,7.0;"/><polygon fill="#A80036" points="320,224.815,324,215.815,320,219.815,316,215.815,320,224.815" style="stroke:#A80036;stroke-width:1.0;"/><!--MD5=[37ec50c5955c4025287187c583adc383]
link Goal to SuitPile--><path codeLine="10" d="M344.26,164.019 C359.776,179.891 379.303,202.171 392,225 C442.805,316.347 470.475,439.042 480.985,493.691 " fill="none" id="Goal-to-SuitPile" style="stroke:#A80036;stroke-width:1.0;"/><polygon fill="#A80036" points="481.949,498.764,484.1993,489.1757,481.016,493.8518,476.3399,490.6685,481.949,498.764" style="stroke:#A80036;stroke-width:1.0;"/><!--MD5=[c905f1b8e8f3426bca82a4905da2e16e]
link Deck to Card--><path codeLine="11" d="M133.626,544.8267 C133.626,544.8267 229.857,591.844 268.133,610.545 " fill="none" id="Deck-Card" style="stroke:#A80036;stroke-width:1.0;"/><polygon fill="#A80036" points="279.878,616.283,273.547,608.7385,275.3854,614.0883,270.0356,615.9267,279.878,616.283" style="stroke:#A80036;stroke-width:1.0;"/><line style="stroke:#A80036;stroke-width:1.0;" x1="275.3854" x2="268.198" y1="614.0883" y2="610.576"/><polygon fill="none" points="122.844,539.559,126.4791,545.7868,133.626,544.8267,129.9909,538.5989,122.844,539.559" style="stroke:#A80036;stroke-width:1.0;"/><!--MD5=[dab4fdc688f775bd2cd14c67a04f3f7b]
link Card to Rank--><path codeLine="12" d="M303.4551,668.0127 C303.4551,668.0127 298.828,692.772 296.742,703.931 " fill="none" id="Card-Rank" style="stroke:#A80036;stroke-width:1.0;"/><polygon fill="#A80036" points="294.331,716.828,299.9165,708.7162,295.2497,711.9131,292.0527,707.2463,294.331,716.828" style="stroke:#A80036;stroke-width:1.0;"/><line style="stroke:#A80036;stroke-width:1.0;" x1="295.2497" x2="296.7195" y1="711.9131" y2="704.049"/><polygon fill="#A80036" points="305.66,656.217,300.6257,661.3799,303.4551,668.0127,308.4895,662.8498,305.66,656.217" style="stroke:#A80036;stroke-width:1.0;"/><text fill="#000000" font-family="sans-serif" font-size="13" lengthAdjust="spacing" textLength="8" x="286.4158" y="705.796">1</text><!--MD5=[01ae9f68263e6bc4031c0aece6e20929]
link Card to Suit--><path codeLine="13" d="M332.3226,666.1727 C332.3226,666.1727 350.664,693.431 358.898,705.668 " fill="none" id="Card-Suit" style="stroke:#A80036;stroke-width:1.0;"/><polygon fill="#A80036" points="366.408,716.828,364.7016,707.1281,363.6164,712.6799,358.0646,711.5947,366.408,716.828" style="stroke:#A80036;stroke-width:1.0;"/><line style="stroke:#A80036;stroke-width:1.0;" x1="363.6164" x2="359.15" y1="712.6799" y2="706.0425"/><polygon fill="#A80036" points="325.623,656.217,325.6542,663.428,332.3226,666.1727,332.2913,658.9617,325.623,656.217" style="stroke:#A80036;stroke-width:1.0;"/><text fill="#000000" font-family="sans-serif" font-size="13" lengthAdjust="spacing" textLength="8" x="353.3876" y="705.796">1</text><!--MD5=[177767f5f369ddd7a2766db2fec86924]
link Suit to Color--><path codeLine="14" d="M382,777.294 C382,777.294 382,801.008 382,812.528 " fill="none" id="Suit-Color" style="stroke:#A80036;stroke-width:1.0;"/><polygon fill="#A80036" points="382,825.815,386,816.815,382,820.815,378,816.815,382,825.815" style="stroke:#A80036;stroke-width:1.0;"/><line style="stroke:#A80036;stroke-width:1.0;" x1="382" x2="382" y1="820.815" y2="812.815"/><polygon fill="#A80036" points="382,765.294,378,771.294,382,777.294,386,771.294,382,765.294" style="stroke:#A80036;stroke-width:1.0;"/><text fill="#000000" font-family="sans-serif" font-size="13" lengthAdjust="spacing" textLength="8" x="373.3875" y="814.9778">1</text><!--MD5=[af66b58f2992f2e4db4f382db65f0624]
reverse link Color to Black--><path codeLine="15" d="M382,915 C382,915 361.999,950.3208 348.092,974.8799 " fill="none" id="Color-backto-Black" style="stroke:#A80036;stroke-width:1.0;"/><!--MD5=[fab54b5999e935266d298ad54749f91a]
reverse link Color to Red--><path codeLine="16" d="M382,915 C382,915 402.427,950.3208 416.629,974.8799 " fill="none" id="Color-backto-Red" style="stroke:#A80036;stroke-width:1.0;"/><!--MD5=[9c4551d8728367f4aa41552ecbf8b304]
reverse link Action to Grab--><path codeLine="17" d="M320,314 C320,314 222.14,344.095 146,374 C139.017,376.743 131.597,379.884 124.615,382.945 " fill="none" id="Action-backto-Grab" style="stroke:#A80036;stroke-width:1.0;"/><!--MD5=[b496b658d6e73da48288f8c423a47410]
reverse link Action to Pile--><path codeLine="18" d="M320,314 C320,314 459.397,365.422 518.749,387.316 " fill="none" id="Action-backto-Pile" style="stroke:#A80036;stroke-width:1.0;"/><!--MD5=[41de15b107b23d1b7c92311761b50ccb]
reverse link Action to Move--><path codeLine="19" d="M320,314 C320,314 320,349.321 320,373.88 " fill="none" id="Action-backto-Move" style="stroke:#A80036;stroke-width:1.0;"/><!--MD5=[21306de2a9755abebb01718afd6dca9b]
link Stack to Card--><path codeLine="20" d="M310,559.217 C310,559.217 310,583.502 310,594.563 " fill="none" id="Stack-Card" style="stroke:#A80036;stroke-width:1.0;"/><polygon fill="#A80036" points="310,607.828,314,598.828,310,602.828,306,598.828,310,607.828" style="stroke:#A80036;stroke-width:1.0;"/><line style="stroke:#A80036;stroke-width:1.0;" x1="310" x2="310" y1="602.828" y2="594.828"/><polygon fill="#A80036" points="310,547.217,306,553.217,310,559.217,314,553.217,310,547.217" style="stroke:#A80036;stroke-width:1.0;"/><text fill="#000000" font-family="sans-serif" font-size="13" lengthAdjust="spacing" textLength="23" x="284.0531" y="596.796">1..*</text><!--MD5=[aa7e4d7ed0bfb911076b092074061a54]
link Grab to Deck--><path codeLine="21" d="M93.4357,422.135 C92.9392,442.494 92.2149,472.191 91.6852,493.908 " fill="none" id="Grab-to-Deck" style="stroke:#A80036;stroke-width:1.0;stroke-dasharray:7.0,7.0;"/><polygon fill="#A80036" points="91.5617,498.968,95.7816,490.069,91.6846,493.9695,87.7841,489.8724,91.5617,498.968" style="stroke:#A80036;stroke-width:1.0;"/><!--MD5=[2e101bc79960a390b7c3399f0fda9d17]
link Pile to SuitPile--><path codeLine="22" d="M533.903,422.135 C524.055,442.666 509.652,472.693 499.212,494.456 " fill="none" id="Pile-to-SuitPile" style="stroke:#A80036;stroke-width:1.0;stroke-dasharray:7.0,7.0;"/><polygon fill="#A80036" points="497.048,498.968,504.5472,492.5835,499.2106,494.4599,497.3343,489.1233,497.048,498.968" style="stroke:#A80036;stroke-width:1.0;"/><text fill="#000000" font-family="sans-serif" font-size="13" lengthAdjust="spacing" textLength="39" x="521" y="465.0669">target</text><!--MD5=[1686cafc001cbb054836a454f368ddc9]
link Pile to Card--><path codeLine="23" d="M556.377,422.173 C560.242,431.246 564.07,441.889 566,452 C574.208,494.999 570.511,515.61 540,547 C486.863,601.669 395.299,620.966 345.226,627.621 " fill="none" id="Pile-to-Card" style="stroke:#A80036;stroke-width:1.0;stroke-dasharray:7.0,7.0;"/><polygon fill="#A80036" points="340.217,628.263,349.6525,631.0864,345.1764,627.6274,348.6355,623.1513,340.217,628.263" style="stroke:#A80036;stroke-width:1.0;"/><!--MD5=[6c77ec128121178e20fed2ad6a7e830d]
link Move to Stack--><path codeLine="24" d="M318.119,422.135 C316.464,442.494 314.05,472.191 312.284,493.908 " fill="none" id="Move-to-Stack" style="stroke:#A80036;stroke-width:1.0;stroke-dasharray:7.0,7.0;"/><polygon fill="#A80036" points="311.872,498.968,316.5892,490.3223,312.2778,493.9845,308.6156,489.6731,311.872,498.968" style="stroke:#A80036;stroke-width:1.0;"/><!--MD5=[1b68cfbb2cf92a2d2acb940f5266b841]
link Move to StackPile--><path codeLine="25" d="M296.146,422.023 C286.68,431.26 275.747,442.056 266,452 C252.332,465.945 237.383,481.752 225.174,494.812 " fill="none" id="Move-to-StackPile" style="stroke:#A80036;stroke-width:1.0;stroke-dasharray:7.0,7.0;"/><polygon fill="#A80036" points="221.478,498.771,230.5443,494.9237,224.8908,495.1168,224.6976,489.4633,221.478,498.771" style="stroke:#A80036;stroke-width:1.0;"/><text fill="#000000" font-family="sans-serif" font-size="13" lengthAdjust="spacing" textLength="39" x="267" y="465.0669">target</text><!--MD5=[610353d3a72395b77e7f561f5987d448]
link Move to Card--><path codeLine="26" d="M334.016,422.089 C349.912,451.223 372.143,502.86 360,547 C354.363,567.491 342.277,588.035 331.399,603.677 " fill="none" id="Move-to-Card" style="stroke:#A80036;stroke-width:1.0;stroke-dasharray:7.0,7.0;"/><polygon fill="#A80036" points="328.37,607.955,336.8363,602.9228,331.2601,603.8749,330.3081,598.2987,328.37,607.955" style="stroke:#A80036;stroke-width:1.0;"/><!--MD5=[edc2170c18d4ef06a903fa0b1dc41c7e]
link StackPile to Card--><path codeLine="27" d="M232.4692,555.5848 C232.4692,555.5848 262.963,585.245 276.649,598.559 " fill="none" id="StackPile-Card" style="stroke:#A80036;stroke-width:1.0;"/><polygon fill="#A80036" points="286.178,607.828,282.5157,598.6854,282.5939,604.3417,276.9376,604.4199,286.178,607.828" style="stroke:#A80036;stroke-width:1.0;"/><line style="stroke:#A80036;stroke-width:1.0;" x1="282.5939" x2="276.8595" y1="604.3417" y2="598.7635"/><polygon fill="none" points="223.868,547.217,225.3793,554.2679,232.4692,555.5848,230.9578,548.5338,223.868,547.217" style="stroke:#A80036;stroke-width:1.0;"/><!--MD5=[45c27363f5f0506256ded7efd17c7952]
@startuml
skinparam groupInheritance 2
Klondike *- -> "52" Card
Klondike *- -> "1" Goal
Klondike *- -> "1" Board
Board *- -> "4" SuitPile
Board *- -> "7" StackPile
Board *- -> "1" Deck
SuitPile o- -> Card
Goal ..> Action
Goal - -> SuitPile
Deck o- -> Card
Card *- -> "1" Rank
Card *- -> "1" Suit
Suit *- -> "1" Color
Color <|- - Black
Color <|- - Red
Action <|- - Grab
Action <|- - Pile
Action <|- - Move
Stack *- -> "1..*" Card
Grab ..> Deck
Pile ..> SuitPile : target
Pile ..> Card
Move ..> Stack
Move ..> StackPile : target
Move ..> Card
StackPile o- -> Card
@enduml

PlantUML version 1.2022.1(Tue Feb 01 18:19:58 UTC 2022)
(GPL source distribution)
Java Runtime: Java(TM) SE Runtime Environment
JVM: Java HotSpot(TM) 64-Bit Server VM
Default Encoding: UTF-8
Language: en
Country: US
--></g></svg>