<?xml version="1.0" encoding="UTF-8" standalone="no"?><svg xmlns="http://www.w3.org/2000/svg" xmlns:xlink="http://www.w3.org/1999/xlink" contentScriptType="application/ecmascript" contentStyleType="text/css" height="972px" preserveAspectRatio="none" style="width:974px;height:972px;background:#FFFFFF;" version="1.1" viewBox="0 0 974 972" width="974px" zoomAndPan="magnify"><defs><filter height="300%" id="frfd7poeaplc2" width="300%" x="-1" y="-1"><feGaussianBlur result="blurOut" stdDeviation="2.0"/><feColorMatrix in="blurOut" result="blurOut2" type="matrix" values="0 0 0 0 0 0 0 0 0 0 0 0 0 0 0 0 0 0 .4 0"/><feOffset dx="4.0" dy="4.0" in="blurOut2" result="blurOut3"/><feBlend in="SourceGraphic" in2="blurOut3" mode="normal"/></filter></defs><g><rect fill="#FEFECE" filter="url(#frfd7poeaplc2)" height="35.0938" style="stroke:#A80036;stroke-width:1.5;" width="55" x="455.5" y="329"/><text fill="#000000" font-family="sans-serif" font-size="12" lengthAdjust="spacing" textLength="41" x="462.5" y="343.457">Player1</text><line style="stroke:#A80036;stroke-width:1.5;" x1="456.5" x2="509.5" y1="348.0938" y2="348.0938"/><rect fill="#FEFECE" filter="url(#frfd7poeaplc2)" height="35.0938" style="stroke:#A80036;stroke-width:1.5;" width="55" x="455.5" y="207"/><text fill="#000000" font-family="sans-serif" font-size="12" lengthAdjust="spacing" textLength="41" x="462.5" y="221.457">Player2</text><line style="stroke:#A80036;stroke-width:1.5;" x1="456.5" x2="509.5" y1="226.0938" y2="226.0938"/><rect fill="#FEFECE" filter="url(#frfd7poeaplc2)" height="35.0938" style="stroke:#A80036;stroke-width:1.5;" width="60" x="601" y="329"/><text fill="#000000" font-family="sans-serif" font-size="12" lengthAdjust="spacing" textLength="46" x="608" y="343.457">Disc1_1</text><line style="stroke:#A80036;stroke-width:1.5;" x1="602" x2="660" y1="348.0938" y2="348.0938"/><rect fill="#FEFECE" filter="url(#frfd7poeaplc2)" height="35.0938" style="stroke:#A80036;stroke-width:1.5;" width="50" x="606" y="407"/><text fill="#000000" font-family="sans-serif" font-size="12" lengthAdjust="spacing" textLength="36" x="613" y="421.457">Yellow</text><line style="stroke:#A80036;stroke-width:1.5;" x1="607" x2="655" y1="426.0938" y2="426.0938"/><rect fill="#FEFECE" filter="url(#frfd7poeaplc2)" height="35.0938" style="stroke:#A80036;stroke-width:1.5;" width="67" x="736.5" y="329"/><text fill="#000000" font-family="sans-serif" font-size="12" lengthAdjust="spacing" textLength="53" x="743.5" y="343.457">Disc1_21</text><line style="stroke:#A80036;stroke-width:1.5;" x1="737.5" x2="802.5" y1="348.0938" y2="348.0938"/><rect fill="#FEFECE" filter="url(#frfd7poeaplc2)" height="35.0938" style="stroke:#A80036;stroke-width:1.5;" width="50" x="745" y="407"/><text fill="#000000" font-family="sans-serif" font-size="12" lengthAdjust="spacing" textLength="36" x="752" y="421.457">Yellow</text><line style="stroke:#A80036;stroke-width:1.5;" x1="746" x2="794" y1="426.0938" y2="426.0938"/><rect fill="#FEFECE" filter="url(#frfd7poeaplc2)" height="35.0938" style="stroke:#A80036;stroke-width:1.5;" width="60" x="601" y="207"/><text fill="#000000" font-family="sans-serif" font-size="12" lengthAdjust="spacing" textLength="46" x="608" y="221.457">Disc2_1</text><line style="stroke:#A80036;stroke-width:1.5;" x1="602" x2="660" y1="226.0938" y2="226.0938"/><rect fill="#FEFECE" filter="url(#frfd7poeaplc2)" height="35.0938" style="stroke:#A80036;stroke-width:1.5;" width="37" x="612.5" y="129"/><text fill="#000000" font-family="sans-serif" font-size="12" lengthAdjust="spacing" textLength="23" x="619.5" y="143.457">Red</text><line style="stroke:#A80036;stroke-width:1.5;" x1="613.5" x2="648.5" y1="148.0938" y2="148.0938"/><rect fill="#FEFECE" filter="url(#frfd7poeaplc2)" height="35.0938" style="stroke:#A80036;stroke-width:1.5;" width="67" x="736.5" y="207"/><text fill="#000000" font-family="sans-serif" font-size="12" lengthAdjust="spacing" textLength="53" x="743.5" y="221.457">Disc2_21</text><line style="stroke:#A80036;stroke-width:1.5;" x1="737.5" x2="802.5" y1="226.0938" y2="226.0938"/><rect fill="#FEFECE" filter="url(#frfd7poeaplc2)" height="35.0938" style="stroke:#A80036;stroke-width:1.5;" width="37" x="751.5" y="129"/><text fill="#000000" font-family="sans-serif" font-size="12" lengthAdjust="spacing" textLength="23" x="758.5" y="143.457">Red</text><line style="stroke:#A80036;stroke-width:1.5;" x1="752.5" x2="787.5" y1="148.0938" y2="148.0938"/><rect fill="#FEFECE" filter="url(#frfd7poeaplc2)" height="35.0938" style="stroke:#A80036;stroke-width:1.5;" width="70" x="521" y="7"/><text fill="#000000" font-family="sans-serif" font-size="12" lengthAdjust="spacing" textLength="56" x="528" y="21.457">:Connect4</text><line style="stroke:#A80036;stroke-width:1.5;" x1="522" x2="590" y1="26.0938" y2="26.0938"/><rect fill="#FEFECE" filter="url(#frfd7poeaplc2)" height="35.0938" style="stroke:#A80036;stroke-width:1.5;" width="50" x="458" y="485"/><text fill="#000000" font-family="sans-serif" font-size="12" lengthAdjust="spacing" textLength="36" x="465" y="499.457">:Board</text><line style="stroke:#A80036;stroke-width:1.5;" x1="459" x2="507" y1="504.0938" y2="504.0938"/><rect fill="#FEFECE" filter="url(#frfd7poeaplc2)" height="35.0938" style="stroke:#A80036;stroke-width:1.5;" width="106" x="110" y="549.5"/><text fill="#000000" font-family="sans-serif" font-size="12" lengthAdjust="spacing" textLength="92" x="117" y="563.957">HollowSquare11</text><line style="stroke:#A80036;stroke-width:1.5;" x1="111" x2="215" y1="568.5938" y2="568.5938"/><rect fill="#FEFECE" filter="url(#frfd7poeaplc2)" height="35.0938" style="stroke:#A80036;stroke-width:1.5;" width="106" x="751" y="549.5"/><text fill="#000000" font-family="sans-serif" font-size="12" lengthAdjust="spacing" textLength="92" x="758" y="563.957">HollowSquare17</text><line style="stroke:#A80036;stroke-width:1.5;" x1="752" x2="856" y1="568.5938" y2="568.5938"/><rect fill="#FEFECE" filter="url(#frfd7poeaplc2)" height="35.0938" style="stroke:#A80036;stroke-width:1.5;" width="106" x="161" y="622.5"/><text fill="#000000" font-family="sans-serif" font-size="12" lengthAdjust="spacing" textLength="92" x="168" y="636.957">HollowSquare21</text><line style="stroke:#A80036;stroke-width:1.5;" x1="162" x2="266" y1="641.5938" y2="641.5938"/><rect fill="#FEFECE" filter="url(#frfd7poeaplc2)" height="35.0938" style="stroke:#A80036;stroke-width:1.5;" width="106" x="700" y="622.5"/><text fill="#000000" font-family="sans-serif" font-size="12" lengthAdjust="spacing" textLength="92" x="707" y="636.957">HollowSquare27</text><line style="stroke:#A80036;stroke-width:1.5;" x1="701" x2="805" y1="641.5938" y2="641.5938"/><rect fill="#FEFECE" filter="url(#frfd7poeaplc2)" height="35.0938" style="stroke:#A80036;stroke-width:1.5;" width="106" x="212" y="695.5"/><text fill="#000000" font-family="sans-serif" font-size="12" lengthAdjust="spacing" textLength="92" x="219" y="709.957">HollowSquare31</text><line style="stroke:#A80036;stroke-width:1.5;" x1="213" x2="317" y1="714.5938" y2="714.5938"/><rect fill="#FEFECE" filter="url(#frfd7poeaplc2)" height="35.0938" style="stroke:#A80036;stroke-width:1.5;" width="106" x="649" y="695.5"/><text fill="#000000" font-family="sans-serif" font-size="12" lengthAdjust="spacing" textLength="92" x="656" y="709.957">HollowSquare37</text><line style="stroke:#A80036;stroke-width:1.5;" x1="650" x2="754" y1="714.5938" y2="714.5938"/><rect fill="#FEFECE" filter="url(#frfd7poeaplc2)" height="35.0938" style="stroke:#A80036;stroke-width:1.5;" width="106" x="263" y="768.5"/><text fill="#000000" font-family="sans-serif" font-size="12" lengthAdjust="spacing" textLength="92" x="270" y="782.957">HollowSquare41</text><line style="stroke:#A80036;stroke-width:1.5;" x1="264" x2="368" y1="787.5938" y2="787.5938"/><rect fill="#FEFECE" filter="url(#frfd7poeaplc2)" height="35.0938" style="stroke:#A80036;stroke-width:1.5;" width="106" x="598" y="768.5"/><text fill="#000000" font-family="sans-serif" font-size="12" lengthAdjust="spacing" textLength="92" x="605" y="782.957">HollowSquare47</text><line style="stroke:#A80036;stroke-width:1.5;" x1="599" x2="703" y1="787.5938" y2="787.5938"/><rect fill="#FEFECE" filter="url(#frfd7poeaplc2)" height="35.0938" style="stroke:#A80036;stroke-width:1.5;" width="106" x="272" y="841.5"/><text fill="#000000" font-family="sans-serif" font-size="12" lengthAdjust="spacing" textLength="92" x="279" y="855.957">HollowSquare51</text><line style="stroke:#A80036;stroke-width:1.5;" x1="273" x2="377" y1="860.5938" y2="860.5938"/><rect fill="#FEFECE" filter="url(#frfd7poeaplc2)" height="35.0938" style="stroke:#A80036;stroke-width:1.5;" width="106" x="595" y="841.5"/><text fill="#000000" font-family="sans-serif" font-size="12" lengthAdjust="spacing" textLength="92" x="602" y="855.957">HollowSquare57</text><line style="stroke:#A80036;stroke-width:1.5;" x1="596" x2="700" y1="860.5938" y2="860.5938"/><rect fill="#FEFECE" filter="url(#frfd7poeaplc2)" height="35.0938" style="stroke:#A80036;stroke-width:1.5;" width="106" x="272" y="914.5"/><text fill="#000000" font-family="sans-serif" font-size="12" lengthAdjust="spacing" textLength="92" x="279" y="928.957">HollowSquare61</text><line style="stroke:#A80036;stroke-width:1.5;" x1="273" x2="377" y1="933.5938" y2="933.5938"/><rect fill="#FEFECE" filter="url(#frfd7poeaplc2)" height="35.0938" style="stroke:#A80036;stroke-width:1.5;" width="106" x="595" y="914.5"/><text fill="#000000" font-family="sans-serif" font-size="12" lengthAdjust="spacing" textLength="92" x="602" y="928.957">HollowSquare67</text><line style="stroke:#A80036;stroke-width:1.5;" x1="596" x2="700" y1="933.5938" y2="933.5938"/><rect fill="#FEFECE" filter="url(#frfd7poeaplc2)" height="52.25" style="stroke:#A80036;stroke-width:1.5;" width="78" x="7" y="541"/><text fill="#000000" font-family="sans-serif" font-size="12" lengthAdjust="spacing" textLength="64" x="14" y="555.457">:Coordinate</text><line style="stroke:#A80036;stroke-width:1.5;" x1="8" x2="84" y1="560.0938" y2="560.0938"/><text fill="#000000" font-family="sans-serif" font-size="10" lengthAdjust="spacing" textLength="34" x="13" y="574.4746">row = 1</text><text fill="#000000" font-family="sans-serif" font-size="10" lengthAdjust="spacing" textLength="54" x="13" y="587.0527">column = 1</text><rect fill="#FEFECE" filter="url(#frfd7poeaplc2)" height="52.25" style="stroke:#A80036;stroke-width:1.5;" width="78" x="882" y="541"/><text fill="#000000" font-family="sans-serif" font-size="12" lengthAdjust="spacing" textLength="64" x="889" y="555.457">:Coordinate</text><line style="stroke:#A80036;stroke-width:1.5;" x1="883" x2="959" y1="560.0938" y2="560.0938"/><text fill="#000000" font-family="sans-serif" font-size="10" lengthAdjust="spacing" textLength="34" x="888" y="574.4746">row = 1</text><text fill="#000000" font-family="sans-serif" font-size="10" lengthAdjust="spacing" textLength="54" x="888" y="587.0527">column = 7</text><rect fill="#FEFECE" filter="url(#frfd7poeaplc2)" height="52.25" style="stroke:#A80036;stroke-width:1.5;" width="78" x="58" y="614"/><text fill="#000000" font-family="sans-serif" font-size="12" lengthAdjust="spacing" textLength="64" x="65" y="628.457">:Coordinate</text><line style="stroke:#A80036;stroke-width:1.5;" x1="59" x2="135" y1="633.0938" y2="633.0938"/><text fill="#000000" font-family="sans-serif" font-size="10" lengthAdjust="spacing" textLength="34" x="64" y="647.4746">row = 2</text><text fill="#000000" font-family="sans-serif" font-size="10" lengthAdjust="spacing" textLength="54" x="64" y="660.0527">column = 1</text><rect fill="#FEFECE" filter="url(#frfd7poeaplc2)" height="52.25" style="stroke:#A80036;stroke-width:1.5;" width="78" x="831" y="614"/><text fill="#000000" font-family="sans-serif" font-size="12" lengthAdjust="spacing" textLength="64" x="838" y="628.457">:Coordinate</text><line style="stroke:#A80036;stroke-width:1.5;" x1="832" x2="908" y1="633.0938" y2="633.0938"/><text fill="#000000" font-family="sans-serif" font-size="10" lengthAdjust="spacing" textLength="34" x="837" y="647.4746">row = 2</text><text fill="#000000" font-family="sans-serif" font-size="10" lengthAdjust="spacing" textLength="54" x="837" y="660.0527">column = 7</text><rect fill="#FEFECE" filter="url(#frfd7poeaplc2)" height="52.25" style="stroke:#A80036;stroke-width:1.5;" width="78" x="109" y="687"/><text fill="#000000" font-family="sans-serif" font-size="12" lengthAdjust="spacing" textLength="64" x="116" y="701.457">:Coordinate</text><line style="stroke:#A80036;stroke-width:1.5;" x1="110" x2="186" y1="706.0938" y2="706.0938"/><text fill="#000000" font-family="sans-serif" font-size="10" lengthAdjust="spacing" textLength="34" x="115" y="720.4746">row = 3</text><text fill="#000000" font-family="sans-serif" font-size="10" lengthAdjust="spacing" textLength="54" x="115" y="733.0527">column = 1</text><rect fill="#FEFECE" filter="url(#frfd7poeaplc2)" height="52.25" style="stroke:#A80036;stroke-width:1.5;" width="78" x="780" y="687"/><text fill="#000000" font-family="sans-serif" font-size="12" lengthAdjust="spacing" textLength="64" x="787" y="701.457">:Coordinate</text><line style="stroke:#A80036;stroke-width:1.5;" x1="781" x2="857" y1="706.0938" y2="706.0938"/><text fill="#000000" font-family="sans-serif" font-size="10" lengthAdjust="spacing" textLength="34" x="786" y="720.4746">row = 3</text><text fill="#000000" font-family="sans-serif" font-size="10" lengthAdjust="spacing" textLength="54" x="786" y="733.0527">column = 7</text><rect fill="#FEFECE" filter="url(#frfd7poeaplc2)" height="52.25" style="stroke:#A80036;stroke-width:1.5;" width="78" x="160" y="760"/><text fill="#000000" font-family="sans-serif" font-size="12" lengthAdjust="spacing" textLength="64" x="167" y="774.457">:Coordinate</text><line style="stroke:#A80036;stroke-width:1.5;" x1="161" x2="237" y1="779.0938" y2="779.0938"/><text fill="#000000" font-family="sans-serif" font-size="10" lengthAdjust="spacing" textLength="34" x="166" y="793.4746">row = 4</text><text fill="#000000" font-family="sans-serif" font-size="10" lengthAdjust="spacing" textLength="54" x="166" y="806.0527">column = 1</text><rect fill="#FEFECE" filter="url(#frfd7poeaplc2)" height="52.25" style="stroke:#A80036;stroke-width:1.5;" width="78" x="729" y="760"/><text fill="#000000" font-family="sans-serif" font-size="12" lengthAdjust="spacing" textLength="64" x="736" y="774.457">:Coordinate</text><line style="stroke:#A80036;stroke-width:1.5;" x1="730" x2="806" y1="779.0938" y2="779.0938"/><text fill="#000000" font-family="sans-serif" font-size="10" lengthAdjust="spacing" textLength="34" x="735" y="793.4746">row = 4</text><text fill="#000000" font-family="sans-serif" font-size="10" lengthAdjust="spacing" textLength="54" x="735" y="806.0527">column = 7</text><rect fill="#FEFECE" filter="url(#frfd7poeaplc2)" height="52.25" style="stroke:#A80036;stroke-width:1.5;" width="78" x="169" y="833"/><text fill="#000000" font-family="sans-serif" font-size="12" lengthAdjust="spacing" textLength="64" x="176" y="847.457">:Coordinate</text><line style="stroke:#A80036;stroke-width:1.5;" x1="170" x2="246" y1="852.0938" y2="852.0938"/><text fill="#000000" font-family="sans-serif" font-size="10" lengthAdjust="spacing" textLength="34" x="175" y="866.4746">row = 5</text><text fill="#000000" font-family="sans-serif" font-size="10" lengthAdjust="spacing" textLength="54" x="175" y="879.0527">column = 1</text><rect fill="#FEFECE" filter="url(#frfd7poeaplc2)" height="52.25" style="stroke:#A80036;stroke-width:1.5;" width="78" x="726" y="833"/><text fill="#000000" font-family="sans-serif" font-size="12" lengthAdjust="spacing" textLength="64" x="733" y="847.457">:Coordinate</text><line style="stroke:#A80036;stroke-width:1.5;" x1="727" x2="803" y1="852.0938" y2="852.0938"/><text fill="#000000" font-family="sans-serif" font-size="10" lengthAdjust="spacing" textLength="34" x="732" y="866.4746">row = 5</text><text fill="#000000" font-family="sans-serif" font-size="10" lengthAdjust="spacing" textLength="54" x="732" y="879.0527">column = 7</text><rect fill="#FEFECE" filter="url(#frfd7poeaplc2)" height="52.25" style="stroke:#A80036;stroke-width:1.5;" width="78" x="169" y="906"/><text fill="#000000" font-family="sans-serif" font-size="12" lengthAdjust="spacing" textLength="64" x="176" y="920.457">:Coordinate</text><line style="stroke:#A80036;stroke-width:1.5;" x1="170" x2="246" y1="925.0938" y2="925.0938"/><text fill="#000000" font-family="sans-serif" font-size="10" lengthAdjust="spacing" textLength="34" x="175" y="939.4746">row = 6</text><text fill="#000000" font-family="sans-serif" font-size="10" lengthAdjust="spacing" textLength="54" x="175" y="952.0527">column = 1</text><rect fill="#FEFECE" filter="url(#frfd7poeaplc2)" height="52.25" style="stroke:#A80036;stroke-width:1.5;" width="78" x="726" y="906"/><text fill="#000000" font-family="sans-serif" font-size="12" lengthAdjust="spacing" textLength="64" x="733" y="920.457">:Coordinate</text><line style="stroke:#A80036;stroke-width:1.5;" x1="727" x2="803" y1="925.0938" y2="925.0938"/><text fill="#000000" font-family="sans-serif" font-size="10" lengthAdjust="spacing" textLength="34" x="732" y="939.4746">row = 6</text><text fill="#000000" font-family="sans-serif" font-size="10" lengthAdjust="spacing" textLength="54" x="732" y="952.0527">column = 7</text><!--MD5=[d158e7c9005de0a4f68debccbce30479]
reverse link Connect4 to Board--><path codeLine="85" d="M556,55.51 C556,58.04 556,60.57 556,63 C556,63 556,63 556,425.5 C556,453.86 529.24,475.74 508.12,488.59 " fill="none" id="Connect4-backto-Board" style="stroke:#A80036;stroke-width:1.0;"/><polygon fill="#A80036" points="556,42.3,552,48.3,556,54.3,560,48.3,556,42.3" style="stroke:#A80036;stroke-width:1.0;"/><!--MD5=[dc7e69d21a5dd63ee3c00382b1b583f8]
reverse link Board to HollowSquare11--><path codeLine="87" d="M444.62,503.4 C395.18,504.22 307.01,508.9 235,530 C219.58,534.52 203.48,542.24 190.43,549.38 " fill="none" id="Board-backto-HollowSquare11" style="stroke:#A80036;stroke-width:1.0;"/><polygon fill="#A80036" points="457.79,503.26,451.7464,499.3262,445.7907,503.3919,451.8343,507.3257,457.79,503.26" style="stroke:#A80036;stroke-width:1.0;"/><!--MD5=[e7cbacf65ca6f912ef014e2c282a3335]
reverse link Board to HollowSquare17--><path codeLine="88" d="M521.53,503.38 C571.18,504.18 659.7,508.83 732,530 C747.42,534.52 763.52,542.24 776.57,549.38 " fill="none" id="Board-backto-HollowSquare17" style="stroke:#A80036;stroke-width:1.0;"/><polygon fill="#A80036" points="508.31,503.25,514.2657,507.3157,520.3093,503.3819,514.3536,499.3162,508.31,503.25" style="stroke:#A80036;stroke-width:1.0;"/><!--MD5=[55bc2e0a06c92174ccfe15d09d50aaac]
link Coordinate11 to HollowSquare11--><path codeLine="90" d="M98.36,567 C98.48,567 97.89,567 97.89,567 " fill="none" id="Coordinate11-HollowSquare11" style="stroke:#A80036;stroke-width:1.0;"/><polygon fill="#A80036" points="109.89,567,103.89,563,97.89,567,103.89,571,109.89,567" style="stroke:#A80036;stroke-width:1.0;"/><polygon fill="#A80036" points="85.3,567,94.3,571,90.3,567,94.3,563,85.3,567" style="stroke:#A80036;stroke-width:1.0;"/><line style="stroke:#A80036;stroke-width:1.0;" x1="90.3" x2="98.3" y1="567" y2="567"/><!--MD5=[c7487d8280479a15940eaf8281ecfe44]
link HollowSquare17 to Coordinate17--><path codeLine="91" d="M869.02,567 C869.02,567 870.27,567 870.39,567 " fill="none" id="HollowSquare17-Coordinate17" style="stroke:#A80036;stroke-width:1.0;"/><polygon fill="#A80036" points="881.51,567,872.51,563,876.51,567,872.51,571,881.51,567" style="stroke:#A80036;stroke-width:1.0;"/><line style="stroke:#A80036;stroke-width:1.0;" x1="876.51" x2="868.51" y1="567" y2="567"/><polygon fill="#A80036" points="857.02,567,863.02,571,869.02,567,863.02,563,857.02,567" style="stroke:#A80036;stroke-width:1.0;"/><!--MD5=[888e79a61f6d569000110e3ec322a335]
reverse link Board to HollowSquare21--><path codeLine="93" d="M444.81,504.92 C395.15,507.39 311.72,513.86 286,530 C251.04,551.94 229.4,597.78 219.81,622.44 " fill="none" id="Board-backto-HollowSquare21" style="stroke:#A80036;stroke-width:1.0;"/><polygon fill="#A80036" points="457.84,504.32,451.6659,500.5944,445.8522,504.8607,452.0263,508.5863,457.84,504.32" style="stroke:#A80036;stroke-width:1.0;"/><!--MD5=[82052cf8425a967414eb5ec28542e99e]
reverse link Board to HollowSquare27--><path codeLine="94" d="M521.38,504.9 C571.29,507.34 655.15,513.79 681,530 C715.97,551.93 737.61,597.77 747.2,622.44 " fill="none" id="Board-backto-HollowSquare27" style="stroke:#A80036;stroke-width:1.0;"/><polygon fill="#A80036" points="508.28,504.31,514.0984,508.5699,520.2684,504.8375,514.45,500.5776,508.28,504.31" style="stroke:#A80036;stroke-width:1.0;"/><!--MD5=[5db46d32159aed1a40eec12b653ccf7c]
link Coordinate21 to HollowSquare21--><path codeLine="96" d="M149.36,640 C149.48,640 148.89,640 148.89,640 " fill="none" id="Coordinate21-HollowSquare21" style="stroke:#A80036;stroke-width:1.0;"/><polygon fill="#A80036" points="160.89,640,154.89,636,148.89,640,154.89,644,160.89,640" style="stroke:#A80036;stroke-width:1.0;"/><polygon fill="#A80036" points="136.3,640,145.3,644,141.3,640,145.3,636,136.3,640" style="stroke:#A80036;stroke-width:1.0;"/><line style="stroke:#A80036;stroke-width:1.0;" x1="141.3" x2="149.3" y1="640" y2="640"/><!--MD5=[ea8d38c926433028f108e3ee84f77bf5]
link HollowSquare27 to Coordinate27--><path codeLine="97" d="M818.02,640 C818.02,640 819.27,640 819.39,640 " fill="none" id="HollowSquare27-Coordinate27" style="stroke:#A80036;stroke-width:1.0;"/><polygon fill="#A80036" points="830.51,640,821.51,636,825.51,640,821.51,644,830.51,640" style="stroke:#A80036;stroke-width:1.0;"/><line style="stroke:#A80036;stroke-width:1.0;" x1="825.51" x2="817.51" y1="640" y2="640"/><polygon fill="#A80036" points="806.02,640,812.02,644,818.02,640,812.02,636,806.02,640" style="stroke:#A80036;stroke-width:1.0;"/><!--MD5=[679f411bdf10ac6eefba1941f45f9ebc]
reverse link Board to HollowSquare31--><path codeLine="99" d="M444.99,506.24 C407.38,509.66 353.14,516.76 337,530 C323.44,541.12 284.91,652.72 270.51,695.47 " fill="none" id="Board-backto-HollowSquare31" style="stroke:#A80036;stroke-width:1.0;"/><polygon fill="#A80036" points="458,505.14,451.6831,501.6619,446.043,506.1551,452.3599,509.6332,458,505.14" style="stroke:#A80036;stroke-width:1.0;"/><!--MD5=[105a701a7c53cd15c1c0e95799d7d89d]
reverse link Board to HollowSquare37--><path codeLine="100" d="M521.26,506.21 C559.14,509.61 613.74,516.68 630,530 C643.57,541.12 682.1,652.72 696.49,695.46 " fill="none" id="Board-backto-HollowSquare37" style="stroke:#A80036;stroke-width:1.0;"/><polygon fill="#A80036" points="508.17,505.11,513.82,509.5908,520.1292,506.0989,514.4792,501.6181,508.17,505.11" style="stroke:#A80036;stroke-width:1.0;"/><!--MD5=[ee3561ea4902a618e7edbc5b9470f3aa]
link Coordinate31 to HollowSquare31--><path codeLine="102" d="M200.36,713 C200.48,713 199.89,713 199.89,713 " fill="none" id="Coordinate31-HollowSquare31" style="stroke:#A80036;stroke-width:1.0;"/><polygon fill="#A80036" points="211.89,713,205.89,709,199.89,713,205.89,717,211.89,713" style="stroke:#A80036;stroke-width:1.0;"/><polygon fill="#A80036" points="187.3,713,196.3,717,192.3,713,196.3,709,187.3,713" style="stroke:#A80036;stroke-width:1.0;"/><line style="stroke:#A80036;stroke-width:1.0;" x1="192.3" x2="200.3" y1="713" y2="713"/><!--MD5=[04ab765d1045d13966c9fd32d37128c5]
link HollowSquare37 to Coordinate37--><path codeLine="103" d="M767.02,713 C767.02,713 768.27,713 768.39,713 " fill="none" id="HollowSquare37-Coordinate37" style="stroke:#A80036;stroke-width:1.0;"/><polygon fill="#A80036" points="779.51,713,770.51,709,774.51,713,770.51,717,779.51,713" style="stroke:#A80036;stroke-width:1.0;"/><line style="stroke:#A80036;stroke-width:1.0;" x1="774.51" x2="766.51" y1="713" y2="713"/><polygon fill="#A80036" points="755.02,713,761.02,717,767.02,713,761.02,709,755.02,713" style="stroke:#A80036;stroke-width:1.0;"/><!--MD5=[6b29d1105400529c69b651f38b9a3fdb]
reverse link Board to HollowSquare41--><path codeLine="105" d="M444.89,506.39 C407.48,511.56 356,525.95 356,566 C356,566 356,566 356,714 C356,734.66 342.99,754.84 331.81,768.38 " fill="none" id="Board-backto-HollowSquare41" style="stroke:#A80036;stroke-width:1.0;"/><polygon fill="#A80036" points="457.91,504.88,451.4886,501.599,445.9901,506.2645,452.4116,509.5455,457.91,504.88" style="stroke:#A80036;stroke-width:1.0;"/><!--MD5=[631f719dbf4abf39e67852444afbbe26]
reverse link Board to HollowSquare47--><path codeLine="106" d="M521.42,506.29 C559.12,511.38 611,525.69 611,566 C611,566 611,566 611,714 C611,734.66 624.01,754.84 635.19,768.38 " fill="none" id="Board-backto-HollowSquare47" style="stroke:#A80036;stroke-width:1.0;"/><polygon fill="#A80036" points="508.29,504.81,513.7986,509.4635,520.2129,506.1685,514.7043,501.5149,508.29,504.81" style="stroke:#A80036;stroke-width:1.0;"/><!--MD5=[1ba62a7a96a9595dc5e3d4bc4de4810b]
link Coordinate41 to HollowSquare41--><path codeLine="108" d="M251.36,786 C251.48,786 250.89,786 250.89,786 " fill="none" id="Coordinate41-HollowSquare41" style="stroke:#A80036;stroke-width:1.0;"/><polygon fill="#A80036" points="262.89,786,256.89,782,250.89,786,256.89,790,262.89,786" style="stroke:#A80036;stroke-width:1.0;"/><polygon fill="#A80036" points="238.3,786,247.3,790,243.3,786,247.3,782,238.3,786" style="stroke:#A80036;stroke-width:1.0;"/><line style="stroke:#A80036;stroke-width:1.0;" x1="243.3" x2="251.3" y1="786" y2="786"/><!--MD5=[b70f729f9ab5a0417adee4b30a6cf352]
link HollowSquare47 to Coordinate47--><path codeLine="109" d="M716.02,786 C716.02,786 717.27,786 717.39,786 " fill="none" id="HollowSquare47-Coordinate47" style="stroke:#A80036;stroke-width:1.0;"/><polygon fill="#A80036" points="728.51,786,719.51,782,723.51,786,719.51,790,728.51,786" style="stroke:#A80036;stroke-width:1.0;"/><line style="stroke:#A80036;stroke-width:1.0;" x1="723.51" x2="715.51" y1="786" y2="786"/><polygon fill="#A80036" points="704.02,786,710.02,790,716.02,786,710.02,782,704.02,786" style="stroke:#A80036;stroke-width:1.0;"/><!--MD5=[cd75cb00c1aa0f0933fc7521a91af38a]
reverse link Board to HollowSquare51--><path codeLine="111" d="M445.9,517.87 C426.6,528.02 407,543.79 407,566 C407,566 407,566 407,787 C407,811.67 385.53,829.68 364.56,841.39 " fill="none" id="Board-backto-HollowSquare51" style="stroke:#A80036;stroke-width:1.0;"/><polygon fill="#A80036" points="457.69,512.28,450.5546,511.238,446.8484,517.4238,453.9838,518.4658,457.69,512.28" style="stroke:#A80036;stroke-width:1.0;"/><!--MD5=[81b4419710ee5ab198cf02aef4f06a23]
reverse link Board to HollowSquare57--><path codeLine="112" d="M520.22,517.56 C539.89,527.65 560,543.47 560,566 C560,566 560,566 560,787 C560,812.22 582.17,830.02 604.26,841.48 " fill="none" id="Board-backto-HollowSquare57" style="stroke:#A80036;stroke-width:1.0;"/><polygon fill="#A80036" points="508.21,512.01,511.9768,518.1591,519.1017,517.0471,515.3348,510.898,508.21,512.01" style="stroke:#A80036;stroke-width:1.0;"/><!--MD5=[47071141b86df49bca097670b10c9c88]
link Coordinate51 to HollowSquare51--><path codeLine="114" d="M260.36,859 C260.48,859 259.89,859 259.89,859 " fill="none" id="Coordinate51-HollowSquare51" style="stroke:#A80036;stroke-width:1.0;"/><polygon fill="#A80036" points="271.89,859,265.89,855,259.89,859,265.89,863,271.89,859" style="stroke:#A80036;stroke-width:1.0;"/><polygon fill="#A80036" points="247.3,859,256.3,863,252.3,859,256.3,855,247.3,859" style="stroke:#A80036;stroke-width:1.0;"/><line style="stroke:#A80036;stroke-width:1.0;" x1="252.3" x2="260.3" y1="859" y2="859"/><!--MD5=[1210f4dd7e721f34ae78fc9903454fed]
link HollowSquare57 to Coordinate57--><path codeLine="115" d="M713.02,859 C713.02,859 714.27,859 714.39,859 " fill="none" id="HollowSquare57-Coordinate57" style="stroke:#A80036;stroke-width:1.0;"/><polygon fill="#A80036" points="725.51,859,716.51,855,720.51,859,716.51,863,725.51,859" style="stroke:#A80036;stroke-width:1.0;"/><line style="stroke:#A80036;stroke-width:1.0;" x1="720.51" x2="712.51" y1="859" y2="859"/><polygon fill="#A80036" points="701.02,859,707.02,863,713.02,859,707.02,855,701.02,859" style="stroke:#A80036;stroke-width:1.0;"/><!--MD5=[a6027b7d988a9f32a36a383c1ed8b2cb]
reverse link Board to HollowSquare61--><path codeLine="117" d="M466.5,531.75 C461.83,542.16 458,554.29 458,566 C458,566 458,566 458,860 C458,897.95 415.33,915.69 378.33,923.94 " fill="none" id="Board-backto-HollowSquare61" style="stroke:#A80036;stroke-width:1.0;"/><polygon fill="#A80036" points="472.4,520.03,466.125,523.5831,466.9913,530.7419,473.2663,527.1889,472.4,520.03" style="stroke:#A80036;stroke-width:1.0;"/><!--MD5=[a4b66b77ad67e6dc14f8302f81946da0]
reverse link Board to HollowSquare67--><path codeLine="118" d="M500.27,531.89 C505.07,542.25 509,554.3 509,566 C509,566 509,566 509,860 C509,900.1 555.46,917.57 594.66,925.17 " fill="none" id="Board-backto-HollowSquare67" style="stroke:#A80036;stroke-width:1.0;"/><polygon fill="#A80036" points="494.18,520.23,493.4088,527.3997,499.7303,530.8693,500.5016,523.6995,494.18,520.23" style="stroke:#A80036;stroke-width:1.0;"/><!--MD5=[33a9b629a26694fe37d4583b0881e1f0]
link Coordinate61 to HollowSquare61--><path codeLine="120" d="M260.36,932 C260.48,932 259.89,932 259.89,932 " fill="none" id="Coordinate61-HollowSquare61" style="stroke:#A80036;stroke-width:1.0;"/><polygon fill="#A80036" points="271.89,932,265.89,928,259.89,932,265.89,936,271.89,932" style="stroke:#A80036;stroke-width:1.0;"/><polygon fill="#A80036" points="247.3,932,256.3,936,252.3,932,256.3,928,247.3,932" style="stroke:#A80036;stroke-width:1.0;"/><line style="stroke:#A80036;stroke-width:1.0;" x1="252.3" x2="260.3" y1="932" y2="932"/><!--MD5=[1ff3e43d2460868e2b83fadc22a3c75e]
link HollowSquare67 to Coordinate67--><path codeLine="121" d="M713.02,932 C713.02,932 714.27,932 714.39,932 " fill="none" id="HollowSquare67-Coordinate67" style="stroke:#A80036;stroke-width:1.0;"/><polygon fill="#A80036" points="725.51,932,716.51,928,720.51,932,716.51,936,725.51,932" style="stroke:#A80036;stroke-width:1.0;"/><line style="stroke:#A80036;stroke-width:1.0;" x1="720.51" x2="712.51" y1="932" y2="932"/><polygon fill="#A80036" points="701.02,932,707.02,936,713.02,932,707.02,928,701.02,932" style="stroke:#A80036;stroke-width:1.0;"/><!--MD5=[6e85ddd301acac789872406816b3d56c]
link HollowSquare11 to HollowSquare17--><!--MD5=[6e85ddd301acac789872406816b3d56c]
link HollowSquare11 to HollowSquare17--><path codeLine="130" d="M216,567 C336.58,567 630.3,567 750.94,567 " fill="none" id="HollowSquare11-HollowSquare17" style="stroke:#A80036;stroke-width:1.0;stroke-dasharray:7.0,7.0;"/><text fill="#000000" font-family="sans-serif" font-size="13" lengthAdjust="spacing" textLength="190" x="388.5" y="560.4951">row of objects: 12, 13, 14, 15, 16</text><!--MD5=[03e3056b1e33551421d767d54e945a67]
link HollowSquare21 to HollowSquare27--><!--MD5=[03e3056b1e33551421d767d54e945a67]
link HollowSquare21 to HollowSquare27--><path codeLine="131" d="M267.16,640 C370.34,640 596.66,640 699.84,640 " fill="none" id="HollowSquare21-HollowSquare27" style="stroke:#A80036;stroke-width:1.0;stroke-dasharray:7.0,7.0;"/><text fill="#000000" font-family="sans-serif" font-size="13" lengthAdjust="spacing" textLength="190" x="388.5" y="633.4951">row of objects: 22, 23, 24, 25, 26</text><!--MD5=[77a5f0f389f538966009ac772b311c4b]
link HollowSquare31 to HollowSquare37--><!--MD5=[77a5f0f389f538966009ac772b311c4b]
link HollowSquare31 to HollowSquare37--><path codeLine="132" d="M318.15,713 C402.2,713 564.85,713 648.88,713 " fill="none" id="HollowSquare31-HollowSquare37" style="stroke:#A80036;stroke-width:1.0;stroke-dasharray:7.0,7.0;"/><text fill="#000000" font-family="sans-serif" font-size="13" lengthAdjust="spacing" textLength="190" x="388.5" y="706.4951">row of objects: 32, 33, 34, 35, 36</text><!--MD5=[db3ba7b089356ab9fe146fd0f9415ba5]
link HollowSquare41 to HollowSquare47--><!--MD5=[db3ba7b089356ab9fe146fd0f9415ba5]
link HollowSquare41 to HollowSquare47--><path codeLine="133" d="M369.08,786 C431.72,786 535.24,786 597.89,786 " fill="none" id="HollowSquare41-HollowSquare47" style="stroke:#A80036;stroke-width:1.0;stroke-dasharray:7.0,7.0;"/><text fill="#000000" font-family="sans-serif" font-size="13" lengthAdjust="spacing" textLength="190" x="388.5" y="779.4951">row of objects: 42, 43, 44, 45, 46</text><!--MD5=[28e7ced3008a50d427532f95757cb4a3]
link HollowSquare51 to HollowSquare57--><!--MD5=[28e7ced3008a50d427532f95757cb4a3]
link HollowSquare51 to HollowSquare57--><path codeLine="134" d="M378.34,859 C438.27,859 534.99,859 594.85,859 " fill="none" id="HollowSquare51-HollowSquare57" style="stroke:#A80036;stroke-width:1.0;stroke-dasharray:7.0,7.0;"/><text fill="#000000" font-family="sans-serif" font-size="13" lengthAdjust="spacing" textLength="190" x="391.5" y="852.4951">row of objects: 52, 53, 54, 55, 56</text><!--MD5=[e293e9e820ee2e1a3bb82c5b1e86e2e4]
link HollowSquare61 to HollowSquare67--><!--MD5=[e293e9e820ee2e1a3bb82c5b1e86e2e4]
link HollowSquare61 to HollowSquare67--><path codeLine="135" d="M378.34,932 C438.27,932 534.99,932 594.85,932 " fill="none" id="HollowSquare61-HollowSquare67" style="stroke:#A80036;stroke-width:1.0;stroke-dasharray:7.0,7.0;"/><text fill="#000000" font-family="sans-serif" font-size="13" lengthAdjust="spacing" textLength="190" x="391.5" y="925.4951">row of objects: 62, 63, 64, 65, 66</text><!--MD5=[cb0f68a62530e3d95a6659f021a5b1d9]
link HollowSquare11 to HollowSquare21--><!--MD5=[0529697ef4d7d4ca790c3c60224ee24e]
link HollowSquare17 to HollowSquare27--><!--MD5=[4757fb6de9463529b7dc42e7648437b2]
link HollowSquare21 to HollowSquare31--><!--MD5=[0e5fe50ea391a1aaf8678f91571e133e]
link HollowSquare27 to HollowSquare37--><!--MD5=[d5199c07a8c46e607480de708689cc6c]
link HollowSquare31 to HollowSquare41--><!--MD5=[e97f2fa35f269e867f485209c6e52dfc]
link HollowSquare37 to HollowSquare47--><!--MD5=[ef489469f831f7ee5f0b34d82decd576]
link HollowSquare41 to HollowSquare51--><!--MD5=[2b2951ce5562626af44ba8192435ceda]
link HollowSquare47 to HollowSquare57--><!--MD5=[17e467ee5d8a62d5c61bc6f37e67ee05]
link HollowSquare51 to HollowSquare61--><!--MD5=[1054bda922f893f9378f404aca17df48]
link HollowSquare57 to HollowSquare67--><!--MD5=[f8842e6d1366994a808921f587802e37]
link Coordinate11 to Coordinate21--><!--MD5=[89d0ec8a3151f974273db7705da3e453]
link Coordinate17 to Coordinate27--><!--MD5=[098d25c0da392fd4f65df0a2300937b2]
link Coordinate21 to Coordinate31--><!--MD5=[7327ca7cc79efe2d1793074e6ac32e99]
link Coordinate27 to Coordinate37--><!--MD5=[dd8b5bc00e9ee43fdf500998273b2f2f]
link Coordinate31 to Coordinate41--><!--MD5=[151d5c36e99ade6f09c0b23369128e5f]
link Coordinate37 to Coordinate47--><!--MD5=[494afc6628bf689fc13c7ebb3e170593]
link Coordinate41 to Coordinate51--><!--MD5=[e33101de067d00e610fb5cc25b8cdd93]
link Coordinate47 to Coordinate57--><!--MD5=[c2e07b41888a469aad99ae539ae1ca77]
link Coordinate51 to Coordinate61--><!--MD5=[03688cdbd93537fe5b1bb28185b4d33d]
reverse link Coordinate51 to Coordinate61--><!--MD5=[8b239a1ab12eceb29d7a813f7ac547ab]
link Coordinate57 to Coordinate67--><!--MD5=[7a29641fe4784c38c7a79a8be49c86a1]
reverse link Coordinate57 to Coordinate67--><!--MD5=[2f2efdc7e388ba9bb22e28df53fbd0b7]
link Player1 to Board--><path codeLine="175" d="M483,377.6 C483,404.73 483,472.75 483,472.75 " fill="none" id="Player1-Board" style="stroke:#A80036;stroke-width:1.0;"/><polygon fill="#A80036" points="483,484.75,487,478.75,483,472.75,479,478.75,483,484.75" style="stroke:#A80036;stroke-width:1.0;"/><polygon fill="#A80036" points="483,364.27,479,373.27,483,369.27,487,373.27,483,364.27" style="stroke:#A80036;stroke-width:1.0;"/><line style="stroke:#A80036;stroke-width:1.0;" x1="483" x2="483" y1="369.27" y2="377.27"/><!--MD5=[1136281c6214fbe4ad529894e927e006]
link Player2 to Board--><path codeLine="176" d="M443.86,244.39 C429.64,254.16 417,267.71 417,285 C417,285 417,285 417,425.5 C417,446.51 448.2305,478.7308 448.2305,478.7308 " fill="none" id="Player2-Board" style="stroke:#A80036;stroke-width:1.0;"/><polygon fill="#A80036" points="457.67,486.14,455.42,479.2889,448.2305,478.7308,450.4805,485.5819,457.67,486.14" style="stroke:#A80036;stroke-width:1.0;"/><polygon fill="#A80036" points="455.39,237.36,445.6237,238.6323,451.1216,239.9639,449.7899,245.4618,455.39,237.36" style="stroke:#A80036;stroke-width:1.0;"/><line style="stroke:#A80036;stroke-width:1.0;" x1="451.1216" x2="444.29" y1="239.9639" y2="244.125"/><!--MD5=[a9abdab88e8b29344bec44d3adb00d8a]
reverse link Player2 to Player1--><!--MD5=[d801103b57dbffba796d1324050e6896]
reverse link Player1 to Disc1_1--><path codeLine="190" d="M523.78,346.5 C549.5,346.5 575.22,346.5 600.94,346.5 " fill="none" id="Player1-backto-Disc1_1" style="stroke:#A80036;stroke-width:1.0;"/><polygon fill="#A80036" points="510.75,346.5,516.75,350.5,522.75,346.5,516.75,342.5,510.75,346.5" style="stroke:#A80036;stroke-width:1.0;"/><!--MD5=[c100774c4d9a23c16d6f825480343640]
reverse link Disc1_1 to Yellow1--><path codeLine="191" d="M631,384.63 C631,392.46 631,400.34 631,406.94 " fill="none" id="Disc1_1-backto-Yellow1" style="stroke:#A80036;stroke-width:1.0;"/><polygon fill="none" points="624,384.37,631,364.37,638,384.37,624,384.37" style="stroke:#A80036;stroke-width:1.0;"/><!--MD5=[813bc49b3e4ff4e652d841b9088094d3]
link Disc1_21 to Player1--><path codeLine="192" d="M741.61,328.75 C720.64,316.72 690.91,301.9 662.5,295.5 C635.18,289.35 626.91,289.76 599.5,295.5 C572.64,301.12 544.4,313.31 522.45,324.36 " fill="none" id="Disc1_21-to-Player1" style="stroke:#A80036;stroke-width:1.0;"/><polygon fill="#A80036" points="510.63,330.5,517.7982,331.2852,521.2801,324.9704,514.1118,324.1852,510.63,330.5" style="stroke:#A80036;stroke-width:1.0;"/><!--MD5=[a1e876878fc99883d384e14e04175cb7]
reverse link Disc1_21 to Yellow21--><path codeLine="193" d="M770,384.63 C770,392.46 770,400.34 770,406.94 " fill="none" id="Disc1_21-backto-Yellow21" style="stroke:#A80036;stroke-width:1.0;"/><polygon fill="none" points="763,384.37,770,364.37,777,384.37,763,384.37" style="stroke:#A80036;stroke-width:1.0;"/><!--MD5=[088a603e3dc7eab6c0c0e99c2130969d]
link Disc1_1 to Disc1_21--><!--MD5=[088a603e3dc7eab6c0c0e99c2130969d]
link Disc1_1 to Disc1_21--><path codeLine="196" d="M661.16,346.5 C683.36,346.5 713.54,346.5 736.49,346.5 " fill="none" id="Disc1_1-Disc1_21" style="stroke:#A80036;stroke-width:1.0;stroke-dasharray:7.0,7.0;"/><text fill="#000000" font-family="sans-serif" font-size="13" lengthAdjust="spacing" textLength="49" x="674.25" y="339.9951">21 discs</text><!--MD5=[c57a7248250ff73081da2c98745fe350]
link Disc2_1 to Player2--><path codeLine="209" d="M600.94,224.5 C575.22,224.5 549.5,224.5 523.78,224.5 " fill="none" id="Disc2_1-to-Player2" style="stroke:#A80036;stroke-width:1.0;"/><polygon fill="#A80036" points="510.75,224.5,516.75,228.5,522.75,224.5,516.75,220.5,510.75,224.5" style="stroke:#A80036;stroke-width:1.0;"/><!--MD5=[48a0522edcf4c09698e0bfd50d04f06b]
link Red1 to Disc2_1--><path codeLine="210" d="M631,164.37 C631,171.01 631,178.9 631,186.73 " fill="none" id="Red1-to-Disc2_1" style="stroke:#A80036;stroke-width:1.0;"/><polygon fill="none" points="638,186.94,631,206.94,624,186.94,638,186.94" style="stroke:#A80036;stroke-width:1.0;"/><!--MD5=[06c2e7cbaed3cb36a0b298b75f7aaa37]
link Disc2_21 to Player2--><path codeLine="211" d="M741.61,206.75 C720.64,194.72 690.91,179.9 662.5,173.5 C635.18,167.35 626.91,167.76 599.5,173.5 C572.64,179.12 544.4,191.31 522.45,202.36 " fill="none" id="Disc2_21-to-Player2" style="stroke:#A80036;stroke-width:1.0;"/><polygon fill="#A80036" points="510.63,208.5,517.7982,209.2852,521.2801,202.9704,514.1118,202.1852,510.63,208.5" style="stroke:#A80036;stroke-width:1.0;"/><!--MD5=[c49b94e92387a88e7ec809b8e3d11742]
link Red21 to Disc2_21--><path codeLine="212" d="M770,164.37 C770,171.01 770,178.9 770,186.73 " fill="none" id="Red21-to-Disc2_21" style="stroke:#A80036;stroke-width:1.0;"/><polygon fill="none" points="777,186.94,770,206.94,763,186.94,777,186.94" style="stroke:#A80036;stroke-width:1.0;"/><!--MD5=[a4cab6c18e7e37e9a95c642907cb0315]
link Disc2_1 to Disc2_21--><!--MD5=[a4cab6c18e7e37e9a95c642907cb0315]
link Disc2_1 to Disc2_21--><path codeLine="215" d="M661.16,224.5 C683.36,224.5 713.54,224.5 736.49,224.5 " fill="none" id="Disc2_1-Disc2_21" style="stroke:#A80036;stroke-width:1.0;stroke-dasharray:7.0,7.0;"/><text fill="#000000" font-family="sans-serif" font-size="13" lengthAdjust="spacing" textLength="49" x="674.25" y="217.9951">21 discs</text><!--MD5=[f0754490b8ffaf9ede07b0f4e543b754]
@startuml
'https://plantuml.com/object-diagram

skinparam nodesep 25
skinparam ranksep 20
'left to right direction
'skinparam linetype polyline
'skinparam linetype ortho

object ":Connect4" as Connect4
object ":Board" as Board

object HollowSquare11
object HollowSquare17

object HollowSquare21
object HollowSquare27

object HollowSquare31
object HollowSquare37

object HollowSquare41
object HollowSquare47

object HollowSquare51
object HollowSquare57

object HollowSquare61
object HollowSquare67

object ":Coordinate" as Coordinate11 {
    row = 1
    column = 1
}
object ":Coordinate" as Coordinate17 {
    row = 1
    column = 7
}

object ":Coordinate" as Coordinate21 {
    row = 2
    column = 1
}
object ":Coordinate" as Coordinate27 {
    row = 2
    column = 7
}

object ":Coordinate" as Coordinate31 {
    row = 3
    column = 1
}
object ":Coordinate" as Coordinate37 {
    row = 3
    column = 7
}

object ":Coordinate" as Coordinate41 {
    row = 4
    column = 1
}
object ":Coordinate" as Coordinate47 {
    row = 4
    column = 7
}

object ":Coordinate" as Coordinate51 {
    row = 5
    column = 1
}
object ":Coordinate" as Coordinate57 {
    row = 5
    column = 7
}

object ":Coordinate" as Coordinate61 {
    row = 6
    column = 1
}
object ":Coordinate" as Coordinate67 {
    row = 6
    column = 7
}


Connect4 *- - - - - - - - - Board

Board *- - HollowSquare11
Board *- - HollowSquare17

HollowSquare11 *-left-> Coordinate11
HollowSquare17 *-right-> Coordinate17

Board *- - HollowSquare21
Board *- - HollowSquare27

HollowSquare21 *-left-> Coordinate21
HollowSquare27 *-right-> Coordinate27

Board *- - HollowSquare31
Board *- - HollowSquare37

HollowSquare31 *-left-> Coordinate31
HollowSquare37 *-right-> Coordinate37

Board *- - HollowSquare41
Board *- - HollowSquare47

HollowSquare41 *-left-> Coordinate41
HollowSquare47 *-right-> Coordinate47

Board *- - HollowSquare51
Board *- - HollowSquare57

HollowSquare51 *-left-> Coordinate51
HollowSquare57 *-right-> Coordinate57

Board *- - HollowSquare61
Board *- - HollowSquare67

HollowSquare61 *-left-> Coordinate61
HollowSquare67 *-right-> Coordinate67

HollowSquare11 -[hidden]right-> HollowSquare17
HollowSquare21 -[hidden]right-> HollowSquare27
HollowSquare31 -[hidden]right-> HollowSquare37
HollowSquare41 -[hidden]right-> HollowSquare47
HollowSquare51 -[hidden]right-> HollowSquare57
HollowSquare61 -[hidden]right-> HollowSquare67

HollowSquare11 .. HollowSquare17 : row of objects: 12, 13, 14, 15, 16
HollowSquare21 .. HollowSquare27 : row of objects: 22, 23, 24, 25, 26
HollowSquare31 .. HollowSquare37 : row of objects: 32, 33, 34, 35, 36
HollowSquare41 .. HollowSquare47 : row of objects: 42, 43, 44, 45, 46
HollowSquare51 .. HollowSquare57 : row of objects: 52, 53, 54, 55, 56
HollowSquare61 .. HollowSquare67 : row of objects: 62, 63, 64, 65, 66

HollowSquare11 -[hidden]down-> HollowSquare21
HollowSquare17 -[hidden]down-> HollowSquare27

HollowSquare21 -[hidden]down-> HollowSquare31
HollowSquare27 -[hidden]down-> HollowSquare37

HollowSquare31 -[hidden]down-> HollowSquare41
HollowSquare37 -[hidden]down-> HollowSquare47

HollowSquare41 -[hidden]down-> HollowSquare51
HollowSquare47 -[hidden]down-> HollowSquare57

HollowSquare51 -[hidden]down-> HollowSquare61
HollowSquare57 -[hidden]down-> HollowSquare67

Coordinate11 -[hidden]down-> Coordinate21
Coordinate17 -[hidden]down-> Coordinate27

Coordinate21 -[hidden]down-> Coordinate31
Coordinate27 -[hidden]down-> Coordinate37

Coordinate31 -[hidden]down-> Coordinate41
Coordinate37 -[hidden]down-> Coordinate47

Coordinate41 -[hidden]down-> Coordinate51
Coordinate47 -[hidden]down-> Coordinate57

Coordinate51 -[hidden]down-> Coordinate61
Coordinate57 -[hidden]down-> Coordinate67

Coordinate61 -[hidden]up-> Coordinate51
Coordinate67 -[hidden]up-> Coordinate57

together {
  object Player1
  object Player2
}

Board *- -up-> Player1
Board *-up-> Player2

Player1 - - -[hidden]up> Player2

together {
  object Disc1_1
  object "Yellow" as Yellow1
}

together {
  object Disc1_21
  object "Yellow" as Yellow21
}

Player1 *-right Disc1_1
Disc1_1 <|- - Yellow1
Player1 *-left Disc1_21
Disc1_21 <|- - Yellow21

Disc1_1 -[hidden]- - - -> Disc1_21
Disc1_1 . Disc1_21 : 21 discs


together {
  object Disc2_1
  object "Red" as Red1
}

together {
  object Disc2_21
  object "Red" as Red21
}

Player2 *-left Disc2_1
Disc2_1 <|- -up Red1
Player2 *-left Disc2_21
Disc2_21 <|- -up Red21

Disc2_1 -[hidden]> Disc2_21
Disc2_1 . Disc2_21 : 21 discs

@enduml

@startuml

skinparam nodesep 25
skinparam ranksep 20

object ":Connect4" as Connect4
object ":Board" as Board

object HollowSquare11
object HollowSquare17

object HollowSquare21
object HollowSquare27

object HollowSquare31
object HollowSquare37

object HollowSquare41
object HollowSquare47

object HollowSquare51
object HollowSquare57

object HollowSquare61
object HollowSquare67

object ":Coordinate" as Coordinate11 {
    row = 1
    column = 1
}
object ":Coordinate" as Coordinate17 {
    row = 1
    column = 7
}

object ":Coordinate" as Coordinate21 {
    row = 2
    column = 1
}
object ":Coordinate" as Coordinate27 {
    row = 2
    column = 7
}

object ":Coordinate" as Coordinate31 {
    row = 3
    column = 1
}
object ":Coordinate" as Coordinate37 {
    row = 3
    column = 7
}

object ":Coordinate" as Coordinate41 {
    row = 4
    column = 1
}
object ":Coordinate" as Coordinate47 {
    row = 4
    column = 7
}

object ":Coordinate" as Coordinate51 {
    row = 5
    column = 1
}
object ":Coordinate" as Coordinate57 {
    row = 5
    column = 7
}

object ":Coordinate" as Coordinate61 {
    row = 6
    column = 1
}
object ":Coordinate" as Coordinate67 {
    row = 6
    column = 7
}


Connect4 *- - - - - - - - - Board

Board *- - HollowSquare11
Board *- - HollowSquare17

HollowSquare11 *-left-> Coordinate11
HollowSquare17 *-right-> Coordinate17

Board *- - HollowSquare21
Board *- - HollowSquare27

HollowSquare21 *-left-> Coordinate21
HollowSquare27 *-right-> Coordinate27

Board *- - HollowSquare31
Board *- - HollowSquare37

HollowSquare31 *-left-> Coordinate31
HollowSquare37 *-right-> Coordinate37

Board *- - HollowSquare41
Board *- - HollowSquare47

HollowSquare41 *-left-> Coordinate41
HollowSquare47 *-right-> Coordinate47

Board *- - HollowSquare51
Board *- - HollowSquare57

HollowSquare51 *-left-> Coordinate51
HollowSquare57 *-right-> Coordinate57

Board *- - HollowSquare61
Board *- - HollowSquare67

HollowSquare61 *-left-> Coordinate61
HollowSquare67 *-right-> Coordinate67

HollowSquare11 -[hidden]right-> HollowSquare17
HollowSquare21 -[hidden]right-> HollowSquare27
HollowSquare31 -[hidden]right-> HollowSquare37
HollowSquare41 -[hidden]right-> HollowSquare47
HollowSquare51 -[hidden]right-> HollowSquare57
HollowSquare61 -[hidden]right-> HollowSquare67

HollowSquare11 .. HollowSquare17 : row of objects: 12, 13, 14, 15, 16
HollowSquare21 .. HollowSquare27 : row of objects: 22, 23, 24, 25, 26
HollowSquare31 .. HollowSquare37 : row of objects: 32, 33, 34, 35, 36
HollowSquare41 .. HollowSquare47 : row of objects: 42, 43, 44, 45, 46
HollowSquare51 .. HollowSquare57 : row of objects: 52, 53, 54, 55, 56
HollowSquare61 .. HollowSquare67 : row of objects: 62, 63, 64, 65, 66

HollowSquare11 -[hidden]down-> HollowSquare21
HollowSquare17 -[hidden]down-> HollowSquare27

HollowSquare21 -[hidden]down-> HollowSquare31
HollowSquare27 -[hidden]down-> HollowSquare37

HollowSquare31 -[hidden]down-> HollowSquare41
HollowSquare37 -[hidden]down-> HollowSquare47

HollowSquare41 -[hidden]down-> HollowSquare51
HollowSquare47 -[hidden]down-> HollowSquare57

HollowSquare51 -[hidden]down-> HollowSquare61
HollowSquare57 -[hidden]down-> HollowSquare67

Coordinate11 -[hidden]down-> Coordinate21
Coordinate17 -[hidden]down-> Coordinate27

Coordinate21 -[hidden]down-> Coordinate31
Coordinate27 -[hidden]down-> Coordinate37

Coordinate31 -[hidden]down-> Coordinate41
Coordinate37 -[hidden]down-> Coordinate47

Coordinate41 -[hidden]down-> Coordinate51
Coordinate47 -[hidden]down-> Coordinate57

Coordinate51 -[hidden]down-> Coordinate61
Coordinate57 -[hidden]down-> Coordinate67

Coordinate61 -[hidden]up-> Coordinate51
Coordinate67 -[hidden]up-> Coordinate57

together {
  object Player1
  object Player2
}

Board *- -up-> Player1
Board *-up-> Player2

Player1 - - -[hidden]up> Player2

together {
  object Disc1_1
  object "Yellow" as Yellow1
}

together {
  object Disc1_21
  object "Yellow" as Yellow21
}

Player1 *-right Disc1_1
Disc1_1 <|- - Yellow1
Player1 *-left Disc1_21
Disc1_21 <|- - Yellow21

Disc1_1 -[hidden]- - - -> Disc1_21
Disc1_1 . Disc1_21 : 21 discs


together {
  object Disc2_1
  object "Red" as Red1
}

together {
  object Disc2_21
  object "Red" as Red21
}

Player2 *-left Disc2_1
Disc2_1 <|- -up Red1
Player2 *-left Disc2_21
Disc2_21 <|- -up Red21

Disc2_1 -[hidden]> Disc2_21
Disc2_1 . Disc2_21 : 21 discs

@enduml

PlantUML version 1.2022.0(Tue Jan 11 17:16:42 CET 2022)
(GPL source distribution)
Java Runtime: OpenJDK Runtime Environment
JVM: OpenJDK 64-Bit Server VM
Default Encoding: Cp1252
Language: es
Country: ES
--></g></svg>