<?xml version="1.0" encoding="UTF-8" standalone="no"?><svg xmlns="http://www.w3.org/2000/svg" xmlns:xlink="http://www.w3.org/1999/xlink" contentScriptType="application/ecmascript" contentStyleType="text/css" height="1060px" preserveAspectRatio="none" style="width:974px;height:1060px;background:#FFFFFF;" version="1.1" viewBox="0 0 974 1060" width="974px" zoomAndPan="magnify"><defs><filter height="300%" id="fwql7b2r61s5g" width="300%" x="-1" y="-1"><feGaussianBlur result="blurOut" stdDeviation="2.0"/><feColorMatrix in="blurOut" result="blurOut2" type="matrix" values="0 0 0 0 0 0 0 0 0 0 0 0 0 0 0 0 0 0 .4 0"/><feOffset dx="4.0" dy="4.0" in="blurOut2" result="blurOut3"/><feBlend in="SourceGraphic" in2="blurOut3" mode="normal"/></filter></defs><g><rect fill="#FEFECE" filter="url(#fwql7b2r61s5g)" height="35.0938" style="stroke:#A80036;stroke-width:1.5;" width="55" x="422.5" y="207"/><text fill="#000000" font-family="sans-serif" font-size="12" lengthAdjust="spacing" textLength="41" x="429.5" y="221.457">Player1</text><line style="stroke:#A80036;stroke-width:1.5;" x1="423.5" x2="476.5" y1="226.0938" y2="226.0938"/><rect fill="#FEFECE" filter="url(#fwql7b2r61s5g)" height="35.0938" style="stroke:#A80036;stroke-width:1.5;" width="55" x="422.5" y="85"/><text fill="#000000" font-family="sans-serif" font-size="12" lengthAdjust="spacing" textLength="41" x="429.5" y="99.457">Player2</text><line style="stroke:#A80036;stroke-width:1.5;" x1="423.5" x2="476.5" y1="104.0938" y2="104.0938"/><rect fill="#FEFECE" filter="url(#fwql7b2r61s5g)" height="35.0938" style="stroke:#A80036;stroke-width:1.5;" width="60" x="561" y="207"/><text fill="#000000" font-family="sans-serif" font-size="12" lengthAdjust="spacing" textLength="46" x="568" y="221.457">Disc1_1</text><line style="stroke:#A80036;stroke-width:1.5;" x1="562" x2="620" y1="226.0938" y2="226.0938"/><rect fill="#FEFECE" filter="url(#fwql7b2r61s5g)" height="35.0938" style="stroke:#A80036;stroke-width:1.5;" width="50" x="566" y="285"/><text fill="#000000" font-family="sans-serif" font-size="12" lengthAdjust="spacing" textLength="36" x="573" y="299.457">Yellow</text><line style="stroke:#A80036;stroke-width:1.5;" x1="567" x2="615" y1="304.0938" y2="304.0938"/><rect fill="#FEFECE" filter="url(#fwql7b2r61s5g)" height="35.0938" style="stroke:#A80036;stroke-width:1.5;" width="67" x="696.5" y="207"/><text fill="#000000" font-family="sans-serif" font-size="12" lengthAdjust="spacing" textLength="53" x="703.5" y="221.457">Disc1_21</text><line style="stroke:#A80036;stroke-width:1.5;" x1="697.5" x2="762.5" y1="226.0938" y2="226.0938"/><rect fill="#FEFECE" filter="url(#fwql7b2r61s5g)" height="35.0938" style="stroke:#A80036;stroke-width:1.5;" width="50" x="705" y="285"/><text fill="#000000" font-family="sans-serif" font-size="12" lengthAdjust="spacing" textLength="36" x="712" y="299.457">Yellow</text><line style="stroke:#A80036;stroke-width:1.5;" x1="706" x2="754" y1="304.0938" y2="304.0938"/><rect fill="#FEFECE" filter="url(#fwql7b2r61s5g)" height="35.0938" style="stroke:#A80036;stroke-width:1.5;" width="60" x="534" y="85"/><text fill="#000000" font-family="sans-serif" font-size="12" lengthAdjust="spacing" textLength="46" x="541" y="99.457">Disc2_1</text><line style="stroke:#A80036;stroke-width:1.5;" x1="535" x2="593" y1="104.0938" y2="104.0938"/><rect fill="#FEFECE" filter="url(#fwql7b2r61s5g)" height="35.0938" style="stroke:#A80036;stroke-width:1.5;" width="37" x="545.5" y="7"/><text fill="#000000" font-family="sans-serif" font-size="12" lengthAdjust="spacing" textLength="23" x="552.5" y="21.457">Red</text><line style="stroke:#A80036;stroke-width:1.5;" x1="546.5" x2="581.5" y1="26.0938" y2="26.0938"/><rect fill="#FEFECE" filter="url(#fwql7b2r61s5g)" height="35.0938" style="stroke:#A80036;stroke-width:1.5;" width="67" x="669.5" y="85"/><text fill="#000000" font-family="sans-serif" font-size="12" lengthAdjust="spacing" textLength="53" x="676.5" y="99.457">Disc2_21</text><line style="stroke:#A80036;stroke-width:1.5;" x1="670.5" x2="735.5" y1="104.0938" y2="104.0938"/><rect fill="#FEFECE" filter="url(#fwql7b2r61s5g)" height="35.0938" style="stroke:#A80036;stroke-width:1.5;" width="37" x="684.5" y="7"/><text fill="#000000" font-family="sans-serif" font-size="12" lengthAdjust="spacing" textLength="23" x="691.5" y="21.457">Red</text><line style="stroke:#A80036;stroke-width:1.5;" x1="685.5" x2="720.5" y1="26.0938" y2="26.0938"/><rect fill="#FEFECE" filter="url(#fwql7b2r61s5g)" height="35.0938" style="stroke:#A80036;stroke-width:1.5;" width="70" x="448" y="363"/><text fill="#000000" font-family="sans-serif" font-size="12" lengthAdjust="spacing" textLength="56" x="455" y="377.457">:Connect4</text><line style="stroke:#A80036;stroke-width:1.5;" x1="449" x2="517" y1="382.0938" y2="382.0938"/><rect fill="#FEFECE" filter="url(#fwql7b2r61s5g)" height="35.0938" style="stroke:#A80036;stroke-width:1.5;" width="50" x="458" y="573"/><text fill="#000000" font-family="sans-serif" font-size="12" lengthAdjust="spacing" textLength="36" x="465" y="587.457">:Board</text><line style="stroke:#A80036;stroke-width:1.5;" x1="459" x2="507" y1="592.0938" y2="592.0938"/><rect fill="#FEFECE" filter="url(#fwql7b2r61s5g)" height="35.0938" style="stroke:#A80036;stroke-width:1.5;" width="106" x="110" y="637.5"/><text fill="#000000" font-family="sans-serif" font-size="12" lengthAdjust="spacing" textLength="92" x="117" y="651.957">HollowSquare11</text><line style="stroke:#A80036;stroke-width:1.5;" x1="111" x2="215" y1="656.5938" y2="656.5938"/><rect fill="#FEFECE" filter="url(#fwql7b2r61s5g)" height="35.0938" style="stroke:#A80036;stroke-width:1.5;" width="106" x="751" y="637.5"/><text fill="#000000" font-family="sans-serif" font-size="12" lengthAdjust="spacing" textLength="92" x="758" y="651.957">HollowSquare17</text><line style="stroke:#A80036;stroke-width:1.5;" x1="752" x2="856" y1="656.5938" y2="656.5938"/><rect fill="#FEFECE" filter="url(#fwql7b2r61s5g)" height="35.0938" style="stroke:#A80036;stroke-width:1.5;" width="106" x="161" y="710.5"/><text fill="#000000" font-family="sans-serif" font-size="12" lengthAdjust="spacing" textLength="92" x="168" y="724.957">HollowSquare21</text><line style="stroke:#A80036;stroke-width:1.5;" x1="162" x2="266" y1="729.5938" y2="729.5938"/><rect fill="#FEFECE" filter="url(#fwql7b2r61s5g)" height="35.0938" style="stroke:#A80036;stroke-width:1.5;" width="106" x="700" y="710.5"/><text fill="#000000" font-family="sans-serif" font-size="12" lengthAdjust="spacing" textLength="92" x="707" y="724.957">HollowSquare27</text><line style="stroke:#A80036;stroke-width:1.5;" x1="701" x2="805" y1="729.5938" y2="729.5938"/><rect fill="#FEFECE" filter="url(#fwql7b2r61s5g)" height="35.0938" style="stroke:#A80036;stroke-width:1.5;" width="106" x="212" y="783.5"/><text fill="#000000" font-family="sans-serif" font-size="12" lengthAdjust="spacing" textLength="92" x="219" y="797.957">HollowSquare31</text><line style="stroke:#A80036;stroke-width:1.5;" x1="213" x2="317" y1="802.5938" y2="802.5938"/><rect fill="#FEFECE" filter="url(#fwql7b2r61s5g)" height="35.0938" style="stroke:#A80036;stroke-width:1.5;" width="106" x="649" y="783.5"/><text fill="#000000" font-family="sans-serif" font-size="12" lengthAdjust="spacing" textLength="92" x="656" y="797.957">HollowSquare37</text><line style="stroke:#A80036;stroke-width:1.5;" x1="650" x2="754" y1="802.5938" y2="802.5938"/><rect fill="#FEFECE" filter="url(#fwql7b2r61s5g)" height="35.0938" style="stroke:#A80036;stroke-width:1.5;" width="106" x="263" y="856.5"/><text fill="#000000" font-family="sans-serif" font-size="12" lengthAdjust="spacing" textLength="92" x="270" y="870.957">HollowSquare41</text><line style="stroke:#A80036;stroke-width:1.5;" x1="264" x2="368" y1="875.5938" y2="875.5938"/><rect fill="#FEFECE" filter="url(#fwql7b2r61s5g)" height="35.0938" style="stroke:#A80036;stroke-width:1.5;" width="106" x="598" y="856.5"/><text fill="#000000" font-family="sans-serif" font-size="12" lengthAdjust="spacing" textLength="92" x="605" y="870.957">HollowSquare47</text><line style="stroke:#A80036;stroke-width:1.5;" x1="599" x2="703" y1="875.5938" y2="875.5938"/><rect fill="#FEFECE" filter="url(#fwql7b2r61s5g)" height="35.0938" style="stroke:#A80036;stroke-width:1.5;" width="106" x="272" y="929.5"/><text fill="#000000" font-family="sans-serif" font-size="12" lengthAdjust="spacing" textLength="92" x="279" y="943.957">HollowSquare51</text><line style="stroke:#A80036;stroke-width:1.5;" x1="273" x2="377" y1="948.5938" y2="948.5938"/><rect fill="#FEFECE" filter="url(#fwql7b2r61s5g)" height="35.0938" style="stroke:#A80036;stroke-width:1.5;" width="106" x="595" y="929.5"/><text fill="#000000" font-family="sans-serif" font-size="12" lengthAdjust="spacing" textLength="92" x="602" y="943.957">HollowSquare57</text><line style="stroke:#A80036;stroke-width:1.5;" x1="596" x2="700" y1="948.5938" y2="948.5938"/><rect fill="#FEFECE" filter="url(#fwql7b2r61s5g)" height="35.0938" style="stroke:#A80036;stroke-width:1.5;" width="106" x="272" y="1002.5"/><text fill="#000000" font-family="sans-serif" font-size="12" lengthAdjust="spacing" textLength="92" x="279" y="1016.957">HollowSquare61</text><line style="stroke:#A80036;stroke-width:1.5;" x1="273" x2="377" y1="1021.5938" y2="1021.5938"/><rect fill="#FEFECE" filter="url(#fwql7b2r61s5g)" height="35.0938" style="stroke:#A80036;stroke-width:1.5;" width="106" x="595" y="1002.5"/><text fill="#000000" font-family="sans-serif" font-size="12" lengthAdjust="spacing" textLength="92" x="602" y="1016.957">HollowSquare67</text><line style="stroke:#A80036;stroke-width:1.5;" x1="596" x2="700" y1="1021.5938" y2="1021.5938"/><rect fill="#FEFECE" filter="url(#fwql7b2r61s5g)" height="52.25" style="stroke:#A80036;stroke-width:1.5;" width="78" x="7" y="629"/><text fill="#000000" font-family="sans-serif" font-size="12" lengthAdjust="spacing" textLength="64" x="14" y="643.457">:Coordinate</text><line style="stroke:#A80036;stroke-width:1.5;" x1="8" x2="84" y1="648.0938" y2="648.0938"/><text fill="#000000" font-family="sans-serif" font-size="10" lengthAdjust="spacing" textLength="34" x="13" y="662.4746">row = 1</text><text fill="#000000" font-family="sans-serif" font-size="10" lengthAdjust="spacing" textLength="54" x="13" y="675.0527">column = 1</text><rect fill="#FEFECE" filter="url(#fwql7b2r61s5g)" height="52.25" style="stroke:#A80036;stroke-width:1.5;" width="78" x="882" y="629"/><text fill="#000000" font-family="sans-serif" font-size="12" lengthAdjust="spacing" textLength="64" x="889" y="643.457">:Coordinate</text><line style="stroke:#A80036;stroke-width:1.5;" x1="883" x2="959" y1="648.0938" y2="648.0938"/><text fill="#000000" font-family="sans-serif" font-size="10" lengthAdjust="spacing" textLength="34" x="888" y="662.4746">row = 1</text><text fill="#000000" font-family="sans-serif" font-size="10" lengthAdjust="spacing" textLength="54" x="888" y="675.0527">column = 7</text><rect fill="#FEFECE" filter="url(#fwql7b2r61s5g)" height="52.25" style="stroke:#A80036;stroke-width:1.5;" width="78" x="58" y="702"/><text fill="#000000" font-family="sans-serif" font-size="12" lengthAdjust="spacing" textLength="64" x="65" y="716.457">:Coordinate</text><line style="stroke:#A80036;stroke-width:1.5;" x1="59" x2="135" y1="721.0938" y2="721.0938"/><text fill="#000000" font-family="sans-serif" font-size="10" lengthAdjust="spacing" textLength="34" x="64" y="735.4746">row = 2</text><text fill="#000000" font-family="sans-serif" font-size="10" lengthAdjust="spacing" textLength="54" x="64" y="748.0527">column = 1</text><rect fill="#FEFECE" filter="url(#fwql7b2r61s5g)" height="52.25" style="stroke:#A80036;stroke-width:1.5;" width="78" x="831" y="702"/><text fill="#000000" font-family="sans-serif" font-size="12" lengthAdjust="spacing" textLength="64" x="838" y="716.457">:Coordinate</text><line style="stroke:#A80036;stroke-width:1.5;" x1="832" x2="908" y1="721.0938" y2="721.0938"/><text fill="#000000" font-family="sans-serif" font-size="10" lengthAdjust="spacing" textLength="34" x="837" y="735.4746">row = 2</text><text fill="#000000" font-family="sans-serif" font-size="10" lengthAdjust="spacing" textLength="54" x="837" y="748.0527">column = 7</text><rect fill="#FEFECE" filter="url(#fwql7b2r61s5g)" height="52.25" style="stroke:#A80036;stroke-width:1.5;" width="78" x="109" y="775"/><text fill="#000000" font-family="sans-serif" font-size="12" lengthAdjust="spacing" textLength="64" x="116" y="789.457">:Coordinate</text><line style="stroke:#A80036;stroke-width:1.5;" x1="110" x2="186" y1="794.0938" y2="794.0938"/><text fill="#000000" font-family="sans-serif" font-size="10" lengthAdjust="spacing" textLength="34" x="115" y="808.4746">row = 3</text><text fill="#000000" font-family="sans-serif" font-size="10" lengthAdjust="spacing" textLength="54" x="115" y="821.0527">column = 1</text><rect fill="#FEFECE" filter="url(#fwql7b2r61s5g)" height="52.25" style="stroke:#A80036;stroke-width:1.5;" width="78" x="780" y="775"/><text fill="#000000" font-family="sans-serif" font-size="12" lengthAdjust="spacing" textLength="64" x="787" y="789.457">:Coordinate</text><line style="stroke:#A80036;stroke-width:1.5;" x1="781" x2="857" y1="794.0938" y2="794.0938"/><text fill="#000000" font-family="sans-serif" font-size="10" lengthAdjust="spacing" textLength="34" x="786" y="808.4746">row = 3</text><text fill="#000000" font-family="sans-serif" font-size="10" lengthAdjust="spacing" textLength="54" x="786" y="821.0527">column = 7</text><rect fill="#FEFECE" filter="url(#fwql7b2r61s5g)" height="52.25" style="stroke:#A80036;stroke-width:1.5;" width="78" x="160" y="848"/><text fill="#000000" font-family="sans-serif" font-size="12" lengthAdjust="spacing" textLength="64" x="167" y="862.457">:Coordinate</text><line style="stroke:#A80036;stroke-width:1.5;" x1="161" x2="237" y1="867.0938" y2="867.0938"/><text fill="#000000" font-family="sans-serif" font-size="10" lengthAdjust="spacing" textLength="34" x="166" y="881.4746">row = 4</text><text fill="#000000" font-family="sans-serif" font-size="10" lengthAdjust="spacing" textLength="54" x="166" y="894.0527">column = 1</text><rect fill="#FEFECE" filter="url(#fwql7b2r61s5g)" height="52.25" style="stroke:#A80036;stroke-width:1.5;" width="78" x="729" y="848"/><text fill="#000000" font-family="sans-serif" font-size="12" lengthAdjust="spacing" textLength="64" x="736" y="862.457">:Coordinate</text><line style="stroke:#A80036;stroke-width:1.5;" x1="730" x2="806" y1="867.0938" y2="867.0938"/><text fill="#000000" font-family="sans-serif" font-size="10" lengthAdjust="spacing" textLength="34" x="735" y="881.4746">row = 4</text><text fill="#000000" font-family="sans-serif" font-size="10" lengthAdjust="spacing" textLength="54" x="735" y="894.0527">column = 7</text><rect fill="#FEFECE" filter="url(#fwql7b2r61s5g)" height="52.25" style="stroke:#A80036;stroke-width:1.5;" width="78" x="169" y="921"/><text fill="#000000" font-family="sans-serif" font-size="12" lengthAdjust="spacing" textLength="64" x="176" y="935.457">:Coordinate</text><line style="stroke:#A80036;stroke-width:1.5;" x1="170" x2="246" y1="940.0938" y2="940.0938"/><text fill="#000000" font-family="sans-serif" font-size="10" lengthAdjust="spacing" textLength="34" x="175" y="954.4746">row = 5</text><text fill="#000000" font-family="sans-serif" font-size="10" lengthAdjust="spacing" textLength="54" x="175" y="967.0527">column = 1</text><rect fill="#FEFECE" filter="url(#fwql7b2r61s5g)" height="52.25" style="stroke:#A80036;stroke-width:1.5;" width="78" x="726" y="921"/><text fill="#000000" font-family="sans-serif" font-size="12" lengthAdjust="spacing" textLength="64" x="733" y="935.457">:Coordinate</text><line style="stroke:#A80036;stroke-width:1.5;" x1="727" x2="803" y1="940.0938" y2="940.0938"/><text fill="#000000" font-family="sans-serif" font-size="10" lengthAdjust="spacing" textLength="34" x="732" y="954.4746">row = 5</text><text fill="#000000" font-family="sans-serif" font-size="10" lengthAdjust="spacing" textLength="54" x="732" y="967.0527">column = 7</text><rect fill="#FEFECE" filter="url(#fwql7b2r61s5g)" height="52.25" style="stroke:#A80036;stroke-width:1.5;" width="78" x="169" y="994"/><text fill="#000000" font-family="sans-serif" font-size="12" lengthAdjust="spacing" textLength="64" x="176" y="1008.457">:Coordinate</text><line style="stroke:#A80036;stroke-width:1.5;" x1="170" x2="246" y1="1013.0938" y2="1013.0938"/><text fill="#000000" font-family="sans-serif" font-size="10" lengthAdjust="spacing" textLength="34" x="175" y="1027.4746">row = 6</text><text fill="#000000" font-family="sans-serif" font-size="10" lengthAdjust="spacing" textLength="54" x="175" y="1040.0527">column = 1</text><rect fill="#FEFECE" filter="url(#fwql7b2r61s5g)" height="52.25" style="stroke:#A80036;stroke-width:1.5;" width="78" x="726" y="994"/><text fill="#000000" font-family="sans-serif" font-size="12" lengthAdjust="spacing" textLength="64" x="733" y="1008.457">:Coordinate</text><line style="stroke:#A80036;stroke-width:1.5;" x1="727" x2="803" y1="1013.0938" y2="1013.0938"/><text fill="#000000" font-family="sans-serif" font-size="10" lengthAdjust="spacing" textLength="34" x="732" y="1027.4746">row = 6</text><text fill="#000000" font-family="sans-serif" font-size="10" lengthAdjust="spacing" textLength="54" x="732" y="1040.0527">column = 7</text><!--MD5=[d158e7c9005de0a4f68debccbce30479]
reverse link Connect4 to Board--><path codeLine="85" d="M483,411.51 C483,414.04 483,416.57 483,419 C483,419 483,419 483,552 C483,558.77 483,566.23 483,572.7 " fill="none" id="Connect4-backto-Board" style="stroke:#A80036;stroke-width:1.0;"/><polygon fill="#A80036" points="483,398.3,479,404.3,483,410.3,487,404.3,483,398.3" style="stroke:#A80036;stroke-width:1.0;"/><!--MD5=[dc7e69d21a5dd63ee3c00382b1b583f8]
reverse link Board to HollowSquare11--><path codeLine="87" d="M444.62,591.4 C395.18,592.22 307.01,596.9 235,618 C219.58,622.52 203.48,630.24 190.43,637.38 " fill="none" id="Board-backto-HollowSquare11" style="stroke:#A80036;stroke-width:1.0;"/><polygon fill="#A80036" points="457.79,591.26,451.7464,587.3262,445.7907,591.3919,451.8343,595.3257,457.79,591.26" style="stroke:#A80036;stroke-width:1.0;"/><!--MD5=[e7cbacf65ca6f912ef014e2c282a3335]
reverse link Board to HollowSquare17--><path codeLine="88" d="M521.53,591.38 C571.18,592.18 659.7,596.83 732,618 C747.42,622.52 763.52,630.24 776.57,637.38 " fill="none" id="Board-backto-HollowSquare17" style="stroke:#A80036;stroke-width:1.0;"/><polygon fill="#A80036" points="508.31,591.25,514.2657,595.3157,520.3093,591.3819,514.3536,587.3162,508.31,591.25" style="stroke:#A80036;stroke-width:1.0;"/><!--MD5=[55bc2e0a06c92174ccfe15d09d50aaac]
link Coordinate11 to HollowSquare11--><path codeLine="90" d="M98.36,655 C98.48,655 97.89,655 97.89,655 " fill="none" id="Coordinate11-HollowSquare11" style="stroke:#A80036;stroke-width:1.0;"/><polygon fill="#A80036" points="109.89,655,103.89,651,97.89,655,103.89,659,109.89,655" style="stroke:#A80036;stroke-width:1.0;"/><polygon fill="#A80036" points="85.3,655,94.3,659,90.3,655,94.3,651,85.3,655" style="stroke:#A80036;stroke-width:1.0;"/><line style="stroke:#A80036;stroke-width:1.0;" x1="90.3" x2="98.3" y1="655" y2="655"/><!--MD5=[c7487d8280479a15940eaf8281ecfe44]
link HollowSquare17 to Coordinate17--><path codeLine="91" d="M869.02,655 C869.02,655 870.27,655 870.39,655 " fill="none" id="HollowSquare17-Coordinate17" style="stroke:#A80036;stroke-width:1.0;"/><polygon fill="#A80036" points="881.51,655,872.51,651,876.51,655,872.51,659,881.51,655" style="stroke:#A80036;stroke-width:1.0;"/><line style="stroke:#A80036;stroke-width:1.0;" x1="876.51" x2="868.51" y1="655" y2="655"/><polygon fill="#A80036" points="857.02,655,863.02,659,869.02,655,863.02,651,857.02,655" style="stroke:#A80036;stroke-width:1.0;"/><!--MD5=[888e79a61f6d569000110e3ec322a335]
reverse link Board to HollowSquare21--><path codeLine="93" d="M444.81,592.92 C395.15,595.39 311.72,601.86 286,618 C251.04,639.94 229.4,685.78 219.81,710.44 " fill="none" id="Board-backto-HollowSquare21" style="stroke:#A80036;stroke-width:1.0;"/><polygon fill="#A80036" points="457.84,592.32,451.6659,588.5944,445.8522,592.8607,452.0263,596.5863,457.84,592.32" style="stroke:#A80036;stroke-width:1.0;"/><!--MD5=[82052cf8425a967414eb5ec28542e99e]
reverse link Board to HollowSquare27--><path codeLine="94" d="M521.38,592.9 C571.29,595.34 655.15,601.79 681,618 C715.97,639.93 737.61,685.77 747.2,710.44 " fill="none" id="Board-backto-HollowSquare27" style="stroke:#A80036;stroke-width:1.0;"/><polygon fill="#A80036" points="508.28,592.31,514.0984,596.5699,520.2684,592.8375,514.45,588.5776,508.28,592.31" style="stroke:#A80036;stroke-width:1.0;"/><!--MD5=[5db46d32159aed1a40eec12b653ccf7c]
link Coordinate21 to HollowSquare21--><path codeLine="96" d="M149.36,728 C149.48,728 148.89,728 148.89,728 " fill="none" id="Coordinate21-HollowSquare21" style="stroke:#A80036;stroke-width:1.0;"/><polygon fill="#A80036" points="160.89,728,154.89,724,148.89,728,154.89,732,160.89,728" style="stroke:#A80036;stroke-width:1.0;"/><polygon fill="#A80036" points="136.3,728,145.3,732,141.3,728,145.3,724,136.3,728" style="stroke:#A80036;stroke-width:1.0;"/><line style="stroke:#A80036;stroke-width:1.0;" x1="141.3" x2="149.3" y1="728" y2="728"/><!--MD5=[ea8d38c926433028f108e3ee84f77bf5]
link HollowSquare27 to Coordinate27--><path codeLine="97" d="M818.02,728 C818.02,728 819.27,728 819.39,728 " fill="none" id="HollowSquare27-Coordinate27" style="stroke:#A80036;stroke-width:1.0;"/><polygon fill="#A80036" points="830.51,728,821.51,724,825.51,728,821.51,732,830.51,728" style="stroke:#A80036;stroke-width:1.0;"/><line style="stroke:#A80036;stroke-width:1.0;" x1="825.51" x2="817.51" y1="728" y2="728"/><polygon fill="#A80036" points="806.02,728,812.02,732,818.02,728,812.02,724,806.02,728" style="stroke:#A80036;stroke-width:1.0;"/><!--MD5=[679f411bdf10ac6eefba1941f45f9ebc]
reverse link Board to HollowSquare31--><path codeLine="99" d="M444.99,594.24 C407.38,597.66 353.14,604.76 337,618 C323.44,629.12 284.91,740.72 270.51,783.47 " fill="none" id="Board-backto-HollowSquare31" style="stroke:#A80036;stroke-width:1.0;"/><polygon fill="#A80036" points="458,593.14,451.6831,589.6619,446.043,594.1551,452.3599,597.6332,458,593.14" style="stroke:#A80036;stroke-width:1.0;"/><!--MD5=[105a701a7c53cd15c1c0e95799d7d89d]
reverse link Board to HollowSquare37--><path codeLine="100" d="M521.26,594.21 C559.14,597.61 613.74,604.68 630,618 C643.57,629.12 682.1,740.72 696.49,783.46 " fill="none" id="Board-backto-HollowSquare37" style="stroke:#A80036;stroke-width:1.0;"/><polygon fill="#A80036" points="508.17,593.11,513.82,597.5908,520.1292,594.0989,514.4792,589.6181,508.17,593.11" style="stroke:#A80036;stroke-width:1.0;"/><!--MD5=[ee3561ea4902a618e7edbc5b9470f3aa]
link Coordinate31 to HollowSquare31--><path codeLine="102" d="M200.36,801 C200.48,801 199.89,801 199.89,801 " fill="none" id="Coordinate31-HollowSquare31" style="stroke:#A80036;stroke-width:1.0;"/><polygon fill="#A80036" points="211.89,801,205.89,797,199.89,801,205.89,805,211.89,801" style="stroke:#A80036;stroke-width:1.0;"/><polygon fill="#A80036" points="187.3,801,196.3,805,192.3,801,196.3,797,187.3,801" style="stroke:#A80036;stroke-width:1.0;"/><line style="stroke:#A80036;stroke-width:1.0;" x1="192.3" x2="200.3" y1="801" y2="801"/><!--MD5=[04ab765d1045d13966c9fd32d37128c5]
link HollowSquare37 to Coordinate37--><path codeLine="103" d="M767.02,801 C767.02,801 768.27,801 768.39,801 " fill="none" id="HollowSquare37-Coordinate37" style="stroke:#A80036;stroke-width:1.0;"/><polygon fill="#A80036" points="779.51,801,770.51,797,774.51,801,770.51,805,779.51,801" style="stroke:#A80036;stroke-width:1.0;"/><line style="stroke:#A80036;stroke-width:1.0;" x1="774.51" x2="766.51" y1="801" y2="801"/><polygon fill="#A80036" points="755.02,801,761.02,805,767.02,801,761.02,797,755.02,801" style="stroke:#A80036;stroke-width:1.0;"/><!--MD5=[6b29d1105400529c69b651f38b9a3fdb]
reverse link Board to HollowSquare41--><path codeLine="105" d="M444.89,594.39 C407.48,599.56 356,613.95 356,654 C356,654 356,654 356,802 C356,822.66 342.99,842.84 331.81,856.38 " fill="none" id="Board-backto-HollowSquare41" style="stroke:#A80036;stroke-width:1.0;"/><polygon fill="#A80036" points="457.91,592.88,451.4886,589.599,445.9901,594.2645,452.4116,597.5455,457.91,592.88" style="stroke:#A80036;stroke-width:1.0;"/><!--MD5=[631f719dbf4abf39e67852444afbbe26]
reverse link Board to HollowSquare47--><path codeLine="106" d="M521.42,594.29 C559.12,599.38 611,613.69 611,654 C611,654 611,654 611,802 C611,822.66 624.01,842.84 635.19,856.38 " fill="none" id="Board-backto-HollowSquare47" style="stroke:#A80036;stroke-width:1.0;"/><polygon fill="#A80036" points="508.29,592.81,513.7986,597.4635,520.2129,594.1685,514.7043,589.5149,508.29,592.81" style="stroke:#A80036;stroke-width:1.0;"/><!--MD5=[1ba62a7a96a9595dc5e3d4bc4de4810b]
link Coordinate41 to HollowSquare41--><path codeLine="108" d="M251.36,874 C251.48,874 250.89,874 250.89,874 " fill="none" id="Coordinate41-HollowSquare41" style="stroke:#A80036;stroke-width:1.0;"/><polygon fill="#A80036" points="262.89,874,256.89,870,250.89,874,256.89,878,262.89,874" style="stroke:#A80036;stroke-width:1.0;"/><polygon fill="#A80036" points="238.3,874,247.3,878,243.3,874,247.3,870,238.3,874" style="stroke:#A80036;stroke-width:1.0;"/><line style="stroke:#A80036;stroke-width:1.0;" x1="243.3" x2="251.3" y1="874" y2="874"/><!--MD5=[b70f729f9ab5a0417adee4b30a6cf352]
link HollowSquare47 to Coordinate47--><path codeLine="109" d="M716.02,874 C716.02,874 717.27,874 717.39,874 " fill="none" id="HollowSquare47-Coordinate47" style="stroke:#A80036;stroke-width:1.0;"/><polygon fill="#A80036" points="728.51,874,719.51,870,723.51,874,719.51,878,728.51,874" style="stroke:#A80036;stroke-width:1.0;"/><line style="stroke:#A80036;stroke-width:1.0;" x1="723.51" x2="715.51" y1="874" y2="874"/><polygon fill="#A80036" points="704.02,874,710.02,878,716.02,874,710.02,870,704.02,874" style="stroke:#A80036;stroke-width:1.0;"/><!--MD5=[cd75cb00c1aa0f0933fc7521a91af38a]
reverse link Board to HollowSquare51--><path codeLine="111" d="M445.9,605.87 C426.6,616.02 407,631.79 407,654 C407,654 407,654 407,875 C407,899.67 385.53,917.68 364.56,929.39 " fill="none" id="Board-backto-HollowSquare51" style="stroke:#A80036;stroke-width:1.0;"/><polygon fill="#A80036" points="457.69,600.28,450.5546,599.238,446.8484,605.4238,453.9838,606.4658,457.69,600.28" style="stroke:#A80036;stroke-width:1.0;"/><!--MD5=[81b4419710ee5ab198cf02aef4f06a23]
reverse link Board to HollowSquare57--><path codeLine="112" d="M520.22,605.56 C539.89,615.65 560,631.47 560,654 C560,654 560,654 560,875 C560,900.22 582.17,918.02 604.26,929.48 " fill="none" id="Board-backto-HollowSquare57" style="stroke:#A80036;stroke-width:1.0;"/><polygon fill="#A80036" points="508.21,600.01,511.9768,606.1591,519.1017,605.0471,515.3348,598.898,508.21,600.01" style="stroke:#A80036;stroke-width:1.0;"/><!--MD5=[47071141b86df49bca097670b10c9c88]
link Coordinate51 to HollowSquare51--><path codeLine="114" d="M260.36,947 C260.48,947 259.89,947 259.89,947 " fill="none" id="Coordinate51-HollowSquare51" style="stroke:#A80036;stroke-width:1.0;"/><polygon fill="#A80036" points="271.89,947,265.89,943,259.89,947,265.89,951,271.89,947" style="stroke:#A80036;stroke-width:1.0;"/><polygon fill="#A80036" points="247.3,947,256.3,951,252.3,947,256.3,943,247.3,947" style="stroke:#A80036;stroke-width:1.0;"/><line style="stroke:#A80036;stroke-width:1.0;" x1="252.3" x2="260.3" y1="947" y2="947"/><!--MD5=[1210f4dd7e721f34ae78fc9903454fed]
link HollowSquare57 to Coordinate57--><path codeLine="115" d="M713.02,947 C713.02,947 714.27,947 714.39,947 " fill="none" id="HollowSquare57-Coordinate57" style="stroke:#A80036;stroke-width:1.0;"/><polygon fill="#A80036" points="725.51,947,716.51,943,720.51,947,716.51,951,725.51,947" style="stroke:#A80036;stroke-width:1.0;"/><line style="stroke:#A80036;stroke-width:1.0;" x1="720.51" x2="712.51" y1="947" y2="947"/><polygon fill="#A80036" points="701.02,947,707.02,951,713.02,947,707.02,943,701.02,947" style="stroke:#A80036;stroke-width:1.0;"/><!--MD5=[a6027b7d988a9f32a36a383c1ed8b2cb]
reverse link Board to HollowSquare61--><path codeLine="117" d="M466.5,619.75 C461.83,630.16 458,642.29 458,654 C458,654 458,654 458,948 C458,985.95 415.33,1003.69 378.33,1011.94 " fill="none" id="Board-backto-HollowSquare61" style="stroke:#A80036;stroke-width:1.0;"/><polygon fill="#A80036" points="472.4,608.03,466.125,611.5831,466.9913,618.7419,473.2663,615.1889,472.4,608.03" style="stroke:#A80036;stroke-width:1.0;"/><!--MD5=[a4b66b77ad67e6dc14f8302f81946da0]
reverse link Board to HollowSquare67--><path codeLine="118" d="M500.27,619.89 C505.07,630.25 509,642.3 509,654 C509,654 509,654 509,948 C509,988.1 555.46,1005.57 594.66,1013.17 " fill="none" id="Board-backto-HollowSquare67" style="stroke:#A80036;stroke-width:1.0;"/><polygon fill="#A80036" points="494.18,608.23,493.4088,615.3997,499.7303,618.8693,500.5016,611.6995,494.18,608.23" style="stroke:#A80036;stroke-width:1.0;"/><!--MD5=[33a9b629a26694fe37d4583b0881e1f0]
link Coordinate61 to HollowSquare61--><path codeLine="120" d="M260.36,1020 C260.48,1020 259.89,1020 259.89,1020 " fill="none" id="Coordinate61-HollowSquare61" style="stroke:#A80036;stroke-width:1.0;"/><polygon fill="#A80036" points="271.89,1020,265.89,1016,259.89,1020,265.89,1024,271.89,1020" style="stroke:#A80036;stroke-width:1.0;"/><polygon fill="#A80036" points="247.3,1020,256.3,1024,252.3,1020,256.3,1016,247.3,1020" style="stroke:#A80036;stroke-width:1.0;"/><line style="stroke:#A80036;stroke-width:1.0;" x1="252.3" x2="260.3" y1="1020" y2="1020"/><!--MD5=[1ff3e43d2460868e2b83fadc22a3c75e]
link HollowSquare67 to Coordinate67--><path codeLine="121" d="M713.02,1020 C713.02,1020 714.27,1020 714.39,1020 " fill="none" id="HollowSquare67-Coordinate67" style="stroke:#A80036;stroke-width:1.0;"/><polygon fill="#A80036" points="725.51,1020,716.51,1016,720.51,1020,716.51,1024,725.51,1020" style="stroke:#A80036;stroke-width:1.0;"/><line style="stroke:#A80036;stroke-width:1.0;" x1="720.51" x2="712.51" y1="1020" y2="1020"/><polygon fill="#A80036" points="701.02,1020,707.02,1024,713.02,1020,707.02,1016,701.02,1020" style="stroke:#A80036;stroke-width:1.0;"/><!--MD5=[6e85ddd301acac789872406816b3d56c]
link HollowSquare11 to HollowSquare17--><!--MD5=[6e85ddd301acac789872406816b3d56c]
link HollowSquare11 to HollowSquare17--><path codeLine="130" d="M216,655 C336.58,655 630.3,655 750.94,655 " fill="none" id="HollowSquare11-HollowSquare17" style="stroke:#A80036;stroke-width:1.0;stroke-dasharray:7.0,7.0;"/><text fill="#000000" font-family="sans-serif" font-size="13" lengthAdjust="spacing" textLength="190" x="388.5" y="648.4951">row of objects: 12, 13, 14, 15, 16</text><!--MD5=[03e3056b1e33551421d767d54e945a67]
link HollowSquare21 to HollowSquare27--><!--MD5=[03e3056b1e33551421d767d54e945a67]
link HollowSquare21 to HollowSquare27--><path codeLine="131" d="M267.16,728 C370.34,728 596.66,728 699.84,728 " fill="none" id="HollowSquare21-HollowSquare27" style="stroke:#A80036;stroke-width:1.0;stroke-dasharray:7.0,7.0;"/><text fill="#000000" font-family="sans-serif" font-size="13" lengthAdjust="spacing" textLength="190" x="388.5" y="721.4951">row of objects: 22, 23, 24, 25, 26</text><!--MD5=[77a5f0f389f538966009ac772b311c4b]
link HollowSquare31 to HollowSquare37--><!--MD5=[77a5f0f389f538966009ac772b311c4b]
link HollowSquare31 to HollowSquare37--><path codeLine="132" d="M318.15,801 C402.2,801 564.85,801 648.88,801 " fill="none" id="HollowSquare31-HollowSquare37" style="stroke:#A80036;stroke-width:1.0;stroke-dasharray:7.0,7.0;"/><text fill="#000000" font-family="sans-serif" font-size="13" lengthAdjust="spacing" textLength="190" x="388.5" y="794.4951">row of objects: 32, 33, 34, 35, 36</text><!--MD5=[db3ba7b089356ab9fe146fd0f9415ba5]
link HollowSquare41 to HollowSquare47--><!--MD5=[db3ba7b089356ab9fe146fd0f9415ba5]
link HollowSquare41 to HollowSquare47--><path codeLine="133" d="M369.08,874 C431.72,874 535.24,874 597.89,874 " fill="none" id="HollowSquare41-HollowSquare47" style="stroke:#A80036;stroke-width:1.0;stroke-dasharray:7.0,7.0;"/><text fill="#000000" font-family="sans-serif" font-size="13" lengthAdjust="spacing" textLength="190" x="388.5" y="867.4951">row of objects: 42, 43, 44, 45, 46</text><!--MD5=[28e7ced3008a50d427532f95757cb4a3]
link HollowSquare51 to HollowSquare57--><!--MD5=[28e7ced3008a50d427532f95757cb4a3]
link HollowSquare51 to HollowSquare57--><path codeLine="134" d="M378.34,947 C438.27,947 534.99,947 594.85,947 " fill="none" id="HollowSquare51-HollowSquare57" style="stroke:#A80036;stroke-width:1.0;stroke-dasharray:7.0,7.0;"/><text fill="#000000" font-family="sans-serif" font-size="13" lengthAdjust="spacing" textLength="190" x="391.5" y="940.4951">row of objects: 52, 53, 54, 55, 56</text><!--MD5=[e293e9e820ee2e1a3bb82c5b1e86e2e4]
link HollowSquare61 to HollowSquare67--><!--MD5=[e293e9e820ee2e1a3bb82c5b1e86e2e4]
link HollowSquare61 to HollowSquare67--><path codeLine="135" d="M378.34,1020 C438.27,1020 534.99,1020 594.85,1020 " fill="none" id="HollowSquare61-HollowSquare67" style="stroke:#A80036;stroke-width:1.0;stroke-dasharray:7.0,7.0;"/><text fill="#000000" font-family="sans-serif" font-size="13" lengthAdjust="spacing" textLength="190" x="391.5" y="1013.4951">row of objects: 62, 63, 64, 65, 66</text><!--MD5=[cb0f68a62530e3d95a6659f021a5b1d9]
link HollowSquare11 to HollowSquare21--><!--MD5=[0529697ef4d7d4ca790c3c60224ee24e]
link HollowSquare17 to HollowSquare27--><!--MD5=[4757fb6de9463529b7dc42e7648437b2]
link HollowSquare21 to HollowSquare31--><!--MD5=[0e5fe50ea391a1aaf8678f91571e133e]
link HollowSquare27 to HollowSquare37--><!--MD5=[d5199c07a8c46e607480de708689cc6c]
link HollowSquare31 to HollowSquare41--><!--MD5=[e97f2fa35f269e867f485209c6e52dfc]
link HollowSquare37 to HollowSquare47--><!--MD5=[ef489469f831f7ee5f0b34d82decd576]
link HollowSquare41 to HollowSquare51--><!--MD5=[2b2951ce5562626af44ba8192435ceda]
link HollowSquare47 to HollowSquare57--><!--MD5=[17e467ee5d8a62d5c61bc6f37e67ee05]
link HollowSquare51 to HollowSquare61--><!--MD5=[1054bda922f893f9378f404aca17df48]
link HollowSquare57 to HollowSquare67--><!--MD5=[f8842e6d1366994a808921f587802e37]
link Coordinate11 to Coordinate21--><!--MD5=[89d0ec8a3151f974273db7705da3e453]
link Coordinate17 to Coordinate27--><!--MD5=[098d25c0da392fd4f65df0a2300937b2]
link Coordinate21 to Coordinate31--><!--MD5=[7327ca7cc79efe2d1793074e6ac32e99]
link Coordinate27 to Coordinate37--><!--MD5=[dd8b5bc00e9ee43fdf500998273b2f2f]
link Coordinate31 to Coordinate41--><!--MD5=[151d5c36e99ade6f09c0b23369128e5f]
link Coordinate37 to Coordinate47--><!--MD5=[494afc6628bf689fc13c7ebb3e170593]
link Coordinate41 to Coordinate51--><!--MD5=[e33101de067d00e610fb5cc25b8cdd93]
link Coordinate47 to Coordinate57--><!--MD5=[c2e07b41888a469aad99ae539ae1ca77]
link Coordinate51 to Coordinate61--><!--MD5=[03688cdbd93537fe5b1bb28185b4d33d]
reverse link Coordinate51 to Coordinate61--><!--MD5=[8b239a1ab12eceb29d7a813f7ac547ab]
link Coordinate57 to Coordinate67--><!--MD5=[7a29641fe4784c38c7a79a8be49c86a1]
reverse link Coordinate57 to Coordinate67--><!--MD5=[309b4aba1cd94826a70d75dffc6d75c4]
link Player1 to Connect4--><path codeLine="175" d="M456.36,255.17 C462.2,282.41 476.892,351.0171 476.892,351.0171 " fill="none" id="Player1-Connect4" style="stroke:#A80036;stroke-width:1.0;"/><polygon fill="#A80036" points="479.41,362.75,482.062,356.0443,476.892,351.0171,474.2401,357.7229,479.41,362.75" style="stroke:#A80036;stroke-width:1.0;"/><polygon fill="#A80036" points="453.59,242.27,451.5675,251.909,454.6391,247.1587,459.3894,250.2303,453.59,242.27" style="stroke:#A80036;stroke-width:1.0;"/><line style="stroke:#A80036;stroke-width:1.0;" x1="454.6391" x2="456.32" y1="247.1587" y2="254.985"/><!--MD5=[5c4046f0bb3195549eca13ab0dcd5766]
link Player2 to Connect4--><path codeLine="176" d="M489.14,122.39 C503.36,132.16 516,145.71 516,163 C516,163 516,163 516,303.5 C516,320.24 500.9868,352.5424 500.9868,352.5424 " fill="none" id="Player2-Connect4" style="stroke:#A80036;stroke-width:1.0;"/><polygon fill="#A80036" points="494.91,362.89,501.3976,359.7418,500.9868,352.5424,494.4992,355.6906,494.91,362.89" style="stroke:#A80036;stroke-width:1.0;"/><polygon fill="#A80036" points="477.61,115.36,483.2101,123.4618,481.8784,117.9639,487.3763,116.6323,477.61,115.36" style="stroke:#A80036;stroke-width:1.0;"/><line style="stroke:#A80036;stroke-width:1.0;" x1="481.8784" x2="488.71" y1="117.9639" y2="122.125"/><!--MD5=[a9abdab88e8b29344bec44d3adb00d8a]
reverse link Player2 to Player1--><!--MD5=[d801103b57dbffba796d1324050e6896]
reverse link Player1 to Disc1_1--><path codeLine="190" d="M490.56,224.5 C513.99,224.5 537.43,224.5 560.86,224.5 " fill="none" id="Player1-backto-Disc1_1" style="stroke:#A80036;stroke-width:1.0;"/><polygon fill="#A80036" points="477.54,224.5,483.54,228.5,489.54,224.5,483.54,220.5,477.54,224.5" style="stroke:#A80036;stroke-width:1.0;"/><!--MD5=[c100774c4d9a23c16d6f825480343640]
reverse link Disc1_1 to Yellow1--><path codeLine="191" d="M591,262.63 C591,270.46 591,278.34 591,284.94 " fill="none" id="Disc1_1-backto-Yellow1" style="stroke:#A80036;stroke-width:1.0;"/><polygon fill="none" points="584,262.37,591,242.37,598,262.37,584,262.37" style="stroke:#A80036;stroke-width:1.0;"/><!--MD5=[813bc49b3e4ff4e652d841b9088094d3]
link Disc1_21 to Player1--><path codeLine="192" d="M701.61,206.75 C680.64,194.72 650.91,179.9 622.5,173.5 C595.18,167.35 586.84,167.45 559.5,173.5 C534.97,178.93 509.41,190.45 489.17,201.17 " fill="none" id="Disc1_21-to-Player1" style="stroke:#A80036;stroke-width:1.0;"/><polygon fill="#A80036" points="477.61,207.51,484.7938,208.1365,488.1352,201.7462,480.9513,201.1197,477.61,207.51" style="stroke:#A80036;stroke-width:1.0;"/><!--MD5=[a1e876878fc99883d384e14e04175cb7]
reverse link Disc1_21 to Yellow21--><path codeLine="193" d="M730,262.63 C730,270.46 730,278.34 730,284.94 " fill="none" id="Disc1_21-backto-Yellow21" style="stroke:#A80036;stroke-width:1.0;"/><polygon fill="none" points="723,262.37,730,242.37,737,262.37,723,262.37" style="stroke:#A80036;stroke-width:1.0;"/><!--MD5=[088a603e3dc7eab6c0c0e99c2130969d]
link Disc1_1 to Disc1_21--><!--MD5=[088a603e3dc7eab6c0c0e99c2130969d]
link Disc1_1 to Disc1_21--><path codeLine="196" d="M621.16,224.5 C643.36,224.5 673.54,224.5 696.49,224.5 " fill="none" id="Disc1_1-Disc1_21" style="stroke:#A80036;stroke-width:1.0;stroke-dasharray:7.0,7.0;"/><text fill="#000000" font-family="sans-serif" font-size="13" lengthAdjust="spacing" textLength="49" x="634.25" y="217.9951">21 discs</text><!--MD5=[c57a7248250ff73081da2c98745fe350]
link Disc2_1 to Player2--><path codeLine="209" d="M533.97,102.5 C519.58,102.5 505.2,102.5 490.82,102.5 " fill="none" id="Disc2_1-to-Player2" style="stroke:#A80036;stroke-width:1.0;"/><polygon fill="#A80036" points="477.61,102.5,483.61,106.5,489.61,102.5,483.61,98.5,477.61,102.5" style="stroke:#A80036;stroke-width:1.0;"/><!--MD5=[48a0522edcf4c09698e0bfd50d04f06b]
link Red1 to Disc2_1--><path codeLine="210" d="M564,42.37 C564,49.01 564,56.9 564,64.73 " fill="none" id="Red1-to-Disc2_1" style="stroke:#A80036;stroke-width:1.0;"/><polygon fill="none" points="571,64.94,564,84.94,557,64.94,571,64.94" style="stroke:#A80036;stroke-width:1.0;"/><!--MD5=[06c2e7cbaed3cb36a0b298b75f7aaa37]
link Disc2_21 to Player2--><path codeLine="211" d="M676.49,84.94 C643.01,64.99 583.62,36.98 532.5,51.5 C514.48,56.62 496.54,66.92 482.01,76.94 " fill="none" id="Disc2_21-to-Player2" style="stroke:#A80036;stroke-width:1.0;"/><polygon fill="#A80036" points="471.16,84.8,478.3656,84.5187,480.8774,77.7592,473.6717,78.0405,471.16,84.8" style="stroke:#A80036;stroke-width:1.0;"/><!--MD5=[c49b94e92387a88e7ec809b8e3d11742]
link Red21 to Disc2_21--><path codeLine="212" d="M703,42.37 C703,49.01 703,56.9 703,64.73 " fill="none" id="Red21-to-Disc2_21" style="stroke:#A80036;stroke-width:1.0;"/><polygon fill="none" points="710,64.94,703,84.94,696,64.94,710,64.94" style="stroke:#A80036;stroke-width:1.0;"/><!--MD5=[a4cab6c18e7e37e9a95c642907cb0315]
link Disc2_1 to Disc2_21--><!--MD5=[a4cab6c18e7e37e9a95c642907cb0315]
link Disc2_1 to Disc2_21--><path codeLine="215" d="M594.16,102.5 C616.36,102.5 646.54,102.5 669.49,102.5 " fill="none" id="Disc2_1-Disc2_21" style="stroke:#A80036;stroke-width:1.0;stroke-dasharray:7.0,7.0;"/><text fill="#000000" font-family="sans-serif" font-size="13" lengthAdjust="spacing" textLength="49" x="607.25" y="95.9951">21 discs</text><!--MD5=[5e383ec4abe2f3e1b4a72c6c17a1e2f0]
@startuml
'https://plantuml.com/object-diagram

skinparam nodesep 25
skinparam ranksep 20
'left to right direction
'skinparam linetype polyline
'skinparam linetype ortho

object ":Connect4" as Connect4
object ":Board" as Board

object HollowSquare11
object HollowSquare17

object HollowSquare21
object HollowSquare27

object HollowSquare31
object HollowSquare37

object HollowSquare41
object HollowSquare47

object HollowSquare51
object HollowSquare57

object HollowSquare61
object HollowSquare67

object ":Coordinate" as Coordinate11 {
    row = 1
    column = 1
}
object ":Coordinate" as Coordinate17 {
    row = 1
    column = 7
}

object ":Coordinate" as Coordinate21 {
    row = 2
    column = 1
}
object ":Coordinate" as Coordinate27 {
    row = 2
    column = 7
}

object ":Coordinate" as Coordinate31 {
    row = 3
    column = 1
}
object ":Coordinate" as Coordinate37 {
    row = 3
    column = 7
}

object ":Coordinate" as Coordinate41 {
    row = 4
    column = 1
}
object ":Coordinate" as Coordinate47 {
    row = 4
    column = 7
}

object ":Coordinate" as Coordinate51 {
    row = 5
    column = 1
}
object ":Coordinate" as Coordinate57 {
    row = 5
    column = 7
}

object ":Coordinate" as Coordinate61 {
    row = 6
    column = 1
}
object ":Coordinate" as Coordinate67 {
    row = 6
    column = 7
}


Connect4 *- - - - - - - - - Board

Board *- - HollowSquare11
Board *- - HollowSquare17

HollowSquare11 *-left-> Coordinate11
HollowSquare17 *-right-> Coordinate17

Board *- - HollowSquare21
Board *- - HollowSquare27

HollowSquare21 *-left-> Coordinate21
HollowSquare27 *-right-> Coordinate27

Board *- - HollowSquare31
Board *- - HollowSquare37

HollowSquare31 *-left-> Coordinate31
HollowSquare37 *-right-> Coordinate37

Board *- - HollowSquare41
Board *- - HollowSquare47

HollowSquare41 *-left-> Coordinate41
HollowSquare47 *-right-> Coordinate47

Board *- - HollowSquare51
Board *- - HollowSquare57

HollowSquare51 *-left-> Coordinate51
HollowSquare57 *-right-> Coordinate57

Board *- - HollowSquare61
Board *- - HollowSquare67

HollowSquare61 *-left-> Coordinate61
HollowSquare67 *-right-> Coordinate67

HollowSquare11 -[hidden]right-> HollowSquare17
HollowSquare21 -[hidden]right-> HollowSquare27
HollowSquare31 -[hidden]right-> HollowSquare37
HollowSquare41 -[hidden]right-> HollowSquare47
HollowSquare51 -[hidden]right-> HollowSquare57
HollowSquare61 -[hidden]right-> HollowSquare67

HollowSquare11 .. HollowSquare17 : row of objects: 12, 13, 14, 15, 16
HollowSquare21 .. HollowSquare27 : row of objects: 22, 23, 24, 25, 26
HollowSquare31 .. HollowSquare37 : row of objects: 32, 33, 34, 35, 36
HollowSquare41 .. HollowSquare47 : row of objects: 42, 43, 44, 45, 46
HollowSquare51 .. HollowSquare57 : row of objects: 52, 53, 54, 55, 56
HollowSquare61 .. HollowSquare67 : row of objects: 62, 63, 64, 65, 66

HollowSquare11 -[hidden]down-> HollowSquare21
HollowSquare17 -[hidden]down-> HollowSquare27

HollowSquare21 -[hidden]down-> HollowSquare31
HollowSquare27 -[hidden]down-> HollowSquare37

HollowSquare31 -[hidden]down-> HollowSquare41
HollowSquare37 -[hidden]down-> HollowSquare47

HollowSquare41 -[hidden]down-> HollowSquare51
HollowSquare47 -[hidden]down-> HollowSquare57

HollowSquare51 -[hidden]down-> HollowSquare61
HollowSquare57 -[hidden]down-> HollowSquare67

Coordinate11 -[hidden]down-> Coordinate21
Coordinate17 -[hidden]down-> Coordinate27

Coordinate21 -[hidden]down-> Coordinate31
Coordinate27 -[hidden]down-> Coordinate37

Coordinate31 -[hidden]down-> Coordinate41
Coordinate37 -[hidden]down-> Coordinate47

Coordinate41 -[hidden]down-> Coordinate51
Coordinate47 -[hidden]down-> Coordinate57

Coordinate51 -[hidden]down-> Coordinate61
Coordinate57 -[hidden]down-> Coordinate67

Coordinate61 -[hidden]up-> Coordinate51
Coordinate67 -[hidden]up-> Coordinate57

together {
  object Player1
  object Player2
}

Connect4 *- -up-> Player1
Connect4 *-up-> Player2

Player1 - - -[hidden]up> Player2

together {
  object Disc1_1
  object "Yellow" as Yellow1
}

together {
  object Disc1_21
  object "Yellow" as Yellow21
}

Player1 *-right Disc1_1
Disc1_1 <|- - Yellow1
Player1 *-left Disc1_21
Disc1_21 <|- - Yellow21

Disc1_1 -[hidden]- - - -> Disc1_21
Disc1_1 . Disc1_21 : 21 discs


together {
  object Disc2_1
  object "Red" as Red1
}

together {
  object Disc2_21
  object "Red" as Red21
}

Player2 *-left Disc2_1
Disc2_1 <|- -up Red1
Player2 *-left Disc2_21
Disc2_21 <|- -up Red21

Disc2_1 -[hidden]> Disc2_21
Disc2_1 . Disc2_21 : 21 discs

@enduml

@startuml

skinparam nodesep 25
skinparam ranksep 20

object ":Connect4" as Connect4
object ":Board" as Board

object HollowSquare11
object HollowSquare17

object HollowSquare21
object HollowSquare27

object HollowSquare31
object HollowSquare37

object HollowSquare41
object HollowSquare47

object HollowSquare51
object HollowSquare57

object HollowSquare61
object HollowSquare67

object ":Coordinate" as Coordinate11 {
    row = 1
    column = 1
}
object ":Coordinate" as Coordinate17 {
    row = 1
    column = 7
}

object ":Coordinate" as Coordinate21 {
    row = 2
    column = 1
}
object ":Coordinate" as Coordinate27 {
    row = 2
    column = 7
}

object ":Coordinate" as Coordinate31 {
    row = 3
    column = 1
}
object ":Coordinate" as Coordinate37 {
    row = 3
    column = 7
}

object ":Coordinate" as Coordinate41 {
    row = 4
    column = 1
}
object ":Coordinate" as Coordinate47 {
    row = 4
    column = 7
}

object ":Coordinate" as Coordinate51 {
    row = 5
    column = 1
}
object ":Coordinate" as Coordinate57 {
    row = 5
    column = 7
}

object ":Coordinate" as Coordinate61 {
    row = 6
    column = 1
}
object ":Coordinate" as Coordinate67 {
    row = 6
    column = 7
}


Connect4 *- - - - - - - - - Board

Board *- - HollowSquare11
Board *- - HollowSquare17

HollowSquare11 *-left-> Coordinate11
HollowSquare17 *-right-> Coordinate17

Board *- - HollowSquare21
Board *- - HollowSquare27

HollowSquare21 *-left-> Coordinate21
HollowSquare27 *-right-> Coordinate27

Board *- - HollowSquare31
Board *- - HollowSquare37

HollowSquare31 *-left-> Coordinate31
HollowSquare37 *-right-> Coordinate37

Board *- - HollowSquare41
Board *- - HollowSquare47

HollowSquare41 *-left-> Coordinate41
HollowSquare47 *-right-> Coordinate47

Board *- - HollowSquare51
Board *- - HollowSquare57

HollowSquare51 *-left-> Coordinate51
HollowSquare57 *-right-> Coordinate57

Board *- - HollowSquare61
Board *- - HollowSquare67

HollowSquare61 *-left-> Coordinate61
HollowSquare67 *-right-> Coordinate67

HollowSquare11 -[hidden]right-> HollowSquare17
HollowSquare21 -[hidden]right-> HollowSquare27
HollowSquare31 -[hidden]right-> HollowSquare37
HollowSquare41 -[hidden]right-> HollowSquare47
HollowSquare51 -[hidden]right-> HollowSquare57
HollowSquare61 -[hidden]right-> HollowSquare67

HollowSquare11 .. HollowSquare17 : row of objects: 12, 13, 14, 15, 16
HollowSquare21 .. HollowSquare27 : row of objects: 22, 23, 24, 25, 26
HollowSquare31 .. HollowSquare37 : row of objects: 32, 33, 34, 35, 36
HollowSquare41 .. HollowSquare47 : row of objects: 42, 43, 44, 45, 46
HollowSquare51 .. HollowSquare57 : row of objects: 52, 53, 54, 55, 56
HollowSquare61 .. HollowSquare67 : row of objects: 62, 63, 64, 65, 66

HollowSquare11 -[hidden]down-> HollowSquare21
HollowSquare17 -[hidden]down-> HollowSquare27

HollowSquare21 -[hidden]down-> HollowSquare31
HollowSquare27 -[hidden]down-> HollowSquare37

HollowSquare31 -[hidden]down-> HollowSquare41
HollowSquare37 -[hidden]down-> HollowSquare47

HollowSquare41 -[hidden]down-> HollowSquare51
HollowSquare47 -[hidden]down-> HollowSquare57

HollowSquare51 -[hidden]down-> HollowSquare61
HollowSquare57 -[hidden]down-> HollowSquare67

Coordinate11 -[hidden]down-> Coordinate21
Coordinate17 -[hidden]down-> Coordinate27

Coordinate21 -[hidden]down-> Coordinate31
Coordinate27 -[hidden]down-> Coordinate37

Coordinate31 -[hidden]down-> Coordinate41
Coordinate37 -[hidden]down-> Coordinate47

Coordinate41 -[hidden]down-> Coordinate51
Coordinate47 -[hidden]down-> Coordinate57

Coordinate51 -[hidden]down-> Coordinate61
Coordinate57 -[hidden]down-> Coordinate67

Coordinate61 -[hidden]up-> Coordinate51
Coordinate67 -[hidden]up-> Coordinate57

together {
  object Player1
  object Player2
}

Connect4 *- -up-> Player1
Connect4 *-up-> Player2

Player1 - - -[hidden]up> Player2

together {
  object Disc1_1
  object "Yellow" as Yellow1
}

together {
  object Disc1_21
  object "Yellow" as Yellow21
}

Player1 *-right Disc1_1
Disc1_1 <|- - Yellow1
Player1 *-left Disc1_21
Disc1_21 <|- - Yellow21

Disc1_1 -[hidden]- - - -> Disc1_21
Disc1_1 . Disc1_21 : 21 discs


together {
  object Disc2_1
  object "Red" as Red1
}

together {
  object Disc2_21
  object "Red" as Red21
}

Player2 *-left Disc2_1
Disc2_1 <|- -up Red1
Player2 *-left Disc2_21
Disc2_21 <|- -up Red21

Disc2_1 -[hidden]> Disc2_21
Disc2_1 . Disc2_21 : 21 discs

@enduml

PlantUML version 1.2022.0(Tue Jan 11 17:16:42 CET 2022)
(GPL source distribution)
Java Runtime: OpenJDK Runtime Environment
JVM: OpenJDK 64-Bit Server VM
Default Encoding: Cp1252
Language: es
Country: ES
--></g></svg>