<?xml version="1.0" encoding="UTF-8" standalone="no"?><svg xmlns="http://www.w3.org/2000/svg" xmlns:xlink="http://www.w3.org/1999/xlink" contentScriptType="application/ecmascript" contentStyleType="text/css" height="956px" preserveAspectRatio="none" style="width:834px;height:956px;background:#FFFFFF;" version="1.1" viewBox="0 0 834 956" width="834px" zoomAndPan="magnify"><defs><filter height="300%" id="f1qyk5oepurab3" width="300%" x="-1" y="-1"><feGaussianBlur result="blurOut" stdDeviation="2.0"/><feColorMatrix in="blurOut" result="blurOut2" type="matrix" values="0 0 0 0 0 0 0 0 0 0 0 0 0 0 0 0 0 0 .4 0"/><feOffset dx="4.0" dy="4.0" in="blurOut2" result="blurOut3"/><feBlend in="SourceGraphic" in2="blurOut3" mode="normal"/></filter></defs><g><rect fill="#FEFECE" filter="url(#f1qyk5oepurab3)" height="40" rx="12.5" ry="12.5" style="stroke:#A80036;stroke-width:1.5;" width="50" x="563" y="87"/><text fill="#000000" font-family="sans-serif" font-size="14" lengthAdjust="spacing" textLength="0" x="590" y="112.7285"/><rect fill="#FEFECE" filter="url(#f1qyk5oepurab3)" height="40" rx="12.5" ry="12.5" style="stroke:#A80036;stroke-width:1.5;" width="161" x="507.5" y="205"/><text fill="#000000" font-family="sans-serif" font-size="14" lengthAdjust="spacing" textLength="151" x="512.5" y="230.7285">LessThan4DiscsInPlace</text><rect fill="#FEFECE" filter="url(#f1qyk5oepurab3)" height="40" rx="12.5" ry="12.5" style="stroke:#A80036;stroke-width:1.5;" width="98" x="539" y="323"/><text fill="#000000" font-family="sans-serif" font-size="14" lengthAdjust="spacing" textLength="88" x="544" y="348.7285">4DiscsInPlace</text><polygon fill="#FEFECE" filter="url(#f1qyk5oepurab3)" points="462,441,474,453,462,465,450,453,462,441" style="stroke:#A80036;stroke-width:1.5;"/><rect fill="#FEFECE" filter="url(#f1qyk5oepurab3)" height="40" rx="12.5" ry="12.5" style="stroke:#A80036;stroke-width:1.5;" width="86" x="558" y="543"/><text fill="#000000" font-family="sans-serif" font-size="14" lengthAdjust="spacing" textLength="76" x="563" y="568.7285">GameActive</text><rect fill="#FEFECE" filter="url(#f1qyk5oepurab3)" height="40" rx="12.5" ry="12.5" style="stroke:#A80036;stroke-width:1.5;" width="50" x="488" y="683"/><text fill="#000000" font-family="sans-serif" font-size="14" lengthAdjust="spacing" textLength="0" x="515" y="708.7285"/><rect fill="#FEFECE" filter="url(#f1qyk5oepurab3)" height="40" rx="12.5" ry="12.5" style="stroke:#A80036;stroke-width:1.5;" width="144" x="7" y="613"/><text fill="#000000" font-family="sans-serif" font-size="14" lengthAdjust="spacing" textLength="134" x="12" y="638.7285">GameOver: Red wins</text><rect fill="#FEFECE" filter="url(#f1qyk5oepurab3)" height="40" rx="12.5" ry="12.5" style="stroke:#A80036;stroke-width:1.5;" width="158" x="434" y="823"/><text fill="#000000" font-family="sans-serif" font-size="14" lengthAdjust="spacing" textLength="148" x="439" y="848.7285">GameOver: Yellow wins</text><rect fill="#FEFECE" filter="url(#f1qyk5oepurab3)" height="40" rx="12.5" ry="12.5" style="stroke:#A80036;stroke-width:1.5;" width="119" x="134.5" y="753"/><text fill="#000000" font-family="sans-serif" font-size="14" lengthAdjust="spacing" textLength="109" x="139.5" y="778.7285">GameOver: Even</text><ellipse cx="588" cy="16" fill="#000000" filter="url(#f1qyk5oepurab3)" rx="10" ry="10" style="stroke:none;stroke-width:1.0;"/><ellipse cx="194" cy="934" filter="url(#f1qyk5oepurab3)" rx="10" ry="10" style="stroke:#000000;stroke-width:1.0;fill:none;"/><ellipse cx="194.5" cy="934.5" fill="#000000" rx="6" ry="6" style="stroke:none;stroke-width:1.0;"/><!--MD5=[ba0fdac9700f9825b754e67fda8ee1b2]
link *start to A--><path d="M588,26.19 C588,39.18 588,63.38 588,81.73 " fill="none" id="*start-to-A" style="stroke:#A80036;stroke-width:1.0;"/><polygon fill="#A80036" points="588,86.74,592,77.74,588,81.74,584,77.74,588,86.74" style="stroke:#A80036;stroke-width:1.0;"/><!--MD5=[5e2eec62a50b26b6b0db6c12e4ee289c]
link A to B--><path d="M562.82,120.94 C549.53,129.26 534.46,141.44 527,157 C518.79,174.13 531.9,190.01 548.04,202 " fill="none" id="A-to-B" style="stroke:#A80036;stroke-width:1.0;"/><polygon fill="#A80036" points="552.2,204.97,547.1901,196.4906,548.1275,202.0692,542.5488,203.0066,552.2,204.97" style="stroke:#A80036;stroke-width:1.0;"/><text fill="#000000" font-family="sans-serif" font-size="13" lengthAdjust="spacing" textLength="74" x="528" y="171.4951">insert Yellow</text><!--MD5=[2c777c0c38089c390787dfc0786ecb92]
link B to A--><path d="M598.34,204.87 C604.31,191.59 610.07,173.4 607,157 C605.42,148.53 602.42,139.65 599.26,131.8 " fill="none" id="B-to-A" style="stroke:#A80036;stroke-width:1.0;"/><polygon fill="#A80036" points="597.29,127.07,597.0333,136.9155,599.2009,131.6904,604.426,133.858,597.29,127.07" style="stroke:#A80036;stroke-width:1.0;"/><text fill="#000000" font-family="sans-serif" font-size="13" lengthAdjust="spacing" textLength="59" x="609" y="171.4951">insert Red</text><!--MD5=[cd25d8247324207f828a4db9f58ed69d]
link B to C--><path d="M588,245.16 C588,264.97 588,295.98 588,317.55 " fill="none" id="B-to-C" style="stroke:#A80036;stroke-width:1.0;"/><polygon fill="#A80036" points="588,322.82,592,313.82,588,317.82,584,313.82,588,322.82" style="stroke:#A80036;stroke-width:1.0;"/><text fill="#000000" font-family="sans-serif" font-size="13" lengthAdjust="spacing" textLength="108" x="589" y="289.4951">[yellowDiscs == 4]</text><!--MD5=[95ca888c4bb7ed1df160562281720a5c]
link C to D--><path d="M565.76,363.06 C538.06,386.8 491.93,426.34 471.85,443.56 " fill="none" id="C-to-D" style="stroke:#A80036;stroke-width:1.0;"/><polygon fill="#A80036" points="467.97,446.88,477.4065,444.0599,471.7663,443.626,472.2001,437.9859,467.97,446.88" style="stroke:#A80036;stroke-width:1.0;"/><text fill="#000000" font-family="sans-serif" font-size="13" lengthAdjust="spacing" textLength="59" x="530" y="407.4951">insert Red</text><!--MD5=[e714294ee1eb87ec5999b00f6d7a43e3]
link C to H--><path d="M637.08,363.03 C672.45,380.32 714,409.65 714,452 C714,452 714,452 714,704 C714,765.32 649.62,801.44 593.74,821.23 " fill="none" id="C-to-H" style="stroke:#A80036;stroke-width:1.0;"/><polygon fill="#A80036" points="588.7,822.98,598.515,823.7955,593.4215,821.3346,595.8824,816.2411,588.7,822.98" style="stroke:#A80036;stroke-width:1.0;"/><text fill="#000000" font-family="sans-serif" font-size="13" lengthAdjust="spacing" textLength="111" x="715" y="568.4951">[isConnect4Yellow]</text><!--MD5=[9ee2c6850258a89d754920901add40c0]
link D to E--><path d="M467.59,459.49 C478.69,470.26 504.45,494.71 528,513 C540.03,522.34 553.76,531.84 566.05,539.96 " fill="none" id="D-to-E" style="stroke:#A80036;stroke-width:1.0;"/><polygon fill="#A80036" points="570.51,542.88,565.1876,534.5931,566.3322,540.133,560.7924,541.2776,570.51,542.88" style="stroke:#A80036;stroke-width:1.0;"/><text fill="#000000" font-family="sans-serif" font-size="13" lengthAdjust="spacing" textLength="158" x="529" y="509.4951">notConnect4AndMoreDiscs</text><!--MD5=[1ab61fb352a3597145a9c37342f749bf]
link E to F--><path d="M588.76,583.19 C572.87,608.11 545.14,651.6 528,678.48 " fill="none" id="E-to-F" style="stroke:#A80036;stroke-width:1.0;"/><polygon fill="#A80036" points="525.13,682.97,533.3318,677.5174,527.8107,678.7493,526.5787,673.2283,525.13,682.97" style="stroke:#A80036;stroke-width:1.0;"/><text fill="#000000" font-family="sans-serif" font-size="13" lengthAdjust="spacing" textLength="74" x="569" y="638.4951">insert Yellow</text><!--MD5=[c3b9ab6fdad7d1a222b4f1a1e3a08be4]
link F to D--><path d="M506.58,682.84 C498.98,659.51 486.42,618.76 479,583 C470.59,542.49 465.51,493.92 463.3,469.55 " fill="none" id="F-to-D" style="stroke:#A80036;stroke-width:1.0;"/><polygon fill="#A80036" points="462.85,464.45,459.662,473.7686,463.2924,469.4304,467.6306,473.0608,462.85,464.45" style="stroke:#A80036;stroke-width:1.0;"/><text fill="#000000" font-family="sans-serif" font-size="13" lengthAdjust="spacing" textLength="59" x="480" y="568.4951">insert Red</text><!--MD5=[a237a4036bc185c3ad6b67d996fe4e1c]
link D to G--><path d="M451.13,454.25 C389.27,455.77 83.32,464.78 56,495 C27.9,526.08 48.53,578.06 64.69,608.26 " fill="none" id="D-to-G" style="stroke:#A80036;stroke-width:1.0;"/><polygon fill="#A80036" points="67.24,612.92,66.4285,603.1046,64.8397,608.5338,59.4106,606.9451,67.24,612.92" style="stroke:#A80036;stroke-width:1.0;"/><text fill="#000000" font-family="sans-serif" font-size="13" lengthAdjust="spacing" textLength="110" x="57" y="509.4951">[isConnected4Red]</text><!--MD5=[b416ddc0fde581fd079e27fd43b932c7]
link G to *end--><path d="M83.83,653.41 C91.6,683.69 107.93,743.8 127,793 C145.73,841.32 174.13,896.05 187.1,920.29 " fill="none" id="G-to-*end" style="stroke:#A80036;stroke-width:1.0;"/><polygon fill="#A80036" points="189.63,924.99,188.8812,915.1696,187.2578,920.5886,181.8389,918.9652,189.63,924.99" style="stroke:#A80036;stroke-width:1.0;"/><!--MD5=[f07753de26526949a4c5ce923a3e992e]
link D to I--><path d="M452.24,455.59 C420.6,461.26 319.85,483.42 267,543 C213.67,603.12 199.27,702.38 195.4,747.87 " fill="none" id="D-to-I" style="stroke:#A80036;stroke-width:1.0;"/><polygon fill="#A80036" points="195,752.88,199.7089,744.2298,195.401,747.8961,191.7347,743.5882,195,752.88" style="stroke:#A80036;stroke-width:1.0;"/><text fill="#000000" font-family="sans-serif" font-size="13" lengthAdjust="spacing" textLength="196" x="268" y="568.4951">[notConnected4AndNoMoreDiscs]</text><!--MD5=[2b88ab7148e427f95aea3bf5bfe7857b]
link I to *end--><path d="M194,793.18 C194,825.39 194,889.66 194,918.45 " fill="none" id="I-to-*end" style="stroke:#A80036;stroke-width:1.0;"/><polygon fill="#A80036" points="194,923.72,198,914.72,194,918.72,190,914.72,194,923.72" style="stroke:#A80036;stroke-width:1.0;"/><!--MD5=[8bbb699108e68dcb8edb38564281e319]
link F to H--><path d="M513,723.19 C513,747.91 513,790.88 513,817.81 " fill="none" id="F-to-H" style="stroke:#A80036;stroke-width:1.0;"/><polygon fill="#A80036" points="513,822.97,517,813.97,513,817.97,509,813.97,513,822.97" style="stroke:#A80036;stroke-width:1.0;"/><text fill="#000000" font-family="sans-serif" font-size="13" lengthAdjust="spacing" textLength="125" x="514" y="778.4951">[isConnected4Yellow]</text><!--MD5=[cd3f1cc90113be70d09332305c95804e]
link H to *end--><path d="M444.57,863.09 C368.18,884.41 249.88,917.41 208.71,928.89 " fill="none" id="H-to-*end" style="stroke:#A80036;stroke-width:1.0;"/><polygon fill="#A80036" points="203.65,930.31,213.3938,931.7448,208.4662,928.9666,211.2444,924.039,203.65,930.31" style="stroke:#A80036;stroke-width:1.0;"/><!--MD5=[3933e948a7b31bb2f0521434d0370234]
@startuml instructionsState

hide empty description

state A as " "
state B as "LessThan4DiscsInPlace"
state C as "4DiscsInPlace"
state D as " " <<choice>>
state E as "GameActive"
state F as " "
state G as "GameOver: Red wins"
state H as "GameOver: Yellow wins"
state I as "GameOver: Even"

[*] - -> A
A - -> B: insert Yellow
B - -> A : insert Red
B - -> C : [yellowDiscs == 4]
C - -> D : insert Red
C - -> H : [isConnect4Yellow]
D - -> E : notConnect4AndMoreDiscs
E - -> F : insert Yellow
F - -> D : insert Red
D - -> G : [isConnected4Red]
G - -> [*]
D - -> I : [notConnected4AndNoMoreDiscs]
I - -> [*]
F - -> H : [isConnected4Yellow]
H - -> [*]

@enduml

PlantUML version 1.2022.0(Tue Jan 11 17:16:42 CET 2022)
(GPL source distribution)
Java Runtime: OpenJDK Runtime Environment
JVM: OpenJDK 64-Bit Server VM
Default Encoding: Cp1252
Language: es
Country: ES
--></g></svg>