<svg version="1.1" xmlns="http://www.w3.org/2000/svg" xmlns:xlink="http://www.w3.org/1999/xlink" width="500" height="637"><defs/><g><text fill="#eeeeee" stroke="none" font-family="Arial" font-size="24px" font-style="normal" font-weight="normal" text-decoration="none" x="0" y="0">UNREGISTERED</text><text fill="#eeeeee" stroke="none" font-family="Arial" font-size="24px" font-style="normal" font-weight="normal" text-decoration="none" x="0" y="30">UNREGISTERED</text><text fill="#eeeeee" stroke="none" font-family="Arial" font-size="24px" font-style="normal" font-weight="normal" text-decoration="none" x="0" y="60">UNREGISTERED</text><text fill="#eeeeee" stroke="none" font-family="Arial" font-size="24px" font-style="normal" font-weight="normal" text-decoration="none" x="0" y="90">UNREGISTERED</text><text fill="#eeeeee" stroke="none" font-family="Arial" font-size="24px" font-style="normal" font-weight="normal" text-decoration="none" x="0" y="120">UNREGISTERED</text><text fill="#eeeeee" stroke="none" font-family="Arial" font-size="24px" font-style="normal" font-weight="normal" text-decoration="none" x="0" y="150">UNREGISTERED</text><text fill="#eeeeee" stroke="none" font-family="Arial" font-size="24px" font-style="normal" font-weight="normal" text-decoration="none" x="0" y="180">UNREGISTERED</text><text fill="#eeeeee" stroke="none" font-family="Arial" font-size="24px" font-style="normal" font-weight="normal" text-decoration="none" x="0" y="210">UNREGISTERED</text><text fill="#eeeeee" stroke="none" font-family="Arial" font-size="24px" font-style="normal" font-weight="normal" text-decoration="none" x="0" y="240">UNREGISTERED</text><text fill="#eeeeee" stroke="none" font-family="Arial" font-size="24px" font-style="normal" font-weight="normal" text-decoration="none" x="0" y="270">UNREGISTERED</text><text fill="#eeeeee" stroke="none" font-family="Arial" font-size="24px" font-style="normal" font-weight="normal" text-decoration="none" x="0" y="300">UNREGISTERED</text><text fill="#eeeeee" stroke="none" font-family="Arial" font-size="24px" font-style="normal" font-weight="normal" text-decoration="none" x="0" y="330">UNREGISTERED</text><text fill="#eeeeee" stroke="none" font-family="Arial" font-size="24px" font-style="normal" font-weight="normal" text-decoration="none" x="0" y="360">UNREGISTERED</text><text fill="#eeeeee" stroke="none" font-family="Arial" font-size="24px" font-style="normal" font-weight="normal" text-decoration="none" x="0" y="390">UNREGISTERED</text><text fill="#eeeeee" stroke="none" font-family="Arial" font-size="24px" font-style="normal" font-weight="normal" text-decoration="none" x="0" y="420">UNREGISTERED</text><text fill="#eeeeee" stroke="none" font-family="Arial" font-size="24px" font-style="normal" font-weight="normal" text-decoration="none" x="0" y="450">UNREGISTERED</text><text fill="#eeeeee" stroke="none" font-family="Arial" font-size="24px" font-style="normal" font-weight="normal" text-decoration="none" x="0" y="480">UNREGISTERED</text><text fill="#eeeeee" stroke="none" font-family="Arial" font-size="24px" font-style="normal" font-weight="normal" text-decoration="none" x="0" y="510">UNREGISTERED</text><text fill="#eeeeee" stroke="none" font-family="Arial" font-size="24px" font-style="normal" font-weight="normal" text-decoration="none" x="0" y="540">UNREGISTERED</text><text fill="#eeeeee" stroke="none" font-family="Arial" font-size="24px" font-style="normal" font-weight="normal" text-decoration="none" x="0" y="570">UNREGISTERED</text><text fill="#eeeeee" stroke="none" font-family="Arial" font-size="24px" font-style="normal" font-weight="normal" text-decoration="none" x="0" y="600">UNREGISTERED</text><text fill="#eeeeee" stroke="none" font-family="Arial" font-size="24px" font-style="normal" font-weight="normal" text-decoration="none" x="0" y="630">UNREGISTERED</text><text fill="#eeeeee" stroke="none" font-family="Arial" font-size="24px" font-style="normal" font-weight="normal" text-decoration="none" x="200" y="0">UNREGISTERED</text><text fill="#eeeeee" stroke="none" font-family="Arial" font-size="24px" font-style="normal" font-weight="normal" text-decoration="none" x="200" y="30">UNREGISTERED</text><text fill="#eeeeee" stroke="none" font-family="Arial" font-size="24px" font-style="normal" font-weight="normal" text-decoration="none" x="200" y="60">UNREGISTERED</text><text fill="#eeeeee" stroke="none" font-family="Arial" font-size="24px" font-style="normal" font-weight="normal" text-decoration="none" x="200" y="90">UNREGISTERED</text><text fill="#eeeeee" stroke="none" font-family="Arial" font-size="24px" font-style="normal" font-weight="normal" text-decoration="none" x="200" y="120">UNREGISTERED</text><text fill="#eeeeee" stroke="none" font-family="Arial" font-size="24px" font-style="normal" font-weight="normal" text-decoration="none" x="200" y="150">UNREGISTERED</text><text fill="#eeeeee" stroke="none" font-family="Arial" font-size="24px" font-style="normal" font-weight="normal" text-decoration="none" x="200" y="180">UNREGISTERED</text><text fill="#eeeeee" stroke="none" font-family="Arial" font-size="24px" font-style="normal" font-weight="normal" text-decoration="none" x="200" y="210">UNREGISTERED</text><text fill="#eeeeee" stroke="none" font-family="Arial" font-size="24px" font-style="normal" font-weight="normal" text-decoration="none" x="200" y="240">UNREGISTERED</text><text fill="#eeeeee" stroke="none" font-family="Arial" font-size="24px" font-style="normal" font-weight="normal" text-decoration="none" x="200" y="270">UNREGISTERED</text><text fill="#eeeeee" stroke="none" font-family="Arial" font-size="24px" font-style="normal" font-weight="normal" text-decoration="none" x="200" y="300">UNREGISTERED</text><text fill="#eeeeee" stroke="none" font-family="Arial" font-size="24px" font-style="normal" font-weight="normal" text-decoration="none" x="200" y="330">UNREGISTERED</text><text fill="#eeeeee" stroke="none" font-family="Arial" font-size="24px" font-style="normal" font-weight="normal" text-decoration="none" x="200" y="360">UNREGISTERED</text><text fill="#eeeeee" stroke="none" font-family="Arial" font-size="24px" font-style="normal" font-weight="normal" text-decoration="none" x="200" y="390">UNREGISTERED</text><text fill="#eeeeee" stroke="none" font-family="Arial" font-size="24px" font-style="normal" font-weight="normal" text-decoration="none" x="200" y="420">UNREGISTERED</text><text fill="#eeeeee" stroke="none" font-family="Arial" font-size="24px" font-style="normal" font-weight="normal" text-decoration="none" x="200" y="450">UNREGISTERED</text><text fill="#eeeeee" stroke="none" font-family="Arial" font-size="24px" font-style="normal" font-weight="normal" text-decoration="none" x="200" y="480">UNREGISTERED</text><text fill="#eeeeee" stroke="none" font-family="Arial" font-size="24px" font-style="normal" font-weight="normal" text-decoration="none" x="200" y="510">UNREGISTERED</text><text fill="#eeeeee" stroke="none" font-family="Arial" font-size="24px" font-style="normal" font-weight="normal" text-decoration="none" x="200" y="540">UNREGISTERED</text><text fill="#eeeeee" stroke="none" font-family="Arial" font-size="24px" font-style="normal" font-weight="normal" text-decoration="none" x="200" y="570">UNREGISTERED</text><text fill="#eeeeee" stroke="none" font-family="Arial" font-size="24px" font-style="normal" font-weight="normal" text-decoration="none" x="200" y="600">UNREGISTERED</text><text fill="#eeeeee" stroke="none" font-family="Arial" font-size="24px" font-style="normal" font-weight="normal" text-decoration="none" x="200" y="630">UNREGISTERED</text><text fill="#eeeeee" stroke="none" font-family="Arial" font-size="24px" font-style="normal" font-weight="normal" text-decoration="none" x="400" y="0">UNREGISTERED</text><text fill="#eeeeee" stroke="none" font-family="Arial" font-size="24px" font-style="normal" font-weight="normal" text-decoration="none" x="400" y="30">UNREGISTERED</text><text fill="#eeeeee" stroke="none" font-family="Arial" font-size="24px" font-style="normal" font-weight="normal" text-decoration="none" x="400" y="60">UNREGISTERED</text><text fill="#eeeeee" stroke="none" font-family="Arial" font-size="24px" font-style="normal" font-weight="normal" text-decoration="none" x="400" y="90">UNREGISTERED</text><text fill="#eeeeee" stroke="none" font-family="Arial" font-size="24px" font-style="normal" font-weight="normal" text-decoration="none" x="400" y="120">UNREGISTERED</text><text fill="#eeeeee" stroke="none" font-family="Arial" font-size="24px" font-style="normal" font-weight="normal" text-decoration="none" x="400" y="150">UNREGISTERED</text><text fill="#eeeeee" stroke="none" font-family="Arial" font-size="24px" font-style="normal" font-weight="normal" text-decoration="none" x="400" y="180">UNREGISTERED</text><text fill="#eeeeee" stroke="none" font-family="Arial" font-size="24px" font-style="normal" font-weight="normal" text-decoration="none" x="400" y="210">UNREGISTERED</text><text fill="#eeeeee" stroke="none" font-family="Arial" font-size="24px" font-style="normal" font-weight="normal" text-decoration="none" x="400" y="240">UNREGISTERED</text><text fill="#eeeeee" stroke="none" font-family="Arial" font-size="24px" font-style="normal" font-weight="normal" text-decoration="none" x="400" y="270">UNREGISTERED</text><text fill="#eeeeee" stroke="none" font-family="Arial" font-size="24px" font-style="normal" font-weight="normal" text-decoration="none" x="400" y="300">UNREGISTERED</text><text fill="#eeeeee" stroke="none" font-family="Arial" font-size="24px" font-style="normal" font-weight="normal" text-decoration="none" x="400" y="330">UNREGISTERED</text><text fill="#eeeeee" stroke="none" font-family="Arial" font-size="24px" font-style="normal" font-weight="normal" text-decoration="none" x="400" y="360">UNREGISTERED</text><text fill="#eeeeee" stroke="none" font-family="Arial" font-size="24px" font-style="normal" font-weight="normal" text-decoration="none" x="400" y="390">UNREGISTERED</text><text fill="#eeeeee" stroke="none" font-family="Arial" font-size="24px" font-style="normal" font-weight="normal" text-decoration="none" x="400" y="420">UNREGISTERED</text><text fill="#eeeeee" stroke="none" font-family="Arial" font-size="24px" font-style="normal" font-weight="normal" text-decoration="none" x="400" y="450">UNREGISTERED</text><text fill="#eeeeee" stroke="none" font-family="Arial" font-size="24px" font-style="normal" font-weight="normal" text-decoration="none" x="400" y="480">UNREGISTERED</text><text fill="#eeeeee" stroke="none" font-family="Arial" font-size="24px" font-style="normal" font-weight="normal" text-decoration="none" x="400" y="510">UNREGISTERED</text><text fill="#eeeeee" stroke="none" font-family="Arial" font-size="24px" font-style="normal" font-weight="normal" text-decoration="none" x="400" y="540">UNREGISTERED</text><text fill="#eeeeee" stroke="none" font-family="Arial" font-size="24px" font-style="normal" font-weight="normal" text-decoration="none" x="400" y="570">UNREGISTERED</text><text fill="#eeeeee" stroke="none" font-family="Arial" font-size="24px" font-style="normal" font-weight="normal" text-decoration="none" x="400" y="600">UNREGISTERED</text><text fill="#eeeeee" stroke="none" font-family="Arial" font-size="24px" font-style="normal" font-weight="normal" text-decoration="none" x="400" y="630">UNREGISTERED</text><g transform="translate(-30,-22) scale(1,1)"><path fill="#C0C0C0" stroke="none" d="M 391 48.5 C 391 43.2532944 395.2532944 39 400.5 39 C 405.7467056 39 410 43.2532944 410 48.5 C 410 53.7467056 405.7467056 58 400.5 58 C 395.2532944 58 391 53.7467056 391 48.5 Z" opacity="0.2"/></g><g transform="translate(-30,-22) scale(1,1)"><path fill="#000000" stroke="none" d="M 384 41.5 C 384 36.2532944 388.2532944 32 393.5 32 C 398.7467056 32 403 36.2532944 403 41.5 C 403 46.7467056 398.7467056 51 393.5 51 C 388.2532944 51 384 46.7467056 384 41.5 Z"/></g><g transform="translate(-30,-22) scale(1,1)"><path fill="#C0C0C0" stroke="none" d="M 335 643.5 C 335 636.59644 340.59644 631 347.5 631 C 354.40356 631 360 636.59644 360 643.5 C 360 650.40356 354.40356 656 347.5 656 C 340.59644 656 335 650.40356 335 643.5 Z" opacity="0.2"/></g><g transform="translate(-30,-22) scale(1,1)"><path fill="none" stroke="#000000" d="M 328 636.5 C 328 629.59644 333.59644 624 340.5 624 C 347.40356 624 353 629.59644 353 636.5 C 353 643.40356 347.40356 649 340.5 649 C 333.59644 649 328 643.40356 328 636.5 Z" stroke-miterlimit="10"/></g><g transform="translate(-30,-22) scale(1,1)"><path fill="#000000" stroke="none" d="M 333 636.5 C 333 632.357864 336.357864 629 340.5 629 C 344.642136 629 348 632.357864 348 636.5 C 348 640.642136 344.642136 644 340.5 644 C 336.357864 644 333 640.642136 333 636.5 Z"/></g><g transform="translate(-30,-22) scale(1,1)"><path fill="#C0C0C0" stroke="none" d="M 377 87 L 428 87 Q 438 87 438 97 L 438 116 Q 438 126 428 126 L 377 126 Q 367 126 367 116 L 367 97 Q 367 87 377 87 Z" opacity="0.2"/></g><g transform="translate(-30,-22) scale(1,1)"><path fill="#ffffff" stroke="none" d="M 370 80 L 421 80 Q 431 80 431 90 L 431 109 Q 431 119 421 119 L 370 119 Q 360 119 360 109 L 360 90 Q 360 80 370 80 Z"/></g><g transform="translate(-30,-22) scale(1,1)"><path fill="none" stroke="#000000" d="M 370 80 L 421 80 Q 431 80 431 90 L 431 109 Q 431 119 421 119 L 370 119 Q 360 119 360 109 L 360 90 Q 360 80 370 80 Z" stroke-miterlimit="10"/></g><g transform="translate(-30,-22) scale(1,1)"><g><path fill="none" stroke="none"/><text fill="#ffffff" stroke="none" font-family="Arial" font-size="22px" font-style="normal" font-weight="bold" text-decoration="none" x="392.44384765625" y="108.5">.</text></g></g><g transform="translate(-30,-22) scale(1,1)"><path fill="#C0C0C0" stroke="none" d="M 305 191 L 517 191 Q 527 191 527 201 L 527 220 Q 527 230 517 230 L 305 230 Q 295 230 295 220 L 295 201 Q 295 191 305 191 Z" opacity="0.2"/></g><g transform="translate(-30,-22) scale(1,1)"><path fill="#ffffff" stroke="none" d="M 298 184 L 510 184 Q 520 184 520 194 L 520 213 Q 520 223 510 223 L 298 223 Q 288 223 288 213 L 288 194 Q 288 184 298 184 Z"/></g><g transform="translate(-30,-22) scale(1,1)"><path fill="none" stroke="#000000" d="M 298 184 L 510 184 Q 520 184 520 194 L 520 213 Q 520 223 510 223 L 298 223 Q 288 223 288 213 L 288 194 Q 288 184 298 184 Z" stroke-miterlimit="10"/></g><g transform="translate(-30,-22) scale(1,1)"><g><path fill="none" stroke="none"/><text fill="#000000" stroke="none" font-family="Arial" font-size="22px" font-style="normal" font-weight="bold" text-decoration="none" x="318.40087890625" y="212.5">There are 4 disc?</text></g></g><g transform="translate(-30,-22) scale(1,1)"><path fill="#C0C0C0" stroke="none" d="M 169 271 L 277 271 Q 287 271 287 281 L 287 300 Q 287 310 277 310 L 169 310 Q 159 310 159 300 L 159 281 Q 159 271 169 271 Z" opacity="0.2"/></g><g transform="translate(-30,-22) scale(1,1)"><path fill="#ffffff" stroke="none" d="M 162 264 L 270 264 Q 280 264 280 274 L 280 293 Q 280 303 270 303 L 162 303 Q 152 303 152 293 L 152 274 Q 152 264 162 264 Z"/></g><g transform="translate(-30,-22) scale(1,1)"><path fill="none" stroke="#000000" d="M 162 264 L 270 264 Q 280 264 280 274 L 280 293 Q 280 303 270 303 L 162 303 Q 152 303 152 293 L 152 274 Q 152 264 162 264 Z" stroke-miterlimit="10"/></g><g transform="translate(-30,-22) scale(1,1)"><g><path fill="none" stroke="none"/><text fill="#000000" stroke="none" font-family="Arial" font-size="22px" font-style="normal" font-weight="bold" text-decoration="none" x="165.87158203125" y="292.5">Insert disc</text></g></g><g transform="translate(-30,-22) scale(1,1)"><path fill="#C0C0C0" stroke="none" d="M 231 373.5 L 244.5 359 L 257 373.5 L 244.5 387 L 231 373.5" opacity="0.2"/></g><g transform="translate(-30,-22) scale(1,1)"><path fill="#ffffff" stroke="none" d="M 224 366 L 237 352 L 250 366 L 237 380 L 224 366"/></g><g transform="translate(-30,-22) scale(1,1)"><path fill="none" stroke="#000000" d="M 224 366 L 237 352 L 250 366 L 237 380 L 224 366 L 224 366" stroke-miterlimit="10"/></g><g transform="translate(-30,-22) scale(1,1)"><path fill="#C0C0C0" stroke="none" d="M 361 351 L 494.24609375 351 Q 504.24609375 351 504.24609375 361 L 504.24609375 380 Q 504.24609375 390 494.24609375 390 L 361 390 Q 351 390 351 380 L 351 361 Q 351 351 361 351 Z" opacity="0.2"/></g><g transform="translate(-30,-22) scale(1,1)"><path fill="#ffffff" stroke="none" d="M 354 344 L 487.24609375 344 Q 497.24609375 344 497.24609375 354 L 497.24609375 373 Q 497.24609375 383 487.24609375 383 L 354 383 Q 344 383 344 373 L 344 354 Q 344 344 354 344 Z"/></g><g transform="translate(-30,-22) scale(1,1)"><path fill="none" stroke="#000000" d="M 354 344 L 487.24609375 344 Q 497.24609375 344 497.24609375 354 L 497.24609375 373 Q 497.24609375 383 487.24609375 383 L 354 383 Q 344 383 344 373 L 344 354 Q 344 344 354 344 Z" stroke-miterlimit="10"/></g><g transform="translate(-30,-22) scale(1,1)"><g><path fill="none" stroke="none"/><text fill="#000000" stroke="none" font-family="Arial" font-size="22px" font-style="normal" font-weight="bold" text-decoration="none" x="369.2646484375" y="372.5">Red wins?</text></g></g><g transform="translate(-30,-22) scale(1,1)"><path fill="#C0C0C0" stroke="none" d="M 233 535 L 373 535 Q 383 535 383 545 L 383 564 Q 383 574 373 574 L 233 574 Q 223 574 223 564 L 223 545 Q 223 535 233 535 Z" opacity="0.2"/></g><g transform="translate(-30,-22) scale(1,1)"><path fill="#ffffff" stroke="none" d="M 226 528 L 366 528 Q 376 528 376 538 L 376 557 Q 376 567 366 567 L 226 567 Q 216 567 216 557 L 216 538 Q 216 528 226 528 Z"/></g><g transform="translate(-30,-22) scale(1,1)"><path fill="none" stroke="#000000" d="M 226 528 L 366 528 Q 376 528 376 538 L 376 557 Q 376 567 366 567 L 226 567 Q 216 567 216 557 L 216 538 Q 216 528 226 528 Z" stroke-miterlimit="10"/></g><g transform="translate(-30,-22) scale(1,1)"><g><path fill="none" stroke="none"/><text fill="#000000" stroke="none" font-family="Arial" font-size="22px" font-style="normal" font-weight="bold" text-decoration="none" x="243.4169921875" y="556.5">End Game</text></g></g><g transform="translate(-30,-22) scale(1,1)"><path fill="none" stroke="#000000" d="M 428 183 Q 464 152 422 120" stroke-miterlimit="10"/></g><g transform="translate(-30,-22) scale(1,1)"><path fill="none" stroke="#000000" d="M 432.63486361769304 122.81063619721039 L 422 120 L 427.532564266569 129.50740409556067" stroke-miterlimit="10"/></g><g transform="translate(-30,-22) scale(1,1)"><g><path fill="none" stroke="none"/><text fill="#000000" stroke="none" font-family="Arial" font-size="15px" font-style="normal" font-weight="normal" text-decoration="none" x="445.5" y="157.5">Insert blue</text></g></g><g transform="translate(-30,-22) scale(1,1)"><path fill="none" stroke="#000000" d="M 368 120 Q 328 152 374 183" stroke-miterlimit="10"/></g><g transform="translate(-30,-22) scale(1,1)"><path fill="none" stroke="#000000" d="M 363.2199313544432 180.81136572331454 L 374 183 L 367.9249384976519 173.82974222048867" stroke-miterlimit="10"/></g><g transform="translate(-30,-22) scale(1,1)"><g><path fill="none" stroke="none"/><text fill="#000000" stroke="none" font-family="Arial" font-size="15px" font-style="normal" font-weight="normal" text-decoration="none" x="262.419921875" y="158.5">Insert Red</text></g></g><g transform="translate(-30,-22) scale(1,1)"><path fill="none" stroke="#000000" d="M 393 52 L 394 79" stroke-miterlimit="10"/></g><g transform="translate(-30,-22) scale(1,1)"><path fill="none" stroke="#000000" d="M 389.41722899170594 69.00008950612359 L 394 79 L 397.8304960648887 68.68848702193164" stroke-miterlimit="10"/></g><g transform="translate(-30,-22) scale(1,1)"><path fill="none" stroke="#000000" d="M 306 568 L 334 623" stroke-miterlimit="10"/></g><g transform="translate(-30,-22) scale(1,1)"><path fill="none" stroke="#000000" d="M 325.637999810623 615.8531858263377 L 334 623 L 333.14073372788505 612.0336121957316" stroke-miterlimit="10"/></g><g transform="translate(-30,-22) scale(1,1)"><path fill="none" stroke="#000000" d="M 251 366 L 343 364" stroke-miterlimit="10"/></g><g transform="translate(-30,-22) scale(1,1)"><path fill="none" stroke="#000000" d="M 332.93121531934037 368.42939894957703 L 343 364 L 332.74823604017183 360.0123521078249" stroke-miterlimit="10"/></g><g transform="translate(-30,-22) scale(1,1)"><path fill="none" stroke="#000000" d="M 406 384 L 309 527" stroke-miterlimit="10"/></g><g transform="translate(-30,-22) scale(1,1)"><path fill="none" stroke="#000000" d="M 311.2212398628878 516.2266025102793 L 309 527 L 318.1885961910894 520.9527113482902" stroke-miterlimit="10"/></g><g transform="translate(-30,-22) scale(1,1)"><path fill="#C0C0C0" stroke="none" d="M 265 423 L 306.5830078125 423 Q 316.5830078125 423 316.5830078125 433 L 316.5830078125 452 Q 316.5830078125 462 306.5830078125 462 L 265 462 Q 255 462 255 452 L 255 433 Q 255 423 265 423 Z" opacity="0.2"/></g><g transform="translate(-30,-22) scale(1,1)"><path fill="#ffffff" stroke="none" d="M 258 416 L 299.5830078125 416 Q 309.5830078125 416 309.5830078125 426 L 309.5830078125 445 Q 309.5830078125 455 299.5830078125 455 L 258 455 Q 248 455 248 445 L 248 426 Q 248 416 258 416 Z"/></g><g transform="translate(-30,-22) scale(1,1)"><path fill="none" stroke="#000000" d="M 258 416 L 299.5830078125 416 Q 309.5830078125 416 309.5830078125 426 L 309.5830078125 445 Q 309.5830078125 455 299.5830078125 455 L 258 455 Q 248 455 248 445 L 248 426 Q 248 416 258 416 Z" stroke-miterlimit="10"/></g><g transform="translate(-30,-22) scale(1,1)"><g><path fill="none" stroke="none"/><text fill="#000000" stroke="none" font-family="Arial" font-size="22px" font-style="normal" font-weight="bold" text-decoration="none" x="253.71923828125" y="444.5">Even</text></g></g><g transform="translate(-30,-22) scale(1,1)"><path fill="none" stroke="#000000" d="M 281 456 L 293 527" stroke-miterlimit="10"/></g><g transform="translate(-30,-22) scale(1,1)"><path fill="none" stroke="#000000" d="M 287.1557322814836 517.6809584809216 L 293 527 L 295.45703611746677 516.2779212128681" stroke-miterlimit="10"/></g><g transform="translate(-30,-22) scale(1,1)"><path fill="#C0C0C0" stroke="none" d="M 57 343 L 162.123046875 343 Q 172.123046875 343 172.123046875 353 L 172.123046875 372 Q 172.123046875 382 162.123046875 382 L 57 382 Q 47 382 47 372 L 47 353 Q 47 343 57 343 Z" opacity="0.2"/></g><g transform="translate(-30,-22) scale(1,1)"><path fill="#ffffff" stroke="none" d="M 50 336 L 155.123046875 336 Q 165.123046875 336 165.123046875 346 L 165.123046875 365 Q 165.123046875 375 155.123046875 375 L 50 375 Q 40 375 40 365 L 40 346 Q 40 336 50 336 Z"/></g><g transform="translate(-30,-22) scale(1,1)"><path fill="none" stroke="#000000" d="M 50 336 L 155.123046875 336 Q 165.123046875 336 165.123046875 346 L 165.123046875 365 Q 165.123046875 375 155.123046875 375 L 50 375 Q 40 375 40 365 L 40 346 Q 40 336 50 336 Z" stroke-miterlimit="10"/></g><g transform="translate(-30,-22) scale(1,1)"><g><path fill="none" stroke="none"/><text fill="#000000" stroke="none" font-family="Arial" font-size="22px" font-style="normal" font-weight="bold" text-decoration="none" x="49.3662109375" y="364.5">Blue wins?</text></g></g><g transform="translate(-30,-22) scale(1,1)"><path fill="none" stroke="#000000" d="M 123 376 L 276 527" stroke-miterlimit="10"/></g><g transform="translate(-30,-22) scale(1,1)"><path fill="none" stroke="#000000" d="M 265.80985147202523 522.8574315964835 L 276 527 L 271.72371508422657 516.8652386649153" stroke-miterlimit="10"/></g><g transform="translate(-30,-22) scale(1,1)"><path fill="none" stroke="#000000" d="M 221 304 L 233 351" stroke-miterlimit="10"/></g><g transform="translate(-30,-22) scale(1,1)"><path fill="none" stroke="#000000" d="M 226.40724820614753 342.1945685066174 L 233 351 L 234.5646008201316 340.1118401796427" stroke-miterlimit="10"/></g><g transform="translate(-30,-22) scale(1,1)"><path fill="none" stroke="#000000" d="M 223 365 L 166 360" stroke-miterlimit="10"/></g><g transform="translate(-30,-22) scale(1,1)"><path fill="none" stroke="#000000" d="M 176.4916432584723 356.69463742730807 L 166 360 L 175.7559563832866 365.0814678044252" stroke-miterlimit="10"/></g><g transform="translate(-30,-22) scale(1,1)"><path fill="none" stroke="#000000" d="M 246 381 L 266 415" stroke-miterlimit="10"/></g><g transform="translate(-30,-22) scale(1,1)"><path fill="none" stroke="#000000" d="M 257.21899192424047 408.3747530481162 L 266 415 L 264.47564669068913 404.10613259726404" stroke-miterlimit="10"/></g><g transform="translate(-30,-22) scale(1,1)"><path fill="#C0C0C0" stroke="none" d="M 345 271 L 497.775390625 271 Q 507.775390625 271 507.775390625 281 L 507.775390625 300 Q 507.775390625 310 497.775390625 310 L 345 310 Q 335 310 335 300 L 335 281 Q 335 271 345 271 Z" opacity="0.2"/></g><g transform="translate(-30,-22) scale(1,1)"><path fill="#ffffff" stroke="none" d="M 338 264 L 490.775390625 264 Q 500.775390625 264 500.775390625 274 L 500.775390625 293 Q 500.775390625 303 490.775390625 303 L 338 303 Q 328 303 328 293 L 328 274 Q 328 264 338 264 Z"/></g><g transform="translate(-30,-22) scale(1,1)"><path fill="none" stroke="#000000" d="M 338 264 L 490.775390625 264 Q 500.775390625 264 500.775390625 274 L 500.775390625 293 Q 500.775390625 303 490.775390625 303 L 338 303 Q 328 303 328 293 L 328 274 Q 328 264 338 264 Z" stroke-miterlimit="10"/></g><g transform="translate(-30,-22) scale(1,1)"><g><path fill="none" stroke="none"/><text fill="#000000" stroke="none" font-family="Arial" font-size="22px" font-style="normal" font-weight="bold" text-decoration="none" x="337.333984375" y="292.5">What happens?</text></g></g><g transform="translate(-30,-22) scale(1,1)"><path fill="none" stroke="#000000" d="M 407 224 L 412 263" stroke-miterlimit="10"/></g><g transform="translate(-30,-22) scale(1,1)"><path fill="none" stroke="#000000" d="M 406.5323269237868 253.45512959063075 L 412 263 L 414.88301388251034 252.3845286984867" stroke-miterlimit="10"/></g><g transform="translate(-30,-22) scale(1,1)"><path fill="none" stroke="#000000" d="M 327 283 L 281 283" stroke-miterlimit="10"/></g><g transform="translate(-30,-22) scale(1,1)"><path fill="none" stroke="#000000" d="M 291.16267485762415 278.790482243984 L 281 283 L 291.16267485762415 287.209517756016" stroke-miterlimit="10"/></g><g transform="translate(-30,-22) scale(1,1)"><path fill="none" stroke="#000000" d="M 416 304 L 419 343" stroke-miterlimit="10"/></g><g transform="translate(-30,-22) scale(1,1)"><path fill="none" stroke="#000000" d="M 414.02343985868197 333.19011472239123 L 419 343 L 422.41767697955055 332.5444041746321" stroke-miterlimit="10"/></g></g></svg>