<?xml version="1.0" encoding="UTF-8" standalone="no"?><svg xmlns="http://www.w3.org/2000/svg" xmlns:xlink="http://www.w3.org/1999/xlink" contentScriptType="application/ecmascript" contentStyleType="text/css" height="607px" preserveAspectRatio="none" style="width:266px;height:607px;background:#FFFFFF;" version="1.1" viewBox="0 0 266 607" width="266px" zoomAndPan="magnify"><defs><filter height="300%" id="f12sravsz9rfi" width="300%" x="-1" y="-1"><feGaussianBlur result="blurOut" stdDeviation="2.0"/><feColorMatrix in="blurOut" result="blurOut2" type="matrix" values="0 0 0 0 0 0 0 0 0 0 0 0 0 0 0 0 0 0 .4 0"/><feOffset dx="4.0" dy="4.0" in="blurOut2" result="blurOut3"/><feBlend in="SourceGraphic" in2="blurOut3" mode="normal"/></filter></defs><g><ellipse cx="112" cy="20" fill="#000000" filter="url(#f12sravsz9rfi)" rx="10" ry="10" style="stroke:none;stroke-width:1.0;"/><rect fill="#FEFECE" filter="url(#f12sravsz9rfi)" height="35.0938" rx="12.5" ry="12.5" style="stroke:#A80036;stroke-width:1.5;" width="90" x="67" y="94"/><text fill="#000000" font-family="sans-serif" font-size="12" lengthAdjust="spacing" textLength="70" x="77" y="116.457">insert Yellow</text><rect fill="#FEFECE" filter="url(#f12sravsz9rfi)" height="35.0938" rx="12.5" ry="12.5" style="stroke:#A80036;stroke-width:1.5;" width="77" x="73.5" y="156.5938"/><text fill="#000000" font-family="sans-serif" font-size="12" lengthAdjust="spacing" textLength="57" x="83.5" y="179.0508">insert Red</text><polygon fill="#FEFECE" filter="url(#f12sravsz9rfi)" points="112,50,124,62,112,74,100,62,112,50" style="stroke:#A80036;stroke-width:1.5;"/><polygon fill="#FEFECE" filter="url(#f12sravsz9rfi)" points="40,211.6875,184,211.6875,196,223.6875,184,235.6875,40,235.6875,28,223.6875,40,211.6875" style="stroke:#A80036;stroke-width:1.5;"/><text fill="#000000" font-family="sans-serif" font-size="11" lengthAdjust="spacing" textLength="22" x="116" y="247.1064">yes)</text><text fill="#000000" font-family="sans-serif" font-size="11" lengthAdjust="spacing" textLength="144" x="40" y="228.1885">are there 3 Yellow's on board</text><text fill="#000000" font-family="sans-serif" font-size="11" lengthAdjust="spacing" textLength="16" x="196" y="221.2705">no)</text><rect fill="#FEFECE" filter="url(#f12sravsz9rfi)" height="35.0938" rx="12.5" ry="12.5" style="stroke:#A80036;stroke-width:1.5;" width="90" x="67" y="268.6064"/><text fill="#000000" font-family="sans-serif" font-size="12" lengthAdjust="spacing" textLength="70" x="77" y="291.0635">insert Yellow</text><rect fill="#FEFECE" filter="url(#f12sravsz9rfi)" height="35.0938" rx="12.5" ry="12.5" style="stroke:#A80036;stroke-width:1.5;" width="77" x="73.5" y="385.5361"/><text fill="#000000" font-family="sans-serif" font-size="12" lengthAdjust="spacing" textLength="57" x="83.5" y="407.9932">insert Red</text><rect fill="#FEFECE" filter="url(#f12sravsz9rfi)" height="35.0938" rx="12.5" ry="12.5" style="stroke:#A80036;stroke-width:1.5;" width="90" x="67" y="538.4658"/><text fill="#000000" font-family="sans-serif" font-size="12" lengthAdjust="spacing" textLength="70" x="77" y="560.9229">insert Yellow</text><polygon fill="#FEFECE" filter="url(#f12sravsz9rfi)" points="71,489.5479,153,489.5479,165,501.5479,153,513.5479,71,513.5479,59,501.5479,71,489.5479" style="stroke:#A80036;stroke-width:1.5;"/><text fill="#000000" font-family="sans-serif" font-size="11" lengthAdjust="spacing" textLength="12" x="116" y="524.9668">no</text><text fill="#000000" font-family="sans-serif" font-size="11" lengthAdjust="spacing" textLength="82" x="71" y="506.0488">run out of discs?</text><text fill="#000000" font-family="sans-serif" font-size="11" lengthAdjust="spacing" textLength="18" x="165" y="499.1309">yes</text><ellipse cx="205" cy="501.5479" fill="#FFFFFF" filter="url(#f12sravsz9rfi)" rx="11" ry="11" style="stroke:#000000;stroke-width:1.0;"/><ellipse cx="205" cy="501.5479" fill="#000000" rx="6" ry="6" style="stroke:#7F7F7F;stroke-width:1.0;"/><polygon fill="#FEFECE" filter="url(#f12sravsz9rfi)" points="61,440.6299,163,440.6299,175,452.6299,163,464.6299,61,464.6299,49,452.6299,61,440.6299" style="stroke:#A80036;stroke-width:1.5;"/><text fill="#000000" font-family="sans-serif" font-size="11" lengthAdjust="spacing" textLength="12" x="116" y="476.0488">no</text><text fill="#000000" font-family="sans-serif" font-size="11" lengthAdjust="spacing" textLength="102" x="61" y="457.1309">checkIsConnect4Red</text><text fill="#000000" font-family="sans-serif" font-size="11" lengthAdjust="spacing" textLength="18" x="175" y="450.2129">yes</text><ellipse cx="215" cy="452.6299" fill="#FFFFFF" filter="url(#f12sravsz9rfi)" rx="11" ry="11" style="stroke:#000000;stroke-width:1.0;"/><ellipse cx="215" cy="452.6299" fill="#000000" rx="6" ry="6" style="stroke:#7F7F7F;stroke-width:1.0;"/><polygon fill="#FEFECE" filter="url(#f12sravsz9rfi)" points="50.5,323.7002,173.5,323.7002,185.5,335.7002,173.5,347.7002,50.5,347.7002,38.5,335.7002,50.5,323.7002" style="stroke:#A80036;stroke-width:1.5;"/><text fill="#000000" font-family="sans-serif" font-size="11" lengthAdjust="spacing" textLength="12" x="116" y="359.1191">no</text><text fill="#000000" font-family="sans-serif" font-size="11" lengthAdjust="spacing" textLength="123" x="50.5" y="340.2012">checkIsConnect4Yellow?</text><text fill="#000000" font-family="sans-serif" font-size="11" lengthAdjust="spacing" textLength="18" x="20.5" y="333.2832">yes</text><ellipse cx="24" cy="382.7002" fill="#FFFFFF" filter="url(#f12sravsz9rfi)" rx="11" ry="11" style="stroke:#000000;stroke-width:1.0;"/><ellipse cx="24" cy="382.7002" fill="#000000" rx="6" ry="6" style="stroke:#7F7F7F;stroke-width:1.0;"/><line style="stroke:#A80036;stroke-width:1.5;" x1="112" x2="112" y1="129.0938" y2="156.5938"/><polygon fill="#A80036" points="108,146.5938,112,156.5938,116,146.5938,112,150.5938" style="stroke:#A80036;stroke-width:1.0;"/><line style="stroke:#A80036;stroke-width:1.5;" x1="112" x2="112" y1="74" y2="94"/><polygon fill="#A80036" points="108,84,112,94,116,84,112,88" style="stroke:#A80036;stroke-width:1.0;"/><line style="stroke:#A80036;stroke-width:1.5;" x1="196" x2="208" y1="223.6875" y2="223.6875"/><polygon fill="#A80036" points="204,149.0938,208,139.0938,212,149.0938,208,145.0938" style="stroke:#A80036;stroke-width:1.5;"/><line style="stroke:#A80036;stroke-width:1.5;" x1="208" x2="208" y1="62" y2="223.6875"/><line style="stroke:#A80036;stroke-width:1.5;" x1="208" x2="124" y1="62" y2="62"/><polygon fill="#A80036" points="134,58,124,62,134,66,130,62" style="stroke:#A80036;stroke-width:1.0;"/><line style="stroke:#A80036;stroke-width:1.5;" x1="112" x2="112" y1="191.6875" y2="211.6875"/><polygon fill="#A80036" points="108,201.6875,112,211.6875,116,201.6875,112,205.6875" style="stroke:#A80036;stroke-width:1.0;"/><line style="stroke:#A80036;stroke-width:1.5;" x1="112" x2="112" y1="30" y2="50"/><polygon fill="#A80036" points="108,40,112,50,116,40,112,44" style="stroke:#A80036;stroke-width:1.0;"/><line style="stroke:#A80036;stroke-width:1.5;" x1="112" x2="112" y1="235.6875" y2="268.6064"/><polygon fill="#A80036" points="108,258.6064,112,268.6064,116,258.6064,112,262.6064" style="stroke:#A80036;stroke-width:1.0;"/><line style="stroke:#A80036;stroke-width:1.5;" x1="112" x2="112" y1="513.5479" y2="538.4658"/><polygon fill="#A80036" points="108,528.4658,112,538.4658,116,528.4658,112,532.4658" style="stroke:#A80036;stroke-width:1.0;"/><line style="stroke:#A80036;stroke-width:1.5;" x1="165" x2="194" y1="501.5479" y2="501.5479"/><polygon fill="#A80036" points="184,497.5479,194,501.5479,184,505.5479,188,501.5479" style="stroke:#A80036;stroke-width:1.0;"/><line style="stroke:#A80036;stroke-width:1.5;" x1="112" x2="112" y1="573.5596" y2="583.5596"/><line style="stroke:#A80036;stroke-width:1.5;" x1="112" x2="240" y1="583.5596" y2="583.5596"/><polygon fill="#A80036" points="236,488.0479,240,478.0479,244,488.0479,240,484.0479" style="stroke:#A80036;stroke-width:1.5;"/><line style="stroke:#A80036;stroke-width:1.5;" x1="240" x2="240" y1="335.7002" y2="583.5596"/><line style="stroke:#A80036;stroke-width:1.5;" x1="240" x2="185.5" y1="335.7002" y2="335.7002"/><polygon fill="#A80036" points="195.5,331.7002,185.5,335.7002,195.5,339.7002,191.5,335.7002" style="stroke:#A80036;stroke-width:1.0;"/><line style="stroke:#A80036;stroke-width:1.5;" x1="112" x2="112" y1="464.6299" y2="489.5479"/><polygon fill="#A80036" points="108,479.5479,112,489.5479,116,479.5479,112,483.5479" style="stroke:#A80036;stroke-width:1.0;"/><line style="stroke:#A80036;stroke-width:1.5;" x1="175" x2="204" y1="452.6299" y2="452.6299"/><polygon fill="#A80036" points="194,448.6299,204,452.6299,194,456.6299,198,452.6299" style="stroke:#A80036;stroke-width:1.0;"/><line style="stroke:#A80036;stroke-width:1.5;" x1="112" x2="112" y1="420.6299" y2="440.6299"/><polygon fill="#A80036" points="108,430.6299,112,440.6299,116,430.6299,112,434.6299" style="stroke:#A80036;stroke-width:1.0;"/><line style="stroke:#A80036;stroke-width:1.5;" x1="112" x2="112" y1="347.7002" y2="385.5361"/><polygon fill="#A80036" points="108,375.5361,112,385.5361,116,375.5361,112,379.5361" style="stroke:#A80036;stroke-width:1.0;"/><line style="stroke:#A80036;stroke-width:1.5;" x1="38.5" x2="24" y1="335.7002" y2="335.7002"/><line style="stroke:#A80036;stroke-width:1.5;" x1="24" x2="24" y1="335.7002" y2="371.7002"/><polygon fill="#A80036" points="20,361.7002,24,371.7002,28,361.7002,24,365.7002" style="stroke:#A80036;stroke-width:1.0;"/><line style="stroke:#A80036;stroke-width:1.5;" x1="112" x2="112" y1="303.7002" y2="323.7002"/><polygon fill="#A80036" points="108,313.7002,112,323.7002,116,313.7002,112,317.7002" style="stroke:#A80036;stroke-width:1.0;"/><!--MD5=[e05246a8486af117709ed17c19aa6a68]
@startuml instructionsActivity

start
repeat
  :insert Yellow;
  :insert Red;
repeat while (are there 3 Yellow's on board) is (no)) not (yes))
:insert Yellow;
while (checkIsConnect4Yellow?) is (no)
    :insert Red;
    if (checkIsConnect4Red) then (yes)
      stop
    else (no)
      if (run out of discs?) then (yes)
        stop
      else (no)
        :insert Yellow;
      endif
    endif
endwhile (yes)

stop

@enduml

PlantUML version 1.2022.0(Tue Jan 11 17:16:42 CET 2022)
(GPL source distribution)
Java Runtime: OpenJDK Runtime Environment
JVM: OpenJDK 64-Bit Server VM
Default Encoding: Cp1252
Language: es
Country: ES
--></g></svg>