<svg version="1.1" xmlns="http://www.w3.org/2000/svg" xmlns:xlink="http://www.w3.org/1999/xlink" width="512.599609375" height="444"><defs/><g><text fill="#eeeeee" stroke="none" font-family="Arial" font-size="24px" font-style="normal" font-weight="normal" text-decoration="none" x="0" y="0">UNREGISTERED</text><text fill="#eeeeee" stroke="none" font-family="Arial" font-size="24px" font-style="normal" font-weight="normal" text-decoration="none" x="0" y="30">UNREGISTERED</text><text fill="#eeeeee" stroke="none" font-family="Arial" font-size="24px" font-style="normal" font-weight="normal" text-decoration="none" x="0" y="60">UNREGISTERED</text><text fill="#eeeeee" stroke="none" font-family="Arial" font-size="24px" font-style="normal" font-weight="normal" text-decoration="none" x="0" y="90">UNREGISTERED</text><text fill="#eeeeee" stroke="none" font-family="Arial" font-size="24px" font-style="normal" font-weight="normal" text-decoration="none" x="0" y="120">UNREGISTERED</text><text fill="#eeeeee" stroke="none" font-family="Arial" font-size="24px" font-style="normal" font-weight="normal" text-decoration="none" x="0" y="150">UNREGISTERED</text><text fill="#eeeeee" stroke="none" font-family="Arial" font-size="24px" font-style="normal" font-weight="normal" text-decoration="none" x="0" y="180">UNREGISTERED</text><text fill="#eeeeee" stroke="none" font-family="Arial" font-size="24px" font-style="normal" font-weight="normal" text-decoration="none" x="0" y="210">UNREGISTERED</text><text fill="#eeeeee" stroke="none" font-family="Arial" font-size="24px" font-style="normal" font-weight="normal" text-decoration="none" x="0" y="240">UNREGISTERED</text><text fill="#eeeeee" stroke="none" font-family="Arial" font-size="24px" font-style="normal" font-weight="normal" text-decoration="none" x="0" y="270">UNREGISTERED</text><text fill="#eeeeee" stroke="none" font-family="Arial" font-size="24px" font-style="normal" font-weight="normal" text-decoration="none" x="0" y="300">UNREGISTERED</text><text fill="#eeeeee" stroke="none" font-family="Arial" font-size="24px" font-style="normal" font-weight="normal" text-decoration="none" x="0" y="330">UNREGISTERED</text><text fill="#eeeeee" stroke="none" font-family="Arial" font-size="24px" font-style="normal" font-weight="normal" text-decoration="none" x="0" y="360">UNREGISTERED</text><text fill="#eeeeee" stroke="none" font-family="Arial" font-size="24px" font-style="normal" font-weight="normal" text-decoration="none" x="0" y="390">UNREGISTERED</text><text fill="#eeeeee" stroke="none" font-family="Arial" font-size="24px" font-style="normal" font-weight="normal" text-decoration="none" x="0" y="420">UNREGISTERED</text><text fill="#eeeeee" stroke="none" font-family="Arial" font-size="24px" font-style="normal" font-weight="normal" text-decoration="none" x="200" y="0">UNREGISTERED</text><text fill="#eeeeee" stroke="none" font-family="Arial" font-size="24px" font-style="normal" font-weight="normal" text-decoration="none" x="200" y="30">UNREGISTERED</text><text fill="#eeeeee" stroke="none" font-family="Arial" font-size="24px" font-style="normal" font-weight="normal" text-decoration="none" x="200" y="60">UNREGISTERED</text><text fill="#eeeeee" stroke="none" font-family="Arial" font-size="24px" font-style="normal" font-weight="normal" text-decoration="none" x="200" y="90">UNREGISTERED</text><text fill="#eeeeee" stroke="none" font-family="Arial" font-size="24px" font-style="normal" font-weight="normal" text-decoration="none" x="200" y="120">UNREGISTERED</text><text fill="#eeeeee" stroke="none" font-family="Arial" font-size="24px" font-style="normal" font-weight="normal" text-decoration="none" x="200" y="150">UNREGISTERED</text><text fill="#eeeeee" stroke="none" font-family="Arial" font-size="24px" font-style="normal" font-weight="normal" text-decoration="none" x="200" y="180">UNREGISTERED</text><text fill="#eeeeee" stroke="none" font-family="Arial" font-size="24px" font-style="normal" font-weight="normal" text-decoration="none" x="200" y="210">UNREGISTERED</text><text fill="#eeeeee" stroke="none" font-family="Arial" font-size="24px" font-style="normal" font-weight="normal" text-decoration="none" x="200" y="240">UNREGISTERED</text><text fill="#eeeeee" stroke="none" font-family="Arial" font-size="24px" font-style="normal" font-weight="normal" text-decoration="none" x="200" y="270">UNREGISTERED</text><text fill="#eeeeee" stroke="none" font-family="Arial" font-size="24px" font-style="normal" font-weight="normal" text-decoration="none" x="200" y="300">UNREGISTERED</text><text fill="#eeeeee" stroke="none" font-family="Arial" font-size="24px" font-style="normal" font-weight="normal" text-decoration="none" x="200" y="330">UNREGISTERED</text><text fill="#eeeeee" stroke="none" font-family="Arial" font-size="24px" font-style="normal" font-weight="normal" text-decoration="none" x="200" y="360">UNREGISTERED</text><text fill="#eeeeee" stroke="none" font-family="Arial" font-size="24px" font-style="normal" font-weight="normal" text-decoration="none" x="200" y="390">UNREGISTERED</text><text fill="#eeeeee" stroke="none" font-family="Arial" font-size="24px" font-style="normal" font-weight="normal" text-decoration="none" x="200" y="420">UNREGISTERED</text><text fill="#eeeeee" stroke="none" font-family="Arial" font-size="24px" font-style="normal" font-weight="normal" text-decoration="none" x="400" y="0">UNREGISTERED</text><text fill="#eeeeee" stroke="none" font-family="Arial" font-size="24px" font-style="normal" font-weight="normal" text-decoration="none" x="400" y="30">UNREGISTERED</text><text fill="#eeeeee" stroke="none" font-family="Arial" font-size="24px" font-style="normal" font-weight="normal" text-decoration="none" x="400" y="60">UNREGISTERED</text><text fill="#eeeeee" stroke="none" font-family="Arial" font-size="24px" font-style="normal" font-weight="normal" text-decoration="none" x="400" y="90">UNREGISTERED</text><text fill="#eeeeee" stroke="none" font-family="Arial" font-size="24px" font-style="normal" font-weight="normal" text-decoration="none" x="400" y="120">UNREGISTERED</text><text fill="#eeeeee" stroke="none" font-family="Arial" font-size="24px" font-style="normal" font-weight="normal" text-decoration="none" x="400" y="150">UNREGISTERED</text><text fill="#eeeeee" stroke="none" font-family="Arial" font-size="24px" font-style="normal" font-weight="normal" text-decoration="none" x="400" y="180">UNREGISTERED</text><text fill="#eeeeee" stroke="none" font-family="Arial" font-size="24px" font-style="normal" font-weight="normal" text-decoration="none" x="400" y="210">UNREGISTERED</text><text fill="#eeeeee" stroke="none" font-family="Arial" font-size="24px" font-style="normal" font-weight="normal" text-decoration="none" x="400" y="240">UNREGISTERED</text><text fill="#eeeeee" stroke="none" font-family="Arial" font-size="24px" font-style="normal" font-weight="normal" text-decoration="none" x="400" y="270">UNREGISTERED</text><text fill="#eeeeee" stroke="none" font-family="Arial" font-size="24px" font-style="normal" font-weight="normal" text-decoration="none" x="400" y="300">UNREGISTERED</text><text fill="#eeeeee" stroke="none" font-family="Arial" font-size="24px" font-style="normal" font-weight="normal" text-decoration="none" x="400" y="330">UNREGISTERED</text><text fill="#eeeeee" stroke="none" font-family="Arial" font-size="24px" font-style="normal" font-weight="normal" text-decoration="none" x="400" y="360">UNREGISTERED</text><text fill="#eeeeee" stroke="none" font-family="Arial" font-size="24px" font-style="normal" font-weight="normal" text-decoration="none" x="400" y="390">UNREGISTERED</text><text fill="#eeeeee" stroke="none" font-family="Arial" font-size="24px" font-style="normal" font-weight="normal" text-decoration="none" x="400" y="420">UNREGISTERED</text><g transform="translate(-38,-42) scale(1,1)"><path fill="none" stroke="#000000" d="M 489 124 L 380 87" stroke-miterlimit="10"/></g><g transform="translate(-38,-42) scale(1,1)"><path fill="#000000" stroke="none" d="M 390.9764451122116 86.28051914646282 L 380 87 L 388.2702685626368 94.25276898169672 L 400.8324927629168 94.07158011218277"/></g><g transform="translate(-38,-42) scale(1,1)"><path fill="none" stroke="#000000" d="M 390.9764451122116 86.28051914646282 L 380 87 L 388.2702685626368 94.25276898169672 L 400.8324927629168 94.07158011218277 L 390.9764451122116 86.28051914646282" stroke-miterlimit="10"/></g><g transform="translate(-38,-42) scale(1,1)"><path fill="none" stroke="#000000" d="M 300 183 Q 332 112 336 97" stroke-miterlimit="10"/></g><g transform="translate(-38,-42) scale(1,1)"><path fill="#000000" stroke="none" d="M 337.4488413941362 107.90416702983944 L 336 97 L 329.3140751246672 105.73489602464772 L 330.3314216876727 118.25716867122742"/></g><g transform="translate(-38,-42) scale(1,1)"><path fill="none" stroke="#000000" d="M 337.4488413941362 107.90416702983944 L 336 97 L 329.3140751246672 105.73489602464772 L 330.3314216876727 118.25716867122742 L 337.4488413941362 107.90416702983944" stroke-miterlimit="10"/></g><g transform="translate(-38,-42) scale(1,1)"><g><path fill="none" stroke="none"/><text fill="#000000" stroke="none" font-family="Arial" font-size="13px" font-style="normal" font-weight="normal" text-decoration="none" x="289.5" y="159.5">+2</text></g></g><g transform="translate(-38,-42) scale(1,1)"><path fill="none" stroke="#000000" d="M 148 120 L 306 83" stroke-miterlimit="10"/></g><g transform="translate(-38,-42) scale(1,1)"><path fill="#000000" stroke="none" d="M 297.06482634006926 89.41581418581308 L 306 83 L 295.1452123963623 81.21854383160485 L 284.57950028422493 88.01619297141568"/></g><g transform="translate(-38,-42) scale(1,1)"><path fill="none" stroke="#000000" d="M 297.06482634006926 89.41581418581308 L 306 83 L 295.1452123963623 81.21854383160485 L 284.57950028422493 88.01619297141568 L 297.06482634006926 89.41581418581308" stroke-miterlimit="10"/></g><g transform="translate(-38,-42) scale(1,1)"><path fill="none" stroke="#000000" d="M 392 231 Q 384 128 360 97" stroke-miterlimit="10"/></g><g transform="translate(-38,-42) scale(1,1)"><path fill="#000000" stroke="none" d="M 369.5498826042289 102.4589140170409 L 360 97 L 362.8927516296218 107.61282186834964 L 373.46781024581117 114.3959215675061"/></g><g transform="translate(-38,-42) scale(1,1)"><path fill="none" stroke="#000000" d="M 369.5498826042289 102.4589140170409 L 360 97 L 362.8927516296218 107.61282186834964 L 373.46781024581117 114.3959215675061 L 369.5498826042289 102.4589140170409" stroke-miterlimit="10"/></g><g transform="translate(-38,-42) scale(1,1)"><g><path fill="none" stroke="none"/><text fill="#000000" stroke="none" font-family="Arial" font-size="13px" font-style="normal" font-weight="normal" text-decoration="none" x="363.5" y="212.5">+42</text></g></g><g transform="translate(-38,-42) scale(1,1)"><path fill="none" stroke="#000000" d="M 422 254 L 487 254" stroke-miterlimit="10"/></g><g transform="translate(-38,-42) scale(1,1)"><path fill="#FFFFFF" stroke="none" d="M 476.83732514237585 258.209517756016 L 487 254 L 476.83732514237585 249.790482243984 L 465 254"/></g><g transform="translate(-38,-42) scale(1,1)"><path fill="none" stroke="#000000" d="M 476.83732514237585 258.209517756016 L 487 254 L 476.83732514237585 249.790482243984 L 465 254 L 476.83732514237585 258.209517756016" stroke-miterlimit="10"/></g><g transform="translate(-38,-42) scale(1,1)"><rect fill="#C0C0C0" stroke="none" x="314.27880859375" y="59" width="71.841796875" height="44" opacity="0.2"/></g><g transform="translate(-38,-42) scale(1,1)"><rect fill="#d8e1f8" stroke="none" x="307.27880859375" y="52" width="71.841796875" height="44"/></g><g transform="translate(-38,-42) scale(1,1)"><path fill="none" stroke="#000000" d="M 307.27880859375 52 L 379.12060546875 52 L 379.12060546875 96 L 307.27880859375 96 L 307.27880859375 52 Z Z" stroke-miterlimit="10"/></g><g transform="translate(-38,-42) scale(1,1)"><path fill="none" stroke="#000000" d="M 307.27880859375 77 L 379.12060546875 77" stroke-miterlimit="10"/></g><g transform="translate(-38,-42) scale(1,1)"><path fill="none" stroke="#000000" d="M 307.27880859375 87 L 379.12060546875 87" stroke-miterlimit="10"/></g><g transform="translate(-38,-42) scale(1,1)"><g><path fill="none" stroke="none"/><text fill="#000000" stroke="none" font-family="Arial" font-size="13px" font-style="normal" font-weight="bold" text-decoration="none" x="313.56884765625" y="71.5">Connect 4</text></g></g><g transform="translate(-38,-42) scale(1,1)"><rect fill="#C0C0C0" stroke="none" x="295" y="439" width="50.919921875" height="44" opacity="0.2"/></g><g transform="translate(-38,-42) scale(1,1)"><rect fill="#d8e1f8" stroke="none" x="288" y="432" width="50.919921875" height="44"/></g><g transform="translate(-38,-42) scale(1,1)"><path fill="none" stroke="#000000" d="M 288 432 L 338.919921875 432 L 338.919921875 476 L 288 476 L 288 432 Z Z" stroke-miterlimit="10"/></g><g transform="translate(-38,-42) scale(1,1)"><path fill="none" stroke="#000000" d="M 288 457 L 338.919921875 457" stroke-miterlimit="10"/></g><g transform="translate(-38,-42) scale(1,1)"><path fill="none" stroke="#000000" d="M 288 467 L 338.919921875 467" stroke-miterlimit="10"/></g><g transform="translate(-38,-42) scale(1,1)"><g><path fill="none" stroke="none"/><text fill="#000000" stroke="none" font-family="Arial" font-size="13px" font-style="normal" font-weight="bold" text-decoration="none" x="301.535888671875" y="451.5">Red</text></g></g><g transform="translate(-38,-42) scale(1,1)"><rect fill="#C0C0C0" stroke="none" x="375" y="439" width="50.919921875" height="44" opacity="0.2"/></g><g transform="translate(-38,-42) scale(1,1)"><rect fill="#d8e1f8" stroke="none" x="368" y="432" width="50.919921875" height="44"/></g><g transform="translate(-38,-42) scale(1,1)"><path fill="none" stroke="#000000" d="M 368 432 L 418.919921875 432 L 418.919921875 476 L 368 476 L 368 432 Z Z" stroke-miterlimit="10"/></g><g transform="translate(-38,-42) scale(1,1)"><path fill="none" stroke="#000000" d="M 368 457 L 418.919921875 457" stroke-miterlimit="10"/></g><g transform="translate(-38,-42) scale(1,1)"><path fill="none" stroke="#000000" d="M 368 467 L 418.919921875 467" stroke-miterlimit="10"/></g><g transform="translate(-38,-42) scale(1,1)"><g><path fill="none" stroke="none"/><text fill="#000000" stroke="none" font-family="Arial" font-size="13px" font-style="normal" font-weight="bold" text-decoration="none" x="380.450439453125" y="451.5">Blue</text></g></g><g transform="translate(-38,-42) scale(1,1)"><rect fill="#C0C0C0" stroke="none" x="327" y="359" width="50.919921875" height="44" opacity="0.2"/></g><g transform="translate(-38,-42) scale(1,1)"><rect fill="#d8e1f8" stroke="none" x="320" y="352" width="50.919921875" height="44"/></g><g transform="translate(-38,-42) scale(1,1)"><path fill="none" stroke="#000000" d="M 320 352 L 370.919921875 352 L 370.919921875 396 L 320 396 L 320 352 Z Z" stroke-miterlimit="10"/></g><g transform="translate(-38,-42) scale(1,1)"><path fill="none" stroke="#000000" d="M 320 377 L 370.919921875 377" stroke-miterlimit="10"/></g><g transform="translate(-38,-42) scale(1,1)"><path fill="none" stroke="#000000" d="M 320 387 L 370.919921875 387" stroke-miterlimit="10"/></g><g transform="translate(-38,-42) scale(1,1)"><g><path fill="none" stroke="none"/><text fill="#000000" stroke="none" font-family="Arial" font-size="13px" font-style="normal" font-weight="bold" text-decoration="none" x="329.92724609375" y="371.5">Color</text></g></g><g transform="translate(-38,-42) scale(1,1)"><path fill="none" stroke="#000000" d="M 322 431 L 336 397" stroke-miterlimit="10"/></g><g transform="translate(-38,-42) scale(1,1)"><path fill="#FFFFFF" stroke="none" d="M 336.04602480245063 418.9999518571646 L 336 397 L 320.47622930593695 412.58885959389426"/></g><g transform="translate(-38,-42) scale(1,1)"><path fill="none" stroke="#000000" d="M 336.04602480245063 418.9999518571646 L 336 397 L 320.47622930593695 412.58885959389426 L 336.04602480245063 418.9999518571646" stroke-miterlimit="10"/></g><g transform="translate(-38,-42) scale(1,1)"><path fill="none" stroke="#000000" d="M 379 431 L 359 397" stroke-miterlimit="10"/></g><g transform="translate(-38,-42) scale(1,1)"><path fill="#FFFFFF" stroke="none" d="M 376.5620161515191 410.25049390376756 L 359 397 L 362.0487066186218 418.7877348054719"/></g><g transform="translate(-38,-42) scale(1,1)"><path fill="none" stroke="#000000" d="M 376.5620161515191 410.25049390376756 L 359 397 L 362.0487066186218 418.7877348054719 L 376.5620161515191 410.25049390376756" stroke-miterlimit="10"/></g><g transform="translate(-38,-42) scale(1,1)"><rect fill="#C0C0C0" stroke="none" x="375" y="239" width="53.07177734375" height="44" opacity="0.2"/></g><g transform="translate(-38,-42) scale(1,1)"><rect fill="#d8e1f8" stroke="none" x="368" y="232" width="53.07177734375" height="44"/></g><g transform="translate(-38,-42) scale(1,1)"><path fill="none" stroke="#000000" d="M 368 232 L 421.07177734375 232 L 421.07177734375 276 L 368 276 L 368 232 Z Z" stroke-miterlimit="10"/></g><g transform="translate(-38,-42) scale(1,1)"><path fill="none" stroke="#000000" d="M 368 257 L 421.07177734375 257" stroke-miterlimit="10"/></g><g transform="translate(-38,-42) scale(1,1)"><path fill="none" stroke="#000000" d="M 368 267 L 421.07177734375 267" stroke-miterlimit="10"/></g><g transform="translate(-38,-42) scale(1,1)"><g><path fill="none" stroke="none"/><text fill="#000000" stroke="none" font-family="Arial" font-size="13px" font-style="normal" font-weight="bold" text-decoration="none" x="373.575927734375" y="251.5">Square</text></g></g><g transform="translate(-38,-42) scale(1,1)"><rect fill="#C0C0C0" stroke="none" x="103" y="111" width="50.919921875" height="44" opacity="0.2"/></g><g transform="translate(-38,-42) scale(1,1)"><rect fill="#d8e1f8" stroke="none" x="96" y="104" width="50.919921875" height="44"/></g><g transform="translate(-38,-42) scale(1,1)"><path fill="none" stroke="#000000" d="M 96 104 L 146.919921875 104 L 146.919921875 148 L 96 148 L 96 104 Z Z" stroke-miterlimit="10"/></g><g transform="translate(-38,-42) scale(1,1)"><path fill="none" stroke="#000000" d="M 96 129 L 146.919921875 129" stroke-miterlimit="10"/></g><g transform="translate(-38,-42) scale(1,1)"><path fill="none" stroke="#000000" d="M 96 139 L 146.919921875 139" stroke-miterlimit="10"/></g><g transform="translate(-38,-42) scale(1,1)"><g><path fill="none" stroke="none"/><text fill="#000000" stroke="none" font-family="Arial" font-size="13px" font-style="normal" font-weight="bold" text-decoration="none" x="108.336181640625" y="123.5">Turn</text></g></g><g transform="translate(-38,-42) scale(1,1)"><rect fill="#C0C0C0" stroke="none" x="271" y="191" width="50.919921875" height="44" opacity="0.2"/></g><g transform="translate(-38,-42) scale(1,1)"><rect fill="#d8e1f8" stroke="none" x="264" y="184" width="50.919921875" height="44"/></g><g transform="translate(-38,-42) scale(1,1)"><path fill="none" stroke="#000000" d="M 264 184 L 314.919921875 184 L 314.919921875 228 L 264 228 L 264 184 Z Z" stroke-miterlimit="10"/></g><g transform="translate(-38,-42) scale(1,1)"><path fill="none" stroke="#000000" d="M 264 209 L 314.919921875 209" stroke-miterlimit="10"/></g><g transform="translate(-38,-42) scale(1,1)"><path fill="none" stroke="#000000" d="M 264 219 L 314.919921875 219" stroke-miterlimit="10"/></g><g transform="translate(-38,-42) scale(1,1)"><g><path fill="none" stroke="none"/><text fill="#000000" stroke="none" font-family="Arial" font-size="13px" font-style="normal" font-weight="bold" text-decoration="none" x="271.035888671875" y="203.5">Player</text></g></g><g transform="translate(-38,-42) scale(1,1)"><rect fill="#C0C0C0" stroke="none" x="496.6796875" y="118" width="50.919921875" height="44" opacity="0.2"/></g><g transform="translate(-38,-42) scale(1,1)"><rect fill="#d8e1f8" stroke="none" x="489.6796875" y="111" width="50.919921875" height="44"/></g><g transform="translate(-38,-42) scale(1,1)"><path fill="none" stroke="#000000" d="M 489.6796875 111 L 540.599609375 111 L 540.599609375 155 L 489.6796875 155 L 489.6796875 111 Z Z" stroke-miterlimit="10"/></g><g transform="translate(-38,-42) scale(1,1)"><path fill="none" stroke="#000000" d="M 489.6796875 136 L 540.599609375 136" stroke-miterlimit="10"/></g><g transform="translate(-38,-42) scale(1,1)"><path fill="none" stroke="#000000" d="M 489.6796875 146 L 540.599609375 146" stroke-miterlimit="10"/></g><g transform="translate(-38,-42) scale(1,1)"><g><path fill="none" stroke="none"/><text fill="#000000" stroke="none" font-family="Arial" font-size="13px" font-style="normal" font-weight="bold" text-decoration="none" x="497.794677734375" y="130.5">Board</text></g></g><g transform="translate(-38,-42) scale(1,1)"><rect fill="#C0C0C0" stroke="none" x="495" y="239" width="50.919921875" height="44" opacity="0.2"/></g><g transform="translate(-38,-42) scale(1,1)"><rect fill="#d8e1f8" stroke="none" x="488" y="232" width="50.919921875" height="44"/></g><g transform="translate(-38,-42) scale(1,1)"><path fill="none" stroke="#000000" d="M 488 232 L 538.919921875 232 L 538.919921875 276 L 488 276 L 488 232 Z Z" stroke-miterlimit="10"/></g><g transform="translate(-38,-42) scale(1,1)"><path fill="none" stroke="#000000" d="M 488 257 L 538.919921875 257" stroke-miterlimit="10"/></g><g transform="translate(-38,-42) scale(1,1)"><path fill="none" stroke="#000000" d="M 488 267 L 538.919921875 267" stroke-miterlimit="10"/></g><g transform="translate(-38,-42) scale(1,1)"><g><path fill="none" stroke="none"/><text fill="#000000" stroke="none" font-family="Arial" font-size="13px" font-style="normal" font-weight="bold" text-decoration="none" x="500.091796875" y="251.5">Hole</text></g></g><g transform="translate(-38,-42) scale(1,1)"><path fill="none" stroke="#000000" d="M 354 351 L 385 277" stroke-miterlimit="10"/></g><g transform="translate(-38,-42) scale(1,1)"><path fill="#000000" stroke="none" d="M 384.955894725061 287.9999115780411 L 385 277 L 377.1907007917193 284.7469249302898 L 376.4995362416217 297.2914296167741"/></g><g transform="translate(-38,-42) scale(1,1)"><path fill="none" stroke="#000000" d="M 384.955894725061 287.9999115780411 L 385 277 L 377.1907007917193 284.7469249302898 L 376.4995362416217 297.2914296167741 L 384.955894725061 287.9999115780411" stroke-miterlimit="10"/></g><g transform="translate(-38,-42) scale(1,1)"><rect fill="#C0C0C0" stroke="none" x="103" y="191" width="50.919921875" height="44" opacity="0.2"/></g><g transform="translate(-38,-42) scale(1,1)"><rect fill="#d8e1f8" stroke="none" x="96" y="184" width="50.919921875" height="44"/></g><g transform="translate(-38,-42) scale(1,1)"><path fill="none" stroke="#000000" d="M 96 184 L 146.919921875 184 L 146.919921875 228 L 96 228 L 96 184 Z Z" stroke-miterlimit="10"/></g><g transform="translate(-38,-42) scale(1,1)"><path fill="none" stroke="#000000" d="M 96 209 L 146.919921875 209" stroke-miterlimit="10"/></g><g transform="translate(-38,-42) scale(1,1)"><path fill="none" stroke="#000000" d="M 96 219 L 146.919921875 219" stroke-miterlimit="10"/></g><g transform="translate(-38,-42) scale(1,1)"><g><path fill="none" stroke="none"/><text fill="#000000" stroke="none" font-family="Arial" font-size="13px" font-style="normal" font-weight="bold" text-decoration="none" x="107.72998046875" y="203.5">Goal</text></g></g><g transform="translate(-38,-42) scale(1,1)"><path fill="none" stroke="#000000" d="M 263 206 L 148 206" stroke-miterlimit="10"/></g><g transform="translate(-38,-42) scale(1,1)"><path fill="none" stroke="#000000" d="M 158.16267485762415 201.790482243984 L 148 206 L 158.16267485762415 210.209517756016" stroke-miterlimit="10"/></g><g transform="translate(-38,-42) scale(1,1)"><rect fill="#C0C0C0" stroke="none" x="95" y="271" width="72" height="44" opacity="0.2"/></g><g transform="translate(-38,-42) scale(1,1)"><rect fill="#d8e1f8" stroke="none" x="88" y="264" width="72" height="44"/></g><g transform="translate(-38,-42) scale(1,1)"><path fill="none" stroke="#000000" d="M 88 264 L 160 264 L 160 308 L 88 308 L 88 264 Z Z" stroke-miterlimit="10"/></g><g transform="translate(-38,-42) scale(1,1)"><path fill="none" stroke="#000000" d="M 88 289 L 160 289" stroke-miterlimit="10"/></g><g transform="translate(-38,-42) scale(1,1)"><path fill="none" stroke="#000000" d="M 88 299 L 160 299" stroke-miterlimit="10"/></g><g transform="translate(-38,-42) scale(1,1)"><g><path fill="none" stroke="none"/><text fill="#000000" stroke="none" font-family="Arial" font-size="13px" font-style="normal" font-weight="bold" text-decoration="none" x="104.12548828125" y="283.5">Align 4</text></g></g><g transform="translate(-38,-42) scale(1,1)"><path fill="none" stroke="#000000" d="M 123 263 L 122 229" stroke-miterlimit="10"/></g><g transform="translate(-38,-42) scale(1,1)"><path fill="#FFFFFF" stroke="none" d="M 131.01294242662254 249.06905251411703 L 122 229 L 114.18214958358766 249.56407583302982"/></g><g transform="translate(-38,-42) scale(1,1)"><path fill="none" stroke="#000000" d="M 131.01294242662254 249.06905251411703 L 122 229 L 114.18214958358766 249.56407583302982 L 131.01294242662254 249.06905251411703" stroke-miterlimit="10"/></g><g transform="translate(-38,-42) scale(1,1)"><path fill="none" stroke="#000000" d="M 513 231 L 515 156" stroke-miterlimit="10"/></g><g transform="translate(-38,-42) scale(1,1)"><path fill="#000000" stroke="none" d="M 518.9371134793516 166.27127730375867 L 515 156 L 510.52106980661523 166.04684947248572 L 514.4135418147424 177.99218194715897"/></g><g transform="translate(-38,-42) scale(1,1)"><path fill="none" stroke="#000000" d="M 518.9371134793516 166.27127730375867 L 515 156 L 510.52106980661523 166.04684947248572 L 514.4135418147424 177.99218194715897 L 518.9371134793516 166.27127730375867" stroke-miterlimit="10"/></g><g transform="translate(-38,-42) scale(1,1)"><g><path fill="none" stroke="none"/><text fill="#000000" stroke="none" font-family="Arial" font-size="13px" font-style="normal" font-weight="normal" text-decoration="none" x="478.5" y="228.5">+6x7</text></g></g><g transform="translate(-38,-42) scale(1,1)"><path fill="none" stroke="#000000" d="M 263 194 L 148 139" stroke-miterlimit="10" stroke-dasharray="3"/></g><g transform="translate(-38,-42) scale(1,1)"><path fill="none" stroke="#000000" d="M 158.98431634925083 139.5871919103502 L 148 139 L 155.351877195587 147.18229195892005" stroke-miterlimit="10"/></g><g transform="translate(-38,-42) scale(1,1)"><path fill="none" stroke="#000000" d="M 289 229 L 288 256 L 367 255" stroke-miterlimit="10"/></g><g transform="translate(-38,-42) scale(1,1)"><path fill="none" stroke="#000000" d="M 356.89141999741184 259.3378116984575 L 367 255 L 356.78485846451355 250.91945059949282" stroke-miterlimit="10"/></g><g transform="translate(-38,-42) scale(1,1)"><g><path fill="none" stroke="none"/><text fill="#000000" stroke="none" font-family="Arial" font-size="13px" font-style="normal" font-weight="normal" text-decoration="none" x="334.5" y="235.5">+21</text></g></g><g transform="translate(-38,-42) scale(1,1)"><rect fill="#C0C0C0" stroke="none" x="207" y="287" width="71.25537109375" height="44" opacity="0.2"/></g><g transform="translate(-38,-42) scale(1,1)"><rect fill="#d8e1f8" stroke="none" x="200" y="280" width="71.25537109375" height="44"/></g><g transform="translate(-38,-42) scale(1,1)"><path fill="none" stroke="#000000" d="M 200 280 L 271.25537109375 280 L 271.25537109375 324 L 200 324 L 200 280 Z Z" stroke-miterlimit="10"/></g><g transform="translate(-38,-42) scale(1,1)"><path fill="none" stroke="#000000" d="M 200 305 L 271.25537109375 305" stroke-miterlimit="10"/></g><g transform="translate(-38,-42) scale(1,1)"><path fill="none" stroke="#000000" d="M 200 315 L 271.25537109375 315" stroke-miterlimit="10"/></g><g transform="translate(-38,-42) scale(1,1)"><g><path fill="none" stroke="none"/><text fill="#000000" stroke="none" font-family="Arial" font-size="13px" font-style="normal" font-weight="bold" text-decoration="none" x="214.312255859375" y="299.5">Vertical</text></g></g><g transform="translate(-38,-42) scale(1,1)"><rect fill="#C0C0C0" stroke="none" x="143" y="351" width="72.552734375" height="44" opacity="0.2"/></g><g transform="translate(-38,-42) scale(1,1)"><rect fill="#d8e1f8" stroke="none" x="136" y="344" width="72.552734375" height="44"/></g><g transform="translate(-38,-42) scale(1,1)"><path fill="none" stroke="#000000" d="M 136 344 L 208.552734375 344 L 208.552734375 388 L 136 388 L 136 344 Z Z" stroke-miterlimit="10"/></g><g transform="translate(-38,-42) scale(1,1)"><path fill="none" stroke="#000000" d="M 136 369 L 208.552734375 369" stroke-miterlimit="10"/></g><g transform="translate(-38,-42) scale(1,1)"><path fill="none" stroke="#000000" d="M 136 379 L 208.552734375 379" stroke-miterlimit="10"/></g><g transform="translate(-38,-42) scale(1,1)"><g><path fill="none" stroke="none"/><text fill="#000000" stroke="none" font-family="Arial" font-size="13px" font-style="normal" font-weight="bold" text-decoration="none" x="143.013671875" y="363.5">Horizontal</text></g></g><g transform="translate(-38,-42) scale(1,1)"><rect fill="#C0C0C0" stroke="none" x="55" y="351" width="71.89453125" height="44" opacity="0.2"/></g><g transform="translate(-38,-42) scale(1,1)"><rect fill="#d8e1f8" stroke="none" x="48" y="344" width="71.89453125" height="44"/></g><g transform="translate(-38,-42) scale(1,1)"><path fill="none" stroke="#000000" d="M 48 344 L 119.89453125 344 L 119.89453125 388 L 48 388 L 48 344 Z Z" stroke-miterlimit="10"/></g><g transform="translate(-38,-42) scale(1,1)"><path fill="none" stroke="#000000" d="M 48 369 L 119.89453125 369" stroke-miterlimit="10"/></g><g transform="translate(-38,-42) scale(1,1)"><path fill="none" stroke="#000000" d="M 48 379 L 119.89453125 379" stroke-miterlimit="10"/></g><g transform="translate(-38,-42) scale(1,1)"><g><path fill="none" stroke="none"/><text fill="#000000" stroke="none" font-family="Arial" font-size="13px" font-style="normal" font-weight="bold" text-decoration="none" x="58.2900390625" y="363.5">Diagonal</text></g></g><g transform="translate(-38,-42) scale(1,1)"><path fill="none" stroke="#000000" d="M 199 297 L 161 291" stroke-miterlimit="10"/></g><g transform="translate(-38,-42) scale(1,1)"><path fill="#FFFFFF" stroke="none" d="M 182.3896821507012 285.8539823657536 L 161 291 L 179.76357326146683 302.4860053309045"/></g><g transform="translate(-38,-42) scale(1,1)"><path fill="none" stroke="#000000" d="M 182.3896821507012 285.8539823657536 L 161 291 L 179.76357326146683 302.4860053309045 L 182.3896821507012 285.8539823657536" stroke-miterlimit="10"/></g><g transform="translate(-38,-42) scale(1,1)"><path fill="none" stroke="#000000" d="M 158 343 L 138 309" stroke-miterlimit="10"/></g><g transform="translate(-38,-42) scale(1,1)"><path fill="#FFFFFF" stroke="none" d="M 155.56201615151912 322.25049390376756 L 138 309 L 141.04870661862176 330.7877348054719"/></g><g transform="translate(-38,-42) scale(1,1)"><path fill="none" stroke="#000000" d="M 155.56201615151912 322.25049390376756 L 138 309 L 141.04870661862176 330.7877348054719 L 155.56201615151912 322.25049390376756" stroke-miterlimit="10"/></g><g transform="translate(-38,-42) scale(1,1)"><path fill="none" stroke="#000000" d="M 95 343 L 112 309" stroke-miterlimit="10"/></g><g transform="translate(-38,-42) scale(1,1)"><path fill="#FFFFFF" stroke="none" d="M 110.44044155800506 330.9446525938781 L 112 309 L 95.38001299009446 323.41443830992284"/></g><g transform="translate(-38,-42) scale(1,1)"><path fill="none" stroke="#000000" d="M 110.44044155800506 330.9446525938781 L 112 309 L 95.38001299009446 323.41443830992284 L 110.44044155800506 330.9446525938781" stroke-miterlimit="10"/></g></g></svg>