<?xml version="1.0" encoding="UTF-8" standalone="no"?><svg xmlns="http://www.w3.org/2000/svg" xmlns:xlink="http://www.w3.org/1999/xlink" contentScriptType="application/ecmascript" contentStyleType="text/css" height="913px" preserveAspectRatio="none" style="width:788px;height:913px;background:#FFFFFF;" version="1.1" viewBox="0 0 788 913" width="788px" zoomAndPan="magnify"><defs><filter height="300%" id="f18tskkulq921b" width="300%" x="-1" y="-1"><feGaussianBlur result="blurOut" stdDeviation="2.0"/><feColorMatrix in="blurOut" result="blurOut2" type="matrix" values="0 0 0 0 0 0 0 0 0 0 0 0 0 0 0 0 0 0 .4 0"/><feOffset dx="4.0" dy="4.0" in="blurOut2" result="blurOut3"/><feBlend in="SourceGraphic" in2="blurOut3" mode="normal"/></filter></defs><g><!--MD5=[10b1f240992e2c34b6908209bf85bfd2]
class Connect4--><rect codeLine="3" fill="#FEFECE" filter="url(#f18tskkulq921b)" height="48" id="Connect4" style="stroke:#A80036;stroke-width:1.5;" width="85" x="556" y="7"/><ellipse cx="571" cy="23" fill="#ADD1B2" rx="11" ry="11" style="stroke:#A80036;stroke-width:1.0;"/><path d="M573,19.5 Q573.2031,19 573.4375,18.75 Q573.6719,18.5 573.9375,18.5 Q574.4063,18.5 574.7031,18.7813 Q575,19.0625 575,19.7188 L575,21.2813 Q575,21.9375 574.7188,22.2188 Q574.4375,22.5 574,22.5 Q573.6094,22.5 573.3594,22.3281 Q573.1094,22.1563 573,21.7031 Q572.9531,21.3906 572.7813,21.2188 Q572.4688,20.8906 571.9063,20.7031 Q571.3438,20.5 570.7813,20.5 Q570.0781,20.5 569.4844,20.7813 Q568.9063,21.0625 568.4531,21.6875 Q568,22.3125 568,23.1719 L568,24.0938 Q568,25.125 568.8438,25.8125 Q569.6875,26.5 571.1875,26.5 Q572.0781,26.5 572.7031,26.2969 Q573.0625,26.1875 573.4688,25.8281 Q573.7344,25.625 573.875,25.5625 Q574.0156,25.5 574.1875,25.5 Q574.5156,25.5 574.75,25.7656 Q575,26.0156 575,26.375 Q575,26.7188 574.6563,27.125 Q574.1563,27.7188 573.3594,28.0469 Q572.3125,28.5 571.0313,28.5 Q569.5313,28.5 568.3281,27.9063 Q567.3594,27.4375 566.6719,26.4219 Q566,25.4063 566,24.2031 L566,23.1094 Q566,21.8594 566.5938,20.7656 Q567.2031,19.6719 568.25,19.0938 Q569.3125,18.5 570.5,18.5 Q571.2188,18.5 571.8438,18.75 Q572.4688,19 573,19.5 Z " fill="#000000"/><text fill="#000000" font-family="sans-serif" font-size="12" lengthAdjust="spacing" textLength="53" x="585" y="27.9102">Connect4</text><line style="stroke:#A80036;stroke-width:1.5;" x1="557" x2="640" y1="39" y2="39"/><line style="stroke:#A80036;stroke-width:1.5;" x1="557" x2="640" y1="47" y2="47"/><!--MD5=[9563755d011c5cec7ec66dc53565a59e]
class Board--><rect codeLine="4" fill="#FEFECE" filter="url(#f18tskkulq921b)" height="48" id="Board" style="stroke:#A80036;stroke-width:1.5;" width="65" x="7" y="211"/><ellipse cx="22" cy="227" fill="#ADD1B2" rx="11" ry="11" style="stroke:#A80036;stroke-width:1.0;"/><path d="M24,223.5 Q24.2031,223 24.4375,222.75 Q24.6719,222.5 24.9375,222.5 Q25.4063,222.5 25.7031,222.7813 Q26,223.0625 26,223.7188 L26,225.2813 Q26,225.9375 25.7188,226.2188 Q25.4375,226.5 25,226.5 Q24.6094,226.5 24.3594,226.3281 Q24.1094,226.1563 24,225.7031 Q23.9531,225.3906 23.7813,225.2188 Q23.4688,224.8906 22.9063,224.7031 Q22.3438,224.5 21.7813,224.5 Q21.0781,224.5 20.4844,224.7813 Q19.9063,225.0625 19.4531,225.6875 Q19,226.3125 19,227.1719 L19,228.0938 Q19,229.125 19.8438,229.8125 Q20.6875,230.5 22.1875,230.5 Q23.0781,230.5 23.7031,230.2969 Q24.0625,230.1875 24.4688,229.8281 Q24.7344,229.625 24.875,229.5625 Q25.0156,229.5 25.1875,229.5 Q25.5156,229.5 25.75,229.7656 Q26,230.0156 26,230.375 Q26,230.7188 25.6563,231.125 Q25.1563,231.7188 24.3594,232.0469 Q23.3125,232.5 22.0313,232.5 Q20.5313,232.5 19.3281,231.9063 Q18.3594,231.4375 17.6719,230.4219 Q17,229.4063 17,228.2031 L17,227.1094 Q17,225.8594 17.5938,224.7656 Q18.2031,223.6719 19.25,223.0938 Q20.3125,222.5 21.5,222.5 Q22.2188,222.5 22.8438,222.75 Q23.4688,223 24,223.5 Z " fill="#000000"/><text fill="#000000" font-family="sans-serif" font-size="12" lengthAdjust="spacing" textLength="33" x="36" y="231.9102">Board</text><line style="stroke:#A80036;stroke-width:1.5;" x1="8" x2="71" y1="243" y2="243"/><line style="stroke:#A80036;stroke-width:1.5;" x1="8" x2="71" y1="251" y2="251"/><!--MD5=[0992d3fdc9d3d7c02b735131bb70871d]
class Goal--><rect codeLine="5" fill="#FEFECE" filter="url(#f18tskkulq921b)" height="48" id="Goal" style="stroke:#A80036;stroke-width:1.5;" width="58" x="405.5" y="289"/><ellipse cx="420.5" cy="305" fill="#ADD1B2" rx="11" ry="11" style="stroke:#A80036;stroke-width:1.0;"/><path d="M422.5,301.5 Q422.7031,301 422.9375,300.75 Q423.1719,300.5 423.4375,300.5 Q423.9063,300.5 424.2031,300.7813 Q424.5,301.0625 424.5,301.7188 L424.5,303.2813 Q424.5,303.9375 424.2188,304.2188 Q423.9375,304.5 423.5,304.5 Q423.1094,304.5 422.8594,304.3281 Q422.6094,304.1563 422.5,303.7031 Q422.4531,303.3906 422.2813,303.2188 Q421.9688,302.8906 421.4063,302.7031 Q420.8438,302.5 420.2813,302.5 Q419.5781,302.5 418.9844,302.7813 Q418.4063,303.0625 417.9531,303.6875 Q417.5,304.3125 417.5,305.1719 L417.5,306.0938 Q417.5,307.125 418.3438,307.8125 Q419.1875,308.5 420.6875,308.5 Q421.5781,308.5 422.2031,308.2969 Q422.5625,308.1875 422.9688,307.8281 Q423.2344,307.625 423.375,307.5625 Q423.5156,307.5 423.6875,307.5 Q424.0156,307.5 424.25,307.7656 Q424.5,308.0156 424.5,308.375 Q424.5,308.7188 424.1563,309.125 Q423.6563,309.7188 422.8594,310.0469 Q421.8125,310.5 420.5313,310.5 Q419.0313,310.5 417.8281,309.9063 Q416.8594,309.4375 416.1719,308.4219 Q415.5,307.4063 415.5,306.2031 L415.5,305.1094 Q415.5,303.8594 416.0938,302.7656 Q416.7031,301.6719 417.75,301.0938 Q418.8125,300.5 420,300.5 Q420.7188,300.5 421.3438,300.75 Q421.9688,301 422.5,301.5 Z " fill="#000000"/><text fill="#000000" font-family="sans-serif" font-size="12" lengthAdjust="spacing" textLength="26" x="434.5" y="309.9102">Goal</text><line style="stroke:#A80036;stroke-width:1.5;" x1="406.5" x2="462.5" y1="321" y2="321"/><line style="stroke:#A80036;stroke-width:1.5;" x1="406.5" x2="462.5" y1="329" y2="329"/><!--MD5=[13c2e79780f8da90230e97aa9da6cb13]
class Disc--><rect codeLine="6" fill="#FEFECE" filter="url(#f18tskkulq921b)" height="48" id="Disc" style="stroke:#A80036;stroke-width:1.5;" width="57" x="291" y="633"/><ellipse cx="306" cy="649" fill="#ADD1B2" rx="11" ry="11" style="stroke:#A80036;stroke-width:1.0;"/><path d="M308,645.5 Q308.2031,645 308.4375,644.75 Q308.6719,644.5 308.9375,644.5 Q309.4063,644.5 309.7031,644.7813 Q310,645.0625 310,645.7188 L310,647.2813 Q310,647.9375 309.7188,648.2188 Q309.4375,648.5 309,648.5 Q308.6094,648.5 308.3594,648.3281 Q308.1094,648.1563 308,647.7031 Q307.9531,647.3906 307.7813,647.2188 Q307.4688,646.8906 306.9063,646.7031 Q306.3438,646.5 305.7813,646.5 Q305.0781,646.5 304.4844,646.7813 Q303.9063,647.0625 303.4531,647.6875 Q303,648.3125 303,649.1719 L303,650.0938 Q303,651.125 303.8438,651.8125 Q304.6875,652.5 306.1875,652.5 Q307.0781,652.5 307.7031,652.2969 Q308.0625,652.1875 308.4688,651.8281 Q308.7344,651.625 308.875,651.5625 Q309.0156,651.5 309.1875,651.5 Q309.5156,651.5 309.75,651.7656 Q310,652.0156 310,652.375 Q310,652.7188 309.6563,653.125 Q309.1563,653.7188 308.3594,654.0469 Q307.3125,654.5 306.0313,654.5 Q304.5313,654.5 303.3281,653.9063 Q302.3594,653.4375 301.6719,652.4219 Q301,651.4063 301,650.2031 L301,649.1094 Q301,647.8594 301.5938,646.7656 Q302.2031,645.6719 303.25,645.0938 Q304.3125,644.5 305.5,644.5 Q306.2188,644.5 306.8438,644.75 Q307.4688,645 308,645.5 Z " fill="#000000"/><text fill="#000000" font-family="sans-serif" font-size="12" lengthAdjust="spacing" textLength="25" x="320" y="653.9102">Disc</text><line style="stroke:#A80036;stroke-width:1.5;" x1="292" x2="347" y1="665" y2="665"/><line style="stroke:#A80036;stroke-width:1.5;" x1="292" x2="347" y1="673" y2="673"/><!--MD5=[2cb47ba637a0d19583e6199456f6ad0b]
class Player--><rect codeLine="7" fill="#FEFECE" filter="url(#f18tskkulq921b)" height="48" id="Player" style="stroke:#A80036;stroke-width:1.5;" width="66" x="401.5" y="133"/><ellipse cx="416.5" cy="149" fill="#ADD1B2" rx="11" ry="11" style="stroke:#A80036;stroke-width:1.0;"/><path d="M418.5,145.5 Q418.7031,145 418.9375,144.75 Q419.1719,144.5 419.4375,144.5 Q419.9063,144.5 420.2031,144.7813 Q420.5,145.0625 420.5,145.7188 L420.5,147.2813 Q420.5,147.9375 420.2188,148.2188 Q419.9375,148.5 419.5,148.5 Q419.1094,148.5 418.8594,148.3281 Q418.6094,148.1563 418.5,147.7031 Q418.4531,147.3906 418.2813,147.2188 Q417.9688,146.8906 417.4063,146.7031 Q416.8438,146.5 416.2813,146.5 Q415.5781,146.5 414.9844,146.7813 Q414.4063,147.0625 413.9531,147.6875 Q413.5,148.3125 413.5,149.1719 L413.5,150.0938 Q413.5,151.125 414.3438,151.8125 Q415.1875,152.5 416.6875,152.5 Q417.5781,152.5 418.2031,152.2969 Q418.5625,152.1875 418.9688,151.8281 Q419.2344,151.625 419.375,151.5625 Q419.5156,151.5 419.6875,151.5 Q420.0156,151.5 420.25,151.7656 Q420.5,152.0156 420.5,152.375 Q420.5,152.7188 420.1563,153.125 Q419.6563,153.7188 418.8594,154.0469 Q417.8125,154.5 416.5313,154.5 Q415.0313,154.5 413.8281,153.9063 Q412.8594,153.4375 412.1719,152.4219 Q411.5,151.4063 411.5,150.2031 L411.5,149.1094 Q411.5,147.8594 412.0938,146.7656 Q412.7031,145.6719 413.75,145.0938 Q414.8125,144.5 416,144.5 Q416.7188,144.5 417.3438,144.75 Q417.9688,145 418.5,145.5 Z " fill="#000000"/><text fill="#000000" font-family="sans-serif" font-size="12" lengthAdjust="spacing" textLength="34" x="430.5" y="153.9102">Player</text><line style="stroke:#A80036;stroke-width:1.5;" x1="402.5" x2="466.5" y1="165" y2="165"/><line style="stroke:#A80036;stroke-width:1.5;" x1="402.5" x2="466.5" y1="173" y2="173"/><!--MD5=[9d1b082e0427c50a68feddedfc32daa8]
class HollowSquare--><rect codeLine="8" fill="#FEFECE" filter="url(#f18tskkulq921b)" height="48" id="HollowSquare" style="stroke:#A80036;stroke-width:1.5;" width="110" x="155.5" y="524"/><ellipse cx="170.5" cy="540" fill="#ADD1B2" rx="11" ry="11" style="stroke:#A80036;stroke-width:1.0;"/><path d="M172.5,536.5 Q172.7031,536 172.9375,535.75 Q173.1719,535.5 173.4375,535.5 Q173.9063,535.5 174.2031,535.7813 Q174.5,536.0625 174.5,536.7188 L174.5,538.2813 Q174.5,538.9375 174.2188,539.2188 Q173.9375,539.5 173.5,539.5 Q173.1094,539.5 172.8594,539.3281 Q172.6094,539.1563 172.5,538.7031 Q172.4531,538.3906 172.2813,538.2188 Q171.9688,537.8906 171.4063,537.7031 Q170.8438,537.5 170.2813,537.5 Q169.5781,537.5 168.9844,537.7813 Q168.4063,538.0625 167.9531,538.6875 Q167.5,539.3125 167.5,540.1719 L167.5,541.0938 Q167.5,542.125 168.3438,542.8125 Q169.1875,543.5 170.6875,543.5 Q171.5781,543.5 172.2031,543.2969 Q172.5625,543.1875 172.9688,542.8281 Q173.2344,542.625 173.375,542.5625 Q173.5156,542.5 173.6875,542.5 Q174.0156,542.5 174.25,542.7656 Q174.5,543.0156 174.5,543.375 Q174.5,543.7188 174.1563,544.125 Q173.6563,544.7188 172.8594,545.0469 Q171.8125,545.5 170.5313,545.5 Q169.0313,545.5 167.8281,544.9063 Q166.8594,544.4375 166.1719,543.4219 Q165.5,542.4063 165.5,541.2031 L165.5,540.1094 Q165.5,538.8594 166.0938,537.7656 Q166.7031,536.6719 167.75,536.0938 Q168.8125,535.5 170,535.5 Q170.7188,535.5 171.3438,535.75 Q171.9688,536 172.5,536.5 Z " fill="#000000"/><text fill="#000000" font-family="sans-serif" font-size="12" lengthAdjust="spacing" textLength="78" x="184.5" y="544.9102">HollowSquare</text><line style="stroke:#A80036;stroke-width:1.5;" x1="156.5" x2="264.5" y1="556" y2="556"/><line style="stroke:#A80036;stroke-width:1.5;" x1="156.5" x2="264.5" y1="564" y2="564"/><!--MD5=[8c7d7abc12e214c3cc12c9ab70edee11]
class Coordinate--><rect codeLine="9" fill="#FEFECE" filter="url(#f18tskkulq921b)" height="48" id="Coordinate" style="stroke:#A80036;stroke-width:1.5;" width="93" x="163" y="633"/><ellipse cx="178" cy="649" fill="#ADD1B2" rx="11" ry="11" style="stroke:#A80036;stroke-width:1.0;"/><path d="M180,645.5 Q180.2031,645 180.4375,644.75 Q180.6719,644.5 180.9375,644.5 Q181.4063,644.5 181.7031,644.7813 Q182,645.0625 182,645.7188 L182,647.2813 Q182,647.9375 181.7188,648.2188 Q181.4375,648.5 181,648.5 Q180.6094,648.5 180.3594,648.3281 Q180.1094,648.1563 180,647.7031 Q179.9531,647.3906 179.7813,647.2188 Q179.4688,646.8906 178.9063,646.7031 Q178.3438,646.5 177.7813,646.5 Q177.0781,646.5 176.4844,646.7813 Q175.9063,647.0625 175.4531,647.6875 Q175,648.3125 175,649.1719 L175,650.0938 Q175,651.125 175.8438,651.8125 Q176.6875,652.5 178.1875,652.5 Q179.0781,652.5 179.7031,652.2969 Q180.0625,652.1875 180.4688,651.8281 Q180.7344,651.625 180.875,651.5625 Q181.0156,651.5 181.1875,651.5 Q181.5156,651.5 181.75,651.7656 Q182,652.0156 182,652.375 Q182,652.7188 181.6563,653.125 Q181.1563,653.7188 180.3594,654.0469 Q179.3125,654.5 178.0313,654.5 Q176.5313,654.5 175.3281,653.9063 Q174.3594,653.4375 173.6719,652.4219 Q173,651.4063 173,650.2031 L173,649.1094 Q173,647.8594 173.5938,646.7656 Q174.2031,645.6719 175.25,645.0938 Q176.3125,644.5 177.5,644.5 Q178.2188,644.5 178.8438,644.75 Q179.4688,645 180,645.5 Z " fill="#000000"/><text fill="#000000" font-family="sans-serif" font-size="12" lengthAdjust="spacing" textLength="61" x="192" y="653.9102">Coordinate</text><line style="stroke:#A80036;stroke-width:1.5;" x1="164" x2="255" y1="665" y2="665"/><line style="stroke:#A80036;stroke-width:1.5;" x1="164" x2="255" y1="673" y2="673"/><!--MD5=[18eee71c88ab61f27581b8cbdd3ef5ee]
class Color--><rect codeLine="10" fill="#FEFECE" filter="url(#f18tskkulq921b)" height="48" id="Color" style="stroke:#A80036;stroke-width:1.5;" width="62" x="91.5" y="742"/><ellipse cx="106.5" cy="758" fill="#ADD1B2" rx="11" ry="11" style="stroke:#A80036;stroke-width:1.0;"/><path d="M108.5,754.5 Q108.7031,754 108.9375,753.75 Q109.1719,753.5 109.4375,753.5 Q109.9063,753.5 110.2031,753.7813 Q110.5,754.0625 110.5,754.7188 L110.5,756.2813 Q110.5,756.9375 110.2188,757.2188 Q109.9375,757.5 109.5,757.5 Q109.1094,757.5 108.8594,757.3281 Q108.6094,757.1563 108.5,756.7031 Q108.4531,756.3906 108.2813,756.2188 Q107.9688,755.8906 107.4063,755.7031 Q106.8438,755.5 106.2813,755.5 Q105.5781,755.5 104.9844,755.7813 Q104.4063,756.0625 103.9531,756.6875 Q103.5,757.3125 103.5,758.1719 L103.5,759.0938 Q103.5,760.125 104.3438,760.8125 Q105.1875,761.5 106.6875,761.5 Q107.5781,761.5 108.2031,761.2969 Q108.5625,761.1875 108.9688,760.8281 Q109.2344,760.625 109.375,760.5625 Q109.5156,760.5 109.6875,760.5 Q110.0156,760.5 110.25,760.7656 Q110.5,761.0156 110.5,761.375 Q110.5,761.7188 110.1563,762.125 Q109.6563,762.7188 108.8594,763.0469 Q107.8125,763.5 106.5313,763.5 Q105.0313,763.5 103.8281,762.9063 Q102.8594,762.4375 102.1719,761.4219 Q101.5,760.4063 101.5,759.2031 L101.5,758.1094 Q101.5,756.8594 102.0938,755.7656 Q102.7031,754.6719 103.75,754.0938 Q104.8125,753.5 106,753.5 Q106.7188,753.5 107.3438,753.75 Q107.9688,754 108.5,754.5 Z " fill="#000000"/><text fill="#000000" font-family="sans-serif" font-size="12" lengthAdjust="spacing" textLength="30" x="120.5" y="762.9102">Color</text><line style="stroke:#A80036;stroke-width:1.5;" x1="92.5" x2="152.5" y1="774" y2="774"/><line style="stroke:#A80036;stroke-width:1.5;" x1="92.5" x2="152.5" y1="782" y2="782"/><!--MD5=[59a197a4e33151d5112197f2c5528c04]
class Yellow--><rect codeLine="11" fill="#FEFECE" filter="url(#f18tskkulq921b)" height="48" id="Yellow" style="stroke:#A80036;stroke-width:1.5;" width="68" x="40.5" y="851"/><ellipse cx="55.5" cy="867" fill="#ADD1B2" rx="11" ry="11" style="stroke:#A80036;stroke-width:1.0;"/><path d="M57.5,863.5 Q57.7031,863 57.9375,862.75 Q58.1719,862.5 58.4375,862.5 Q58.9063,862.5 59.2031,862.7813 Q59.5,863.0625 59.5,863.7188 L59.5,865.2813 Q59.5,865.9375 59.2188,866.2188 Q58.9375,866.5 58.5,866.5 Q58.1094,866.5 57.8594,866.3281 Q57.6094,866.1563 57.5,865.7031 Q57.4531,865.3906 57.2813,865.2188 Q56.9688,864.8906 56.4063,864.7031 Q55.8438,864.5 55.2813,864.5 Q54.5781,864.5 53.9844,864.7813 Q53.4063,865.0625 52.9531,865.6875 Q52.5,866.3125 52.5,867.1719 L52.5,868.0938 Q52.5,869.125 53.3438,869.8125 Q54.1875,870.5 55.6875,870.5 Q56.5781,870.5 57.2031,870.2969 Q57.5625,870.1875 57.9688,869.8281 Q58.2344,869.625 58.375,869.5625 Q58.5156,869.5 58.6875,869.5 Q59.0156,869.5 59.25,869.7656 Q59.5,870.0156 59.5,870.375 Q59.5,870.7188 59.1563,871.125 Q58.6563,871.7188 57.8594,872.0469 Q56.8125,872.5 55.5313,872.5 Q54.0313,872.5 52.8281,871.9063 Q51.8594,871.4375 51.1719,870.4219 Q50.5,869.4063 50.5,868.2031 L50.5,867.1094 Q50.5,865.8594 51.0938,864.7656 Q51.7031,863.6719 52.75,863.0938 Q53.8125,862.5 55,862.5 Q55.7188,862.5 56.3438,862.75 Q56.9688,863 57.5,863.5 Z " fill="#000000"/><text fill="#000000" font-family="sans-serif" font-size="12" lengthAdjust="spacing" textLength="36" x="69.5" y="871.9102">Yellow</text><line style="stroke:#A80036;stroke-width:1.5;" x1="41.5" x2="107.5" y1="883" y2="883"/><line style="stroke:#A80036;stroke-width:1.5;" x1="41.5" x2="107.5" y1="891" y2="891"/><!--MD5=[08be530975453a47bdc5b5370100f2fc]
class Red--><rect codeLine="12" fill="#FEFECE" filter="url(#f18tskkulq921b)" height="48" id="Red" style="stroke:#A80036;stroke-width:1.5;" width="55" x="144" y="851"/><ellipse cx="159" cy="867" fill="#ADD1B2" rx="11" ry="11" style="stroke:#A80036;stroke-width:1.0;"/><path d="M161,863.5 Q161.2031,863 161.4375,862.75 Q161.6719,862.5 161.9375,862.5 Q162.4063,862.5 162.7031,862.7813 Q163,863.0625 163,863.7188 L163,865.2813 Q163,865.9375 162.7188,866.2188 Q162.4375,866.5 162,866.5 Q161.6094,866.5 161.3594,866.3281 Q161.1094,866.1563 161,865.7031 Q160.9531,865.3906 160.7813,865.2188 Q160.4688,864.8906 159.9063,864.7031 Q159.3438,864.5 158.7813,864.5 Q158.0781,864.5 157.4844,864.7813 Q156.9063,865.0625 156.4531,865.6875 Q156,866.3125 156,867.1719 L156,868.0938 Q156,869.125 156.8438,869.8125 Q157.6875,870.5 159.1875,870.5 Q160.0781,870.5 160.7031,870.2969 Q161.0625,870.1875 161.4688,869.8281 Q161.7344,869.625 161.875,869.5625 Q162.0156,869.5 162.1875,869.5 Q162.5156,869.5 162.75,869.7656 Q163,870.0156 163,870.375 Q163,870.7188 162.6563,871.125 Q162.1563,871.7188 161.3594,872.0469 Q160.3125,872.5 159.0313,872.5 Q157.5313,872.5 156.3281,871.9063 Q155.3594,871.4375 154.6719,870.4219 Q154,869.4063 154,868.2031 L154,867.1094 Q154,865.8594 154.5938,864.7656 Q155.2031,863.6719 156.25,863.0938 Q157.3125,862.5 158.5,862.5 Q159.2188,862.5 159.8438,862.75 Q160.4688,863 161,863.5 Z " fill="#000000"/><text fill="#000000" font-family="sans-serif" font-size="12" lengthAdjust="spacing" textLength="23" x="173" y="871.9102">Red</text><line style="stroke:#A80036;stroke-width:1.5;" x1="145" x2="198" y1="883" y2="883"/><line style="stroke:#A80036;stroke-width:1.5;" x1="145" x2="198" y1="891" y2="891"/><!--MD5=[dd91eae41778c45e12552e5329e240e8]
class Turn--><rect codeLine="13" fill="#FEFECE" filter="url(#f18tskkulq921b)" height="48" id="Turn" style="stroke:#A80036;stroke-width:1.5;" width="57" x="671" y="398"/><ellipse cx="686" cy="414" fill="#ADD1B2" rx="11" ry="11" style="stroke:#A80036;stroke-width:1.0;"/><path d="M688,410.5 Q688.2031,410 688.4375,409.75 Q688.6719,409.5 688.9375,409.5 Q689.4063,409.5 689.7031,409.7813 Q690,410.0625 690,410.7188 L690,412.2813 Q690,412.9375 689.7188,413.2188 Q689.4375,413.5 689,413.5 Q688.6094,413.5 688.3594,413.3281 Q688.1094,413.1563 688,412.7031 Q687.9531,412.3906 687.7813,412.2188 Q687.4688,411.8906 686.9063,411.7031 Q686.3438,411.5 685.7813,411.5 Q685.0781,411.5 684.4844,411.7813 Q683.9063,412.0625 683.4531,412.6875 Q683,413.3125 683,414.1719 L683,415.0938 Q683,416.125 683.8438,416.8125 Q684.6875,417.5 686.1875,417.5 Q687.0781,417.5 687.7031,417.2969 Q688.0625,417.1875 688.4688,416.8281 Q688.7344,416.625 688.875,416.5625 Q689.0156,416.5 689.1875,416.5 Q689.5156,416.5 689.75,416.7656 Q690,417.0156 690,417.375 Q690,417.7188 689.6563,418.125 Q689.1563,418.7188 688.3594,419.0469 Q687.3125,419.5 686.0313,419.5 Q684.5313,419.5 683.3281,418.9063 Q682.3594,418.4375 681.6719,417.4219 Q681,416.4063 681,415.2031 L681,414.1094 Q681,412.8594 681.5938,411.7656 Q682.2031,410.6719 683.25,410.0938 Q684.3125,409.5 685.5,409.5 Q686.2188,409.5 686.8438,409.75 Q687.4688,410 688,410.5 Z " fill="#000000"/><text fill="#000000" font-family="sans-serif" font-size="12" lengthAdjust="spacing" textLength="25" x="700" y="418.9102">Turn</text><line style="stroke:#A80036;stroke-width:1.5;" x1="672" x2="727" y1="430" y2="430"/><line style="stroke:#A80036;stroke-width:1.5;" x1="672" x2="727" y1="438" y2="438"/><!--MD5=[2808de09be71fab9caf2df132bae0681]
class Horizontal--><rect codeLine="14" fill="#FEFECE" filter="url(#f18tskkulq921b)" height="48" id="Horizontal" style="stroke:#A80036;stroke-width:1.5;" width="87" x="451" y="398"/><ellipse cx="466" cy="414" fill="#ADD1B2" rx="11" ry="11" style="stroke:#A80036;stroke-width:1.0;"/><path d="M468,410.5 Q468.2031,410 468.4375,409.75 Q468.6719,409.5 468.9375,409.5 Q469.4063,409.5 469.7031,409.7813 Q470,410.0625 470,410.7188 L470,412.2813 Q470,412.9375 469.7188,413.2188 Q469.4375,413.5 469,413.5 Q468.6094,413.5 468.3594,413.3281 Q468.1094,413.1563 468,412.7031 Q467.9531,412.3906 467.7813,412.2188 Q467.4688,411.8906 466.9063,411.7031 Q466.3438,411.5 465.7813,411.5 Q465.0781,411.5 464.4844,411.7813 Q463.9063,412.0625 463.4531,412.6875 Q463,413.3125 463,414.1719 L463,415.0938 Q463,416.125 463.8438,416.8125 Q464.6875,417.5 466.1875,417.5 Q467.0781,417.5 467.7031,417.2969 Q468.0625,417.1875 468.4688,416.8281 Q468.7344,416.625 468.875,416.5625 Q469.0156,416.5 469.1875,416.5 Q469.5156,416.5 469.75,416.7656 Q470,417.0156 470,417.375 Q470,417.7188 469.6563,418.125 Q469.1563,418.7188 468.3594,419.0469 Q467.3125,419.5 466.0313,419.5 Q464.5313,419.5 463.3281,418.9063 Q462.3594,418.4375 461.6719,417.4219 Q461,416.4063 461,415.2031 L461,414.1094 Q461,412.8594 461.5938,411.7656 Q462.2031,410.6719 463.25,410.0938 Q464.3125,409.5 465.5,409.5 Q466.2188,409.5 466.8438,409.75 Q467.4688,410 468,410.5 Z " fill="#000000"/><text fill="#000000" font-family="sans-serif" font-size="12" lengthAdjust="spacing" textLength="55" x="480" y="418.9102">Horizontal</text><line style="stroke:#A80036;stroke-width:1.5;" x1="452" x2="537" y1="430" y2="430"/><line style="stroke:#A80036;stroke-width:1.5;" x1="452" x2="537" y1="438" y2="438"/><!--MD5=[9ddfc9bd1e3a4b04466623ab197feef8]
class Vertical--><rect codeLine="15" fill="#FEFECE" filter="url(#f18tskkulq921b)" height="48" id="Vertical" style="stroke:#A80036;stroke-width:1.5;" width="72" x="226.5" y="398"/><ellipse cx="241.5" cy="414" fill="#ADD1B2" rx="11" ry="11" style="stroke:#A80036;stroke-width:1.0;"/><path d="M243.5,410.5 Q243.7031,410 243.9375,409.75 Q244.1719,409.5 244.4375,409.5 Q244.9063,409.5 245.2031,409.7813 Q245.5,410.0625 245.5,410.7188 L245.5,412.2813 Q245.5,412.9375 245.2188,413.2188 Q244.9375,413.5 244.5,413.5 Q244.1094,413.5 243.8594,413.3281 Q243.6094,413.1563 243.5,412.7031 Q243.4531,412.3906 243.2813,412.2188 Q242.9688,411.8906 242.4063,411.7031 Q241.8438,411.5 241.2813,411.5 Q240.5781,411.5 239.9844,411.7813 Q239.4063,412.0625 238.9531,412.6875 Q238.5,413.3125 238.5,414.1719 L238.5,415.0938 Q238.5,416.125 239.3438,416.8125 Q240.1875,417.5 241.6875,417.5 Q242.5781,417.5 243.2031,417.2969 Q243.5625,417.1875 243.9688,416.8281 Q244.2344,416.625 244.375,416.5625 Q244.5156,416.5 244.6875,416.5 Q245.0156,416.5 245.25,416.7656 Q245.5,417.0156 245.5,417.375 Q245.5,417.7188 245.1563,418.125 Q244.6563,418.7188 243.8594,419.0469 Q242.8125,419.5 241.5313,419.5 Q240.0313,419.5 238.8281,418.9063 Q237.8594,418.4375 237.1719,417.4219 Q236.5,416.4063 236.5,415.2031 L236.5,414.1094 Q236.5,412.8594 237.0938,411.7656 Q237.7031,410.6719 238.75,410.0938 Q239.8125,409.5 241,409.5 Q241.7188,409.5 242.3438,409.75 Q242.9688,410 243.5,410.5 Z " fill="#000000"/><text fill="#000000" font-family="sans-serif" font-size="12" lengthAdjust="spacing" textLength="40" x="255.5" y="418.9102">Vertical</text><line style="stroke:#A80036;stroke-width:1.5;" x1="227.5" x2="297.5" y1="430" y2="430"/><line style="stroke:#A80036;stroke-width:1.5;" x1="227.5" x2="297.5" y1="438" y2="438"/><!--MD5=[90c81c5abb68fc1cf50baa0b36284b44]
class Insert--><rect codeLine="16" fill="#FEFECE" filter="url(#f18tskkulq921b)" height="48" id="Insert" style="stroke:#A80036;stroke-width:1.5;" width="63" x="573" y="398"/><ellipse cx="588" cy="414" fill="#ADD1B2" rx="11" ry="11" style="stroke:#A80036;stroke-width:1.0;"/><path d="M590,410.5 Q590.2031,410 590.4375,409.75 Q590.6719,409.5 590.9375,409.5 Q591.4063,409.5 591.7031,409.7813 Q592,410.0625 592,410.7188 L592,412.2813 Q592,412.9375 591.7188,413.2188 Q591.4375,413.5 591,413.5 Q590.6094,413.5 590.3594,413.3281 Q590.1094,413.1563 590,412.7031 Q589.9531,412.3906 589.7813,412.2188 Q589.4688,411.8906 588.9063,411.7031 Q588.3438,411.5 587.7813,411.5 Q587.0781,411.5 586.4844,411.7813 Q585.9063,412.0625 585.4531,412.6875 Q585,413.3125 585,414.1719 L585,415.0938 Q585,416.125 585.8438,416.8125 Q586.6875,417.5 588.1875,417.5 Q589.0781,417.5 589.7031,417.2969 Q590.0625,417.1875 590.4688,416.8281 Q590.7344,416.625 590.875,416.5625 Q591.0156,416.5 591.1875,416.5 Q591.5156,416.5 591.75,416.7656 Q592,417.0156 592,417.375 Q592,417.7188 591.6563,418.125 Q591.1563,418.7188 590.3594,419.0469 Q589.3125,419.5 588.0313,419.5 Q586.5313,419.5 585.3281,418.9063 Q584.3594,418.4375 583.6719,417.4219 Q583,416.4063 583,415.2031 L583,414.1094 Q583,412.8594 583.5938,411.7656 Q584.2031,410.6719 585.25,410.0938 Q586.3125,409.5 587.5,409.5 Q588.2188,409.5 588.8438,409.75 Q589.4688,410 590,410.5 Z " fill="#000000"/><text fill="#000000" font-family="sans-serif" font-size="12" lengthAdjust="spacing" textLength="31" x="602" y="418.9102">Insert</text><line style="stroke:#A80036;stroke-width:1.5;" x1="574" x2="635" y1="430" y2="430"/><line style="stroke:#A80036;stroke-width:1.5;" x1="574" x2="635" y1="438" y2="438"/><!--MD5=[a135607b44036ad87f368405615013d9]
class Diagonal--><rect codeLine="17" fill="#FEFECE" filter="url(#f18tskkulq921b)" height="48" id="Diagonal" style="stroke:#A80036;stroke-width:1.5;" width="82" x="333.5" y="398"/><ellipse cx="348.5" cy="414" fill="#ADD1B2" rx="11" ry="11" style="stroke:#A80036;stroke-width:1.0;"/><path d="M350.5,410.5 Q350.7031,410 350.9375,409.75 Q351.1719,409.5 351.4375,409.5 Q351.9063,409.5 352.2031,409.7813 Q352.5,410.0625 352.5,410.7188 L352.5,412.2813 Q352.5,412.9375 352.2188,413.2188 Q351.9375,413.5 351.5,413.5 Q351.1094,413.5 350.8594,413.3281 Q350.6094,413.1563 350.5,412.7031 Q350.4531,412.3906 350.2813,412.2188 Q349.9688,411.8906 349.4063,411.7031 Q348.8438,411.5 348.2813,411.5 Q347.5781,411.5 346.9844,411.7813 Q346.4063,412.0625 345.9531,412.6875 Q345.5,413.3125 345.5,414.1719 L345.5,415.0938 Q345.5,416.125 346.3438,416.8125 Q347.1875,417.5 348.6875,417.5 Q349.5781,417.5 350.2031,417.2969 Q350.5625,417.1875 350.9688,416.8281 Q351.2344,416.625 351.375,416.5625 Q351.5156,416.5 351.6875,416.5 Q352.0156,416.5 352.25,416.7656 Q352.5,417.0156 352.5,417.375 Q352.5,417.7188 352.1563,418.125 Q351.6563,418.7188 350.8594,419.0469 Q349.8125,419.5 348.5313,419.5 Q347.0313,419.5 345.8281,418.9063 Q344.8594,418.4375 344.1719,417.4219 Q343.5,416.4063 343.5,415.2031 L343.5,414.1094 Q343.5,412.8594 344.0938,411.7656 Q344.7031,410.6719 345.75,410.0938 Q346.8125,409.5 348,409.5 Q348.7188,409.5 349.3438,409.75 Q349.9688,410 350.5,410.5 Z " fill="#000000"/><text fill="#000000" font-family="sans-serif" font-size="12" lengthAdjust="spacing" textLength="50" x="362.5" y="418.9102">Diagonal</text><line style="stroke:#A80036;stroke-width:1.5;" x1="334.5" x2="414.5" y1="430" y2="430"/><line style="stroke:#A80036;stroke-width:1.5;" x1="334.5" x2="414.5" y1="438" y2="438"/><!--MD5=[5426a1d26e36fcd61d30da6b8a6545ec]
link Connect4 to Board--><path codeLine="19" d="M544.378,46.1995 C544.378,46.1995 249.53,130.6 84.22,207.49 " fill="none" id="Connect4-Board" style="stroke:#A80036;stroke-width:1.0;"/><polygon fill="#A80036" points="72.37,213.05,82.2167,212.8446,76.8957,210.9245,78.8158,205.6034,72.37,213.05" style="stroke:#A80036;stroke-width:1.0;"/><line style="stroke:#A80036;stroke-width:1.0;" x1="76.8957" x2="84.135" y1="210.9245" y2="207.52"/><polygon fill="#A80036" points="555.96,43.06,549.1225,40.7691,544.378,46.1995,551.2155,48.4904,555.96,43.06" style="stroke:#A80036;stroke-width:1.0;"/><!--MD5=[579251eb996296fcc840b5133338601c]
link Connect4 to Disc--><path codeLine="20" d="M652.9665,44.3221 C652.9665,44.3221 781.5,93.65 781.5,156 C781.5,156 781.5,156 781.5,549 C781.5,634.85 474.89,651.84 361.23,655.18 " fill="none" id="Connect4-Disc" style="stroke:#A80036;stroke-width:1.0;"/><polygon fill="#A80036" points="348.05,655.53,357.1523,659.2913,353.0483,655.3982,356.9414,651.2941,348.05,655.53" style="stroke:#A80036;stroke-width:1.0;"/><line style="stroke:#A80036;stroke-width:1.0;" x1="353.0483" x2="361.05" y1="655.3982" y2="655.19"/><polygon fill="#A80036" points="641.41,41.09,646.1109,46.5582,652.9665,44.3221,648.2656,38.8539,641.41,41.09" style="stroke:#A80036;stroke-width:1.0;"/><text fill="#000000" font-family="sans-serif" font-size="13" lengthAdjust="spacing" textLength="14" x="355.8266" y="650.992">42</text><!--MD5=[46750473935a00282743b47f522de7be]
link Connect4 to Player--><path codeLine="21" d="M568.04,55.03 C540.05,76.19 498.59,107.54 469.31,129.68 " fill="none" id="Connect4-to-Player" style="stroke:#A80036;stroke-width:1.0;"/><polygon fill="#A80036" points="465.08,132.88,474.6711,130.6416,469.068,129.864,469.8455,124.2609,465.08,132.88" style="stroke:#A80036;stroke-width:1.0;"/><text fill="#000000" font-family="sans-serif" font-size="13" lengthAdjust="spacing" textLength="56" x="526.5" y="99.4951">isUsedBy</text><text fill="#000000" font-family="sans-serif" font-size="13" lengthAdjust="spacing" textLength="7" x="465.0193" y="122.1894">2</text><!--MD5=[6824fd9902778444ee49992acd2ffe7e]
link Connect4 to Turn--><path codeLine="22" d="M607.5389,66.7841 C607.5389,66.7841 671.05,311.43 690.23,385.31 " fill="none" id="Connect4-Turn" style="stroke:#A80036;stroke-width:1.0;"/><polygon fill="#A80036" points="693.52,397.95,695.1375,388.2349,692.2673,393.1095,687.3927,390.2392,693.52,397.95" style="stroke:#A80036;stroke-width:1.0;"/><line style="stroke:#A80036;stroke-width:1.0;" x1="692.2673" x2="690.245" y1="393.1095" y2="385.37"/><polygon fill="#A80036" points="604.52,55.17,602.1581,61.9833,607.5389,66.7841,609.9008,59.9707,604.52,55.17" style="stroke:#A80036;stroke-width:1.0;"/><!--MD5=[e3b5fc2356acc5d6a62d47df0c152b39]
link Player to Disc--><path codeLine="24" d="M401.43,180.13 C348.73,217.63 247.65,299.32 208.5,398 C200.63,417.83 200.6,426.18 208.5,446 C226.2,490.38 258.91,482.44 282.5,524 C301.19,556.93 310.94,599.91 315.64,627.73 " fill="none" id="Player-to-Disc" style="stroke:#A80036;stroke-width:1.0;"/><polygon fill="#A80036" points="316.46,632.75,318.9394,623.2183,315.645,627.8169,311.0464,624.5224,316.46,632.75" style="stroke:#A80036;stroke-width:1.0;"/><text fill="#000000" font-family="sans-serif" font-size="13" lengthAdjust="spacing" textLength="14" x="299.8873" y="622.0261">21</text><!--MD5=[ebf52a6f230ff8b0d594dd9ce4cd7c5b]
link Player to Color--><path codeLine="25" d="M389.4599,158.838 C389.4599,158.838 102.5,187.5 102.5,312 C102.5,312 102.5,312 102.5,658 C102.5,682.03 107.43,708.58 112.4,729.23 " fill="none" id="Player-Color" style="stroke:#A80036;stroke-width:1.0;"/><polygon fill="#A80036" points="115.62,741.86,117.2712,732.1505,114.3841,737.0152,109.5195,734.128,115.62,741.86" style="stroke:#A80036;stroke-width:1.0;"/><line style="stroke:#A80036;stroke-width:1.0;" x1="114.3841" x2="112.41" y1="737.0152" y2="729.255"/><polygon fill="#A80036" points="401.45,158.35,395.2923,154.5973,389.4599,158.838,395.6176,162.5907,401.45,158.35" style="stroke:#A80036;stroke-width:1.0;"/><!--MD5=[2809e98817c5cee3490d4f47bc742af6]
link Player to Turn--><path codeLine="26" d="M458.02,181.34 C507.13,230.08 620.32,342.42 672.39,394.1 " fill="none" id="Player-to-Turn" style="stroke:#A80036;stroke-width:1.0;stroke-dasharray:7.0,7.0;"/><polygon fill="#A80036" points="676.04,397.71,672.4859,388.5248,672.4973,394.1816,666.8405,394.193,676.04,397.71" style="stroke:#A80036;stroke-width:1.0;"/><!--MD5=[7ef30cdaf439ccd41b0367d03da90c53]
link Disc to Color--><path codeLine="27" d="M280.3052,679.2877 C280.3052,679.2877 199.32,723.28 165.58,741.6 " fill="none" id="Disc-Color" style="stroke:#A80036;stroke-width:1.0;"/><polygon fill="#A80036" points="153.78,748.01,163.5983,747.2343,158.1749,745.6258,159.7835,740.2024,153.78,748.01" style="stroke:#A80036;stroke-width:1.0;"/><line style="stroke:#A80036;stroke-width:1.0;" x1="158.1749" x2="165.21" y1="745.6258" y2="741.8"/><polygon fill="#A80036" points="290.85,673.56,283.6683,672.9089,280.3052,679.2877,287.4868,679.9388,290.85,673.56" style="stroke:#A80036;stroke-width:1.0;"/><!--MD5=[6083f140c68c81feb5a8fefe89deab0b]
reverse link Color to Yellow--><path codeLine="28" d="M103.83,808.62 C97.4,822.96 90.43,838.5 84.89,850.83 " fill="none" id="Color-backto-Yellow" style="stroke:#A80036;stroke-width:1.0;"/><polygon fill="none" points="97.51,805.6,112.08,790.22,110.29,811.33,97.51,805.6" style="stroke:#A80036;stroke-width:1.0;"/><!--MD5=[fab54b5999e935266d298ad54749f91a]
reverse link Color to Red--><path codeLine="29" d="M141.56,808.62 C148.12,822.96 155.24,838.5 160.89,850.83 " fill="none" id="Color-backto-Red" style="stroke:#A80036;stroke-width:1.0;"/><polygon fill="none" points="135.1,811.32,133.13,790.22,147.82,805.49,135.1,811.32" style="stroke:#A80036;stroke-width:1.0;"/><!--MD5=[1571e4e0b7cdbae74b04c97a95677c54]
link Player to Goal--><path codeLine="30" d="M434.5,181.06 C434.5,208.39 434.5,253.94 434.5,283.47 " fill="none" id="Player-to-Goal" style="stroke:#A80036;stroke-width:1.0;"/><polygon fill="#A80036" points="434.5,288.79,438.5,279.79,434.5,283.79,430.5,279.79,434.5,288.79" style="stroke:#A80036;stroke-width:1.0;"/><!--MD5=[9c078bc154f9dba995e32f4ec3d43872]
reverse link Goal to Horizontal--><path codeLine="31" d="M457.56,355.13 C465.68,369.6 474.51,385.36 481.51,397.83 " fill="none" id="Goal-backto-Horizontal" style="stroke:#A80036;stroke-width:1.0;"/><polygon fill="none" points="451.2,358.09,447.52,337.22,463.41,351.24,451.2,358.09" style="stroke:#A80036;stroke-width:1.0;"/><!--MD5=[3e26d6834a71a9527f7b0beabb13c375]
reverse link Goal to Vertical--><path codeLine="32" d="M388.08,342.88 C360,360.35 324.71,382.3 298.7,398.48 " fill="none" id="Goal-backto-Vertical" style="stroke:#A80036;stroke-width:1.0;"/><polygon fill="none" points="384.64,336.77,405.32,332.15,392.04,348.66,384.64,336.77" style="stroke:#A80036;stroke-width:1.0;"/><!--MD5=[5a16bdf27515cf253385e973d6fbc781]
reverse link Goal to Diagonal--><path codeLine="33" d="M411.44,355.13 C403.32,369.6 394.49,385.36 387.49,397.83 " fill="none" id="Goal-backto-Diagonal" style="stroke:#A80036;stroke-width:1.0;"/><polygon fill="none" points="405.59,351.24,421.48,337.22,417.8,358.09,405.59,351.24" style="stroke:#A80036;stroke-width:1.0;"/><!--MD5=[dedaf8e9d94fd584b64552bee4f3e762]
link Goal to Insert--><path codeLine="34" d="M463.72,332.39 C489,348.3 526.06,371.63 555.81,390.35 " fill="none" id="Goal-to-Insert" style="stroke:#A80036;stroke-width:1.0;stroke-dasharray:7.0,7.0;"/><polygon fill="none" points="559.58,384.45,572.77,401.03,552.12,396.3,559.58,384.45" style="stroke:#A80036;stroke-width:1.0;"/><text fill="#000000" font-family="sans-serif" font-size="13" lengthAdjust="spacing" textLength="29" x="535.901" y="390.5924">4..21</text><!--MD5=[0c52eed53222bacdef336b68f81a680d]
link Insert to HollowSquare--><path codeLine="35" d="M572.91,438.69 C567.18,441.29 561.21,443.84 555.5,446 C503.14,465.82 354.7,507.47 270.58,530.62 " fill="none" id="Insert-to-HollowSquare" style="stroke:#A80036;stroke-width:1.0;stroke-dasharray:7.0,7.0;"/><polygon fill="#A80036" points="265.63,531.98,275.3687,533.4491,270.4508,530.6536,273.2464,525.7357,265.63,531.98" style="stroke:#A80036;stroke-width:1.0;"/><text fill="#000000" font-family="sans-serif" font-size="13" lengthAdjust="spacing" textLength="33" x="457.5" y="490.4951">target</text><!--MD5=[8617116f93b6790d8d4459bac10031f5]
link Insert to Disc--><path codeLine="36" d="M576.13,446.19 C522.78,489.81 407.84,583.77 351.69,629.68 " fill="none" id="Insert-to-Disc" style="stroke:#A80036;stroke-width:1.0;stroke-dasharray:7.0,7.0;"/><polygon fill="#A80036" points="347.75,632.9,357.2527,630.312,351.6249,629.74,352.1968,624.1122,347.75,632.9" style="stroke:#A80036;stroke-width:1.0;"/><text fill="#000000" font-family="sans-serif" font-size="13" lengthAdjust="spacing" textLength="28" x="481.5" y="553.4951">uses</text><!--MD5=[976e7c7f7b0de550685fc4e9208efff5]
link Insert to Turn--><path codeLine="37" d="M649.06,422 C651.88,422 658.75,422 658.75,422 " fill="none" id="Insert-Turn" style="stroke:#A80036;stroke-width:1.0;"/><polygon fill="#A80036" points="670.75,422,664.75,418,658.75,422,664.75,426,670.75,422" style="stroke:#A80036;stroke-width:1.0;"/><polygon fill="#A80036" points="636.04,422,645.04,426,641.04,422,645.04,418,636.04,422" style="stroke:#A80036;stroke-width:1.0;"/><line style="stroke:#A80036;stroke-width:1.0;" x1="641.04" x2="649.04" y1="422" y2="422"/><!--MD5=[ea9b7602a5cd54f752eaa97b35faeba6]
link Board to HollowSquare--><path codeLine="39" d="M45.6604,271.1335 C45.6604,271.1335 61.38,337.32 76.5,368 C104.03,423.85 149.67,479.99 179.92,514.13 " fill="none" id="Board-HollowSquare" style="stroke:#A80036;stroke-width:1.0;"/><polygon fill="#A80036" points="188.77,523.99,185.7324,514.6213,185.4291,520.27,179.7804,519.9667,188.77,523.99" style="stroke:#A80036;stroke-width:1.0;"/><line style="stroke:#A80036;stroke-width:1.0;" x1="185.4291" x2="180.085" y1="520.27" y2="514.32"/><polygon fill="#A80036" points="43.34,259.36,40.5757,266.0202,45.6604,271.1335,48.4247,264.4733,43.34,259.36" style="stroke:#A80036;stroke-width:1.0;"/><text fill="#000000" font-family="sans-serif" font-size="13" lengthAdjust="spacing" textLength="21" x="159.5111" y="513.3276">6x7</text><!--MD5=[de218e62d27cf2f970ae235e083308c6]
link HollowSquare to Disc--><path codeLine="40" d="M242.7075,580.6325 C242.7075,580.6325 272.89,610.25 286.45,623.56 " fill="none" id="HollowSquare-Disc" style="stroke:#A80036;stroke-width:1.0;stroke-dasharray:7.0,7.0;"/><polygon fill="#A80036" points="295.89,632.83,292.269,623.6709,292.3217,629.3276,286.6651,629.3803,295.89,632.83" style="stroke:#A80036;stroke-width:1.0;"/><line style="stroke:#A80036;stroke-width:1.0;" x1="292.3217" x2="286.62" y1="629.3276" y2="623.72"/><polygon fill="#FFFFFF" points="234.15,572.22,235.6246,579.2787,242.7075,580.6325,241.2329,573.5737,234.15,572.22" style="stroke:#A80036;stroke-width:1.0;"/><text fill="#000000" font-family="sans-serif" font-size="13" lengthAdjust="spacing" textLength="22" x="265.0212" y="622.1266">0..1</text><!--MD5=[4727458809999ac9aabf1716cb488159]
link HollowSquare to Coordinate--><path codeLine="41" d="M210.1613,584.2194 C210.1613,584.2194 209.94,608.5 209.84,619.56 " fill="none" id="HollowSquare-Coordinate" style="stroke:#A80036;stroke-width:1.0;"/><polygon fill="#A80036" points="209.72,632.83,213.799,623.8655,209.764,627.8302,205.7993,623.7952,209.72,632.83" style="stroke:#A80036;stroke-width:1.0;"/><line style="stroke:#A80036;stroke-width:1.0;" x1="209.764" x2="209.84" y1="627.8302" y2="619.83"/><polygon fill="#A80036" points="210.28,572.22,206.2209,578.1801,210.1613,584.2194,214.2205,578.2593,210.28,572.22" style="stroke:#A80036;stroke-width:1.0;"/><!--MD5=[03e3f7328885102d2792b15bcccccc63]
@startuml
'https://plantuml.com/class-diagram

class Connect4
class Board
class Goal
class Disc
class Player
class HollowSquare
class Coordinate
class Color
class Yellow
class Red
class Turn
class Horizontal
class Vertical
class Insert
class Diagonal

Connect4 *- -> Board
Connect4 *- -> "42" Disc
Connect4 - -> "2" Player: isUsedBy
Connect4 *- -> Turn

Player - -> "21" Disc
Player *- -> Color
Player ..> Turn
Disc *- -> Color
Color <|- - Yellow
Color <|- - Red
Player - -> Goal
Goal <|- - Horizontal
Goal <|- - Vertical
Goal <|- - Diagonal
Goal ..|> "4..21" Insert
Insert ..> HollowSquare: target
Insert ..> Disc: uses
Turn *-left-> Insert

Board *- -> "6x7" HollowSquare
HollowSquare o..> "0..1" Disc
HollowSquare *- -> Coordinate




@enduml

@startuml

class Connect4
class Board
class Goal
class Disc
class Player
class HollowSquare
class Coordinate
class Color
class Yellow
class Red
class Turn
class Horizontal
class Vertical
class Insert
class Diagonal

Connect4 *- -> Board
Connect4 *- -> "42" Disc
Connect4 - -> "2" Player: isUsedBy
Connect4 *- -> Turn

Player - -> "21" Disc
Player *- -> Color
Player ..> Turn
Disc *- -> Color
Color <|- - Yellow
Color <|- - Red
Player - -> Goal
Goal <|- - Horizontal
Goal <|- - Vertical
Goal <|- - Diagonal
Goal ..|> "4..21" Insert
Insert ..> HollowSquare: target
Insert ..> Disc: uses
Turn *-left-> Insert

Board *- -> "6x7" HollowSquare
HollowSquare o..> "0..1" Disc
HollowSquare *- -> Coordinate




@enduml

PlantUML version 1.2022.0(Tue Jan 11 17:16:42 CET 2022)
(GPL source distribution)
Java Runtime: OpenJDK Runtime Environment
JVM: OpenJDK 64-Bit Server VM
Default Encoding: Cp1252
Language: es
Country: ES
--></g></svg>