<?xml version="1.0" encoding="UTF-8" standalone="no"?><svg xmlns="http://www.w3.org/2000/svg" xmlns:xlink="http://www.w3.org/1999/xlink" contentScriptType="application/ecmascript" contentStyleType="text/css" height="825px" preserveAspectRatio="none" style="width:620px;height:825px;background:#FFFFFF;" version="1.1" viewBox="0 0 620 825" width="620px" zoomAndPan="magnify"><defs><filter height="300%" id="f1atel3smywfqb" width="300%" x="-1" y="-1"><feGaussianBlur result="blurOut" stdDeviation="2.0"/><feColorMatrix in="blurOut" result="blurOut2" type="matrix" values="0 0 0 0 0 0 0 0 0 0 0 0 0 0 0 0 0 0 .4 0"/><feOffset dx="4.0" dy="4.0" in="blurOut2" result="blurOut3"/><feBlend in="SourceGraphic" in2="blurOut3" mode="normal"/></filter></defs><g><!--MD5=[10b1f240992e2c34b6908209bf85bfd2]
class Connect4--><rect codeLine="3" fill="#FEFECE" filter="url(#f1atel3smywfqb)" height="48" id="Connect4" style="stroke:#A80036;stroke-width:1.5;" width="85" x="326.5" y="7"/><ellipse cx="341.5" cy="23" fill="#ADD1B2" rx="11" ry="11" style="stroke:#A80036;stroke-width:1.0;"/><path d="M343.5,19.5 Q343.7031,19 343.9375,18.75 Q344.1719,18.5 344.4375,18.5 Q344.9063,18.5 345.2031,18.7813 Q345.5,19.0625 345.5,19.7188 L345.5,21.2813 Q345.5,21.9375 345.2188,22.2188 Q344.9375,22.5 344.5,22.5 Q344.1094,22.5 343.8594,22.3281 Q343.6094,22.1563 343.5,21.7031 Q343.4531,21.3906 343.2813,21.2188 Q342.9688,20.8906 342.4063,20.7031 Q341.8438,20.5 341.2813,20.5 Q340.5781,20.5 339.9844,20.7813 Q339.4063,21.0625 338.9531,21.6875 Q338.5,22.3125 338.5,23.1719 L338.5,24.0938 Q338.5,25.125 339.3438,25.8125 Q340.1875,26.5 341.6875,26.5 Q342.5781,26.5 343.2031,26.2969 Q343.5625,26.1875 343.9688,25.8281 Q344.2344,25.625 344.375,25.5625 Q344.5156,25.5 344.6875,25.5 Q345.0156,25.5 345.25,25.7656 Q345.5,26.0156 345.5,26.375 Q345.5,26.7188 345.1563,27.125 Q344.6563,27.7188 343.8594,28.0469 Q342.8125,28.5 341.5313,28.5 Q340.0313,28.5 338.8281,27.9063 Q337.8594,27.4375 337.1719,26.4219 Q336.5,25.4063 336.5,24.2031 L336.5,23.1094 Q336.5,21.8594 337.0938,20.7656 Q337.7031,19.6719 338.75,19.0938 Q339.8125,18.5 341,18.5 Q341.7188,18.5 342.3438,18.75 Q342.9688,19 343.5,19.5 Z " fill="#000000"/><text fill="#000000" font-family="sans-serif" font-size="12" lengthAdjust="spacing" textLength="53" x="355.5" y="27.9102">Connect4</text><line style="stroke:#A80036;stroke-width:1.5;" x1="327.5" x2="410.5" y1="39" y2="39"/><line style="stroke:#A80036;stroke-width:1.5;" x1="327.5" x2="410.5" y1="47" y2="47"/><!--MD5=[2cb47ba637a0d19583e6199456f6ad0b]
class Player--><rect codeLine="4" fill="#FEFECE" filter="url(#f1atel3smywfqb)" height="48" id="Player" style="stroke:#A80036;stroke-width:1.5;" width="66" x="192" y="115"/><ellipse cx="207" cy="131" fill="#ADD1B2" rx="11" ry="11" style="stroke:#A80036;stroke-width:1.0;"/><path d="M209,127.5 Q209.2031,127 209.4375,126.75 Q209.6719,126.5 209.9375,126.5 Q210.4063,126.5 210.7031,126.7813 Q211,127.0625 211,127.7188 L211,129.2813 Q211,129.9375 210.7188,130.2188 Q210.4375,130.5 210,130.5 Q209.6094,130.5 209.3594,130.3281 Q209.1094,130.1563 209,129.7031 Q208.9531,129.3906 208.7813,129.2188 Q208.4688,128.8906 207.9063,128.7031 Q207.3438,128.5 206.7813,128.5 Q206.0781,128.5 205.4844,128.7813 Q204.9063,129.0625 204.4531,129.6875 Q204,130.3125 204,131.1719 L204,132.0938 Q204,133.125 204.8438,133.8125 Q205.6875,134.5 207.1875,134.5 Q208.0781,134.5 208.7031,134.2969 Q209.0625,134.1875 209.4688,133.8281 Q209.7344,133.625 209.875,133.5625 Q210.0156,133.5 210.1875,133.5 Q210.5156,133.5 210.75,133.7656 Q211,134.0156 211,134.375 Q211,134.7188 210.6563,135.125 Q210.1563,135.7188 209.3594,136.0469 Q208.3125,136.5 207.0313,136.5 Q205.5313,136.5 204.3281,135.9063 Q203.3594,135.4375 202.6719,134.4219 Q202,133.4063 202,132.2031 L202,131.1094 Q202,129.8594 202.5938,128.7656 Q203.2031,127.6719 204.25,127.0938 Q205.3125,126.5 206.5,126.5 Q207.2188,126.5 207.8438,126.75 Q208.4688,127 209,127.5 Z " fill="#000000"/><text fill="#000000" font-family="sans-serif" font-size="12" lengthAdjust="spacing" textLength="34" x="221" y="135.9102">Player</text><line style="stroke:#A80036;stroke-width:1.5;" x1="193" x2="257" y1="147" y2="147"/><line style="stroke:#A80036;stroke-width:1.5;" x1="193" x2="257" y1="155" y2="155"/><!--MD5=[9563755d011c5cec7ec66dc53565a59e]
class Board--><rect codeLine="5" fill="#FEFECE" filter="url(#f1atel3smywfqb)" height="48" id="Board" style="stroke:#A80036;stroke-width:1.5;" width="65" x="499.5" y="223"/><ellipse cx="514.5" cy="239" fill="#ADD1B2" rx="11" ry="11" style="stroke:#A80036;stroke-width:1.0;"/><path d="M516.5,235.5 Q516.7031,235 516.9375,234.75 Q517.1719,234.5 517.4375,234.5 Q517.9063,234.5 518.2031,234.7813 Q518.5,235.0625 518.5,235.7188 L518.5,237.2813 Q518.5,237.9375 518.2188,238.2188 Q517.9375,238.5 517.5,238.5 Q517.1094,238.5 516.8594,238.3281 Q516.6094,238.1563 516.5,237.7031 Q516.4531,237.3906 516.2813,237.2188 Q515.9688,236.8906 515.4063,236.7031 Q514.8438,236.5 514.2813,236.5 Q513.5781,236.5 512.9844,236.7813 Q512.4063,237.0625 511.9531,237.6875 Q511.5,238.3125 511.5,239.1719 L511.5,240.0938 Q511.5,241.125 512.3438,241.8125 Q513.1875,242.5 514.6875,242.5 Q515.5781,242.5 516.2031,242.2969 Q516.5625,242.1875 516.9688,241.8281 Q517.2344,241.625 517.375,241.5625 Q517.5156,241.5 517.6875,241.5 Q518.0156,241.5 518.25,241.7656 Q518.5,242.0156 518.5,242.375 Q518.5,242.7188 518.1563,243.125 Q517.6563,243.7188 516.8594,244.0469 Q515.8125,244.5 514.5313,244.5 Q513.0313,244.5 511.8281,243.9063 Q510.8594,243.4375 510.1719,242.4219 Q509.5,241.4063 509.5,240.2031 L509.5,239.1094 Q509.5,237.8594 510.0938,236.7656 Q510.7031,235.6719 511.75,235.0938 Q512.8125,234.5 514,234.5 Q514.7188,234.5 515.3438,234.75 Q515.9688,235 516.5,235.5 Z " fill="#000000"/><text fill="#000000" font-family="sans-serif" font-size="12" lengthAdjust="spacing" textLength="33" x="528.5" y="243.9102">Board</text><line style="stroke:#A80036;stroke-width:1.5;" x1="500.5" x2="563.5" y1="255" y2="255"/><line style="stroke:#A80036;stroke-width:1.5;" x1="500.5" x2="563.5" y1="263" y2="263"/><!--MD5=[dd91eae41778c45e12552e5329e240e8]
class Turn--><rect codeLine="6" fill="#FEFECE" filter="url(#f1atel3smywfqb)" height="48" id="Turn" style="stroke:#A80036;stroke-width:1.5;" width="57" x="422.5" y="115"/><ellipse cx="437.5" cy="131" fill="#ADD1B2" rx="11" ry="11" style="stroke:#A80036;stroke-width:1.0;"/><path d="M439.5,127.5 Q439.7031,127 439.9375,126.75 Q440.1719,126.5 440.4375,126.5 Q440.9063,126.5 441.2031,126.7813 Q441.5,127.0625 441.5,127.7188 L441.5,129.2813 Q441.5,129.9375 441.2188,130.2188 Q440.9375,130.5 440.5,130.5 Q440.1094,130.5 439.8594,130.3281 Q439.6094,130.1563 439.5,129.7031 Q439.4531,129.3906 439.2813,129.2188 Q438.9688,128.8906 438.4063,128.7031 Q437.8438,128.5 437.2813,128.5 Q436.5781,128.5 435.9844,128.7813 Q435.4063,129.0625 434.9531,129.6875 Q434.5,130.3125 434.5,131.1719 L434.5,132.0938 Q434.5,133.125 435.3438,133.8125 Q436.1875,134.5 437.6875,134.5 Q438.5781,134.5 439.2031,134.2969 Q439.5625,134.1875 439.9688,133.8281 Q440.2344,133.625 440.375,133.5625 Q440.5156,133.5 440.6875,133.5 Q441.0156,133.5 441.25,133.7656 Q441.5,134.0156 441.5,134.375 Q441.5,134.7188 441.1563,135.125 Q440.6563,135.7188 439.8594,136.0469 Q438.8125,136.5 437.5313,136.5 Q436.0313,136.5 434.8281,135.9063 Q433.8594,135.4375 433.1719,134.4219 Q432.5,133.4063 432.5,132.2031 L432.5,131.1094 Q432.5,129.8594 433.0938,128.7656 Q433.7031,127.6719 434.75,127.0938 Q435.8125,126.5 437,126.5 Q437.7188,126.5 438.3438,126.75 Q438.9688,127 439.5,127.5 Z " fill="#000000"/><text fill="#000000" font-family="sans-serif" font-size="12" lengthAdjust="spacing" textLength="25" x="451.5" y="135.9102">Turn</text><line style="stroke:#A80036;stroke-width:1.5;" x1="423.5" x2="478.5" y1="147" y2="147"/><line style="stroke:#A80036;stroke-width:1.5;" x1="423.5" x2="478.5" y1="155" y2="155"/><!--MD5=[0992d3fdc9d3d7c02b735131bb70871d]
class Goal--><rect codeLine="15" fill="#FEFECE" filter="url(#f1atel3smywfqb)" height="48" id="Goal" style="stroke:#A80036;stroke-width:1.5;" width="58" x="302" y="223"/><ellipse cx="317" cy="239" fill="#ADD1B2" rx="11" ry="11" style="stroke:#A80036;stroke-width:1.0;"/><path d="M319,235.5 Q319.2031,235 319.4375,234.75 Q319.6719,234.5 319.9375,234.5 Q320.4063,234.5 320.7031,234.7813 Q321,235.0625 321,235.7188 L321,237.2813 Q321,237.9375 320.7188,238.2188 Q320.4375,238.5 320,238.5 Q319.6094,238.5 319.3594,238.3281 Q319.1094,238.1563 319,237.7031 Q318.9531,237.3906 318.7813,237.2188 Q318.4688,236.8906 317.9063,236.7031 Q317.3438,236.5 316.7813,236.5 Q316.0781,236.5 315.4844,236.7813 Q314.9063,237.0625 314.4531,237.6875 Q314,238.3125 314,239.1719 L314,240.0938 Q314,241.125 314.8438,241.8125 Q315.6875,242.5 317.1875,242.5 Q318.0781,242.5 318.7031,242.2969 Q319.0625,242.1875 319.4688,241.8281 Q319.7344,241.625 319.875,241.5625 Q320.0156,241.5 320.1875,241.5 Q320.5156,241.5 320.75,241.7656 Q321,242.0156 321,242.375 Q321,242.7188 320.6563,243.125 Q320.1563,243.7188 319.3594,244.0469 Q318.3125,244.5 317.0313,244.5 Q315.5313,244.5 314.3281,243.9063 Q313.3594,243.4375 312.6719,242.4219 Q312,241.4063 312,240.2031 L312,239.1094 Q312,237.8594 312.5938,236.7656 Q313.2031,235.6719 314.25,235.0938 Q315.3125,234.5 316.5,234.5 Q317.2188,234.5 317.8438,234.75 Q318.4688,235 319,235.5 Z " fill="#000000"/><text fill="#000000" font-family="sans-serif" font-size="12" lengthAdjust="spacing" textLength="26" x="331" y="243.9102">Goal</text><line style="stroke:#A80036;stroke-width:1.5;" x1="303" x2="359" y1="255" y2="255"/><line style="stroke:#A80036;stroke-width:1.5;" x1="303" x2="359" y1="263" y2="263"/><!--MD5=[2808de09be71fab9caf2df132bae0681]
class Horizontal--><rect codeLine="8" fill="#FEFECE" filter="url(#f1atel3smywfqb)" height="48" id="Horizontal" style="stroke:#A80036;stroke-width:1.5;" width="87" x="172.5" y="331"/><ellipse cx="187.5" cy="347" fill="#ADD1B2" rx="11" ry="11" style="stroke:#A80036;stroke-width:1.0;"/><path d="M189.5,343.5 Q189.7031,343 189.9375,342.75 Q190.1719,342.5 190.4375,342.5 Q190.9063,342.5 191.2031,342.7813 Q191.5,343.0625 191.5,343.7188 L191.5,345.2813 Q191.5,345.9375 191.2188,346.2188 Q190.9375,346.5 190.5,346.5 Q190.1094,346.5 189.8594,346.3281 Q189.6094,346.1563 189.5,345.7031 Q189.4531,345.3906 189.2813,345.2188 Q188.9688,344.8906 188.4063,344.7031 Q187.8438,344.5 187.2813,344.5 Q186.5781,344.5 185.9844,344.7813 Q185.4063,345.0625 184.9531,345.6875 Q184.5,346.3125 184.5,347.1719 L184.5,348.0938 Q184.5,349.125 185.3438,349.8125 Q186.1875,350.5 187.6875,350.5 Q188.5781,350.5 189.2031,350.2969 Q189.5625,350.1875 189.9688,349.8281 Q190.2344,349.625 190.375,349.5625 Q190.5156,349.5 190.6875,349.5 Q191.0156,349.5 191.25,349.7656 Q191.5,350.0156 191.5,350.375 Q191.5,350.7188 191.1563,351.125 Q190.6563,351.7188 189.8594,352.0469 Q188.8125,352.5 187.5313,352.5 Q186.0313,352.5 184.8281,351.9063 Q183.8594,351.4375 183.1719,350.4219 Q182.5,349.4063 182.5,348.2031 L182.5,347.1094 Q182.5,345.8594 183.0938,344.7656 Q183.7031,343.6719 184.75,343.0938 Q185.8125,342.5 187,342.5 Q187.7188,342.5 188.3438,342.75 Q188.9688,343 189.5,343.5 Z " fill="#000000"/><text fill="#000000" font-family="sans-serif" font-size="12" lengthAdjust="spacing" textLength="55" x="201.5" y="351.9102">Horizontal</text><line style="stroke:#A80036;stroke-width:1.5;" x1="173.5" x2="258.5" y1="363" y2="363"/><line style="stroke:#A80036;stroke-width:1.5;" x1="173.5" x2="258.5" y1="371" y2="371"/><!--MD5=[9ddfc9bd1e3a4b04466623ab197feef8]
class Vertical--><rect codeLine="9" fill="#FEFECE" filter="url(#f1atel3smywfqb)" height="48" id="Vertical" style="stroke:#A80036;stroke-width:1.5;" width="72" x="295" y="331"/><ellipse cx="310" cy="347" fill="#ADD1B2" rx="11" ry="11" style="stroke:#A80036;stroke-width:1.0;"/><path d="M312,343.5 Q312.2031,343 312.4375,342.75 Q312.6719,342.5 312.9375,342.5 Q313.4063,342.5 313.7031,342.7813 Q314,343.0625 314,343.7188 L314,345.2813 Q314,345.9375 313.7188,346.2188 Q313.4375,346.5 313,346.5 Q312.6094,346.5 312.3594,346.3281 Q312.1094,346.1563 312,345.7031 Q311.9531,345.3906 311.7813,345.2188 Q311.4688,344.8906 310.9063,344.7031 Q310.3438,344.5 309.7813,344.5 Q309.0781,344.5 308.4844,344.7813 Q307.9063,345.0625 307.4531,345.6875 Q307,346.3125 307,347.1719 L307,348.0938 Q307,349.125 307.8438,349.8125 Q308.6875,350.5 310.1875,350.5 Q311.0781,350.5 311.7031,350.2969 Q312.0625,350.1875 312.4688,349.8281 Q312.7344,349.625 312.875,349.5625 Q313.0156,349.5 313.1875,349.5 Q313.5156,349.5 313.75,349.7656 Q314,350.0156 314,350.375 Q314,350.7188 313.6563,351.125 Q313.1563,351.7188 312.3594,352.0469 Q311.3125,352.5 310.0313,352.5 Q308.5313,352.5 307.3281,351.9063 Q306.3594,351.4375 305.6719,350.4219 Q305,349.4063 305,348.2031 L305,347.1094 Q305,345.8594 305.5938,344.7656 Q306.2031,343.6719 307.25,343.0938 Q308.3125,342.5 309.5,342.5 Q310.2188,342.5 310.8438,342.75 Q311.4688,343 312,343.5 Z " fill="#000000"/><text fill="#000000" font-family="sans-serif" font-size="12" lengthAdjust="spacing" textLength="40" x="324" y="351.9102">Vertical</text><line style="stroke:#A80036;stroke-width:1.5;" x1="296" x2="366" y1="363" y2="363"/><line style="stroke:#A80036;stroke-width:1.5;" x1="296" x2="366" y1="371" y2="371"/><!--MD5=[a135607b44036ad87f368405615013d9]
class Diagonal--><rect codeLine="10" fill="#FEFECE" filter="url(#f1atel3smywfqb)" height="48" id="Diagonal" style="stroke:#A80036;stroke-width:1.5;" width="82" x="402" y="331"/><ellipse cx="417" cy="347" fill="#ADD1B2" rx="11" ry="11" style="stroke:#A80036;stroke-width:1.0;"/><path d="M419,343.5 Q419.2031,343 419.4375,342.75 Q419.6719,342.5 419.9375,342.5 Q420.4063,342.5 420.7031,342.7813 Q421,343.0625 421,343.7188 L421,345.2813 Q421,345.9375 420.7188,346.2188 Q420.4375,346.5 420,346.5 Q419.6094,346.5 419.3594,346.3281 Q419.1094,346.1563 419,345.7031 Q418.9531,345.3906 418.7813,345.2188 Q418.4688,344.8906 417.9063,344.7031 Q417.3438,344.5 416.7813,344.5 Q416.0781,344.5 415.4844,344.7813 Q414.9063,345.0625 414.4531,345.6875 Q414,346.3125 414,347.1719 L414,348.0938 Q414,349.125 414.8438,349.8125 Q415.6875,350.5 417.1875,350.5 Q418.0781,350.5 418.7031,350.2969 Q419.0625,350.1875 419.4688,349.8281 Q419.7344,349.625 419.875,349.5625 Q420.0156,349.5 420.1875,349.5 Q420.5156,349.5 420.75,349.7656 Q421,350.0156 421,350.375 Q421,350.7188 420.6563,351.125 Q420.1563,351.7188 419.3594,352.0469 Q418.3125,352.5 417.0313,352.5 Q415.5313,352.5 414.3281,351.9063 Q413.3594,351.4375 412.6719,350.4219 Q412,349.4063 412,348.2031 L412,347.1094 Q412,345.8594 412.5938,344.7656 Q413.2031,343.6719 414.25,343.0938 Q415.3125,342.5 416.5,342.5 Q417.2188,342.5 417.8438,342.75 Q418.4688,343 419,343.5 Z " fill="#000000"/><text fill="#000000" font-family="sans-serif" font-size="12" lengthAdjust="spacing" textLength="50" x="431" y="351.9102">Diagonal</text><line style="stroke:#A80036;stroke-width:1.5;" x1="403" x2="483" y1="363" y2="363"/><line style="stroke:#A80036;stroke-width:1.5;" x1="403" x2="483" y1="371" y2="371"/><!--MD5=[13c2e79780f8da90230e97aa9da6cb13]
class Disc--><rect codeLine="11" fill="#FEFECE" filter="url(#f1atel3smywfqb)" height="48" id="Disc" style="stroke:#A80036;stroke-width:1.5;" width="57" x="101.5" y="547"/><ellipse cx="116.5" cy="563" fill="#ADD1B2" rx="11" ry="11" style="stroke:#A80036;stroke-width:1.0;"/><path d="M118.5,559.5 Q118.7031,559 118.9375,558.75 Q119.1719,558.5 119.4375,558.5 Q119.9063,558.5 120.2031,558.7813 Q120.5,559.0625 120.5,559.7188 L120.5,561.2813 Q120.5,561.9375 120.2188,562.2188 Q119.9375,562.5 119.5,562.5 Q119.1094,562.5 118.8594,562.3281 Q118.6094,562.1563 118.5,561.7031 Q118.4531,561.3906 118.2813,561.2188 Q117.9688,560.8906 117.4063,560.7031 Q116.8438,560.5 116.2813,560.5 Q115.5781,560.5 114.9844,560.7813 Q114.4063,561.0625 113.9531,561.6875 Q113.5,562.3125 113.5,563.1719 L113.5,564.0938 Q113.5,565.125 114.3438,565.8125 Q115.1875,566.5 116.6875,566.5 Q117.5781,566.5 118.2031,566.2969 Q118.5625,566.1875 118.9688,565.8281 Q119.2344,565.625 119.375,565.5625 Q119.5156,565.5 119.6875,565.5 Q120.0156,565.5 120.25,565.7656 Q120.5,566.0156 120.5,566.375 Q120.5,566.7188 120.1563,567.125 Q119.6563,567.7188 118.8594,568.0469 Q117.8125,568.5 116.5313,568.5 Q115.0313,568.5 113.8281,567.9063 Q112.8594,567.4375 112.1719,566.4219 Q111.5,565.4063 111.5,564.2031 L111.5,563.1094 Q111.5,561.8594 112.0938,560.7656 Q112.7031,559.6719 113.75,559.0938 Q114.8125,558.5 116,558.5 Q116.7188,558.5 117.3438,558.75 Q117.9688,559 118.5,559.5 Z " fill="#000000"/><text fill="#000000" font-family="sans-serif" font-size="12" lengthAdjust="spacing" textLength="25" x="130.5" y="567.9102">Disc</text><line style="stroke:#A80036;stroke-width:1.5;" x1="102.5" x2="157.5" y1="579" y2="579"/><line style="stroke:#A80036;stroke-width:1.5;" x1="102.5" x2="157.5" y1="587" y2="587"/><!--MD5=[18eee71c88ab61f27581b8cbdd3ef5ee]
class Color--><rect codeLine="12" fill="#FEFECE" filter="url(#f1atel3smywfqb)" height="48" id="Color" style="stroke:#A80036;stroke-width:1.5;" width="62" x="58" y="655"/><ellipse cx="73" cy="671" fill="#ADD1B2" rx="11" ry="11" style="stroke:#A80036;stroke-width:1.0;"/><path d="M75,667.5 Q75.2031,667 75.4375,666.75 Q75.6719,666.5 75.9375,666.5 Q76.4063,666.5 76.7031,666.7813 Q77,667.0625 77,667.7188 L77,669.2813 Q77,669.9375 76.7188,670.2188 Q76.4375,670.5 76,670.5 Q75.6094,670.5 75.3594,670.3281 Q75.1094,670.1563 75,669.7031 Q74.9531,669.3906 74.7813,669.2188 Q74.4688,668.8906 73.9063,668.7031 Q73.3438,668.5 72.7813,668.5 Q72.0781,668.5 71.4844,668.7813 Q70.9063,669.0625 70.4531,669.6875 Q70,670.3125 70,671.1719 L70,672.0938 Q70,673.125 70.8438,673.8125 Q71.6875,674.5 73.1875,674.5 Q74.0781,674.5 74.7031,674.2969 Q75.0625,674.1875 75.4688,673.8281 Q75.7344,673.625 75.875,673.5625 Q76.0156,673.5 76.1875,673.5 Q76.5156,673.5 76.75,673.7656 Q77,674.0156 77,674.375 Q77,674.7188 76.6563,675.125 Q76.1563,675.7188 75.3594,676.0469 Q74.3125,676.5 73.0313,676.5 Q71.5313,676.5 70.3281,675.9063 Q69.3594,675.4375 68.6719,674.4219 Q68,673.4063 68,672.2031 L68,671.1094 Q68,669.8594 68.5938,668.7656 Q69.2031,667.6719 70.25,667.0938 Q71.3125,666.5 72.5,666.5 Q73.2188,666.5 73.8438,666.75 Q74.4688,667 75,667.5 Z " fill="#000000"/><text fill="#000000" font-family="sans-serif" font-size="12" lengthAdjust="spacing" textLength="30" x="87" y="675.9102">Color</text><line style="stroke:#A80036;stroke-width:1.5;" x1="59" x2="119" y1="687" y2="687"/><line style="stroke:#A80036;stroke-width:1.5;" x1="59" x2="119" y1="695" y2="695"/><!--MD5=[59a197a4e33151d5112197f2c5528c04]
class Yellow--><rect codeLine="13" fill="#FEFECE" filter="url(#f1atel3smywfqb)" height="48" id="Yellow" style="stroke:#A80036;stroke-width:1.5;" width="68" x="7" y="763"/><ellipse cx="22" cy="779" fill="#ADD1B2" rx="11" ry="11" style="stroke:#A80036;stroke-width:1.0;"/><path d="M24,775.5 Q24.2031,775 24.4375,774.75 Q24.6719,774.5 24.9375,774.5 Q25.4063,774.5 25.7031,774.7813 Q26,775.0625 26,775.7188 L26,777.2813 Q26,777.9375 25.7188,778.2188 Q25.4375,778.5 25,778.5 Q24.6094,778.5 24.3594,778.3281 Q24.1094,778.1563 24,777.7031 Q23.9531,777.3906 23.7813,777.2188 Q23.4688,776.8906 22.9063,776.7031 Q22.3438,776.5 21.7813,776.5 Q21.0781,776.5 20.4844,776.7813 Q19.9063,777.0625 19.4531,777.6875 Q19,778.3125 19,779.1719 L19,780.0938 Q19,781.125 19.8438,781.8125 Q20.6875,782.5 22.1875,782.5 Q23.0781,782.5 23.7031,782.2969 Q24.0625,782.1875 24.4688,781.8281 Q24.7344,781.625 24.875,781.5625 Q25.0156,781.5 25.1875,781.5 Q25.5156,781.5 25.75,781.7656 Q26,782.0156 26,782.375 Q26,782.7188 25.6563,783.125 Q25.1563,783.7188 24.3594,784.0469 Q23.3125,784.5 22.0313,784.5 Q20.5313,784.5 19.3281,783.9063 Q18.3594,783.4375 17.6719,782.4219 Q17,781.4063 17,780.2031 L17,779.1094 Q17,777.8594 17.5938,776.7656 Q18.2031,775.6719 19.25,775.0938 Q20.3125,774.5 21.5,774.5 Q22.2188,774.5 22.8438,774.75 Q23.4688,775 24,775.5 Z " fill="#000000"/><text fill="#000000" font-family="sans-serif" font-size="12" lengthAdjust="spacing" textLength="36" x="36" y="783.9102">Yellow</text><line style="stroke:#A80036;stroke-width:1.5;" x1="8" x2="74" y1="795" y2="795"/><line style="stroke:#A80036;stroke-width:1.5;" x1="8" x2="74" y1="803" y2="803"/><!--MD5=[08be530975453a47bdc5b5370100f2fc]
class Red--><rect codeLine="14" fill="#FEFECE" filter="url(#f1atel3smywfqb)" height="48" id="Red" style="stroke:#A80036;stroke-width:1.5;" width="55" x="110.5" y="763"/><ellipse cx="125.5" cy="779" fill="#ADD1B2" rx="11" ry="11" style="stroke:#A80036;stroke-width:1.0;"/><path d="M127.5,775.5 Q127.7031,775 127.9375,774.75 Q128.1719,774.5 128.4375,774.5 Q128.9063,774.5 129.2031,774.7813 Q129.5,775.0625 129.5,775.7188 L129.5,777.2813 Q129.5,777.9375 129.2188,778.2188 Q128.9375,778.5 128.5,778.5 Q128.1094,778.5 127.8594,778.3281 Q127.6094,778.1563 127.5,777.7031 Q127.4531,777.3906 127.2813,777.2188 Q126.9688,776.8906 126.4063,776.7031 Q125.8438,776.5 125.2813,776.5 Q124.5781,776.5 123.9844,776.7813 Q123.4063,777.0625 122.9531,777.6875 Q122.5,778.3125 122.5,779.1719 L122.5,780.0938 Q122.5,781.125 123.3438,781.8125 Q124.1875,782.5 125.6875,782.5 Q126.5781,782.5 127.2031,782.2969 Q127.5625,782.1875 127.9688,781.8281 Q128.2344,781.625 128.375,781.5625 Q128.5156,781.5 128.6875,781.5 Q129.0156,781.5 129.25,781.7656 Q129.5,782.0156 129.5,782.375 Q129.5,782.7188 129.1563,783.125 Q128.6563,783.7188 127.8594,784.0469 Q126.8125,784.5 125.5313,784.5 Q124.0313,784.5 122.8281,783.9063 Q121.8594,783.4375 121.1719,782.4219 Q120.5,781.4063 120.5,780.2031 L120.5,779.1094 Q120.5,777.8594 121.0938,776.7656 Q121.7031,775.6719 122.75,775.0938 Q123.8125,774.5 125,774.5 Q125.7188,774.5 126.3438,774.75 Q126.9688,775 127.5,775.5 Z " fill="#000000"/><text fill="#000000" font-family="sans-serif" font-size="12" lengthAdjust="spacing" textLength="23" x="139.5" y="783.9102">Red</text><line style="stroke:#A80036;stroke-width:1.5;" x1="111.5" x2="164.5" y1="795" y2="795"/><line style="stroke:#A80036;stroke-width:1.5;" x1="111.5" x2="164.5" y1="803" y2="803"/><!--MD5=[9d1b082e0427c50a68feddedfc32daa8]
class HollowSquare--><rect codeLine="16" fill="#FEFECE" filter="url(#f1atel3smywfqb)" height="48" id="HollowSquare" style="stroke:#A80036;stroke-width:1.5;" width="110" x="496" y="439"/><ellipse cx="511" cy="455" fill="#ADD1B2" rx="11" ry="11" style="stroke:#A80036;stroke-width:1.0;"/><path d="M513,451.5 Q513.2031,451 513.4375,450.75 Q513.6719,450.5 513.9375,450.5 Q514.4063,450.5 514.7031,450.7813 Q515,451.0625 515,451.7188 L515,453.2813 Q515,453.9375 514.7188,454.2188 Q514.4375,454.5 514,454.5 Q513.6094,454.5 513.3594,454.3281 Q513.1094,454.1563 513,453.7031 Q512.9531,453.3906 512.7813,453.2188 Q512.4688,452.8906 511.9063,452.7031 Q511.3438,452.5 510.7813,452.5 Q510.0781,452.5 509.4844,452.7813 Q508.9063,453.0625 508.4531,453.6875 Q508,454.3125 508,455.1719 L508,456.0938 Q508,457.125 508.8438,457.8125 Q509.6875,458.5 511.1875,458.5 Q512.0781,458.5 512.7031,458.2969 Q513.0625,458.1875 513.4688,457.8281 Q513.7344,457.625 513.875,457.5625 Q514.0156,457.5 514.1875,457.5 Q514.5156,457.5 514.75,457.7656 Q515,458.0156 515,458.375 Q515,458.7188 514.6563,459.125 Q514.1563,459.7188 513.3594,460.0469 Q512.3125,460.5 511.0313,460.5 Q509.5313,460.5 508.3281,459.9063 Q507.3594,459.4375 506.6719,458.4219 Q506,457.4063 506,456.2031 L506,455.1094 Q506,453.8594 506.5938,452.7656 Q507.2031,451.6719 508.25,451.0938 Q509.3125,450.5 510.5,450.5 Q511.2188,450.5 511.8438,450.75 Q512.4688,451 513,451.5 Z " fill="#000000"/><text fill="#000000" font-family="sans-serif" font-size="12" lengthAdjust="spacing" textLength="78" x="525" y="459.9102">HollowSquare</text><line style="stroke:#A80036;stroke-width:1.5;" x1="497" x2="605" y1="471" y2="471"/><line style="stroke:#A80036;stroke-width:1.5;" x1="497" x2="605" y1="479" y2="479"/><!--MD5=[8c7d7abc12e214c3cc12c9ab70edee11]
class Coordinate--><rect codeLine="17" fill="#FEFECE" filter="url(#f1atel3smywfqb)" height="48" id="Coordinate" style="stroke:#A80036;stroke-width:1.5;" width="93" x="504.5" y="547"/><ellipse cx="519.5" cy="563" fill="#ADD1B2" rx="11" ry="11" style="stroke:#A80036;stroke-width:1.0;"/><path d="M521.5,559.5 Q521.7031,559 521.9375,558.75 Q522.1719,558.5 522.4375,558.5 Q522.9063,558.5 523.2031,558.7813 Q523.5,559.0625 523.5,559.7188 L523.5,561.2813 Q523.5,561.9375 523.2188,562.2188 Q522.9375,562.5 522.5,562.5 Q522.1094,562.5 521.8594,562.3281 Q521.6094,562.1563 521.5,561.7031 Q521.4531,561.3906 521.2813,561.2188 Q520.9688,560.8906 520.4063,560.7031 Q519.8438,560.5 519.2813,560.5 Q518.5781,560.5 517.9844,560.7813 Q517.4063,561.0625 516.9531,561.6875 Q516.5,562.3125 516.5,563.1719 L516.5,564.0938 Q516.5,565.125 517.3438,565.8125 Q518.1875,566.5 519.6875,566.5 Q520.5781,566.5 521.2031,566.2969 Q521.5625,566.1875 521.9688,565.8281 Q522.2344,565.625 522.375,565.5625 Q522.5156,565.5 522.6875,565.5 Q523.0156,565.5 523.25,565.7656 Q523.5,566.0156 523.5,566.375 Q523.5,566.7188 523.1563,567.125 Q522.6563,567.7188 521.8594,568.0469 Q520.8125,568.5 519.5313,568.5 Q518.0313,568.5 516.8281,567.9063 Q515.8594,567.4375 515.1719,566.4219 Q514.5,565.4063 514.5,564.2031 L514.5,563.1094 Q514.5,561.8594 515.0938,560.7656 Q515.7031,559.6719 516.75,559.0938 Q517.8125,558.5 519,558.5 Q519.7188,558.5 520.3438,558.75 Q520.9688,559 521.5,559.5 Z " fill="#000000"/><text fill="#000000" font-family="sans-serif" font-size="12" lengthAdjust="spacing" textLength="61" x="533.5" y="567.9102">Coordinate</text><line style="stroke:#A80036;stroke-width:1.5;" x1="505.5" x2="596.5" y1="579" y2="579"/><line style="stroke:#A80036;stroke-width:1.5;" x1="505.5" x2="596.5" y1="587" y2="587"/><!--MD5=[90c81c5abb68fc1cf50baa0b36284b44]
class Insert--><rect codeLine="18" fill="#FEFECE" filter="url(#f1atel3smywfqb)" height="48" id="Insert" style="stroke:#A80036;stroke-width:1.5;" width="63" x="519.5" y="331"/><ellipse cx="534.5" cy="347" fill="#ADD1B2" rx="11" ry="11" style="stroke:#A80036;stroke-width:1.0;"/><path d="M536.5,343.5 Q536.7031,343 536.9375,342.75 Q537.1719,342.5 537.4375,342.5 Q537.9063,342.5 538.2031,342.7813 Q538.5,343.0625 538.5,343.7188 L538.5,345.2813 Q538.5,345.9375 538.2188,346.2188 Q537.9375,346.5 537.5,346.5 Q537.1094,346.5 536.8594,346.3281 Q536.6094,346.1563 536.5,345.7031 Q536.4531,345.3906 536.2813,345.2188 Q535.9688,344.8906 535.4063,344.7031 Q534.8438,344.5 534.2813,344.5 Q533.5781,344.5 532.9844,344.7813 Q532.4063,345.0625 531.9531,345.6875 Q531.5,346.3125 531.5,347.1719 L531.5,348.0938 Q531.5,349.125 532.3438,349.8125 Q533.1875,350.5 534.6875,350.5 Q535.5781,350.5 536.2031,350.2969 Q536.5625,350.1875 536.9688,349.8281 Q537.2344,349.625 537.375,349.5625 Q537.5156,349.5 537.6875,349.5 Q538.0156,349.5 538.25,349.7656 Q538.5,350.0156 538.5,350.375 Q538.5,350.7188 538.1563,351.125 Q537.6563,351.7188 536.8594,352.0469 Q535.8125,352.5 534.5313,352.5 Q533.0313,352.5 531.8281,351.9063 Q530.8594,351.4375 530.1719,350.4219 Q529.5,349.4063 529.5,348.2031 L529.5,347.1094 Q529.5,345.8594 530.0938,344.7656 Q530.7031,343.6719 531.75,343.0938 Q532.8125,342.5 534,342.5 Q534.7188,342.5 535.3438,342.75 Q535.9688,343 536.5,343.5 Z " fill="#000000"/><text fill="#000000" font-family="sans-serif" font-size="12" lengthAdjust="spacing" textLength="31" x="548.5" y="351.9102">Insert</text><line style="stroke:#A80036;stroke-width:1.5;" x1="520.5" x2="581.5" y1="363" y2="363"/><line style="stroke:#A80036;stroke-width:1.5;" x1="520.5" x2="581.5" y1="371" y2="371"/><!--MD5=[5426a1d26e36fcd61d30da6b8a6545ec]
link Connect4 to Board--><path codeLine="20" d="M371.8851,67.3651 C371.8851,67.3651 384.79,135.28 405,163 C425.89,191.64 459.91,213.11 487.49,227.03 " fill="none" id="Connect4-Board" style="stroke:#A80036;stroke-width:1.0;"/><polygon fill="#A80036" points="499.25,232.71,492.8887,225.1911,494.7486,230.5335,489.4062,232.3934,499.25,232.71" style="stroke:#A80036;stroke-width:1.0;"/><line style="stroke:#A80036;stroke-width:1.0;" x1="494.7486" x2="487.54" y1="230.5335" y2="227.055"/><polygon fill="#A80036" points="370.46,55.45,367.2008,61.8826,371.8851,67.3651,375.1442,60.9325,370.46,55.45" style="stroke:#A80036;stroke-width:1.0;"/><!--MD5=[6824fd9902778444ee49992acd2ffe7e]
link Connect4 to Turn--><path codeLine="21" d="M394.1326,64.4914 C394.1326,64.4914 415.35,91.92 424.93,104.3 " fill="none" id="Connect4-Turn" style="stroke:#A80036;stroke-width:1.0;"/><polygon fill="#A80036" points="432.96,114.68,430.6104,105.1155,429.8979,110.7273,424.2861,110.0149,432.96,114.68" style="stroke:#A80036;stroke-width:1.0;"/><line style="stroke:#A80036;stroke-width:1.0;" x1="429.8979" x2="425.005" y1="110.7273" y2="104.395"/><polygon fill="#A80036" points="386.79,55,387.2975,62.1932,394.1326,64.4914,393.6251,57.2981,386.79,55" style="stroke:#A80036;stroke-width:1.0;"/><!--MD5=[46750473935a00282743b47f522de7be]
link Connect4 to Player--><path codeLine="22" d="M328.0824,62.1089 C328.0824,62.1089 286.21,92.94 267.35,106.82 " fill="none" id="Connect4-Player" style="stroke:#A80036;stroke-width:1.0;"/><polygon fill="#A80036" points="256.68,114.68,266.2985,112.5623,260.7056,111.7144,261.5535,106.1214,256.68,114.68" style="stroke:#A80036;stroke-width:1.0;"/><line style="stroke:#A80036;stroke-width:1.0;" x1="260.7056" x2="267.15" y1="111.7144" y2="106.975"/><polygon fill="#A80036" points="337.75,55,330.5465,55.3319,328.0824,62.1089,335.2858,61.777,337.75,55" style="stroke:#A80036;stroke-width:1.0;"/><text fill="#000000" font-family="sans-serif" font-size="13" lengthAdjust="spacing" textLength="7" x="256.5489" y="104.34">2</text><!--MD5=[e3b5fc2356acc5d6a62d47df0c152b39]
link Player to Disc--><path codeLine="24" d="M209.5239,174.2412 C209.5239,174.2412 167.95,275.14 155,331 C138.62,401.69 132.96,486.64 131.01,533.85 " fill="none" id="Player-Disc" style="stroke:#A80036;stroke-width:1.0;"/><polygon fill="#A80036" points="130.53,546.95,134.8636,538.1058,130.7169,541.9535,126.8692,537.8068,130.53,546.95" style="stroke:#A80036;stroke-width:1.0;"/><line style="stroke:#A80036;stroke-width:1.0;" x1="130.7169" x2="131.005" y1="541.9535" y2="533.96"/><polygon fill="#A80036" points="214.34,163.25,208.2683,167.1402,209.5239,174.2412,215.5957,170.3509,214.34,163.25" style="stroke:#A80036;stroke-width:1.0;"/><text fill="#000000" font-family="sans-serif" font-size="13" lengthAdjust="spacing" textLength="29" x="97.9502" y="536.2773">0..21</text><!--MD5=[ebf52a6f230ff8b0d594dd9ce4cd7c5b]
link Player to Color--><path codeLine="25" d="M181.7072,166.299 C181.7072,166.299 48,270.9 48,354 C48,354 48,354 48,464 C48,527.66 65.72,600.1 77.86,642.27 " fill="none" id="Player-Color" style="stroke:#A80036;stroke-width:1.0;"/><polygon fill="#A80036" points="81.58,654.85,82.8622,645.085,80.1614,650.0555,75.1909,647.3547,81.58,654.85" style="stroke:#A80036;stroke-width:1.0;"/><line style="stroke:#A80036;stroke-width:1.0;" x1="80.1614" x2="77.89" y1="650.0555" y2="642.38"/><polygon fill="#A80036" points="191.71,159.67,184.4989,159.6502,181.7072,166.299,188.9183,166.3188,191.71,159.67" style="stroke:#A80036;stroke-width:1.0;"/><!--MD5=[7ef30cdaf439ccd41b0367d03da90c53]
link Disc to Color--><path codeLine="26" d="M116.764,606.1892 C116.764,606.1892 107.09,631.23 102.71,642.54 " fill="none" id="Disc-Color" style="stroke:#A80036;stroke-width:1.0;"/><polygon fill="#A80036" points="98.02,654.68,105.0045,647.7362,99.8285,650.0185,97.5462,644.8425,98.02,654.68" style="stroke:#A80036;stroke-width:1.0;"/><line style="stroke:#A80036;stroke-width:1.0;" x1="99.8285" x2="102.71" y1="650.0185" y2="642.555"/><polygon fill="#A80036" points="121.1,595,115.2023,599.1493,116.764,606.1892,122.6617,602.04,121.1,595" style="stroke:#A80036;stroke-width:1.0;"/><!--MD5=[6083f140c68c81feb5a8fefe89deab0b]
reverse link Color to Yellow--><path codeLine="27" d="M70.17,721.57 C63.85,735.54 57.02,750.62 51.56,762.68 " fill="none" id="Color-backto-Yellow" style="stroke:#A80036;stroke-width:1.0;"/><polygon fill="none" points="63.96,718.33,78.58,703,76.71,724.11,63.96,718.33" style="stroke:#A80036;stroke-width:1.0;"/><!--MD5=[fab54b5999e935266d298ad54749f91a]
reverse link Color to Red--><path codeLine="28" d="M108.22,721.57 C114.68,735.54 121.65,750.62 127.22,762.68 " fill="none" id="Color-backto-Red" style="stroke:#A80036;stroke-width:1.0;"/><polygon fill="none" points="101.67,724.09,99.63,703,114.38,718.22,101.67,724.09" style="stroke:#A80036;stroke-width:1.0;"/><!--MD5=[1571e4e0b7cdbae74b04c97a95677c54]
link Player to Goal--><path codeLine="29" d="M248,163 C264.42,179.42 286.56,201.56 303.84,218.84 " fill="none" id="Player-to-Goal" style="stroke:#A80036;stroke-width:1.0;"/><polygon fill="#A80036" points="307.68,222.68,304.1445,213.4876,304.1445,219.1445,298.4876,219.1445,307.68,222.68" style="stroke:#A80036;stroke-width:1.0;"/><!--MD5=[9c078bc154f9dba995e32f4ec3d43872]
reverse link Goal to Horizontal--><path codeLine="30" d="M291.32,284.57 C274.74,299.86 255.96,317.17 241.3,330.68 " fill="none" id="Goal-backto-Horizontal" style="stroke:#A80036;stroke-width:1.0;"/><polygon fill="none" points="286.6,279.41,306.05,271,296.09,289.7,286.6,279.41" style="stroke:#A80036;stroke-width:1.0;"/><!--MD5=[3e26d6834a71a9527f7b0beabb13c375]
reverse link Goal to Vertical--><path codeLine="31" d="M331,291.02 C331,304.58 331,319.04 331,330.68 " fill="none" id="Goal-backto-Vertical" style="stroke:#A80036;stroke-width:1.0;"/><polygon fill="none" points="324,291,331,271,338,291,324,291" style="stroke:#A80036;stroke-width:1.0;"/><!--MD5=[5a16bdf27515cf253385e973d6fbc781]
reverse link Goal to Diagonal--><path codeLine="32" d="M369.89,284.81 C385.98,300.04 404.16,317.24 418.36,330.68 " fill="none" id="Goal-backto-Diagonal" style="stroke:#A80036;stroke-width:1.0;"/><polygon fill="none" points="365.02,289.83,355.3,271,374.64,279.66,365.02,289.83" style="stroke:#A80036;stroke-width:1.0;"/><!--MD5=[dedaf8e9d94fd584b64552bee4f3e762]
link Goal to Insert--><path codeLine="33" d="M360.21,262.08 C400.02,281.26 471.29,315.6 514.55,336.44 " fill="none" id="Goal-to-Insert" style="stroke:#A80036;stroke-width:1.0;stroke-dasharray:7.0,7.0;"/><polygon fill="#A80036" points="519.17,338.66,512.8027,331.1462,514.6669,336.4871,509.326,338.3512,519.17,338.66" style="stroke:#A80036;stroke-width:1.0;"/><text fill="#000000" font-family="sans-serif" font-size="13" lengthAdjust="spacing" textLength="29" x="482.2666" y="329.9949">4..21</text><!--MD5=[0c52eed53222bacdef336b68f81a680d]
link Insert to HollowSquare--><path codeLine="34" d="M551,379 C551,395 551,416.45 551,433.53 " fill="none" id="Insert-to-HollowSquare" style="stroke:#A80036;stroke-width:1.0;stroke-dasharray:7.0,7.0;"/><polygon fill="#A80036" points="551,438.68,555,429.68,551,433.68,547,429.68,551,438.68" style="stroke:#A80036;stroke-width:1.0;"/><!--MD5=[ea9b7602a5cd54f752eaa97b35faeba6]
link Board to HollowSquare--><path codeLine="36" d="M566.8786,279.928 C566.8786,279.928 593.34,312.37 600,331 C611.82,364.06 594.65,401.57 577.47,427.95 " fill="none" id="Board-HollowSquare" style="stroke:#A80036;stroke-width:1.0;"/><polygon fill="#A80036" points="569.94,438.89,578.3399,433.7478,572.7766,434.7725,571.7519,429.2092,569.94,438.89" style="stroke:#A80036;stroke-width:1.0;"/><line style="stroke:#A80036;stroke-width:1.0;" x1="572.7766" x2="577.315" y1="434.7725" y2="428.18"/><polygon fill="#A80036" points="558.58,271.26,559.84,278.3602,566.8786,279.928,565.6186,272.8278,558.58,271.26" style="stroke:#A80036;stroke-width:1.0;"/><text fill="#000000" font-family="sans-serif" font-size="13" lengthAdjust="spacing" textLength="21" x="551.1028" y="428.202">7x6</text><!--MD5=[de218e62d27cf2f970ae235e083308c6]
link HollowSquare to Disc--><path codeLine="37" d="M495.96,477.86 C407.48,500.14 236.21,543.26 163.72,561.51 " fill="none" id="HollowSquare-to-Disc" style="stroke:#A80036;stroke-width:1.0;stroke-dasharray:7.0,7.0;"/><polygon fill="#A80036" points="158.67,562.78,168.3761,564.4509,163.5173,561.5539,166.4143,556.6952,158.67,562.78" style="stroke:#A80036;stroke-width:1.0;"/><text fill="#000000" font-family="sans-serif" font-size="13" lengthAdjust="spacing" textLength="22" x="166.48" y="557.1164">0..1</text><!--MD5=[4727458809999ac9aabf1716cb488159]
link HollowSquare to Coordinate--><path codeLine="38" d="M551,499 C551,499 551,522.68 551,533.36 " fill="none" id="HollowSquare-Coordinate" style="stroke:#A80036;stroke-width:1.0;"/><polygon fill="#A80036" points="551,546.68,555,537.68,551,541.68,547,537.68,551,546.68" style="stroke:#A80036;stroke-width:1.0;"/><line style="stroke:#A80036;stroke-width:1.0;" x1="551" x2="551" y1="541.68" y2="533.68"/><polygon fill="#A80036" points="551,487,547,493,551,499,555,493,551,487" style="stroke:#A80036;stroke-width:1.0;"/><!--MD5=[b0c246c8e63d41995a2ccd15aefd2b84]
@startuml
'https://plantuml.com/class-diagram

class Connect4
class Player
class Board
class Turn
class Goal
class Horizontal
class Vertical
class Diagonal
class Disc
class Color
class Yellow
class Red
class Goal
class HollowSquare
class Coordinate
class Insert

Connect4 *- -> Board
Connect4 *- -> Turn
Connect4 *- -> "2" Player

Player *- -> "0..21" Disc
Player *- -> Color
Disc *- -> Color
Color <|- - Yellow
Color <|- - Red
Player - -> Goal
Goal <|- - Horizontal
Goal <|- - Vertical
Goal <|- - Diagonal
Goal ..> "4..21" Insert
Insert ..> HollowSquare

Board *- -> "7x6" HollowSquare
HollowSquare ..> "0..1" Disc
HollowSquare *- -> Coordinate




@enduml

@startuml

class Connect4
class Player
class Board
class Turn
class Goal
class Horizontal
class Vertical
class Diagonal
class Disc
class Color
class Yellow
class Red
class Goal
class HollowSquare
class Coordinate
class Insert

Connect4 *- -> Board
Connect4 *- -> Turn
Connect4 *- -> "2" Player

Player *- -> "0..21" Disc
Player *- -> Color
Disc *- -> Color
Color <|- - Yellow
Color <|- - Red
Player - -> Goal
Goal <|- - Horizontal
Goal <|- - Vertical
Goal <|- - Diagonal
Goal ..> "4..21" Insert
Insert ..> HollowSquare

Board *- -> "7x6" HollowSquare
HollowSquare ..> "0..1" Disc
HollowSquare *- -> Coordinate




@enduml

PlantUML version 1.2022.0(Tue Jan 11 17:16:42 CET 2022)
(GPL source distribution)
Java Runtime: OpenJDK Runtime Environment
JVM: OpenJDK 64-Bit Server VM
Default Encoding: Cp1252
Language: es
Country: ES
--></g></svg>