<?xml version="1.0" encoding="UTF-8" standalone="no"?><svg xmlns="http://www.w3.org/2000/svg" xmlns:xlink="http://www.w3.org/1999/xlink" contentScriptType="application/ecmascript" contentStyleType="text/css" height="593.1px" preserveAspectRatio="none" style="width:583px;height:593px;background:#FFFFFF;" version="1.1" viewBox="0 0 583 593" width="583.2px" zoomAndPan="magnify"><defs><filter height="300%" id="ft8jf0f8dcftn" width="300%" x="-1" y="-1"><feGaussianBlur result="blurOut" stdDeviation="1.8"/><feColorMatrix in="blurOut" result="blurOut2" type="matrix" values="0 0 0 0 0 0 0 0 0 0 0 0 0 0 0 0 0 0 .4 0"/><feOffset dx="3.6" dy="3.6" in="blurOut2" result="blurOut3"/><feBlend in="SourceGraphic" in2="blurOut3" mode="normal"/></filter></defs><g><text fill="#000000" font-family="sans-serif" font-size="16.2" lengthAdjust="spacing" textLength="69.3" x="251.325" y="16.817">Connect4</text><!--MD5=[18eee71c88ab61f27581b8cbdd3ef5ee]
class Color--><rect codeLine="3" fill="#FEFECE" filter="url(#ft8jf0f8dcftn)" height="68.1047" id="Color" style="stroke:#A80036;stroke-width:1.35;" width="55.8" x="319.95" y="512.6766"/><ellipse cx="333.45" cy="527.0766" fill="#EB937F" rx="9.9" ry="9.9" style="stroke:#A80036;stroke-width:0.9;"/><path d="M332.1,527.9766 L332.1,529.7766 L335.7,529.7766 L335.7,528.8766 L335.7,528.4406 L336.2625,527.9766 L336.6,527.9766 L336.9375,527.9766 L337.5,528.4406 L337.5,528.8766 L337.5,531.5766 L330.3,531.5766 L329.8641,531.5766 L329.4,531.0141 L329.4,530.6766 L329.4,530.3391 L329.8641,529.7766 L330.3,529.7766 L330.3,529.7766 L330.3,524.3766 L330.3,524.3766 L329.8641,524.3766 L329.4,523.8141 L329.4,523.4766 L329.4,523.1391 L329.8641,522.5766 L330.3,522.5766 L337.5,522.5766 L337.5,525.2766 L337.5,525.7125 L336.9375,526.1766 L336.6,526.1766 L336.2625,526.1766 L335.7,525.7125 L335.7,525.2766 L335.7,524.3766 L332.1,524.3766 L332.1,526.1766 L333,526.1766 L333,525.7406 L333,525.7406 L333.5625,525.2766 L333.9,525.2766 L334.2375,525.2766 L334.8,525.7406 L334.8,526.1766 L334.8,527.9766 L334.8,528.4125 L334.2375,528.8766 L334.2375,528.8766 L333.9,528.8766 L333.5625,528.8766 L333,528.4125 L333,528.4125 L333,527.9766 L332.1,527.9766 Z " fill="#000000"/><text fill="#000000" font-family="sans-serif" font-size="10.8" lengthAdjust="spacing" textLength="27" x="346.05" y="531.4957">Color</text><line style="stroke:#A80036;stroke-width:1.35;" x1="320.85" x2="374.85" y1="541.4766" y2="541.4766"/><text fill="#000000" font-family="sans-serif" font-size="9.9" lengthAdjust="spacing" textLength="18" x="325.35" y="555.3536">RED</text><text fill="#000000" font-family="sans-serif" font-size="9.9" lengthAdjust="spacing" textLength="31.5" x="325.35" y="567.806">BLACK</text><line style="stroke:#A80036;stroke-width:1.35;" x1="320.85" x2="374.85" y1="573.5813" y2="573.5813"/><!--MD5=[10b1f240992e2c34b6908209bf85bfd2]
class Connect4--><rect fill="#FEFECE" filter="url(#ft8jf0f8dcftn)" height="43.2" id="Connect4" style="stroke:#A80036;stroke-width:1.35;" width="76.5" x="335.7" y="26.6766"/><ellipse cx="349.2" cy="41.0766" fill="#ADD1B2" rx="9.9" ry="9.9" style="stroke:#A80036;stroke-width:0.9;"/><path d="M351,37.9266 Q351.1828,37.4766 351.3938,37.2516 Q351.6047,37.0266 351.8438,37.0266 Q352.2656,37.0266 352.5328,37.2797 Q352.8,37.5328 352.8,38.1234 L352.8,39.5297 Q352.8,40.1203 352.5469,40.3734 Q352.2938,40.6266 351.9,40.6266 Q351.5484,40.6266 351.3234,40.4719 Q351.0984,40.3172 351,39.9094 Q350.9578,39.6281 350.8031,39.4734 Q350.5219,39.1781 350.0156,39.0094 Q349.5094,38.8266 349.0031,38.8266 Q348.3703,38.8266 347.8359,39.0797 Q347.3156,39.3328 346.9078,39.8953 Q346.5,40.4578 346.5,41.2313 L346.5,42.0609 Q346.5,42.9891 347.2594,43.6078 Q348.0188,44.2266 349.3688,44.2266 Q350.1703,44.2266 350.7328,44.0438 Q351.0563,43.9453 351.4219,43.6219 Q351.6609,43.4391 351.7875,43.3828 Q351.9141,43.3266 352.0688,43.3266 Q352.3641,43.3266 352.575,43.5656 Q352.8,43.7906 352.8,44.1141 Q352.8,44.4234 352.4906,44.7891 Q352.0406,45.3234 351.3234,45.6188 Q350.3813,46.0266 349.2281,46.0266 Q347.8781,46.0266 346.7953,45.4922 Q345.9234,45.0703 345.3047,44.1563 Q344.7,43.2422 344.7,42.1594 L344.7,41.175 Q344.7,40.05 345.2344,39.0656 Q345.7828,38.0813 346.725,37.5609 Q347.6813,37.0266 348.75,37.0266 Q349.3969,37.0266 349.9594,37.2516 Q350.5219,37.4766 351,37.9266 Z " fill="#000000"/><text fill="#000000" font-family="sans-serif" font-size="10.8" lengthAdjust="spacing" textLength="47.7" x="361.8" y="45.4957">Connect4</text><line style="stroke:#A80036;stroke-width:1.35;" x1="336.6" x2="411.3" y1="55.4766" y2="55.4766"/><line style="stroke:#A80036;stroke-width:1.35;" x1="336.6" x2="411.3" y1="62.6766" y2="62.6766"/><!--MD5=[dd91eae41778c45e12552e5329e240e8]
class Turn--><rect fill="#FEFECE" filter="url(#ft8jf0f8dcftn)" height="43.2" id="Turn" style="stroke:#A80036;stroke-width:1.35;" width="51.3" x="348.3" y="123.8766"/><ellipse cx="361.8" cy="138.2766" fill="#ADD1B2" rx="9.9" ry="9.9" style="stroke:#A80036;stroke-width:0.9;"/><path d="M363.6,135.1266 Q363.7828,134.6766 363.9938,134.4516 Q364.2047,134.2266 364.4438,134.2266 Q364.8656,134.2266 365.1328,134.4797 Q365.4,134.7328 365.4,135.3234 L365.4,136.7297 Q365.4,137.3203 365.1469,137.5734 Q364.8938,137.8266 364.5,137.8266 Q364.1484,137.8266 363.9234,137.6719 Q363.6984,137.5172 363.6,137.1094 Q363.5578,136.8281 363.4031,136.6734 Q363.1219,136.3781 362.6156,136.2094 Q362.1094,136.0266 361.6031,136.0266 Q360.9703,136.0266 360.4359,136.2797 Q359.9156,136.5328 359.5078,137.0953 Q359.1,137.6578 359.1,138.4313 L359.1,139.2609 Q359.1,140.1891 359.8594,140.8078 Q360.6188,141.4266 361.9688,141.4266 Q362.7703,141.4266 363.3328,141.2438 Q363.6563,141.1453 364.0219,140.8219 Q364.2609,140.6391 364.3875,140.5828 Q364.5141,140.5266 364.6688,140.5266 Q364.9641,140.5266 365.175,140.7656 Q365.4,140.9906 365.4,141.3141 Q365.4,141.6234 365.0906,141.9891 Q364.6406,142.5234 363.9234,142.8188 Q362.9813,143.2266 361.8281,143.2266 Q360.4781,143.2266 359.3953,142.6922 Q358.5234,142.2703 357.9047,141.3563 Q357.3,140.4422 357.3,139.3594 L357.3,138.375 Q357.3,137.25 357.8344,136.2656 Q358.3828,135.2813 359.325,134.7609 Q360.2813,134.2266 361.35,134.2266 Q361.9969,134.2266 362.5594,134.4516 Q363.1219,134.6766 363.6,135.1266 Z " fill="#000000"/><text fill="#000000" font-family="sans-serif" font-size="10.8" lengthAdjust="spacing" textLength="22.5" x="374.4" y="142.6957">Turn</text><line style="stroke:#A80036;stroke-width:1.35;" x1="349.2" x2="398.7" y1="152.6766" y2="152.6766"/><line style="stroke:#A80036;stroke-width:1.35;" x1="349.2" x2="398.7" y1="159.8766" y2="159.8766"/><!--MD5=[9563755d011c5cec7ec66dc53565a59e]
class Board--><rect fill="#FEFECE" filter="url(#ft8jf0f8dcftn)" height="43.2" id="Board" style="stroke:#A80036;stroke-width:1.35;" width="58.5" x="434.7" y="123.8766"/><ellipse cx="448.2" cy="138.2766" fill="#ADD1B2" rx="9.9" ry="9.9" style="stroke:#A80036;stroke-width:0.9;"/><path d="M450,135.1266 Q450.1828,134.6766 450.3938,134.4516 Q450.6047,134.2266 450.8438,134.2266 Q451.2656,134.2266 451.5328,134.4797 Q451.8,134.7328 451.8,135.3234 L451.8,136.7297 Q451.8,137.3203 451.5469,137.5734 Q451.2938,137.8266 450.9,137.8266 Q450.5484,137.8266 450.3234,137.6719 Q450.0984,137.5172 450,137.1094 Q449.9578,136.8281 449.8031,136.6734 Q449.5219,136.3781 449.0156,136.2094 Q448.5094,136.0266 448.0031,136.0266 Q447.3703,136.0266 446.8359,136.2797 Q446.3156,136.5328 445.9078,137.0953 Q445.5,137.6578 445.5,138.4313 L445.5,139.2609 Q445.5,140.1891 446.2594,140.8078 Q447.0188,141.4266 448.3688,141.4266 Q449.1703,141.4266 449.7328,141.2438 Q450.0563,141.1453 450.4219,140.8219 Q450.6609,140.6391 450.7875,140.5828 Q450.9141,140.5266 451.0688,140.5266 Q451.3641,140.5266 451.575,140.7656 Q451.8,140.9906 451.8,141.3141 Q451.8,141.6234 451.4906,141.9891 Q451.0406,142.5234 450.3234,142.8188 Q449.3813,143.2266 448.2281,143.2266 Q446.8781,143.2266 445.7953,142.6922 Q444.9234,142.2703 444.3047,141.3563 Q443.7,140.4422 443.7,139.3594 L443.7,138.375 Q443.7,137.25 444.2344,136.2656 Q444.7828,135.2813 445.725,134.7609 Q446.6813,134.2266 447.75,134.2266 Q448.3969,134.2266 448.9594,134.4516 Q449.5219,134.6766 450,135.1266 Z " fill="#000000"/><text fill="#000000" font-family="sans-serif" font-size="10.8" lengthAdjust="spacing" textLength="29.7" x="460.8" y="142.6957">Board</text><line style="stroke:#A80036;stroke-width:1.35;" x1="435.6" x2="492.3" y1="152.6766" y2="152.6766"/><line style="stroke:#A80036;stroke-width:1.35;" x1="435.6" x2="492.3" y1="159.8766" y2="159.8766"/><!--MD5=[2cb47ba637a0d19583e6199456f6ad0b]
class Player--><rect fill="#FEFECE" filter="url(#ft8jf0f8dcftn)" height="43.2" id="Player" style="stroke:#A80036;stroke-width:1.35;" width="59.4" x="250.65" y="221.0766"/><ellipse cx="264.15" cy="235.4766" fill="#ADD1B2" rx="9.9" ry="9.9" style="stroke:#A80036;stroke-width:0.9;"/><path d="M265.95,232.3266 Q266.1328,231.8766 266.3438,231.6516 Q266.5547,231.4266 266.7938,231.4266 Q267.2156,231.4266 267.4828,231.6797 Q267.75,231.9328 267.75,232.5234 L267.75,233.9297 Q267.75,234.5203 267.4969,234.7734 Q267.2438,235.0266 266.85,235.0266 Q266.4984,235.0266 266.2734,234.8719 Q266.0484,234.7172 265.95,234.3094 Q265.9078,234.0281 265.7531,233.8734 Q265.4719,233.5781 264.9656,233.4094 Q264.4594,233.2266 263.9531,233.2266 Q263.3203,233.2266 262.7859,233.4797 Q262.2656,233.7328 261.8578,234.2953 Q261.45,234.8578 261.45,235.6313 L261.45,236.4609 Q261.45,237.3891 262.2094,238.0078 Q262.9688,238.6266 264.3188,238.6266 Q265.1203,238.6266 265.6828,238.4438 Q266.0063,238.3453 266.3719,238.0219 Q266.6109,237.8391 266.7375,237.7828 Q266.8641,237.7266 267.0188,237.7266 Q267.3141,237.7266 267.525,237.9656 Q267.75,238.1906 267.75,238.5141 Q267.75,238.8234 267.4406,239.1891 Q266.9906,239.7234 266.2734,240.0188 Q265.3313,240.4266 264.1781,240.4266 Q262.8281,240.4266 261.7453,239.8922 Q260.8734,239.4703 260.2547,238.5563 Q259.65,237.6422 259.65,236.5594 L259.65,235.575 Q259.65,234.45 260.1844,233.4656 Q260.7328,232.4813 261.675,231.9609 Q262.6313,231.4266 263.7,231.4266 Q264.3469,231.4266 264.9094,231.6516 Q265.4719,231.8766 265.95,232.3266 Z " fill="#000000"/><text fill="#000000" font-family="sans-serif" font-size="10.8" lengthAdjust="spacing" textLength="30.6" x="276.75" y="239.8957">Player</text><line style="stroke:#A80036;stroke-width:1.35;" x1="251.55" x2="309.15" y1="249.8766" y2="249.8766"/><line style="stroke:#A80036;stroke-width:1.35;" x1="251.55" x2="309.15" y1="257.0766" y2="257.0766"/><!--MD5=[bc87bf052131b9ca3b54b8ba84b5b110]
class Movement--><rect fill="#FEFECE" filter="url(#ft8jf0f8dcftn)" height="43.2" id="Movement" style="stroke:#A80036;stroke-width:1.35;" width="79.2" x="341.55" y="221.0766"/><ellipse cx="355.05" cy="235.4766" fill="#ADD1B2" rx="9.9" ry="9.9" style="stroke:#A80036;stroke-width:0.9;"/><path d="M356.85,232.3266 Q357.0328,231.8766 357.2438,231.6516 Q357.4547,231.4266 357.6938,231.4266 Q358.1156,231.4266 358.3828,231.6797 Q358.65,231.9328 358.65,232.5234 L358.65,233.9297 Q358.65,234.5203 358.3969,234.7734 Q358.1438,235.0266 357.75,235.0266 Q357.3984,235.0266 357.1734,234.8719 Q356.9484,234.7172 356.85,234.3094 Q356.8078,234.0281 356.6531,233.8734 Q356.3719,233.5781 355.8656,233.4094 Q355.3594,233.2266 354.8531,233.2266 Q354.2203,233.2266 353.6859,233.4797 Q353.1656,233.7328 352.7578,234.2953 Q352.35,234.8578 352.35,235.6313 L352.35,236.4609 Q352.35,237.3891 353.1094,238.0078 Q353.8688,238.6266 355.2188,238.6266 Q356.0203,238.6266 356.5828,238.4438 Q356.9063,238.3453 357.2719,238.0219 Q357.5109,237.8391 357.6375,237.7828 Q357.7641,237.7266 357.9188,237.7266 Q358.2141,237.7266 358.425,237.9656 Q358.65,238.1906 358.65,238.5141 Q358.65,238.8234 358.3406,239.1891 Q357.8906,239.7234 357.1734,240.0188 Q356.2313,240.4266 355.0781,240.4266 Q353.7281,240.4266 352.6453,239.8922 Q351.7734,239.4703 351.1547,238.5563 Q350.55,237.6422 350.55,236.5594 L350.55,235.575 Q350.55,234.45 351.0844,233.4656 Q351.6328,232.4813 352.575,231.9609 Q353.5313,231.4266 354.6,231.4266 Q355.2469,231.4266 355.8094,231.6516 Q356.3719,231.8766 356.85,232.3266 Z " fill="#000000"/><text fill="#000000" font-family="sans-serif" font-size="10.8" lengthAdjust="spacing" textLength="50.4" x="367.65" y="239.8957">Movement</text><line style="stroke:#A80036;stroke-width:1.35;" x1="342.45" x2="419.85" y1="249.8766" y2="249.8766"/><line style="stroke:#A80036;stroke-width:1.35;" x1="342.45" x2="419.85" y1="257.0766" y2="257.0766"/><!--MD5=[0992d3fdc9d3d7c02b735131bb70871d]
class Goal--><rect fill="#FEFECE" filter="url(#ft8jf0f8dcftn)" height="43.2" id="Goal" style="stroke:#A80036;stroke-width:1.35;" width="52.2" x="217.35" y="318.2766"/><ellipse cx="230.85" cy="332.6766" fill="#ADD1B2" rx="9.9" ry="9.9" style="stroke:#A80036;stroke-width:0.9;"/><path d="M232.65,329.5266 Q232.8328,329.0766 233.0438,328.8516 Q233.2547,328.6266 233.4938,328.6266 Q233.9156,328.6266 234.1828,328.8797 Q234.45,329.1328 234.45,329.7234 L234.45,331.1297 Q234.45,331.7203 234.1969,331.9734 Q233.9438,332.2266 233.55,332.2266 Q233.1984,332.2266 232.9734,332.0719 Q232.7484,331.9172 232.65,331.5094 Q232.6078,331.2281 232.4531,331.0734 Q232.1719,330.7781 231.6656,330.6094 Q231.1594,330.4266 230.6531,330.4266 Q230.0203,330.4266 229.4859,330.6797 Q228.9656,330.9328 228.5578,331.4953 Q228.15,332.0578 228.15,332.8313 L228.15,333.6609 Q228.15,334.5891 228.9094,335.2078 Q229.6688,335.8266 231.0188,335.8266 Q231.8203,335.8266 232.3828,335.6438 Q232.7063,335.5453 233.0719,335.2219 Q233.3109,335.0391 233.4375,334.9828 Q233.5641,334.9266 233.7188,334.9266 Q234.0141,334.9266 234.225,335.1656 Q234.45,335.3906 234.45,335.7141 Q234.45,336.0234 234.1406,336.3891 Q233.6906,336.9234 232.9734,337.2188 Q232.0313,337.6266 230.8781,337.6266 Q229.5281,337.6266 228.4453,337.0922 Q227.5734,336.6703 226.9547,335.7563 Q226.35,334.8422 226.35,333.7594 L226.35,332.775 Q226.35,331.65 226.8844,330.6656 Q227.4328,329.6813 228.375,329.1609 Q229.3313,328.6266 230.4,328.6266 Q231.0469,328.6266 231.6094,328.8516 Q232.1719,329.0766 232.65,329.5266 Z " fill="#000000"/><text fill="#000000" font-family="sans-serif" font-size="10.8" lengthAdjust="spacing" textLength="23.4" x="243.45" y="337.0957">Goal</text><line style="stroke:#A80036;stroke-width:1.35;" x1="218.25" x2="268.65" y1="347.0766" y2="347.0766"/><line style="stroke:#A80036;stroke-width:1.35;" x1="218.25" x2="268.65" y1="354.2766" y2="354.2766"/><!--MD5=[d8c8cfd5ca149094f5b67f9f607a5ec7]
class Token--><rect fill="#FEFECE" filter="url(#ft8jf0f8dcftn)" height="43.2" id="Token" style="stroke:#A80036;stroke-width:1.35;" width="59.4" x="318.15" y="415.4766"/><ellipse cx="331.65" cy="429.8766" fill="#ADD1B2" rx="9.9" ry="9.9" style="stroke:#A80036;stroke-width:0.9;"/><path d="M333.45,426.7266 Q333.6328,426.2766 333.8438,426.0516 Q334.0547,425.8266 334.2938,425.8266 Q334.7156,425.8266 334.9828,426.0797 Q335.25,426.3328 335.25,426.9234 L335.25,428.3297 Q335.25,428.9203 334.9969,429.1734 Q334.7438,429.4266 334.35,429.4266 Q333.9984,429.4266 333.7734,429.2719 Q333.5484,429.1172 333.45,428.7094 Q333.4078,428.4281 333.2531,428.2734 Q332.9719,427.9781 332.4656,427.8094 Q331.9594,427.6266 331.4531,427.6266 Q330.8203,427.6266 330.2859,427.8797 Q329.7656,428.1328 329.3578,428.6953 Q328.95,429.2578 328.95,430.0313 L328.95,430.8609 Q328.95,431.7891 329.7094,432.4078 Q330.4688,433.0266 331.8188,433.0266 Q332.6203,433.0266 333.1828,432.8438 Q333.5063,432.7453 333.8719,432.4219 Q334.1109,432.2391 334.2375,432.1828 Q334.3641,432.1266 334.5188,432.1266 Q334.8141,432.1266 335.025,432.3656 Q335.25,432.5906 335.25,432.9141 Q335.25,433.2234 334.9406,433.5891 Q334.4906,434.1234 333.7734,434.4188 Q332.8313,434.8266 331.6781,434.8266 Q330.3281,434.8266 329.2453,434.2922 Q328.3734,433.8703 327.7547,432.9563 Q327.15,432.0422 327.15,430.9594 L327.15,429.975 Q327.15,428.85 327.6844,427.8656 Q328.2328,426.8813 329.175,426.3609 Q330.1313,425.8266 331.2,425.8266 Q331.8469,425.8266 332.4094,426.0516 Q332.9719,426.2766 333.45,426.7266 Z " fill="#000000"/><text fill="#000000" font-family="sans-serif" font-size="10.8" lengthAdjust="spacing" textLength="30.6" x="344.25" y="434.2957">Token</text><line style="stroke:#A80036;stroke-width:1.35;" x1="319.05" x2="376.65" y1="444.2766" y2="444.2766"/><line style="stroke:#A80036;stroke-width:1.35;" x1="319.05" x2="376.65" y1="451.4766" y2="451.4766"/><!--MD5=[9ddfc9bd1e3a4b04466623ab197feef8]
class Vertical--><rect fill="#FEFECE" filter="url(#ft8jf0f8dcftn)" height="43.2" id="Vertical" style="stroke:#A80036;stroke-width:1.35;" width="64.8" x="116.55" y="415.4766"/><ellipse cx="130.05" cy="429.8766" fill="#ADD1B2" rx="9.9" ry="9.9" style="stroke:#A80036;stroke-width:0.9;"/><path d="M131.85,426.7266 Q132.0328,426.2766 132.2438,426.0516 Q132.4547,425.8266 132.6938,425.8266 Q133.1156,425.8266 133.3828,426.0797 Q133.65,426.3328 133.65,426.9234 L133.65,428.3297 Q133.65,428.9203 133.3969,429.1734 Q133.1438,429.4266 132.75,429.4266 Q132.3984,429.4266 132.1734,429.2719 Q131.9484,429.1172 131.85,428.7094 Q131.8078,428.4281 131.6531,428.2734 Q131.3719,427.9781 130.8656,427.8094 Q130.3594,427.6266 129.8531,427.6266 Q129.2203,427.6266 128.6859,427.8797 Q128.1656,428.1328 127.7578,428.6953 Q127.35,429.2578 127.35,430.0313 L127.35,430.8609 Q127.35,431.7891 128.1094,432.4078 Q128.8688,433.0266 130.2188,433.0266 Q131.0203,433.0266 131.5828,432.8438 Q131.9063,432.7453 132.2719,432.4219 Q132.5109,432.2391 132.6375,432.1828 Q132.7641,432.1266 132.9188,432.1266 Q133.2141,432.1266 133.425,432.3656 Q133.65,432.5906 133.65,432.9141 Q133.65,433.2234 133.3406,433.5891 Q132.8906,434.1234 132.1734,434.4188 Q131.2313,434.8266 130.0781,434.8266 Q128.7281,434.8266 127.6453,434.2922 Q126.7734,433.8703 126.1547,432.9563 Q125.55,432.0422 125.55,430.9594 L125.55,429.975 Q125.55,428.85 126.0844,427.8656 Q126.6328,426.8813 127.575,426.3609 Q128.5313,425.8266 129.6,425.8266 Q130.2469,425.8266 130.8094,426.0516 Q131.3719,426.2766 131.85,426.7266 Z " fill="#000000"/><text fill="#000000" font-family="sans-serif" font-size="10.8" lengthAdjust="spacing" textLength="36" x="142.65" y="434.2957">Vertical</text><line style="stroke:#A80036;stroke-width:1.35;" x1="117.45" x2="180.45" y1="444.2766" y2="444.2766"/><line style="stroke:#A80036;stroke-width:1.35;" x1="117.45" x2="180.45" y1="451.4766" y2="451.4766"/><!--MD5=[a135607b44036ad87f368405615013d9]
class Diagonal--><rect fill="#FEFECE" filter="url(#ft8jf0f8dcftn)" height="43.2" id="Diagonal" style="stroke:#A80036;stroke-width:1.35;" width="73.8" x="212.85" y="415.4766"/><ellipse cx="226.35" cy="429.8766" fill="#ADD1B2" rx="9.9" ry="9.9" style="stroke:#A80036;stroke-width:0.9;"/><path d="M228.15,426.7266 Q228.3328,426.2766 228.5438,426.0516 Q228.7547,425.8266 228.9938,425.8266 Q229.4156,425.8266 229.6828,426.0797 Q229.95,426.3328 229.95,426.9234 L229.95,428.3297 Q229.95,428.9203 229.6969,429.1734 Q229.4438,429.4266 229.05,429.4266 Q228.6984,429.4266 228.4734,429.2719 Q228.2484,429.1172 228.15,428.7094 Q228.1078,428.4281 227.9531,428.2734 Q227.6719,427.9781 227.1656,427.8094 Q226.6594,427.6266 226.1531,427.6266 Q225.5203,427.6266 224.9859,427.8797 Q224.4656,428.1328 224.0578,428.6953 Q223.65,429.2578 223.65,430.0313 L223.65,430.8609 Q223.65,431.7891 224.4094,432.4078 Q225.1688,433.0266 226.5188,433.0266 Q227.3203,433.0266 227.8828,432.8438 Q228.2063,432.7453 228.5719,432.4219 Q228.8109,432.2391 228.9375,432.1828 Q229.0641,432.1266 229.2188,432.1266 Q229.5141,432.1266 229.725,432.3656 Q229.95,432.5906 229.95,432.9141 Q229.95,433.2234 229.6406,433.5891 Q229.1906,434.1234 228.4734,434.4188 Q227.5313,434.8266 226.3781,434.8266 Q225.0281,434.8266 223.9453,434.2922 Q223.0734,433.8703 222.4547,432.9563 Q221.85,432.0422 221.85,430.9594 L221.85,429.975 Q221.85,428.85 222.3844,427.8656 Q222.9328,426.8813 223.875,426.3609 Q224.8313,425.8266 225.9,425.8266 Q226.5469,425.8266 227.1094,426.0516 Q227.6719,426.2766 228.15,426.7266 Z " fill="#000000"/><text fill="#000000" font-family="sans-serif" font-size="10.8" lengthAdjust="spacing" textLength="45" x="238.95" y="434.2957">Diagonal</text><line style="stroke:#A80036;stroke-width:1.35;" x1="213.75" x2="285.75" y1="444.2766" y2="444.2766"/><line style="stroke:#A80036;stroke-width:1.35;" x1="213.75" x2="285.75" y1="451.4766" y2="451.4766"/><!--MD5=[2808de09be71fab9caf2df132bae0681]
class Horizontal--><rect fill="#FEFECE" filter="url(#ft8jf0f8dcftn)" height="43.2" id="Horizontal" style="stroke:#A80036;stroke-width:1.35;" width="78.3" x="6.3" y="415.4766"/><ellipse cx="19.8" cy="429.8766" fill="#ADD1B2" rx="9.9" ry="9.9" style="stroke:#A80036;stroke-width:0.9;"/><path d="M21.6,426.7266 Q21.7828,426.2766 21.9938,426.0516 Q22.2047,425.8266 22.4438,425.8266 Q22.8656,425.8266 23.1328,426.0797 Q23.4,426.3328 23.4,426.9234 L23.4,428.3297 Q23.4,428.9203 23.1469,429.1734 Q22.8938,429.4266 22.5,429.4266 Q22.1484,429.4266 21.9234,429.2719 Q21.6984,429.1172 21.6,428.7094 Q21.5578,428.4281 21.4031,428.2734 Q21.1219,427.9781 20.6156,427.8094 Q20.1094,427.6266 19.6031,427.6266 Q18.9703,427.6266 18.4359,427.8797 Q17.9156,428.1328 17.5078,428.6953 Q17.1,429.2578 17.1,430.0313 L17.1,430.8609 Q17.1,431.7891 17.8594,432.4078 Q18.6188,433.0266 19.9688,433.0266 Q20.7703,433.0266 21.3328,432.8438 Q21.6563,432.7453 22.0219,432.4219 Q22.2609,432.2391 22.3875,432.1828 Q22.5141,432.1266 22.6688,432.1266 Q22.9641,432.1266 23.175,432.3656 Q23.4,432.5906 23.4,432.9141 Q23.4,433.2234 23.0906,433.5891 Q22.6406,434.1234 21.9234,434.4188 Q20.9813,434.8266 19.8281,434.8266 Q18.4781,434.8266 17.3953,434.2922 Q16.5234,433.8703 15.9047,432.9563 Q15.3,432.0422 15.3,430.9594 L15.3,429.975 Q15.3,428.85 15.8344,427.8656 Q16.3828,426.8813 17.325,426.3609 Q18.2813,425.8266 19.35,425.8266 Q19.9969,425.8266 20.5594,426.0516 Q21.1219,426.2766 21.6,426.7266 Z " fill="#000000"/><text fill="#000000" font-family="sans-serif" font-size="10.8" lengthAdjust="spacing" textLength="49.5" x="32.4" y="434.2957">Horizontal</text><line style="stroke:#A80036;stroke-width:1.35;" x1="7.2" x2="83.7" y1="444.2766" y2="444.2766"/><line style="stroke:#A80036;stroke-width:1.35;" x1="7.2" x2="83.7" y1="451.4766" y2="451.4766"/><!--MD5=[5655ee3e2a0d028d03fe20f829576392]
class Square--><rect fill="#FEFECE" filter="url(#ft8jf0f8dcftn)" height="43.2" id="Square" style="stroke:#A80036;stroke-width:1.35;" width="64.8" x="432.45" y="318.2766"/><ellipse cx="445.95" cy="332.6766" fill="#ADD1B2" rx="9.9" ry="9.9" style="stroke:#A80036;stroke-width:0.9;"/><path d="M447.75,329.5266 Q447.9328,329.0766 448.1438,328.8516 Q448.3547,328.6266 448.5938,328.6266 Q449.0156,328.6266 449.2828,328.8797 Q449.55,329.1328 449.55,329.7234 L449.55,331.1297 Q449.55,331.7203 449.2969,331.9734 Q449.0438,332.2266 448.65,332.2266 Q448.2984,332.2266 448.0734,332.0719 Q447.8484,331.9172 447.75,331.5094 Q447.7078,331.2281 447.5531,331.0734 Q447.2719,330.7781 446.7656,330.6094 Q446.2594,330.4266 445.7531,330.4266 Q445.1203,330.4266 444.5859,330.6797 Q444.0656,330.9328 443.6578,331.4953 Q443.25,332.0578 443.25,332.8313 L443.25,333.6609 Q443.25,334.5891 444.0094,335.2078 Q444.7688,335.8266 446.1188,335.8266 Q446.9203,335.8266 447.4828,335.6438 Q447.8063,335.5453 448.1719,335.2219 Q448.4109,335.0391 448.5375,334.9828 Q448.6641,334.9266 448.8188,334.9266 Q449.1141,334.9266 449.325,335.1656 Q449.55,335.3906 449.55,335.7141 Q449.55,336.0234 449.2406,336.3891 Q448.7906,336.9234 448.0734,337.2188 Q447.1313,337.6266 445.9781,337.6266 Q444.6281,337.6266 443.5453,337.0922 Q442.6734,336.6703 442.0547,335.7563 Q441.45,334.8422 441.45,333.7594 L441.45,332.775 Q441.45,331.65 441.9844,330.6656 Q442.5328,329.6813 443.475,329.1609 Q444.4313,328.6266 445.5,328.6266 Q446.1469,328.6266 446.7094,328.8516 Q447.2719,329.0766 447.75,329.5266 Z " fill="#000000"/><text fill="#000000" font-family="sans-serif" font-size="10.8" lengthAdjust="spacing" textLength="36" x="458.55" y="337.0957">Square</text><line style="stroke:#A80036;stroke-width:1.35;" x1="433.35" x2="496.35" y1="347.0766" y2="347.0766"/><line style="stroke:#A80036;stroke-width:1.35;" x1="433.35" x2="496.35" y1="354.2766" y2="354.2766"/><!--MD5=[e06ef809dd6be8ce79b58fe0a1161eb8]
class Column--><rect fill="#FEFECE" filter="url(#ft8jf0f8dcftn)" height="43.2" id="Column" style="stroke:#A80036;stroke-width:1.35;" width="68.4" x="424.35" y="415.4766"/><ellipse cx="437.85" cy="429.8766" fill="#ADD1B2" rx="9.9" ry="9.9" style="stroke:#A80036;stroke-width:0.9;"/><path d="M439.65,426.7266 Q439.8328,426.2766 440.0438,426.0516 Q440.2547,425.8266 440.4938,425.8266 Q440.9156,425.8266 441.1828,426.0797 Q441.45,426.3328 441.45,426.9234 L441.45,428.3297 Q441.45,428.9203 441.1969,429.1734 Q440.9438,429.4266 440.55,429.4266 Q440.1984,429.4266 439.9734,429.2719 Q439.7484,429.1172 439.65,428.7094 Q439.6078,428.4281 439.4531,428.2734 Q439.1719,427.9781 438.6656,427.8094 Q438.1594,427.6266 437.6531,427.6266 Q437.0203,427.6266 436.4859,427.8797 Q435.9656,428.1328 435.5578,428.6953 Q435.15,429.2578 435.15,430.0313 L435.15,430.8609 Q435.15,431.7891 435.9094,432.4078 Q436.6688,433.0266 438.0188,433.0266 Q438.8203,433.0266 439.3828,432.8438 Q439.7063,432.7453 440.0719,432.4219 Q440.3109,432.2391 440.4375,432.1828 Q440.5641,432.1266 440.7188,432.1266 Q441.0141,432.1266 441.225,432.3656 Q441.45,432.5906 441.45,432.9141 Q441.45,433.2234 441.1406,433.5891 Q440.6906,434.1234 439.9734,434.4188 Q439.0313,434.8266 437.8781,434.8266 Q436.5281,434.8266 435.4453,434.2922 Q434.5734,433.8703 433.9547,432.9563 Q433.35,432.0422 433.35,430.9594 L433.35,429.975 Q433.35,428.85 433.8844,427.8656 Q434.4328,426.8813 435.375,426.3609 Q436.3313,425.8266 437.4,425.8266 Q438.0469,425.8266 438.6094,426.0516 Q439.1719,426.2766 439.65,426.7266 Z " fill="#000000"/><text fill="#000000" font-family="sans-serif" font-size="10.8" lengthAdjust="spacing" textLength="39.6" x="450.45" y="434.2957">Column</text><line style="stroke:#A80036;stroke-width:1.35;" x1="425.25" x2="491.85" y1="444.2766" y2="444.2766"/><line style="stroke:#A80036;stroke-width:1.35;" x1="425.25" x2="491.85" y1="451.4766" y2="451.4766"/><!--MD5=[63dd87716ef75a5caca5dce59428e94a]
class File--><rect fill="#FEFECE" filter="url(#ft8jf0f8dcftn)" height="43.2" id="File" style="stroke:#A80036;stroke-width:1.35;" width="46.8" x="524.25" y="415.4766"/><ellipse cx="537.75" cy="429.8766" fill="#ADD1B2" rx="9.9" ry="9.9" style="stroke:#A80036;stroke-width:0.9;"/><path d="M539.55,426.7266 Q539.7328,426.2766 539.9438,426.0516 Q540.1547,425.8266 540.3938,425.8266 Q540.8156,425.8266 541.0828,426.0797 Q541.35,426.3328 541.35,426.9234 L541.35,428.3297 Q541.35,428.9203 541.0969,429.1734 Q540.8438,429.4266 540.45,429.4266 Q540.0984,429.4266 539.8734,429.2719 Q539.6484,429.1172 539.55,428.7094 Q539.5078,428.4281 539.3531,428.2734 Q539.0719,427.9781 538.5656,427.8094 Q538.0594,427.6266 537.5531,427.6266 Q536.9203,427.6266 536.3859,427.8797 Q535.8656,428.1328 535.4578,428.6953 Q535.05,429.2578 535.05,430.0313 L535.05,430.8609 Q535.05,431.7891 535.8094,432.4078 Q536.5688,433.0266 537.9188,433.0266 Q538.7203,433.0266 539.2828,432.8438 Q539.6063,432.7453 539.9719,432.4219 Q540.2109,432.2391 540.3375,432.1828 Q540.4641,432.1266 540.6188,432.1266 Q540.9141,432.1266 541.125,432.3656 Q541.35,432.5906 541.35,432.9141 Q541.35,433.2234 541.0406,433.5891 Q540.5906,434.1234 539.8734,434.4188 Q538.9313,434.8266 537.7781,434.8266 Q536.4281,434.8266 535.3453,434.2922 Q534.4734,433.8703 533.8547,432.9563 Q533.25,432.0422 533.25,430.9594 L533.25,429.975 Q533.25,428.85 533.7844,427.8656 Q534.3328,426.8813 535.275,426.3609 Q536.2313,425.8266 537.3,425.8266 Q537.9469,425.8266 538.5094,426.0516 Q539.0719,426.2766 539.55,426.7266 Z " fill="#000000"/><text fill="#000000" font-family="sans-serif" font-size="10.8" lengthAdjust="spacing" textLength="18" x="550.35" y="434.2957">File</text><line style="stroke:#A80036;stroke-width:1.35;" x1="525.15" x2="570.15" y1="444.2766" y2="444.2766"/><line style="stroke:#A80036;stroke-width:1.35;" x1="525.15" x2="570.15" y1="451.4766" y2="451.4766"/><!--MD5=[6824fd9902778444ee49992acd2ffe7e]
link Connect4 to Turn--><path codeLine="8" d="M373.95,80.6766 C373.95,80.6766 373.95,101.9886 373.95,111.6006 " fill="none" id="Connect4-Turn" style="stroke:#A80036;stroke-width:0.9;"/><polygon fill="#A80036" points="373.95,123.5886,377.55,115.4886,373.95,119.0886,370.35,115.4886,373.95,123.5886" style="stroke:#A80036;stroke-width:0.9;"/><line style="stroke:#A80036;stroke-width:0.9;" x1="373.95" x2="373.95" y1="119.0886" y2="111.8886"/><polygon fill="#A80036" points="373.95,69.8766,370.35,75.2766,373.95,80.6766,377.55,75.2766,373.95,69.8766" style="stroke:#A80036;stroke-width:0.9;"/><!--MD5=[5426a1d26e36fcd61d30da6b8a6545ec]
link Connect4 to Board--><path codeLine="9" d="M400.8941,77.7296 C400.8941,77.7296 424.917,103.2036 435.807,114.7416 " fill="none" id="Connect4-Board" style="stroke:#A80036;stroke-width:0.9;"/><polygon fill="#A80036" points="444.15,123.5886,441.2138,115.225,441.0634,120.314,435.9744,120.1636,444.15,123.5886" style="stroke:#A80036;stroke-width:0.9;"/><line style="stroke:#A80036;stroke-width:0.9;" x1="441.0634" x2="436.122" y1="120.314" y2="115.0746"/><polygon fill="#A80036" points="393.48,69.8766,394.5694,76.2745,400.8941,77.7296,399.8048,71.3317,393.48,69.8766" style="stroke:#A80036;stroke-width:0.9;"/><!--MD5=[46750473935a00282743b47f522de7be]
link Connect4 to Player--><path codeLine="10" d="M356.3246,79.5428 C356.3246,79.5428 339.723,109.4586 332.55,123.8766 C318.249,152.6406 303.57,186.2106 293.445,210.1506 " fill="none" id="Connect4-Player" style="stroke:#A80036;stroke-width:0.9;"/><polygon fill="#A80036" points="288.855,221.0766,295.3084,215.0001,290.5959,216.927,288.669,212.2145,288.855,221.0766" style="stroke:#A80036;stroke-width:0.9;"/><line style="stroke:#A80036;stroke-width:0.9;" x1="290.5959" x2="293.3865" y1="216.927" y2="210.2856"/><polygon fill="#A80036" points="361.665,70.1556,355.8657,73.069,356.3246,79.5428,362.1239,76.6293,361.665,70.1556" style="stroke:#A80036;stroke-width:0.9;"/><text fill="#000000" font-family="sans-serif" font-size="11.7" lengthAdjust="spacing" textLength="6.3" x="283.9272" y="211.4827">2</text><!--MD5=[d81713d91ad05be3b975338c4816ee0b]
link Turn to Player--><path codeLine="11" d="M353.637,167.0766 C339.147,181.8546 319.59,201.7806 304.326,217.3326 " fill="none" id="Turn-to-Player" style="stroke:#A80036;stroke-width:0.9;"/><polygon fill="#A80036" points="300.942,220.7886,309.1826,217.5232,304.0917,217.5746,304.0403,212.4837,300.942,220.7886" style="stroke:#A80036;stroke-width:0.9;"/><!--MD5=[7b8fff27d440bd23965a7daade9ae84b]
link Turn to Movement--><path codeLine="12" d="M375.516,167.0766 C376.596,181.4766 378.054,200.7816 379.215,216.1536 " fill="none" id="Turn-to-Movement" style="stroke:#A80036;stroke-width:0.9;"/><polygon fill="#A80036" points="379.566,220.7886,382.5543,212.4435,379.2317,216.301,375.3742,212.9784,379.566,220.7886" style="stroke:#A80036;stroke-width:0.9;"/><!--MD5=[1ad83951092332a7498624a6eb78487b]
link Goal to Token--><path codeLine="13" d="M266.103,361.4766 C282.411,376.3716 304.443,396.5136 321.534,412.1286 " fill="none" id="Goal-to-Token" style="stroke:#A80036;stroke-width:0.9;"/><polygon fill="#A80036" points="324.882,415.1886,321.3195,407.072,321.5558,412.1577,316.4701,412.394,324.882,415.1886" style="stroke:#A80036;stroke-width:0.9;"/><text fill="#000000" font-family="sans-serif" font-size="11.7" lengthAdjust="spacing" textLength="6.3" x="312.2157" y="405.8825">4</text><!--MD5=[525e20984b3f0335f86e1ed389de5b3d]
link Player to Token--><path codeLine="14" d="M287.703,264.5556 C300.204,300.2316 325.557,372.5646 339.003,410.9406 " fill="none" id="Player-to-Token" style="stroke:#A80036;stroke-width:0.9;"/><polygon fill="#A80036" points="340.506,415.2246,341.2161,406.3891,339.0137,410.9792,334.4236,408.7768,340.506,415.2246" style="stroke:#A80036;stroke-width:0.9;"/><text fill="#000000" font-family="sans-serif" font-size="11.7" lengthAdjust="spacing" textLength="12.6" x="324.4097" y="405.5661">21</text><!--MD5=[1571e4e0b7cdbae74b04c97a95677c54]
link Player to Goal--><path codeLine="15" d="M272.34,264.2766 C266.724,278.8026 259.182,298.3146 253.206,313.7496 " fill="none" id="Player-to-Goal" style="stroke:#A80036;stroke-width:0.9;"/><polygon fill="#A80036" points="251.568,317.9886,257.8563,311.7413,253.1972,313.7938,251.1447,309.1347,251.568,317.9886" style="stroke:#A80036;stroke-width:0.9;"/><!--MD5=[3e26d6834a71a9527f7b0beabb13c375]
reverse link Goal to Vertical--><path codeLine="16" d="M210.213,374.3286 C196.74,387.9276 181.602,403.2186 169.74,415.1886 " fill="none" id="Goal-backto-Vertical" style="stroke:#A80036;stroke-width:0.9;"/><polygon fill="none" points="205.803,369.8286,222.948,361.4766,214.749,378.7026,205.803,369.8286" style="stroke:#A80036;stroke-width:0.9;"/><!--MD5=[5a16bdf27515cf253385e973d6fbc781]
reverse link Goal to Diagonal--><path codeLine="17" d="M246.006,379.4946 C246.816,391.6986 247.671,404.7126 248.364,415.1886 " fill="none" id="Goal-backto-Diagonal" style="stroke:#A80036;stroke-width:0.9;"/><polygon fill="none" points="239.715,379.8546,244.818,361.4766,252.288,379.0266,239.715,379.8546" style="stroke:#A80036;stroke-width:0.9;"/><!--MD5=[9c078bc154f9dba995e32f4ec3d43872]
reverse link Goal to Horizontal--><path codeLine="18" d="M200.781,361.3326 C166.374,377.9106 118.35,401.0496 84.843,417.1956 " fill="none" id="Goal-backto-Horizontal" style="stroke:#A80036;stroke-width:0.9;"/><polygon fill="none" points="198.207,355.5816,217.161,353.4486,203.679,366.9306,198.207,355.5816" style="stroke:#A80036;stroke-width:0.9;"/><!--MD5=[4ad96441c8a01d959d4bf4f2a5e1a798]
link Board to Square--><path codeLine="19" d="M464.0965,178.1555 C464.0965,178.1555 464.535,270.8106 464.697,306.2166 " fill="none" id="Board-Square" style="stroke:#A80036;stroke-width:0.9;"/><polygon fill="#A80036" points="464.751,318.0246,468.3154,309.9088,464.7312,313.5246,461.1154,309.9405,464.751,318.0246" style="stroke:#A80036;stroke-width:0.9;"/><line style="stroke:#A80036;stroke-width:0.9;" x1="464.7312" x2="464.697" y1="313.5246" y2="306.3246"/><polygon fill="#A80036" points="464.049,167.3556,460.4728,172.7713,464.0965,178.1555,467.6727,172.7397,464.049,167.3556" style="stroke:#A80036;stroke-width:0.9;"/><!--MD5=[304335c530676c0c2555e056aeeb939b]
link Token to Color--><path codeLine="20" d="M347.85,458.8026 C347.85,472.6986 347.85,491.3736 347.85,507.8796 " fill="none" id="Token-to-Color" style="stroke:#A80036;stroke-width:0.9;"/><polygon fill="#A80036" points="347.85,512.4696,351.45,504.3696,347.85,507.9696,344.25,504.3696,347.85,512.4696" style="stroke:#A80036;stroke-width:0.9;"/><!--MD5=[011384f1cb63fd9a6a84a4e1998a99e0]
link Movement to Token--><path codeLine="21" d="M377.523,264.5556 C371.367,300.1596 358.902,372.2676 352.251,410.7066 " fill="none" id="Movement-to-Token" style="stroke:#A80036;stroke-width:0.9;"/><polygon fill="#A80036" points="351.477,415.2246,356.4116,407.8612,352.248,410.7911,349.3181,406.6275,351.477,415.2246" style="stroke:#A80036;stroke-width:0.9;"/><!--MD5=[d3c8f1fe25b01fae3b918abbea521f53]
link Movement to Square--><path codeLine="22" d="M399.312,264.2766 C412.272,279.0546 429.759,298.9806 443.403,314.5326 " fill="none" id="Movement-to-Square" style="stroke:#A80036;stroke-width:0.9;"/><polygon fill="#A80036" points="446.436,317.9886,443.8137,309.5214,443.4736,314.6012,438.3938,314.2611,446.436,317.9886" style="stroke:#A80036;stroke-width:0.9;"/><!--MD5=[0f2f9f456f6fde234ed10f53385b10db]
link Square to Column--><path codeLine="23" d="M463.482,361.4766 C462.528,375.8766 461.259,395.1816 460.242,410.5536 " fill="none" id="Square-to-Column" style="stroke:#A80036;stroke-width:0.9;"/><polygon fill="#A80036" points="459.936,415.1886,464.0594,407.3421,460.2311,410.6982,456.8749,406.8699,459.936,415.1886" style="stroke:#A80036;stroke-width:0.9;"/><!--MD5=[d5c449aca7f273d6632c3a458412d5cd]
link Square to File--><path codeLine="24" d="M482.814,361.4766 C495.639,376.2546 512.937,396.1806 526.437,411.7326 " fill="none" id="Square-to-File" style="stroke:#A80036;stroke-width:0.9;"/><polygon fill="#A80036" points="529.434,415.1886,526.8459,406.7108,526.4853,411.7892,521.407,411.4287,529.434,415.1886" style="stroke:#A80036;stroke-width:0.9;"/><!--MD5=[283929a3de3476392749e22fa258f3ae]
@startuml
title Connect4

enum Color{
RED
BLACK
}

Connect4 *- -> Turn
Connect4 *- -> Board
Connect4 *- -> "2" Player
Turn - -> Player
Turn - -> Movement
Goal - -> "4" Token
Player - -> "21" Token
Player - -> Goal
Goal <|- - Vertical
Goal <|- - Diagonal
Goal <|- - Horizontal
Board *- -> Square
Token - -> Color
Movement - -> Token
Movement - -> Square
Square - -> Column
Square - -> File

@enduml

PlantUML version 1.2022.1(Tue Feb 01 19:19:58 CET 2022)
(GPL source distribution)
Java Runtime: OpenJDK Runtime Environment
JVM: OpenJDK 64-Bit Server VM
Default Encoding: Cp1252
Language: es
Country: ES
--></g></svg>