<?xml version="1.0" encoding="UTF-8" standalone="no"?><svg xmlns="http://www.w3.org/2000/svg" xmlns:xlink="http://www.w3.org/1999/xlink" contentScriptType="application/ecmascript" contentStyleType="text/css" height="767px" preserveAspectRatio="none" style="width:643px;height:767px;background:#FFFFFF;" version="1.1" viewBox="0 0 643 767" width="643px" zoomAndPan="magnify"><defs><filter height="300%" id="f1q6s0anvc9vm" width="300%" x="-1" y="-1"><feGaussianBlur result="blurOut" stdDeviation="2.0"/><feColorMatrix in="blurOut" result="blurOut2" type="matrix" values="0 0 0 0 0 0 0 0 0 0 0 0 0 0 0 0 0 0 .4 0"/><feOffset dx="4.0" dy="4.0" in="blurOut2" result="blurOut3"/><feBlend in="SourceGraphic" in2="blurOut3" mode="normal"/></filter></defs><g><text fill="#000000" font-family="sans-serif" font-size="18" lengthAdjust="spacing" textLength="77" x="276.505" y="18.6855">Connect4</text><!--MD5=[18eee71c88ab61f27581b8cbdd3ef5ee]
class Color--><rect codeLine="3" fill="#FEFECE" filter="url(#f1q6s0anvc9vm)" height="75.6719" id="Color" style="stroke:#A80036;stroke-width:1.5;" width="62" x="359.01" y="677.6406"/><ellipse cx="374.01" cy="693.6406" fill="#EB937F" rx="11" ry="11" style="stroke:#A80036;stroke-width:1.0;"/><path d="M372.51,694.6406 L372.51,696.6406 L376.51,696.6406 L376.51,695.6406 L376.51,695.1563 L377.135,694.6406 L377.51,694.6406 L377.885,694.6406 L378.51,695.1563 L378.51,695.6406 L378.51,698.6406 L370.51,698.6406 L370.0256,698.6406 L369.51,698.0156 L369.51,697.6406 L369.51,697.2656 L370.0256,696.6406 L370.51,696.6406 L370.51,696.6406 L370.51,690.6406 L370.51,690.6406 L370.0256,690.6406 L369.51,690.0156 L369.51,689.6406 L369.51,689.2656 L370.0256,688.6406 L370.51,688.6406 L378.51,688.6406 L378.51,691.6406 L378.51,692.125 L377.885,692.6406 L377.51,692.6406 L377.135,692.6406 L376.51,692.125 L376.51,691.6406 L376.51,690.6406 L372.51,690.6406 L372.51,692.6406 L373.51,692.6406 L373.51,692.1563 L373.51,692.1563 L374.135,691.6406 L374.51,691.6406 L374.885,691.6406 L375.51,692.1563 L375.51,692.6406 L375.51,694.6406 L375.51,695.125 L374.885,695.6406 L374.885,695.6406 L374.51,695.6406 L374.135,695.6406 L373.51,695.125 L373.51,695.125 L373.51,694.6406 L372.51,694.6406 Z " fill="#000000"/><text fill="#000000" font-family="sans-serif" font-size="12" lengthAdjust="spacing" textLength="30" x="388.01" y="698.5508">Color</text><line style="stroke:#A80036;stroke-width:1.5;" x1="360.01" x2="420.01" y1="709.6406" y2="709.6406"/><text fill="#000000" font-family="sans-serif" font-size="11" lengthAdjust="spacing" textLength="20" x="365.01" y="725.0596">RED</text><text fill="#000000" font-family="sans-serif" font-size="11" lengthAdjust="spacing" textLength="44" x="365.01" y="738.8955">YELLOW</text><line style="stroke:#A80036;stroke-width:1.5;" x1="360.01" x2="420.01" y1="745.3125" y2="745.3125"/><!--MD5=[10b1f240992e2c34b6908209bf85bfd2]
class Connect4--><rect fill="#FEFECE" filter="url(#f1q6s0anvc9vm)" height="48" id="Connect4" style="stroke:#A80036;stroke-width:1.5;" width="85" x="434.51" y="29.6406"/><ellipse cx="449.51" cy="45.6406" fill="#ADD1B2" rx="11" ry="11" style="stroke:#A80036;stroke-width:1.0;"/><path d="M451.51,42.1406 Q451.7131,41.6406 451.9475,41.3906 Q452.1819,41.1406 452.4475,41.1406 Q452.9163,41.1406 453.2131,41.4219 Q453.51,41.7031 453.51,42.3594 L453.51,43.9219 Q453.51,44.5781 453.2288,44.8594 Q452.9475,45.1406 452.51,45.1406 Q452.1194,45.1406 451.8694,44.9688 Q451.6194,44.7969 451.51,44.3438 Q451.4631,44.0313 451.2913,43.8594 Q450.9788,43.5313 450.4163,43.3438 Q449.8538,43.1406 449.2913,43.1406 Q448.5881,43.1406 447.9944,43.4219 Q447.4163,43.7031 446.9631,44.3281 Q446.51,44.9531 446.51,45.8125 L446.51,46.7344 Q446.51,47.7656 447.3538,48.4531 Q448.1975,49.1406 449.6975,49.1406 Q450.5881,49.1406 451.2131,48.9375 Q451.5725,48.8281 451.9788,48.4688 Q452.2444,48.2656 452.385,48.2031 Q452.5256,48.1406 452.6975,48.1406 Q453.0256,48.1406 453.26,48.4063 Q453.51,48.6563 453.51,49.0156 Q453.51,49.3594 453.1663,49.7656 Q452.6663,50.3594 451.8694,50.6875 Q450.8225,51.1406 449.5413,51.1406 Q448.0413,51.1406 446.8381,50.5469 Q445.8694,50.0781 445.1819,49.0625 Q444.51,48.0469 444.51,46.8438 L444.51,45.75 Q444.51,44.5 445.1038,43.4063 Q445.7131,42.3125 446.76,41.7344 Q447.8225,41.1406 449.01,41.1406 Q449.7288,41.1406 450.3538,41.3906 Q450.9788,41.6406 451.51,42.1406 Z " fill="#000000"/><text fill="#000000" font-family="sans-serif" font-size="12" lengthAdjust="spacing" textLength="53" x="463.51" y="50.5508">Connect4</text><line style="stroke:#A80036;stroke-width:1.5;" x1="435.51" x2="518.51" y1="61.6406" y2="61.6406"/><line style="stroke:#A80036;stroke-width:1.5;" x1="435.51" x2="518.51" y1="69.6406" y2="69.6406"/><!--MD5=[dd91eae41778c45e12552e5329e240e8]
class Turn--><rect fill="#FEFECE" filter="url(#f1q6s0anvc9vm)" height="48" id="Turn" style="stroke:#A80036;stroke-width:1.5;" width="57" x="448.51" y="137.6406"/><ellipse cx="463.51" cy="153.6406" fill="#ADD1B2" rx="11" ry="11" style="stroke:#A80036;stroke-width:1.0;"/><path d="M465.51,150.1406 Q465.7131,149.6406 465.9475,149.3906 Q466.1819,149.1406 466.4475,149.1406 Q466.9163,149.1406 467.2131,149.4219 Q467.51,149.7031 467.51,150.3594 L467.51,151.9219 Q467.51,152.5781 467.2288,152.8594 Q466.9475,153.1406 466.51,153.1406 Q466.1194,153.1406 465.8694,152.9688 Q465.6194,152.7969 465.51,152.3438 Q465.4631,152.0313 465.2913,151.8594 Q464.9788,151.5313 464.4163,151.3438 Q463.8538,151.1406 463.2913,151.1406 Q462.5881,151.1406 461.9944,151.4219 Q461.4163,151.7031 460.9631,152.3281 Q460.51,152.9531 460.51,153.8125 L460.51,154.7344 Q460.51,155.7656 461.3538,156.4531 Q462.1975,157.1406 463.6975,157.1406 Q464.5881,157.1406 465.2131,156.9375 Q465.5725,156.8281 465.9788,156.4688 Q466.2444,156.2656 466.385,156.2031 Q466.5256,156.1406 466.6975,156.1406 Q467.0256,156.1406 467.26,156.4063 Q467.51,156.6563 467.51,157.0156 Q467.51,157.3594 467.1663,157.7656 Q466.6663,158.3594 465.8694,158.6875 Q464.8225,159.1406 463.5413,159.1406 Q462.0413,159.1406 460.8381,158.5469 Q459.8694,158.0781 459.1819,157.0625 Q458.51,156.0469 458.51,154.8438 L458.51,153.75 Q458.51,152.5 459.1038,151.4063 Q459.7131,150.3125 460.76,149.7344 Q461.8225,149.1406 463.01,149.1406 Q463.7288,149.1406 464.3538,149.3906 Q464.9788,149.6406 465.51,150.1406 Z " fill="#000000"/><text fill="#000000" font-family="sans-serif" font-size="12" lengthAdjust="spacing" textLength="25" x="477.51" y="158.5508">Turn</text><line style="stroke:#A80036;stroke-width:1.5;" x1="449.51" x2="504.51" y1="169.6406" y2="169.6406"/><line style="stroke:#A80036;stroke-width:1.5;" x1="449.51" x2="504.51" y1="177.6406" y2="177.6406"/><!--MD5=[9563755d011c5cec7ec66dc53565a59e]
class Board--><rect fill="#FEFECE" filter="url(#f1q6s0anvc9vm)" height="48" id="Board" style="stroke:#A80036;stroke-width:1.5;" width="65" x="546.51" y="245.6406"/><ellipse cx="561.51" cy="261.6406" fill="#ADD1B2" rx="11" ry="11" style="stroke:#A80036;stroke-width:1.0;"/><path d="M563.51,258.1406 Q563.7131,257.6406 563.9475,257.3906 Q564.1819,257.1406 564.4475,257.1406 Q564.9163,257.1406 565.2131,257.4219 Q565.51,257.7031 565.51,258.3594 L565.51,259.9219 Q565.51,260.5781 565.2288,260.8594 Q564.9475,261.1406 564.51,261.1406 Q564.1194,261.1406 563.8694,260.9688 Q563.6194,260.7969 563.51,260.3438 Q563.4631,260.0313 563.2913,259.8594 Q562.9788,259.5313 562.4163,259.3438 Q561.8538,259.1406 561.2913,259.1406 Q560.5881,259.1406 559.9944,259.4219 Q559.4163,259.7031 558.9631,260.3281 Q558.51,260.9531 558.51,261.8125 L558.51,262.7344 Q558.51,263.7656 559.3538,264.4531 Q560.1975,265.1406 561.6975,265.1406 Q562.5881,265.1406 563.2131,264.9375 Q563.5725,264.8281 563.9788,264.4688 Q564.2444,264.2656 564.385,264.2031 Q564.5256,264.1406 564.6975,264.1406 Q565.0256,264.1406 565.26,264.4063 Q565.51,264.6563 565.51,265.0156 Q565.51,265.3594 565.1663,265.7656 Q564.6663,266.3594 563.8694,266.6875 Q562.8225,267.1406 561.5413,267.1406 Q560.0413,267.1406 558.8381,266.5469 Q557.8694,266.0781 557.1819,265.0625 Q556.51,264.0469 556.51,262.8438 L556.51,261.75 Q556.51,260.5 557.1038,259.4063 Q557.7131,258.3125 558.76,257.7344 Q559.8225,257.1406 561.01,257.1406 Q561.7288,257.1406 562.3538,257.3906 Q562.9788,257.6406 563.51,258.1406 Z " fill="#000000"/><text fill="#000000" font-family="sans-serif" font-size="12" lengthAdjust="spacing" textLength="33" x="575.51" y="266.5508">Board</text><line style="stroke:#A80036;stroke-width:1.5;" x1="547.51" x2="610.51" y1="277.6406" y2="277.6406"/><line style="stroke:#A80036;stroke-width:1.5;" x1="547.51" x2="610.51" y1="285.6406" y2="285.6406"/><!--MD5=[2cb47ba637a0d19583e6199456f6ad0b]
class Player--><rect fill="#FEFECE" filter="url(#f1q6s0anvc9vm)" height="48" id="Player" style="stroke:#A80036;stroke-width:1.5;" width="66" x="359.01" y="245.6406"/><ellipse cx="374.01" cy="261.6406" fill="#ADD1B2" rx="11" ry="11" style="stroke:#A80036;stroke-width:1.0;"/><path d="M376.01,258.1406 Q376.2131,257.6406 376.4475,257.3906 Q376.6819,257.1406 376.9475,257.1406 Q377.4163,257.1406 377.7131,257.4219 Q378.01,257.7031 378.01,258.3594 L378.01,259.9219 Q378.01,260.5781 377.7288,260.8594 Q377.4475,261.1406 377.01,261.1406 Q376.6194,261.1406 376.3694,260.9688 Q376.1194,260.7969 376.01,260.3438 Q375.9631,260.0313 375.7913,259.8594 Q375.4788,259.5313 374.9163,259.3438 Q374.3538,259.1406 373.7913,259.1406 Q373.0881,259.1406 372.4944,259.4219 Q371.9163,259.7031 371.4631,260.3281 Q371.01,260.9531 371.01,261.8125 L371.01,262.7344 Q371.01,263.7656 371.8538,264.4531 Q372.6975,265.1406 374.1975,265.1406 Q375.0881,265.1406 375.7131,264.9375 Q376.0725,264.8281 376.4788,264.4688 Q376.7444,264.2656 376.885,264.2031 Q377.0256,264.1406 377.1975,264.1406 Q377.5256,264.1406 377.76,264.4063 Q378.01,264.6563 378.01,265.0156 Q378.01,265.3594 377.6663,265.7656 Q377.1663,266.3594 376.3694,266.6875 Q375.3225,267.1406 374.0413,267.1406 Q372.5413,267.1406 371.3381,266.5469 Q370.3694,266.0781 369.6819,265.0625 Q369.01,264.0469 369.01,262.8438 L369.01,261.75 Q369.01,260.5 369.6038,259.4063 Q370.2131,258.3125 371.26,257.7344 Q372.3225,257.1406 373.51,257.1406 Q374.2288,257.1406 374.8538,257.3906 Q375.4788,257.6406 376.01,258.1406 Z " fill="#000000"/><text fill="#000000" font-family="sans-serif" font-size="12" lengthAdjust="spacing" textLength="34" x="388.01" y="266.5508">Player</text><line style="stroke:#A80036;stroke-width:1.5;" x1="360.01" x2="424.01" y1="277.6406" y2="277.6406"/><line style="stroke:#A80036;stroke-width:1.5;" x1="360.01" x2="424.01" y1="285.6406" y2="285.6406"/><!--MD5=[f04eddc513368489aea0358c3d51bf6a]
class Insertion--><rect fill="#FEFECE" filter="url(#f1q6s0anvc9vm)" height="48" id="Insertion" style="stroke:#A80036;stroke-width:1.5;" width="80" x="456.01" y="461.6406"/><ellipse cx="471.01" cy="477.6406" fill="#ADD1B2" rx="11" ry="11" style="stroke:#A80036;stroke-width:1.0;"/><path d="M473.01,474.1406 Q473.2131,473.6406 473.4475,473.3906 Q473.6819,473.1406 473.9475,473.1406 Q474.4163,473.1406 474.7131,473.4219 Q475.01,473.7031 475.01,474.3594 L475.01,475.9219 Q475.01,476.5781 474.7288,476.8594 Q474.4475,477.1406 474.01,477.1406 Q473.6194,477.1406 473.3694,476.9688 Q473.1194,476.7969 473.01,476.3438 Q472.9631,476.0313 472.7913,475.8594 Q472.4788,475.5313 471.9163,475.3438 Q471.3538,475.1406 470.7913,475.1406 Q470.0881,475.1406 469.4944,475.4219 Q468.9163,475.7031 468.4631,476.3281 Q468.01,476.9531 468.01,477.8125 L468.01,478.7344 Q468.01,479.7656 468.8538,480.4531 Q469.6975,481.1406 471.1975,481.1406 Q472.0881,481.1406 472.7131,480.9375 Q473.0725,480.8281 473.4788,480.4688 Q473.7444,480.2656 473.885,480.2031 Q474.0256,480.1406 474.1975,480.1406 Q474.5256,480.1406 474.76,480.4063 Q475.01,480.6563 475.01,481.0156 Q475.01,481.3594 474.6663,481.7656 Q474.1663,482.3594 473.3694,482.6875 Q472.3225,483.1406 471.0413,483.1406 Q469.5413,483.1406 468.3381,482.5469 Q467.3694,482.0781 466.6819,481.0625 Q466.01,480.0469 466.01,478.8438 L466.01,477.75 Q466.01,476.5 466.6038,475.4063 Q467.2131,474.3125 468.26,473.7344 Q469.3225,473.1406 470.51,473.1406 Q471.2288,473.1406 471.8538,473.3906 Q472.4788,473.6406 473.01,474.1406 Z " fill="#000000"/><text fill="#000000" font-family="sans-serif" font-size="12" lengthAdjust="spacing" textLength="48" x="485.01" y="482.5508">Insertion</text><line style="stroke:#A80036;stroke-width:1.5;" x1="457.01" x2="535.01" y1="493.6406" y2="493.6406"/><line style="stroke:#A80036;stroke-width:1.5;" x1="457.01" x2="535.01" y1="501.6406" y2="501.6406"/><!--MD5=[0992d3fdc9d3d7c02b735131bb70871d]
class Goal--><rect fill="#FEFECE" filter="url(#f1q6s0anvc9vm)" height="48" id="Goal" style="stroke:#A80036;stroke-width:1.5;" width="58" x="356.01" y="353.6406"/><ellipse cx="371.01" cy="369.6406" fill="#ADD1B2" rx="11" ry="11" style="stroke:#A80036;stroke-width:1.0;"/><path d="M373.01,366.1406 Q373.2131,365.6406 373.4475,365.3906 Q373.6819,365.1406 373.9475,365.1406 Q374.4163,365.1406 374.7131,365.4219 Q375.01,365.7031 375.01,366.3594 L375.01,367.9219 Q375.01,368.5781 374.7288,368.8594 Q374.4475,369.1406 374.01,369.1406 Q373.6194,369.1406 373.3694,368.9688 Q373.1194,368.7969 373.01,368.3438 Q372.9631,368.0313 372.7913,367.8594 Q372.4788,367.5313 371.9163,367.3438 Q371.3538,367.1406 370.7913,367.1406 Q370.0881,367.1406 369.4944,367.4219 Q368.9163,367.7031 368.4631,368.3281 Q368.01,368.9531 368.01,369.8125 L368.01,370.7344 Q368.01,371.7656 368.8538,372.4531 Q369.6975,373.1406 371.1975,373.1406 Q372.0881,373.1406 372.7131,372.9375 Q373.0725,372.8281 373.4788,372.4688 Q373.7444,372.2656 373.885,372.2031 Q374.0256,372.1406 374.1975,372.1406 Q374.5256,372.1406 374.76,372.4063 Q375.01,372.6563 375.01,373.0156 Q375.01,373.3594 374.6663,373.7656 Q374.1663,374.3594 373.3694,374.6875 Q372.3225,375.1406 371.0413,375.1406 Q369.5413,375.1406 368.3381,374.5469 Q367.3694,374.0781 366.6819,373.0625 Q366.01,372.0469 366.01,370.8438 L366.01,369.75 Q366.01,368.5 366.6038,367.4063 Q367.2131,366.3125 368.26,365.7344 Q369.3225,365.1406 370.51,365.1406 Q371.2288,365.1406 371.8538,365.3906 Q372.4788,365.6406 373.01,366.1406 Z " fill="#000000"/><text fill="#000000" font-family="sans-serif" font-size="12" lengthAdjust="spacing" textLength="26" x="385.01" y="374.5508">Goal</text><line style="stroke:#A80036;stroke-width:1.5;" x1="357.01" x2="413.01" y1="385.6406" y2="385.6406"/><line style="stroke:#A80036;stroke-width:1.5;" x1="357.01" x2="413.01" y1="393.6406" y2="393.6406"/><!--MD5=[d8c8cfd5ca149094f5b67f9f607a5ec7]
class Token--><rect fill="#FEFECE" filter="url(#f1q6s0anvc9vm)" height="48" id="Token" style="stroke:#A80036;stroke-width:1.5;" width="66" x="357.01" y="569.6406"/><ellipse cx="372.01" cy="585.6406" fill="#ADD1B2" rx="11" ry="11" style="stroke:#A80036;stroke-width:1.0;"/><path d="M374.01,582.1406 Q374.2131,581.6406 374.4475,581.3906 Q374.6819,581.1406 374.9475,581.1406 Q375.4163,581.1406 375.7131,581.4219 Q376.01,581.7031 376.01,582.3594 L376.01,583.9219 Q376.01,584.5781 375.7288,584.8594 Q375.4475,585.1406 375.01,585.1406 Q374.6194,585.1406 374.3694,584.9688 Q374.1194,584.7969 374.01,584.3438 Q373.9631,584.0313 373.7913,583.8594 Q373.4788,583.5313 372.9163,583.3438 Q372.3538,583.1406 371.7913,583.1406 Q371.0881,583.1406 370.4944,583.4219 Q369.9163,583.7031 369.4631,584.3281 Q369.01,584.9531 369.01,585.8125 L369.01,586.7344 Q369.01,587.7656 369.8538,588.4531 Q370.6975,589.1406 372.1975,589.1406 Q373.0881,589.1406 373.7131,588.9375 Q374.0725,588.8281 374.4788,588.4688 Q374.7444,588.2656 374.885,588.2031 Q375.0256,588.1406 375.1975,588.1406 Q375.5256,588.1406 375.76,588.4063 Q376.01,588.6563 376.01,589.0156 Q376.01,589.3594 375.6663,589.7656 Q375.1663,590.3594 374.3694,590.6875 Q373.3225,591.1406 372.0413,591.1406 Q370.5413,591.1406 369.3381,590.5469 Q368.3694,590.0781 367.6819,589.0625 Q367.01,588.0469 367.01,586.8438 L367.01,585.75 Q367.01,584.5 367.6038,583.4063 Q368.2131,582.3125 369.26,581.7344 Q370.3225,581.1406 371.51,581.1406 Q372.2288,581.1406 372.8538,581.3906 Q373.4788,581.6406 374.01,582.1406 Z " fill="#000000"/><text fill="#000000" font-family="sans-serif" font-size="12" lengthAdjust="spacing" textLength="34" x="386.01" y="590.5508">Token</text><line style="stroke:#A80036;stroke-width:1.5;" x1="358.01" x2="422.01" y1="601.6406" y2="601.6406"/><line style="stroke:#A80036;stroke-width:1.5;" x1="358.01" x2="422.01" y1="609.6406" y2="609.6406"/><!--MD5=[9ddfc9bd1e3a4b04466623ab197feef8]
class Vertical--><rect fill="#FEFECE" filter="url(#f1q6s0anvc9vm)" height="48" id="Vertical" style="stroke:#A80036;stroke-width:1.5;" width="72" x="349.01" y="461.6406"/><ellipse cx="364.01" cy="477.6406" fill="#ADD1B2" rx="11" ry="11" style="stroke:#A80036;stroke-width:1.0;"/><path d="M366.01,474.1406 Q366.2131,473.6406 366.4475,473.3906 Q366.6819,473.1406 366.9475,473.1406 Q367.4163,473.1406 367.7131,473.4219 Q368.01,473.7031 368.01,474.3594 L368.01,475.9219 Q368.01,476.5781 367.7288,476.8594 Q367.4475,477.1406 367.01,477.1406 Q366.6194,477.1406 366.3694,476.9688 Q366.1194,476.7969 366.01,476.3438 Q365.9631,476.0313 365.7913,475.8594 Q365.4788,475.5313 364.9163,475.3438 Q364.3538,475.1406 363.7913,475.1406 Q363.0881,475.1406 362.4944,475.4219 Q361.9163,475.7031 361.4631,476.3281 Q361.01,476.9531 361.01,477.8125 L361.01,478.7344 Q361.01,479.7656 361.8538,480.4531 Q362.6975,481.1406 364.1975,481.1406 Q365.0881,481.1406 365.7131,480.9375 Q366.0725,480.8281 366.4788,480.4688 Q366.7444,480.2656 366.885,480.2031 Q367.0256,480.1406 367.1975,480.1406 Q367.5256,480.1406 367.76,480.4063 Q368.01,480.6563 368.01,481.0156 Q368.01,481.3594 367.6663,481.7656 Q367.1663,482.3594 366.3694,482.6875 Q365.3225,483.1406 364.0413,483.1406 Q362.5413,483.1406 361.3381,482.5469 Q360.3694,482.0781 359.6819,481.0625 Q359.01,480.0469 359.01,478.8438 L359.01,477.75 Q359.01,476.5 359.6038,475.4063 Q360.2131,474.3125 361.26,473.7344 Q362.3225,473.1406 363.51,473.1406 Q364.2288,473.1406 364.8538,473.3906 Q365.4788,473.6406 366.01,474.1406 Z " fill="#000000"/><text fill="#000000" font-family="sans-serif" font-size="12" lengthAdjust="spacing" textLength="40" x="378.01" y="482.5508">Vertical</text><line style="stroke:#A80036;stroke-width:1.5;" x1="350.01" x2="420.01" y1="493.6406" y2="493.6406"/><line style="stroke:#A80036;stroke-width:1.5;" x1="350.01" x2="420.01" y1="501.6406" y2="501.6406"/><!--MD5=[a135607b44036ad87f368405615013d9]
class Diagonal--><rect fill="#FEFECE" filter="url(#f1q6s0anvc9vm)" height="48" id="Diagonal" style="stroke:#A80036;stroke-width:1.5;" width="82" x="109.01" y="461.6406"/><ellipse cx="124.01" cy="477.6406" fill="#ADD1B2" rx="11" ry="11" style="stroke:#A80036;stroke-width:1.0;"/><path d="M126.01,474.1406 Q126.2131,473.6406 126.4475,473.3906 Q126.6819,473.1406 126.9475,473.1406 Q127.4163,473.1406 127.7131,473.4219 Q128.01,473.7031 128.01,474.3594 L128.01,475.9219 Q128.01,476.5781 127.7288,476.8594 Q127.4475,477.1406 127.01,477.1406 Q126.6194,477.1406 126.3694,476.9688 Q126.1194,476.7969 126.01,476.3438 Q125.9631,476.0313 125.7913,475.8594 Q125.4788,475.5313 124.9163,475.3438 Q124.3538,475.1406 123.7913,475.1406 Q123.0881,475.1406 122.4944,475.4219 Q121.9163,475.7031 121.4631,476.3281 Q121.01,476.9531 121.01,477.8125 L121.01,478.7344 Q121.01,479.7656 121.8538,480.4531 Q122.6975,481.1406 124.1975,481.1406 Q125.0881,481.1406 125.7131,480.9375 Q126.0725,480.8281 126.4788,480.4688 Q126.7444,480.2656 126.885,480.2031 Q127.0256,480.1406 127.1975,480.1406 Q127.5256,480.1406 127.76,480.4063 Q128.01,480.6563 128.01,481.0156 Q128.01,481.3594 127.6663,481.7656 Q127.1663,482.3594 126.3694,482.6875 Q125.3225,483.1406 124.0413,483.1406 Q122.5413,483.1406 121.3381,482.5469 Q120.3694,482.0781 119.6819,481.0625 Q119.01,480.0469 119.01,478.8438 L119.01,477.75 Q119.01,476.5 119.6038,475.4063 Q120.2131,474.3125 121.26,473.7344 Q122.3225,473.1406 123.51,473.1406 Q124.2288,473.1406 124.8538,473.3906 Q125.4788,473.6406 126.01,474.1406 Z " fill="#000000"/><text fill="#000000" font-family="sans-serif" font-size="12" lengthAdjust="spacing" textLength="50" x="138.01" y="482.5508">Diagonal</text><line style="stroke:#A80036;stroke-width:1.5;" x1="110.01" x2="190.01" y1="493.6406" y2="493.6406"/><line style="stroke:#A80036;stroke-width:1.5;" x1="110.01" x2="190.01" y1="501.6406" y2="501.6406"/><!--MD5=[2808de09be71fab9caf2df132bae0681]
class Horizontal--><rect fill="#FEFECE" filter="url(#f1q6s0anvc9vm)" height="48" id="Horizontal" style="stroke:#A80036;stroke-width:1.5;" width="87" x="226.51" y="461.6406"/><ellipse cx="241.51" cy="477.6406" fill="#ADD1B2" rx="11" ry="11" style="stroke:#A80036;stroke-width:1.0;"/><path d="M243.51,474.1406 Q243.7131,473.6406 243.9475,473.3906 Q244.1819,473.1406 244.4475,473.1406 Q244.9163,473.1406 245.2131,473.4219 Q245.51,473.7031 245.51,474.3594 L245.51,475.9219 Q245.51,476.5781 245.2288,476.8594 Q244.9475,477.1406 244.51,477.1406 Q244.1194,477.1406 243.8694,476.9688 Q243.6194,476.7969 243.51,476.3438 Q243.4631,476.0313 243.2913,475.8594 Q242.9788,475.5313 242.4163,475.3438 Q241.8538,475.1406 241.2913,475.1406 Q240.5881,475.1406 239.9944,475.4219 Q239.4163,475.7031 238.9631,476.3281 Q238.51,476.9531 238.51,477.8125 L238.51,478.7344 Q238.51,479.7656 239.3538,480.4531 Q240.1975,481.1406 241.6975,481.1406 Q242.5881,481.1406 243.2131,480.9375 Q243.5725,480.8281 243.9788,480.4688 Q244.2444,480.2656 244.385,480.2031 Q244.5256,480.1406 244.6975,480.1406 Q245.0256,480.1406 245.26,480.4063 Q245.51,480.6563 245.51,481.0156 Q245.51,481.3594 245.1663,481.7656 Q244.6663,482.3594 243.8694,482.6875 Q242.8225,483.1406 241.5413,483.1406 Q240.0413,483.1406 238.8381,482.5469 Q237.8694,482.0781 237.1819,481.0625 Q236.51,480.0469 236.51,478.8438 L236.51,477.75 Q236.51,476.5 237.1038,475.4063 Q237.7131,474.3125 238.76,473.7344 Q239.8225,473.1406 241.01,473.1406 Q241.7288,473.1406 242.3538,473.3906 Q242.9788,473.6406 243.51,474.1406 Z " fill="#000000"/><text fill="#000000" font-family="sans-serif" font-size="12" lengthAdjust="spacing" textLength="55" x="255.51" y="482.5508">Horizontal</text><line style="stroke:#A80036;stroke-width:1.5;" x1="227.51" x2="312.51" y1="493.6406" y2="493.6406"/><line style="stroke:#A80036;stroke-width:1.5;" x1="227.51" x2="312.51" y1="501.6406" y2="501.6406"/><!--MD5=[5655ee3e2a0d028d03fe20f829576392]
class Square--><rect fill="#FEFECE" filter="url(#f1q6s0anvc9vm)" height="48" id="Square" style="stroke:#A80036;stroke-width:1.5;" width="72" x="506.01" y="569.6406"/><ellipse cx="521.01" cy="585.6406" fill="#ADD1B2" rx="11" ry="11" style="stroke:#A80036;stroke-width:1.0;"/><path d="M523.01,582.1406 Q523.2131,581.6406 523.4475,581.3906 Q523.6819,581.1406 523.9475,581.1406 Q524.4163,581.1406 524.7131,581.4219 Q525.01,581.7031 525.01,582.3594 L525.01,583.9219 Q525.01,584.5781 524.7288,584.8594 Q524.4475,585.1406 524.01,585.1406 Q523.6194,585.1406 523.3694,584.9688 Q523.1194,584.7969 523.01,584.3438 Q522.9631,584.0313 522.7913,583.8594 Q522.4788,583.5313 521.9163,583.3438 Q521.3538,583.1406 520.7913,583.1406 Q520.0881,583.1406 519.4944,583.4219 Q518.9163,583.7031 518.4631,584.3281 Q518.01,584.9531 518.01,585.8125 L518.01,586.7344 Q518.01,587.7656 518.8538,588.4531 Q519.6975,589.1406 521.1975,589.1406 Q522.0881,589.1406 522.7131,588.9375 Q523.0725,588.8281 523.4788,588.4688 Q523.7444,588.2656 523.885,588.2031 Q524.0256,588.1406 524.1975,588.1406 Q524.5256,588.1406 524.76,588.4063 Q525.01,588.6563 525.01,589.0156 Q525.01,589.3594 524.6663,589.7656 Q524.1663,590.3594 523.3694,590.6875 Q522.3225,591.1406 521.0413,591.1406 Q519.5413,591.1406 518.3381,590.5469 Q517.3694,590.0781 516.6819,589.0625 Q516.01,588.0469 516.01,586.8438 L516.01,585.75 Q516.01,584.5 516.6038,583.4063 Q517.2131,582.3125 518.26,581.7344 Q519.3225,581.1406 520.51,581.1406 Q521.2288,581.1406 521.8538,581.3906 Q522.4788,581.6406 523.01,582.1406 Z " fill="#000000"/><text fill="#000000" font-family="sans-serif" font-size="12" lengthAdjust="spacing" textLength="40" x="535.01" y="590.5508">Square</text><line style="stroke:#A80036;stroke-width:1.5;" x1="507.01" x2="577.01" y1="601.6406" y2="601.6406"/><line style="stroke:#A80036;stroke-width:1.5;" x1="507.01" x2="577.01" y1="609.6406" y2="609.6406"/><!--MD5=[e06ef809dd6be8ce79b58fe0a1161eb8]
class Column--><rect fill="#FEFECE" filter="url(#f1q6s0anvc9vm)" height="48" id="Column" style="stroke:#A80036;stroke-width:1.5;" width="76" x="553.01" y="691.6406"/><ellipse cx="568.01" cy="707.6406" fill="#ADD1B2" rx="11" ry="11" style="stroke:#A80036;stroke-width:1.0;"/><path d="M570.01,704.1406 Q570.2131,703.6406 570.4475,703.3906 Q570.6819,703.1406 570.9475,703.1406 Q571.4163,703.1406 571.7131,703.4219 Q572.01,703.7031 572.01,704.3594 L572.01,705.9219 Q572.01,706.5781 571.7288,706.8594 Q571.4475,707.1406 571.01,707.1406 Q570.6194,707.1406 570.3694,706.9688 Q570.1194,706.7969 570.01,706.3438 Q569.9631,706.0313 569.7913,705.8594 Q569.4788,705.5313 568.9163,705.3438 Q568.3538,705.1406 567.7913,705.1406 Q567.0881,705.1406 566.4944,705.4219 Q565.9163,705.7031 565.4631,706.3281 Q565.01,706.9531 565.01,707.8125 L565.01,708.7344 Q565.01,709.7656 565.8538,710.4531 Q566.6975,711.1406 568.1975,711.1406 Q569.0881,711.1406 569.7131,710.9375 Q570.0725,710.8281 570.4788,710.4688 Q570.7444,710.2656 570.885,710.2031 Q571.0256,710.1406 571.1975,710.1406 Q571.5256,710.1406 571.76,710.4063 Q572.01,710.6563 572.01,711.0156 Q572.01,711.3594 571.6663,711.7656 Q571.1663,712.3594 570.3694,712.6875 Q569.3225,713.1406 568.0413,713.1406 Q566.5413,713.1406 565.3381,712.5469 Q564.3694,712.0781 563.6819,711.0625 Q563.01,710.0469 563.01,708.8438 L563.01,707.75 Q563.01,706.5 563.6038,705.4063 Q564.2131,704.3125 565.26,703.7344 Q566.3225,703.1406 567.51,703.1406 Q568.2288,703.1406 568.8538,703.3906 Q569.4788,703.6406 570.01,704.1406 Z " fill="#000000"/><text fill="#000000" font-family="sans-serif" font-size="12" lengthAdjust="spacing" textLength="44" x="582.01" y="712.5508">Column</text><line style="stroke:#A80036;stroke-width:1.5;" x1="554.01" x2="628.01" y1="723.6406" y2="723.6406"/><line style="stroke:#A80036;stroke-width:1.5;" x1="554.01" x2="628.01" y1="731.6406" y2="731.6406"/><!--MD5=[05aedcff764caeeb5d443618a4d90de7]
class Row--><rect fill="#FEFECE" filter="url(#f1q6s0anvc9vm)" height="48" id="Row" style="stroke:#A80036;stroke-width:1.5;" width="57" x="460.51" y="691.6406"/><ellipse cx="475.51" cy="707.6406" fill="#ADD1B2" rx="11" ry="11" style="stroke:#A80036;stroke-width:1.0;"/><path d="M477.51,704.1406 Q477.7131,703.6406 477.9475,703.3906 Q478.1819,703.1406 478.4475,703.1406 Q478.9163,703.1406 479.2131,703.4219 Q479.51,703.7031 479.51,704.3594 L479.51,705.9219 Q479.51,706.5781 479.2288,706.8594 Q478.9475,707.1406 478.51,707.1406 Q478.1194,707.1406 477.8694,706.9688 Q477.6194,706.7969 477.51,706.3438 Q477.4631,706.0313 477.2913,705.8594 Q476.9788,705.5313 476.4163,705.3438 Q475.8538,705.1406 475.2913,705.1406 Q474.5881,705.1406 473.9944,705.4219 Q473.4163,705.7031 472.9631,706.3281 Q472.51,706.9531 472.51,707.8125 L472.51,708.7344 Q472.51,709.7656 473.3538,710.4531 Q474.1975,711.1406 475.6975,711.1406 Q476.5881,711.1406 477.2131,710.9375 Q477.5725,710.8281 477.9788,710.4688 Q478.2444,710.2656 478.385,710.2031 Q478.5256,710.1406 478.6975,710.1406 Q479.0256,710.1406 479.26,710.4063 Q479.51,710.6563 479.51,711.0156 Q479.51,711.3594 479.1663,711.7656 Q478.6663,712.3594 477.8694,712.6875 Q476.8225,713.1406 475.5413,713.1406 Q474.0413,713.1406 472.8381,712.5469 Q471.8694,712.0781 471.1819,711.0625 Q470.51,710.0469 470.51,708.8438 L470.51,707.75 Q470.51,706.5 471.1038,705.4063 Q471.7131,704.3125 472.76,703.7344 Q473.8225,703.1406 475.01,703.1406 Q475.7288,703.1406 476.3538,703.3906 Q476.9788,703.6406 477.51,704.1406 Z " fill="#000000"/><text fill="#000000" font-family="sans-serif" font-size="12" lengthAdjust="spacing" textLength="25" x="489.51" y="712.5508">Row</text><line style="stroke:#A80036;stroke-width:1.5;" x1="461.51" x2="516.51" y1="723.6406" y2="723.6406"/><line style="stroke:#A80036;stroke-width:1.5;" x1="461.51" x2="516.51" y1="731.6406" y2="731.6406"/><!--MD5=[6824fd9902778444ee49992acd2ffe7e]
link Connect4 to Turn--><path codeLine="8" d="M477.01,89.6406 C477.01,89.6406 477.01,113.3206 477.01,124.0006 " fill="none" id="Connect4-Turn" style="stroke:#A80036;stroke-width:1.0;"/><polygon fill="#A80036" points="477.01,137.3206,481.01,128.3206,477.01,132.3206,473.01,128.3206,477.01,137.3206" style="stroke:#A80036;stroke-width:1.0;"/><line style="stroke:#A80036;stroke-width:1.0;" x1="477.01" x2="477.01" y1="132.3206" y2="124.3206"/><polygon fill="#A80036" points="477.01,77.6406,473.01,83.6406,477.01,89.6406,481.01,83.6406,477.01,77.6406" style="stroke:#A80036;stroke-width:1.0;"/><text fill="#000000" font-family="sans-serif" font-size="13" lengthAdjust="spacing" textLength="29" x="444.4756" y="126.9806">7..42</text><!--MD5=[5426a1d26e36fcd61d30da6b8a6545ec]
link Connect4 to Board--><path codeLine="9" d="M496.6993,88.3263 C496.6993,88.3263 515.15,121.5706 523.01,137.6406 C538.61,169.5306 554.32,206.8306 565.11,233.4606 " fill="none" id="Connect4-Board" style="stroke:#A80036;stroke-width:1.0;"/><polygon fill="#A80036" points="569.99,245.6006,570.3413,235.758,568.1236,240.962,562.9196,238.7443,569.99,245.6006" style="stroke:#A80036;stroke-width:1.0;"/><line style="stroke:#A80036;stroke-width:1.0;" x1="568.1236" x2="565.145" y1="240.962" y2="233.5406"/><polygon fill="#A80036" points="490.74,77.9106,490.2478,85.1049,496.6993,88.3263,497.1916,81.132,490.74,77.9106" style="stroke:#A80036;stroke-width:1.0;"/><!--MD5=[46750473935a00282743b47f522de7be]
link Connect4 to Player--><path codeLine="10" d="M456.2177,88.2691 C456.2177,88.2691 437.89,121.2606 431.01,137.6406 C417.94,168.7506 407.35,205.7206 400.53,232.4406 " fill="none" id="Connect4-Player" style="stroke:#A80036;stroke-width:1.0;"/><polygon fill="#A80036" points="397.31,245.4006,403.3672,237.6346,398.5188,240.5489,395.6045,235.7006,397.31,245.4006" style="stroke:#A80036;stroke-width:1.0;"/><line style="stroke:#A80036;stroke-width:1.0;" x1="398.5188" x2="400.445" y1="240.5489" y2="232.7806"/><polygon fill="#A80036" points="462.31,77.9306,455.8177,81.0691,456.2177,88.2691,462.71,85.1306,462.31,77.9306" style="stroke:#A80036;stroke-width:1.0;"/><text fill="#000000" font-family="sans-serif" font-size="13" lengthAdjust="spacing" textLength="7" x="390.7713" y="234.6793">2</text><!--MD5=[d81713d91ad05be3b975338c4816ee0b]
link Turn to Player--><path codeLine="11" d="M458.57,185.6406 C445.51,201.9206 427.94,223.8306 414.13,241.0506 " fill="none" id="Turn-to-Player" style="stroke:#A80036;stroke-width:1.0;"/><polygon fill="#A80036" points="410.71,245.3206,419.4618,240.8033,413.8387,241.4205,413.2215,235.7974,410.71,245.3206" style="stroke:#A80036;stroke-width:1.0;"/><!--MD5=[59aa7c63b406d7b604560263930384b4]
link Turn to Insertion--><path codeLine="12" d="M478.38,185.8006 C481.78,243.4406 490.62,393.2506 494.33,456.1606 " fill="none" id="Turn-to-Insertion" style="stroke:#A80036;stroke-width:1.0;"/><polygon fill="#A80036" points="494.63,461.2606,498.1085,452.0465,494.3439,456.2688,490.1216,452.5042,494.63,461.2606" style="stroke:#A80036;stroke-width:1.0;"/><!--MD5=[2a92216d381d9bf6f84ed4cf13521a84]
link Goal to Insertion--><path codeLine="13" d="M409.09,401.6406 C426.29,418.0606 449.47,440.2006 467.57,457.4806 " fill="none" id="Goal-to-Insertion" style="stroke:#A80036;stroke-width:1.0;"/><polygon fill="#A80036" points="471.59,461.3206,467.8511,452.2091,467.9768,457.8645,462.3213,457.9902,471.59,461.3206" style="stroke:#A80036;stroke-width:1.0;"/><!--MD5=[525e20984b3f0335f86e1ed389de5b3d]
link Player to Token--><path codeLine="14" d="M358.81,280.0106 C264.3,308.3006 6,397.8206 91.01,509.6406 C122.69,551.3106 278.58,577.5506 351.84,587.7706 " fill="none" id="Player-to-Token" style="stroke:#A80036;stroke-width:1.0;"/><polygon fill="#A80036" points="356.97,588.4706,348.605,583.2719,352.0174,587.7836,347.5057,591.196,356.97,588.4706" style="stroke:#A80036;stroke-width:1.0;"/><text fill="#000000" font-family="sans-serif" font-size="13" lengthAdjust="spacing" textLength="14" x="335.0871" y="583.4075">21</text><!--MD5=[1571e4e0b7cdbae74b04c97a95677c54]
link Player to Goal--><path codeLine="15" d="M390.49,293.6406 C389.43,309.6406 388.02,331.0906 386.89,348.1706 " fill="none" id="Player-to-Goal" style="stroke:#A80036;stroke-width:1.0;"/><polygon fill="#A80036" points="386.55,353.3206,391.1332,344.6031,386.8788,348.3314,383.1505,344.0771,386.55,353.3206" style="stroke:#A80036;stroke-width:1.0;"/><!--MD5=[3e26d6834a71a9527f7b0beabb13c375]
reverse link Goal to Vertical--><path codeLine="16" d="M385.01,421.6606 C385.01,435.2206 385.01,449.6806 385.01,461.3206 " fill="none" id="Goal-backto-Vertical" style="stroke:#A80036;stroke-width:1.0;"/><polygon fill="none" points="378.01,421.6406,385.01,401.6406,392.01,421.6406,378.01,421.6406" style="stroke:#A80036;stroke-width:1.0;"/><!--MD5=[5a16bdf27515cf253385e973d6fbc781]
reverse link Goal to Diagonal--><path codeLine="17" d="M337.23,400.1906 C294.3,419.5606 231.91,447.7006 191.15,466.0806 " fill="none" id="Goal-backto-Diagonal" style="stroke:#A80036;stroke-width:1.0;"/><polygon fill="none" points="334.61,393.6906,355.72,391.8506,340.37,406.4606,334.61,393.6906" style="stroke:#A80036;stroke-width:1.0;"/><!--MD5=[9c078bc154f9dba995e32f4ec3d43872]
reverse link Goal to Horizontal--><path codeLine="18" d="M345.33,415.2106 C328.75,430.5006 309.97,447.8106 295.31,461.3206 " fill="none" id="Goal-backto-Horizontal" style="stroke:#A80036;stroke-width:1.0;"/><polygon fill="none" points="340.61,410.0506,360.06,401.6406,350.09,420.3406,340.61,410.0506" style="stroke:#A80036;stroke-width:1.0;"/><!--MD5=[4ad96441c8a01d959d4bf4f2a5e1a798]
link Board to Square--><path codeLine="19" d="M575.4533,305.6678 C575.4533,305.6678 561.68,437.7606 553.01,509.6406 C551.16,524.9506 548.96,541.8306 547.01,556.3406 " fill="none" id="Board-Square" style="stroke:#A80036;stroke-width:1.0;"/><polygon fill="#A80036" points="545.24,569.4006,550.4102,561.018,545.9102,564.4457,542.4824,559.9457,545.24,569.4006" style="stroke:#A80036;stroke-width:1.0;"/><line style="stroke:#A80036;stroke-width:1.0;" x1="545.9102" x2="546.98" y1="564.4457" y2="556.5206"/><polygon fill="#A80036" points="576.68,293.7306,572.0876,299.2903,575.4533,305.6678,580.0457,300.1081,576.68,293.7306" style="stroke:#A80036;stroke-width:1.0;"/><text fill="#000000" font-family="sans-serif" font-size="13" lengthAdjust="spacing" textLength="21" x="522.3771" y="558.6793">6x7</text><!--MD5=[304335c530676c0c2555e056aeeb939b]
link Token to Color--><path codeLine="20" d="M390.01,617.7806 C390.01,633.2206 390.01,653.9706 390.01,672.3106 " fill="none" id="Token-to-Color" style="stroke:#A80036;stroke-width:1.0;"/><polygon fill="#A80036" points="390.01,677.4106,394.01,668.4106,390.01,672.4106,386.01,668.4106,390.01,677.4106" style="stroke:#A80036;stroke-width:1.0;"/><!--MD5=[cc6ad3ef1f9fa149e91a2830a7d28e41]
link Insertion to Token--><path codeLine="21" d="M473.01,509.6406 C456.59,526.0606 434.45,548.2006 417.16,565.4806 " fill="none" id="Insertion-to-Token" style="stroke:#A80036;stroke-width:1.0;"/><polygon fill="#A80036" points="413.33,569.3206,422.5224,565.7851,416.8655,565.7851,416.8655,560.1282,413.33,569.3206" style="stroke:#A80036;stroke-width:1.0;"/><!--MD5=[7fb48484a6529a4579ebfc4fca9fe8e9]
link Insertion to Square--><path codeLine="22" d="M505.99,509.6406 C512.99,525.7806 522.4,547.4606 529.84,564.6106 " fill="none" id="Insertion-to-Square" style="stroke:#A80036;stroke-width:1.0;"/><polygon fill="#A80036" points="531.89,569.3206,531.9843,559.4722,529.9032,564.7323,524.6431,562.6512,531.89,569.3206" style="stroke:#A80036;stroke-width:1.0;"/><!--MD5=[0f2f9f456f6fde234ed10f53385b10db]
link Square to Column--><path codeLine="23" d="M551.46,617.7806 C559.49,637.4506 571.05,665.7506 579.6,686.6906 " fill="none" id="Square-to-Column" style="stroke:#A80036;stroke-width:1.0;"/><polygon fill="#A80036" points="581.59,691.5706,581.8727,681.7258,579.6913,686.9452,574.4719,684.7638,581.59,691.5706" style="stroke:#A80036;stroke-width:1.0;"/><!--MD5=[fa993a6ce30a241d5d8fc98f4a6a1b48]
link Square to Row--><path codeLine="24" d="M531.79,617.7806 C523.06,637.5306 510.49,665.9906 501.24,686.9506 " fill="none" id="Square-to-Row" style="stroke:#A80036;stroke-width:1.0;"/><polygon fill="#A80036" points="499.2,691.5706,506.5067,684.9666,501.228,687.0004,499.1943,681.7218,499.2,691.5706" style="stroke:#A80036;stroke-width:1.0;"/><!--MD5=[d4788d023d55fdfca30d0ad632f5c585]
@startuml
title Connect4

enum Color{
RED
YELLOW
}

Connect4 *- -> "7..42" Turn
Connect4 *- -> Board
Connect4 *- -> "2" Player
Turn - -> Player
Turn - -> Insertion
Goal - -> Insertion
Player - -> "21" Token
Player - -> Goal
Goal <|- - Vertical
Goal <|- - Diagonal
Goal <|- - Horizontal
Board *- -> "6x7" Square
Token - -> Color
Insertion - -> Token
Insertion - -> Square
Square - -> Column
Square - -> Row

@enduml

PlantUML version 1.2022.1(Tue Feb 01 19:19:58 CET 2022)
(GPL source distribution)
Java Runtime: OpenJDK Runtime Environment
JVM: OpenJDK 64-Bit Server VM
Default Encoding: Cp1252
Language: es
Country: ES
--></g></svg>