<?xml version="1.0" encoding="UTF-8" standalone="no"?><svg xmlns="http://www.w3.org/2000/svg" xmlns:xlink="http://www.w3.org/1999/xlink" contentScriptType="application/ecmascript" contentStyleType="text/css" height="767px" preserveAspectRatio="none" style="width:666px;height:767px;background:#FFFFFF;" version="1.1" viewBox="0 0 666 767" width="666px" zoomAndPan="magnify"><defs><filter height="300%" id="f16ovny743so1m" width="300%" x="-1" y="-1"><feGaussianBlur result="blurOut" stdDeviation="2.0"/><feColorMatrix in="blurOut" result="blurOut2" type="matrix" values="0 0 0 0 0 0 0 0 0 0 0 0 0 0 0 0 0 0 .4 0"/><feOffset dx="4.0" dy="4.0" in="blurOut2" result="blurOut3"/><feBlend in="SourceGraphic" in2="blurOut3" mode="normal"/></filter></defs><g><text fill="#000000" font-family="sans-serif" font-size="18" lengthAdjust="spacing" textLength="77" x="288.26" y="18.6855">Connect4</text><!--MD5=[18eee71c88ab61f27581b8cbdd3ef5ee]
class Color--><rect codeLine="3" fill="#FEFECE" filter="url(#f16ovny743so1m)" height="75.6719" id="Color" style="stroke:#A80036;stroke-width:1.5;" width="62" x="387.02" y="677.6406"/><ellipse cx="402.02" cy="693.6406" fill="#EB937F" rx="11" ry="11" style="stroke:#A80036;stroke-width:1.0;"/><path d="M400.52,694.6406 L400.52,696.6406 L404.52,696.6406 L404.52,695.6406 L404.52,695.1563 L405.145,694.6406 L405.52,694.6406 L405.895,694.6406 L406.52,695.1563 L406.52,695.6406 L406.52,698.6406 L398.52,698.6406 L398.0356,698.6406 L397.52,698.0156 L397.52,697.6406 L397.52,697.2656 L398.0356,696.6406 L398.52,696.6406 L398.52,696.6406 L398.52,690.6406 L398.52,690.6406 L398.0356,690.6406 L397.52,690.0156 L397.52,689.6406 L397.52,689.2656 L398.0356,688.6406 L398.52,688.6406 L406.52,688.6406 L406.52,691.6406 L406.52,692.125 L405.895,692.6406 L405.52,692.6406 L405.145,692.6406 L404.52,692.125 L404.52,691.6406 L404.52,690.6406 L400.52,690.6406 L400.52,692.6406 L401.52,692.6406 L401.52,692.1563 L401.52,692.1563 L402.145,691.6406 L402.52,691.6406 L402.895,691.6406 L403.52,692.1563 L403.52,692.6406 L403.52,694.6406 L403.52,695.125 L402.895,695.6406 L402.895,695.6406 L402.52,695.6406 L402.145,695.6406 L401.52,695.125 L401.52,695.125 L401.52,694.6406 L400.52,694.6406 Z " fill="#000000"/><text fill="#000000" font-family="sans-serif" font-size="12" lengthAdjust="spacing" textLength="30" x="416.02" y="698.5508">Color</text><line style="stroke:#A80036;stroke-width:1.5;" x1="388.02" x2="448.02" y1="709.6406" y2="709.6406"/><text fill="#000000" font-family="sans-serif" font-size="11" lengthAdjust="spacing" textLength="20" x="393.02" y="725.0596">RED</text><text fill="#000000" font-family="sans-serif" font-size="11" lengthAdjust="spacing" textLength="44" x="393.02" y="738.8955">YELLOW</text><line style="stroke:#A80036;stroke-width:1.5;" x1="388.02" x2="448.02" y1="745.3125" y2="745.3125"/><!--MD5=[10b1f240992e2c34b6908209bf85bfd2]
class Connect4--><rect fill="#FEFECE" filter="url(#f16ovny743so1m)" height="48" id="Connect4" style="stroke:#A80036;stroke-width:1.5;" width="85" x="297.52" y="29.6406"/><ellipse cx="312.52" cy="45.6406" fill="#ADD1B2" rx="11" ry="11" style="stroke:#A80036;stroke-width:1.0;"/><path d="M314.52,42.1406 Q314.7231,41.6406 314.9575,41.3906 Q315.1919,41.1406 315.4575,41.1406 Q315.9263,41.1406 316.2231,41.4219 Q316.52,41.7031 316.52,42.3594 L316.52,43.9219 Q316.52,44.5781 316.2388,44.8594 Q315.9575,45.1406 315.52,45.1406 Q315.1294,45.1406 314.8794,44.9688 Q314.6294,44.7969 314.52,44.3438 Q314.4731,44.0313 314.3013,43.8594 Q313.9888,43.5313 313.4263,43.3438 Q312.8638,43.1406 312.3013,43.1406 Q311.5981,43.1406 311.0044,43.4219 Q310.4263,43.7031 309.9731,44.3281 Q309.52,44.9531 309.52,45.8125 L309.52,46.7344 Q309.52,47.7656 310.3638,48.4531 Q311.2075,49.1406 312.7075,49.1406 Q313.5981,49.1406 314.2231,48.9375 Q314.5825,48.8281 314.9888,48.4688 Q315.2544,48.2656 315.395,48.2031 Q315.5356,48.1406 315.7075,48.1406 Q316.0356,48.1406 316.27,48.4063 Q316.52,48.6563 316.52,49.0156 Q316.52,49.3594 316.1763,49.7656 Q315.6763,50.3594 314.8794,50.6875 Q313.8325,51.1406 312.5513,51.1406 Q311.0513,51.1406 309.8481,50.5469 Q308.8794,50.0781 308.1919,49.0625 Q307.52,48.0469 307.52,46.8438 L307.52,45.75 Q307.52,44.5 308.1138,43.4063 Q308.7231,42.3125 309.77,41.7344 Q310.8325,41.1406 312.02,41.1406 Q312.7388,41.1406 313.3638,41.3906 Q313.9888,41.6406 314.52,42.1406 Z " fill="#000000"/><text fill="#000000" font-family="sans-serif" font-size="12" lengthAdjust="spacing" textLength="53" x="326.52" y="50.5508">Connect4</text><line style="stroke:#A80036;stroke-width:1.5;" x1="298.52" x2="381.52" y1="61.6406" y2="61.6406"/><line style="stroke:#A80036;stroke-width:1.5;" x1="298.52" x2="381.52" y1="69.6406" y2="69.6406"/><!--MD5=[dd91eae41778c45e12552e5329e240e8]
class Turn--><rect fill="#FEFECE" filter="url(#f16ovny743so1m)" height="48" id="Turn" style="stroke:#A80036;stroke-width:1.5;" width="57" x="229.52" y="137.6406"/><ellipse cx="244.52" cy="153.6406" fill="#ADD1B2" rx="11" ry="11" style="stroke:#A80036;stroke-width:1.0;"/><path d="M246.52,150.1406 Q246.7231,149.6406 246.9575,149.3906 Q247.1919,149.1406 247.4575,149.1406 Q247.9263,149.1406 248.2231,149.4219 Q248.52,149.7031 248.52,150.3594 L248.52,151.9219 Q248.52,152.5781 248.2388,152.8594 Q247.9575,153.1406 247.52,153.1406 Q247.1294,153.1406 246.8794,152.9688 Q246.6294,152.7969 246.52,152.3438 Q246.4731,152.0313 246.3013,151.8594 Q245.9888,151.5313 245.4263,151.3438 Q244.8638,151.1406 244.3013,151.1406 Q243.5981,151.1406 243.0044,151.4219 Q242.4263,151.7031 241.9731,152.3281 Q241.52,152.9531 241.52,153.8125 L241.52,154.7344 Q241.52,155.7656 242.3638,156.4531 Q243.2075,157.1406 244.7075,157.1406 Q245.5981,157.1406 246.2231,156.9375 Q246.5825,156.8281 246.9888,156.4688 Q247.2544,156.2656 247.395,156.2031 Q247.5356,156.1406 247.7075,156.1406 Q248.0356,156.1406 248.27,156.4063 Q248.52,156.6563 248.52,157.0156 Q248.52,157.3594 248.1763,157.7656 Q247.6763,158.3594 246.8794,158.6875 Q245.8325,159.1406 244.5513,159.1406 Q243.0513,159.1406 241.8481,158.5469 Q240.8794,158.0781 240.1919,157.0625 Q239.52,156.0469 239.52,154.8438 L239.52,153.75 Q239.52,152.5 240.1138,151.4063 Q240.7231,150.3125 241.77,149.7344 Q242.8325,149.1406 244.02,149.1406 Q244.7388,149.1406 245.3638,149.3906 Q245.9888,149.6406 246.52,150.1406 Z " fill="#000000"/><text fill="#000000" font-family="sans-serif" font-size="12" lengthAdjust="spacing" textLength="25" x="258.52" y="158.5508">Turn</text><line style="stroke:#A80036;stroke-width:1.5;" x1="230.52" x2="285.52" y1="169.6406" y2="169.6406"/><line style="stroke:#A80036;stroke-width:1.5;" x1="230.52" x2="285.52" y1="177.6406" y2="177.6406"/><!--MD5=[9563755d011c5cec7ec66dc53565a59e]
class Board--><rect fill="#FEFECE" filter="url(#f16ovny743so1m)" height="48" id="Board" style="stroke:#A80036;stroke-width:1.5;" width="65" x="443.52" y="353.6406"/><ellipse cx="458.52" cy="369.6406" fill="#ADD1B2" rx="11" ry="11" style="stroke:#A80036;stroke-width:1.0;"/><path d="M460.52,366.1406 Q460.7231,365.6406 460.9575,365.3906 Q461.1919,365.1406 461.4575,365.1406 Q461.9263,365.1406 462.2231,365.4219 Q462.52,365.7031 462.52,366.3594 L462.52,367.9219 Q462.52,368.5781 462.2388,368.8594 Q461.9575,369.1406 461.52,369.1406 Q461.1294,369.1406 460.8794,368.9688 Q460.6294,368.7969 460.52,368.3438 Q460.4731,368.0313 460.3013,367.8594 Q459.9888,367.5313 459.4263,367.3438 Q458.8638,367.1406 458.3013,367.1406 Q457.5981,367.1406 457.0044,367.4219 Q456.4263,367.7031 455.9731,368.3281 Q455.52,368.9531 455.52,369.8125 L455.52,370.7344 Q455.52,371.7656 456.3638,372.4531 Q457.2075,373.1406 458.7075,373.1406 Q459.5981,373.1406 460.2231,372.9375 Q460.5825,372.8281 460.9888,372.4688 Q461.2544,372.2656 461.395,372.2031 Q461.5356,372.1406 461.7075,372.1406 Q462.0356,372.1406 462.27,372.4063 Q462.52,372.6563 462.52,373.0156 Q462.52,373.3594 462.1763,373.7656 Q461.6763,374.3594 460.8794,374.6875 Q459.8325,375.1406 458.5513,375.1406 Q457.0513,375.1406 455.8481,374.5469 Q454.8794,374.0781 454.1919,373.0625 Q453.52,372.0469 453.52,370.8438 L453.52,369.75 Q453.52,368.5 454.1138,367.4063 Q454.7231,366.3125 455.77,365.7344 Q456.8325,365.1406 458.02,365.1406 Q458.7388,365.1406 459.3638,365.3906 Q459.9888,365.6406 460.52,366.1406 Z " fill="#000000"/><text fill="#000000" font-family="sans-serif" font-size="12" lengthAdjust="spacing" textLength="33" x="472.52" y="374.5508">Board</text><line style="stroke:#A80036;stroke-width:1.5;" x1="444.52" x2="507.52" y1="385.6406" y2="385.6406"/><line style="stroke:#A80036;stroke-width:1.5;" x1="444.52" x2="507.52" y1="393.6406" y2="393.6406"/><!--MD5=[2cb47ba637a0d19583e6199456f6ad0b]
class Player--><rect fill="#FEFECE" filter="url(#f16ovny743so1m)" height="48" id="Player" style="stroke:#A80036;stroke-width:1.5;" width="66" x="225.02" y="245.6406"/><ellipse cx="240.02" cy="261.6406" fill="#ADD1B2" rx="11" ry="11" style="stroke:#A80036;stroke-width:1.0;"/><path d="M242.02,258.1406 Q242.2231,257.6406 242.4575,257.3906 Q242.6919,257.1406 242.9575,257.1406 Q243.4263,257.1406 243.7231,257.4219 Q244.02,257.7031 244.02,258.3594 L244.02,259.9219 Q244.02,260.5781 243.7388,260.8594 Q243.4575,261.1406 243.02,261.1406 Q242.6294,261.1406 242.3794,260.9688 Q242.1294,260.7969 242.02,260.3438 Q241.9731,260.0313 241.8013,259.8594 Q241.4888,259.5313 240.9263,259.3438 Q240.3638,259.1406 239.8013,259.1406 Q239.0981,259.1406 238.5044,259.4219 Q237.9263,259.7031 237.4731,260.3281 Q237.02,260.9531 237.02,261.8125 L237.02,262.7344 Q237.02,263.7656 237.8638,264.4531 Q238.7075,265.1406 240.2075,265.1406 Q241.0981,265.1406 241.7231,264.9375 Q242.0825,264.8281 242.4888,264.4688 Q242.7544,264.2656 242.895,264.2031 Q243.0356,264.1406 243.2075,264.1406 Q243.5356,264.1406 243.77,264.4063 Q244.02,264.6563 244.02,265.0156 Q244.02,265.3594 243.6763,265.7656 Q243.1763,266.3594 242.3794,266.6875 Q241.3325,267.1406 240.0513,267.1406 Q238.5513,267.1406 237.3481,266.5469 Q236.3794,266.0781 235.6919,265.0625 Q235.02,264.0469 235.02,262.8438 L235.02,261.75 Q235.02,260.5 235.6138,259.4063 Q236.2231,258.3125 237.27,257.7344 Q238.3325,257.1406 239.52,257.1406 Q240.2388,257.1406 240.8638,257.3906 Q241.4888,257.6406 242.02,258.1406 Z " fill="#000000"/><text fill="#000000" font-family="sans-serif" font-size="12" lengthAdjust="spacing" textLength="34" x="254.02" y="266.5508">Player</text><line style="stroke:#A80036;stroke-width:1.5;" x1="226.02" x2="290.02" y1="277.6406" y2="277.6406"/><line style="stroke:#A80036;stroke-width:1.5;" x1="226.02" x2="290.02" y1="285.6406" y2="285.6406"/><!--MD5=[f04eddc513368489aea0358c3d51bf6a]
class Insertion--><rect fill="#FEFECE" filter="url(#f16ovny743so1m)" height="48" id="Insertion" style="stroke:#A80036;stroke-width:1.5;" width="80" x="436.02" y="461.6406"/><ellipse cx="451.02" cy="477.6406" fill="#ADD1B2" rx="11" ry="11" style="stroke:#A80036;stroke-width:1.0;"/><path d="M453.02,474.1406 Q453.2231,473.6406 453.4575,473.3906 Q453.6919,473.1406 453.9575,473.1406 Q454.4263,473.1406 454.7231,473.4219 Q455.02,473.7031 455.02,474.3594 L455.02,475.9219 Q455.02,476.5781 454.7388,476.8594 Q454.4575,477.1406 454.02,477.1406 Q453.6294,477.1406 453.3794,476.9688 Q453.1294,476.7969 453.02,476.3438 Q452.9731,476.0313 452.8013,475.8594 Q452.4888,475.5313 451.9263,475.3438 Q451.3638,475.1406 450.8013,475.1406 Q450.0981,475.1406 449.5044,475.4219 Q448.9263,475.7031 448.4731,476.3281 Q448.02,476.9531 448.02,477.8125 L448.02,478.7344 Q448.02,479.7656 448.8638,480.4531 Q449.7075,481.1406 451.2075,481.1406 Q452.0981,481.1406 452.7231,480.9375 Q453.0825,480.8281 453.4888,480.4688 Q453.7544,480.2656 453.895,480.2031 Q454.0356,480.1406 454.2075,480.1406 Q454.5356,480.1406 454.77,480.4063 Q455.02,480.6563 455.02,481.0156 Q455.02,481.3594 454.6763,481.7656 Q454.1763,482.3594 453.3794,482.6875 Q452.3325,483.1406 451.0513,483.1406 Q449.5513,483.1406 448.3481,482.5469 Q447.3794,482.0781 446.6919,481.0625 Q446.02,480.0469 446.02,478.8438 L446.02,477.75 Q446.02,476.5 446.6138,475.4063 Q447.2231,474.3125 448.27,473.7344 Q449.3325,473.1406 450.52,473.1406 Q451.2388,473.1406 451.8638,473.3906 Q452.4888,473.6406 453.02,474.1406 Z " fill="#000000"/><text fill="#000000" font-family="sans-serif" font-size="12" lengthAdjust="spacing" textLength="48" x="465.02" y="482.5508">Insertion</text><line style="stroke:#A80036;stroke-width:1.5;" x1="437.02" x2="515.02" y1="493.6406" y2="493.6406"/><line style="stroke:#A80036;stroke-width:1.5;" x1="437.02" x2="515.02" y1="501.6406" y2="501.6406"/><!--MD5=[0992d3fdc9d3d7c02b735131bb70871d]
class Goal--><rect fill="#FEFECE" filter="url(#f16ovny743so1m)" height="48" id="Goal" style="stroke:#A80036;stroke-width:1.5;" width="58" x="229.02" y="353.6406"/><ellipse cx="244.02" cy="369.6406" fill="#ADD1B2" rx="11" ry="11" style="stroke:#A80036;stroke-width:1.0;"/><path d="M246.02,366.1406 Q246.2231,365.6406 246.4575,365.3906 Q246.6919,365.1406 246.9575,365.1406 Q247.4263,365.1406 247.7231,365.4219 Q248.02,365.7031 248.02,366.3594 L248.02,367.9219 Q248.02,368.5781 247.7388,368.8594 Q247.4575,369.1406 247.02,369.1406 Q246.6294,369.1406 246.3794,368.9688 Q246.1294,368.7969 246.02,368.3438 Q245.9731,368.0313 245.8013,367.8594 Q245.4888,367.5313 244.9263,367.3438 Q244.3638,367.1406 243.8013,367.1406 Q243.0981,367.1406 242.5044,367.4219 Q241.9263,367.7031 241.4731,368.3281 Q241.02,368.9531 241.02,369.8125 L241.02,370.7344 Q241.02,371.7656 241.8638,372.4531 Q242.7075,373.1406 244.2075,373.1406 Q245.0981,373.1406 245.7231,372.9375 Q246.0825,372.8281 246.4888,372.4688 Q246.7544,372.2656 246.895,372.2031 Q247.0356,372.1406 247.2075,372.1406 Q247.5356,372.1406 247.77,372.4063 Q248.02,372.6563 248.02,373.0156 Q248.02,373.3594 247.6763,373.7656 Q247.1763,374.3594 246.3794,374.6875 Q245.3325,375.1406 244.0513,375.1406 Q242.5513,375.1406 241.3481,374.5469 Q240.3794,374.0781 239.6919,373.0625 Q239.02,372.0469 239.02,370.8438 L239.02,369.75 Q239.02,368.5 239.6138,367.4063 Q240.2231,366.3125 241.27,365.7344 Q242.3325,365.1406 243.52,365.1406 Q244.2388,365.1406 244.8638,365.3906 Q245.4888,365.6406 246.02,366.1406 Z " fill="#000000"/><text fill="#000000" font-family="sans-serif" font-size="12" lengthAdjust="spacing" textLength="26" x="258.02" y="374.5508">Goal</text><line style="stroke:#A80036;stroke-width:1.5;" x1="230.02" x2="286.02" y1="385.6406" y2="385.6406"/><line style="stroke:#A80036;stroke-width:1.5;" x1="230.02" x2="286.02" y1="393.6406" y2="393.6406"/><!--MD5=[d8c8cfd5ca149094f5b67f9f607a5ec7]
class Token--><rect fill="#FEFECE" filter="url(#f16ovny743so1m)" height="48" id="Token" style="stroke:#A80036;stroke-width:1.5;" width="66" x="385.02" y="569.6406"/><ellipse cx="400.02" cy="585.6406" fill="#ADD1B2" rx="11" ry="11" style="stroke:#A80036;stroke-width:1.0;"/><path d="M402.02,582.1406 Q402.2231,581.6406 402.4575,581.3906 Q402.6919,581.1406 402.9575,581.1406 Q403.4263,581.1406 403.7231,581.4219 Q404.02,581.7031 404.02,582.3594 L404.02,583.9219 Q404.02,584.5781 403.7388,584.8594 Q403.4575,585.1406 403.02,585.1406 Q402.6294,585.1406 402.3794,584.9688 Q402.1294,584.7969 402.02,584.3438 Q401.9731,584.0313 401.8013,583.8594 Q401.4888,583.5313 400.9263,583.3438 Q400.3638,583.1406 399.8013,583.1406 Q399.0981,583.1406 398.5044,583.4219 Q397.9263,583.7031 397.4731,584.3281 Q397.02,584.9531 397.02,585.8125 L397.02,586.7344 Q397.02,587.7656 397.8638,588.4531 Q398.7075,589.1406 400.2075,589.1406 Q401.0981,589.1406 401.7231,588.9375 Q402.0825,588.8281 402.4888,588.4688 Q402.7544,588.2656 402.895,588.2031 Q403.0356,588.1406 403.2075,588.1406 Q403.5356,588.1406 403.77,588.4063 Q404.02,588.6563 404.02,589.0156 Q404.02,589.3594 403.6763,589.7656 Q403.1763,590.3594 402.3794,590.6875 Q401.3325,591.1406 400.0513,591.1406 Q398.5513,591.1406 397.3481,590.5469 Q396.3794,590.0781 395.6919,589.0625 Q395.02,588.0469 395.02,586.8438 L395.02,585.75 Q395.02,584.5 395.6138,583.4063 Q396.2231,582.3125 397.27,581.7344 Q398.3325,581.1406 399.52,581.1406 Q400.2388,581.1406 400.8638,581.3906 Q401.4888,581.6406 402.02,582.1406 Z " fill="#000000"/><text fill="#000000" font-family="sans-serif" font-size="12" lengthAdjust="spacing" textLength="34" x="414.02" y="590.5508">Token</text><line style="stroke:#A80036;stroke-width:1.5;" x1="386.02" x2="450.02" y1="601.6406" y2="601.6406"/><line style="stroke:#A80036;stroke-width:1.5;" x1="386.02" x2="450.02" y1="609.6406" y2="609.6406"/><!--MD5=[9ddfc9bd1e3a4b04466623ab197feef8]
class Vertical--><rect fill="#FEFECE" filter="url(#f16ovny743so1m)" height="48" id="Vertical" style="stroke:#A80036;stroke-width:1.5;" width="72" x="89.02" y="461.6406"/><ellipse cx="104.02" cy="477.6406" fill="#ADD1B2" rx="11" ry="11" style="stroke:#A80036;stroke-width:1.0;"/><path d="M106.02,474.1406 Q106.2231,473.6406 106.4575,473.3906 Q106.6919,473.1406 106.9575,473.1406 Q107.4263,473.1406 107.7231,473.4219 Q108.02,473.7031 108.02,474.3594 L108.02,475.9219 Q108.02,476.5781 107.7388,476.8594 Q107.4575,477.1406 107.02,477.1406 Q106.6294,477.1406 106.3794,476.9688 Q106.1294,476.7969 106.02,476.3438 Q105.9731,476.0313 105.8013,475.8594 Q105.4888,475.5313 104.9263,475.3438 Q104.3638,475.1406 103.8013,475.1406 Q103.0981,475.1406 102.5044,475.4219 Q101.9263,475.7031 101.4731,476.3281 Q101.02,476.9531 101.02,477.8125 L101.02,478.7344 Q101.02,479.7656 101.8638,480.4531 Q102.7075,481.1406 104.2075,481.1406 Q105.0981,481.1406 105.7231,480.9375 Q106.0825,480.8281 106.4888,480.4688 Q106.7544,480.2656 106.895,480.2031 Q107.0356,480.1406 107.2075,480.1406 Q107.5356,480.1406 107.77,480.4063 Q108.02,480.6563 108.02,481.0156 Q108.02,481.3594 107.6763,481.7656 Q107.1763,482.3594 106.3794,482.6875 Q105.3325,483.1406 104.0513,483.1406 Q102.5513,483.1406 101.3481,482.5469 Q100.3794,482.0781 99.6919,481.0625 Q99.02,480.0469 99.02,478.8438 L99.02,477.75 Q99.02,476.5 99.6138,475.4063 Q100.2231,474.3125 101.27,473.7344 Q102.3325,473.1406 103.52,473.1406 Q104.2388,473.1406 104.8638,473.3906 Q105.4888,473.6406 106.02,474.1406 Z " fill="#000000"/><text fill="#000000" font-family="sans-serif" font-size="12" lengthAdjust="spacing" textLength="40" x="118.02" y="482.5508">Vertical</text><line style="stroke:#A80036;stroke-width:1.5;" x1="90.02" x2="160.02" y1="493.6406" y2="493.6406"/><line style="stroke:#A80036;stroke-width:1.5;" x1="90.02" x2="160.02" y1="501.6406" y2="501.6406"/><!--MD5=[a135607b44036ad87f368405615013d9]
class Diagonal--><rect fill="#FEFECE" filter="url(#f16ovny743so1m)" height="48" id="Diagonal" style="stroke:#A80036;stroke-width:1.5;" width="82" x="196.02" y="461.6406"/><ellipse cx="211.02" cy="477.6406" fill="#ADD1B2" rx="11" ry="11" style="stroke:#A80036;stroke-width:1.0;"/><path d="M213.02,474.1406 Q213.2231,473.6406 213.4575,473.3906 Q213.6919,473.1406 213.9575,473.1406 Q214.4263,473.1406 214.7231,473.4219 Q215.02,473.7031 215.02,474.3594 L215.02,475.9219 Q215.02,476.5781 214.7388,476.8594 Q214.4575,477.1406 214.02,477.1406 Q213.6294,477.1406 213.3794,476.9688 Q213.1294,476.7969 213.02,476.3438 Q212.9731,476.0313 212.8013,475.8594 Q212.4888,475.5313 211.9263,475.3438 Q211.3638,475.1406 210.8013,475.1406 Q210.0981,475.1406 209.5044,475.4219 Q208.9263,475.7031 208.4731,476.3281 Q208.02,476.9531 208.02,477.8125 L208.02,478.7344 Q208.02,479.7656 208.8638,480.4531 Q209.7075,481.1406 211.2075,481.1406 Q212.0981,481.1406 212.7231,480.9375 Q213.0825,480.8281 213.4888,480.4688 Q213.7544,480.2656 213.895,480.2031 Q214.0356,480.1406 214.2075,480.1406 Q214.5356,480.1406 214.77,480.4063 Q215.02,480.6563 215.02,481.0156 Q215.02,481.3594 214.6763,481.7656 Q214.1763,482.3594 213.3794,482.6875 Q212.3325,483.1406 211.0513,483.1406 Q209.5513,483.1406 208.3481,482.5469 Q207.3794,482.0781 206.6919,481.0625 Q206.02,480.0469 206.02,478.8438 L206.02,477.75 Q206.02,476.5 206.6138,475.4063 Q207.2231,474.3125 208.27,473.7344 Q209.3325,473.1406 210.52,473.1406 Q211.2388,473.1406 211.8638,473.3906 Q212.4888,473.6406 213.02,474.1406 Z " fill="#000000"/><text fill="#000000" font-family="sans-serif" font-size="12" lengthAdjust="spacing" textLength="50" x="225.02" y="482.5508">Diagonal</text><line style="stroke:#A80036;stroke-width:1.5;" x1="197.02" x2="277.02" y1="493.6406" y2="493.6406"/><line style="stroke:#A80036;stroke-width:1.5;" x1="197.02" x2="277.02" y1="501.6406" y2="501.6406"/><!--MD5=[2808de09be71fab9caf2df132bae0681]
class Horizontal--><rect fill="#FEFECE" filter="url(#f16ovny743so1m)" height="48" id="Horizontal" style="stroke:#A80036;stroke-width:1.5;" width="87" x="313.52" y="461.6406"/><ellipse cx="328.52" cy="477.6406" fill="#ADD1B2" rx="11" ry="11" style="stroke:#A80036;stroke-width:1.0;"/><path d="M330.52,474.1406 Q330.7231,473.6406 330.9575,473.3906 Q331.1919,473.1406 331.4575,473.1406 Q331.9263,473.1406 332.2231,473.4219 Q332.52,473.7031 332.52,474.3594 L332.52,475.9219 Q332.52,476.5781 332.2388,476.8594 Q331.9575,477.1406 331.52,477.1406 Q331.1294,477.1406 330.8794,476.9688 Q330.6294,476.7969 330.52,476.3438 Q330.4731,476.0313 330.3013,475.8594 Q329.9888,475.5313 329.4263,475.3438 Q328.8638,475.1406 328.3013,475.1406 Q327.5981,475.1406 327.0044,475.4219 Q326.4263,475.7031 325.9731,476.3281 Q325.52,476.9531 325.52,477.8125 L325.52,478.7344 Q325.52,479.7656 326.3638,480.4531 Q327.2075,481.1406 328.7075,481.1406 Q329.5981,481.1406 330.2231,480.9375 Q330.5825,480.8281 330.9888,480.4688 Q331.2544,480.2656 331.395,480.2031 Q331.5356,480.1406 331.7075,480.1406 Q332.0356,480.1406 332.27,480.4063 Q332.52,480.6563 332.52,481.0156 Q332.52,481.3594 332.1763,481.7656 Q331.6763,482.3594 330.8794,482.6875 Q329.8325,483.1406 328.5513,483.1406 Q327.0513,483.1406 325.8481,482.5469 Q324.8794,482.0781 324.1919,481.0625 Q323.52,480.0469 323.52,478.8438 L323.52,477.75 Q323.52,476.5 324.1138,475.4063 Q324.7231,474.3125 325.77,473.7344 Q326.8325,473.1406 328.02,473.1406 Q328.7388,473.1406 329.3638,473.3906 Q329.9888,473.6406 330.52,474.1406 Z " fill="#000000"/><text fill="#000000" font-family="sans-serif" font-size="12" lengthAdjust="spacing" textLength="55" x="342.52" y="482.5508">Horizontal</text><line style="stroke:#A80036;stroke-width:1.5;" x1="314.52" x2="399.52" y1="493.6406" y2="493.6406"/><line style="stroke:#A80036;stroke-width:1.5;" x1="314.52" x2="399.52" y1="501.6406" y2="501.6406"/><!--MD5=[5655ee3e2a0d028d03fe20f829576392]
class Square--><rect fill="#FEFECE" filter="url(#f16ovny743so1m)" height="48" id="Square" style="stroke:#A80036;stroke-width:1.5;" width="72" x="486.02" y="569.6406"/><ellipse cx="501.02" cy="585.6406" fill="#ADD1B2" rx="11" ry="11" style="stroke:#A80036;stroke-width:1.0;"/><path d="M503.02,582.1406 Q503.2231,581.6406 503.4575,581.3906 Q503.6919,581.1406 503.9575,581.1406 Q504.4263,581.1406 504.7231,581.4219 Q505.02,581.7031 505.02,582.3594 L505.02,583.9219 Q505.02,584.5781 504.7388,584.8594 Q504.4575,585.1406 504.02,585.1406 Q503.6294,585.1406 503.3794,584.9688 Q503.1294,584.7969 503.02,584.3438 Q502.9731,584.0313 502.8013,583.8594 Q502.4888,583.5313 501.9263,583.3438 Q501.3638,583.1406 500.8013,583.1406 Q500.0981,583.1406 499.5044,583.4219 Q498.9263,583.7031 498.4731,584.3281 Q498.02,584.9531 498.02,585.8125 L498.02,586.7344 Q498.02,587.7656 498.8638,588.4531 Q499.7075,589.1406 501.2075,589.1406 Q502.0981,589.1406 502.7231,588.9375 Q503.0825,588.8281 503.4888,588.4688 Q503.7544,588.2656 503.895,588.2031 Q504.0356,588.1406 504.2075,588.1406 Q504.5356,588.1406 504.77,588.4063 Q505.02,588.6563 505.02,589.0156 Q505.02,589.3594 504.6763,589.7656 Q504.1763,590.3594 503.3794,590.6875 Q502.3325,591.1406 501.0513,591.1406 Q499.5513,591.1406 498.3481,590.5469 Q497.3794,590.0781 496.6919,589.0625 Q496.02,588.0469 496.02,586.8438 L496.02,585.75 Q496.02,584.5 496.6138,583.4063 Q497.2231,582.3125 498.27,581.7344 Q499.3325,581.1406 500.52,581.1406 Q501.2388,581.1406 501.8638,581.3906 Q502.4888,581.6406 503.02,582.1406 Z " fill="#000000"/><text fill="#000000" font-family="sans-serif" font-size="12" lengthAdjust="spacing" textLength="40" x="515.02" y="590.5508">Square</text><line style="stroke:#A80036;stroke-width:1.5;" x1="487.02" x2="557.02" y1="601.6406" y2="601.6406"/><line style="stroke:#A80036;stroke-width:1.5;" x1="487.02" x2="557.02" y1="609.6406" y2="609.6406"/><!--MD5=[e06ef809dd6be8ce79b58fe0a1161eb8]
class Column--><rect fill="#FEFECE" filter="url(#f16ovny743so1m)" height="48" id="Column" style="stroke:#A80036;stroke-width:1.5;" width="76" x="484.02" y="691.6406"/><ellipse cx="499.02" cy="707.6406" fill="#ADD1B2" rx="11" ry="11" style="stroke:#A80036;stroke-width:1.0;"/><path d="M501.02,704.1406 Q501.2231,703.6406 501.4575,703.3906 Q501.6919,703.1406 501.9575,703.1406 Q502.4263,703.1406 502.7231,703.4219 Q503.02,703.7031 503.02,704.3594 L503.02,705.9219 Q503.02,706.5781 502.7388,706.8594 Q502.4575,707.1406 502.02,707.1406 Q501.6294,707.1406 501.3794,706.9688 Q501.1294,706.7969 501.02,706.3438 Q500.9731,706.0313 500.8013,705.8594 Q500.4888,705.5313 499.9263,705.3438 Q499.3638,705.1406 498.8013,705.1406 Q498.0981,705.1406 497.5044,705.4219 Q496.9263,705.7031 496.4731,706.3281 Q496.02,706.9531 496.02,707.8125 L496.02,708.7344 Q496.02,709.7656 496.8638,710.4531 Q497.7075,711.1406 499.2075,711.1406 Q500.0981,711.1406 500.7231,710.9375 Q501.0825,710.8281 501.4888,710.4688 Q501.7544,710.2656 501.895,710.2031 Q502.0356,710.1406 502.2075,710.1406 Q502.5356,710.1406 502.77,710.4063 Q503.02,710.6563 503.02,711.0156 Q503.02,711.3594 502.6763,711.7656 Q502.1763,712.3594 501.3794,712.6875 Q500.3325,713.1406 499.0513,713.1406 Q497.5513,713.1406 496.3481,712.5469 Q495.3794,712.0781 494.6919,711.0625 Q494.02,710.0469 494.02,708.8438 L494.02,707.75 Q494.02,706.5 494.6138,705.4063 Q495.2231,704.3125 496.27,703.7344 Q497.3325,703.1406 498.52,703.1406 Q499.2388,703.1406 499.8638,703.3906 Q500.4888,703.6406 501.02,704.1406 Z " fill="#000000"/><text fill="#000000" font-family="sans-serif" font-size="12" lengthAdjust="spacing" textLength="44" x="513.02" y="712.5508">Column</text><line style="stroke:#A80036;stroke-width:1.5;" x1="485.02" x2="559.02" y1="723.6406" y2="723.6406"/><line style="stroke:#A80036;stroke-width:1.5;" x1="485.02" x2="559.02" y1="731.6406" y2="731.6406"/><!--MD5=[05aedcff764caeeb5d443618a4d90de7]
class Row--><rect fill="#FEFECE" filter="url(#f16ovny743so1m)" height="48" id="Row" style="stroke:#A80036;stroke-width:1.5;" width="57" x="595.52" y="691.6406"/><ellipse cx="610.52" cy="707.6406" fill="#ADD1B2" rx="11" ry="11" style="stroke:#A80036;stroke-width:1.0;"/><path d="M612.52,704.1406 Q612.7231,703.6406 612.9575,703.3906 Q613.1919,703.1406 613.4575,703.1406 Q613.9263,703.1406 614.2231,703.4219 Q614.52,703.7031 614.52,704.3594 L614.52,705.9219 Q614.52,706.5781 614.2388,706.8594 Q613.9575,707.1406 613.52,707.1406 Q613.1294,707.1406 612.8794,706.9688 Q612.6294,706.7969 612.52,706.3438 Q612.4731,706.0313 612.3013,705.8594 Q611.9888,705.5313 611.4263,705.3438 Q610.8638,705.1406 610.3013,705.1406 Q609.5981,705.1406 609.0044,705.4219 Q608.4263,705.7031 607.9731,706.3281 Q607.52,706.9531 607.52,707.8125 L607.52,708.7344 Q607.52,709.7656 608.3638,710.4531 Q609.2075,711.1406 610.7075,711.1406 Q611.5981,711.1406 612.2231,710.9375 Q612.5825,710.8281 612.9888,710.4688 Q613.2544,710.2656 613.395,710.2031 Q613.5356,710.1406 613.7075,710.1406 Q614.0356,710.1406 614.27,710.4063 Q614.52,710.6563 614.52,711.0156 Q614.52,711.3594 614.1763,711.7656 Q613.6763,712.3594 612.8794,712.6875 Q611.8325,713.1406 610.5513,713.1406 Q609.0513,713.1406 607.8481,712.5469 Q606.8794,712.0781 606.1919,711.0625 Q605.52,710.0469 605.52,708.8438 L605.52,707.75 Q605.52,706.5 606.1138,705.4063 Q606.7231,704.3125 607.77,703.7344 Q608.8325,703.1406 610.02,703.1406 Q610.7388,703.1406 611.3638,703.3906 Q611.9888,703.6406 612.52,704.1406 Z " fill="#000000"/><text fill="#000000" font-family="sans-serif" font-size="12" lengthAdjust="spacing" textLength="25" x="624.52" y="712.5508">Row</text><line style="stroke:#A80036;stroke-width:1.5;" x1="596.52" x2="651.52" y1="723.6406" y2="723.6406"/><line style="stroke:#A80036;stroke-width:1.5;" x1="596.52" x2="651.52" y1="731.6406" y2="731.6406"/><!--MD5=[6824fd9902778444ee49992acd2ffe7e]
link Connect4 to Turn--><path codeLine="8" d="M314.8874,87.132 C314.8874,87.132 293.67,114.5606 284.09,126.9406 " fill="none" id="Connect4-Turn" style="stroke:#A80036;stroke-width:1.0;"/><polygon fill="#A80036" points="276.06,137.3206,284.7339,132.6555,279.1221,133.368,278.4096,127.7561,276.06,137.3206" style="stroke:#A80036;stroke-width:1.0;"/><line style="stroke:#A80036;stroke-width:1.0;" x1="279.1221" x2="284.015" y1="133.368" y2="127.0356"/><polygon fill="#A80036" points="322.23,77.6406,315.3949,79.9388,314.8874,87.132,321.7225,84.8338,322.23,77.6406" style="stroke:#A80036;stroke-width:1.0;"/><text fill="#000000" font-family="sans-serif" font-size="13" lengthAdjust="spacing" textLength="29" x="247.9229" y="126.9806">7..42</text><!--MD5=[5426a1d26e36fcd61d30da6b8a6545ec]
link Connect4 to Board--><path codeLine="9" d="M354.4697,88.8548 C354.4697,88.8548 434.8,279.0506 460.99,341.0606 " fill="none" id="Connect4-Board" style="stroke:#A80036;stroke-width:1.0;"/><polygon fill="#A80036" points="466.15,353.2606,466.3325,343.4135,464.2043,348.6547,458.963,346.5266,466.15,353.2606" style="stroke:#A80036;stroke-width:1.0;"/><line style="stroke:#A80036;stroke-width:1.0;" x1="464.2043" x2="461.09" y1="348.6547" y2="341.2806"/><polygon fill="#A80036" points="349.8,77.8006,348.4501,84.8843,354.4697,88.8548,355.8195,81.7712,349.8,77.8006" style="stroke:#A80036;stroke-width:1.0;"/><!--MD5=[46750473935a00282743b47f522de7be]
link Connect4 to Player--><path codeLine="10" d="M332.781,89.6258 C332.781,89.6258 316.68,154.5806 304.02,185.6406 C297.31,202.0906 288.1,219.4006 279.68,233.9406 " fill="none" id="Connect4-Player" style="stroke:#A80036;stroke-width:1.0;"/><polygon fill="#A80036" points="272.86,245.4106,280.898,239.7193,275.4155,241.113,274.0218,235.6305,272.86,245.4106" style="stroke:#A80036;stroke-width:1.0;"/><line style="stroke:#A80036;stroke-width:1.0;" x1="275.4155" x2="279.5" y1="241.113" y2="234.2356"/><polygon fill="#A80036" points="335.38,77.9106,330.1755,82.9019,332.781,89.6258,337.9856,84.6345,335.38,77.9106" style="stroke:#A80036;stroke-width:1.0;"/><text fill="#000000" font-family="sans-serif" font-size="13" lengthAdjust="spacing" textLength="7" x="268.7659" y="234.6918">2</text><!--MD5=[d81713d91ad05be3b975338c4816ee0b]
link Turn to Player--><path codeLine="11" d="M258.02,185.6406 C258.02,201.6406 258.02,223.0906 258.02,240.1706 " fill="none" id="Turn-to-Player" style="stroke:#A80036;stroke-width:1.0;"/><polygon fill="#A80036" points="258.02,245.3206,262.02,236.3206,258.02,240.3206,254.02,236.3206,258.02,245.3206" style="stroke:#A80036;stroke-width:1.0;"/><!--MD5=[d9a3abe5fcc93a7ea7e1f4e2ed37734f]
link Board to Insertion--><path codeLine="12" d="M476.02,401.6406 C476.02,417.6406 476.02,439.0906 476.02,456.1706 " fill="none" id="Board-to-Insertion" style="stroke:#A80036;stroke-width:1.0;"/><polygon fill="#A80036" points="476.02,461.3206,480.02,452.3206,476.02,456.3206,472.02,452.3206,476.02,461.3206" style="stroke:#A80036;stroke-width:1.0;"/><text fill="#000000" font-family="sans-serif" font-size="13" lengthAdjust="spacing" textLength="29" x="443.4856" y="450.9806">7..42</text><!--MD5=[2a92216d381d9bf6f84ed4cf13521a84]
link Goal to Insertion--><path codeLine="13" d="M287.42,392.9406 C324.42,410.9306 388.34,442.0106 431.39,462.9406 " fill="none" id="Goal-to-Insertion" style="stroke:#A80036;stroke-width:1.0;"/><polygon fill="#A80036" points="436.01,465.1806,429.662,457.6505,431.5125,462.9961,426.1668,464.8465,436.01,465.1806" style="stroke:#A80036;stroke-width:1.0;"/><text fill="#000000" font-family="sans-serif" font-size="13" lengthAdjust="spacing" textLength="7" x="420.9878" y="457.4608">4</text><!--MD5=[525e20984b3f0335f86e1ed389de5b3d]
link Player to Token--><path codeLine="14" d="M224.94,288.5206 C155.47,328.3206 6,427.2306 71.02,509.6406 C109.17,558.0006 297.48,581.3106 379.61,589.3106 " fill="none" id="Player-to-Token" style="stroke:#A80036;stroke-width:1.0;"/><polygon fill="#A80036" points="384.86,589.8106,376.2903,584.9568,379.8836,589.3258,375.5146,592.9191,384.86,589.8106" style="stroke:#A80036;stroke-width:1.0;"/><text fill="#000000" font-family="sans-serif" font-size="13" lengthAdjust="spacing" textLength="14" x="362.9535" y="585.0113">21</text><!--MD5=[1571e4e0b7cdbae74b04c97a95677c54]
link Player to Goal--><path codeLine="15" d="M258.02,293.6406 C258.02,309.6406 258.02,331.0906 258.02,348.1706 " fill="none" id="Player-to-Goal" style="stroke:#A80036;stroke-width:1.0;"/><polygon fill="#A80036" points="258.02,353.3206,262.02,344.3206,258.02,348.3206,254.02,344.3206,258.02,353.3206" style="stroke:#A80036;stroke-width:1.0;"/><!--MD5=[3e26d6834a71a9527f7b0beabb13c375]
reverse link Goal to Vertical--><path codeLine="16" d="M213.31,414.2806 C193.85,429.7906 171.58,447.5306 154.28,461.3206 " fill="none" id="Goal-backto-Vertical" style="stroke:#A80036;stroke-width:1.0;"/><polygon fill="none" points="209.16,408.6306,229.16,401.6406,217.88,419.5806,209.16,408.6306" style="stroke:#A80036;stroke-width:1.0;"/><!--MD5=[5a16bdf27515cf253385e973d6fbc781]
reverse link Goal to Diagonal--><path codeLine="17" d="M249.5,421.6606 C246.81,435.2206 243.95,449.6806 241.64,461.3206 " fill="none" id="Goal-backto-Diagonal" style="stroke:#A80036;stroke-width:1.0;"/><polygon fill="none" points="242.71,419.9006,253.46,401.6406,256.44,422.6206,242.71,419.9006" style="stroke:#A80036;stroke-width:1.0;"/><!--MD5=[9c078bc154f9dba995e32f4ec3d43872]
reverse link Goal to Horizontal--><path codeLine="18" d="M293.28,416.3906 C307.28,431.3806 322.94,448.1506 335.24,461.3206 " fill="none" id="Goal-backto-Horizontal" style="stroke:#A80036;stroke-width:1.0;"/><polygon fill="none" points="288.04,421.0306,279.5,401.6406,298.27,411.4806,288.04,421.0306" style="stroke:#A80036;stroke-width:1.0;"/><!--MD5=[4ad96441c8a01d959d4bf4f2a5e1a798]
link Board to Square--><path codeLine="19" d="M505.7077,411.2397 C505.7077,411.2397 528.38,443.7306 534.02,461.6406 C543.82,492.7606 538.94,529.9506 532.72,556.7306 " fill="none" id="Board-Square" style="stroke:#A80036;stroke-width:1.0;"/><polygon fill="#A80036" points="529.52,569.3406,535.6123,561.6022,530.7508,564.4945,527.8585,559.6329,529.52,569.3406" style="stroke:#A80036;stroke-width:1.0;"/><line style="stroke:#A80036;stroke-width:1.0;" x1="530.7508" x2="532.72" y1="564.4945" y2="556.7406"/><polygon fill="#A80036" points="498.16,401.9106,498.8242,409.0911,505.7077,411.2397,505.0436,404.0593,498.16,401.9106" style="stroke:#A80036;stroke-width:1.0;"/><text fill="#000000" font-family="sans-serif" font-size="13" lengthAdjust="spacing" textLength="21" x="538.645" y="558.6039">6x7</text><!--MD5=[304335c530676c0c2555e056aeeb939b]
link Token to Color--><path codeLine="20" d="M418.02,617.7806 C418.02,633.2206 418.02,653.9706 418.02,672.3106 " fill="none" id="Token-to-Color" style="stroke:#A80036;stroke-width:1.0;"/><polygon fill="#A80036" points="418.02,677.4106,422.02,668.4106,418.02,672.4106,414.02,668.4106,418.02,677.4106" style="stroke:#A80036;stroke-width:1.0;"/><!--MD5=[cc6ad3ef1f9fa149e91a2830a7d28e41]
link Insertion to Token--><path codeLine="21" d="M463.44,509.6406 C454.6,525.7806 442.74,547.4606 433.36,564.6106 " fill="none" id="Insertion-to-Token" style="stroke:#A80036;stroke-width:1.0;"/><polygon fill="#A80036" points="430.78,569.3206,438.6094,563.3457,433.1803,564.9344,431.5915,559.5053,430.78,569.3206" style="stroke:#A80036;stroke-width:1.0;"/><!--MD5=[7fb48484a6529a4579ebfc4fca9fe8e9]
link Insertion to Square--><path codeLine="22" d="M486,509.6406 C493.01,525.7806 502.41,547.4606 509.86,564.6106 " fill="none" id="Insertion-to-Square" style="stroke:#A80036;stroke-width:1.0;"/><polygon fill="#A80036" points="511.9,569.3206,511.9943,559.4722,509.9132,564.7323,504.6531,562.6512,511.9,569.3206" style="stroke:#A80036;stroke-width:1.0;"/><text fill="#000000" font-family="sans-serif" font-size="13" lengthAdjust="spacing" textLength="0" x="508.9458" y="558.9806"/><!--MD5=[672a3da9421bc45597ac3a174d283bca]
reverse link Token to Square--><path codeLine="23" d="M456.46,593.6406 C466.25,593.6406 476.05,593.6406 485.85,593.6406 " fill="none" id="Token-backto-Square" style="stroke:#A80036;stroke-width:1.0;"/><polygon fill="#A80036" points="451.33,593.6406,460.33,597.6406,456.33,593.6406,460.33,589.6406,451.33,593.6406" style="stroke:#A80036;stroke-width:1.0;"/><text fill="#000000" font-family="sans-serif" font-size="13" lengthAdjust="spacing" textLength="22" x="456.098" y="589.2895">0..1</text><!--MD5=[0f2f9f456f6fde234ed10f53385b10db]
link Square to Column--><path codeLine="24" d="M522.02,617.7806 C522.02,637.3706 522.02,665.5106 522.02,686.4206 " fill="none" id="Square-to-Column" style="stroke:#A80036;stroke-width:1.0;"/><polygon fill="#A80036" points="522.02,691.5706,526.02,682.5706,522.02,686.5706,518.02,682.5706,522.02,691.5706" style="stroke:#A80036;stroke-width:1.0;"/><!--MD5=[fa993a6ce30a241d5d8fc98f4a6a1b48]
link Square to Row--><path codeLine="25" d="M541.69,617.7806 C558.69,637.7806 583.28,666.7106 601.16,687.7406 " fill="none" id="Square-to-Row" style="stroke:#A80036;stroke-width:1.0;"/><polygon fill="#A80036" points="604.41,691.5706,601.6279,682.1229,601.1713,687.7613,595.5329,687.3047,604.41,691.5706" style="stroke:#A80036;stroke-width:1.0;"/><!--MD5=[3aeb42847c2ba6547bd3f982521abc99]
@startuml
title Connect4

enum Color{
RED
YELLOW
}

Connect4 *- -> "7..42" Turn
Connect4 *- -> Board
Connect4 *- -> "2" Player
Turn - -> Player
Board - -> "7..42" Insertion
Goal - -> "4" Insertion
Player - -> "21" Token
Player - -> Goal
Goal <|- - Vertical
Goal <|- - Diagonal
Goal <|- - Horizontal
Board *- -> " 6x7" Square
Token - -> Color
Insertion - -> Token
Insertion - -> " " Square
Square -left-> "0..1" Token
Square - -> Column
Square - -> Row


@enduml

PlantUML version 1.2022.1(Tue Feb 01 19:19:58 CET 2022)
(GPL source distribution)
Java Runtime: OpenJDK Runtime Environment
JVM: OpenJDK 64-Bit Server VM
Default Encoding: Cp1252
Language: es
Country: ES
--></g></svg>